<svg id="svg" xmlns="http://www.w3.org/2000/svg" xmlns:xlink="http://www.w3.org/1999/xlink" width="400" height="400" viewBox="0, 0, 400,400"><g id="svgg"><path id="path0" d="M111.804 136.090 L 50.000 197.894 50.000 204.286 L 50.000 210.678 111.804 272.482 C 179.895 340.573,177.889 339.014,187.611 331.367 C 199.167 322.277,197.817 320.287,142.358 264.643 L 95.016 217.143 218.857 217.143 L 342.698 217.143 346.674 213.723 C 352.340 208.849,352.340 199.722,346.674 194.848 L 342.698 191.429 218.162 191.429 L 93.626 191.429 143.446 141.534 L 193.265 91.640 192.395 86.177 C 191.256 79.025,185.865 74.286,178.867 74.286 C 173.841 74.286,170.873 77.021,111.804 136.090 " stroke="none" fill="#000000" fill-rule="evenodd"></path></g></svg>