<svg id="svg" version="1.1" xmlns="http://www.w3.org/2000/svg" xmlns:xlink="http://www.w3.org/1999/xlink" width="400" height="400" viewBox="0, 0, 400,400"><g id="svgg"><path id="path0" d="M39.286 76.011 C 31.888 80.254,30.419 90.549,36.364 96.494 L 39.870 100.000 200.000 100.000 L 360.130 100.000 363.636 96.494 C 369.689 90.441,368.071 80.006,360.451 75.948 C 356.009 73.582,43.414 73.643,39.286 76.011 M36.364 190.649 C 31.491 195.522,31.491 204.478,36.364 209.351 L 39.870 212.857 200.000 212.857 L 360.130 212.857 363.636 209.351 C 366.216 206.771,367.143 204.300,367.143 200.000 C 367.143 195.700,366.216 193.229,363.636 190.649 L 360.130 187.143 200.000 187.143 L 39.870 187.143 36.364 190.649 M36.364 303.506 C 30.311 309.559,31.929 319.994,39.549 324.052 C 44.031 326.440,355.969 326.440,360.451 324.052 C 368.071 319.994,369.689 309.559,363.636 303.506 L 360.130 300.000 200.000 300.000 L 39.870 300.000 36.364 303.506 " stroke="none" fill="#000000" fill-rule="evenodd"></path></g></svg>