<svg id="svg" xmlns="http://www.w3.org/2000/svg" xmlns:xlink="http://www.w3.org/1999/xlink" width="400" height="400" viewBox="0, 0, 400,400"><g id="svgg"><path id="path0" d="M268.750 35.306 C 245.808 47.575,245.750 47.801,259.150 72.784 C 267.482 88.320,268.729 89.887,273.108 90.326 C 281.548 91.171,282.315 86.411,275.818 73.510 C 269.563 61.090,269.408 61.155,285.653 69.387 C 322.159 87.886,352.000 128.133,359.341 168.771 C 362.171 184.442,363.204 186.219,369.152 185.645 C 375.838 185.000,376.582 177.382,371.816 158.356 C 359.905 110.812,325.593 69.843,283.034 52.346 L 274.662 48.904 284.596 43.452 C 293.793 38.406,294.531 37.605,294.531 32.672 C 294.531 24.121,288.516 24.735,268.750 35.306 M141.406 34.605 C 136.537 37.249,37.572 136.196,35.054 140.938 C 32.143 146.417,32.192 156.814,35.157 163.063 C 38.310 169.706,232.396 363.454,237.992 365.545 C 253.957 371.507,253.780 371.631,312.212 313.508 C 370.814 255.215,371.575 254.138,365.545 237.992 C 363.454 232.396,169.706 38.310,163.063 35.157 C 157.332 32.438,145.931 32.147,141.406 34.605 M255.064 144.936 C 340.806 230.677,353.125 243.580,353.125 247.643 C 353.125 254.641,254.641 353.125,247.643 353.125 C 240.608 353.125,46.875 159.392,46.875 152.357 C 46.875 145.359,145.359 46.875,152.357 46.875 C 156.420 46.875,169.323 59.194,255.064 144.936 M103.663 101.891 C 87.129 118.029,84.724 126.563,96.710 126.563 C 102.468 126.563,126.563 102.512,126.563 96.764 C 126.563 85.155,119.096 86.827,103.663 101.891 M25.521 216.520 C 21.278 227.579,35.018 269.117,50.770 292.849 C 65.867 315.594,93.947 338.691,117.976 348.129 L 125.425 351.056 115.056 356.854 C 104.768 362.608,103.282 364.833,105.636 370.966 C 107.571 376.009,143.866 361.861,148.804 354.139 C 153.273 347.151,135.215 310.508,126.892 309.674 C 118.452 308.829,117.685 313.589,124.182 326.490 L 129.688 337.423 125.391 335.801 C 83.935 320.156,46.067 272.192,39.761 227.344 C 38.013 214.909,28.821 207.922,25.521 216.520 M273.789 268.757 C 259.030 277.755,265.521 301.563,282.734 301.563 C 290.855 301.563,297.274 298.327,299.696 293.012 C 307.826 275.168,290.256 258.717,273.789 268.757 M287.207 283.226 C 287.829 286.455,283.318 288.631,280.938 286.250 C 278.557 283.869,280.733 279.359,283.962 279.981 C 285.458 280.269,286.919 281.729,287.207 283.226 " stroke="none" fill="#000000" fill-rule="evenodd"></path></g></svg>