<svg id="svg" xmlns="http://www.w3.org/2000/svg" xmlns:xlink="http://www.w3.org/1999/xlink" width="400" height="400" viewBox="0, 0, 400,400"><g id="svgg"><path id="path0" d="M170.853 35.152 C 40.099 58.765,-12.703 218.785,78.552 314.873 C 165.404 406.324,318.538 372.576,358.543 253.169 C 398.654 133.445,294.769 12.775,170.853 35.152 M228.280 62.105 C 365.678 91.346,380.176 285.710,248.427 332.194 L 243.131 334.062 242.587 308.817 C 241.953 279.420,240.038 272.921,229.015 262.760 C 225.509 259.528,222.850 256.769,223.106 256.628 C 223.362 256.487,228.229 254.839,233.921 252.965 C 276.864 238.831,296.771 194.169,274.899 161.034 C 271.639 156.095,271.478 155.130,272.991 149.605 C 275.505 140.427,275.014 121.818,272.066 114.482 L 269.561 108.250 262.792 108.901 C 254.038 109.742,245.221 114.343,236.984 122.369 L 230.396 128.788 224.127 126.962 C 220.518 125.910,210.278 125.135,200.000 125.135 C 189.722 125.135,179.482 125.910,175.873 126.962 L 169.604 128.788 163.016 122.369 C 148.713 108.432,132.008 104.300,128.246 113.768 C 124.324 123.638,123.932 132.630,126.915 144.249 L 129.657 154.927 126.152 159.522 C 102.068 191.097,122.353 238.573,166.079 252.965 C 171.771 254.839,176.638 256.487,176.894 256.628 C 177.150 256.769,174.463 259.554,170.922 262.818 C 166.973 266.458,163.239 271.756,161.265 276.519 C 155.944 289.356,141.377 287.481,127.994 272.238 C 119.743 262.840,109.397 256.368,105.199 257.979 C 102.007 259.203,102.243 263.856,105.587 265.646 C 109.119 267.537,113.607 274.870,117.837 285.662 C 124.429 302.484,132.289 308.553,147.500 308.564 L 157.143 308.571 157.143 321.365 L 157.143 334.159 151.710 332.242 C 74.047 304.841,36.929 212.034,73.966 137.857 C 96.225 93.277,134.522 66.900,187.857 59.416 C 195.035 58.409,218.130 59.945,228.280 62.105 " stroke="none" fill="#000000" fill-rule="evenodd"></path></g></svg>