<?xml version="1.0" encoding="utf-8"?>
<!-- Generator: Adobe Illustrator 25.4.1, SVG Export Plug-In . SVG Version: 6.00 Build 0)  -->
<svg version="1.1" id="Layer_1" xmlns="http://www.w3.org/2000/svg" xmlns:xlink="http://www.w3.org/1999/xlink" x="0px" y="0px"
	 viewBox="0 0 283.465 283.465" enable-background="new 0 0 283.465 283.465" xml:space="preserve">
<g>
	<path fill="#64B5E5" d="M219.686,283.465H63.78C28.556,283.465,0,254.91,0,219.685V63.78C0,28.555,28.556,0,63.78,0h155.906
		c35.224,0,63.779,28.555,63.779,63.78v155.905C283.465,254.91,254.91,283.465,219.686,283.465 M265.04,219.685V63.78
		c0-25.049-20.306-45.355-45.354-45.355H63.78c-25.049,0-45.354,20.306-45.354,45.355v155.905c0,25.049,20.305,45.354,45.354,45.354
		h155.906C244.734,265.039,265.04,244.734,265.04,219.685"/>
	<g>
		<path fill="#FFFFFF" d="M225.03,61.655v0.02c0.16,9.17-3.53,18.07-10.13,24.42l-0.23,0.22v0.01
			c-2.38,2.39-24.57,24.58-24.81,24.82l-0.32,0.32l6.05,90.46c0.07,1.12-0.56,2.81-1.36,3.61l-10.25,10.25
			c-1.47,1.47-3.07,2.09-4.49,1.76c-1.43-0.34-2.58-1.61-3.24-3.58l-22.58-67.36l-1.14,1.12c-18.64,18.26-36.33,34.07-48.54,43.38
			l-0.46,0.35l3.72,26.26c0.06,0.46-0.19,1.22-0.51,1.54l-3.9,3.98c-0.51,0.51-1.08,0.75-1.62,0.66c-0.53-0.08-1-0.49-1.32-1.14
			l-13.08-26.38l-26.39-13.08c-0.65-0.32-1.05-0.8-1.14-1.33c-0.09-0.54,0.15-1.11,0.66-1.62l3.98-3.9
			c0.29-0.29,0.93-0.52,1.39-0.52c0.05,0,0.1,0.01,0.15,0.01l26.26,3.72l0.35-0.46c9.3-12.22,25.11-29.91,43.37-48.55l1.12-1.14
			l-67.36-22.58c-1.97-0.66-3.24-1.81-3.58-3.24c-0.33-1.43,0.29-3.02,1.76-4.49l10.25-10.25c0.8-0.8,2.49-1.43,3.61-1.36
			l90.46,6.05l25.36-25.36c3.26-3.38,7.3-6.09,11.7-7.83c3.84-1.51,9.3-3.13,13.51-2.22C223.87,58.565,225.03,60.015,225.03,61.655z
			"/>
	</g>
</g>
</svg>
