<?xml version="1.0" encoding="utf-8"?>
<!-- Generator: Adobe Illustrator 25.4.1, SVG Export Plug-In . SVG Version: 6.00 Build 0)  -->
<svg version="1.1" id="Layer_1" xmlns="http://www.w3.org/2000/svg" xmlns:xlink="http://www.w3.org/1999/xlink" x="0px" y="0px"
	 viewBox="0 0 283.465 283.465" enable-background="new 0 0 283.465 283.465" xml:space="preserve">
<g>
	<defs>
		<rect id="SVGID_1_" width="283.465" height="283.465"/>
	</defs>
	<clipPath id="SVGID_00000134210218833755596450000006636410089565077382_">
		<use xlink:href="#SVGID_1_"  overflow="visible"/>
	</clipPath>
	<path clip-path="url(#SVGID_00000134210218833755596450000006636410089565077382_)" fill="#64B5E5" d="M219.686,283.465H63.78
		C28.556,283.465,0,254.91,0,219.685V63.78C0,28.555,28.556,0,63.78,0h155.906c35.224,0,63.779,28.555,63.779,63.78v155.905
		C283.465,254.91,254.91,283.465,219.686,283.465 M265.04,219.685V63.78c0-25.049-20.306-45.355-45.354-45.355H63.78
		c-25.049,0-45.354,20.306-45.354,45.355v155.905c0,25.049,20.305,45.354,45.354,45.354h155.906
		C244.734,265.039,265.04,244.734,265.04,219.685"/>
	<path clip-path="url(#SVGID_00000134210218833755596450000006636410089565077382_)" fill="#25303B" d="M226.025,61.66
		c0-2.096-1.471-3.968-3.531-4.414c-1.769-0.382-3.872-0.078-5.649,0.134c-4.058,0.483-8.025,1.698-11.653,3.582
		c-3.293,1.71-6.277,3.967-8.836,6.63l-0.008-0.008l-25.023,25.023L81.319,86.59c-1.412-0.095-3.386,0.647-4.387,1.648
		L66.681,98.489c-3.561,3.561-2.568,7.783,2.207,9.384l65.848,22.073c-18.818,19.211-34.382,36.736-43.45,48.64l-25.677-3.637
		c-0.761-0.108-1.834,0.244-2.383,0.783l-3.975,3.901c-1.553,1.536-1.223,3.586,0.734,4.555l26.085,12.929l12.929,26.085
		c0.97,1.957,3.02,2.287,4.555,0.735l3.901-3.976c0.539-0.549,0.892-1.621,0.784-2.383l-3.639-25.681
		c11.902-9.07,29.423-24.637,48.629-43.458l22.073,65.848c1.6,4.774,5.823,5.768,9.384,2.206l10.251-10.25
		c1.001-1.001,1.742-2.976,1.648-4.388l-6.018-90.006l25.023-25.023l-0.004-0.004l0.006-0.006
		C222.377,80.282,226.191,71.078,226.025,61.66"/>
</g>
</svg>
