<?xml version="1.0" encoding="utf-8"?>
<!-- Generator: Adobe Illustrator 25.4.1, SVG Export Plug-In . SVG Version: 6.00 Build 0)  -->
<svg version="1.1" id="Layer_1" xmlns="http://www.w3.org/2000/svg" xmlns:xlink="http://www.w3.org/1999/xlink" x="0px" y="0px"
	 viewBox="0 0 283.465 283.465" enable-background="new 0 0 283.465 283.465" xml:space="preserve">
<g>
	<path fill="#64B5E5" d="M219.686,283.465H63.78C28.556,283.465,0,254.91,0,219.685V63.78C0,28.555,28.556,0,63.78,0h155.906
		c35.224,0,63.779,28.555,63.779,63.78v155.905C283.465,254.91,254.91,283.465,219.686,283.465 M265.04,219.685V63.78
		c0-25.049-20.306-45.355-45.354-45.355H63.78c-25.049,0-45.354,20.306-45.354,45.355v155.905c0,25.049,20.305,45.354,45.354,45.354
		h155.906C244.734,265.039,265.04,244.734,265.04,219.685"/>
	<path fill="#25303B" d="M230.655,155.921h-13.842c-4.575-17.727-13.404-34.031-25.929-47.712
		c-4.804-5.25-11.347-8.415-18.424-8.913c-10.177-0.717-20.525-1.08-30.755-1.08c-10.23,0-20.578,0.363-30.754,1.08
		c-7.076,0.498-13.62,3.663-18.425,8.912c-12.525,13.682-21.354,29.988-25.929,47.713H52.809c-1.769,0-3.203,1.434-3.203,3.203
		v3.231c0,1.769,1.434,3.203,3.203,3.203h11.758c-0.171,1.024-0.343,2.048-0.486,3.08c-0.229,1.646-0.349,3.319-0.356,4.999v38.976
		v4.725c0,5.218,4.231,9.448,9.449,9.448h9.449c5.218,0,9.449-4.23,9.449-9.448v-4.725h99.266v4.725c0,5.218,4.23,9.448,9.449,9.448
		h9.449c5.218,0,9.449-4.23,9.449-9.448v-11.811h-0.001V173.61c-0.007-1.649-0.126-3.321-0.354-4.97
		c-0.143-1.032-0.316-2.057-0.487-3.082h11.812c1.769,0,3.203-1.434,3.203-3.203v-3.231
		C233.858,157.355,232.424,155.921,230.655,155.921 M101.934,116.822c2.59-2.829,6.109-4.534,9.912-4.801
		c9.881-0.696,19.927-1.049,29.859-1.049c9.932,0,19.978,0.353,29.859,1.049c3.803,0.267,7.322,1.972,9.911,4.801
		c9.721,10.618,16.929,23.018,21.296,36.482c0.418,1.29-0.527,2.617-1.884,2.617H82.523c-1.356,0-2.302-1.327-1.883-2.617
		C85.006,139.839,92.214,127.44,101.934,116.822 M201.261,190.645h-19.843c-2.348,0-4.251-1.904-4.251-4.252v-4.252
		c0-2.348,1.903-4.252,4.251-4.252h19.843c2.348,0,4.252,1.904,4.252,4.252v4.252C205.513,188.741,203.609,190.645,201.261,190.645
		 M82.148,177.889h19.843c2.348,0,4.252,1.904,4.252,4.252v4.252c0,2.348-1.904,4.252-4.252,4.252H82.148
		c-2.348,0-4.251-1.904-4.251-4.252v-4.252C77.897,179.793,79.8,177.889,82.148,177.889 M82.865,80.15
		c1.2,1.239,1.491,3.131,1.491,4.887c0,1.757-0.291,3.649-1.491,4.887c-1.239,1.2-3.131,1.491-4.887,1.491
		c-1.756,0-3.649-0.291-4.888-1.491c-1.199-1.238-1.49-3.13-1.49-4.887c0-1.756,0.291-3.648,1.49-4.887
		c1.239-1.2,3.132-1.491,4.888-1.491C79.734,78.659,81.626,78.95,82.865,80.15 M51.695,61.453c0.665,0.03,1.296-0.127,1.885-0.387
		c0.292-0.132,0.567-0.3,0.837-0.476c0.138-0.085,0.272-0.175,0.404-0.267l0.194-0.142l0.094-0.072l0.048-0.037l0.023-0.018
		l0.012-0.01l0.005-0.004l0.003-0.003h0.001c-1.105,0.843,2.845-2.278,5.202-3.441c2.695-1.447,5.552-2.595,8.515-3.353
		c2.953-0.748,6.046-1.142,9.06-1.171c3.013,0.029,6.107,0.423,9.06,1.171c2.963,0.758,5.819,1.906,8.515,3.353
		c2.356,1.163,6.307,4.284,5.201,3.441h0.001l0.003,0.003l0.006,0.004l0.011,0.01l0.023,0.018l0.048,0.037l0.095,0.072l0.194,0.142
		c0.131,0.092,0.265,0.182,0.403,0.267c0.27,0.176,0.546,0.344,0.838,0.476c0.59,0.26,1.219,0.417,1.885,0.387
		c1.347-0.119,2.63-1.044,3.654-2.062c1.023-1.018,1.962-2.274,1.885-3.76c-0.054-0.751-0.377-1.46-0.849-2.103
		c-0.234-0.324-0.496-0.64-0.786-0.932c-0.148-0.142-0.301-0.28-0.456-0.415l-0.235-0.197l-0.119-0.097l-0.059-0.048l-0.029-0.024
		l-0.016-0.011l-0.007-0.006l-0.004-0.003l-0.001-0.001c1.416,1.079-3.641-2.917-6.665-4.406c-3.453-1.86-7.125-3.331-10.929-4.304
		c-3.818-0.964-7.697-1.467-11.667-1.501c-3.97,0.034-7.849,0.537-11.667,1.501c-3.804,0.973-7.476,2.444-10.93,4.304
		c-3.024,1.489-8.081,5.485-6.664,4.406l-0.001,0.001l-0.004,0.003l-0.007,0.006l-0.016,0.011l-0.03,0.024L48.6,51.887l-0.119,0.097
		l-0.234,0.197c-0.155,0.135-0.308,0.273-0.456,0.415c-0.29,0.292-0.553,0.608-0.787,0.932c-0.471,0.643-0.794,1.352-0.849,2.103
		c-0.076,1.486,0.862,2.742,1.886,3.76C49.064,60.409,50.348,61.334,51.695,61.453 M64.647,74.513
		c1.293,0.154,2.363-0.402,3.315-1.015c3.006-1.967,6.572-2.99,10.016-3.029c3.443,0.039,7.009,1.062,10.015,3.029
		c0.953,0.613,2.022,1.169,3.315,1.015c1.283-0.182,2.572-1.097,3.598-2.114c1.025-1.013,1.977-2.268,1.831-3.812
		c-0.205-1.532-1.556-2.939-3.034-3.887c-4.723-3.062-10.154-4.669-15.725-4.72c-5.571,0.051-11.003,1.658-15.726,4.72
		c-1.478,0.948-2.828,2.355-3.033,3.887c-0.147,1.544,0.805,2.799,1.83,3.812C62.076,73.416,63.365,74.331,64.647,74.513"/>
</g>
</svg>
