<?xml version="1.0" encoding="utf-8"?>
<!-- Generator: Adobe Illustrator 25.4.1, SVG Export Plug-In . SVG Version: 6.00 Build 0)  -->
<svg version="1.1" id="Layer_1" xmlns="http://www.w3.org/2000/svg" xmlns:xlink="http://www.w3.org/1999/xlink" x="0px" y="0px"
	 viewBox="0 0 283.465 283.465" enable-background="new 0 0 283.465 283.465" xml:space="preserve">
<path fill="#64B5E5" d="M219.686,0H63.78C28.556,0,0,28.555,0,63.78v155.905c0,35.225,28.556,63.78,63.78,63.78h155.906
	c35.224,0,63.779-28.555,63.779-63.78V63.78C283.465,28.555,254.91,0,219.686,0z M265.04,219.685
	c0,25.049-20.306,45.354-45.354,45.354H63.78c-25.049,0-45.354-20.305-45.354-45.354V63.78c0-25.049,20.305-45.355,45.354-45.355
	h155.906c25.048,0,45.354,20.306,45.354,45.355V219.685z"/>
<g>
	<path fill="#FFFFFF" d="M77.979,79.659c-1.981,0-3.352,0.396-4.192,1.209c-0.79,0.817-1.186,2.188-1.186,4.168
		c0,1.981,0.395,3.352,1.208,4.191c0.818,0.792,2.189,1.187,4.17,1.187c1.98,0,3.351-0.396,4.191-1.209
		c0.791-0.817,1.187-2.188,1.187-4.169c0-1.971-0.392-3.339-1.198-4.18C81.317,80.051,79.949,79.659,77.979,79.659z"/>
	<path fill="#FFFFFF" d="M91.19,73.52c0.869-0.123,1.947-0.774,3.012-1.831c1.154-1.141,1.628-2.068,1.54-3.008
		c-0.135-1.003-1.1-2.191-2.578-3.14c-4.528-2.936-9.781-4.512-15.194-4.562c-5.396,0.049-10.648,1.626-15.173,4.559
		c-1.481,0.951-2.446,2.139-2.585,3.181c-0.085,0.902,0.389,1.829,1.542,2.969c1.063,1.053,2.136,1.703,3.024,1.833
		c0.913,0.106,1.721-0.269,2.645-0.864c3.075-2.012,6.822-3.146,10.546-3.188c3.745,0.042,7.493,1.176,10.574,3.192
		C89.464,73.255,90.275,73.634,91.19,73.52z"/>
	<path fill="#FFFFFF" d="M53.177,60.151c0.234-0.105,0.473-0.254,0.695-0.399c0.143-0.088,0.26-0.167,0.376-0.249l0.193-0.143
		l-0.001-0.002l0.155-0.117l0.028,0.037c1.511-1.431,5.29-3.556,5.337-3.58c2.814-1.511,5.754-2.668,8.709-3.425
		c3.029-0.767,6.157-1.171,9.298-1.202c3.117,0.03,6.331,0.446,9.315,1.202c2.771,0.709,5.529,1.771,8.208,3.159l4.821,3.009
		c0.115,0.085,0.227,0.17,0.334,0.255l0.87,0.662l-0.002,0.002l0.21,0.154c0.1,0.07,0.216,0.148,0.336,0.222
		c0.232,0.151,0.48,0.306,0.726,0.417c0.502,0.222,0.973,0.323,1.428,0.299c0.856-0.076,1.906-0.69,2.994-1.772
		c1.133-1.127,1.639-2.081,1.591-2.999c-0.035-0.485-0.256-1.018-0.656-1.563c-0.223-0.307-0.454-0.581-0.689-0.819
		c-0.119-0.113-0.261-0.241-0.405-0.367l-0.412-0.339c-0.002-0.001-0.004-0.003-0.006-0.005l-0.033-0.026l0.005-0.006
		c-0.945-0.724-4.291-3.198-6.473-4.272c-3.5-1.885-7.102-3.303-10.735-4.232c-3.731-0.942-7.577-1.437-11.428-1.47
		c-3.834,0.033-7.68,0.527-11.414,1.471c-3.63,0.928-7.231,2.346-10.701,4.214c-2.196,1.082-5.602,3.599-6.519,4.3l0.005,0.006
		l-0.037,0.029c-0.02,0.015-0.04,0.03-0.06,0.045l-0.354,0.297c-0.13,0.114-0.271,0.242-0.408,0.373
		c-0.222,0.224-0.453,0.497-0.668,0.795c-0.403,0.552-0.625,1.085-0.662,1.591c-0.046,0.898,0.46,1.851,1.594,2.977
		c1.079,1.074,2.121,1.687,3.016,1.773C52.22,60.467,52.676,60.372,53.177,60.151z"/>
	<path fill="#FFFFFF" d="M230.655,156.921h-14.616l-0.194-0.75c-4.518-17.507-13.404-33.858-25.697-47.287
		c-4.631-5.06-10.937-8.111-17.757-8.591c-10.153-0.715-20.477-1.078-30.686-1.078s-20.532,0.363-30.683,1.078
		c-6.82,0.48-13.126,3.531-17.758,8.59c-12.293,13.429-21.18,29.78-25.698,47.288l-0.193,0.75H52.81
		c-1.215,0-2.203,0.988-2.203,2.203v3.23c0,1.215,0.988,2.203,2.203,2.203h12.938l-0.213,1.276
		c-0.163,0.978-0.327,1.955-0.463,2.941c-0.224,1.605-0.34,3.242-0.347,4.865v43.697c0,4.658,3.79,8.448,8.449,8.448h9.449
		c4.659,0,8.449-3.79,8.449-8.448v-5.725h101.267v5.725c0,4.658,3.79,8.448,8.448,8.448h9.449c4.659,0,8.449-3.79,8.449-8.448
		l-0.001-43.729c-0.007-1.601-0.123-3.228-0.345-4.832c-0.133-0.959-0.292-1.91-0.45-2.862l-0.227-1.357h12.992
		c1.215,0,2.203-0.988,2.203-2.203v-3.23C232.858,157.909,231.87,156.921,230.655,156.921z M79.689,152.995
		c4.449-13.721,11.685-26.119,21.507-36.849c2.764-3.019,6.521-4.838,10.58-5.123c9.903-0.698,19.973-1.052,29.928-1.052
		c9.956,0,20.025,0.354,29.93,1.052c4.06,0.285,7.816,2.104,10.578,5.123c9.822,10.729,17.059,23.126,21.51,36.849
		c0.297,0.915,0.137,1.925-0.427,2.7c-0.566,0.778-1.444,1.226-2.408,1.226H82.523c-0.964,0-1.842-0.447-2.409-1.227
		C79.551,154.919,79.393,153.91,79.689,152.995z M107.244,186.393c0,2.896-2.356,5.252-5.252,5.252H82.148
		c-2.896,0-5.251-2.356-5.251-5.252v-4.252c0-2.896,2.355-5.252,5.251-5.252h19.843c2.896,0,5.252,2.356,5.252,5.252V186.393z
		 M206.514,186.393c0,2.896-2.356,5.252-5.252,5.252h-19.843c-2.896,0-5.251-2.356-5.251-5.252v-4.252
		c0-2.896,2.355-5.252,5.251-5.252h19.843c2.896,0,5.252,2.356,5.252,5.252V186.393z"/>
</g>
</svg>
