<svg xmlns="http://www.w3.org/2000/svg" viewBox="0 0 407.19 283.46"><defs><style>.cls-1{fill:#64b5e5;}.cls-2{fill:#25303b;}</style></defs><g id="Layer_2" data-name="Layer 2"><g id="Layer_1-2" data-name="Layer 1"><path class="cls-1" d="M343.41,283.46H63.78A63.78,63.78,0,0,1,0,219.68V63.78A63.78,63.78,0,0,1,63.78,0H343.41a63.77,63.77,0,0,1,63.78,63.78v155.9a63.77,63.77,0,0,1-63.78,63.78m45.36-63.78V63.78a45.35,45.35,0,0,0-45.36-45.35H63.78A45.35,45.35,0,0,0,18.43,63.78v155.9A45.35,45.35,0,0,0,63.78,265H343.41a45.36,45.36,0,0,0,45.36-45.36"/><path class="cls-2" d="M42.72,90.59V104.5a6.25,6.25,0,0,0,1.35,4.42,5.79,5.79,0,0,0,3.9,1.33h0V146.6a9.5,9.5,0,0,0,4.38,8v3.66a5.23,5.23,0,0,0,5.23,5.23h5.23A5.23,5.23,0,0,0,68,158.25V156.1h47.09v2.15a5.24,5.24,0,0,0,5.23,5.23h5.24a5.23,5.23,0,0,0,5.23-5.23v-3.66a9.5,9.5,0,0,0,4.38-8V110.26h0a5.84,5.84,0,0,0,3.9-1.33,6.3,6.3,0,0,0,1.35-4.42V90.59a6.3,6.3,0,0,0-1.35-4.42,6.28,6.28,0,0,0-4.43-1.35,9.27,9.27,0,0,0-2.28.25c-.48-2.12-1-4.23-1.62-6.3-2.24-7.67-7.8-12.63-14.14-12.63H66.54c-6.35,0-11.9,5-14.15,12.64-.6,2.06-1.13,4.17-1.62,6.29a9.16,9.16,0,0,0-2.28-.25,6.25,6.25,0,0,0-4.42,1.35,6.25,6.25,0,0,0-1.35,4.42m62.71-15.78a1.7,1.7,0,0,1-1.7,1.7H79.45a1.71,1.71,0,0,1-1.71-1.7V73.08a1.71,1.71,0,0,1,1.71-1.7h24.28a1.7,1.7,0,0,1,1.7,1.7Zm5.78,64a2.26,2.26,0,0,1,2.27-2.26h11.16a2.27,2.27,0,0,1,2.27,2.26v2.27a2.27,2.27,0,0,1-2.27,2.26H113.48a2.26,2.26,0,0,1-2.27-2.26Zm-54.94,0a2.26,2.26,0,0,1,2.27-2.26H69.7A2.27,2.27,0,0,1,72,138.8v2.27a2.27,2.27,0,0,1-2.27,2.26H58.54a2.26,2.26,0,0,1-2.27-2.26Zm-.18-28.54a104.44,104.44,0,0,1,3.3-26.33l.35-1.27a1.73,1.73,0,0,1,1.57-1.2H122c.69,0,1.34.33,1.45.74s.21.74.41,1.48a104.52,104.52,0,0,1,3.37,26.59v14.49A1.25,1.25,0,0,1,126,126H57.33a1.25,1.25,0,0,1-1.24-1.24Z"/><path class="cls-2" d="M365,135.46c0-14.53-8.15-23-18.42-28.7l-7.8-4.25c-4.6-2.49-8.5-6.38-8.5-11.34,0-5.67,4.6-9.57,11.33-9.57,4.61,0,8.86,1.77,12.05,3.19,5,2.48,8.15-.71,9.57-6,1.77-6-.71-8.15-5-10.28A38,38,0,0,0,341.94,65c-16.66,0-30.48,11-30.48,28.7,0,13.82,7.09,21.61,18.44,28l8.14,4.61c5,2.83,8.15,6.73,8.15,12,0,6.74-6.38,9.93-12.75,9.93-5,0-11-2.13-14.18-3.55-5.31-2.48-8.15.71-9.92,6.38-1.77,6,1.07,8.51,5.67,10.63,4.25,2.13,11.69,3.9,18.43,3.9,17.36,0,31.53-11.69,31.53-30.12m-62-3.55V73.1c0-5-5-7.44-9.56-7.44-5,0-9.57,2.48-9.57,7.44v56.33c0,11.35-3.55,18.79-12.76,18.79-8.85,0-13.11-7.09-13.11-18.79V73.1c0-5-5.31-7.44-9.92-7.44-5.31,0-9.92,2.48-9.92,7.44v58.46c0,23.39,11.69,34,32.95,34,19.13,0,31.89-11,31.89-33.67m-74.06,4.26c0-16.3-11.33-22.33-17.36-23.39v-.35c7.09-3.55,15.6-10.28,15.6-22.33,0-16.29-14.18-24.09-28-24.09H172.57c-5,0-7.8,3.9-7.8,8.15v82.91c0,5,5,7.45,9.57,7.45H199.5c15.23,0,29.4-8.16,29.4-28.35M207.29,94.71c0,9.21-7.79,12.41-15.94,12.41h-7.44V82.31h7.44c8.5,0,15.94,2.83,15.94,12.4M210.13,134c0,9.57-5.32,14.18-16.66,14.18H185V120.58h8.5c7.09,0,16.66,2.48,16.66,13.46"/><path class="cls-2" d="M42.71,211.89a21.17,21.17,0,0,0,9.67,2.57c3.45,0,5.23-1.47,5.23-3.86,0-2.22-1.82-3.15-6.48-4.52-5.49-1.64-8.69-4.61-8.69-9.8,0-6.3,4.88-10.42,11.75-10.42A18.32,18.32,0,0,1,63.06,188v6.2a16.8,16.8,0,0,0-8.69-2.44c-3.32,0-5.19,1.29-5.19,3.51s2,3.5,6.26,4.83c5.67,1.82,8.82,4.61,8.82,9.93,0,6.57-4.83,10.29-12.11,10.29a24.19,24.19,0,0,1-9.44-1.95Z"/><path class="cls-2" d="M69.58,207.67V186.39h6.78v20.48c0,5.5,2,7.59,6.3,7.59s5.89-2.4,5.89-8v-20h6.79v20c0,8.87-4.83,14-13,14-7.8,0-12.72-4.3-12.72-12.64"/><path class="cls-2" d="M102.21,186.39h11.35c7,0,10.55,3,10.55,8.56,0,3.54-1.42,5.89-4.43,7.05,3.68,1,5.81,3.77,5.81,8.2,0,6.12-4.08,9.62-11.44,9.62H102.21Zm6.83,5.85v8.21h3c3.45,0,5.1-1.47,5.1-4.26s-1.65-3.95-5.1-3.95Zm0,13.39V214h3.81c3.81,0,5.59-1.33,5.59-4.52,0-2.84-1.38-3.82-5.77-3.82Z"/><path class="cls-2" d="M130.05,211.89a21.17,21.17,0,0,0,9.67,2.57c3.45,0,5.23-1.47,5.23-3.86,0-2.22-1.82-3.15-6.48-4.52-5.49-1.64-8.69-4.61-8.69-9.8,0-6.3,4.88-10.42,11.75-10.42A18.32,18.32,0,0,1,150.4,188v6.2a16.8,16.8,0,0,0-8.69-2.44c-3.32,0-5.19,1.29-5.19,3.51s2,3.5,6.26,4.83c5.67,1.82,8.82,4.61,8.82,9.93,0,6.57-4.83,10.29-12.11,10.29a24.19,24.19,0,0,1-9.44-1.95Z"/><polygon class="cls-2" points="164.28 192.29 154.52 192.29 154.52 186.39 180.99 186.39 180.99 192.29 171.06 192.29 171.06 219.82 164.28 219.82 164.28 192.29"/><rect class="cls-2" x="185.56" y="186.34" width="6.83" height="33.48"/><polygon class="cls-2" points="206.66 192.29 196.91 192.29 196.91 186.39 223.38 186.39 223.38 192.29 213.45 192.29 213.45 219.82 206.66 219.82 206.66 192.29"/><path class="cls-2" d="M227.63,207.67V186.39h6.78v20.48c0,5.5,2,7.59,6.3,7.59s5.9-2.4,5.9-8v-20h6.78v20c0,8.87-4.83,14-13,14-7.81,0-12.73-4.3-12.73-12.64"/><polygon class="cls-2" points="267.31 192.29 257.56 192.29 257.56 186.39 284.03 186.39 284.03 192.29 274.1 192.29 274.1 219.82 267.31 219.82 267.31 192.29"/><rect class="cls-2" x="288.59" y="186.34" width="6.83" height="33.48"/><path class="cls-2" d="M301.09,203.55c0-10.69,6-17.69,15.57-17.69,9.31,0,14.76,6.56,14.76,16.67,0,10.33-5.85,17.82-15.69,17.82-9.14,0-14.64-6.51-14.64-16.8m22.84-.44c0-7.23-2.75-11.31-7.67-11.31s-7.72,4-7.72,11.22,2.75,11.44,7.76,11.44,7.63-4.17,7.63-11.35"/><polygon class="cls-2" points="337.09 186.39 342.9 186.39 358.29 207.01 358.29 186.39 364.81 186.39 364.81 219.82 358.95 219.82 343.66 198.76 343.66 219.82 337.09 219.82 337.09 186.39"/></g></g></svg>