<svg xmlns="http://www.w3.org/2000/svg" viewBox="0 0 283.46 283.46"><defs><style>.cls-1{fill:#64b5e5;}.cls-2{fill:#25303b;}</style></defs><g id="Layer_2" data-name="Layer 2"><g id="Layer_1-2" data-name="Layer 1"><path class="cls-1" d="M219.68,283.46H63.78A63.78,63.78,0,0,1,0,219.68V63.78A63.78,63.78,0,0,1,63.78,0h155.9a63.77,63.77,0,0,1,63.78,63.78v155.9a63.77,63.77,0,0,1-63.78,63.78M265,219.68V63.78a45.35,45.35,0,0,0-45.36-45.35H63.78A45.35,45.35,0,0,0,18.43,63.78v155.9A45.35,45.35,0,0,0,63.78,265h155.9A45.36,45.36,0,0,0,265,219.68"/><path class="cls-2" d="M241.83,146.62c0-14.53-8.15-23-18.43-28.7l-7.79-4.25c-4.6-2.48-8.5-6.38-8.5-11.34,0-5.67,4.6-9.56,11.33-9.56,4.61,0,8.86,1.76,12.05,3.18,5,2.48,8.15-.71,9.57-6,1.77-6-.71-8.15-5-10.27a38.08,38.08,0,0,0-16.3-3.55c-16.66,0-30.48,11-30.48,28.7,0,13.82,7.09,21.62,18.44,28l8.14,4.61c5,2.84,8.15,6.73,8.15,12.05,0,6.73-6.38,9.92-12.75,9.92-5,0-11-2.13-14.18-3.55-5.32-2.48-8.15.71-9.92,6.38-1.77,6,1.06,8.51,5.67,10.63,4.25,2.13,11.69,3.9,18.43,3.9,17.36,0,31.53-11.69,31.53-30.12m-62-3.54V84.26c0-5-5-7.44-9.57-7.44-4.95,0-9.56,2.48-9.56,7.44V140.6c0,11.34-3.55,18.78-12.76,18.78-8.85,0-13.11-7.09-13.11-18.78V84.26c0-5-5.31-7.44-9.92-7.44-5.31,0-9.92,2.48-9.92,7.44v58.46c0,23.39,11.69,34,33,34,19.13,0,31.89-11,31.89-33.66m-74.06,4.25c0-16.3-11.33-22.32-17.36-23.39v-.35c7.09-3.54,15.6-10.27,15.6-22.32,0-16.3-14.18-24.1-28-24.1H49.43c-5,0-7.8,3.9-7.8,8.15v82.92c0,5,5,7.44,9.57,7.44H76.36c15.23,0,29.4-8.15,29.4-28.35M84.15,105.87c0,9.22-7.79,12.41-15.94,12.41H60.76V93.47h7.45c8.5,0,15.94,2.84,15.94,12.4M87,145.21c0,9.56-5.32,14.17-16.66,14.17h-8.5V131.74h8.5c7.09,0,16.66,2.48,16.66,13.47"/><path class="cls-2" d="M41.27,213a13.14,13.14,0,0,0,6,1.6c2.15,0,3.25-.91,3.25-2.4s-1.13-2-4-2.81c-3.42-1-5.41-2.87-5.41-6.1,0-3.92,3-6.48,7.31-6.48a11.38,11.38,0,0,1,5.52,1.32V202a10.51,10.51,0,0,0-5.41-1.51c-2.07,0-3.23.8-3.23,2.17s1.24,2.18,3.89,3c3.53,1.13,5.49,2.87,5.49,6.18,0,4.09-3,6.4-7.53,6.4a15.12,15.12,0,0,1-5.88-1.21Z"/><path class="cls-2" d="M58,210.42V197.18h4.23v12.74c0,3.42,1.26,4.72,3.91,4.72s3.67-1.49,3.67-5V197.18H74v12.41c0,5.52-3,8.69-8.11,8.69-4.85,0-7.92-2.67-7.92-7.86"/><path class="cls-2" d="M78.3,197.18h7.06c4.36,0,6.57,1.85,6.57,5.32,0,2.21-.88,3.67-2.76,4.39,2.29.63,3.61,2.34,3.61,5.1,0,3.81-2.54,6-7.11,6H78.3Zm4.25,3.64v5.1H84.4c2.15,0,3.17-.91,3.17-2.65s-1-2.45-3.17-2.45Zm0,8.33v5.19h2.37c2.37,0,3.48-.83,3.48-2.82,0-1.76-.86-2.37-3.59-2.37Z"/><path class="cls-2" d="M95.63,213a13.07,13.07,0,0,0,6,1.6c2.15,0,3.26-.91,3.26-2.4s-1.14-2-4-2.81c-3.42-1-5.41-2.87-5.41-6.1,0-3.92,3-6.48,7.31-6.48a11.38,11.38,0,0,1,5.52,1.32V202a10.51,10.51,0,0,0-5.41-1.51c-2.07,0-3.23.8-3.23,2.17s1.25,2.18,3.89,3c3.53,1.13,5.49,2.87,5.49,6.18,0,4.09-3,6.4-7.53,6.4a15,15,0,0,1-5.87-1.21Z"/><polygon class="cls-2" points="116.92 200.85 110.86 200.85 110.86 197.18 127.33 197.18 127.33 200.85 121.15 200.85 121.15 217.98 116.92 217.98 116.92 200.85"/><rect class="cls-2" x="130.17" y="197.15" width="4.25" height="20.83"/><polygon class="cls-2" points="143.3 200.85 137.23 200.85 137.23 197.18 153.7 197.18 153.7 200.85 147.52 200.85 147.52 217.98 143.3 217.98 143.3 200.85"/><path class="cls-2" d="M156.35,210.42V197.18h4.22v12.74c0,3.42,1.27,4.72,3.92,4.72s3.67-1.49,3.67-5V197.18h4.22v12.41c0,5.52-3,8.69-8.11,8.69-4.86,0-7.92-2.67-7.92-7.86"/><polygon class="cls-2" points="181.04 200.85 174.97 200.85 174.97 197.18 191.44 197.18 191.44 200.85 185.26 200.85 185.26 217.98 181.04 217.98 181.04 200.85"/><rect class="cls-2" x="194.29" y="197.15" width="4.25" height="20.83"/><path class="cls-2" d="M202.07,207.85c0-6.64,3.72-11,9.68-11,5.8,0,9.19,4.08,9.19,10.37s-3.64,11.09-9.77,11.09c-5.68,0-9.1-4.06-9.1-10.46m14.21-.27c0-4.5-1.71-7-4.78-7s-4.8,2.51-4.8,7,1.71,7.12,4.83,7.12,4.75-2.59,4.75-7.06"/><polygon class="cls-2" points="224.47 197.18 228.08 197.18 237.66 210.01 237.66 197.18 241.71 197.18 241.71 217.98 238.07 217.98 228.55 204.87 228.55 217.98 224.47 217.98 224.47 197.18"/></g></g></svg>