<?xml version="1.0" encoding="utf-8"?>
<!-- Generator: Adobe Illustrator 25.4.1, SVG Export Plug-In . SVG Version: 6.00 Build 0)  -->
<svg version="1.1" id="Layer_1" xmlns="http://www.w3.org/2000/svg" xmlns:xlink="http://www.w3.org/1999/xlink" x="0px" y="0px"
	 viewBox="0 0 283.465 283.465" enable-background="new 0 0 283.465 283.465" xml:space="preserve">
<g>
	<path fill="#64B5E5" d="M219.685,283.465H63.779C28.555,283.465,0,254.911,0,219.686V63.78C0,28.556,28.555,0.001,63.779,0.001
		h155.906c35.224,0,63.779,28.555,63.779,63.779v155.906C283.464,254.911,254.909,283.465,219.685,283.465 M265.039,219.686V63.78
		c0-25.048-20.306-45.354-45.354-45.354H63.779c-25.049,0-45.354,20.306-45.354,45.354v155.906
		c0,25.048,20.305,45.354,45.354,45.354h155.906C244.733,265.04,265.039,244.734,265.039,219.686"/>
	<g>
		<path fill="#FFFFFF" d="M49.079,206.061c-2.628-0.822-4.151-1.637-4.151-3.365c0-1.599,1.347-2.554,3.603-2.554
			c1.685,0,3.706,0.503,5.032,1.218v-2.973c-1.271-0.711-3.258-1.164-5.142-1.164c-4.148,0-6.936,2.454-6.936,6.107
			c0,2.868,1.633,4.691,5.139,5.738c2.594,0.766,4.296,1.399,4.296,3.173c0,1.764-1.323,2.775-3.63,2.775
			c-1.791,0-4.049-0.549-5.64-1.342v3.146c1.691,0.702,3.635,1.087,5.502,1.087c4.48,0,7.156-2.253,7.156-6.025
			C54.308,208.976,52.744,207.235,49.079,206.061z"/>
		<path fill="#FFFFFF" d="M61.84,209.924v-12.371h-3.472v12.867c0,4.829,2.679,7.488,7.543,7.488c4.916,0,7.736-3.031,7.736-8.315
			v-12.04h-3.47v12.096c0,3.812-1.172,5.368-4.045,5.368C63.164,215.017,61.84,213.446,61.84,209.924z"/>
		<path fill="#FFFFFF" d="M89.07,207.25l-1.099-0.305l1.065-0.407c1.694-0.647,2.518-1.967,2.518-4.035
			c0-3.285-2.083-4.95-6.192-4.95h-6.687v20.052h6.991c4.349,0,6.743-1.993,6.743-5.611C92.409,209.496,91.254,207.856,89.07,207.25
			z M82.174,200.445h2.224c1.523,0,3.547,0.293,3.547,2.83c0,1.379-0.615,3.023-3.547,3.023h-2.224V200.445z M84.921,214.713h-2.747
			v-5.937h2.637c2.446,0,3.962,0.46,3.962,2.747C88.773,213.699,87.549,214.713,84.921,214.713z"/>
		<path fill="#FFFFFF" d="M103.43,206.061c-2.628-0.822-4.151-1.637-4.151-3.365c0-1.599,1.347-2.554,3.603-2.554
			c1.685,0,3.706,0.503,5.032,1.218v-2.973c-1.271-0.711-3.258-1.164-5.142-1.164c-4.148,0-6.936,2.454-6.936,6.107
			c0,2.868,1.633,4.691,5.139,5.738c2.594,0.766,4.296,1.399,4.296,3.173c0,1.764-1.323,2.775-3.63,2.775
			c-1.791,0-4.049-0.549-5.64-1.342v3.146c1.691,0.702,3.635,1.087,5.502,1.087c4.48,0,7.156-2.253,7.156-6.025
			C108.659,208.976,107.095,207.235,103.43,206.061z"/>
		<polygon fill="#FFFFFF" points="117.3,217.605 120.771,217.605 120.771,200.473 126.95,200.473 126.95,197.553 111.231,197.553 
			111.231,200.473 117.3,200.473 		"/>
		<rect x="130.543" y="197.525" fill="#FFFFFF" width="3.499" height="20.079"/>
		<polygon fill="#FFFFFF" points="143.676,217.605 147.147,217.605 147.147,200.473 153.326,200.473 153.326,197.553 
			137.607,197.553 137.607,200.473 143.676,200.473 		"/>
		<path fill="#FFFFFF" d="M160.198,209.924v-12.371h-3.473v12.867c0,4.829,2.679,7.488,7.543,7.488c4.917,0,7.736-3.031,7.736-8.315
			v-12.04h-3.47v12.096c0,3.812-1.172,5.368-4.045,5.368C161.521,215.017,160.198,213.446,160.198,209.924z"/>
		<polygon fill="#FFFFFF" points="181.419,217.605 184.891,217.605 184.891,200.473 191.069,200.473 191.069,197.553 
			175.351,197.553 175.351,200.473 181.419,200.473 		"/>
		<rect x="194.662" y="197.525" fill="#FFFFFF" width="3.499" height="20.079"/>
		<path fill="#FFFFFF" d="M211.752,197.223c-5.655,0-9.31,4.173-9.31,10.632c0,6.218,3.345,10.08,8.729,10.08
			c5.705,0,9.392-4.205,9.392-10.714C220.563,201.054,217.188,197.223,211.752,197.223z M211.53,215.016
			c-3.306,0-5.202-2.73-5.202-7.492c0-4.674,1.887-7.354,5.176-7.354c3.271,0,5.146,2.701,5.146,7.41
			C216.65,212.305,214.784,215.016,211.53,215.016z"/>
		<polygon fill="#FFFFFF" points="224.845,197.553 224.845,217.605 228.178,217.605 228.178,203.721 238.264,217.605 
			241.337,217.605 241.337,197.553 238.033,197.553 238.033,211.137 227.896,197.553 		"/>
	</g>
	<g>
		<path fill="#FFFFFF" d="M170.521,77.13c-3.942,0-7.603,2.887-7.603,5.843v57.434c0,17.51-7.696,21.889-14.868,21.889
			c-6.125,0-15.588-3.418-15.588-21.889V82.973c0-2.956-4.224-5.843-7.882-5.843c-4.221,0-7.884,2.887-7.884,5.843v59.546
			c0,23.227,9.441,33.571,31.355,33.571c19.803,0,30.072-10.699,30.072-33.22V82.973C178.122,80.017,174.179,77.13,170.521,77.13z"
			/>
		<path fill="#FFFFFF" d="M88.123,123.864v0.002V123.864v-0.35c6.609-3.57,14.488-10.319,14.488-22.203
			c0-16.42-13.478-23.9-28.595-23.899H52.075c-6.535-0.001-8.789,3.873-8.789,8.096v82.347c0,4.927,3.942,7.391,9.995,7.391h21.184
			c27.746,0,29.709-21.696,29.709-28.344C104.174,127.07,88.786,123.992,88.123,123.864z M58.49,91.351h9.185
			c11.369,0,18.823,5.012,18.823,14.112c0,8.836-7.784,14.11-18.823,14.11H58.49V91.351z M70.979,161.627H59.333v-31.356h11.645
			c11.581,0,18.495,5.729,18.495,15.326C89.473,156.234,83.251,161.627,70.979,161.627z"/>
		<path fill="#FFFFFF" d="M222.479,121.001l-8.017-4.241c-5.571-2.965-10.145-7.516-10.255-13.782
			c-0.138-7.975,5.594-13.736,13.67-13.877c4.845-0.084,9.332,1.689,12.724,3.305c3.975,1.862,6.381-0.702,7.436-4.859
			c1.326-4.715-0.672-6.336-4.079-7.932c-4.21-1.993-10.11-3.222-16.031-3.119c-15.612,0.272-28.774,11.057-28.488,27.435
			c0.224,12.847,7.515,20.867,18.251,26.638l8.291,4.492c5.755,3.169,9.792,6.636,9.909,13.295
			c0.154,8.824-7.309,13.808-15.324,13.948c-5.2,0.09-11.259-1.781-14.617-3.278c-4.36-1.902-6.442,0.755-7.801,5.304
			c-1.361,4.83,0.979,6.766,4.756,8.395c4.209,1.994,11.596,3.531,18.19,3.417c16.197-0.283,29.381-11.075,29.081-28.244
			C239.937,134.363,232.308,126.218,222.479,121.001z"/>
	</g>
</g>
</svg>
