<?xml version="1.0" encoding="utf-8"?>
<!-- Generator: Adobe Illustrator 25.4.1, SVG Export Plug-In . SVG Version: 6.00 Build 0)  -->
<svg version="1.1" id="Layer_1" xmlns="http://www.w3.org/2000/svg" xmlns:xlink="http://www.w3.org/1999/xlink" x="0px" y="0px"
	 viewBox="0 0 407.191 283.465" enable-background="new 0 0 407.191 283.465" xml:space="preserve">
<g>
	<path fill="#64B5E5" d="M343.439,283.265H63.807c-35.225,0-63.781-28.554-63.781-63.779V63.58
		c0-35.224,28.556-63.779,63.781-63.779h279.632c35.224,0,63.779,28.555,63.779,63.779v155.906
		C407.218,254.711,378.663,283.265,343.439,283.265 M388.793,219.486V63.58c0-25.048-20.306-45.354-45.354-45.354H63.807
		c-25.049,0-45.355,20.306-45.355,45.354v155.906c0,25.048,20.306,45.354,45.355,45.354h279.632
		C368.487,264.84,388.793,244.534,388.793,219.486"/>
	<g>
		<path fill="#FFFFFF" d="M134.452,85.782c-0.795,0-1.502,0.075-2.1,0.223l-0.741,0.183l-0.17-0.744
			c-0.523-2.299-1.05-4.343-1.611-6.249c-2.15-7.346-7.419-12.091-13.424-12.091H66.307c-6.004,0-11.274,4.747-13.425,12.094
			c-0.559,1.9-1.085,3.943-1.61,6.246l-0.17,0.744l-0.741-0.183c-0.598-0.147-1.305-0.223-2.1-0.223c-1.835,0-3.111,0.372-3.9,1.137
			c-0.749,0.774-1.121,2.05-1.121,3.883v13.905c0,1.833,0.372,3.108,1.138,3.897c0.701,0.68,1.816,1.049,3.393,1.111l0.72,0.028
			v37.07c0,2.98,1.507,5.729,4.032,7.352l0.344,0.222v4.068c0,2.472,2.01,4.482,4.481,4.482h5.233c2.471,0,4.482-2.011,4.482-4.482
			v-2.9h48.589v2.9c0,2.472,2.01,4.482,4.481,4.482h5.233c2.471,0,4.482-2.011,4.482-4.482v-4.067l0.344-0.222
			c2.524-1.624,4.032-4.373,4.032-7.353v-37.065l0.72-0.033c1.574-0.062,2.689-0.432,3.409-1.128
			c0.749-0.772,1.121-2.047,1.121-3.881V90.801c0-1.834-0.372-3.109-1.138-3.899C137.563,86.154,136.287,85.782,134.452,85.782z
			 M76.762,73.295c0-1.354,1.102-2.457,2.456-2.457h24.278c1.354,0,2.456,1.103,2.456,2.457v1.721c0,1.354-1.102,2.456-2.456,2.456
			H79.218c-1.354,0-2.456-1.102-2.456-2.456V73.295z M72.486,141.276c0,1.662-1.353,3.015-3.015,3.015H58.304
			c-1.662,0-3.014-1.353-3.014-3.015v-2.265c0-1.663,1.352-3.016,3.014-3.016h11.167c1.663,0,3.015,1.353,3.015,3.016V141.276z
			 M127.425,141.276c0,1.662-1.353,3.015-3.015,3.015h-11.166c-1.663,0-3.016-1.353-3.016-3.015v-2.265
			c0-1.663,1.353-3.016,3.016-3.016h11.166c1.663,0,3.015,1.353,3.015,3.016V141.276z M127.726,124.959
			c0,1.099-0.894,1.993-1.993,1.993H57.097c-1.099,0-1.993-0.895-1.993-1.993v-14.489c0-9.123,1.119-18.043,3.326-26.514
			l0.353-1.285c0.269-0.981,1.276-1.75,2.294-1.75c0.001,0,0.002,0,0.003,0l60.671-0.01c0.001,0,0.002,0,0.004,0
			c0.897,0,1.931,0.44,2.171,1.283c0.115,0.41,0.21,0.746,0.408,1.497c2.252,8.551,3.395,17.561,3.395,26.778V124.959z"/>
	</g>
	<g>
		<path fill="#FFFFFF" d="M116.757,195.99c0-2.504-1.413-3.572-4.724-3.572h-2.596v7.454h2.596
			C115.211,199.872,116.757,198.602,116.757,195.99z"/>
		<path fill="#FFFFFF" d="M48.834,195.058c0-2.465,2.028-3.878,5.563-3.878c2.822,0,6.236,0.888,8.316,2.121V188
			c-2.072-1.198-5.375-1.966-8.494-1.966c-6.804,0-11.376,4.037-11.376,10.045c0,4.726,2.677,7.726,8.424,9.439
			c4.754,1.404,6.741,2.393,6.741,4.883c0,2.689-2.043,4.232-5.607,4.232c-2.976,0-6.759-0.95-9.291-2.303v5.584
			c2.779,1.176,5.989,1.821,9.069,1.821c7.346,0,11.731-3.705,11.731-9.911c0-4.789-2.561-7.653-8.563-9.576
			C51.223,198.96,48.834,197.697,48.834,195.058z"/>
		<path fill="#FFFFFF" d="M76.011,206.675v-20.11h-6.034v20.909c0,7.793,4.502,12.263,12.352,12.263
			c8.046,0,12.661-4.955,12.661-13.594v-19.578h-6.034v19.667c0,6.046-1.759,8.401-6.273,8.401
			C78.068,214.633,76.011,212.179,76.011,206.675z"/>
		<path fill="#FFFFFF" d="M119.603,202.16l-1.098-0.305l1.064-0.407c2.821-1.079,4.193-3.271,4.193-6.7
			c0-5.43-3.425-8.183-10.179-8.183h-10.976v32.684h11.465c7.135,0,11.064-3.284,11.064-9.247
			C125.137,205.876,123.223,203.164,119.603,202.16z M112.875,214.145h-4.188v-9.086h4.011c4.533,0,6.139,1.096,6.139,4.188
			C118.837,212.589,116.942,214.145,112.875,214.145z"/>
		<path fill="#FFFFFF" d="M136.174,195.058c0-2.465,2.028-3.878,5.563-3.878c2.822,0,6.236,0.888,8.316,2.121V188
			c-2.072-1.198-5.375-1.966-8.494-1.966c-6.804,0-11.376,4.037-11.376,10.045c0,4.726,2.677,7.726,8.424,9.439
			c4.754,1.403,6.741,2.393,6.741,4.883c0,2.689-2.043,4.232-5.607,4.232c-2.976,0-6.759-0.95-9.291-2.303v5.584
			c2.779,1.176,5.989,1.821,9.069,1.821c7.346,0,11.731-3.705,11.731-9.911c0-4.789-2.561-7.653-8.563-9.576
			C138.563,198.96,136.174,197.697,136.174,195.058z"/>
		<polygon fill="#FFFFFF" points="164.678,219.249 170.712,219.249 170.712,191.713 180.645,191.713 180.645,186.566 
			154.922,186.566 154.922,191.713 164.678,191.713 		"/>
		<rect x="185.958" y="186.521" fill="#FFFFFF" width="6.079" height="32.729"/>
		<polygon fill="#FFFFFF" points="207.063,219.249 213.097,219.249 213.097,191.713 223.03,191.713 223.03,186.566 197.306,186.566 
			197.306,191.713 207.063,191.713 		"/>
		<path fill="#FFFFFF" d="M234.065,206.675v-20.11h-6.034v20.909c0,7.793,4.502,12.263,12.352,12.263
			c8.046,0,12.661-4.955,12.661-13.594v-19.578h-6.034v19.667c0,6.046-1.759,8.401-6.273,8.401
			C236.123,214.633,234.065,212.179,234.065,206.675z"/>
		<polygon fill="#FFFFFF" points="267.713,219.249 273.747,219.249 273.747,191.713 283.68,191.713 283.68,186.566 257.957,186.566 
			257.957,191.713 267.713,191.713 		"/>
		<rect x="288.993" y="186.521" fill="#FFFFFF" width="6.079" height="32.729"/>
		<path fill="#FFFFFF" d="M316.684,186.033c-9.227,0-15.189,6.798-15.189,17.317c0,10.135,5.463,16.431,14.258,16.431
			c9.308,0,15.322-6.85,15.322-17.45C331.075,192.278,325.561,186.033,316.684,186.033z M316.329,214.634
			c-5.17,0-8.135-4.307-8.135-11.816c0-7.368,2.949-11.594,8.091-11.594c5.114,0,8.046,4.258,8.046,11.683
			C324.331,210.36,321.414,214.634,316.329,214.634z"/>
		<polygon fill="#FFFFFF" points="337.495,186.565 337.495,219.25 343.307,219.25 343.307,197.407 359.171,219.25 364.459,219.25 
			364.459,186.565 358.69,186.565 358.69,207.939 342.741,186.565 		"/>
	</g>
</g>
<g>
	<path fill="#FFFFFF" d="M296.018,66.653c-3.868,0-7.461,2.833-7.461,5.734v56.361c0,17.183-7.553,21.48-14.591,21.48
		c-6.011,0-15.297-3.354-15.297-21.48V72.387c0-2.901-4.145-5.734-7.735-5.734c-4.142,0-7.737,2.833-7.737,5.734v58.434
		c0,22.793,9.265,32.944,30.769,32.944c19.433,0,29.511-10.499,29.511-32.599V72.387C303.477,69.487,299.608,66.653,296.018,66.653z
		"/>
	<path fill="#FFFFFF" d="M215.159,112.515v0.002V112.515v-0.343c6.485-3.503,14.217-10.127,14.217-21.788
		c0-16.113-13.226-23.453-28.06-23.452h-21.531c-6.413-0.001-8.625,3.8-8.625,7.944v80.809c0,4.835,3.868,7.253,9.808,7.253h20.788
		c27.228,0,29.154-21.29,29.154-27.815C230.91,115.66,215.81,112.64,215.159,112.515z M186.08,80.609h9.014
		c11.157,0,18.472,4.918,18.472,13.848c0,8.671-7.638,13.847-18.472,13.847h-9.014V80.609z M198.335,149.572h-11.428v-30.77h11.428
		c11.364,0,18.149,5.622,18.149,15.04C216.484,144.28,210.378,149.572,198.335,149.572z"/>
	<path fill="#FFFFFF" d="M347.005,109.705l-7.867-4.162c-5.467-2.909-9.955-7.375-10.063-13.524
		c-0.135-7.826,5.489-13.479,13.414-13.618c4.754-0.083,9.158,1.658,12.486,3.244c3.901,1.827,6.262-0.689,7.297-4.768
		c1.301-4.627-0.66-6.217-4.003-7.784c-4.132-1.956-9.921-3.162-15.732-3.06c-15.321,0.267-28.237,10.851-27.956,26.923
		c0.22,12.607,7.374,20.478,17.91,26.14l8.136,4.408c5.647,3.11,9.609,6.512,9.724,13.047c0.151,8.659-7.172,13.55-15.038,13.687
		c-5.103,0.089-11.049-1.748-14.344-3.216c-4.279-1.867-6.322,0.741-7.655,5.205c-1.335,4.74,0.961,6.639,4.667,8.238
		c4.131,1.957,11.379,3.465,17.85,3.353c15.895-0.278,28.832-10.868,28.538-27.716C364.138,122.817,356.65,114.825,347.005,109.705z
		"/>
</g>
</svg>
