<?xml version="1.0" encoding="utf-8"?>
<!-- Generator: Adobe Illustrator 25.4.1, SVG Export Plug-In . SVG Version: 6.00 Build 0)  -->
<svg version="1.1" id="Layer_1" xmlns="http://www.w3.org/2000/svg" xmlns:xlink="http://www.w3.org/1999/xlink" x="0px" y="0px"
	 viewBox="0 0 201.3 138.2" style="enable-background:new 0 0 201.3 138.2;" xml:space="preserve">
<style type="text/css">
	.st0{fill:#FFFFFF;}
</style>
<g>
	<path class="st0" d="M180.7,1L30.3,1c-0.5,0-1,0.4-1,1v27c0,29.2,15.8,52.6,29,67c5,5.4,12.1,8.6,19.6,8.6h42.6
		c7.5,0,14.6-3.2,19.7-8.7c11.6-12.7,20.2-26.9,24.7-41l0.2-0.7h15.6c10.8,0,19.5-8.8,19.5-19.5V20.6C200.3,9.8,191.5,1,180.7,1z
		 M189.5,34.7c0,4.9-3.9,8.8-8.8,8.8h-9.4c-0.9,0-1.7-0.4-2.3-1c-0.6-0.6-0.8-1.5-0.7-2.3c0.5-3.7,0.8-7.4,0.8-11.1V14.7
		c0-1.6,1.3-3,3-3h8.6c4.8,0,8.8,3.9,8.8,8.8V34.7z"/>
	<path class="st0" d="M196.4,117.9H2c-0.5,0-1,0.4-1,1v4.4c0,3.7,1.4,7.2,4.1,9.8c2.6,2.6,6.1,4.1,9.8,4.1h168.7
		c3.7,0,7.2-1.4,9.8-4.1c2.6-2.6,4.1-6.1,4.1-9.8v-4.4C197.4,118.4,197,117.9,196.4,117.9z"/>
</g>
</svg>
