<svg xmlns="http://www.w3.org/2000/svg" viewBox="0 0 283.46 283.46"><defs><style>.cls-1{fill:#64b5e5;}.cls-2{fill:#25303b;}</style></defs><g id="Layer_2" data-name="Layer 2"><g id="Layer_1-2" data-name="Layer 1"><path class="cls-1" d="M219.69,283.46H63.78A63.78,63.78,0,0,1,0,219.68V63.78A63.78,63.78,0,0,1,63.78,0H219.69a63.77,63.77,0,0,1,63.77,63.78v155.9a63.77,63.77,0,0,1-63.77,63.78M265,219.68V63.78a45.35,45.35,0,0,0-45.35-45.35H63.78A45.35,45.35,0,0,0,18.43,63.78v155.9A45.35,45.35,0,0,0,63.78,265H219.69A45.36,45.36,0,0,0,265,219.68"/><path class="cls-2" d="M134.64,212.59a21.26,21.26,0,1,1-21.25-21.26,21.28,21.28,0,0,1,21.25,21.26m101.67-86.66-3.12.83a3.19,3.19,0,0,1-3.92-2.26l-7-26.09a2,2,0,0,0-1.92-1.47h-8.52A144.25,144.25,0,0,1,219,141.72c0,7.7,0,25.72-1.21,41.73-1.66,21.93-4.7,35.52-14.71,35.52H143.39a2,2,0,0,1-2-2.3,27.4,27.4,0,0,0,.3-4.08,28.34,28.34,0,0,0-56.07-5.88,28,28,0,0,0-.32,10,2,2,0,0,1-2,2.3H49.61V155.9h97.93a2,2,0,0,0,2-2V94.1a2,2,0,0,0-2-2H49.61V64.48H175.88a34.38,34.38,0,0,1,31.83,21.26l.62,1.56h14c.29,0,.57,0,.85,0a8.78,8.78,0,0,1,7.61,5.81,8.36,8.36,0,0,1,.25.81l.18.66.22.83L238.58,122a3.21,3.21,0,0,1-2.27,3.93m-30.82,49.35c.45-8.66.73-19.63.73-33.56A132.17,132.17,0,0,0,197,93.38a2,2,0,0,0-1.86-1.26h-30.9a2,2,0,0,0-2,2v81.07a2,2,0,0,0,2,2h39.24a2,2,0,0,0,2-1.88"/></g></g></svg>