<?xml version="1.0" encoding="utf-8"?>
<!-- Generator: Adobe Illustrator 25.4.1, SVG Export Plug-In . SVG Version: 6.00 Build 0)  -->
<svg version="1.1" id="Layer_1" xmlns="http://www.w3.org/2000/svg" xmlns:xlink="http://www.w3.org/1999/xlink" x="0px" y="0px"
	 viewBox="0 0 283.465 283.465" enable-background="new 0 0 283.465 283.465" xml:space="preserve">
<g>
	<g>
		<path fill="#64B5E5" d="M219.686,283.465H63.78C28.556,283.465,0,254.91,0,219.685V63.78C0,28.555,28.556,0,63.78,0h155.906
			c35.224,0,63.779,28.555,63.779,63.78v155.905C283.465,254.91,254.91,283.465,219.686,283.465 M265.04,219.685V63.78
			c0-25.049-20.306-45.355-45.354-45.355H63.78c-25.049,0-45.354,20.306-45.354,45.355v155.905
			c0,25.048,20.305,45.354,45.354,45.354h155.906C244.734,265.039,265.04,244.733,265.04,219.685"/>
	</g>
	<g>
		<path fill="#FFFFFF" d="M230.099,94.213c-0.067-0.252-0.145-0.502-0.23-0.746c-0.351-0.964-0.861-1.826-1.513-2.55
			c-1.308-1.493-3.21-2.434-5.23-2.592l-0.155-0.007c-0.204-0.011-0.409-0.021-0.612-0.019H207.66l-0.485-1.207
			c-0.128-0.322-0.256-0.645-0.39-0.966c-5.205-12.543-17.336-20.646-30.908-20.646H50.605l0.001,25.638h96.937
			c1.646,0,2.984,1.339,2.984,2.984v59.811c0,1.646-1.339,2.985-2.984,2.985H50.606v61.07h32.777c0.286,0,0.545-0.118,0.731-0.333
			c0.192-0.223,0.277-0.521,0.234-0.818c-0.505-3.43-0.393-6.898,0.334-10.311c2.687-12.624,13.509-22.15,26.319-23.167
			c0.81-0.064,1.616-0.096,2.417-0.096c7.394,0,14.371,2.72,19.861,7.791c6.006,5.548,9.451,13.404,9.451,21.556
			c0,1.406-0.104,2.827-0.309,4.224c-0.044,0.299,0.042,0.598,0.234,0.821c0.186,0.215,0.445,0.333,0.731,0.333h59.675
			c9.238,0,12.093-13.235,13.706-34.59c1.207-15.98,1.207-33.972,1.207-41.654c0-15.076-2.383-30.04-7.082-44.478l-0.426-1.31h9.896
			c1.349,0,2.534,0.909,2.882,2.211l6.991,26.09c0.152,0.568,0.517,1.044,1.027,1.338c0.509,0.294,1.103,0.372,1.672,0.221
			l3.121-0.837c0.568-0.152,1.044-0.517,1.338-1.026c0.294-0.51,0.373-1.103,0.22-1.671L230.099,94.213z M206.489,175.328
			c-0.082,1.587-1.391,2.831-2.98,2.831h-39.242c-1.646,0-2.984-1.339-2.984-2.984V94.103c0-1.646,1.338-2.984,2.984-2.984h30.901
			c1.224,0,2.345,0.763,2.79,1.897c6.146,15.704,9.262,32.092,9.262,48.709C207.22,154.592,206.974,165.898,206.489,175.328z"/>
		<path fill="#FFFFFF" d="M113.387,192.331c-11.172,0-20.261,9.089-20.261,20.26s9.089,20.26,20.261,20.26
			c11.17,0,20.258-9.089,20.258-20.26S124.557,192.331,113.387,192.331z"/>
	</g>
</g>
</svg>
