<?xml version="1.0" encoding="utf-8"?>
<!-- Generator: Adobe Illustrator 25.4.1, SVG Export Plug-In . SVG Version: 6.00 Build 0)  -->
<svg version="1.1" id="Layer_1" xmlns="http://www.w3.org/2000/svg" xmlns:xlink="http://www.w3.org/1999/xlink" x="0px" y="0px"
	 viewBox="0 0 283.465 283.465" enable-background="new 0 0 283.465 283.465" xml:space="preserve">
<g>
	<path fill="#64B5E5" d="M219.685,283.465H63.779c-35.224,0-63.78-28.555-63.78-63.78V63.78C-0.001,28.555,28.555,0,63.779,0
		h155.906c35.224,0,63.779,28.555,63.779,63.78v155.905C283.464,254.91,254.909,283.465,219.685,283.465 M265.039,219.685V63.78
		c0-25.049-20.306-45.355-45.354-45.355H63.779c-25.049,0-45.354,20.306-45.354,45.355v155.905
		c0,25.049,20.305,45.354,45.354,45.354h155.906C244.733,265.039,265.039,244.734,265.039,219.685"/>
	<g>
		<path fill="#FFFFFF" d="M230.653,156.903h-14.616l-0.194-0.75c-4.519-17.508-13.404-33.859-25.696-47.287
			c-4.632-5.06-10.938-8.111-17.759-8.591c-10.161-0.715-20.485-1.077-30.685-1.077c-10.199,0-20.522,0.362-30.684,1.077
			c-6.82,0.48-13.126,3.531-17.757,8.591c-12.293,13.428-21.179,29.78-25.698,47.287l-0.194,0.75H52.809
			c-1.215,0-2.204,0.988-2.204,2.203v3.23c0,1.216,0.989,2.204,2.204,2.204h12.938l-0.222,1.33c-0.16,0.96-0.32,1.919-0.454,2.886
			c-0.224,1.614-0.34,3.251-0.346,4.866v43.697c0,4.659,3.79,8.449,8.448,8.449h9.45c4.658,0,8.448-3.79,8.448-8.449v-5.726h101.266
			v5.726c0,4.659,3.79,8.449,8.449,8.449h9.449c4.659,0,8.449-3.79,8.449-8.449v-43.729c-0.007-1.602-0.123-3.229-0.346-4.832
			c-0.132-0.955-0.29-1.9-0.448-2.848l-0.229-1.371h12.992c1.215,0,2.203-0.988,2.203-2.204v-3.23
			C232.856,157.892,231.868,156.903,230.653,156.903z M79.687,152.978c4.451-13.724,11.688-26.122,21.509-36.849
			c2.762-3.018,6.519-4.837,10.579-5.124c9.907-0.698,19.976-1.051,29.928-1.051c9.954,0,20.024,0.354,29.93,1.051
			c4.061,0.286,7.818,2.106,10.579,5.124c9.821,10.728,17.058,23.126,21.509,36.849c0.297,0.916,0.137,1.925-0.427,2.7
			c-0.566,0.779-1.443,1.226-2.407,1.226H82.521c-0.964,0-1.841-0.447-2.408-1.226C79.55,154.902,79.39,153.893,79.687,152.978z
			 M107.242,186.375c0,2.896-2.356,5.253-5.252,5.253H82.147c-2.896,0-5.252-2.356-5.252-5.253v-4.251
			c0-2.896,2.356-5.253,5.252-5.253h19.843c2.896,0,5.252,2.356,5.252,5.253V186.375z M206.513,186.375
			c0,2.896-2.356,5.253-5.252,5.253h-19.844c-2.896,0-5.252-2.356-5.252-5.253v-4.251c0-2.896,2.356-5.253,5.252-5.253h19.844
			c2.896,0,5.252,2.356,5.252,5.253V186.375z"/>
		<path fill="#FFFFFF" d="M116.927,81.202c6.322,0,10.709-1.313,13.411-4.014c1.728-1.728,2.867-4.091,3.482-7.226l0.159-0.807
			h16.104V66.32h11.64v2.835h2.535V66.32h11.638v2.835h4.102c1.793,0,3.252-1.459,3.252-3.252v-4.252
			c0-1.793-1.459-3.252-3.252-3.252H133.98l-0.159-0.807c-0.616-3.135-1.755-5.499-3.482-7.226
			c-2.703-2.701-7.089-4.014-13.411-4.014c-6.324,0-10.711,1.313-13.412,4.014c-2.7,2.702-4.013,7.089-4.013,13.411
			c0,6.325,1.312,10.712,4.013,13.412S110.603,81.202,116.927,81.202z M102.604,59.894c0-2.317,1.886-4.203,4.204-4.203h3.231
			c2.317,0,4.203,1.886,4.203,4.203v7.766c0,2.317-1.885,4.203-4.203,4.203h-3.231c-2.318,0-4.204-1.886-4.204-4.203V59.894z"/>
		<g>
			<path fill="none" d="M116.927,81.202c6.322,0,10.709-1.313,13.411-4.014c1.728-1.728,2.867-4.091,3.482-7.226l0.159-0.807h16.104
				V66.32h11.64v2.835h2.535V66.32h11.638v2.835h4.102c1.793,0,3.252-1.459,3.252-3.252v-4.252c0-1.793-1.459-3.252-3.252-3.252
				H133.98l-0.159-0.807c-0.616-3.135-1.755-5.499-3.482-7.226c-2.703-2.701-7.089-4.014-13.411-4.014
				c-6.324,0-10.711,1.313-13.412,4.014c-2.7,2.702-4.013,7.089-4.013,13.411c0,6.325,1.312,10.712,4.013,13.412
				S110.603,81.202,116.927,81.202z M102.604,59.894c0-2.317,1.886-4.203,4.204-4.203h3.231c2.317,0,4.203,1.886,4.203,4.203v7.766
				c0,2.317-1.885,4.203-4.203,4.203h-3.231c-2.318,0-4.204-1.886-4.204-4.203V59.894z"/>
			<path fill="none" d="M230.653,156.903h-14.616l-0.194-0.75c-4.519-17.508-13.404-33.859-25.696-47.287
				c-4.632-5.06-10.938-8.111-17.759-8.591c-10.161-0.715-20.485-1.077-30.685-1.077c-10.199,0-20.522,0.362-30.684,1.077
				c-6.82,0.48-13.126,3.531-17.757,8.591c-12.293,13.428-21.179,29.78-25.698,47.287l-0.194,0.75H52.809
				c-1.215,0-2.204,0.988-2.204,2.203v3.23c0,1.216,0.989,2.204,2.204,2.204h12.938l-0.222,1.33c-0.16,0.96-0.32,1.919-0.454,2.886
				c-0.224,1.614-0.34,3.251-0.346,4.866v43.697c0,4.659,3.79,8.449,8.448,8.449h9.45c4.658,0,8.448-3.79,8.448-8.449v-5.726
				h101.266v5.726c0,4.659,3.79,8.449,8.449,8.449h9.449c4.659,0,8.449-3.79,8.449-8.449v-43.729
				c-0.007-1.602-0.123-3.229-0.346-4.832c-0.132-0.955-0.29-1.9-0.448-2.848l-0.229-1.371h12.992c1.215,0,2.203-0.988,2.203-2.204
				v-3.23C232.856,157.892,231.868,156.903,230.653,156.903z M107.242,186.375c0,2.896-2.356,5.253-5.252,5.253H82.147
				c-2.896,0-5.252-2.356-5.252-5.253v-4.251c0-2.896,2.356-5.253,5.252-5.253h19.843c2.896,0,5.252,2.356,5.252,5.253V186.375z
				 M206.513,186.375c0,2.896-2.356,5.253-5.252,5.253h-19.844c-2.896,0-5.252-2.356-5.252-5.253v-4.251
				c0-2.896,2.356-5.253,5.252-5.253h19.844c2.896,0,5.252,2.356,5.252,5.253V186.375z"/>
		</g>
	</g>
</g>
</svg>
