<?xml version="1.0" encoding="utf-8"?>
<!-- Generator: Adobe Illustrator 25.4.1, SVG Export Plug-In . SVG Version: 6.00 Build 0)  -->
<svg version="1.1" id="Layer_1" xmlns="http://www.w3.org/2000/svg" xmlns:xlink="http://www.w3.org/1999/xlink" x="0px" y="0px"
	 viewBox="0 0 283.465 283.465" enable-background="new 0 0 283.465 283.465" xml:space="preserve">
<g>
	<path fill="#64B5E5" d="M219.685,283.465H63.779c-35.224,0-63.78-28.555-63.78-63.78V63.78C-0.001,28.555,28.555,0,63.779,0
		h155.906c35.224,0,63.779,28.555,63.779,63.78v155.905C283.464,254.91,254.909,283.465,219.685,283.465 M265.039,219.685V63.78
		c0-25.049-20.306-45.355-45.354-45.355H63.779c-25.049,0-45.354,20.306-45.354,45.355v155.905
		c0,25.049,20.305,45.354,45.354,45.354h155.906C244.733,265.039,265.039,244.734,265.039,219.685"/>
	<path fill="#25303B" d="M230.653,155.903h-13.842c-4.575-17.726-13.403-34.031-25.928-47.712
		c-4.805-5.25-11.348-8.415-18.425-8.913c-10.177-0.716-20.524-1.08-30.755-1.08c-10.229,0-20.577,0.364-30.754,1.08
		c-7.076,0.498-13.62,3.663-18.425,8.913c-12.525,13.682-21.353,29.987-25.928,47.712H52.808c-1.769,0-3.204,1.434-3.204,3.203
		v3.231c0,1.77,1.435,3.204,3.204,3.204h11.757c-0.171,1.024-0.343,2.047-0.486,3.079c-0.228,1.646-0.349,3.319-0.355,4.999v38.976
		v4.725c0,5.219,4.23,9.449,9.448,9.449h9.45c5.218,0,9.448-4.23,9.448-9.449v-4.725h99.266v4.725c0,5.219,4.231,9.449,9.449,9.449
		h9.449c5.219,0,9.449-4.23,9.449-9.449v-11.811v-31.917c-0.007-1.649-0.126-3.32-0.355-4.97c-0.143-1.032-0.316-2.056-0.487-3.081
		h11.812c1.769,0,3.203-1.434,3.203-3.204v-3.231C233.856,157.337,232.422,155.903,230.653,155.903 M101.933,116.804
		c2.589-2.829,6.109-4.533,9.912-4.801c9.881-0.696,19.926-1.049,29.858-1.049c9.933,0,19.979,0.353,29.859,1.049
		c3.803,0.268,7.323,1.972,9.912,4.801c9.72,10.618,16.928,23.018,21.295,36.482c0.418,1.29-0.527,2.617-1.883,2.617H82.521
		c-1.356,0-2.301-1.327-1.883-2.617C85.005,139.821,92.212,127.422,101.933,116.804 M201.26,190.628h-19.843
		c-2.348,0-4.252-1.904-4.252-4.253v-4.251c0-2.349,1.904-4.253,4.252-4.253h19.843c2.348,0,4.252,1.904,4.252,4.253v4.251
		C205.512,188.724,203.608,190.628,201.26,190.628 M82.147,177.871h19.843c2.348,0,4.252,1.904,4.252,4.253v4.251
		c0,2.349-1.904,4.253-4.252,4.253H82.147c-2.348,0-4.252-1.904-4.252-4.253v-4.251C77.895,179.775,79.799,177.871,82.147,177.871
		 M113.242,59.894v7.766c0,1.769-1.434,3.203-3.203,3.203h-3.231c-1.769,0-3.204-1.434-3.204-3.203v-7.766
		c0-1.77,1.435-3.203,3.204-3.203h3.231C111.808,56.691,113.242,58.124,113.242,59.894 M179.998,57.399h-45.196
		c-0.578-2.937-1.697-5.68-3.757-7.74c-3.526-3.524-9.045-4.307-14.118-4.307s-10.596,0.783-14.119,4.307
		c-3.522,3.524-4.306,9.045-4.306,14.118c0,5.074,0.783,10.596,4.306,14.119c3.523,3.523,9.046,4.306,14.119,4.306
		s10.593-0.783,14.118-4.306c2.06-2.06,3.18-4.804,3.757-7.741h16.282V67.32h9.639v2.835h4.535V67.32h9.638v2.835h5.102
		c2.348,0,4.252-1.904,4.252-4.252v-4.252C184.25,59.303,182.346,57.399,179.998,57.399"/>
</g>
</svg>
