<?xml version="1.0" encoding="utf-8"?>
<!-- Generator: Adobe Illustrator 25.4.1, SVG Export Plug-In . SVG Version: 6.00 Build 0)  -->
<svg version="1.1" id="Layer_1" xmlns="http://www.w3.org/2000/svg" xmlns:xlink="http://www.w3.org/1999/xlink" x="0px" y="0px"
	 viewBox="0 0 283.465 283.465" enable-background="new 0 0 283.465 283.465" xml:space="preserve">
<g>
	<path fill="#64B5E5" d="M219.685,283.465H63.779C28.555,283.465,0,254.91,0,219.685V63.78C0,28.555,28.555,0,63.779,0h155.906
		c35.224,0,63.779,28.555,63.779,63.78v155.905C283.464,254.91,254.909,283.465,219.685,283.465 M265.039,219.685V63.78
		c0-25.049-20.306-45.355-45.354-45.355H63.779c-25.048,0-45.354,20.306-45.354,45.355v155.905
		c0,25.049,20.306,45.354,45.354,45.354h155.906C244.733,265.039,265.039,244.734,265.039,219.685"/>
	<g>
		<path fill="#FFFFFF" d="M94.746,52c2.066-1.99,3.223-4.777,3.172-7.648c0-0.251-0.167-0.463-0.388-0.511
			c-0.377-0.083-0.925-0.016-1.407,0.042l-0.149,0.018c-1.244,0.148-2.435,0.515-3.541,1.088c-0.99,0.514-1.894,1.192-2.685,2.016
			l-0.707,0.735l-0.017-0.017l-7.955,7.956l-30.455-2.036c-0.181-0.009-0.56,0.13-0.688,0.258l-3.417,3.417
			c-0.311,0.311-0.463,0.638-0.408,0.874s0.337,0.459,0.754,0.599l23.463,7.865l-1.117,1.141
			c-6.064,6.19-11.313,12.065-14.403,16.12l-0.355,0.466l-9.139-1.294l-1.217,1.223l8.924,4.43l4.422,8.921l1.246-1.26l-1.31-9.095
			l0.466-0.355c4.044-3.081,9.918-8.331,16.116-14.404l1.14-1.117l7.866,23.463c0.139,0.417,0.363,0.698,0.599,0.753
			c0.232,0.057,0.562-0.097,0.874-0.408l3.417-3.417c0.128-0.128,0.271-0.507,0.258-0.687L86.07,60.678L94.746,52z"/>
		<path fill="#FFFFFF" d="M235.534,123.652c-1.28,0-2.425,0.121-3.4,0.36l-0.987,0.242l-0.226-0.99
			c-0.84-3.678-1.683-6.945-2.576-9.988c-3.458-11.811-11.943-19.441-21.618-19.441h-79.971c-9.676,0-18.162,7.633-21.62,19.447
			c-0.891,3.03-1.733,6.295-2.575,9.983l-0.227,0.99l-0.986-0.242c-0.976-0.239-2.121-0.36-3.401-0.36
			c-2.982,0-5.063,0.612-6.363,1.871c-1.237,1.277-1.849,3.358-1.849,6.338v22.197c0,2.979,0.612,5.061,1.871,6.361
			c1.162,1.123,2.984,1.729,5.549,1.83l0.961,0.037v58.987c0,4.824,2.44,9.273,6.527,11.902l0.459,0.295v6.387
			c0,4.053,3.298,7.351,7.351,7.351h8.353c4.053,0,7.351-3.298,7.351-7.351v-4.431h77.168v4.431c0,4.053,3.298,7.351,7.352,7.351
			h8.353c4.054,0,7.352-3.298,7.352-7.351v-6.387l0.459-0.295c4.087-2.629,6.526-7.078,6.526-11.902v-58.978l0.961-0.047
			c2.565-0.101,4.388-0.707,5.57-1.853c1.237-1.277,1.85-3.358,1.851-6.339v-22.197c-0.001-2.981-0.613-5.062-1.872-6.36
			C240.599,124.263,238.518,123.652,235.534,123.652z M143.641,103.915c0-2.054,1.671-3.724,3.724-3.724h38.752
			c2.053,0,3.724,1.67,3.724,3.724v2.748c0,2.054-1.671,3.724-3.724,3.724h-38.752c-2.053,0-3.724-1.67-3.724-3.724V103.915z
			 M136.418,212.433c0,2.545-2.07,4.616-4.615,4.616h-17.824c-2.545,0-4.616-2.071-4.616-4.616v-3.615
			c0-2.545,2.071-4.616,4.616-4.616h17.824c2.544,0,4.615,2.071,4.615,4.616V212.433z M224.118,212.433
			c0,2.545-2.071,4.616-4.616,4.616h-17.825c-2.544,0-4.614-2.071-4.614-4.616v-3.615c0-2.545,2.07-4.616,4.614-4.616h17.825
			c2.545,0,4.616,2.071,4.616,4.616V212.433z M224.601,186.387c0,1.646-1.339,2.983-2.985,2.983H112.051
			c-1.646,0-2.985-1.338-2.985-2.983v-23.129c0-14.543,1.784-28.766,5.302-42.274l0.563-2.051c0.408-1.485,1.934-2.648,3.474-2.648
			l96.851-0.015c0.001,0,0.002,0,0.003,0c1.329,0,2.929,0.668,3.278,1.908c0.192,0.683,0.344,1.221,0.649,2.384
			c3.593,13.632,5.414,27.998,5.414,42.697V186.387z"/>
	</g>
</g>
</svg>
