<?xml version="1.0" encoding="utf-8"?>
<!-- Generator: Adobe Illustrator 25.4.1, SVG Export Plug-In . SVG Version: 6.00 Build 0)  -->
<svg version="1.1" id="Layer_1" xmlns="http://www.w3.org/2000/svg" xmlns:xlink="http://www.w3.org/1999/xlink" x="0px" y="0px"
	 viewBox="0 0 283.465 283.465" enable-background="new 0 0 283.465 283.465" xml:space="preserve">
<g>
	<path fill="#64B5E5" d="M219.685,283.465H63.779C28.555,283.465,0,254.91,0,219.685V63.78C0,28.555,28.555,0,63.779,0h155.906
		c35.224,0,63.779,28.555,63.779,63.78v155.905C283.464,254.91,254.909,283.465,219.685,283.465 M265.039,219.685V63.78
		c0-25.049-20.306-45.355-45.354-45.355H63.779c-25.048,0-45.354,20.306-45.354,45.355v155.905
		c0,25.049,20.306,45.354,45.354,45.354h155.906C244.733,265.039,265.039,244.734,265.039,219.685"/>
	<path fill="#25303B" d="M88.734,131.86v11.099v11.098c0,2.536,0.42,5.267,2.153,7.057c1.596,1.545,3.941,2.044,6.228,2.134v0.009
		v25.087v5.043v27.886c0,5.347,2.791,10.045,6.986,12.743v5.841c0,4.612,3.739,8.351,8.351,8.351h8.353
		c4.612,0,8.351-3.739,8.351-8.351v-3.431h75.168v3.431c0,4.612,3.739,8.351,8.352,8.351h8.352c4.613,0,8.352-3.739,8.352-8.351
		v-5.841c4.194-2.698,6.985-7.396,6.985-12.743v-27.886v-5.043v-25.087v-0.009c2.288-0.09,4.633-0.589,6.228-2.134
		c1.734-1.79,2.153-4.521,2.154-7.057v-11.098V131.86c-0.001-2.536-0.42-5.267-2.154-7.056c-1.789-1.734-4.522-2.153-7.059-2.153
		c-1.211,0-2.463,0.101-3.639,0.389c-0.772-3.384-1.62-6.741-2.591-10.047c-3.584-12.244-12.448-20.16-22.578-20.16h-79.971
		c-10.131,0-18.994,7.916-22.58,20.166c-0.971,3.304-1.818,6.659-2.59,10.041c-1.176-0.288-2.428-0.389-3.639-0.389
		c-2.536,0-5.269,0.419-7.059,2.153C89.154,126.593,88.734,129.324,88.734,131.86 M188.84,106.662c0,1.504-1.219,2.724-2.724,2.724
		h-38.752c-1.505,0-2.724-1.22-2.724-2.724v-2.748c0-1.504,1.219-2.724,2.724-2.724h38.752c1.505,0,2.724,1.22,2.724,2.724V106.662z
		 M198.062,208.817c0-1.997,1.618-3.616,3.615-3.616h17.825c1.997,0,3.616,1.619,3.616,3.616v3.615c0,1.997-1.619,3.616-3.616,3.616
		h-17.825c-1.997,0-3.615-1.619-3.615-3.616V208.817z M110.363,208.817c0-1.997,1.618-3.616,3.616-3.616h17.824
		c1.997,0,3.615,1.619,3.615,3.616v3.615c0,1.997-1.618,3.616-3.615,3.616h-17.824c-1.998,0-3.616-1.619-3.616-3.616V208.817z
		 M110.066,163.257c0-14.5,1.777-28.61,5.27-42.022l0.56-2.038c0.289-1.052,1.418-1.913,2.509-1.913l96.851-0.015
		c1.092-0.001,2.135,0.53,2.318,1.179c0.183,0.648,0.333,1.179,0.646,2.367c3.567,13.538,5.38,27.789,5.38,42.442v23.129
		c0,1.091-0.893,1.984-1.985,1.984H112.051c-1.091,0-1.985-0.893-1.985-1.984V163.257z M95.439,52.72c0,0,0,0-0.001,0.001
		l0.001,0.001l-8.341,8.342l2.006,30.002c0.032,0.47-0.216,1.129-0.549,1.462l-3.417,3.417c-1.187,1.187-2.595,0.856-3.128-0.735
		l-7.358-21.949c-6.402,6.273-12.242,11.462-16.21,14.485l1.213,8.56c0.036,0.254-0.081,0.612-0.261,0.795l-1.3,1.325
		c-0.512,0.518-1.195,0.407-1.518-0.245l-4.31-8.695l-8.695-4.309c-0.653-0.324-0.762-1.007-0.245-1.519l1.325-1.3
		c0.183-0.18,0.541-0.297,0.794-0.261l8.559,1.212c3.023-3.967,8.211-9.81,14.484-16.213l-21.949-7.358
		c-1.592-0.533-1.923-1.941-0.736-3.128l3.417-3.417c0.333-0.333,0.991-0.581,1.462-0.549l30.002,2.006l8.341-8.342l0.003,0.003
		c0.853-0.887,1.848-1.64,2.945-2.21c1.21-0.628,2.532-1.033,3.884-1.194c0.593-0.07,1.294-0.172,1.884-0.044
		c0.686,0.148,1.177,0.773,1.177,1.471C98.973,47.473,97.702,50.542,95.439,52.72"/>
</g>
</svg>
