<?xml version="1.0" encoding="utf-8"?>
<!-- Generator: Adobe Illustrator 25.4.1, SVG Export Plug-In . SVG Version: 6.00 Build 0)  -->
<svg version="1.1" id="Layer_1" xmlns="http://www.w3.org/2000/svg" xmlns:xlink="http://www.w3.org/1999/xlink" x="0px" y="0px"
	 viewBox="0 0 283.465 283.465" enable-background="new 0 0 283.465 283.465" xml:space="preserve">
<g>
	<path fill="#64B5E5" d="M219.685,283.465H63.779c-35.224,0-63.78-28.555-63.78-63.78V63.78C-0.001,28.555,28.555,0,63.779,0
		h155.906c35.224,0,63.779,28.555,63.779,63.78v155.905C283.464,254.91,254.909,283.465,219.685,283.465 M265.039,219.685V63.78
		c0-25.049-20.306-45.355-45.354-45.355H63.779c-25.049,0-45.354,20.306-45.354,45.355v155.905
		c0,25.049,20.305,45.354,45.354,45.354h155.906C244.733,265.039,265.039,244.734,265.039,219.685"/>
	<path fill="#25303B" d="M209.054,161.567c-4.18,0-8.123,1.017-11.608,2.806L185.8,146.964c-0.525-3.085-1.398-6.005-2.54-8.663
		c-0.588-1.276-1.092-2.563-1.822-3.696c-0.343-0.579-0.681-1.151-1.016-1.716c-0.169-0.28-0.336-0.558-0.503-0.834l-0.447-0.669
		c-1.186-1.773-2.31-3.454-3.368-5.035c-2.114-3.16-3.957-5.916-5.475-8.185c-0.091-0.134-0.175-0.262-0.263-0.393h1.318h1.229
		c2.349,0,4.252-1.904,4.252-4.252v-7.937c0-2.349-1.903-4.252-4.252-4.252h-1.229h-6.047h-1.227h-0.001h-1.517
		c-1.324,0-2.614,0.411-3.692,1.177l-3.347,2.375h-11.287c-1.565,0-2.834,1.269-2.834,2.835c0,1.565,1.269,2.834,2.834,2.834h7.27
		c-0.108,1.379,0.228,2.802,1.055,4.038l3.133,4.686c0.001,0.001,0.002,0.002,0.003,0.003c0.785,1.173,2.149,3.212,3.999,5.979
		c1.518,2.269,3.362,5.024,5.476,8.185c1.057,1.58,2.182,3.261,3.368,5.034l0.447,0.669l0.329,0.568
		c0.222,0.377,0.447,0.758,0.674,1.143c0.51,0.741,0.809,1.616,1.211,2.458c1.474,3.426,2.292,7.504,2.016,11.787
		c-0.071,0.531-0.143,1.065-0.215,1.603c-0.089,0.535-0.082,1.09-0.253,1.617c-0.131,0.533-0.263,1.07-0.395,1.61
		c-0.071,0.282-0.112,0.519-0.204,0.84l-0.306,1.007c-0.818,2.694-1.654,5.446-2.504,8.245c-0.424,1.4-0.853,2.811-1.284,4.232
		c-0.216,0.711-0.433,1.424-0.65,2.139l-0.326,1.075l-0.23,0.657c-0.645,1.68-1.772,3.189-3.257,4.285
		c-1.485,1.095-3.297,1.728-5.153,1.817c-0.182,0.018-0.563,0.023-0.99,0.024h-0.749h-0.286h-2.337h-3.119h-1.13
		c-0.241-0.022-0.486-0.044-0.735-0.067c-0.237-0.018-0.479-0.031-0.726-0.038c-0.241-0.046-0.48-0.123-0.727-0.175
		c-0.244-0.063-0.503-0.087-0.749-0.167c-0.239-0.105-0.482-0.204-0.73-0.297c-0.523-0.133-0.954-0.488-1.45-0.73
		c-0.261-0.105-0.453-0.318-0.677-0.485l-0.676-0.513c-0.187-0.215-0.381-0.424-0.582-0.629c-0.209-0.198-0.417-0.4-0.558-0.658
		c-0.162-0.24-0.331-0.475-0.509-0.707c-0.182-0.23-0.259-0.524-0.406-0.777l-0.205-0.39l-0.108-0.194
		c-0.036-0.063-0.091-0.213-0.136-0.315l-0.565-1.366c-3.316-7.999-6.63-15.992-8.945-21.578c0.316-0.39,0.493-0.895,0.44-1.44
		l-0.823-8.349c-0.421-4.28-4.021-7.542-8.321-7.542l-20.239-0.001c-0.118-3.66-2.07-6.856-4.986-8.676
		c-4.508-2.816-9.835-4.442-15.542-4.442c-13.699,0-24.803,11.104-24.803,24.803c0,0.247,0.013,0.492,0.037,0.733
		c0.375,4.744,4.336,8.479,9.176,8.479h2.126h8.58c0.85,0.012,1.815,0.006,2.819,0h2.239c1.433,0.011,2.861,0.051,4.109,0.18
		c3.068,0.338,6.525,1.179,9.903,2.97c1.708,0.849,3.368,1.964,4.956,3.266c1.607,1.284,3.085,2.833,4.411,4.564
		c1.332,1.727,2.522,3.65,3.421,5.765c0.23,0.465,0.511,1.163,0.783,1.818c0.272,0.657,0.546,1.317,0.821,1.981
		c0.55,1.327,1.106,2.666,1.666,4.017s1.124,2.714,1.693,4.086l0.213,0.515l0.107,0.258l0.205,0.436
		c0.302,0.6,0.58,1.218,0.956,1.777c0.385,0.553,0.76,1.122,1.204,1.631c0.46,0.495,0.919,1,1.426,1.448
		c2.036,1.796,4.608,3.003,7.331,3.407c0.681,0.074,1.369,0.126,2.055,0.156l1.171,0.002h2.298h18.623h0.429h1.13h3.119h2.337h0.702
		c0.172,0.001,0.347,0.001,0.533,0h3.164c0.772,0,6.784-1.679,10.324-4.311c3.453-2.569,6.142-6.103,7.638-10.048l0.509-1.474
		l0.326-1.075c0.218-0.715,0.434-1.428,0.65-2.139c0.432-1.422,0.86-2.832,1.285-4.232c0.85-2.799,1.685-5.551,2.503-8.245
		l0.306-1.007c0.103-0.352,0.206-0.798,0.306-1.192c0.197-0.812,0.393-1.619,0.588-2.422c0.227-0.797,0.265-1.624,0.391-2.429
		c0.018-0.145,0.036-0.287,0.054-0.431l6.478,9.684c-5.478,4.683-8.96,11.636-8.96,19.391c0,14.067,11.444,25.512,25.512,25.512
		c14.067,0,25.512-11.445,25.512-25.512C234.566,173.013,223.121,161.567,209.054,161.567 M209.054,202.953
		c-8.753,0-15.873-7.12-15.873-15.873c0-4.417,1.816-8.414,4.737-11.295l9.214,13.774c0.609,0.911,1.842,1.156,2.752,0.546
		l1.65-1.103c0.911-0.609,1.155-1.841,0.545-2.753l-9.22-13.783c1.905-0.81,3.998-1.26,6.195-1.26
		c8.753,0,15.874,7.121,15.874,15.874C224.928,195.833,217.807,202.953,209.054,202.953 M83.621,161.567
		c-14.067,0-25.512,11.446-25.512,25.513c0,14.067,11.445,25.512,25.512,25.512s25.512-11.445,25.512-25.512
		C109.133,173.013,97.688,161.567,83.621,161.567 M83.621,202.953c-8.753,0-15.874-7.12-15.874-15.873
		c0-8.753,7.121-15.874,15.874-15.874s15.874,7.121,15.874,15.874C99.495,195.833,92.374,202.953,83.621,202.953"/>
</g>
</svg>
