<?xml version="1.0" encoding="utf-8"?>
<!-- Generator: Adobe Illustrator 25.4.1, SVG Export Plug-In . SVG Version: 6.00 Build 0)  -->
<svg version="1.1" id="Layer_1" xmlns="http://www.w3.org/2000/svg" xmlns:xlink="http://www.w3.org/1999/xlink" x="0px" y="0px"
	 viewBox="0 0 283.465 283.465" enable-background="new 0 0 283.465 283.465" xml:space="preserve">
<g>
	<path fill="#64B5E5" d="M219.685,283.465H63.779c-35.224,0-63.78-28.555-63.78-63.78V63.78C-0.001,28.555,28.555,0,63.779,0
		h155.906c35.224,0,63.779,28.555,63.779,63.78v155.905C283.464,254.91,254.909,283.465,219.685,283.465 M265.039,219.685V63.78
		c0-25.049-20.306-45.355-45.354-45.355H63.779c-25.049,0-45.354,20.306-45.354,45.355v155.905
		c0,25.049,20.305,45.354,45.354,45.354h155.906C244.733,265.039,265.039,244.734,265.039,219.685"/>
	<g>
		<path fill="#FFFFFF" d="M83.621,162.567c-13.516,0-24.512,10.997-24.512,24.514c0,13.516,10.996,24.512,24.512,24.512
			c13.516,0,24.512-10.996,24.512-24.512C108.133,173.564,97.137,162.567,83.621,162.567z M83.621,203.953
			c-9.304,0-16.874-7.569-16.874-16.873c0-9.305,7.57-16.874,16.874-16.874s16.874,7.569,16.874,16.874
			C100.495,196.384,92.925,203.953,83.621,203.953z"/>
		<path fill="#FFFFFF" d="M209.054,162.567c-3.915,0-7.666,0.907-11.15,2.696l-0.793,0.407l-12.261-18.328l-0.036-0.21
			c-0.5-2.945-1.332-5.783-2.473-8.436c-0.127-0.276-0.261-0.576-0.394-0.875c-0.428-0.961-0.831-1.869-1.351-2.674l-2.26-3.659
			l-9.847-14.715h4.423c1.793,0,3.252-1.459,3.252-3.252v-7.937c0-1.793-1.459-3.252-3.252-3.252h-10.021
			c-1.122,0-2.198,0.343-3.112,0.992l-3.608,2.56h-11.605c-1.012,0-1.834,0.823-1.834,1.835c0,1.011,0.822,1.834,1.834,1.834h8.353
			l-0.085,1.079c-0.096,1.215,0.212,2.392,0.889,3.403l17.46,26.315c0.372,0.536,0.649,1.175,0.919,1.793
			c0.107,0.247,0.216,0.496,0.333,0.741c1.657,3.853,2.382,8.088,2.111,12.283l-0.222,1.672c-0.032,0.198-0.049,0.367-0.066,0.537
			c-0.039,0.381-0.083,0.812-0.227,1.255l-0.44,1.819c-0.042,0.188-0.085,0.375-0.149,0.601l-5.317,17.408
			c-0.737,1.922-1.98,3.559-3.606,4.759c-1.626,1.198-3.65,1.912-5.699,2.011c-0.146,0.017-0.565,0.024-1.035,0.025l-8.452-0.072
			c-0.202-0.015-0.428-0.027-0.659-0.033l-0.159-0.018c-0.151-0.029-0.303-0.067-0.454-0.107c-0.097-0.024-0.193-0.051-0.292-0.071
			c-0.123-0.03-0.204-0.045-0.287-0.061c-0.189-0.035-0.381-0.073-0.566-0.134c-0.293-0.124-0.51-0.213-0.726-0.295
			c-0.452-0.125-0.821-0.345-1.147-0.54c-0.143-0.085-0.285-0.172-0.436-0.245c-0.266-0.104-0.509-0.309-0.686-0.459
			c-0.05-0.041-0.1-0.084-0.151-0.123l-0.835-0.659c-0.173-0.2-0.353-0.394-0.539-0.584c-0.25-0.234-0.516-0.501-0.722-0.879
			c-0.102-0.143-0.259-0.361-0.424-0.576c-0.18-0.227-0.288-0.471-0.374-0.667c-0.032-0.073-0.063-0.147-0.103-0.216l-0.324-0.604
			c-0.032-0.055-0.086-0.177-0.137-0.301l-0.613-1.481l-9.172-22.126l0.374-0.463c0.119-0.146,0.254-0.39,0.222-0.714l-0.823-8.349
			c-0.372-3.785-3.522-6.64-7.326-6.64l-21.207-0.001l-0.031-0.968c-0.104-3.222-1.792-6.16-4.516-7.86
			c-4.494-2.807-9.685-4.29-15.013-4.29c-13.125,0-23.803,10.678-23.803,23.803c0,0.214,0.012,0.426,0.032,0.635
			c0.337,4.258,3.929,7.577,8.181,7.577H77.32c0.807,0.012,1.701,0.007,2.632,0.001l2.426-0.001c1.813,0.015,3.11,0.072,4.211,0.186
			c3.736,0.412,7.188,1.448,10.269,3.081c1.682,0.836,3.413,1.976,5.121,3.376c1.618,1.293,3.16,2.887,4.571,4.729
			c1.484,1.925,2.679,3.938,3.547,5.981c0.178,0.355,0.418,0.936,0.658,1.516l4.991,11.916c0.229,0.464,0.444,0.901,0.706,1.291
			l0.175,0.253c0.316,0.459,0.616,0.893,0.953,1.279l0.108,0.116c0.413,0.445,0.803,0.865,1.225,1.237
			c1.894,1.672,4.315,2.797,6.816,3.168c0.621,0.067,1.288,0.117,1.952,0.146l33.462,0.001c0.702-0.043,6.426-1.658,9.728-4.113
			c3.288-2.446,5.88-5.855,7.299-9.601l0.813-2.483l4.744-15.624c0.065-0.222,0.132-0.493,0.198-0.762l0.671-2.755
			c0.153-0.547,0.213-1.047,0.277-1.577c0.032-0.272,0.065-0.544,0.107-0.813l0.377-3.069l8.469,12.659l-0.676,0.577
			c-5.472,4.678-8.609,11.469-8.609,18.632c0,13.516,10.996,24.512,24.512,24.512s24.512-10.996,24.512-24.512
			C233.565,173.564,222.569,162.567,209.054,162.567z M209.054,203.953c-9.304,0-16.873-7.569-16.873-16.873
			c0-4.54,1.788-8.805,5.035-12.007l0.861-0.85l9.886,14.779c0.146,0.219,0.369,0.367,0.628,0.418
			c0.253,0.051,0.518-0.001,0.736-0.146l1.651-1.104c0.45-0.302,0.571-0.914,0.27-1.366l-9.891-14.786l1.11-0.473
			c2.089-0.889,4.305-1.34,6.586-1.34c9.305,0,16.874,7.569,16.874,16.874C225.928,196.384,218.358,203.953,209.054,203.953z"/>
	</g>
</g>
</svg>
