<?xml version="1.0" encoding="utf-8"?>
<!-- Generator: Adobe Illustrator 25.4.1, SVG Export Plug-In . SVG Version: 6.00 Build 0)  -->
<svg version="1.1" id="Layer_1" xmlns="http://www.w3.org/2000/svg" xmlns:xlink="http://www.w3.org/1999/xlink" x="0px" y="0px"
	 viewBox="0 0 311.811 311.809" enable-background="new 0 0 311.811 311.809" xml:space="preserve">
<g>
	<path fill="#FFFFFF" d="M28.347,311.809C12.717,311.809,0,299.094,0,283.461V28.345C0,12.715,12.717,0,28.347,0h255.116
		c15.63,0,28.347,12.715,28.347,28.345v255.116c0,15.633-12.717,28.348-28.347,28.348H28.347z"/>
	<path fill="#25303B" d="M288.425,33.262H23.386c-5.089,0-9.213-4.125-9.213-9.212c0-5.088,4.124-9.213,9.213-9.213h265.039
		c5.088,0,9.213,4.125,9.213,9.213C297.638,29.137,293.513,33.262,288.425,33.262 M297.638,289.089L297.638,289.089
		c0-5.088-4.125-9.213-9.213-9.213H23.386c-5.089,0-9.213,4.125-9.213,9.213c0,5.087,4.124,9.212,9.213,9.212h265.039
		C293.513,298.301,297.638,294.176,297.638,289.089 M110.511,222.209L110.511,222.209l-0.003-0.009l0.005,0.008
		c5.484-1.699,11.201-2.57,17.048-2.57c7,0,13.819,1.232,20.268,3.662c2.13,0.802,4.028,1.733,5.702,2.555
		c0.702,0.344,1.629,0.799,2.375,1.131c0.746-0.332,1.674-0.787,2.375-1.131c1.675-0.822,3.574-1.754,5.707-2.556
		c6.446-2.429,13.266-3.661,20.265-3.661c5.846,0,11.562,0.871,17.047,2.571l0.002-0.003l-0.001,0.003h0.001l32.746-50.992
		c1.511-2.351,0.181-5.487-2.561-6.035l-5.072-1.014c-0.018-0.004-0.036-0.01-0.054-0.013l-3.533-0.707l-0.001-0.255
		c-0.047-11.187-2.341-32.907-2.361-33.041c-0.547-3.955-2.265-7.605-4.966-10.558c-2.956-3.228-6.984-5.175-11.34-5.483
		c-7.025-0.494-16.739-0.99-26.993-1.313v-8.671c0-2.348-1.904-4.252-4.252-4.252h-12.191V74.732c0-1.768-1.434-3.203-3.203-3.203
		h-3.231c-1.769,0-3.204,1.435-3.204,3.203v25.143h-12.188c-2.348,0-4.251,1.904-4.251,4.252v8.671
		c-10.255,0.323-19.969,0.819-26.993,1.313c-4.357,0.308-8.384,2.255-11.34,5.483c-2.7,2.95-4.418,6.599-4.969,10.567
		c-0.023,0.167-2.311,21.777-2.358,33.032l-0.001,0.254l-5.14,1.028c-0.003,0.001-0.005,0.003-0.008,0.004l-3.512,0.703
		c-2.742,0.548-4.072,3.684-2.561,6.035L110.511,222.209z M103.993,131.826c0.203-1.354,0.801-2.603,1.729-3.617
		c0.741-0.809,1.745-1.297,2.828-1.373c11.64-0.82,30.797-1.647,47.357-1.647c16.559,0,35.717,0.827,47.356,1.647
		c1.083,0.076,2.087,0.564,2.827,1.372c0.928,1.013,1.525,2.259,1.732,3.633c0.27,2.444,1.671,16.531,2.114,26.529
		c0.057,1.284-1.111,2.277-2.372,2.025l-50.02-10.004c-1.087-0.216-2.189-0.217-3.278,0l-50.018,10.004
		c-1.261,0.252-2.429-0.739-2.373-2.024C102.339,147.805,103.87,132.991,103.993,131.826 M249.815,244.029
		c-6.709-1.783-14.075-1.482-20.572,0.888l-1.527,0.549c-0.556,0.194-1.117,0.373-1.679,0.545c-1.126,0.34-2.264,0.636-3.41,0.888
		c-2.293,0.51-4.623,0.829-6.957,0.984c-4.663,0.297-9.376-0.077-13.947-1.179c-1.142-0.275-2.276-0.589-3.394-0.953
		c-0.559-0.185-1.117-0.373-1.669-0.578l-0.698-0.254l-0.613-0.216c-1.638-0.564-3.327-0.99-5.041-1.294
		c-3.425-0.603-6.979-0.689-10.437-0.251c-1.731,0.215-3.439,0.565-5.108,1.042c-0.834,0.238-1.66,0.506-2.47,0.809
		c-0.724,0.273-1.477,0.608-2.33,1.013c-1.707,0.806-3.617,1.827-5.898,2.742c-2.248,0.908-4.989,1.745-8.158,1.772
		c-3.17-0.027-5.911-0.864-8.159-1.772c-2.281-0.915-4.19-1.936-5.898-2.742c-0.853-0.405-1.605-0.74-2.329-1.013
		c-0.811-0.303-1.636-0.571-2.471-0.809c-1.668-0.477-3.377-0.827-5.108-1.042c-3.458-0.438-7.012-0.352-10.436,0.251
		c-1.714,0.304-3.403,0.73-5.042,1.294l-0.613,0.216l-0.698,0.254c-0.552,0.205-1.109,0.393-1.668,0.578
		c-1.119,0.364-2.253,0.678-3.395,0.953c-4.571,1.102-9.284,1.476-13.946,1.179c-2.335-0.155-4.664-0.474-6.957-0.984
		c-1.146-0.252-2.285-0.548-3.411-0.888c-0.562-0.172-1.123-0.351-1.678-0.545l-1.528-0.549c-6.497-2.37-13.862-2.671-20.571-0.888
		c-1.766,0.46-3.793-0.646-4.606-2.691l-1.398-3.714c-0.808-2.028,0.474-4.45,2.953-5.103c9.094-2.399,18.807-2.008,27.684,1.204
		l1.356,0.49c0.409,0.142,0.822,0.273,1.236,0.402c0.831,0.249,1.672,0.468,2.521,0.655c1.697,0.378,3.428,0.613,5.171,0.732
		c3.492,0.22,7.02-0.06,10.396-0.877c0.844-0.203,1.681-0.435,2.505-0.703c0.412-0.136,0.823-0.274,1.228-0.426l0.743-0.27
		l0.832-0.293c2.227-0.763,4.512-1.343,6.822-1.751c4.626-0.811,9.335-0.924,13.986-0.339c2.325,0.289,4.633,0.761,6.893,1.408
		c1.131,0.322,2.251,0.686,3.353,1.099c1.19,0.446,2.303,0.949,3.295,1.421c1.983,0.947,3.692,1.842,5.211,2.442
		c1.527,0.629,2.796,0.904,3.727,0.916c0.93-0.012,2.2-0.287,3.727-0.916c1.518-0.6,3.227-1.495,5.21-2.442
		c0.992-0.472,2.105-0.975,3.295-1.421c1.103-0.413,2.223-0.777,3.353-1.099c2.261-0.647,4.568-1.119,6.893-1.408
		c4.651-0.585,9.36-0.472,13.986,0.339c2.31,0.408,4.595,0.988,6.822,1.751l0.833,0.293l0.742,0.27
		c0.405,0.152,0.817,0.29,1.228,0.426c0.824,0.268,1.661,0.5,2.506,0.703c3.376,0.817,6.903,1.097,10.395,0.877
		c1.743-0.119,3.475-0.354,5.171-0.732c0.85-0.187,1.69-0.406,2.521-0.655c0.414-0.129,0.828-0.26,1.237-0.402l1.356-0.49
		c8.877-3.212,18.59-3.603,27.683-1.204h0.001c2.478,0.653,3.761,3.075,2.952,5.103l-1.398,3.714
		C253.608,243.383,251.58,244.489,249.815,244.029"/>
</g>
</svg>
