<svg xmlns="http://www.w3.org/2000/svg" viewBox="0 0 283.46 283.46"><defs><style>.cls-1{fill:#25303b;}</style></defs><g id="Layer_2" data-name="Layer 2"><g id="Layer_1-2" data-name="Layer 1"><path class="cls-1" d="M274.25,18.43H9.21A9.22,9.22,0,0,1,9.21,0h265a9.22,9.22,0,0,1,0,18.43m9.21,255.82h0a9.21,9.21,0,0,0-9.21-9.21H9.21a9.21,9.21,0,0,0,0,18.42h265a9.21,9.21,0,0,0,9.21-9.21M231,62.08,146.55,77v36.42h38.9a27.52,27.52,0,0,1,25.5,17,112.89,112.89,0,0,1,0,86.41,27.51,27.51,0,0,1-25.49,17H98a27.53,27.53,0,0,1-25.5-17,112.83,112.83,0,0,1,0-86.41,27.52,27.52,0,0,1,25.5-17h38.89V78.67L55.84,93a3.22,3.22,0,0,1-3.72-2.6l-.56-3.18a3.21,3.21,0,0,1,2.6-3.71L120.8,71.72l-.3-1.67a7.94,7.94,0,0,1,6.44-9.2l26.24-4.62a7.92,7.92,0,0,1,9.19,6.43l.3,1.68L229.3,52.59a3.2,3.2,0,0,1,3.71,2.6l.57,3.18a3.21,3.21,0,0,1-2.6,3.71M114.09,182.84V128.13a2,2,0,0,0-2-2H98a14.81,14.81,0,0,0-13.72,9.17,99.13,99.13,0,0,0-7.62,38.31q0,4.75.44,9.42a2,2,0,0,0,2,1.79h33a2,2,0,0,0,2-2m57.26,2h33a2,2,0,0,0,2-1.79q.45-4.66.45-9.42a99.31,99.31,0,0,0-7.62-38.31,14.82,14.82,0,0,0-13.72-9.17h-14.1a2,2,0,0,0-2,2v54.71a2,2,0,0,0,2,2m-14.74,34.29v-91a2,2,0,0,0-2-2h-25.8a2,2,0,0,0-2,2v91a2,2,0,0,0,2,2h25.8a2,2,0,0,0,2-2"/></g></g></svg>