<?xml version="1.0" encoding="utf-8"?>
<!-- Generator: Adobe Illustrator 25.4.1, SVG Export Plug-In . SVG Version: 6.00 Build 0)  -->
<svg version="1.1" id="Layer_1" xmlns="http://www.w3.org/2000/svg" xmlns:xlink="http://www.w3.org/1999/xlink" x="0px" y="0px"
	 viewBox="0 0 283.465 283.465" enable-background="new 0 0 283.465 283.465" xml:space="preserve">
<g>
	<path fill="#25303B" d="M274.252,18.425H9.213C4.125,18.425,0,14.301,0,9.213C0,4.125,4.125,0,9.213,0h265.039
		c5.088,0,9.212,4.125,9.212,9.213C283.464,14.301,279.34,18.425,274.252,18.425 M283.464,274.253L283.464,274.253
		c0-5.088-4.124-9.213-9.212-9.213H9.213c-5.088,0-9.213,4.125-9.213,9.213c0,5.087,4.125,9.211,9.213,9.211h265.039
		C279.34,283.464,283.464,279.34,283.464,274.253 M96.338,207.373L96.338,207.373l-0.003-0.01l0.005,0.009
		c5.484-1.699,11.201-2.571,17.048-2.571c7,0,13.819,1.232,20.268,3.662c2.13,0.802,4.028,1.733,5.702,2.555
		c0.702,0.344,1.629,0.799,2.375,1.131c0.746-0.332,1.674-0.787,2.375-1.131c1.675-0.822,3.573-1.754,5.707-2.556
		c6.445-2.429,13.265-3.661,20.264-3.661c5.846,0,11.563,0.872,17.048,2.571l0.002-0.003l-0.001,0.003v0.001l32.746-50.992
		c1.511-2.352,0.181-5.487-2.56-6.036l-5.072-1.013c-0.018-0.004-0.036-0.01-0.054-0.014l-3.533-0.707l-0.001-0.255
		c-0.047-11.187-2.341-32.907-2.361-33.04c-0.547-3.956-2.265-7.605-4.966-10.558c-2.956-3.229-6.984-5.176-11.34-5.483
		c-7.025-0.495-16.74-0.991-26.993-1.314v-8.67c0-2.349-1.905-4.252-4.252-4.252h-12.191V59.896c0-1.769-1.434-3.203-3.203-3.203
		h-3.231c-1.769,0-3.204,1.434-3.204,3.203v25.143h-12.188c-2.348-0.001-4.251,1.903-4.251,4.252v8.67
		c-10.255,0.323-19.969,0.819-26.993,1.314c-4.357,0.307-8.384,2.254-11.34,5.483c-2.7,2.949-4.418,6.599-4.969,10.566
		c-0.023,0.167-2.311,21.778-2.358,33.032l-0.001,0.255l-5.14,1.027c-0.003,0.002-0.005,0.003-0.008,0.005l-3.512,0.702
		c-2.742,0.549-4.072,3.684-2.561,6.036L96.338,207.373z M89.82,116.99c0.203-1.354,0.801-2.603,1.729-3.617
		c0.741-0.809,1.745-1.297,2.828-1.373c11.64-0.82,30.797-1.647,47.357-1.647c16.559,0,35.717,0.827,47.356,1.647
		c1.083,0.076,2.087,0.564,2.827,1.372c0.928,1.013,1.525,2.259,1.732,3.633c0.27,2.443,1.671,16.53,2.114,26.528
		c0.057,1.285-1.111,2.278-2.372,2.026l-50.02-10.004c-1.087-0.217-2.189-0.217-3.278,0l-50.018,10.003
		c-1.261,0.252-2.429-0.739-2.373-2.023C88.166,132.969,89.697,118.154,89.82,116.99 M235.642,229.192
		c-6.709-1.782-14.075-1.481-20.572,0.888l-1.528,0.55c-0.555,0.194-1.116,0.373-1.678,0.545c-1.126,0.339-2.264,0.635-3.41,0.888
		c-2.293,0.509-4.623,0.828-6.958,0.984c-4.663,0.297-9.375-0.077-13.946-1.179c-1.142-0.276-2.276-0.59-3.394-0.954
		c-0.56-0.184-1.118-0.372-1.669-0.577l-0.699-0.254l-0.612-0.216c-1.638-0.564-3.328-0.99-5.042-1.294
		c-3.424-0.603-6.978-0.689-10.436-0.252c-1.731,0.215-3.44,0.565-5.109,1.042c-0.834,0.238-1.659,0.506-2.469,0.81
		c-0.724,0.272-1.477,0.607-2.331,1.012c-1.707,0.807-3.616,1.827-5.897,2.742c-2.248,0.909-4.989,1.746-8.158,1.773
		c-3.17-0.027-5.911-0.864-8.159-1.773c-2.281-0.915-4.19-1.935-5.898-2.742c-0.853-0.405-1.605-0.74-2.329-1.012
		c-0.811-0.304-1.636-0.572-2.471-0.81c-1.668-0.477-3.377-0.827-5.108-1.042c-3.458-0.437-7.012-0.351-10.436,0.252
		c-1.714,0.304-3.403,0.73-5.042,1.294l-0.613,0.216l-0.698,0.254c-0.552,0.205-1.109,0.393-1.668,0.577
		c-1.119,0.364-2.253,0.678-3.395,0.954c-4.571,1.102-9.284,1.476-13.946,1.179c-2.335-0.156-4.664-0.475-6.957-0.984
		c-1.146-0.253-2.285-0.549-3.411-0.888c-0.562-0.172-1.123-0.351-1.678-0.545l-1.528-0.55c-6.497-2.369-13.862-2.67-20.571-0.888
		c-1.766,0.46-3.793-0.646-4.606-2.69l-1.398-3.714c-0.808-2.029,0.474-4.451,2.953-5.104c9.094-2.398,18.807-2.008,27.684,1.204
		l1.356,0.491c0.409,0.142,0.822,0.273,1.236,0.401c0.831,0.25,1.672,0.469,2.521,0.655c1.697,0.378,3.428,0.614,5.171,0.733
		c3.492,0.22,7.02-0.06,10.396-0.877c0.844-0.203,1.681-0.435,2.505-0.703c0.412-0.137,0.823-0.275,1.228-0.426l0.743-0.27
		l0.832-0.294c2.227-0.763,4.512-1.343,6.822-1.751c4.626-0.811,9.335-0.923,13.986-0.339c2.325,0.29,4.633,0.762,6.893,1.408
		c1.131,0.323,2.251,0.687,3.353,1.1c1.19,0.446,2.303,0.948,3.295,1.42c1.983,0.948,3.692,1.842,5.211,2.442
		c1.527,0.629,2.796,0.904,3.727,0.916c0.93-0.012,2.199-0.287,3.726-0.916c1.519-0.6,3.228-1.494,5.21-2.442
		c0.993-0.472,2.106-0.974,3.295-1.42c1.104-0.413,2.224-0.777,3.354-1.1c2.26-0.646,4.568-1.118,6.893-1.408
		c4.651-0.584,9.36-0.472,13.986,0.339c2.31,0.408,4.595,0.988,6.822,1.751l0.833,0.294l0.742,0.27
		c0.405,0.151,0.817,0.289,1.228,0.426c0.824,0.268,1.661,0.5,2.506,0.703c3.375,0.817,6.903,1.097,10.395,0.877
		c1.742-0.119,3.475-0.355,5.171-0.733c0.85-0.186,1.69-0.405,2.52-0.655c0.415-0.128,0.829-0.259,1.238-0.401l1.355-0.491
		c8.877-3.212,18.591-3.602,27.684-1.204h0.001c2.477,0.653,3.761,3.075,2.952,5.104l-1.399,3.714
		C239.435,228.546,237.407,229.652,235.642,229.192"/>
</g>
</svg>
