<?xml version="1.0" encoding="utf-8"?>
<!-- Generator: Adobe Illustrator 25.4.1, SVG Export Plug-In . SVG Version: 6.00 Build 0)  -->
<svg version="1.1" id="Layer_1" xmlns="http://www.w3.org/2000/svg" xmlns:xlink="http://www.w3.org/1999/xlink" x="0px" y="0px"
	 viewBox="0 0 311.811 311.809" enable-background="new 0 0 311.811 311.809" xml:space="preserve">
<g>
	<path fill="#FFFFFF" d="M28.347,311.809C12.717,311.809,0,299.094,0,283.461V28.345C0,12.715,12.717,0,28.347,0h255.116
		c15.63,0,28.348,12.715,28.348,28.345v255.116c0,15.633-12.718,28.348-28.348,28.348H28.347z"/>
	<path fill="#25303B" d="M288.426,32.363H23.386c-5.088,0-9.212-4.124-9.212-9.212c0-5.088,4.124-9.213,9.212-9.213h265.04
		c5.088,0,9.212,4.125,9.212,9.213C297.638,28.239,293.514,32.363,288.426,32.363 M297.638,288.19L297.638,288.19
		c0-5.088-4.124-9.213-9.212-9.213H23.386c-5.088,0-9.212,4.125-9.212,9.213c0,5.088,4.124,9.213,9.212,9.213h265.04
		C293.514,297.403,297.638,293.278,297.638,288.19 M245.151,76.02l-84.426,14.886v36.418h38.896
		c11.199,0,21.209,6.686,25.502,17.033c5.701,13.695,8.594,28.233,8.594,43.203c0,14.971-2.893,29.509-8.598,43.21
		c-4.288,10.34-14.299,17.026-25.498,17.026h-87.43c-11.199,0-21.209-6.685-25.502-17.033c-5.702-13.696-8.594-28.234-8.594-43.203
		c0-14.968,2.892-29.505,8.596-43.21c4.291-10.341,14.302-17.026,25.5-17.026h38.896V92.606l-81.07,14.295
		c-1.748,0.307-3.414-0.86-3.722-2.607l-0.559-3.173c-0.307-1.742,0.856-3.403,2.598-3.711l66.635-11.749l-0.295-1.674
		c-0.761-4.318,2.121-8.434,6.438-9.196l26.24-4.627c4.317-0.76,8.434,2.121,9.195,6.439l0.296,1.675l66.635-11.75
		c1.742-0.307,3.403,0.856,3.71,2.598l0.561,3.183C248.057,74.051,246.893,75.712,245.151,76.02 M128.268,196.783v-54.719
		c0-1.096-0.888-1.985-1.984-1.985h-14.093c-6.024,0-11.41,3.598-13.72,9.166c-5.058,12.15-7.621,25.039-7.621,38.315
		c0,3.164,0.151,6.306,0.443,9.422c0.095,1.014,0.959,1.785,1.978,1.785h33.013C127.38,198.767,128.268,197.878,128.268,196.783
		 M185.528,198.767h33.013c1.019,0,1.883-0.771,1.978-1.785c0.292-3.116,0.443-6.258,0.443-9.422c0-13.276-2.563-26.165-7.62-38.315
		c-2.311-5.568-7.697-9.166-13.721-9.166h-14.093c-1.096,0-1.984,0.889-1.984,1.985v54.719
		C183.544,197.878,184.432,198.767,185.528,198.767 M170.788,233.056v-90.992c0-1.096-0.889-1.985-1.984-1.985h-25.796
		c-1.095,0-1.984,0.889-1.984,1.985v90.992c0,1.096,0.889,1.984,1.984,1.984h25.796C169.899,235.04,170.788,234.152,170.788,233.056
		"/>
</g>
</svg>
