<?xml version="1.0" encoding="utf-8"?>
<!-- Generator: Adobe Illustrator 25.4.1, SVG Export Plug-In . SVG Version: 6.00 Build 0)  -->
<svg version="1.1" id="Layer_1" xmlns="http://www.w3.org/2000/svg" xmlns:xlink="http://www.w3.org/1999/xlink" x="0px" y="0px"
	 viewBox="0 0 283.465 283.465" enable-background="new 0 0 283.465 283.465" xml:space="preserve">
<g>
	<path fill="#FFFFFF" d="M233.576,58.371l-0.56-3.182c-0.308-1.742-1.969-2.906-3.711-2.598L162.67,64.34l-0.296-1.675
		c-0.762-4.317-4.878-7.199-9.195-6.438l-26.24,4.627c-4.317,0.761-7.2,4.878-6.438,9.195l0.295,1.674l-66.635,11.75
		c-1.742,0.307-2.905,1.969-2.598,3.711l0.559,3.173c0.308,1.747,1.974,2.914,3.722,2.606l81.07-14.295v34.719H98.018
		c-11.198,0-21.209,6.685-25.5,17.025c-5.704,13.705-8.596,28.243-8.596,43.21c0,14.969,2.892,29.507,8.594,43.203
		c4.293,10.348,14.303,17.034,25.502,17.034h87.429c11.2,0,21.21-6.687,25.498-17.027c5.706-13.701,8.598-28.239,8.598-43.21
		c0-14.969-2.892-29.507-8.594-43.202c-4.293-10.347-14.302-17.033-25.502-17.033h-38.895V76.969l84.427-14.887
		C232.721,61.775,233.884,60.113,233.576,58.371 M112.111,184.829H79.098c-1.019,0-1.883-0.77-1.978-1.785
		c-0.292-3.116-0.443-6.258-0.443-9.422c0-13.276,2.563-26.165,7.621-38.314c2.31-5.568,7.696-9.166,13.72-9.166h14.093
		c1.096,0,1.984,0.889,1.984,1.984v54.719C114.095,183.941,113.207,184.829,112.111,184.829 M169.37,182.845v-54.719
		c0-1.095,0.889-1.984,1.985-1.984h14.092c6.025,0,11.411,3.598,13.721,9.166c5.058,12.149,7.62,25.038,7.62,38.314
		c0,3.164-0.15,6.306-0.442,9.422c-0.095,1.015-0.959,1.785-1.979,1.785h-33.012C170.259,184.829,169.37,183.941,169.37,182.845
		 M154.63,221.103h-25.795c-1.096,0-1.984-0.889-1.984-1.985v-90.992c0-1.095,0.888-1.984,1.984-1.984h25.795
		c1.097,0,1.984,0.889,1.984,1.984v90.992C156.614,220.214,155.727,221.103,154.63,221.103 M283.465,7.37L283.465,7.37
		c0-4.07-3.3-7.37-7.37-7.37H7.37C3.3,0,0,3.3,0,7.37c0,4.071,3.3,7.371,7.37,7.371h268.725
		C280.165,14.741,283.465,11.441,283.465,7.37 M283.465,276.095L283.465,276.095c0-4.07-3.3-7.37-7.37-7.37H7.37
		c-4.07,0-7.37,3.3-7.37,7.37c0,4.07,3.3,7.37,7.37,7.37h268.725C280.165,283.465,283.465,280.165,283.465,276.095"/>
</g>
</svg>
