<?xml version="1.0" encoding="utf-8"?>
<!-- Generator: Adobe Illustrator 25.4.1, SVG Export Plug-In . SVG Version: 6.00 Build 0)  -->
<svg version="1.1" id="Layer_1" xmlns="http://www.w3.org/2000/svg" xmlns:xlink="http://www.w3.org/1999/xlink" x="0px" y="0px"
	 viewBox="0 0 311.811 311.809" enable-background="new 0 0 311.811 311.809" xml:space="preserve">
<g>
	<defs>
		<rect id="SVGID_1_" width="311.811" height="311.809"/>
	</defs>
	<clipPath id="SVGID_00000077285073987140478690000010373569590088270755_">
		<use xlink:href="#SVGID_1_"  overflow="visible"/>
	</clipPath>
	<path clip-path="url(#SVGID_00000077285073987140478690000010373569590088270755_)" fill="#FFFFFF" d="M28.347,311.809
		C12.717,311.809,0,299.094,0,283.462V28.346C0,12.716,12.717,0,28.347,0h255.116c15.63,0,28.347,12.716,28.347,28.346v255.116
		c0,15.632-12.717,28.347-28.347,28.347H28.347z"/>
	<path clip-path="url(#SVGID_00000077285073987140478690000010373569590088270755_)" fill="#25303B" d="M258.308,176.951
		c0-14.528-8.153-23.029-18.427-28.7L232.086,144c-4.604-2.483-8.502-6.38-8.502-11.341c0-5.67,4.604-9.564,11.337-9.564
		c4.608,0,8.854,1.768,12.046,3.188c4.965,2.479,8.153-0.71,9.568-6.022c1.773-6.029-0.71-8.149-4.96-10.275
		c-4.251-2.13-10.274-3.545-16.297-3.545c-16.659,0-30.478,10.984-30.478,28.7c0,13.82,7.086,21.616,18.432,27.992l8.143,4.607
		c4.961,2.836,8.154,6.733,8.154,12.047c0,6.732-6.381,9.921-12.757,9.921c-4.965,0-10.984-2.126-14.176-3.546
		c-5.313-2.478-8.149,0.71-9.921,6.381c-1.768,6.023,1.067,8.506,5.67,10.631c4.251,2.126,11.694,3.898,18.427,3.898
		C244.132,207.072,258.308,195.378,258.308,176.951 M196.299,173.406V114.59c0-4.96-4.96-7.439-9.568-7.439
		c-4.956,0-9.564,2.479-9.564,7.439v56.338c0,11.341-3.55,18.78-12.756,18.78c-8.859,0-13.114-7.086-13.114-18.78V114.59
		c0-4.96-5.313-7.439-9.921-7.439c-5.313,0-9.921,2.479-9.921,7.439v58.463c0,23.388,11.694,34.019,32.956,34.019
		C183.538,207.072,196.299,196.088,196.299,173.406 M122.239,177.661c0-16.301-11.332-22.324-17.359-23.387v-0.352
		c7.086-3.546,15.596-10.275,15.596-22.326c0-16.296-14.176-24.092-27.995-24.092H65.905c-4.96,0-7.795,3.898-7.795,8.148v82.914
		c0,4.96,4.961,7.444,9.568,7.444h25.155C108.068,206.01,122.239,197.856,122.239,177.661 M100.629,136.205
		c0,9.211-7.796,12.403-15.944,12.403h-7.443v-24.807h7.443C93.186,123.801,100.629,126.637,100.629,136.205 M103.465,175.536
		c0,9.568-5.318,14.172-16.655,14.172h-8.506V162.07h8.506C93.896,162.07,103.465,164.553,103.465,175.536 M288.425,34.16H23.386
		c-5.088,0-9.213-4.125-9.213-9.213c0-5.088,4.125-9.213,9.213-9.213h265.039c5.088,0,9.213,4.125,9.213,9.213
		C297.638,30.035,293.513,34.16,288.425,34.16 M288.425,299.199H23.386c-5.088,0-9.213-4.125-9.213-9.213
		c0-5.088,4.125-9.213,9.213-9.213h265.039c5.088,0,9.213,4.125,9.213,9.213C297.638,295.074,293.513,299.199,288.425,299.199"/>
</g>
</svg>
