<?xml version="1.0" encoding="utf-8"?>
<!-- Generator: Adobe Illustrator 25.4.1, SVG Export Plug-In . SVG Version: 6.00 Build 0)  -->
<svg version="1.1" id="Layer_1" xmlns="http://www.w3.org/2000/svg" xmlns:xlink="http://www.w3.org/1999/xlink" x="0px" y="0px"
	 viewBox="0 0 283.465 283.465" enable-background="new 0 0 283.465 283.465" xml:space="preserve">
<g>
	<path fill="#25303B" d="M141.732,0C63.456,0,0,63.456,0,141.732c0,78.277,63.456,141.733,141.732,141.733
		c78.277,0,141.733-63.456,141.733-141.733C283.465,63.456,220.009,0,141.732,0 M141.732,265.04
		c-68.1,0-123.307-55.207-123.307-123.308c0-68.1,55.207-123.307,123.307-123.307c68.101,0,123.307,55.207,123.307,123.307
		C265.039,209.833,209.833,265.04,141.732,265.04 M212.245,205.154c0,6.733-5.317,10.631-11.688,10.631
		c-5.675,0-12.051-3.898-12.051-10.631v-92.127h-0.353l-35.081,71.575c-2.482,4.961-5.67,7.796-11.336,7.796
		c-5.67,0-8.863-2.835-11.341-7.796l-35.08-71.575h-0.352v92.127c0,6.733-6.381,10.631-12.047,10.631
		c-6.375,0-11.693-3.898-11.693-10.631V81.496c0-7.09,3.898-14.529,15.591-14.529c8.859,0,12.399,3.898,16.297,11.694l38.625,79.724
		h0.353l38.268-79.724c3.894-7.796,7.439-11.694,16.297-11.694c11.694,0,15.591,7.439,15.591,14.529V205.154"/>
</g>
</svg>
