<svg xmlns="http://www.w3.org/2000/svg" viewBox="0 0 37.25 37.25"><defs><style>.cls-1,.cls-2{fill:#25303b;}.cls-2{fill-rule:evenodd;}</style></defs><g id="Layer_2" data-name="Layer 2"><g id="Layer_1-2" data-name="Layer 1"><path class="cls-1" d="M13.49,16l.11-.08a2.76,2.76,0,0,0,.85-1.29A9.31,9.31,0,0,0,15,12a11.73,11.73,0,0,0-.73-3.91l-.12-.3a3.93,3.93,0,0,0-.8-1.1A1.66,1.66,0,0,0,12,6.21H9.58a1.66,1.66,0,0,0-1.4.45,4,4,0,0,0-.81,1.1l-.11.31A11.62,11.62,0,0,0,6.53,12a9.31,9.31,0,0,0,.59,2.63A2.71,2.71,0,0,0,8,15.89l.11.08-1.76,2a.44.44,0,0,0-.11.29.46.46,0,0,0,.11.29l.11.08.14,0a.4.4,0,0,0,.15,0l.11-.08.61-.68h6.69l.6.68.12.08a.35.35,0,0,0,.14,0,.4.4,0,0,0,.15,0l.11-.08a.46.46,0,0,0,.11-.29.44.44,0,0,0-.11-.29Zm-.59-.71a.64.64,0,0,1-.33-.1.58.58,0,0,1-.22-.27.6.6,0,0,1,0-.35.53.53,0,0,1,.17-.31.59.59,0,0,1,.31-.17.57.57,0,0,1,.34,0,.53.53,0,0,1,.27.22.58.58,0,0,1-.07.76.58.58,0,0,1-.43.18M7.43,11.39c-.37,0,.22-3.24.48-3.24h5.68c.29,0,1,3.24.52,3.24Zm.62,3.27a.59.59,0,0,1,.1-.34.58.58,0,0,1,.27-.22.6.6,0,0,1,.79.79.58.58,0,0,1-.22.27.67.67,0,0,1-.34.1.64.64,0,0,1-.23,0,.62.62,0,0,1-.32-.32.5.5,0,0,1,0-.23M8.17,17l.65-.72a3.73,3.73,0,0,0,.82.07h2.29a3.79,3.79,0,0,0,.82-.07l.65.72Z"/><path class="cls-2" d="M28.38,8.87a.63.63,0,0,1,0,.88L9.75,28.38a.62.62,0,0,1-.88-.88L27.5,8.87a.63.63,0,0,1,.88,0"/><path class="cls-1" d="M28.87,37.25H8.38A8.38,8.38,0,0,1,0,28.87V8.38A8.38,8.38,0,0,1,8.38,0H28.87a8.38,8.38,0,0,1,8.38,8.38V28.87a8.38,8.38,0,0,1-8.38,8.38m6-8.38V8.38a6,6,0,0,0-6-6H8.38a6,6,0,0,0-6,6V28.87a6,6,0,0,0,6,6H28.87a6,6,0,0,0,6-6"/><path class="cls-1" d="M22.5,24.47a1.71,1.71,0,0,0-1.79-1.79H19a.49.49,0,0,0-.5.52v5.32c0,.32.32.48.61.48s.61-.16.61-.48V26.46h.53l1,2.29a.45.45,0,0,0,.43.25c.36,0,.88-.34.68-.75l-1-2a1.82,1.82,0,0,0,1.09-1.74m-2.4,1.09h-.37V23.72h.44c.56,0,1.06.25,1.06.88a1,1,0,0,1-1.13,1"/><path class="cls-1" d="M26.17,27.84H24.45V26.28h1.43a.5.5,0,0,0,.49-.52.49.49,0,0,0-.49-.52H24.45V23.81H26a.55.55,0,0,0,.5-.57.53.53,0,0,0-.5-.56H23.72a.49.49,0,0,0-.49.52v5.3c0,.32.31.48.61.48h2.33a.55.55,0,0,0,.5-.57.54.54,0,0,0-.5-.57"/><path class="cls-1" d="M31.27,24.47a1.71,1.71,0,0,0-1.79-1.79h-1.7a.49.49,0,0,0-.5.52v5.32c0,.32.32.48.61.48s.62-.16.62-.48V26.46H29l1,2.29a.45.45,0,0,0,.43.25c.36,0,.88-.34.68-.75l-1-2a1.82,1.82,0,0,0,1.09-1.74m-2.4,1.09h-.36V23.72h.43c.56,0,1.06.25,1.06.88a1,1,0,0,1-1.13,1"/></g></g></svg>