<?xml version="1.0" encoding="utf-8"?>
<!-- Generator: Adobe Illustrator 25.4.1, SVG Export Plug-In . SVG Version: 6.00 Build 0)  -->
<svg version="1.1" id="Layer_1" xmlns="http://www.w3.org/2000/svg" xmlns:xlink="http://www.w3.org/1999/xlink" x="0px" y="0px"
	 viewBox="0 0 311.811 311.811" enable-background="new 0 0 311.811 311.811" xml:space="preserve">
<g>
	<path fill="#FFFFFF" d="M240.359,311.811H71.452C31.99,311.811,0,279.821,0,240.36V71.452C0,31.991,31.99,0,71.452,0h168.907
		c39.462,0,71.452,31.991,71.452,71.452V240.36C311.811,279.821,279.821,311.811,240.359,311.811"/>
	<path fill="#25303B" d="M257.606,133.94c0-19.127-14.187-27.99-27.99-27.99h-26.58c-4.959,0-7.789,3.894-7.789,8.153v83.269
		c0,4.959,4.96,7.433,9.554,7.433c5.324,0,9.573-2.474,9.573-7.433v-32.24h8.153l15.933,35.78c1.419,2.839,3.904,3.893,6.743,3.893
		c5.659,0,13.822-5.313,10.628-11.682l-15.242-31.894C249.807,156.615,257.606,148.471,257.606,133.94 M185.674,195.596
		c0-4.259-2.838-8.853-7.798-8.853h-26.934v-24.45h22.321c4.959,0,7.798-4.259,7.798-8.154c0-4.249-2.839-8.153-7.798-8.153h-22.321
		v-22.32h24.814c4.959,0,7.789-4.959,7.789-8.854c0-4.259-2.83-8.863-7.789-8.863h-36.152c-4.959,0-7.789,3.894-7.789,8.153v82.914
		c0,4.959,4.959,7.434,9.564,7.434h36.497C182.836,204.451,185.674,199.492,185.674,195.596 M120.468,133.94
		c0-19.127-14.168-27.99-27.99-27.99h-26.57c-4.959,0-7.798,3.894-7.798,8.153v83.269c0,4.959,4.959,7.433,9.563,7.433
		c5.314,0,9.563-2.474,9.563-7.433v-32.24h8.154l15.951,35.78c1.42,2.839,3.904,3.893,6.734,3.893
		c5.669,0,13.812-5.313,10.628-11.682l-15.242-31.894C112.679,156.615,120.468,148.471,120.468,133.94 M237.75,136.069
		c0,12.048-10.974,14.877-17.707,14.877h-5.669v-28.699h6.724C229.961,122.247,237.75,126.151,237.75,136.069 M100.631,136.069
		c0,12.048-10.982,14.877-17.716,14.877h-5.679v-28.699h6.744C92.833,122.247,100.631,126.151,100.631,136.069 M233.858,297.638
		H77.953c-35.224,0-63.78-28.554-63.78-63.779V77.952c0-35.224,28.556-63.78,63.78-63.78h155.905c35.225,0,63.78,28.556,63.78,63.78
		v155.906C297.638,269.083,269.083,297.638,233.858,297.638 M279.213,233.859V77.952c0-25.048-20.306-45.354-45.355-45.354H77.953
		c-25.049,0-45.354,20.306-45.354,45.354v155.906c0,25.048,20.305,45.354,45.354,45.354h155.905
		C258.907,279.212,279.213,258.906,279.213,233.859"/>
</g>
</svg>
