<?xml version="1.0" encoding="utf-8"?>
<!-- Generator: Adobe Illustrator 25.4.1, SVG Export Plug-In . SVG Version: 6.00 Build 0)  -->
<svg version="1.1" id="Layer_1" xmlns="http://www.w3.org/2000/svg" xmlns:xlink="http://www.w3.org/1999/xlink" x="0px" y="0px"
	 viewBox="0 0 311.811 311.809" enable-background="new 0 0 311.811 311.809" xml:space="preserve">
<g>
	<path fill="#FFFFFF" d="M28.347,311.809C12.717,311.809,0,299.094,0,283.461V28.345C0,12.715,12.717,0,28.347,0h255.116
		c15.63,0,28.348,12.715,28.348,28.345v255.116c0,15.633-12.718,28.348-28.348,28.348H28.347z"/>
	<path fill="#25303B" d="M265.323,250.755H42.52v-11.904h222.803c2.191,0,3.969,1.776,3.969,3.967v3.969
		C269.292,248.979,267.514,250.755,265.323,250.755 M42.52,185.702h41.243c1.096,0,1.985-0.888,1.985-1.984v-54.851
		c0-1.095-0.889-1.984-1.985-1.984H42.52v-12.756h64.373l25.237-20.741L100.387,67.31c-1.371-1.127-1.569-3.152-0.443-4.523
		l2.04-2.483c1.127-1.37,3.151-1.569,4.522-0.442l36.139,29.691c2.415,1.984,2.416,5.681,0.001,7.665l-20.574,16.909h98.025
		c7.776,0,15.183,3.286,20.43,9.024c15.446,16.89,25.269,37.771,28.406,60.389c0.997,7.196-0.097,14.305-3.167,20.562
		c-7.085,14.44-21.471,23.411-37.546,23.411H42.52V185.702z M231.002,131.637c-2.797-3.049-6.768-4.754-10.905-4.754h-34.569
		c-1.096,0-1.984,0.889-1.984,1.984v54.851c0,1.096,0.888,1.984,1.984,1.984h59.113c6.94,0,11.071-5.464,9.302-12.173
		C249.843,157.969,242.032,143.659,231.002,131.637 M168.803,214.757c1.096,0,1.985-0.889,1.985-1.984v-83.906
		c0-1.095-0.889-1.984-1.985-1.984h-25.794c-1.096,0-1.985,0.889-1.985,1.984v83.906c0,1.095,0.889,1.984,1.985,1.984H168.803
		 M100.488,126.883c-1.096,0-1.984,0.889-1.984,1.984v83.906c0,1.095,0.888,1.984,1.984,1.984h25.796
		c1.096,0,1.984-0.889,1.984-1.984v-83.906c0-1.095-0.888-1.984-1.984-1.984H100.488 M297.638,24.127L297.638,24.127
		c0-5.088-4.125-9.213-9.213-9.213H23.386c-5.088,0-9.213,4.125-9.213,9.213s4.125,9.212,9.213,9.212h265.039
		C293.513,33.339,297.638,29.215,297.638,24.127 M297.638,289.166L297.638,289.166c0-5.088-4.125-9.213-9.213-9.213H23.386
		c-5.088,0-9.213,4.125-9.213,9.213s4.125,9.213,9.213,9.213h265.039C293.513,298.379,297.638,294.254,297.638,289.166"/>
</g>
</svg>
