<?xml version="1.0" encoding="utf-8"?>
<!-- Generator: Adobe Illustrator 25.4.1, SVG Export Plug-In . SVG Version: 6.00 Build 0)  -->
<svg version="1.1" id="Layer_1" xmlns="http://www.w3.org/2000/svg" xmlns:xlink="http://www.w3.org/1999/xlink" x="0px" y="0px"
	 viewBox="0 0 283.465 283.465" enable-background="new 0 0 283.465 283.465" xml:space="preserve">
<g>
	<path fill="#FFFFFF" d="M276.095,14.741H7.37c-4.07,0-7.37-3.3-7.37-7.37c0-4.07,3.3-7.37,7.37-7.37h268.725
		c4.07,0,7.37,3.3,7.37,7.37C283.465,11.441,280.165,14.741,276.095,14.741"/>
	<path fill="#FFFFFF" d="M276.095,283.465H7.37c-4.07,0-7.37-3.3-7.37-7.37c0-4.07,3.3-7.37,7.37-7.37h268.725
		c4.07,0,7.37,3.3,7.37,7.37C283.465,280.165,280.165,283.465,276.095,283.465"/>
	<path fill="#FFFFFF" d="M251.149,235.841H28.346v-11.904h222.803c2.191,0,3.969,1.776,3.969,3.967v3.969
		C255.118,234.066,253.34,235.841,251.149,235.841"/>
	<path fill="#FFFFFF" d="M28.347,212.6h185.7c16.075,0,30.461-8.971,37.546-23.412c3.07-6.257,4.164-13.365,3.167-20.561
		c-3.137-22.618-12.96-43.499-28.406-60.389c-5.247-5.738-12.654-9.024-20.43-9.024h-98.025l20.574-16.909
		c2.415-1.984,2.414-5.681-0.001-7.665L92.332,44.949c-1.371-1.127-3.395-0.929-4.522,0.442l-2.04,2.483
		c-1.126,1.371-0.928,3.395,0.443,4.522l31.743,26.077L92.719,99.214H28.347v12.756h41.243c1.096,0,1.985,0.889,1.985,1.984v54.85
		c0,1.097-0.889,1.985-1.985,1.985H28.347V212.6z M216.829,116.724c11.03,12.022,18.841,26.331,22.941,41.892
		c1.769,6.709-2.362,12.173-9.302,12.173h-59.113c-1.096,0-1.984-0.888-1.984-1.985v-54.85c0-1.095,0.888-1.984,1.984-1.984h34.569
		C210.061,111.97,214.031,113.675,216.829,116.724 M154.63,199.844h-25.794c-1.096,0-1.985-0.889-1.985-1.984v-83.906
		c0-1.095,0.889-1.984,1.985-1.984h25.794c1.096,0,1.985,0.889,1.985,1.984v83.906C156.615,198.955,155.725,199.844,154.63,199.844
		 M86.314,111.97h25.796c1.096,0,1.984,0.889,1.984,1.984v83.906c0,1.095-0.888,1.984-1.984,1.984H86.314
		c-1.096,0-1.984-0.889-1.984-1.984v-83.906C84.33,112.859,85.218,111.97,86.314,111.97"/>
</g>
</svg>
