<?xml version="1.0" encoding="utf-8"?>
<!-- Generator: Adobe Illustrator 25.4.1, SVG Export Plug-In . SVG Version: 6.00 Build 0)  -->
<svg version="1.1" id="Layer_1" xmlns="http://www.w3.org/2000/svg" xmlns:xlink="http://www.w3.org/1999/xlink" x="0px" y="0px"
	 viewBox="0 0 283.465 283.465" enable-background="new 0 0 283.465 283.465" xml:space="preserve">
<g>
	<path fill="#FFFFFF" d="M165.206,155.193V97.366c0-2.976,3.686-5.883,7.655-5.883c3.683,0,7.653,2.907,7.653,5.883v60.307
		c0,22.675-10.34,33.447-30.278,33.447c-22.063,0-31.569-10.415-31.569-33.801V97.366c0-2.976,3.688-5.883,7.938-5.883
		c3.683,0,7.936,2.907,7.936,5.883v57.827c0,18.598,9.528,22.039,15.695,22.039C157.457,177.232,165.206,172.823,165.206,155.193
		 M72.638,144.988c11.66,0,18.621,5.768,18.621,15.431c0,10.709-6.265,16.139-18.621,16.139H60.913v-31.57H72.638z M89.899,138.539
		v-0.354c6.654-3.594,14.587-10.39,14.587-22.355c0-16.532-13.57-24.063-28.79-24.062H53.605c-6.58-0.001-8.849,3.899-8.849,8.151
		v82.91c0,4.961,3.969,7.442,10.063,7.442h21.329c27.936,0,29.912-21.844,29.912-28.538c0-19.969-15.493-23.068-16.161-23.196
		 M60.064,134.216v-28.415h9.248c11.447,0,18.952,5.046,18.952,14.208c0,8.896-7.837,14.207-18.952,14.207H60.064z M220.59,90.846
		c-15.719,0.274-28.971,11.133-28.683,27.623c0.226,12.935,7.566,21.01,18.376,26.82l8.348,4.523
		c5.794,3.191,9.859,6.681,9.977,13.386c0.155,8.884-7.359,13.902-15.429,14.043c-5.236,0.091-11.336-1.793-14.717-3.3
		c-4.39-1.915-6.486,0.76-7.854,5.34c-1.37,4.863,0.986,6.812,4.788,8.452c4.238,2.008,11.675,3.555,18.314,3.44
		c16.308-0.285,29.582-11.151,29.28-28.437c-0.238-13.629-7.92-21.829-17.816-27.082l-8.072-4.27
		c-5.609-2.985-10.214-7.567-10.325-13.876c-0.139-8.03,5.632-13.83,13.763-13.972c4.878-0.085,9.396,1.701,12.811,3.328
		c4.002,1.875,6.425-0.707,7.487-4.892c1.335-4.747-0.677-6.379-4.107-7.986C232.492,91.979,226.552,90.742,220.59,90.846
		 M283.465,7.37L283.465,7.37c0-4.07-3.3-7.37-7.37-7.37H7.37C3.3,0,0,3.3,0,7.37c0,4.071,3.3,7.371,7.37,7.371h268.725
		C280.165,14.741,283.465,11.441,283.465,7.37 M283.465,276.095L283.465,276.095c0-4.07-3.3-7.37-7.37-7.37H7.37
		c-4.07,0-7.37,3.3-7.37,7.37c0,4.07,3.3,7.37,7.37,7.37h268.725C280.165,283.465,283.465,280.165,283.465,276.095"/>
</g>
</svg>
