<?xml version="1.0" encoding="utf-8"?>
<!-- Generator: Adobe Illustrator 25.4.1, SVG Export Plug-In . SVG Version: 6.00 Build 0)  -->
<svg version="1.1" id="Layer_1" xmlns="http://www.w3.org/2000/svg" xmlns:xlink="http://www.w3.org/1999/xlink" x="0px" y="0px"
	 viewBox="0 0 283.465 283.465" enable-background="new 0 0 283.465 283.465" xml:space="preserve">
<g>
	<path fill="#FFFFFF" d="M141.733,0.001C63.456,0.001,0,63.456,0,141.733s63.456,141.733,141.733,141.733
		c78.276,0,141.732-63.456,141.732-141.733S220.009,0.001,141.733,0.001 M141.733,268.725c-70.136,0-126.992-56.856-126.992-126.992
		S71.597,14.741,141.733,14.741c70.135,0,126.992,56.856,126.992,126.992S211.868,268.725,141.733,268.725 M141.721,192.325
		c-4.736,0-7.4-2.32-9.472-6.38l-38.104-75.984h-0.354l0.001,96.712c0,5.721-5.42,9.035-10.24,9.035
		c-5.421,0-9.939-3.315-9.939-9.036V78.7c0-5.669,3.261-11.622,13.045-11.622c7.413,0,10.57,3.118,13.639,9.355l41.259,87.057h0.354
		l41.235-87.057c3.069-6.237,6.225-9.355,13.639-9.355c9.784,0,13.045,5.953,13.045,11.622v127.972c0,5.721-4.517,9.036-9.939,9.036
		c-4.82,0-10.24-3.314-10.24-9.035l0.001-96.712h-0.355l-38.103,75.984C149.121,190.005,146.457,192.325,141.721,192.325"/>
</g>
</svg>
