<?xml version="1.0" encoding="utf-8"?>
<!-- Generator: Adobe Illustrator 25.4.1, SVG Export Plug-In . SVG Version: 6.00 Build 0)  -->
<svg version="1.1" id="Layer_1" xmlns="http://www.w3.org/2000/svg" xmlns:xlink="http://www.w3.org/1999/xlink" x="0px" y="0px"
	 viewBox="0 0 311.811 311.811" enable-background="new 0 0 311.811 311.811" xml:space="preserve">
<g>
	<path fill="#FFFFFF" d="M155.906,311.811L155.906,311.811C69.802,311.811,0,242.01,0,155.905C0,69.801,69.802,0,155.906,0
		s155.905,69.801,155.905,155.905C311.811,242.01,242.01,311.811,155.906,311.811"/>
	<path fill="#25303B" d="M226.418,219.328V95.67c0-7.09-3.898-14.529-15.591-14.529c-8.859,0-12.403,3.898-16.297,11.694
		l-38.268,79.724h-0.353l-38.625-79.724c-3.898-7.796-7.439-11.694-16.296-11.694c-11.694,0-15.592,7.439-15.592,14.529v123.658
		c0,6.733,5.318,10.631,11.694,10.631c5.665,0,12.045-3.898,12.045-10.631V127.2h0.353l35.081,71.576
		c2.478,4.96,5.67,7.796,11.34,7.796c5.666,0,8.854-2.836,11.336-7.796l35.081-71.576h0.352v92.128
		c0,6.733,6.376,10.631,12.051,10.631C221.1,229.959,226.418,226.061,226.418,219.328 M155.905,14.173
		c-78.276,0-141.732,63.456-141.732,141.732c0,78.278,63.456,141.733,141.732,141.733s141.732-63.455,141.732-141.733
		C297.637,77.629,234.181,14.173,155.905,14.173 M155.905,279.213c-68.101,0-123.307-55.207-123.307-123.308
		c0-68.1,55.206-123.306,123.307-123.306s123.307,55.206,123.307,123.306C279.212,224.006,224.006,279.213,155.905,279.213"/>
</g>
</svg>
