<?xml version="1.0" encoding="utf-8"?>
<!-- Generator: Adobe Illustrator 25.4.1, SVG Export Plug-In . SVG Version: 6.00 Build 0)  -->
<svg version="1.1" id="Layer_1" xmlns="http://www.w3.org/2000/svg" xmlns:xlink="http://www.w3.org/1999/xlink" x="0px" y="0px"
	 viewBox="0 0 283.465 283.465" enable-background="new 0 0 283.465 283.465" xml:space="preserve">
<g>
	<path fill="#FFFFFF" d="M78.31,91.787c12.98,0,26.078,8.359,26.078,27.038c0,12.107-5.367,21.027-15.949,26.511
		c-0.58,0.265-1.157,0.503-1.732,0.731l17.031,35.648c0.75,1.501,0.684,2.928-0.203,4.363c-1.556,2.516-5.465,4.563-8.716,4.563
		c-2.456,0-4.052-0.903-5.021-2.841l-17.049-38.127H60.703v35.212c0,2.871-4.102,5.675-7.654,5.675
		c-4.099,0-7.656-2.804-7.656-5.675V99.923c0-4.252,2.269-8.152,8.849-8.15L78.31,91.787z M45.393,184.885V99.923
		c0-4.252,2.269-8.152,8.849-8.15 M68.742,136.917c9.056,0,19.63-4.399,19.63-16.795c0-9.705-7.114-15.733-18.567-15.733h-9.102
		v32.528H68.742z"/>
	<path fill="#FFFFFF" d="M215.438,91.787c12.98,0,26.078,8.359,26.078,27.038c0,12.107-5.367,21.027-15.949,26.511
		c-0.58,0.265-1.157,0.503-1.732,0.731l17.031,35.648c0.75,1.501,0.684,2.928-0.203,4.363c-1.556,2.516-5.465,4.563-8.716,4.563
		c-2.456,0-4.052-0.903-5.021-2.841l-17.049-38.127h-12.046v35.212c0,2.871-4.102,5.675-7.654,5.675
		c-4.099,0-7.656-2.804-7.656-5.675V99.923c0-4.252,2.269-8.152,8.849-8.15L215.438,91.787z M205.87,136.917
		c9.056,0,19.63-4.399,19.63-16.795c0-9.705-7.114-15.733-18.567-15.733h-9.102v32.528H205.87z"/>
	<path fill="#FFFFFF" d="M163.987,190.277c3.786,0,5.881-4.188,5.881-7.084c0-2.942-1.825-7.087-5.881-7.088h-29.33v-29.623h24.724
		c4.056,0,5.881-3.813,5.881-6.52c0-3.14-1.84-6.519-5.881-6.519h-24.724v-27.496h27.203c3.838,0,5.883-4.115,5.883-7.087
		c0-2.942-1.825-7.086-5.883-7.086h-33.632c-6.58-0.002-8.848,3.898-8.848,8.15v82.913c0,5.455,4.577,7.435,7.653,7.435
		L163.987,190.277z"/>
	<path fill="#FFFFFF" d="M219.685,283.465H63.78C28.556,283.465,0,254.91,0,219.685V63.78C0,28.556,28.556,0,63.78,0h155.905
		c35.225,0,63.78,28.556,63.78,63.78v155.905C283.465,254.91,254.91,283.465,219.685,283.465 M268.725,219.685V63.78
		c0-27.084-21.956-49.039-49.04-49.039H63.78c-27.084,0-49.039,21.955-49.039,49.039v155.905c0,27.084,21.955,49.04,49.039,49.04
		h155.905C246.769,268.725,268.725,246.769,268.725,219.685"/>
</g>
</svg>
