<?xml version="1.0" encoding="utf-8"?>
<!-- Generator: Adobe Illustrator 25.4.1, SVG Export Plug-In . SVG Version: 6.00 Build 0)  -->
<svg version="1.1" id="Layer_1" xmlns="http://www.w3.org/2000/svg" xmlns:xlink="http://www.w3.org/1999/xlink" x="0px" y="0px"
	 viewBox="0 0 283.465 283.465" enable-background="new 0 0 283.465 283.465" xml:space="preserve">
<g>
	<path fill="#25303B" d="M219.684,283.465H63.779C28.555,283.465,0,254.91,0,219.685V63.78C0,28.556,28.555,0.001,63.779,0.001
		h155.905c35.225,0,63.781,28.555,63.781,63.779v155.905C283.465,254.91,254.909,283.465,219.684,283.465 M265.039,219.685V63.78
		c0-25.048-20.306-45.354-45.355-45.354H63.779c-25.048,0-45.354,20.306-45.354,45.354v155.905
		c0,25.049,20.306,45.355,45.354,45.355h155.905C244.733,265.04,265.039,244.734,265.039,219.685 M183.87,204.6
		c0.622-0.424,1.223-0.858,1.666-1.293c5.097-4.122,9.857-10.449,13.313-20.242c4.827-13.737,8.238-26.025,9.183-41.121
		c1.306-18.605-6.354-47.538-11.433-61.04l-1.767-4.757c-1.092-3.031-5.257-9.47-12.655-17.179
		c-6.353-6.618-12.468-7.108-21.768-7.108h-37.757c-9.3,0-15.405,0.49-21.777,7.108c-7.397,7.687-11.563,14.148-12.646,17.179
		l-1.776,4.779c-5.079,13.48-12.734,42.413-11.441,61.04c0.94,15.063,4.36,27.318,9.209,41.099
		c3.447,9.814,8.194,16.12,13.295,20.242c0.483,0.423,1.057,0.847,1.693,1.271l-27.504,30.581c-2.237,2.496-2.237,6.528,0,9.002
		c2.233,2.472,5.849,2.472,8.069,0l9.499-10.539h104.528l9.478,10.539c2.215,2.472,5.845,2.472,8.068,0
		c2.237-2.474,2.237-6.506,0-9.002L183.87,204.6z M174.639,193.448c-5.216,0-9.456-4.223-9.456-9.447
		c0-5.203,4.24-9.425,9.456-9.425c5.231,0,9.454,4.222,9.454,9.425C184.093,189.225,179.87,193.448,174.639,193.448 M89.161,132.898
		c-5.771,0,3.294-50.657,7.432-50.657h88.847c4.492,0,15.028,50.657,7.969,50.657H89.161z M98.782,184.001
		c0-5.203,4.226-9.425,9.448-9.425c5.231,0,9.439,4.222,9.439,9.425c0,5.224-4.208,9.447-9.439,9.447
		C103.008,193.448,98.782,189.225,98.782,184.001 M100.697,220.899l10.127-11.253c4.935,1.137,9.483,1.137,12.798,1.137h35.817
		c3.307,0,7.854,0,12.789-1.137l10.132,11.253H100.697z"/>
</g>
</svg>
