<?xml version="1.0" encoding="utf-8"?>
<!-- Generator: Adobe Illustrator 25.4.1, SVG Export Plug-In . SVG Version: 6.00 Build 0)  -->
<svg version="1.1" id="Layer_1" xmlns="http://www.w3.org/2000/svg" xmlns:xlink="http://www.w3.org/1999/xlink" x="0px" y="0px"
	 viewBox="0 0 311.811 311.811" enable-background="new 0 0 311.811 311.811" xml:space="preserve">
<g>
	<path fill="#FFFFFF" d="M240.359,311.811H71.452C31.99,311.811,0,279.821,0,240.359V71.452C0,31.99,31.99-0.001,71.452-0.001
		h168.907c39.462,0,71.452,31.991,71.452,71.453v168.907C311.811,279.821,279.821,311.811,240.359,311.811"/>
	<path fill="#25303B" d="M233.858,297.218H77.953c-35.225,0-63.78-28.555-63.78-63.78V77.533c0-35.225,28.555-63.779,63.78-63.779
		h155.905c35.224,0,63.78,28.554,63.78,63.779v155.905C297.638,268.663,269.082,297.218,233.858,297.218 M279.212,233.438V77.533
		c0-25.049-20.305-45.355-45.354-45.355H77.953c-25.049,0-45.355,20.306-45.355,45.355v155.905
		c0,25.049,20.306,45.355,45.355,45.355h155.905C258.907,278.793,279.212,258.487,279.212,233.438 M198.042,218.353
		c0.623-0.424,1.224-0.858,1.667-1.293c5.097-4.122,9.857-10.449,13.313-20.242c4.827-13.737,8.238-26.025,9.182-41.121
		c1.306-18.605-6.353-47.537-11.432-61.04l-1.767-4.757c-1.092-3.03-5.258-9.47-12.655-17.18
		c-6.354-6.617-12.469-7.107-21.768-7.107h-37.757c-9.3,0-15.405,0.49-21.777,7.107c-7.397,7.688-11.563,14.15-12.646,17.18
		l-1.776,4.779c-5.079,13.481-12.734,42.413-11.441,61.04c0.94,15.063,4.36,27.318,9.209,41.099
		c3.447,9.814,8.194,16.12,13.295,20.242c0.483,0.424,1.057,0.847,1.693,1.271l-27.504,30.581c-2.237,2.496-2.237,6.528,0,9.002
		c2.233,2.472,5.849,2.472,8.069,0l9.499-10.539h104.528l9.478,10.539c2.215,2.472,5.844,2.472,8.068,0
		c2.237-2.474,2.237-6.506,0-9.002L198.042,218.353z M188.812,207.201c-5.217,0-9.456-4.223-9.456-9.447
		c0-5.203,4.239-9.425,9.456-9.425c5.231,0,9.453,4.222,9.453,9.425C198.265,202.978,194.043,207.201,188.812,207.201
		 M103.334,146.651c-5.771,0,3.294-50.657,7.432-50.657h88.847c4.492,0,15.028,50.657,7.969,50.657H103.334z M112.955,197.754
		c0-5.203,4.226-9.425,9.448-9.425c5.231,0,9.439,4.222,9.439,9.425c0,5.224-4.208,9.447-9.439,9.447
		C117.181,207.201,112.955,202.978,112.955,197.754 M114.87,234.652l10.127-11.253c4.935,1.137,9.483,1.137,12.798,1.137h35.817
		c3.306,0,7.854,0,12.79-1.137l10.131,11.253H114.87z"/>
</g>
</svg>
