<?xml version="1.0" encoding="utf-8"?>
<!-- Generator: Adobe Illustrator 25.4.1, SVG Export Plug-In . SVG Version: 6.00 Build 0)  -->
<svg version="1.1" id="Layer_1" xmlns="http://www.w3.org/2000/svg" xmlns:xlink="http://www.w3.org/1999/xlink" x="0px" y="0px"
	 viewBox="0 0 283.465 283.465" enable-background="new 0 0 283.465 283.465" xml:space="preserve">
<g>
	<path fill="#25303B" d="M274.251,18.426H9.213C4.124,18.426,0,14.302,0,9.213c0-5.088,4.124-9.212,9.212-9.212h265.039
		c5.088,0,9.213,4.124,9.213,9.212C283.464,14.302,279.339,18.426,274.251,18.426 M283.464,274.253L283.464,274.253
		c0-5.088-4.125-9.213-9.213-9.213H9.213c-5.088,0-9.212,4.125-9.212,9.213s4.124,9.213,9.212,9.213h265.039
		C279.339,283.466,283.464,279.341,283.464,274.253 M251.15,235.842c2.191,0,3.969-1.776,3.969-3.968v-3.969
		c0-2.191-1.778-3.968-3.969-3.968H28.347v11.905H251.15 M28.347,170.789h41.243c1.096,0,1.985-0.888,1.985-1.985v-54.85
		c0-1.095-0.889-1.984-1.985-1.984H28.347V99.214h64.373l25.237-20.741L86.213,52.396c-1.371-1.127-1.569-3.151-0.443-4.522
		l2.04-2.483c1.127-1.371,3.151-1.569,4.522-0.442l36.139,29.691c2.415,1.984,2.416,5.681,0.001,7.665l-20.574,16.909h98.025
		c7.776,0,15.183,3.286,20.43,9.024c15.446,16.89,25.269,37.771,28.406,60.389c0.997,7.196-0.097,14.304-3.167,20.561
		c-7.085,14.441-21.471,23.412-37.546,23.412h-185.7V170.789z M216.829,116.724c-2.797-3.049-6.768-4.754-10.905-4.754h-34.569
		c-1.096,0-1.984,0.889-1.984,1.984v54.85c0,1.097,0.888,1.985,1.984,1.985h59.113c6.94,0,11.071-5.464,9.302-12.173
		C235.669,143.055,227.859,128.746,216.829,116.724 M154.63,199.844c1.096,0,1.985-0.889,1.985-1.984v-83.906
		c0-1.095-0.889-1.984-1.985-1.984h-25.794c-1.096,0-1.985,0.889-1.985,1.984v83.906c0,1.095,0.889,1.984,1.985,1.984H154.63
		 M86.314,111.97c-1.096,0-1.984,0.889-1.984,1.984v83.906c0,1.095,0.888,1.984,1.984,1.984h25.796c1.096,0,1.984-0.889,1.984-1.984
		v-83.906c0-1.095-0.888-1.984-1.984-1.984H86.314"/>
</g>
</svg>
