<?xml version="1.0" encoding="utf-8"?>
<!-- Generator: Adobe Illustrator 25.4.1, SVG Export Plug-In . SVG Version: 6.00 Build 0)  -->
<svg version="1.1" id="Layer_1" xmlns="http://www.w3.org/2000/svg" xmlns:xlink="http://www.w3.org/1999/xlink" x="0px" y="0px"
	 viewBox="0 0 283.465 283.465" enable-background="new 0 0 283.465 283.465" xml:space="preserve">
<g>
	<path fill="#25303B" d="M244.136,161.219c0-14.528-8.154-23.03-18.427-28.7l-7.796-4.251c-4.603-2.483-8.501-6.381-8.501-11.341
		c0-5.67,4.604-9.564,11.336-9.564c4.608,0,8.855,1.769,12.047,3.188c4.965,2.478,8.153-0.71,9.568-6.023
		c1.773-6.028-0.71-8.148-4.961-10.273c-4.25-2.13-10.273-3.546-16.296-3.546c-16.659,0-30.478,10.984-30.478,28.7
		c0,13.82,7.086,21.616,18.432,27.992l8.143,4.607c4.961,2.835,8.153,6.733,8.153,12.046c0,6.733-6.38,9.922-12.756,9.922
		c-4.965,0-10.984-2.126-14.176-3.546c-5.314-2.478-8.149,0.71-9.921,6.381c-1.769,6.023,1.067,8.506,5.67,10.631
		c4.251,2.125,11.694,3.897,18.427,3.897C229.96,191.339,244.136,179.646,244.136,161.219 M182.127,157.674V98.858
		c0-4.961-4.961-7.439-9.568-7.439c-4.956,0-9.565,2.478-9.565,7.439v56.337c0,11.342-3.549,18.781-12.756,18.781
		c-8.858,0-13.113-7.086-13.113-18.781V98.858c0-4.961-5.313-7.439-9.921-7.439c-5.313,0-9.921,2.478-9.921,7.439v58.463
		c0,23.387,11.693,34.018,32.955,34.018C169.366,191.339,182.127,180.356,182.127,157.674 M108.067,161.929
		c0-16.301-11.332-22.324-17.359-23.387v-0.353c7.085-3.545,15.596-10.274,15.596-22.325c0-16.296-14.177-24.092-27.995-24.092
		H51.733c-4.96,0-7.795,3.898-7.795,8.148v82.914c0,4.96,4.96,7.443,9.568,7.443h25.155
		C93.896,190.277,108.067,182.124,108.067,161.929 M86.457,120.472c0,9.211-7.796,12.404-15.944,12.404H63.07v-24.807h7.443
		C79.014,108.069,86.457,110.904,86.457,120.472 M89.293,159.804c0,9.568-5.318,14.172-16.655,14.172h-8.506v-27.638h8.506
		C79.724,146.338,89.293,148.82,89.293,159.804 M274.252,18.426H9.212C4.125,18.426,0,14.301,0,9.214
		c0-5.088,4.125-9.213,9.212-9.213h265.04c5.088,0,9.212,4.125,9.212,9.213C283.464,14.301,279.34,18.426,274.252,18.426
		 M274.252,283.465H9.212c-5.087,0-9.212-4.124-9.212-9.212c0-5.088,4.125-9.213,9.212-9.213h265.04
		c5.088,0,9.212,4.125,9.212,9.213C283.464,279.341,279.34,283.465,274.252,283.465"/>
</g>
</svg>
