<?xml version="1.0" encoding="utf-8"?>
<!-- Generator: Adobe Illustrator 25.4.1, SVG Export Plug-In . SVG Version: 6.00 Build 0)  -->
<svg version="1.1" id="Layer_1" xmlns="http://www.w3.org/2000/svg" xmlns:xlink="http://www.w3.org/1999/xlink" x="0px" y="0px"
	 viewBox="0 0 283.465 283.465" enable-background="new 0 0 283.465 283.465" xml:space="preserve">
<g>
	<path fill="#25303B" d="M243.432,119.766c0-19.126-14.186-27.99-27.99-27.99h-26.579c-4.96,0-7.789,3.895-7.789,8.154v83.269
		c0,4.959,4.959,7.433,9.554,7.433c5.323,0,9.572-2.474,9.572-7.433v-32.24h8.153l15.933,35.779c1.42,2.84,3.904,3.894,6.743,3.894
		c5.66,0,13.823-5.313,10.628-11.683l-15.241-31.894C235.634,142.442,243.432,134.298,243.432,119.766 M171.501,181.424
		c0-4.259-2.839-8.853-7.798-8.853h-26.935v-24.45h22.321c4.96,0,7.799-4.259,7.799-8.154c0-4.249-2.839-8.153-7.799-8.153h-22.321
		v-22.321h24.815c4.959,0,7.789-4.959,7.789-8.853c0-4.259-2.83-8.864-7.789-8.864h-36.152c-4.959,0-7.789,3.895-7.789,8.154v82.913
		c0,4.96,4.959,7.435,9.563,7.435h36.498C168.662,190.278,171.501,185.319,171.501,181.424 M106.294,119.766
		c0-19.126-14.167-27.99-27.989-27.99h-26.57c-4.96,0-7.799,3.895-7.799,8.154v83.269c0,4.959,4.959,7.433,9.563,7.433
		c5.315,0,9.564-2.474,9.564-7.433v-32.24h8.153l15.952,35.779c1.419,2.84,3.904,3.894,6.733,3.894
		c5.669,0,13.813-5.313,10.628-11.683l-15.241-31.894C98.505,142.442,106.294,134.298,106.294,119.766 M223.577,121.895
		c0,12.048-10.974,14.878-17.708,14.878H200.2v-28.699h6.725C215.788,108.074,223.577,111.977,223.577,121.895 M86.458,121.895
		c0,12.048-10.983,14.878-17.717,14.878h-5.678v-28.699h6.743C78.66,108.074,86.458,111.977,86.458,121.895 M219.685,283.465H63.779
		C28.555,283.465,0,254.91,0,219.685V63.78C0,28.556,28.555,0,63.779,0h155.906c35.224,0,63.78,28.556,63.78,63.78v155.905
		C283.465,254.91,254.909,283.465,219.685,283.465 M265.039,219.685V63.78c0-25.049-20.306-45.354-45.354-45.354H63.779
		c-25.048,0-45.354,20.305-45.354,45.354v155.905c0,25.049,20.306,45.354,45.354,45.354h155.906
		C244.733,265.039,265.039,244.734,265.039,219.685"/>
</g>
</svg>
