<?xml version="1.0" encoding="utf-8"?>
<!-- Generator: Adobe Illustrator 25.4.1, SVG Export Plug-In . SVG Version: 6.00 Build 0)  -->
<svg version="1.1" id="Layer_1" xmlns="http://www.w3.org/2000/svg" xmlns:xlink="http://www.w3.org/1999/xlink" x="0px" y="0px"
	 viewBox="0 0 283.465 283.465" enable-background="new 0 0 283.465 283.465" xml:space="preserve">
<g>
	<g>
		<path fill="#64B5E5" d="M219.685,283.465H63.78C28.556,283.465,0,254.911,0,219.686V63.781C0,28.556,28.556,0,63.78,0h155.905
			c35.225,0,63.78,28.556,63.78,63.781v155.905C283.465,254.911,254.91,283.465,219.685,283.465 M265.04,219.686V63.781
			c0-25.05-20.307-45.355-45.355-45.355H63.78c-25.048,0-45.354,20.305-45.354,45.355v155.905c0,25.049,20.306,45.354,45.354,45.354
			h155.905C244.733,265.04,265.04,244.735,265.04,219.686"/>
	</g>
	<g>
		<path fill="#FFFFFF" d="M230.655,156.904h-14.617l-0.193-0.75c-4.518-17.507-13.404-33.858-25.698-47.287
			c-4.631-5.059-10.938-8.109-17.758-8.589c-10.154-0.716-20.478-1.079-30.685-1.079c-10.206,0-20.529,0.363-30.684,1.079
			c-6.82,0.48-13.126,3.53-17.757,8.589c-12.294,13.43-21.18,29.781-25.698,47.287l-0.193,0.75H52.809
			c-1.215,0-2.203,0.988-2.203,2.202v3.232c0,1.215,0.988,2.203,2.203,2.203h12.938l-0.222,1.333
			c-0.16,0.958-0.321,1.918-0.455,2.884c-0.223,1.607-0.339,3.244-0.346,4.865v43.698c0,4.658,3.79,8.447,8.449,8.447h9.449
			c4.659,0,8.449-3.789,8.449-8.447v-5.727h101.266v5.727c0,4.658,3.79,8.447,8.448,8.447h9.45c4.658,0,8.448-3.789,8.448-8.447
			v-43.729c-0.007-1.602-0.123-3.229-0.346-4.832c-0.129-0.935-0.284-1.862-0.438-2.79l-0.237-1.429h12.992
			c1.214,0,2.203-0.988,2.203-2.203v-3.232C232.857,157.892,231.869,156.904,230.655,156.904z M79.687,152.978
			c4.45-13.721,11.687-26.118,21.508-36.849c2.763-3.018,6.52-4.837,10.58-5.124c9.906-0.698,19.976-1.051,29.928-1.051
			c9.954,0,20.024,0.354,29.93,1.051c4.06,0.286,7.817,2.106,10.579,5.124c9.823,10.73,17.06,23.128,21.508,36.849
			c0.297,0.915,0.138,1.924-0.425,2.699c-0.566,0.779-1.444,1.227-2.409,1.227H82.522c-0.964,0-1.842-0.447-2.408-1.227
			C79.55,154.903,79.391,153.893,79.687,152.978z M107.243,186.376c0,2.896-2.356,5.251-5.252,5.251H82.147
			c-2.896,0-5.252-2.355-5.252-5.251v-4.253c0-2.896,2.356-5.252,5.252-5.252h19.843c2.896,0,5.252,2.356,5.252,5.252V186.376z
			 M206.513,186.376c0,2.896-2.356,5.251-5.252,5.251h-19.843c-2.896,0-5.252-2.355-5.252-5.251v-4.253
			c0-2.896,2.356-5.252,5.252-5.252h19.843c2.896,0,5.252,2.356,5.252,5.252V186.376z"/>
		<polygon fill="#FFFFFF" points="88.449,84.905 96.517,84.905 96.517,50.129 109.061,50.129 109.061,43.181 76.129,43.181 
			76.129,50.129 88.449,50.129 		"/>
		<path fill="#FFFFFF" d="M129.997,75.553l2.576,9.352h8.937l-12.617-41.723h-9.991l-13.115,41.723h7.928l2.744-9.352H129.997z
			 M123.43,51.934l4.633,16.727h-9.567L123.43,51.934z"/>
		<polygon fill="#FFFFFF" points="152.403,84.905 160.843,71.105 168.427,84.905 178.085,84.905 165.355,63.706 177.914,43.181 
			169.597,43.181 161.436,56.761 154.018,43.181 144.799,43.181 156.924,64.22 143.32,84.905 		"/>
		<rect x="185.272" y="43.125" fill="#FFFFFF" width="8.124" height="41.78"/>
	</g>
</g>
</svg>
