<svg xmlns="http://www.w3.org/2000/svg" viewBox="0 0 283.46 283.47"><defs><style>.cls-1{fill:#64b5e5;}.cls-2{fill:#25303b;}</style></defs><g id="Layer_2" data-name="Layer 2"><g id="Layer_1-2" data-name="Layer 1"><path class="cls-1" d="M219.68,283.47H63.78A63.79,63.79,0,0,1,0,219.69V63.78A63.79,63.79,0,0,1,63.78,0h155.9a63.78,63.78,0,0,1,63.78,63.78V219.69a63.78,63.78,0,0,1-63.78,63.78M265,219.69V63.78a45.35,45.35,0,0,0-45.36-45.35H63.78A45.35,45.35,0,0,0,18.43,63.78V219.69A45.35,45.35,0,0,0,63.78,265h155.9A45.35,45.35,0,0,0,265,219.69"/><path class="cls-2" d="M230.65,155.9H216.81a111.82,111.82,0,0,0-25.93-47.71,27.48,27.48,0,0,0-18.42-8.91c-10.18-.72-20.53-1.08-30.76-1.08s-20.57.36-30.75,1.08a27.48,27.48,0,0,0-18.42,8.91A111.82,111.82,0,0,0,66.6,155.9H52.81a3.21,3.21,0,0,0-3.2,3.21v3.23a3.2,3.2,0,0,0,3.2,3.2H64.57c-.17,1-.35,2.05-.49,3.08a37.84,37.84,0,0,0-.36,5v43.7a9.45,9.45,0,0,0,9.45,9.45h9.45a9.45,9.45,0,0,0,9.45-9.45V212.6h99.27v4.72a9.45,9.45,0,0,0,9.45,9.45h9.45a9.45,9.45,0,0,0,9.44-9.45V173.59a36.11,36.11,0,0,0-.35-5c-.14-1-.32-2.05-.49-3.08h11.81a3.21,3.21,0,0,0,3.21-3.2v-3.23a3.21,3.21,0,0,0-3.21-3.21M101.93,116.8a14.85,14.85,0,0,1,9.92-4.8c9.88-.69,19.92-1,29.85-1s20,.36,29.86,1a14.81,14.81,0,0,1,9.91,4.8,99.24,99.24,0,0,1,21.3,36.49,2,2,0,0,1-1.88,2.61H82.52a2,2,0,0,1-1.88-2.61,99.35,99.35,0,0,1,21.29-36.49m99.33,73.83H181.42a4.25,4.25,0,0,1-4.25-4.25v-4.26a4.25,4.25,0,0,1,4.25-4.25h19.84a4.25,4.25,0,0,1,4.25,4.25v4.26a4.25,4.25,0,0,1-4.25,4.25M82.15,177.87H102a4.25,4.25,0,0,1,4.25,4.25v4.26a4.25,4.25,0,0,1-4.25,4.25H82.15a4.25,4.25,0,0,1-4.25-4.25v-4.26a4.25,4.25,0,0,1,4.25-4.25"/><polygon class="cls-2" points="88.2 50.38 75.88 50.38 75.88 42.93 109.31 42.93 109.31 50.38 96.77 50.38 96.77 85.16 88.2 85.16 88.2 50.38"/><path class="cls-2" d="M118.72,42.93h10.36l12.77,42.22h-9.47l-2.57-9.35H116.65l-2.75,9.35h-8.45Zm9,25.48-4.31-15.57-4.59,15.57Z"/><polygon class="cls-2" points="156.63 64.21 144.37 42.93 154.17 42.93 161.45 56.26 169.46 42.93 178.36 42.93 165.65 63.71 178.53 85.16 168.28 85.16 160.83 71.6 152.54 85.16 142.86 85.16 156.63 64.21"/><rect class="cls-2" x="185.02" y="42.88" width="8.62" height="42.28"/></g></g></svg>