<?xml version="1.0" encoding="utf-8"?>
<!-- Generator: Adobe Illustrator 25.4.1, SVG Export Plug-In . SVG Version: 6.00 Build 0)  -->
<svg version="1.1" id="Layer_1" xmlns="http://www.w3.org/2000/svg" xmlns:xlink="http://www.w3.org/1999/xlink" x="0px" y="0px"
	 viewBox="0 0 283.465 283.465" enable-background="new 0 0 283.465 283.465" xml:space="preserve">
<g>
	<g>
		<path fill="#FFFFFF" d="M98.466,91.773H43.186c-4.097,0-5.939,4.102-5.939,7.014c0,2.885,2.027,6.92,5.834,6.995h20.031v79.193
			c0,4.097,4.613,5.584,7.713,5.584c1.81,0,7.713-0.403,7.713-5.584v-79.193h20.067c3.77-0.075,5.797-4.11,5.797-6.995
			C104.404,95.874,102.562,91.773,98.466,91.773z"/>
	</g>
	<g id="XMLID_70_">
		<g id="XMLID_71_">
			<path id="XMLID_73_" fill="#FFFFFF" d="M212.716,91.787c12.979,0,26.077,8.36,26.077,27.038c0,12.107-5.366,21.027-15.948,26.511
				c-0.58,0.265-1.157,0.503-1.732,0.731l17.031,35.647c0.75,1.501,0.684,2.928-0.203,4.363c-1.556,2.516-5.465,4.562-8.716,4.562
				c-2.456,0-4.052-0.902-5.021-2.841l-17.049-38.127h-12.046v35.212c0,2.871-4.102,5.675-7.654,5.675
				c-4.099,0-7.655-2.804-7.655-5.675V99.923c0-4.252,2.268-8.152,8.849-8.15L212.716,91.787z M203.147,136.917
				c9.056,0,19.63-4.399,19.63-16.795c0-9.704-7.114-15.733-18.566-15.733h-9.103v32.528H203.147z"/>
			<path id="XMLID_72_" fill="#FFFFFF" d="M161.264,190.276c3.786,0,5.881-4.188,5.881-7.084c0-2.942-1.825-7.087-5.881-7.088
				h-29.33v-29.623h24.724c4.057,0,5.882-3.813,5.882-6.52c0-3.14-1.841-6.519-5.882-6.519h-24.724v-27.496h27.203
				c3.838,0,5.883-4.115,5.883-7.086c0-2.943-1.825-7.087-5.883-7.087h-33.632c-6.58-0.001-8.849,3.898-8.849,8.15v82.913
				c0,5.455,4.577,7.436,7.653,7.436L161.264,190.276z"/>
		</g>
	</g>
	<g id="XMLID_58_">
		<g id="XMLID_61_">
			<path id="XMLID_62_" fill="#64B5E5" d="M219.685,283.465H63.78C28.555,283.465,0,254.91,0,219.685V63.78
				C0,28.555,28.555,0,63.78,0h155.906c35.224,0,63.78,28.555,63.78,63.78v155.906C283.465,254.91,254.91,283.465,219.685,283.465z
				 M268.724,219.685V63.78c0-27.084-21.956-49.039-49.039-49.039H63.78c-27.084,0-49.039,21.956-49.039,49.039v155.906
				c0,27.084,21.956,49.039,49.039,49.039h155.906C246.769,268.724,268.724,246.769,268.724,219.685z"/>
		</g>
	</g>
</g>
</svg>
