<?xml version="1.0" encoding="utf-8"?>
<!-- Generator: Adobe Illustrator 25.4.1, SVG Export Plug-In . SVG Version: 6.00 Build 0)  -->
<svg version="1.1" id="Layer_1" xmlns="http://www.w3.org/2000/svg" xmlns:xlink="http://www.w3.org/1999/xlink" x="0px" y="0px"
	 viewBox="0 0 283.465 283.465" enable-background="new 0 0 283.465 283.465" xml:space="preserve">
<g>
	<g>
		<g id="XMLID_53_">
			<g id="XMLID_54_">
				<path id="XMLID_55_" fill="#64B5E5" d="M219.685,283.465H63.78C28.555,283.465,0,254.91,0,219.685V63.78
					C0,28.555,28.555,0,63.78,0h155.906c35.224,0,63.78,28.555,63.78,63.78v155.906C283.465,254.91,254.91,283.465,219.685,283.465z
					 M268.724,219.685V63.78c0-27.084-21.956-49.039-49.039-49.039H63.78c-27.084,0-49.039,21.956-49.039,49.039v155.906
					c0,27.084,21.956,49.039,49.039,49.039h155.906C246.769,268.724,268.724,246.769,268.724,219.685z"/>
			</g>
		</g>
	</g>
</g>
<g>
	<g>
		<g>
			<path fill="#FFFFFF" d="M235.479,91.866c-2.465,0.371-3.928,1.515-4.604,3.598l-5.655,20.86l-14.149,50.944l-14.145-50.933
				l-5.636-20.961c-0.65-1.994-2.113-3.138-4.578-3.509c-3.234-0.484-7.435,0.968-9.359,3.241c-1.101,1.302-1.381,2.717-0.854,4.328
				l24.66,80.765c0.013,0.042,1.85,5.821,2.58,7.645c0.716,1.786,3.515,2.715,5.93,2.715c0.017,0,0.032,0,0.049,0
				c0.049-0.001,0.685-0.001,1.33-0.001c0.662,0,1.333,0,1.388,0.001c0.016,0,0.032,0,0.049,0c2.406,0,5.206-0.929,5.923-2.716
				c0.729-1.823,2.564-7.602,2.583-7.659l24.694-80.719c0.536-1.642,0.257-3.058-0.844-4.358
				C242.914,92.833,238.711,91.382,235.479,91.866z"/>
		</g>
	</g>
	<g>
		<path fill="#FFFFFF" d="M96.465,91.773H41.185c-4.097,0-5.939,4.102-5.939,7.014c0,2.885,2.027,6.92,5.834,6.995h20.031v79.194
			c0,4.097,4.613,5.584,7.713,5.584c1.81,0,7.713-0.403,7.713-5.584v-79.194h20.067c3.77-0.075,5.797-4.11,5.797-6.995
			C102.403,95.874,100.561,91.773,96.465,91.773z"/>
	</g>
	<g>
		<path fill="#FFFFFF" d="M170.482,138.255c-7.024-0.126-14.58-0.202-22.211,0.096c-1.09,0.042-2.676,0.801-3.69,1.764
			c-1.726,1.639-1.984,3.981-0.768,6.961c0.738,1.809,2.39,2.773,4.908,2.867c1.625,0.06,6.043,0.11,7.866,0.13l2.785,0.026
			l0.045,2.638h-0.001c0.003,0.194-0.008,0.74-0.074,2.872l-0.009,0.131c-0.282,2.908-0.575,7.916-1.6,10.806
			c-1.771,4.996-5.695,8.251-11.997,9.95c-6.139,1.655-12.65,0.738-17.412-2.455c-4.279-2.87-6.909-7.299-7.605-12.809
			c-0.37-2.93-1.108-16.096-0.927-19.949l-0.012-0.47c0-0.959-0.005-1.917-0.011-2.877l-0.001-0.224
			c-0.014-2.304-0.028-4.684,0.028-7.044c0.101-4.244,0.554-11.77,3.181-16.865c2.044-3.965,5.777-6.925,10.51-8.335
			c5.444-1.623,11.682-1.011,16.282,1.596c2.69,1.524,4.771,3.775,6.782,5.951c0.52,0.562,0.991,1.071,1.468,1.565
			c2.59,2.684,6.688,3.146,9.749,1.093c2.809-1.883,3.681-5.582,2.073-8.795c-3.572-7.14-9.865-11.711-19.236-13.977
			c-3.654-0.883-7.318-1.331-10.892-1.331c-4.752,0-9.458,0.79-13.986,2.347c-5.088,1.75-9.103,4.285-12.271,7.752
			c-5.082,5.559-7.963,12.642-8.563,21.052c-0.563,7.907-0.644,17.759-0.647,25.066c-0.003,8.453,1.049,17.11,3.313,22.945
			c3.698,9.533,10.767,15.678,21.012,18.265c10.031,2.534,19.467,1.773,28.05-2.26c4.944-2.325,8.957-5.759,11.927-10.206
			c6.09-9.125,6.443-21.522,6.271-33.183C174.775,140.208,173.153,138.304,170.482,138.255z"/>
	</g>
</g>
</svg>
