<?xml version="1.0" encoding="utf-8"?>
<!-- Generator: Adobe Illustrator 25.4.1, SVG Export Plug-In . SVG Version: 6.00 Build 0)  -->
<svg version="1.1" id="Layer_1" xmlns="http://www.w3.org/2000/svg" xmlns:xlink="http://www.w3.org/1999/xlink" x="0px" y="0px"
	 viewBox="0 0 283.465 283.465" enable-background="new 0 0 283.465 283.465" xml:space="preserve">
<g>
	<defs>
		<rect id="SVGID_1_" width="283.465" height="283.465"/>
	</defs>
	<clipPath id="SVGID_00000093862945645357540140000008226166345189389480_">
		<use xlink:href="#SVGID_1_"  overflow="visible"/>
	</clipPath>
	<path clip-path="url(#SVGID_00000093862945645357540140000008226166345189389480_)" fill="#64B5E5" d="M219.685,283.465H63.779
		C28.555,283.465,0,254.91,0,219.685V63.78C0,28.555,28.555,0,63.779,0h155.906c35.224,0,63.779,28.555,63.779,63.78v155.905
		C283.464,254.91,254.909,283.465,219.685,283.465 M265.039,219.685V63.78c0-25.049-20.306-45.355-45.354-45.355H63.779
		c-25.048,0-45.354,20.306-45.354,45.355v155.905c0,25.049,20.306,45.354,45.354,45.354h155.906
		C244.733,265.039,265.039,244.734,265.039,219.685"/>
	<path clip-path="url(#SVGID_00000093862945645357540140000008226166345189389480_)" fill="#25303B" d="M207.278,178.665
		l-9.202-49.664l-6.234-33.645l-3.116-16.822l-0.394-2.128l5.107-0.946c0.946,0.556,2.045,0.88,3.221,0.88
		c3.523,0,6.378-2.856,6.378-6.378c0-3.523-2.855-6.378-6.378-6.378c-2.016,0-3.812,0.938-4.98,2.4l-3.253,0.603l-2.354,0.436
		c-1.372,0.288-2.899,0.414-4.031,1.007c-1.09,0.527-2.056,1.359-2.757,2.465c-0.346,0.541-0.607,1.134-0.78,1.719
		c-0.173,0.579-0.253,1.167-0.278,1.825c-0.009,0.664,0.112,1.369,0.248,2.069l0.385,2.078l0.389,2.104l3.117,16.822l6.234,33.645
		l5.478,29.569l-14.268,14.269l-7.246,7.246l-3.623,3.623c-1.15,1.125-2.655,2.722-3.063,2.976c-0.682,0.514-1.48,0.87-2.314,1.052
		c-0.425,0.09-0.825,0.138-1.289,0.136h-2.562h-10.248h-11.208h-21.741c-0.108-0.001-0.197-0.003-0.232-0.008
		c-0.427-0.001-0.843-0.073-1.254-0.159c-0.808-0.213-1.598-0.566-2.264-1.118c-0.681-0.53-1.241-1.223-1.649-2.005
		c-0.107-0.193-0.185-0.401-0.277-0.603c-0.082-0.261-0.108-0.27-0.308-0.891c-0.32-0.984-0.691-1.951-1.103-2.9
		c-1.646-3.797-3.985-7.282-6.86-10.244c-5.734-5.936-13.705-9.726-21.964-10.308c-8.216-0.69-16.704,1.8-23.286,6.792h-0.001
		c-1.057,0.805-1.686,1.935-1.814,3.028c-0.124,1.108,0.225,2.15,1.002,2.922l2.806,2.806c0.777,0.772,1.769,1.201,2.684,1.318
		c0.93,0.121,1.805-0.043,2.49-0.569c4.319-3.255,9.789-4.879,15.208-4.426c5.394,0.377,10.562,2.841,14.33,6.728
		c1.883,1.939,3.412,4.219,4.483,6.691c0.268,0.617,0.511,1.246,0.718,1.887c0.044,0.141,0.204,0.606,0.366,1.059h-5.723
		c-2.415-6.453-8.62-11.055-15.916-11.055c-9.393,0-17.007,7.615-17.007,17.008c0,9.393,7.614,17.008,17.007,17.008
		c7.296,0,13.5-4.602,15.916-11.055h44.389h11.208h10.248h2.562c1.244,0.004,2.552-0.133,3.796-0.403
		c2.504-0.541,4.891-1.621,6.941-3.16c1.004-0.728,2.072-1.803,2.537-2.277l1.811-1.811l3.623-3.624l7.246-7.246l8.481-8.482
		l1.094,5.903c-5.516,2.812-9.301,8.531-9.301,15.147c0,9.393,7.615,17.008,17.008,17.008c9.393,0,17.008-7.615,17.008-17.008
		C222.519,186.785,215.841,179.549,207.278,178.665"/>
</g>
</svg>
