<?xml version="1.0" encoding="utf-8"?>
<!-- Generator: Adobe Illustrator 25.4.1, SVG Export Plug-In . SVG Version: 6.00 Build 0)  -->
<svg version="1.1" id="Layer_1" xmlns="http://www.w3.org/2000/svg" xmlns:xlink="http://www.w3.org/1999/xlink" x="0px" y="0px"
	 viewBox="0 0 283.465 283.465" enable-background="new 0 0 283.465 283.465" xml:space="preserve">
<g>
	<path fill="#64B5E5" d="M219.685,283.465H63.779C28.555,283.465,0,254.91,0,219.685V63.78C0,28.555,28.555,0,63.779,0h155.906
		c35.224,0,63.779,28.555,63.779,63.78v155.905C283.464,254.91,254.909,283.465,219.685,283.465 M265.039,219.685V63.78
		c0-25.049-20.306-45.355-45.354-45.355H63.779c-25.048,0-45.354,20.306-45.354,45.355v155.905
		c0,25.049,20.306,45.354,45.354,45.354h155.906C244.733,265.039,265.039,244.734,265.039,219.685"/>
	<g>
		<path fill="#FFFFFF" d="M207.176,179.66l-0.744-0.077L187.166,75.605l6.458-1.196l0.322,0.189
			c0.826,0.486,1.765,0.743,2.714,0.743c2.966,0,5.378-2.413,5.378-5.378c0-2.965-2.412-5.378-5.378-5.378
			c-1.641,0-3.171,0.738-4.198,2.024l-0.232,0.292l-5.975,1.107c-0.345,0.073-0.725,0.139-1.105,0.205
			c-1,0.174-1.944,0.339-2.644,0.705c-0.987,0.478-1.799,1.204-2.376,2.115c-0.282,0.442-0.512,0.948-0.665,1.467
			c-0.14,0.466-0.215,0.967-0.238,1.579c-0.007,0.564,0.115,1.247,0.23,1.841l15.7,84.743l-25.509,25.511
			c-0.379,0.371-0.788,0.784-1.184,1.184c-1.196,1.209-1.718,1.722-2.059,1.935c-0.708,0.539-1.643,0.964-2.629,1.18
			c-0.52,0.11-1.015,0.164-1.506,0.159h-45.755c-0.103-0.001-0.193-0.004-0.261-0.008c-0.524-0.005-1.016-0.094-1.43-0.181
			c-1.081-0.283-1.972-0.726-2.697-1.326c-0.753-0.586-1.417-1.393-1.898-2.312c-0.077-0.139-0.15-0.306-0.222-0.474l-0.122-0.293
			c-0.027-0.085-0.046-0.137-0.071-0.202c-0.047-0.126-0.108-0.289-0.235-0.682c-0.298-0.916-0.658-1.862-1.069-2.809
			c-1.603-3.697-3.843-7.043-6.66-9.946c-5.603-5.8-13.372-9.446-21.316-10.007c-7.968-0.665-16.206,1.733-22.611,6.592
			c-0.791,0.602-1.325,1.479-1.426,2.348c-0.09,0.803,0.164,1.549,0.714,2.097l2.808,2.808c0.56,0.557,1.328,0.934,2.104,1.033
			c0.498,0.066,1.203,0.053,1.753-0.37c4.525-3.411,10.314-5.103,15.901-4.629c5.552,0.388,11.011,2.949,14.964,7.027
			c1.982,2.042,3.558,4.394,4.683,6.99c0.298,0.686,0.544,1.333,0.752,1.977c0.046,0.147,0.2,0.595,0.355,1.03l0.479,1.337h-7.836
			l-0.243-0.649c-2.329-6.225-8.349-10.406-14.979-10.406c-8.826,0-16.007,7.182-16.007,16.009s7.181,16.008,16.007,16.008
			c6.63,0,12.649-4.182,14.979-10.406l0.243-0.649h69.101c1.139,0.019,2.416-0.126,3.584-0.38c2.369-0.512,4.635-1.543,6.553-2.982
			c0.995-0.722,2.07-1.817,2.424-2.178l22.511-22.514l1.577,8.506l-0.665,0.339c-5.4,2.754-8.756,8.217-8.756,14.257
			c0,8.827,7.182,16.008,16.009,16.008s16.008-7.181,16.008-16.008C221.52,187.349,215.353,180.504,207.176,179.66z"/>
	</g>
</g>
</svg>
