<?xml version="1.0" encoding="utf-8"?>
<!-- Generator: Adobe Illustrator 25.4.1, SVG Export Plug-In . SVG Version: 6.00 Build 0)  -->
<svg version="1.1" id="Layer_1" xmlns="http://www.w3.org/2000/svg" xmlns:xlink="http://www.w3.org/1999/xlink" x="0px" y="0px"
	 viewBox="0 0 283.465 283.465" enable-background="new 0 0 283.465 283.465" xml:space="preserve">
<g>
	<path fill="#64B5E5" d="M219.685,283.465H63.779C28.555,283.465,0,254.91,0,219.685V63.78C0,28.555,28.555,0,63.779,0h155.906
		c35.224,0,63.779,28.555,63.779,63.78v155.905C283.464,254.91,254.909,283.465,219.685,283.465 M265.039,219.685V63.78
		c0-25.049-20.306-45.355-45.354-45.355H63.779c-25.048,0-45.354,20.306-45.354,45.355v155.905
		c0,25.049,20.306,45.354,45.354,45.354h155.906C244.733,265.039,265.039,244.734,265.039,219.685"/>
	<g>
		<path fill="none" d="M104.612,150.303l0.589,0.613c5.074,5.278,8.375,11.858,9.545,19.028l0.137,0.839h19.826l-14.649-41.101
			L104.612,150.303z"/>
		<path fill="none" d="M78.636,180.628l-0.118-0.018c-0.228-0.039-0.45-0.091-0.643-0.152l-0.103-0.038
			c-0.212-0.071-0.417-0.157-0.597-0.248l-0.108-0.053c-0.213-0.112-0.416-0.242-0.664-0.417l-0.086-0.072
			c-0.069-0.053-0.135-0.108-0.209-0.174c-0.059-0.052-0.117-0.104-0.166-0.149c-0.057-0.056-0.111-0.111-0.167-0.171
			c-0.061-0.064-0.12-0.128-0.178-0.195l-0.13-0.163c-0.055-0.07-0.11-0.142-0.163-0.217c-0.039-0.056-0.074-0.112-0.119-0.186
			c-0.045-0.07-0.09-0.141-0.133-0.218c-0.038-0.066-0.071-0.134-0.108-0.21c-0.036-0.071-0.072-0.142-0.101-0.205
			c-0.034-0.077-0.064-0.158-0.098-0.247c-0.025-0.065-0.05-0.129-0.074-0.203c-0.027-0.082-0.051-0.165-0.075-0.256l-0.053-0.206
			c-0.02-0.084-0.034-0.17-0.049-0.251l-0.058-0.47c-0.007-0.092-0.012-0.184-0.019-0.368l0.005-0.107
			c0.002-0.099,0.008-0.196,0.015-0.289l0.02-0.211c0.011-0.092,0.025-0.182,0.041-0.271l0.042-0.214
			c0.02-0.087,0.042-0.17,0.063-0.249l0.149-0.449c0.031-0.08,0.063-0.159,0.096-0.232l0.097-0.202
			c0.042-0.081,0.084-0.163,0.127-0.238l0.116-0.189c0.049-0.078,0.1-0.154,0.154-0.229l16.724-22.334l-1.137-0.513
			c-3.661-1.651-7.551-2.488-11.562-2.488c-15.556,0-28.212,12.656-28.212,28.212s12.656,28.212,28.212,28.212
			c13.086,0,24.662-9.27,27.524-22.04l0.273-1.219H79.361C79.129,180.689,78.901,180.666,78.636,180.628z"/>
		<path fill="none" d="M204.095,147.525c-2.541,0-5.079,0.348-7.544,1.032l-1.203,0.335l14.05,26.258
			c0.772,1.443,0.227,3.246-1.217,4.019l-3.499,1.871c-0.699,0.375-1.503,0.453-2.261,0.225c-0.759-0.23-1.383-0.742-1.757-1.441
			l-14.045-26.246l-0.946,0.817c-6.223,5.379-9.791,13.158-9.791,21.343c0,15.556,12.656,28.212,28.213,28.212
			c15.556,0,28.212-12.656,28.212-28.212S219.65,147.525,204.095,147.525z"/>
		<polygon fill="#FFFFFF" points="142.695,181.606 142.695,181.605 142.695,181.605 		"/>
		<polygon fill="#FFFFFF" points="143.884,181.283 143.884,181.283 143.884,181.283 		"/>
		<polygon fill="#FFFFFF" points="146.34,179.506 146.339,179.505 146.339,179.505 		"/>
		<path fill="#FFFFFF" d="M204.095,139.885c-3.939,0-7.836,0.65-11.582,1.931l-0.804,0.275l-18.883-35.289l0.558-0.525
			c4.524-4.258,8.209-9.429,10.658-14.952c0.307-0.764,0.306-1.617-0.017-2.308c-0.256-0.547-0.697-0.947-1.242-1.125l-3.34-1.146
			c-1.298-0.422-2.749,0.086-3.153,1.121c-2.901,6.528-7.765,12.276-13.713,16.225c-5.876,3.916-12.885,6.047-20.268,6.163
			c-0.021-0.001-0.042-0.001-0.063-0.001c-1.142,0-2.151,1.115-2.271,2.471l-0.258,3.492c-0.066,0.749,0.258,1.281,0.541,1.599
			c0.504,0.566,1.286,0.904,2.142,0.927c7.525-0.097,14.966-2.013,21.477-5.542l0.884-0.479l4.873,9.108l-26.67,42.606
			l-16.199-45.452c-0.982-2.757-3.609-4.61-6.535-4.61h-17.047c-1.637,0-2.969,1.332-2.969,2.969v3.968
			c0,1.637,1.332,2.969,2.969,2.969h8.547L96.69,144.354l-0.754-0.395c-5.164-2.703-10.737-4.074-16.567-4.074
			c-19.768,0-35.85,16.083-35.85,35.851s16.083,35.851,35.85,35.851c17.656,0,32.534-12.642,35.376-30.059l0.137-0.839h26.898
			c0.192-0.004,0.363-0.018,0.534-0.037l0.123-0.02l0.258,0.972h0l-0.138-0.99c0.146-0.024,0.238-0.044,0.329-0.066l0.139-0.035
			c0.103-0.028,0.217-0.062,0.328-0.101l0.152-0.041l0.075,0.363l0.303,0.549c0,0,0,0,0,0l-0.335-0.942
			c0.087-0.034,0.156-0.064,0.225-0.096l0.168-0.08c0.095-0.049,0.177-0.092,0.258-0.139c0.071-0.041,0.141-0.083,0.209-0.127
			l0.697-0.537l0.206-0.209c0.057-0.06,0.118-0.126,0.177-0.194l0.851,0.546c0,0,0,0,0,0l-0.77-0.639l0.215-0.288
			c0.031-0.045,0.069-0.101,0.105-0.159l0.075-0.105l29.053-46.419l7.964,14.882l-0.673,0.517
			c-8.938,6.863-14.065,17.23-14.065,28.443c0,19.769,16.083,35.851,35.852,35.851c19.768,0,35.85-16.082,35.85-35.851
			S223.862,139.885,204.095,139.885z M106.894,181.908c-2.862,12.771-14.438,22.04-27.524,22.04
			c-15.556,0-28.212-12.656-28.212-28.212s12.656-28.212,28.212-28.212c4.011,0,7.901,0.837,11.562,2.488l1.137,0.513L75.345,172.86
			c-0.054,0.075-0.105,0.151-0.154,0.229l-0.116,0.189c-0.043,0.075-0.086,0.157-0.127,0.238l-0.097,0.202
			c-0.033,0.073-0.065,0.152-0.096,0.232l-0.149,0.449c-0.021,0.079-0.044,0.162-0.063,0.249l-0.042,0.214
			c-0.016,0.089-0.03,0.179-0.041,0.271l-0.02,0.211c-0.007,0.093-0.013,0.19-0.015,0.289l-0.005,0.107
			c0.007,0.185,0.012,0.276,0.019,0.368l0.058,0.47c0.015,0.081,0.029,0.167,0.049,0.251l0.053,0.206
			c0.024,0.091,0.048,0.174,0.075,0.256c0.024,0.074,0.049,0.138,0.074,0.203c0.033,0.089,0.064,0.17,0.098,0.247
			c0.029,0.063,0.064,0.134,0.101,0.205c0.038,0.076,0.071,0.144,0.108,0.21c0.043,0.077,0.088,0.147,0.133,0.218
			c0.045,0.073,0.081,0.13,0.119,0.186c0.053,0.075,0.108,0.146,0.163,0.217l0.13,0.163c0.058,0.067,0.117,0.131,0.178,0.195
			c0.057,0.06,0.11,0.115,0.167,0.171c0.048,0.045,0.106,0.098,0.166,0.149c0.074,0.065,0.141,0.121,0.209,0.174l0.086,0.072
			c0.249,0.175,0.451,0.305,0.664,0.417l0.108,0.053c0.18,0.091,0.385,0.177,0.597,0.248l0.103,0.038
			c0.193,0.062,0.416,0.113,0.643,0.152l0.118,0.018c0.265,0.038,0.493,0.061,0.725,0.062h27.807L106.894,181.908z M89.269,170.783
			l10.722-14.312l0.812,0.948c2.987,3.49,5.094,7.689,6.092,12.145l0.273,1.219H89.269z M114.882,170.783l-0.137-0.839
			c-1.17-7.17-4.471-13.75-9.545-19.028l-0.589-0.613l15.448-20.621l14.649,41.101H114.882z M204.095,203.948
			c-15.557,0-28.213-12.656-28.213-28.212c0-8.185,3.568-15.964,9.791-21.343l0.946-0.817l14.045,26.246
			c0.374,0.699,0.998,1.211,1.757,1.441c0.758,0.229,1.562,0.15,2.261-0.225l3.499-1.871c1.443-0.772,1.989-2.575,1.217-4.019
			l-14.05-26.258l1.203-0.335c2.465-0.685,5.003-1.032,7.544-1.032c15.556,0,28.212,12.656,28.212,28.212
			S219.65,203.948,204.095,203.948z"/>
	</g>
</g>
</svg>
