<?xml version="1.0" encoding="utf-8"?>
<!-- Generator: Adobe Illustrator 25.4.1, SVG Export Plug-In . SVG Version: 6.00 Build 0)  -->
<svg version="1.1" id="Layer_1" xmlns="http://www.w3.org/2000/svg" xmlns:xlink="http://www.w3.org/1999/xlink" x="0px" y="0px"
	 viewBox="0 0 283.465 283.465" enable-background="new 0 0 283.465 283.465" xml:space="preserve">
<g>
	<path fill="#64B5E5" d="M219.685,283.465H63.779C28.555,283.465,0,254.91,0,219.685V63.78C0,28.555,28.555,0,63.779,0h155.906
		c35.224,0,63.779,28.555,63.779,63.78v155.905C283.464,254.91,254.909,283.465,219.685,283.465 M265.039,219.685V63.78
		c0-25.049-20.306-45.355-45.354-45.355H63.779c-25.048,0-45.354,20.306-45.354,45.355v155.905
		c0,25.049,20.306,45.354,45.354,45.354h155.906C244.733,265.039,265.039,244.734,265.039,219.685"/>
	<path fill="#25303B" d="M204.094,138.885c-4.166,0-8.167,0.706-11.905,1.985l-18.12-33.865c4.582-4.313,8.33-9.508,10.887-15.275
		c0.82-2.039-0.036-4.193-1.864-4.789l-3.325-1.141c-1.832-0.598-3.808,0.164-4.409,1.703c-2.832,6.37-7.524,11.898-13.334,15.756
		c-5.817,3.876-12.751,5.886-19.73,5.996c-1.661-0.062-3.146,1.464-3.316,3.381l-0.259,3.506c-0.17,1.918,1.465,3.541,3.654,3.6
		c7.621-0.098,15.26-2.021,21.979-5.662l4.125,7.71l-25.266,40.365l-15.506-43.507c-1.124-3.154-4.129-5.274-7.477-5.274h-8.669
		c-0.002,0-0.003,0-0.005,0h-8.373c-2.192,0-3.969,1.777-3.969,3.969v3.968c0,2.192,1.777,3.969,3.969,3.969h6.549L96.4,143.074
		c-5.098-2.669-10.889-4.188-17.031-4.188c-20.319,0-36.85,16.532-36.85,36.851s16.531,36.851,36.85,36.851
		c18.293,0,33.508-13.4,36.363-30.898h25.987c0.004,0,0.008,0.001,0.013,0.001c0.009,0,0.019-0.002,0.028-0.002
		c0.225-0.001,0.445-0.017,0.664-0.042c0.05-0.006,0.099-0.016,0.149-0.023c0.021-0.003,0.043-0.007,0.064-0.01
		c0.052-0.008,0.102-0.014,0.153-0.023c0.111-0.02,0.219-0.043,0.327-0.069c0.054-0.013,0.106-0.027,0.159-0.041
		c0.136-0.037,0.27-0.077,0.401-0.122c0.018-0.007,0.036-0.008,0.053-0.014c0.034-0.012,0.065-0.028,0.098-0.041
		c0.037-0.014,0.074-0.026,0.111-0.041c0.087-0.035,0.172-0.072,0.256-0.111c0.073-0.033,0.144-0.068,0.215-0.103
		c0.098-0.05,0.194-0.101,0.289-0.156c0.083-0.048,0.164-0.097,0.244-0.148c0.066-0.043,0.132-0.086,0.197-0.131
		c0.035-0.024,0.069-0.047,0.103-0.072c0.064-0.047,0.124-0.095,0.185-0.144c0.063-0.05,0.124-0.101,0.186-0.154
		c0.054-0.047,0.111-0.091,0.164-0.141c0.021-0.019,0.039-0.04,0.06-0.059c0.008-0.009,0.017-0.018,0.026-0.027
		c0.057-0.055,0.112-0.112,0.167-0.169c0.075-0.079,0.149-0.159,0.22-0.242c0.011-0.013,0.024-0.026,0.035-0.039
		c0.012-0.014,0.024-0.026,0.036-0.039c0.033-0.04,0.061-0.083,0.093-0.124c0.061-0.079,0.121-0.158,0.179-0.239
		c0.049-0.07,0.097-0.141,0.143-0.214c0.013-0.019,0.028-0.036,0.041-0.056l28.172-45.007l6.749,12.613
		c-8.78,6.741-14.456,17.336-14.456,29.236c0,20.319,16.532,36.851,36.851,36.851s36.85-16.532,36.85-36.851
		S224.413,138.885,204.094,138.885 M133.29,169.783h-17.558c-1.228-7.527-4.745-14.291-9.811-19.561l13.822-18.45L133.29,169.783z
		 M100.042,158.07c2.837,3.314,4.89,7.313,5.876,11.713H91.267L100.042,158.07z M79.369,202.948
		c-15.004,0-27.212-12.207-27.212-27.212c0-15.005,12.208-27.212,27.212-27.212c3.973,0,7.745,0.863,11.151,2.399l-15.915,21.244
		c-0.026,0.035-0.048,0.073-0.073,0.109c-0.066,0.092-0.129,0.186-0.189,0.281c-0.046,0.073-0.091,0.146-0.134,0.22
		c-0.053,0.093-0.104,0.189-0.153,0.285c-0.041,0.081-0.08,0.162-0.117,0.244c-0.041,0.092-0.079,0.185-0.116,0.28
		c-0.035,0.09-0.068,0.18-0.099,0.271c-0.029,0.09-0.056,0.18-0.082,0.272c-0.027,0.099-0.053,0.197-0.076,0.297
		c-0.019,0.087-0.036,0.174-0.052,0.262c-0.019,0.108-0.036,0.216-0.049,0.325c-0.01,0.082-0.017,0.166-0.024,0.25
		c-0.009,0.115-0.015,0.229-0.018,0.345c0,0.043-0.006,0.085-0.006,0.128c0,0.042,0.005,0.082,0.006,0.124
		c0.003,0.11,0.008,0.22,0.017,0.329c0.007,0.093,0.015,0.185,0.026,0.277c0.012,0.094,0.027,0.188,0.043,0.282
		c0.018,0.102,0.036,0.204,0.059,0.304c0.019,0.084,0.041,0.167,0.064,0.25c0.028,0.104,0.057,0.207,0.091,0.309
		c0.027,0.082,0.058,0.162,0.089,0.243c0.036,0.097,0.074,0.194,0.115,0.288c0.039,0.087,0.081,0.171,0.124,0.256
		c0.042,0.085,0.084,0.169,0.13,0.251c0.051,0.091,0.106,0.178,0.162,0.266c0.045,0.073,0.091,0.146,0.141,0.217
		c0.061,0.088,0.127,0.173,0.193,0.258c0.053,0.068,0.105,0.136,0.161,0.201c0.067,0.079,0.137,0.154,0.209,0.23
		c0.065,0.069,0.13,0.136,0.198,0.202c0.068,0.065,0.138,0.128,0.209,0.19c0.081,0.071,0.164,0.14,0.249,0.207
		c0.034,0.026,0.063,0.055,0.098,0.081c0.022,0.016,0.045,0.027,0.067,0.042c0.234,0.171,0.478,0.327,0.735,0.462
		c0.035,0.018,0.07,0.033,0.105,0.051c0.239,0.12,0.486,0.224,0.742,0.311c0.033,0.011,0.065,0.025,0.098,0.036
		c0.259,0.083,0.527,0.145,0.801,0.192c0.062,0.012,0.125,0.02,0.188,0.029c0.268,0.038,0.541,0.064,0.82,0.065
		c0.003,0,0.006,0,0.008,0h0.001h0.003h26.549C103.195,193.84,92.329,202.948,79.369,202.948 M204.094,202.948
		c-15.005,0-27.213-12.207-27.213-27.212c0-8.219,3.668-15.592,9.446-20.586l13.455,25.144c1.034,1.933,3.438,2.661,5.371,1.627
		l3.499-1.872c1.933-1.034,2.661-3.439,1.627-5.372l-13.461-25.157c2.318-0.644,4.756-0.996,7.276-0.996
		c15.005,0,27.212,12.207,27.212,27.212C231.306,190.742,219.099,202.948,204.094,202.948"/>
</g>
</svg>
