<?xml version="1.0" encoding="utf-8"?>
<!-- Generator: Adobe Illustrator 25.4.1, SVG Export Plug-In . SVG Version: 6.00 Build 0)  -->
<svg version="1.1" id="Layer_1" xmlns="http://www.w3.org/2000/svg" xmlns:xlink="http://www.w3.org/1999/xlink" x="0px" y="0px"
	 viewBox="0 0 283.465 283.465" enable-background="new 0 0 283.465 283.465" xml:space="preserve">
<g>
	<path fill="#64B5E5" d="M219.685,283.465H63.779C28.555,283.465,0,254.91,0,219.685V63.78C0,28.555,28.555,0,63.779,0h155.906
		c35.224,0,63.78,28.555,63.78,63.78v155.905C283.465,254.91,254.909,283.465,219.685,283.465 M265.039,219.685V63.78
		c0-25.049-20.306-45.355-45.354-45.355H63.779c-25.049,0-45.354,20.306-45.354,45.355v155.905
		c0,25.049,20.305,45.354,45.354,45.354h155.906C244.733,265.039,265.039,244.734,265.039,219.685"/>
	<path fill="#25303B" d="M242.996,127.444c-0.59-5.508-1.722-10.955-3.246-16.278c-1.537-5.321-3.467-10.535-5.862-15.533
		c-9.538-20.01-25.785-36.734-45.598-46.703c-4.942-2.497-10.08-4.619-15.367-6.283c-5.295-1.637-10.718-2.846-16.201-3.624
		c-5.483-0.807-11.033-1.063-16.562-0.935c-5.53,0.129-11.063,0.673-16.5,1.746c-21.807,4.062-42.062,15.712-56.695,32.331
		c-7.388,8.259-13.265,17.826-17.584,28.022c-2.151,5.108-3.813,10.415-5.084,15.804c-1.262,5.392-2.116,10.889-2.436,16.417
		c-0.132,1.379-0.139,2.763-0.178,4.146c-0.039,1.382-0.084,2.76-0.016,4.187l0.062,2.122c0.021,0.707,0.115,1.426,0.17,2.138
		l0.2,2.141l0.34,2.155c0.185,1.434,0.579,2.875,0.911,4.311c0.155,0.719,0.433,1.433,0.649,2.148
		c0.236,0.714,0.438,1.432,0.757,2.134c1.06,2.842,2.655,5.593,4.611,8.086c1.972,2.49,4.424,4.67,7.153,6.324
		c2.729,1.664,5.697,2.81,8.676,3.526c4.296,1.013,8.567,1.221,12.756,0.898v4.542h0.001v2.509c0,4.174,3.385,7.559,7.56,7.559
		h7.558c4.175,0,7.56-3.385,7.56-7.559v-2.509h82.202v2.509c0,4.174,3.385,7.559,7.559,7.559h7.559c4.175,0,7.559-3.385,7.559-7.559
		v-2.509h0.001v-32.481c-0.005-1.375-0.105-2.771-0.296-4.151c-0.05-0.357-0.115-0.711-0.169-1.068h7.182
		c1.769,0,3.204-1.435,3.204-3.204v-3.231c0-1.769-1.435-3.203-3.204-3.203h-9.167c-3.75-14.234-10.888-27.327-20.985-38.329
		c-4.072-4.437-9.618-7.114-15.615-7.535c-8.199-0.575-16.52-0.867-24.73-0.867c-8.209,0-16.529,0.292-24.729,0.867
		c-5.996,0.421-11.542,3.097-15.615,7.535c-10.096,11.001-17.234,24.095-20.984,38.329h-9.17c-1.769,0-3.203,1.434-3.203,3.203
		v3.231c0,1.769,1.434,3.204,3.203,3.204h7.186c-0.055,0.357-0.12,0.711-0.17,1.068c-0.191,1.375-0.291,2.772-0.297,4.176v18.253
		c-3.593,0.338-7.2,0.185-10.494-0.606c-4.307-1.018-7.976-3.197-10.558-6.493c-2.618-3.267-4.213-7.601-4.957-12.265
		c-0.786-4.653-0.761-9.635-0.464-14.666c0.286-5.006,1.062-9.974,2.203-14.849c1.151-4.871,2.648-9.669,4.594-14.286
		c3.91-9.214,9.216-17.875,15.909-25.348c6.648-7.495,14.493-13.953,23.218-18.886c4.353-2.477,8.895-4.627,13.594-6.364
		c4.706-1.715,9.547-3.05,14.465-3.998c19.685-3.732,40.634-0.96,58.468,8.224c17.918,9.008,32.634,24.165,41.257,42.255
		c2.168,4.518,3.909,9.232,5.298,14.041c1.377,4.812,2.407,9.734,2.936,14.719c0.555,5.001,0.72,9.943,0.533,15.113
		c-0.005,1.283-0.07,2.558-0.158,3.83l-0.228,3.821l-0.387,3.792l-0.196,1.896l-0.278,1.877l-0.57,3.751l-0.749,3.7
		c-0.22,1.244-0.569,2.444-0.874,3.659c-0.318,1.21-0.597,2.435-1.006,3.609c-1.407,4.79-3.328,9.372-5.684,13.668
		c-4.685,8.615-11.448,15.896-19.728,21.132c-4.126,2.636-8.592,4.796-13.255,6.545c-4.673,1.735-9.54,3.057-14.501,4.07
		c-6.682,1.364-13.526,2.16-20.435,2.58v-6.321c0-2.327-1.424-4.321-3.447-5.161c-3.303-1.375-6.926-2.134-10.727-2.134
		c-3.799,0-7.423,0.759-10.725,2.134c-1.692,0.702-2.951,2.215-3.323,4.05h-16.764c-1.769,0-3.203,1.435-3.203,3.204v3.231
		c0,1.769,1.434,3.203,3.203,3.203h16.64v5.953h-16.64c-1.769,0-3.203,1.434-3.203,3.203v3.232c0,1.769,1.434,3.203,3.203,3.203
		h16.764c0.372,1.835,1.631,3.349,3.323,4.05c3.302,1.375,6.926,2.134,10.725,2.134c3.801,0,7.424-0.759,10.727-2.134
		c2.023-0.839,3.447-2.833,3.447-5.16v-7.033c7.459-0.43,14.936-1.277,22.367-2.793c5.373-1.096,10.717-2.542,15.938-4.481
		c5.213-1.954,10.3-4.404,15.067-7.448c4.767-3.038,9.2-6.679,13.078-10.845c3.885-4.16,7.204-8.829,9.918-13.777
		c2.713-4.949,4.881-10.162,6.454-15.493c0.453-1.321,0.766-2.668,1.118-4.009c0.339-1.342,0.719-2.679,0.963-4.034l0.818-4.056
		l0.622-4.07l0.3-2.037l0.212-2.039l0.416-4.079L243.42,148c0.093-1.359,0.161-2.718,0.168-4.073
		C243.785,138.553,243.613,132.926,242.996,127.444 M192.756,155.277v3.515c0,1.925-1.562,3.486-3.486,3.486h-15.705
		c-1.925,0-3.486-1.561-3.486-3.486v-3.515c0-1.926,1.561-3.487,3.486-3.487h15.705C191.194,151.79,192.756,153.351,192.756,155.277
		 M94.552,131.275c3.486-9.955,8.967-19.133,16.232-27.051c1.859-2.023,4.383-3.244,7.111-3.435
		c7.904-0.555,15.923-0.836,23.836-0.836c7.914,0,15.934,0.281,23.837,0.836c2.728,0.191,5.253,1.412,7.111,3.435
		c7.266,7.919,12.747,17.097,16.233,27.051c0.454,1.294-0.503,2.653-1.875,2.653h-90.61
		C95.055,133.928,94.099,132.569,94.552,131.275 M90.708,155.277c0-1.926,1.561-3.487,3.486-3.487h15.704
		c1.926,0,3.487,1.561,3.487,3.487v3.515c0,1.925-1.561,3.486-3.487,3.486H94.194c-1.925,0-3.486-1.561-3.486-3.486V155.277z"/>
</g>
</svg>
