<?xml version="1.0" encoding="utf-8"?>
<!-- Generator: Adobe Illustrator 25.4.1, SVG Export Plug-In . SVG Version: 6.00 Build 0)  -->
<svg version="1.1" id="Layer_1" xmlns="http://www.w3.org/2000/svg" xmlns:xlink="http://www.w3.org/1999/xlink" x="0px" y="0px"
	 viewBox="0 0 283.465 283.465" enable-background="new 0 0 283.465 283.465" xml:space="preserve">
<g>
	<path fill="#64B5E5" d="M219.685,283.465H63.779C28.555,283.465,0,254.91,0,219.685V63.78C0,28.555,28.555,0,63.779,0h155.906
		c35.224,0,63.78,28.555,63.78,63.78v155.905C283.465,254.91,254.909,283.465,219.685,283.465 M265.039,219.685V63.78
		c0-25.049-20.306-45.355-45.354-45.355H63.779c-25.049,0-45.354,20.306-45.354,45.355v155.905
		c0,25.049,20.305,45.354,45.354,45.354h155.906C244.733,265.039,265.039,244.734,265.039,219.685"/>
	<g>
		<path fill="#FFFFFF" d="M242.002,127.55c-0.556-5.183-1.637-10.603-3.213-16.109c-1.577-5.458-3.529-10.632-5.802-15.376
			c-9.515-19.959-25.547-36.38-45.146-46.242c-4.989-2.521-10.109-4.614-15.218-6.222c-5.202-1.608-10.601-2.816-16.041-3.588
			c-5.085-0.749-10.602-1.057-16.399-0.926c-5.702,0.133-11.196,0.714-16.329,1.728c-21.566,4.017-41.499,15.385-56.138,32.011
			c-7.134,7.975-12.991,17.31-17.414,27.751c-2.023,4.804-3.716,10.067-5.032,15.643c-1.296,5.539-2.107,11.005-2.411,16.245
			c-0.105,1.1-0.131,2.2-0.156,3.264l-0.027,1.059c-0.036,1.272-0.074,2.587-0.011,3.905l0.062,2.14
			c0.013,0.439,0.057,0.883,0.099,1.327c0.025,0.255,0.049,0.509,0.069,0.763l0.198,2.126l0.332,2.092
			c0.14,1.084,0.395,2.14,0.664,3.257l0.234,0.984c0.095,0.439,0.24,0.877,0.393,1.34c0.082,0.249,0.164,0.497,0.239,0.745
			l0.152,0.47c0.173,0.54,0.335,1.05,0.558,1.539c1.033,2.763,2.534,5.393,4.487,7.883c1.906,2.406,4.287,4.512,6.885,6.086
			c2.5,1.525,5.323,2.671,8.392,3.408c3.94,0.931,8.013,1.216,12.445,0.874l1.077-0.083l0.001,8.131c0,3.616,2.943,6.559,6.56,6.559
			h7.558c3.617,0,6.56-2.942,6.56-6.559v-3.509h84.202v3.509c0,3.616,2.942,6.559,6.56,6.559h7.559c3.616,0,6.559-2.942,6.559-6.559
			l0.001-34.99c-0.005-1.325-0.102-2.677-0.286-4.013c-0.028-0.204-0.062-0.407-0.096-0.61l-0.248-1.596h8.348
			c1.216,0,2.204-0.989,2.204-2.204v-3.231c0-1.215-0.988-2.203-2.204-2.203h-9.938l-0.196-0.745
			c-3.697-14.032-10.874-27.14-20.755-37.907c-3.9-4.249-9.209-6.811-14.949-7.214c-8.179-0.574-16.476-0.865-24.659-0.865
			c-8.183,0-16.479,0.291-24.66,0.865c-5.74,0.403-11.049,2.965-14.948,7.214c-9.88,10.765-17.056,23.873-20.754,37.907
			l-0.196,0.745h-9.94c-1.215,0-2.203,0.988-2.203,2.203v3.231c0,1.215,0.988,2.204,2.203,2.204h8.352l-0.25,1.597
			c-0.034,0.203-0.067,0.406-0.096,0.611c-0.185,1.331-0.281,2.69-0.287,4.04v19.159l-0.906,0.086
			c-3.91,0.367-7.55,0.156-10.821-0.63c-4.612-1.09-8.456-3.458-11.111-6.849c-2.553-3.186-4.338-7.589-5.157-12.725
			c-0.693-4.102-0.84-8.695-0.475-14.882c0.276-4.828,1.025-9.882,2.228-15.018c1.222-5.17,2.785-10.03,4.646-14.447
			c4.102-9.668,9.514-18.289,16.085-25.626c6.87-7.745,14.768-14.168,23.471-19.089c4.5-2.561,9.123-4.725,13.739-6.432
			c4.729-1.723,9.648-3.083,14.623-4.042c20.25-3.838,41.245-0.885,59.116,8.317c18.096,9.098,32.909,24.269,41.701,42.714
			c2.092,4.359,3.895,9.135,5.356,14.193c1.466,5.124,2.465,10.134,2.969,14.892c0.554,4.981,0.729,9.973,0.538,15.254
			c-0.003,1.103-0.055,2.341-0.159,3.863l-0.228,3.812l-0.586,5.73l-0.855,5.676l-0.756,3.748c-0.167,0.942-0.411,1.879-0.647,2.785
			l-0.454,1.763c-0.239,0.938-0.486,1.907-0.815,2.852c-1.391,4.742-3.331,9.408-5.751,13.819
			c-4.773,8.777-11.714,16.212-20.071,21.496c-4.013,2.564-8.535,4.798-13.438,6.637c-4.456,1.653-9.385,3.037-14.652,4.113
			c-6.327,1.291-13.058,2.141-20.574,2.598l-1.061,0.064v-7.383c0-1.86-1.111-3.523-2.831-4.237
			c-3.279-1.365-6.759-2.058-10.343-2.058s-7.063,0.692-10.341,2.057c-1.404,0.583-2.423,1.826-2.728,3.325l-0.163,0.802h-17.581
			c-1.215,0-2.203,0.988-2.203,2.204v3.231c0,1.214,0.988,2.202,2.203,2.202h17.64v7.953h-17.64c-1.215,0-2.203,0.988-2.203,2.203
			v3.232c0,1.215,0.988,2.203,2.203,2.203H128.5l0.163,0.802c0.304,1.5,1.323,2.743,2.726,3.324
			c3.279,1.365,6.758,2.058,10.342,2.058s7.063-0.692,10.342-2.057c1.721-0.714,2.832-2.377,2.832-4.237v-7.978l0.942-0.054
			c8.085-0.466,15.354-1.374,22.225-2.774c5.728-1.168,10.892-2.62,15.79-4.438c5.398-2.023,10.404-4.498,14.877-7.354
			c4.797-3.058,9.131-6.651,12.884-10.684c3.742-4.007,7.03-8.574,9.773-13.576c2.671-4.873,4.814-10.019,6.372-15.296
			c0.355-1.039,0.611-2.042,0.883-3.104l0.461-1.788c0.261-1.001,0.53-2.035,0.712-3.046l0.821-4.075l0.913-6.056l0.622-6.074
			l0.241-4.035c0.107-1.56,0.16-2.834,0.166-4.018c0.205-5.601,0.008-11.096-0.586-16.367V127.55z M193.756,155.277v3.515
			c0,2.474-2.012,4.486-4.485,4.486h-15.705c-2.474,0-4.486-2.013-4.486-4.486v-3.515c0-2.475,2.013-4.487,4.486-4.487h15.705
			C191.744,150.789,193.756,152.802,193.756,155.277z M93.608,130.944c3.562-10.173,9.093-19.39,16.439-27.396
			c2.034-2.214,4.796-3.548,7.778-3.756c7.92-0.556,15.964-0.838,23.906-0.838c7.944,0,15.987,0.282,23.907,0.838
			c2.981,0.209,5.744,1.542,7.777,3.756c7.346,8.006,12.877,17.224,16.439,27.397c0.321,0.914,0.178,1.933-0.383,2.724
			c-0.559,0.789-1.47,1.26-2.436,1.26h-90.61c-0.965,0-1.875-0.471-2.435-1.259C93.432,132.878,93.288,131.86,93.608,130.944z
			 M89.708,155.277c0-2.475,2.013-4.487,4.486-4.487h15.704c2.474,0,4.487,2.013,4.487,4.487v3.515c0,2.474-2.013,4.486-4.487,4.486
			H94.194c-2.474,0-4.486-2.013-4.486-4.486V155.277z"/>
	</g>
</g>
</svg>
