<?xml version="1.0" encoding="utf-8"?>
<!-- Generator: Adobe Illustrator 25.4.1, SVG Export Plug-In . SVG Version: 6.00 Build 0)  -->
<svg version="1.1" id="Layer_1" xmlns="http://www.w3.org/2000/svg" xmlns:xlink="http://www.w3.org/1999/xlink" x="0px" y="0px"
	 viewBox="0 0 283.159 283.159" enable-background="new 0 0 283.159 283.159" xml:space="preserve">
<g>
	<g>
		<polygon fill="#FFFFFF" points="94.743,43.926 86.187,43.926 98.66,84.64 108.117,84.64 120.968,43.926 112.963,43.926 
			103.71,76.222 		"/>
		<polygon fill="#FFFFFF" points="138.027,84.64 145.69,84.64 145.69,50.49 158.009,50.49 158.009,43.926 125.928,43.926 
			125.928,50.49 138.027,50.49 		"/>
		<path fill="#FFFFFF" d="M189.854,52.654V45.32c-2.558-1.27-6.389-2.054-10.072-2.054c-12.285,0-19.917,8.369-19.917,21.842
			c0,12.644,7.22,20.192,19.312,20.192c4.052,0,8.209-0.946,10.678-2.42v-6.909c-3.175,1.697-6.199,2.49-9.469,2.49
			c-7.937,0-12.307-5.055-12.307-14.233c0-8.94,4.386-14.068,12.033-14.068C183.663,50.16,187.245,51.084,189.854,52.654z"/>
	</g>
	<path fill="#64B5E5" d="M219.486,283.159H63.673c-8.49,0-16.73-1.748-24.471-4.744c-7.74-3.246-14.732-7.992-20.724-13.734
		c-5.993-5.993-10.737-12.984-13.734-20.725c-3.247-7.741-4.745-15.981-4.745-24.471V63.673c0-8.49,1.748-16.73,4.745-24.471
		c2.997-7.74,7.991-14.732,13.734-20.725C24.47,12.484,31.462,7.74,39.202,4.744c7.741-3.246,15.981-4.745,24.471-4.745h155.813
		c8.489,0,16.729,1.748,24.47,4.745c7.741,3.246,14.733,7.99,20.725,13.733c5.993,5.993,10.737,12.985,13.733,20.725
		c3.246,7.741,4.745,15.981,4.745,24.471v155.812c0,8.49-1.748,16.73-4.745,24.471c-3.246,7.741-7.99,14.732-13.733,20.725
		c-5.993,5.992-12.984,10.737-20.725,13.734C236.215,281.661,227.975,283.159,219.486,283.159 M264.681,219.735V63.673
		c0-11.986-4.744-23.722-13.234-32.211c-8.49-8.49-19.976-13.235-32.211-13.235H63.423c-11.985,0-23.721,4.745-32.211,13.235
		c-8.49,8.489-13.234,19.976-13.234,32.211v155.812c0,11.986,4.744,23.472,13.234,32.212c8.49,8.489,19.976,13.233,32.211,13.233
		h155.813c11.985,0,23.471-4.744,32.211-13.233C260.187,243.207,264.681,231.72,264.681,219.735"/>
</g>
<path fill="#FFFFFF" d="M230.655,156.904h-14.617l-0.193-0.75c-4.518-17.507-13.404-33.858-25.698-47.287
	c-4.631-5.059-10.938-8.109-17.758-8.589c-10.154-0.716-20.478-1.079-30.685-1.079c-10.206,0-20.529,0.363-30.684,1.079
	c-6.82,0.48-13.126,3.53-17.757,8.589c-12.294,13.43-21.18,29.781-25.698,47.287l-0.193,0.75H52.809
	c-1.215,0-2.203,0.988-2.203,2.202v3.232c0,1.215,0.988,2.203,2.203,2.203h12.938l-0.222,1.333c-0.16,0.958-0.321,1.918-0.455,2.884
	c-0.223,1.607-0.339,3.244-0.346,4.865v43.698c0,4.658,3.79,8.447,8.449,8.447h9.449c4.659,0,8.449-3.789,8.449-8.447v-5.727
	h101.266v5.727c0,4.658,3.79,8.447,8.448,8.447h9.45c4.658,0,8.448-3.789,8.448-8.447v-43.729c-0.007-1.602-0.123-3.229-0.346-4.832
	c-0.129-0.935-0.284-1.862-0.438-2.79l-0.237-1.429h12.992c1.214,0,2.203-0.988,2.203-2.203v-3.232
	C232.857,157.892,231.869,156.904,230.655,156.904z M79.687,152.978c4.45-13.721,11.687-26.118,21.508-36.849
	c2.763-3.018,6.52-4.837,10.58-5.124c9.906-0.698,19.976-1.051,29.928-1.051c9.954,0,20.024,0.354,29.93,1.051
	c4.06,0.286,7.817,2.106,10.579,5.124c9.823,10.73,17.06,23.128,21.508,36.849c0.297,0.915,0.138,1.924-0.425,2.699
	c-0.566,0.779-1.444,1.227-2.409,1.227H82.522c-0.964,0-1.842-0.447-2.408-1.227C79.55,154.903,79.391,153.893,79.687,152.978z
	 M107.243,186.376c0,2.896-2.356,5.251-5.252,5.251H82.147c-2.896,0-5.252-2.355-5.252-5.251v-4.253
	c0-2.896,2.356-5.252,5.252-5.252h19.843c2.896,0,5.252,2.356,5.252,5.252V186.376z M206.513,186.376
	c0,2.896-2.356,5.251-5.252,5.251h-19.843c-2.896,0-5.252-2.355-5.252-5.251v-4.253c0-2.896,2.356-5.252,5.252-5.252h19.843
	c2.896,0,5.252,2.356,5.252,5.252V186.376z"/>
</svg>
