<svg xmlns="http://www.w3.org/2000/svg" viewBox="0 0 283.16 283.16"><defs><style>.cls-1{fill:#64b5e5;}.cls-2{fill:#25303b;}</style></defs><g id="Layer_2" data-name="Layer 2"><g id="Layer_1-2" data-name="Layer 1"><path class="cls-1" d="M219.49,283.16H63.67a67.85,67.85,0,0,1-24.47-4.74,68.29,68.29,0,0,1-20.72-13.74A60.21,60.21,0,0,1,4.74,244,62.93,62.93,0,0,1,0,219.49V63.67A67.85,67.85,0,0,1,4.74,39.2,64,64,0,0,1,18.48,18.48,60.07,60.07,0,0,1,39.2,4.74,62.93,62.93,0,0,1,63.67,0H219.49a63.56,63.56,0,0,1,45.19,18.48A60,60,0,0,1,278.41,39.2a62.76,62.76,0,0,1,4.75,24.47V219.49a63.67,63.67,0,0,1-18.48,45.19A60.21,60.21,0,0,1,244,278.42a62.93,62.93,0,0,1-24.47,4.74m45.19-63.42V63.67a45.17,45.17,0,0,0-45.44-45.44H63.42A45.17,45.17,0,0,0,18,63.67V219.49A46.19,46.19,0,0,0,31.21,251.7a45.32,45.32,0,0,0,32.21,13.23H219.24a46.19,46.19,0,0,0,32.21-13.23,44.15,44.15,0,0,0,13.23-32"/><polygon class="cls-2" points="108.39 85.02 98.38 85.02 85.68 43.55 95.03 43.55 103.72 74.84 112.68 43.55 121.48 43.55 108.39 85.02"/><polygon class="cls-2" points="137.65 50.87 125.55 50.87 125.55 43.55 158.38 43.55 158.38 50.87 146.07 50.87 146.07 85.02 137.65 85.02 137.65 50.87"/><path class="cls-2" d="M159.49,65.11c0-13.31,7.59-22.22,20.29-22.22a24.11,24.11,0,0,1,10.45,2.2v8.25a18.8,18.8,0,0,0-10.12-2.8c-7.48,0-11.66,4.94-11.66,13.69,0,9.13,4.46,13.86,11.94,13.86a19.29,19.29,0,0,0,9.84-2.75v7.75c-2.36,1.49-6.54,2.59-11,2.59-12.16,0-19.69-7.43-19.69-20.57"/><path class="cls-2" d="M230.72,155.81h-14a110.21,110.21,0,0,0-26-47.69,27.82,27.82,0,0,0-18.48-9c-10.23-.75-20.47-1-30.71-1s-20.73.25-30.71,1a27.82,27.82,0,0,0-18.48,9,110.31,110.31,0,0,0-26,47.69H52.94a2.71,2.71,0,0,0-2.25,1,3.72,3.72,0,0,0-1,2.25v3.25a2.71,2.71,0,0,0,1,2.24,3.72,3.72,0,0,0,2.25,1H64.67c-.25,1-.25,2-.5,3a33.37,33.37,0,0,0-.25,5v43.7a9.39,9.39,0,0,0,9.49,9.49H82.9a9.39,9.39,0,0,0,9.49-9.49v-4.75h99.13v4.75a9.39,9.39,0,0,0,9.49,9.49h9.49a9.39,9.39,0,0,0,9.49-9.49v-43.7c0-1.75-.25-3.24-.25-5-.25-1-.25-2-.5-3H231a2.71,2.71,0,0,0,2.25-1,3.72,3.72,0,0,0,1-2.24v-3.25a2.71,2.71,0,0,0-1-2.25,5.28,5.28,0,0,0-2.5-1m-128.84-39.2a15.11,15.11,0,0,1,10-4.74c10-.75,20-1,30-1s20,.25,30,1a15.64,15.64,0,0,1,10,4.74A96,96,0,0,1,203,153.07v1c0,.25-.25.5-.25.75-.25.25-.5.5-.75.5-.25.25-.5.25-1,.25H82.65a1.89,1.89,0,0,1-1-.25c-.25-.25-.5-.25-.75-.5a.92.92,0,0,1-.25-.75v-1a96,96,0,0,1,21.23-36.46m99.38,74.16h-20a4.88,4.88,0,0,1-1.75-.25,5.33,5.33,0,0,1-1.49-1,3.19,3.19,0,0,1-1-1.5,3.68,3.68,0,0,1-.25-1.74V182a4.88,4.88,0,0,1,.25-1.75,5.23,5.23,0,0,1,1-1.5,3.27,3.27,0,0,1,1.49-1,3.71,3.71,0,0,1,1.75-.25h20a4.17,4.17,0,0,1,3,1.24,4.65,4.65,0,0,1,1.24,3v4.5a4.17,4.17,0,0,1-1.24,3,3.56,3.56,0,0,1-3,1.5m-119.11-13h20a4.13,4.13,0,0,1,3,1.24,4.61,4.61,0,0,1,1.25,3v4.25a4.13,4.13,0,0,1-1.25,3,4.57,4.57,0,0,1-3,1.25h-20a4.88,4.88,0,0,1-1.75-.25,5.06,5.06,0,0,1-1.49-1,3.19,3.19,0,0,1-1-1.5,3.66,3.66,0,0,1-.25-1.74v-4.25a4.88,4.88,0,0,1,.25-1.75,5.06,5.06,0,0,1,1-1.49,3.16,3.16,0,0,1,1.49-1,2.31,2.31,0,0,0,1.75.25"/></g></g></svg>