<svg xmlns="http://www.w3.org/2000/svg" viewBox="0 0 2829.89 2829.88"><defs><style>.cls-1{fill:#64b5e5;}.cls-2{fill:#25303b;}</style></defs><g id="Layer_2" data-name="Layer 2"><g id="Layer_1-2" data-name="Layer 1"><path class="cls-1" d="M2193.16,0H636.72C285.07,0,0,285.07,0,636.72V2193.16c0,351.65,285.07,636.72,636.72,636.72H2193.16c351.66,0,636.73-285.07,636.73-636.72V636.72C2829.89,285.07,2544.82,0,2193.16,0M2646,2193.16c0,250.06-202.72,452.78-452.79,452.78H636.72c-250.06,0-452.78-202.72-452.78-452.78V636.72c0-250.06,202.72-452.78,452.78-452.78H2193.16c250.07,0,452.79,202.72,452.79,452.78Z"/><path class="cls-2" d="M2359.33,996.86,1432,598.23a53.36,53.36,0,0,0-42,0L462.61,996.86A35.61,35.61,0,0,0,444,1043.64L457.84,1076a35.64,35.64,0,0,0,46.8,18.65L1411,705l906.32,389.65a35.62,35.62,0,0,0,46.8-18.65l13.91-32.36a35.65,35.65,0,0,0-18.68-46.78"/><path class="cls-2" d="M1912.05,1503.08a294.11,294.11,0,0,0-95.67,16L1670.82,1247a381.66,381.66,0,0,0,87.46-122.75c6.57-16.36-.29-33.7-15-38.45l-26.71-9.2c-14.75-4.77-30.63,1.36-35.43,13.71A299.13,299.13,0,0,1,1574,1216.85c-46.75,31.15-102.44,47.31-158.55,48.17-13.34-.51-25.25,11.76-26.63,27.17l-2.07,28.17c-1.37,15.42,11.73,28.47,29.39,28.91,61.19-.78,122.57-16.22,176.56-45.49l33.11,62-202.95,324.32-124.6-349.57a63.92,63.92,0,0,0-60.12-42.39H1101.25a31.86,31.86,0,0,0-31.87,31.9v31.89a31.85,31.85,0,0,0,31.87,31.88h52.62l-107.11,143a294.45,294.45,0,0,0-136.82-33.65c-163.27,0-296.07,132.83-296.07,296.1s132.8,296.07,296.07,296.07c147,0,269.18-107.68,292.14-248.23H1411a1.9,1.9,0,0,1,.27,0,46.73,46.73,0,0,0,5.31-.29c.39,0,.8-.17,1.19-.22a1.71,1.71,0,0,0,.51-.09l1.22-.15c.9-.15,1.75-.37,2.65-.56.39-.1.85-.24,1.27-.34a32,32,0,0,0,3.19-1c.14,0,.31,0,.46-.1a7.12,7.12,0,0,1,.76-.31c.29-.1.61-.25.9-.34a18,18,0,0,0,2-.9c.63-.27,1.17-.52,1.78-.83s1.56-.78,2.29-1.24,1.31-.76,2-1.22a17.77,17.77,0,0,0,1.56-1.05,5.41,5.41,0,0,0,.85-.56c.51-.39,1-.73,1.46-1.14s1-.81,1.51-1.25.9-.75,1.29-1.12a2.24,2.24,0,0,0,.51-.51l.2-.17c.46-.46.9-.92,1.36-1.39.59-.63,1.22-1.29,1.76-1.94a3,3,0,0,1,.31-.3,1.08,1.08,0,0,0,.24-.31c.3-.34.49-.68.76-1,.49-.63,1-1.24,1.44-1.9s.82-1.17,1.17-1.75c.09-.15.19-.27.29-.47l226.38-361.61,54.22,101.36c-70.54,54.18-116.14,139.29-116.14,234.91,0,163.24,132.82,296.07,296.09,296.07s296.07-132.83,296.07-296.07-132.83-296.1-296.07-296.1m-568.91,248.27H1202.08a295,295,0,0,0-78.84-157.15L1234.32,1446Zm-267.09-94.16a218.73,218.73,0,0,1,47.19,94.16H1005.53ZM909.94,2017.81c-120.58,0-218.66-98.08-218.66-218.63s98.08-218.64,218.66-218.64a217.15,217.15,0,0,1,89.55,19.26L871.66,1770.49a8,8,0,0,1-.61.85c-.49.76-1,1.51-1.49,2.27s-.78,1.22-1.12,1.8c-.39.76-.8,1.51-1.19,2.27a21.6,21.6,0,0,0-1,1.94c-.32.78-.63,1.51-.9,2.27s-.58,1.46-.83,2.17-.44,1.46-.66,2.21a23.48,23.48,0,0,0-.58,2.34c-.19.73-.32,1.44-.46,2.12-.15.9-.32,1.77-.39,2.6s-.1,1.37-.15,2c-.09,1-.17,1.85-.17,2.78a7.18,7.18,0,0,0,0,1,6.7,6.7,0,0,0,0,1c0,.91.08,1.76.12,2.66.05.71.15,1.46.22,2.21s.22,1.51.32,2.27.32,1.65.51,2.46c.15.63.29,1.29.49,2s.46,1.65.7,2.45l.76,2,.9,2.29c.34.73.66,1.36,1,2.07s.68,1.36,1,2a21.82,21.82,0,0,0,1.31,2.14c.34.56.69,1.17,1.07,1.73.52.73,1.08,1.39,1.59,2.09s.85,1.07,1.31,1.61,1.1,1.27,1.63,1.87,1.08,1,1.61,1.61,1.1,1,1.73,1.51,1.29,1.15,2,1.68c.29.22.49.41.8.61a2.62,2.62,0,0,0,.54.34,38.13,38.13,0,0,0,5.89,3.73c.29.14.61.26.85.41a50.09,50.09,0,0,0,6,2.51l.8.29a55.19,55.19,0,0,0,6.45,1.56c.49,0,1,.15,1.49.19a52.75,52.75,0,0,0,6.6.56h213.4c-21.89,97.62-109.16,170.79-213.3,170.79m1002.11,0c-120.58,0-218.64-98.08-218.64-218.63a218.07,218.07,0,0,1,75.88-165.41l108.09,202a32,32,0,0,0,43.14,13.08l28.13-15.07a31.88,31.88,0,0,0,13.1-43.15l-108.17-202.15a217.44,217.44,0,0,1,58.47-8c120.55,0,218.63,98.06,218.63,218.64s-98.08,218.63-218.63,218.63"/></g></g></svg>