<?xml version="1.0" encoding="utf-8"?>
<!-- Generator: Adobe Illustrator 25.4.1, SVG Export Plug-In . SVG Version: 6.00 Build 0)  -->
<svg version="1.1" id="Layer_1" xmlns="http://www.w3.org/2000/svg" xmlns:xlink="http://www.w3.org/1999/xlink" x="0px" y="0px"
	 viewBox="0 0 2829.89 2829.89" enable-background="new 0 0 2829.89 2829.89" xml:space="preserve">
<g>
	<path fill="#64B5E5" d="M2193.161,0.005H636.724C285.072,0.005,0,285.075,0,636.729v1556.437
		c0,351.653,285.072,636.724,636.724,636.724h1556.437c351.655,0,636.725-285.071,636.725-636.724V636.729
		C2829.886,285.075,2544.816,0.005,2193.161,0.005 M2645.945,2193.166c0,250.064-202.718,452.781-452.784,452.781H636.724
		c-250.065,0-452.781-202.717-452.781-452.781V636.729c0-250.065,202.716-452.783,452.781-452.783h1556.437
		c250.066,0,452.784,202.718,452.784,452.783V2193.166z"/>
</g>
<path fill="#FFFFFF" d="M2359.333,996.865l-927.36-398.629c-13.417-5.747-28.611-5.747-42.028,0L462.61,996.865
	c-18.068,7.768-26.42,28.709-18.652,46.776l13.88,32.361c7.791,18.067,28.733,26.42,46.8,18.652l906.345-389.645l906.322,389.645
	c18.091,7.768,39.031-0.585,46.8-18.652l13.903-32.361C2385.751,1025.574,2377.399,1004.633,2359.333,996.865"/>
<path fill="#FFFFFF" d="M1912.049,1503.089c-33.506,0-65.648,5.673-95.67,15.973l-145.564-272.109
	c36.792-34.649,66.938-76.384,87.465-122.746c6.574-16.363-0.293-33.7-14.976-38.449l-26.711-9.204
	c-14.757-4.773-30.632,1.364-35.43,13.709c-22.766,51.183-60.483,95.573-107.137,126.595
	c-46.751,31.143-102.44,47.311-158.541,48.163c-13.345-0.511-25.252,11.761-26.639,27.174l-2.07,28.173
	c-1.364,15.413,11.736,28.465,29.39,28.903c61.19-0.779,122.576-16.217,176.56-45.485l33.115,61.97l-202.955,324.314
	l-124.598-349.564c-9.032-25.373-33.188-42.394-60.119-42.394h-69.64h-67.278c-17.629,0-31.874,14.27-31.874,31.898v31.899
	c0,17.604,14.245,31.873,31.874,31.873h52.62l-107.114,142.957c-40.982-21.427-87.465-33.65-136.822-33.65
	c-163.265,0-296.068,132.827-296.068,296.092c0,163.24,132.803,296.069,296.068,296.069c146.975,0,269.186-107.675,292.148-248.222
	h208.799h0.098c0.048,0,0.146-0.049,0.268-0.049c1.801,0,3.554-0.097,5.307-0.292c0.39-0.049,0.804-0.17,1.193-0.219
	c0.171,0,0.366-0.048,0.511-0.097c0.392-0.049,0.805-0.097,1.219-0.147c0.901-0.145,1.753-0.365,2.653-0.559
	c0.391-0.098,0.853-0.244,1.266-0.341c1.097-0.292,2.169-0.609,3.191-0.999c0.146-0.049,0.316-0.049,0.462-0.097
	c0.244-0.121,0.512-0.219,0.755-0.317c0.293-0.097,0.61-0.243,0.901-0.34c0.706-0.269,1.412-0.561,2.045-0.901
	c0.633-0.268,1.17-0.512,1.777-0.829c0.755-0.389,1.56-0.778,2.289-1.241c0.682-0.389,1.315-0.755,1.974-1.218
	c0.511-0.34,1.046-0.632,1.557-1.046c0.317-0.147,0.537-0.341,0.853-0.561c0.512-0.389,0.997-0.73,1.461-1.144
	c0.535-0.414,0.997-0.804,1.509-1.242c0.463-0.365,0.902-0.755,1.291-1.12c0.219-0.146,0.366-0.341,0.512-0.512l0.194-0.169
	c0.463-0.464,0.901-0.926,1.363-1.389c0.586-0.633,1.219-1.291,1.754-1.947c0.098-0.098,0.195-0.196,0.316-0.293
	c0.098-0.098,0.195-0.22,0.244-0.317c0.293-0.34,0.488-0.681,0.755-0.998c0.488-0.633,0.999-1.242,1.436-1.899
	c0.414-0.609,0.829-1.169,1.169-1.753c0.097-0.147,0.195-0.268,0.293-0.463l226.38-361.617l54.226,101.367
	c-70.542,54.179-116.149,139.281-116.149,234.902c0,163.24,132.828,296.069,296.094,296.069
	c163.24,0,296.068-132.829,296.068-296.069C2208.117,1635.917,2075.289,1503.089,1912.049,1503.089 M1343.142,1751.359h-141.059
	c-9.861-60.509-38.131-114.833-78.844-157.153l111.084-148.241L1343.142,1751.359z M1076.049,1657.198
	c22.791,26.688,39.252,58.805,47.19,94.161h-117.706L1076.049,1657.198z M909.935,2017.818c-120.58,0-218.66-98.081-218.66-218.636
	c0-120.58,98.08-218.636,218.66-218.636c31.922,0,62.19,6.915,89.558,19.26l-127.836,170.692c-0.195,0.292-0.39,0.609-0.608,0.852
	c-0.487,0.756-1.048,1.51-1.486,2.264c-0.413,0.609-0.779,1.219-1.119,1.803c-0.39,0.755-0.804,1.509-1.194,2.264
	c-0.365,0.658-0.682,1.315-0.95,1.948c-0.316,0.779-0.632,1.51-0.9,2.264c-0.316,0.707-0.585,1.461-0.828,2.168
	c-0.244,0.754-0.438,1.461-0.658,2.216c-0.244,0.803-0.439,1.558-0.584,2.337c-0.195,0.73-0.317,1.437-0.463,2.119
	c-0.147,0.901-0.316,1.777-0.389,2.605c-0.049,0.731-0.098,1.363-0.147,2.021c-0.096,0.95-0.169,1.85-0.169,2.776
	c-0.05,0.341-0.05,0.682-0.05,1.047c0,0.341,0,0.634,0.05,0.998c0,0.902,0.073,1.753,0.121,2.655
	c0.048,0.706,0.146,1.461,0.219,2.215c0.049,0.755,0.218,1.51,0.317,2.265c0.145,0.803,0.316,1.655,0.511,2.46
	c0.145,0.632,0.293,1.289,0.487,1.996c0.268,0.803,0.462,1.655,0.706,2.459c0.244,0.657,0.511,1.315,0.755,1.972
	c0.292,0.731,0.608,1.559,0.901,2.289c0.34,0.731,0.657,1.364,1.022,2.07c0.341,0.658,0.682,1.363,1.048,2.021
	c0.389,0.755,0.852,1.461,1.314,2.143c0.341,0.56,0.682,1.169,1.071,1.729c0.512,0.73,1.072,1.388,1.583,2.094
	c0.438,0.56,0.853,1.071,1.315,1.607c0.536,0.657,1.096,1.266,1.632,1.875c0.559,0.536,1.072,1.047,1.607,1.606
	c0.56,0.488,1.095,0.999,1.728,1.511c0.633,0.584,1.292,1.144,1.949,1.68c0.292,0.219,0.487,0.413,0.804,0.608
	c0.194,0.147,0.364,0.269,0.535,0.341c1.875,1.437,3.847,2.678,5.892,3.726c0.293,0.146,0.61,0.268,0.852,0.413
	c1.899,0.95,3.921,1.802,5.967,2.509c0.268,0.098,0.511,0.195,0.802,0.292c2.071,0.658,4.238,1.144,6.454,1.559
	c0.487,0.048,0.999,0.146,1.484,0.194c2.169,0.317,4.335,0.511,6.599,0.56h0.049h0.049h213.304
	C1101.349,1944.648,1014.078,2017.818,909.935,2017.818 M1912.049,2017.818c-120.581,0-218.636-98.081-218.636-218.636
	c0-66.036,29.438-125.304,75.872-165.407l108.09,202.053c8.303,15.462,27.637,21.355,43.147,13.076l28.124-15.073
	c15.535-8.279,21.403-27.612,13.1-43.147l-108.161-202.151c18.627-5.187,38.204-7.987,58.464-7.987
	c120.555,0,218.635,98.056,218.635,218.636C2130.684,1919.737,2032.604,2017.818,1912.049,2017.818"/>
</svg>
