<?xml version="1.0" encoding="utf-8"?>
<!-- Generator: Adobe Illustrator 25.4.1, SVG Export Plug-In . SVG Version: 6.00 Build 0)  -->
<svg version="1.1" id="Layer_1" xmlns="http://www.w3.org/2000/svg" xmlns:xlink="http://www.w3.org/1999/xlink" x="0px" y="0px"
	 viewBox="0 0 283.5 283.5" style="enable-background:new 0 0 283.5 283.5;" xml:space="preserve">
<style type="text/css">
	.st0{fill:#006FB6;}
	.st1{fill:#FFFFFF;}
</style>
<g>
	<path class="st0" d="M219.7,283.5H63.8C28.6,283.5,0,254.9,0,219.7V63.8C0,28.6,28.6,0,63.8,0h155.9c35.2,0,63.8,28.6,63.8,63.8
		v155.9C283.5,254.9,254.9,283.5,219.7,283.5"/>
	<path class="st1" d="M176.9,194.7c0.7,1.2,1,2.8,0.5,4.4c0,0-0.2,0.7-0.7,2.2c-0.2,0.7-0.5,1.6-0.9,2.6c-0.4,1-0.9,2.1-1.5,3.4
		c-2.4,4.9-6.6,11.9-13.8,18c-0.9,0.7-1.9,1.5-2.8,2.2c-0.5,0.4-1,0.8-1.5,1.1c-0.5,0.3-1.1,0.7-1.6,1c-1.1,0.7-2.2,1.4-3.3,2
		c-1.2,0.6-2.4,1.2-3.6,1.8c-4.9,2.2-10.5,3.9-16.4,4.6c-5.9,0.6-12.1,0.3-18.1-1c-6-1.4-12-3.8-17.3-7.1c-5.4-3.4-10-7.8-13.8-12.7
		c-3.8-4.9-6.8-10.3-8.6-16c-1.8-5.6-2.7-11.3-2.8-16.8c0-5.4,0.8-10.5,2-15.1c2.6-9.1,7-15.9,10.5-20.1c0.9-1,1.7-2,2.4-2.8
		c0.8-0.7,1.4-1.4,2-1.9c1.1-1,1.6-1.6,1.6-1.6c1.2-1.1,2.8-1.5,4.2-1.4c1.4,0.1,2.6,0.8,3.4,1.9l2.9,4.2c0.8,1.2,1.1,2.5,1,3.8
		c-0.1,1.2-0.6,2.3-1.5,3.1c0,0-0.4,0.4-1.2,1.1c-0.4,0.4-0.9,0.8-1.4,1.3c-0.5,0.6-1.1,1.3-1.7,2c-2.5,3-5.7,7.9-7.6,14.4
		c-0.8,3.3-1.5,7-1.4,10.9c0.1,3.9,0.7,8,2,12c1.3,4,3.5,7.9,6.2,11.5c2.7,3.5,6,6.7,9.9,9.1c3.8,2.4,8.1,4.1,12.4,5.1
		c4.4,1,8.8,1.2,13,0.8c4.2-0.5,8.2-1.7,11.7-3.3c0.9-0.4,1.7-0.9,2.6-1.3c0.8-0.4,1.6-1,2.4-1.5c0.4-0.2,0.8-0.5,1.2-0.7
		c0.4-0.2,0.7-0.6,1.1-0.8c0.7-0.5,1.4-1.1,2.1-1.6c5.2-4.5,8.2-9.4,9.9-12.9c0.4-0.9,0.8-1.7,1.1-2.4c0.3-0.7,0.5-1.4,0.6-1.9
		c0.3-1,0.5-1.5,0.5-1.5c0.4-1.1,1.1-2,2.2-2.6c1.1-0.6,2.5-0.9,3.8-0.6l5,0.9C175.1,192.7,176.2,193.5,176.9,194.7 M143.8,88.7
		c4.7,0,9.7-0.8,13-4c3.2-3.3,4-8.3,4-13c0-4.7-0.8-9.7-4-13c-3.3-3.2-8.3-4-13-4s-9.7,0.8-13,4c-3.2,3.3-4,8.3-4,13
		c0,4.7,0.8,9.7,4,13C134.1,87.9,139.1,88.7,143.8,88.7 M214.2,208.5c0,0-3.2-5.9-8.1-14.6c-2.4-4.4-5.3-9.5-8.3-15
		c-1.5-2.7-3.1-5.6-4.7-8.5c-0.8-1.4-1.6-2.9-2.4-4.4l-0.7-1.3c-0.4-0.7-0.8-1.4-1.4-2.1c-1-1.3-2.3-2.4-3.7-3.3l-2.3-1
		c-0.4-0.2-0.8-0.3-1.2-0.4l-0.8-0.2l-2.4-0.7c-1.6-0.5-3.2-0.9-4.8-1.4c-3.2-0.9-6.3-1.9-9.3-2.8c-6-1.8-11.6-3.5-16.4-4.9
		c-3.6-1.1-6.8-2-9.4-2.8l5.5-26l1.8-8.6c0.3-1.4,0.6-2.8,0.9-4.2c0.1-0.7,0.2-1.4,0.2-2c0-0.7,0-1.3-0.1-1.9
		c-0.3-2.4-1.3-4.7-2.9-6.6c-0.8-1-1.7-1.8-2.8-2.4c-1-0.7-2.2-1.2-3.3-1.6c-2.4-0.7-4.7-0.8-7.4,0.1l-10.3,3.5l-16.1,5.4l-8.1,2.7
		l-2,0.7l-1,0.3l-0.8,0.3c-0.3,0.1-0.7,0.2-1,0.4c-1.3,0.6-2.5,1.3-3.5,2.3c-0.5,0.5-1,1-1.4,1.5c-0.2,0.3-0.4,0.6-0.6,0.8l-0.3,0.4
		l-20.5,27.1c-1.3,1.7-2.4,3.7-2.1,5.8c0.3,2,1.9,3.7,3.6,5s3.7,2.4,5.8,2.1c2-0.3,3.7-1.9,5-3.6l20.5-27.1l0.3-0.4l3.2-1.1l8.1-2.7
		l5-1.7c-1.2,5.9-3.3,15.5-5.3,25.1c-0.4,1.9-0.8,3.8-1.2,5.7c-0.1,0.6-0.2,1.2-0.4,1.7c-0.2,0.9-0.5,1.9-0.5,2.8l-0.1,1.4l0,0.3
		l0,0.3l0.1,0.7c0.1,0.4,0,0.9,0.1,1.3c0.1,0.4,0.2,0.8,0.3,1.3c0.9,3.4,3.2,6.1,5.9,7.6c0.4,0.2,0.7,0.3,1.1,0.5
		c0.3,0.2,0.7,0.4,1.1,0.4c0.8,0.2,1.5,0.4,2.3,0.6c1.2,0.2,2.3,0.4,3.4,0.6c5.8,1,9.7,1.6,9.7,1.6c0.7,0.1,1.5,0.2,2.3,0.2
		c0.6,0.1,1.2,0.2,1.8,0.3l1.9,0.3l13.6,2.3l24.9,4.2l26,43.2c1.1,1.8,2.6,3.6,4.6,4.1c2,0.5,4.1-0.4,5.9-1.5c1.8-1,3.7-2.4,4.3-4.4
		C216,212.5,215.2,210.3,214.2,208.5"/>
</g>
</svg>
