<?xml version="1.0" encoding="utf-8"?>
<!-- Generator: Adobe Illustrator 25.4.1, SVG Export Plug-In . SVG Version: 6.00 Build 0)  -->
<svg version="1.1" id="Layer_1" xmlns="http://www.w3.org/2000/svg" xmlns:xlink="http://www.w3.org/1999/xlink" x="0px" y="0px"
	 viewBox="0 0 37.2 37.2" style="enable-background:new 0 0 37.2 37.2;" xml:space="preserve">
<style type="text/css">
	.st0{fill:#006FB6;}
	.st1{fill:none;}
	.st2{fill:#FFFFFF;}
</style>
<g>
	<path class="st0" d="M37.3,28.8c0,4.7-3.8,8.5-8.5,8.5H8.5c-4.7,0-8.5-3.8-8.5-8.5V8.5C0,3.8,3.8,0,8.5,0h20.3
		c4.7,0,8.5,3.8,8.5,8.5V28.8z"/>
</g>
<g>
	<g>
		<path class="st1" d="M13.4,25.5c-0.7,0-1.3,0.6-1.3,1.3c0,0.7,0.6,1.3,1.3,1.3c0.7,0,1.3-0.6,1.3-1.3
			C14.7,26.1,14.1,25.5,13.4,25.5z"/>
	</g>
	<g>
		<path class="st1" d="M28.4,25.5c-0.7,0-1.3,0.6-1.3,1.3c0,0.7,0.6,1.3,1.3,1.3c0.7,0,1.3-0.6,1.3-1.3
			C29.7,26.1,29.1,25.5,28.4,25.5z"/>
	</g>
	<g>
		<path class="st2" d="M28.4,23.7c-0.4,0-0.8,0.1-1.2,0.2l0,0l0,0L10.4,9C9.9,8.5,9.3,8.2,8.6,8.2C7,8.2,5.8,9.5,5.8,11
			c0,0.9,0.4,1.7,1.1,2.2l0.2,0.1c0.1,0,0.2,0.1,0.2,0.1c0.1,0,0.2-0.1,0.2-0.1l0.2-0.3c0-0.1,0.1-0.2,0.1-0.2
			c0-0.1-0.1-0.2-0.1-0.2l-0.2-0.1C7,12.1,6.7,11.6,6.7,11c0-1,0.8-1.8,1.8-1.8c0.5,0,0.9,0.2,1.2,0.5l2,1.8l1.2,3.7l1.5,4.6
			c0.1,0.4,0.4,0.8,0.8,1.2l0,0.1L13,23.7l0,0c-1.6,0.2-2.8,1.5-2.8,3.1c0,1.7,1.4,3.1,3.1,3.1s3.1-1.4,3.1-3.1
			c0-1.1-0.6-2.1-1.5-2.7l-0.1,0l1.7-2l0.1,0c0.5,0.2,0.9,0.3,1.4,0.3h5.9l2.4,2.1l-0.1,0.1c-0.6,0.6-1,1.4-1,2.3
			c0,1.7,1.4,3.1,3.1,3.1c1.7,0,3.1-1.4,3.1-3.1C31.5,25.1,30.1,23.7,28.4,23.7z M13.4,28.3c-0.8,0-1.5-0.7-1.5-1.5
			c0-0.8,0.7-1.5,1.5-1.5c0.8,0,1.5,0.7,1.5,1.5C14.9,27.7,14.2,28.3,13.4,28.3z M28.4,28.3c-0.8,0-1.5-0.7-1.5-1.5
			c0-0.8,0.7-1.5,1.5-1.5s1.5,0.7,1.5,1.5C29.9,27.7,29.2,28.3,28.4,28.3z"/>
	</g>
	<g>
		<path class="st2" d="M17.6,14c0.1,0.1,0.2,0.1,0.3,0.1c0.1,0,0.2-0.1,0.3-0.2l2.8-5C21,8.7,21,8.5,21,8.2
			c-0.1-0.2-0.3-0.4-0.5-0.5c-0.8-0.3-1.7-0.5-2.5-0.5c-0.5,0-1,0.1-1.5,0.2c-1.4,0.3-2.6,1-3.6,1.9c-0.1,0.1-0.1,0.2-0.1,0.3
			c0,0.1,0,0.2,0.1,0.3L17.6,14z"/>
	</g>
</g>
</svg>
