<?xml version="1.0" encoding="utf-8"?>
<!-- Generator: Adobe Illustrator 25.4.1, SVG Export Plug-In . SVG Version: 6.00 Build 0)  -->
<svg version="1.1" id="Layer_1" xmlns="http://www.w3.org/2000/svg" xmlns:xlink="http://www.w3.org/1999/xlink" x="0px" y="0px"
	 viewBox="0 0 283.465 283.465" enable-background="new 0 0 283.465 283.465" xml:space="preserve">
<g>
	<path fill="#64B5E5" d="M219.685,283.465H63.78C28.555,283.465,0,254.91,0,219.686V63.78C0,28.556,28.555,0.001,63.78,0.001
		h155.905c35.225,0,63.779,28.555,63.779,63.779v155.906C283.464,254.91,254.91,283.465,219.685,283.465"/>
	<path fill="#25303B" d="M248.133,132.441l-40.088-40.088c-1.064-1.064-2.946-1.064-4.009,0l-12.32,12.32l9.985-37.265
		c0.195-0.727,0.093-1.5-0.283-2.151c-0.376-0.651-0.995-1.126-1.721-1.321L147.125,49.85c-0.726-0.194-1.5-0.092-2.151,0.283
		c-0.65,0.376-1.126,0.995-1.32,1.721l-14.588,54.442H61.511c-6.576,0-11.906,5.331-11.906,11.906v82.488
		c0,6.575,5.33,11.906,11.906,11.906h78.363l14.051,14.051c0.554,0.554,1.279,0.832,2.005,0.832c0.726,0,1.451-0.278,2.004-0.83
		l14.053-14.053h35.791c6.576,0,11.906-5.331,11.906-11.906V164.9l28.448-28.449C249.24,135.344,249.24,133.549,248.133,132.441
		 M206.04,98.367l14.031,14.031l-41.561,41.561l10.272-38.333L206.04,98.367z M195.492,68.678l-30.228,112.809l-18.071-4.843
		L177.42,63.837L195.492,68.678z M96.377,156.186c0,2.192-1.777,3.969-3.969,3.969H74.833c-2.192,0-3.968-1.777-3.968-3.969v-17.575
		c0-2.191,1.776-3.968,3.968-3.968h17.575c2.192,0,3.969,1.777,3.969,3.968V156.186z M148.396,56.059l18.071,4.843L136.241,173.71
		l-18.071-4.842L148.396,56.059z M133.882,198.587l-14.031-14.031l7.388-7.388l22.131,5.93L133.882,198.587z M155.93,220.635
		l-14.031-14.031l20.118-20.118l4.517,1.21c0.247,0.066,0.493,0.097,0.736,0.097c1.252,0,2.397-0.836,2.736-2.101l2.634-9.829
		l55.448-55.449l14.031,14.032L155.93,220.635z"/>
</g>
</svg>
