<?xml version="1.0" encoding="utf-8"?>
<!-- Generator: Adobe Illustrator 25.4.1, SVG Export Plug-In . SVG Version: 6.00 Build 0)  -->
<svg version="1.1" id="Layer_1" xmlns="http://www.w3.org/2000/svg" xmlns:xlink="http://www.w3.org/1999/xlink" x="0px" y="0px"
	 viewBox="0 0 283.464 283.465" enable-background="new 0 0 283.464 283.465" xml:space="preserve">
<g>
	<path fill="#64B5E5" d="M219.685,283.465H63.78C28.555,283.465,0,254.91,0,219.686V63.78C0,28.556,28.555,0.001,63.78,0.001
		h155.905c35.225,0,63.779,28.555,63.779,63.779v155.906C283.464,254.91,254.91,283.465,219.685,283.465"/>
	<path fill="#25303B" d="M219.763,132.441l-40.088-40.089c-1.064-1.063-2.946-1.063-4.009,0l-12.32,12.321l9.985-37.266
		c0.195-0.726,0.093-1.5-0.283-2.151c-0.376-0.651-0.995-1.126-1.721-1.321L118.756,49.85c-0.727-0.194-1.5-0.092-2.152,0.283
		c-0.65,0.376-1.126,0.995-1.32,1.722L83.59,170.138c-0.195,0.725-0.093,1.5,0.283,2.15c0.376,0.652,0.995,1.127,1.721,1.322
		l6.952,1.863l-7.078,7.078c-1.107,1.106-1.107,2.901,0,4.008l40.088,40.088c0.553,0.553,1.278,0.831,2.004,0.831
		c0.726,0,1.451-0.278,2.004-0.83l90.198-90.199C220.87,135.342,220.87,133.549,219.763,132.441 M177.67,98.366l14.031,14.031
		l-41.561,41.561l10.272-38.333L177.67,98.366z M167.122,68.679l-30.228,112.808l-18.071-4.842L149.05,63.837L167.122,68.679z
		 M89.8,168.866L120.026,56.06l18.072,4.842l-30.227,112.807L89.8,168.866z M91.481,184.555l7.388-7.389l22.132,5.931
		l-15.489,15.489L91.481,184.555z M127.56,220.634l-14.031-14.03l20.118-20.119l4.518,1.211c0.246,0.065,0.492,0.096,0.735,0.096
		c1.252,0,2.397-0.835,2.737-2.101l2.633-9.828l55.448-55.449l14.031,14.031L127.56,220.634z"/>
</g>
</svg>
