<?xml version="1.0" encoding="utf-8"?>
<!-- Generator: Adobe Illustrator 25.4.1, SVG Export Plug-In . SVG Version: 6.00 Build 0)  -->
<svg version="1.1" id="Layer_1" xmlns="http://www.w3.org/2000/svg" xmlns:xlink="http://www.w3.org/1999/xlink" x="0px" y="0px"
	 viewBox="0 0 283.465 283.465" enable-background="new 0 0 283.465 283.465" xml:space="preserve">
<g>
	<path fill="#64B5E5" d="M219.685,283.465H63.78c-35.224,0-63.78-28.556-63.78-63.78V63.779C0,28.555,28.556,0,63.78,0h155.905
		c35.225,0,63.78,28.555,63.78,63.779v155.906C283.465,254.909,254.91,283.465,219.685,283.465"/>
	<path fill="#25303B" d="M214.865,92.124H68.597c-6.575,0-11.905,5.33-11.905,11.906v82.488c0,6.575,5.33,11.905,11.905,11.905
		h146.268c6.575,0,11.906-5.33,11.906-11.905V104.03C226.771,97.454,221.44,92.124,214.865,92.124 M103.463,142.014
		c0,2.191-1.776,3.969-3.968,3.969H81.92c-2.192,0-3.969-1.778-3.969-3.969v-17.575c0-2.192,1.777-3.968,3.969-3.968h17.575
		c2.192,0,3.968,1.776,3.968,3.968V142.014z"/>
</g>
</svg>
