<?xml version="1.0" encoding="utf-8"?>
<!-- Generator: Adobe Illustrator 25.4.1, SVG Export Plug-In . SVG Version: 6.00 Build 0)  -->
<svg version="1.1" id="Layer_1" xmlns="http://www.w3.org/2000/svg" xmlns:xlink="http://www.w3.org/1999/xlink" x="0px" y="0px"
	 viewBox="0 0 283.465 283.464" enable-background="new 0 0 283.465 283.464" xml:space="preserve">
<g>
	<defs>
		<rect id="SVGID_1_" width="283.465" height="283.464"/>
	</defs>
	<clipPath id="SVGID_00000063594331126236687380000006585109885363591353_">
		<use xlink:href="#SVGID_1_"  overflow="visible"/>
	</clipPath>
	<path clip-path="url(#SVGID_00000063594331126236687380000006585109885363591353_)" fill="#996017" d="M218.268,283.464H65.198
		C29.19,283.464,0,254.275,0,218.267V65.196C0,29.189,29.19,0,65.197,0h154.488c35.225,0,63.78,28.555,63.78,63.779v154.488
		C283.465,254.275,254.275,283.464,218.268,283.464"/>
	<path clip-path="url(#SVGID_00000063594331126236687380000006585109885363591353_)" fill="#FFFFFF" d="M230.488,83.23
		c-1.231,0-2.505,0.337-4.424,0.865c-4.278,1.171-12.305,3.383-28.361,3.383c-14.65,0-24.479-3.779-35.833-8.13
		c-14.063-5.405-29.972-11.529-58.509-11.529c-32.858,0-52.269,12.804-53.104,13.36l-0.001,0.001
		c-0.859,0.567-1.376,1.527-1.376,2.556V198.85c0,1.566,1.269,2.835,2.835,2.835h0.315c3.838,0,7.925-1.714,13.082-3.985
		c8.613-3.735,20.391-8.804,38.249-8.804c23.747,0,38.792,5.464,53.353,10.694c12.73,4.614,24.728,8.965,40.989,8.965
		c22.912,0,33.561-4.307,33.986-4.497l0.207-0.087c1.047-0.445,1.727-1.472,1.727-2.61V86.065c0-1.566-1.269-2.835-2.835-2.835
		H230.488z M112.254,179.135c-29.432-1.454-38.671,8.662-47.825,10.092c-1.093,0.171-2.089-0.651-2.093-1.757L61.98,89.786
		c-0.002-0.615,0.315-1.192,0.836-1.52c9.507-5.979,17.001-9.47,49.494-10.295c1.002-0.026,1.833,0.782,1.833,1.785v97.597
		C114.143,178.379,113.279,179.185,112.254,179.135 M168.741,193.201V95.602c0-1.19,1.146-2.057,2.284-1.711
		c19.973,6.084,43.09,2.522,50.103,1.197c1.104-0.208,2.117,0.643,2.11,1.767l-0.565,95.721c-0.005,0.793-0.531,1.485-1.292,1.706
		c-5.673,1.643-29.181,7.59-51.397,0.628C169.242,194.678,168.741,193.979,168.741,193.201"/>
</g>
</svg>
