<?xml version="1.0" encoding="utf-8"?>
<!-- Generator: Adobe Illustrator 25.4.1, SVG Export Plug-In . SVG Version: 6.00 Build 0)  -->
<svg version="1.1" id="Layer_1" xmlns="http://www.w3.org/2000/svg" xmlns:xlink="http://www.w3.org/1999/xlink" x="0px" y="0px"
	 viewBox="0 0 37.252 37.251" enable-background="new 0 0 37.252 37.251" xml:space="preserve">
<g>
	<path fill="#FFCC30" d="M37.251,28.777c0,4.661-3.813,8.475-8.475,8.475H8.475C3.813,37.252,0,33.438,0,28.777V8.475
		c0-4.661,3.813-8.474,8.475-8.474h20.301c4.662,0,8.475,3.813,8.475,8.474V28.777z"/>
	<path fill="#25303B" d="M21.993,18.034c0.468-0.334,1.029-0.441,1.555-0.346c-0.001-0.682-0.487-1.237-1.084-1.237
		s-1.083,0.556-1.083,1.239v0.783L21.993,18.034z"/>
	<path fill="#25303B" d="M25.261,13.029H11.99c-2.295,0-4.164,1.868-4.164,4.164v1.45c0,1.998,1.416,3.671,3.297,4.072v-1.686
		c-0.975-0.356-1.675-1.29-1.675-2.386v-1.45c0-1.402,1.141-2.541,2.542-2.541h13.271c1.401,0,2.541,1.139,2.541,2.541v1.45
		c0,0.943-0.517,1.765-1.281,2.204c0.241,0.335,0.467,0.647,0.642,0.889c0.108,0.147,0.186,0.304,0.25,0.464
		c1.203-0.731,2.011-2.049,2.011-3.557v-1.45C29.424,14.897,27.557,13.029,25.261,13.029"/>
	<path fill="#25303B" d="M13.146,18.664c-0.598,0-1.084,0.556-1.084,1.239v5.161c0,0.683,0.486,1.239,1.084,1.239
		c0.598,0,1.084-0.556,1.084-1.239v-5.161C14.23,19.22,13.744,18.664,13.146,18.664"/>
	<path fill="#25303B" d="M16.252,18.311c-0.598,0-1.084,0.556-1.084,1.239v6.452c0,0.684,0.486,1.24,1.084,1.24
		c0.598,0,1.083-0.556,1.083-1.24V19.55C17.335,18.867,16.85,18.311,16.252,18.311"/>
	<path fill="#25303B" d="M18.606,23.017l-0.019-0.026c-0.148-0.207-0.251-0.437-0.312-0.677v2.971c0,0.683,0.486,1.238,1.083,1.238
		c0.598,0,1.084-0.555,1.084-1.238v-1.428C19.748,23.914,19.041,23.624,18.606,23.017"/>
	<path fill="#25303B" d="M19.061,20.133l1.381-0.989v-0.313c0-0.683-0.486-1.239-1.084-1.239c-0.597,0-1.083,0.556-1.083,1.239v2.48
		C18.391,20.836,18.661,20.42,19.061,20.133"/>
	<path fill="#25303B" d="M26.339,22.339c-0.619-0.847-1.827-2.545-2.224-3.104l-0.094-0.133c-0.329-0.459-0.973-0.566-1.433-0.237
		l-0.963,0.69l-1.971,1.409c-0.22,0.159-0.368,0.396-0.413,0.667c-0.045,0.272,0.018,0.543,0.177,0.765l0.019,0.026
		c0.329,0.459,0.971,0.566,1.432,0.236l0.512-0.366l0.894-0.64c0.162-0.115,0.389-0.077,0.504,0.085l0.173,0.243
		c0.116,0.162,0.078,0.389-0.084,0.505l-1.404,1.005c-0.027,0.018-0.057,0.03-0.083,0.047v1.747c0,1.201-0.907,2.178-2.023,2.178
		c-0.491,0-0.941-0.19-1.291-0.504c-0.331,0.722-1.019,1.222-1.815,1.222c-0.856,0-1.588-0.576-1.883-1.387
		c-0.34,0.28-0.763,0.448-1.223,0.448c-0.943,0-1.735-0.699-1.958-1.64v1.569c0,0.609,0.172,1.148,0.513,1.603
		c0.409,0.544,1.151,1.548,1.417,1.91v1.432v0.748c0,0.2,0.163,0.363,0.363,0.363h8.46c0.199,0,0.362-0.163,0.362-0.363v-0.748
		v-1.749l0.08-0.125c0.036-0.057,3.619-5.677,3.904-6.139C26.585,23.62,26.704,22.838,26.339,22.339"/>
	<path fill="#25303B" d="M21.622,9.956c-0.063-0.102-0.717-1.164-0.717-1.164V6.92c0-1.006-0.637-1.86-1.529-2.189
		c-0.011-0.436-0.366-0.787-0.805-0.787c-0.439,0-0.794,0.351-0.805,0.787c-0.892,0.329-1.53,1.183-1.53,2.189v1.872
		c0,0-0.652,1.062-0.717,1.164c-0.046,0.075-0.038,0.212,0.111,0.212h5.883C21.66,10.168,21.67,10.031,21.622,9.956"/>
	<path fill="#25303B" d="M17.478,10.62c0.045,0.567,0.515,1.016,1.094,1.016c0.579,0,1.048-0.449,1.093-1.016H17.478z"/>
	<path fill="#25303B" d="M11.4,7.854c0.004-0.393,0.053-0.777,0.148-1.154c0.097-0.377,0.243-0.74,0.426-1.081
		c0.148-0.3,0.543-0.8,0.436-0.66h0.001V4.958h0.001l0.001-0.001l0.002-0.003l0.005-0.007l0.009-0.011l0.02-0.023
		c0.013-0.016,0.026-0.031,0.041-0.045c0.028-0.029,0.059-0.055,0.092-0.078c0.063-0.047,0.133-0.079,0.208-0.084
		c0.147-0.008,0.271,0.085,0.372,0.186c0.1,0.102,0.192,0.229,0.204,0.362c0.003,0.066-0.013,0.128-0.038,0.186
		c-0.014,0.029-0.03,0.057-0.047,0.083c-0.009,0.014-0.018,0.027-0.027,0.04L13.24,5.582l-0.007,0.009l-0.004,0.005l-0.002,0.003
		L13.226,5.6C13.307,5.494,13,5.883,12.885,6.115c-0.143,0.267-0.256,0.55-0.332,0.843c-0.073,0.292-0.112,0.598-0.115,0.896
		c0.003,0.298,0.042,0.604,0.115,0.896c0.076,0.293,0.189,0.576,0.332,0.843c0.115,0.232,0.422,0.621,0.341,0.515l0.001,0.001
		l0.002,0.003l0.004,0.004l0.007,0.009l0.014,0.02c0.009,0.013,0.018,0.026,0.027,0.04c0.017,0.026,0.033,0.054,0.047,0.083
		c0.025,0.058,0.041,0.12,0.038,0.186c-0.012,0.133-0.104,0.26-0.204,0.361c-0.101,0.102-0.225,0.195-0.372,0.187
		c-0.075-0.005-0.145-0.037-0.208-0.084c-0.033-0.023-0.064-0.049-0.092-0.078c-0.015-0.014-0.028-0.029-0.041-0.045l-0.02-0.023
		L12.42,10.76l-0.005-0.006l-0.002-0.003l-0.001-0.001l-0.001-0.001c0.106,0.14-0.289-0.36-0.437-0.66
		c-0.183-0.341-0.329-0.705-0.426-1.081C11.453,8.63,11.404,8.247,11.4,7.854"/>
	<path fill="#25303B" d="M13.687,9.409c0.094,0.146,0.233,0.28,0.385,0.3c0.152,0.014,0.276-0.08,0.377-0.181
		c0.1-0.101,0.191-0.229,0.209-0.356c0.015-0.128-0.04-0.234-0.101-0.328c-0.194-0.297-0.296-0.65-0.3-0.991
		c0.004-0.34,0.106-0.693,0.3-0.99c0.061-0.095,0.116-0.201,0.101-0.329c-0.018-0.126-0.109-0.254-0.209-0.355
		c-0.101-0.102-0.225-0.196-0.377-0.182c-0.152,0.021-0.291,0.154-0.385,0.301c-0.303,0.467-0.462,1.004-0.467,1.555
		C13.225,8.404,13.384,8.942,13.687,9.409"/>
	<path fill="#25303B" d="M25.725,7.854c-0.003,0.393-0.053,0.776-0.148,1.154c-0.096,0.376-0.242,0.74-0.426,1.081
		c-0.147,0.3-0.542,0.8-0.436,0.66l-0.001,0.001l-0.001,0.001l-0.002,0.003l-0.005,0.006l-0.009,0.012l-0.02,0.023
		c-0.014,0.016-0.027,0.031-0.041,0.045c-0.029,0.029-0.06,0.055-0.093,0.078c-0.063,0.047-0.133,0.079-0.208,0.084
		c-0.146,0.008-0.27-0.085-0.372-0.187c-0.1-0.101-0.191-0.228-0.203-0.361c-0.004-0.066,0.012-0.128,0.038-0.186
		c0.013-0.029,0.03-0.057,0.047-0.083c0.009-0.014,0.018-0.027,0.026-0.04l0.014-0.02l0.008-0.009l0.003-0.005l0.002-0.002
		l0.001-0.001H23.9c-0.082,0.106,0.225-0.283,0.341-0.515c0.142-0.267,0.255-0.55,0.331-0.843c0.074-0.292,0.113-0.598,0.116-0.896
		c-0.003-0.298-0.042-0.604-0.116-0.896c-0.076-0.293-0.189-0.576-0.331-0.843C24.125,5.883,23.818,5.494,23.9,5.6h-0.001
		l-0.001-0.001l-0.002-0.003l-0.003-0.004l-0.008-0.01l-0.014-0.019c-0.008-0.013-0.017-0.026-0.026-0.04
		c-0.017-0.026-0.034-0.054-0.047-0.083c-0.026-0.058-0.042-0.12-0.038-0.186c0.012-0.133,0.103-0.26,0.203-0.362
		c0.102-0.101,0.226-0.194,0.372-0.186c0.075,0.005,0.145,0.037,0.208,0.084c0.033,0.023,0.064,0.049,0.093,0.078
		c0.014,0.014,0.027,0.029,0.041,0.045l0.02,0.023l0.009,0.012l0.005,0.006l0.002,0.003l0.001,0.001h0.001v0.001
		c-0.106-0.14,0.289,0.36,0.436,0.66c0.184,0.341,0.33,0.704,0.426,1.081C25.672,7.078,25.722,7.461,25.725,7.854"/>
	<path fill="#25303B" d="M23.439,6.298c-0.094-0.146-0.233-0.28-0.385-0.3c-0.153-0.015-0.277,0.079-0.377,0.181
		c-0.1,0.101-0.191,0.229-0.21,0.356c-0.014,0.128,0.04,0.234,0.101,0.328c0.195,0.297,0.296,0.65,0.3,0.991
		c-0.004,0.34-0.105,0.693-0.3,0.99c-0.061,0.095-0.115,0.201-0.101,0.329c0.019,0.126,0.11,0.254,0.21,0.355
		c0.1,0.102,0.224,0.196,0.377,0.182c0.152-0.021,0.291-0.155,0.385-0.301c0.303-0.467,0.462-1.004,0.467-1.555
		C23.901,7.302,23.742,6.765,23.439,6.298"/>
</g>
</svg>
