<?xml version="1.0" encoding="utf-8"?>
<!-- Generator: Adobe Illustrator 25.4.1, SVG Export Plug-In . SVG Version: 6.00 Build 0)  -->
<svg version="1.1" id="Layer_1" xmlns="http://www.w3.org/2000/svg" xmlns:xlink="http://www.w3.org/1999/xlink" x="0px" y="0px"
	 viewBox="0 0 22.222 29.906" enable-background="new 0 0 22.222 29.906" xml:space="preserve">
<g>
	<g>
		<path fill="#FFCC30" d="M14.179,14.059v0.176l0.119-0.086c0.403-0.288,0.875-0.438,1.363-0.438h0.004
			c-0.114-0.339-0.393-0.579-0.715-0.579C14.524,13.132,14.179,13.548,14.179,14.059z"/>
		<path fill="#FFCC30" d="M20.025,18.109c0.991-0.726,1.573-1.861,1.573-3.098v-1.45c0-2.124-1.727-3.852-3.851-3.852H4.477
			c-2.124,0-3.852,1.728-3.852,3.852v1.45c0,1.675,1.103,3.158,2.672,3.665v-1.07c-1.009-0.46-1.674-1.477-1.674-2.595v-1.45
			c0-1.574,1.28-2.854,2.854-2.854h13.27c1.574,0,2.854,1.28,2.854,2.854v1.45c0,0.902-0.434,1.75-1.15,2.285
			c0.168,0.233,0.322,0.447,0.451,0.623C19.946,17.979,19.987,18.042,20.025,18.109z"/>
		<path fill="#FFCC30" d="M6.402,16.271c0-0.511-0.345-0.927-0.771-0.927c-0.425,0-0.771,0.416-0.771,0.927v5.16
			c0,0.512,0.346,0.927,0.771,0.927c0.426,0,0.771-0.415,0.771-0.927V16.271z"/>
		<path fill="#FFCC30" d="M9.508,15.918c0-0.511-0.345-0.927-0.771-0.927c-0.426,0-0.771,0.416-0.771,0.927v6.453
			c0,0.511,0.345,0.926,0.771,0.926c0.426,0,0.771-0.415,0.771-0.926V15.918z"/>
		<path fill="#FFCC30" d="M11.843,22.578c0.426,0,0.772-0.415,0.772-0.926V20.54c-0.589-0.032-1.135-0.278-1.543-0.694v1.806
			C11.072,22.163,11.418,22.578,11.843,22.578z"/>
		<path fill="#FFCC30" d="M11.844,14.273c-0.426,0-0.771,0.416-0.771,0.927v1.296c0.089-0.09,0.187-0.173,0.292-0.248l1.25-0.895
			V15.2C12.615,14.689,12.27,14.273,11.844,14.273z"/>
		<path fill="#FFCC30" d="M18.572,18.891c-0.573-0.784-1.641-2.283-2.226-3.107l-0.094-0.134c-0.229-0.318-0.676-0.392-0.996-0.163
			l-2.934,2.099c-0.153,0.11-0.256,0.275-0.287,0.464c-0.031,0.189,0.012,0.378,0.122,0.532c0.13,0.18,0.294,0.283,0.483,0.314
			c0.188,0.031,0.378-0.012,0.533-0.123l1.405-1.006c0.303-0.217,0.724-0.146,0.941,0.157l0.173,0.242
			c0.105,0.146,0.146,0.325,0.116,0.503c-0.03,0.177-0.127,0.333-0.273,0.438l-1.357,0.97v1.575c0,1.373-1.047,2.49-2.335,2.49
			c-0.421,0-0.833-0.123-1.192-0.35c-0.433,0.667-1.138,1.068-1.914,1.068c-0.828,0-1.597-0.482-2.012-1.231
			c-0.335,0.192-0.708,0.292-1.094,0.292c-0.634,0-1.219-0.272-1.646-0.725v0.342c0,0.54,0.152,1.016,0.451,1.415
			c0.408,0.545,1.152,1.55,1.419,1.913c0.04,0.054,0.062,0.119,0.062,0.185v2.18c0,0.027,0.023,0.05,0.049,0.05h8.46
			c0.028,0,0.05-0.023,0.05-0.05v-2.496c0-0.06,0.017-0.118,0.049-0.168l0.08-0.126c0.031-0.048,3.622-5.682,3.901-6.135
			C18.755,19.905,18.846,19.266,18.572,18.891z"/>
		<path fill="#FFCC30" d="M9.035,3.288V5.16c0,0.058-0.016,0.114-0.046,0.163c0,0-0.34,0.554-0.555,0.901h5.246
			c-0.214-0.347-0.554-0.901-0.554-0.901c-0.03-0.049-0.046-0.105-0.046-0.163V3.288c0-0.842-0.533-1.605-1.326-1.896
			c-0.12-0.044-0.2-0.157-0.204-0.285c-0.007-0.271-0.223-0.483-0.493-0.483c-0.269,0-0.486,0.212-0.493,0.483
			c-0.003,0.128-0.084,0.241-0.204,0.285C9.568,1.683,9.035,2.446,9.035,3.288z"/>
		<path fill="#FFCC30" d="M11.057,7.363c0.291,0,0.544-0.156,0.678-0.392h-1.354C10.519,7.205,10.773,7.363,11.057,7.363z"/>
		<path fill="#FFCC30" d="M4.008,3.145C3.919,3.496,3.872,3.858,3.869,4.222C3.872,4.585,3.919,4.947,4.008,5.3
			C4.095,5.641,4.23,5.981,4.407,6.309C4.516,6.532,4.722,6.81,4.803,6.912c0.031,0.032,0.1,0.104,0.129,0.129
			c0.02,0.015,0.034,0.017,0.037,0.017c0,0,0.038-0.004,0.129-0.095c0.086-0.086,0.111-0.147,0.113-0.168
			c0,0-0.002-0.009-0.012-0.034C5.194,6.749,5.185,6.736,5.176,6.723c-0.08-0.105-0.303-0.4-0.414-0.624
			C4.608,5.811,4.488,5.504,4.407,5.195c-0.079-0.317-0.122-0.643-0.125-0.97c0.003-0.33,0.047-0.665,0.125-0.976
			c0.08-0.31,0.201-0.617,0.36-0.914c0.098-0.199,0.407-0.612,0.407-0.612c0.011-0.017,0.02-0.03,0.026-0.044
			c0.004-0.01,0.011-0.029,0.011-0.042c-0.002-0.01-0.027-0.07-0.113-0.157C5.012,1.394,4.972,1.386,4.964,1.385
			c0,0.001-0.015,0.006-0.041,0.024c-0.02,0.015-0.039,0.03-0.056,0.047c-0.01,0.012-0.06,0.07-0.06,0.07
			C4.806,1.528,4.804,1.53,4.803,1.531c-0.077,0.103-0.3,0.406-0.392,0.593C4.23,2.462,4.096,2.802,4.008,3.145z"/>
		<path fill="#FFCC30" d="M6.436,2.835c-0.27,0.415-0.413,0.895-0.418,1.39c0.005,0.489,0.148,0.97,0.417,1.383
			c0,0,0,0.001,0.001,0.001c0.07,0.11,0.14,0.154,0.161,0.159C6.595,5.767,6.63,5.759,6.713,5.676
			c0.088-0.09,0.118-0.157,0.121-0.18C6.836,5.48,6.82,5.444,6.78,5.381C6.561,5.046,6.436,4.634,6.431,4.225
			c0.005-0.415,0.13-0.826,0.351-1.165c0.038-0.06,0.054-0.096,0.051-0.12C6.831,2.923,6.801,2.856,6.712,2.767
			c-0.085-0.087-0.12-0.09-0.125-0.09H6.586C6.58,2.678,6.508,2.72,6.436,2.835z"/>
		<path fill="#FFCC30" d="M18.089,5.298c0.089-0.351,0.136-0.714,0.138-1.077c-0.002-0.363-0.049-0.726-0.138-1.078
			c-0.088-0.342-0.222-0.681-0.399-1.01c-0.095-0.193-0.316-0.497-0.395-0.601c-0.001-0.001-0.002-0.002-0.002-0.003
			c-0.007-0.007-0.016-0.018-0.022-0.026L17.225,1.45c-0.012-0.01-0.031-0.026-0.049-0.04c-0.031-0.022-0.045-0.026-0.048-0.026
			c0,0-0.039,0.006-0.129,0.096c-0.086,0.086-0.112,0.147-0.114,0.169c0-0.001,0.004,0.011,0.013,0.033
			c0.004,0.011,0.013,0.023,0.022,0.036l0.018,0.029c0.028,0.036,0.268,0.337,0.396,0.597c0.155,0.288,0.275,0.595,0.354,0.903
			c0.08,0.317,0.122,0.643,0.126,0.971c-0.004,0.334-0.046,0.66-0.126,0.976c-0.079,0.309-0.199,0.616-0.358,0.913
			c-0.099,0.2-0.231,0.428-0.376,0.568c-0.009,0.013-0.033,0.047-0.034,0.049c-0.009,0.013-0.018,0.027-0.025,0.041
			c-0.003,0.009-0.01,0.028-0.009,0.042c0.001,0.009,0.027,0.069,0.113,0.156c0.088,0.087,0.126,0.094,0.134,0.094
			c-0.001,0,0.014-0.004,0.041-0.024c0.02-0.015,0.039-0.03,0.056-0.047l0.025-0.028l0.004,0.003
			c0.007-0.012,0.013-0.022,0.02-0.032c0.001-0.002,0.003-0.004,0.004-0.005c0.004-0.005,0.008-0.01,0.012-0.014
			c0.079-0.105,0.3-0.407,0.39-0.591C17.867,5.981,18.001,5.642,18.089,5.298z"/>
		<path fill="#FFCC30" d="M15.51,5.767c0.007-0.002,0.079-0.045,0.151-0.158c0.269-0.415,0.413-0.895,0.418-1.39
			c-0.005-0.489-0.149-0.969-0.417-1.383c-0.001,0-0.001-0.001-0.001-0.001c-0.07-0.11-0.14-0.154-0.161-0.159
			c0.001,0.001-0.034,0.008-0.116,0.091c-0.089,0.09-0.118,0.158-0.122,0.18c-0.002,0.017,0.014,0.053,0.054,0.116
			c0.22,0.336,0.345,0.747,0.349,1.155c-0.004,0.416-0.129,0.828-0.351,1.166c-0.038,0.06-0.054,0.097-0.051,0.12
			c0.003,0.016,0.032,0.083,0.121,0.173C15.475,5.768,15.51,5.767,15.51,5.767z"/>
	</g>
	<path fill="#25303B" d="M3.609,19.394c-0.022,0-0.043-0.002-0.065-0.007C1.491,18.95,0,17.109,0,15.011v-1.45
		c0-2.468,2.009-4.476,4.477-4.476h13.27c2.467,0,4.476,2.008,4.476,4.476v1.45c0,1.573-0.809,3.002-2.162,3.824
		c-0.078,0.047-0.16,0.079-0.26,0.029c-0.196-0.097-0.806-1.132-1.048-1.467c-0.05-0.072-0.07-0.162-0.051-0.248
		c0.019-0.086,0.073-0.161,0.15-0.205c0.693-0.398,1.124-1.139,1.124-1.933v-1.45c0-1.23-1-2.23-2.229-2.23H4.477
		c-1.229,0-2.229,1-2.229,2.23v1.45c0,0.931,0.589,1.772,1.468,2.093c0.123,0.044,0.205,0.162,0.205,0.292v1.686
		c0,0.094-0.043,0.184-0.116,0.243C3.749,19.37,3.68,19.394,3.609,19.394 M4.477,9.709c-2.124,0-3.852,1.728-3.852,3.852v1.45
		c0,1.675,1.103,3.158,2.672,3.665v-1.07c-1.009-0.46-1.674-1.477-1.674-2.595v-1.45c0-1.574,1.28-2.854,2.854-2.854h13.27
		c1.574,0,2.854,1.28,2.854,2.854v1.45c0,0.902-0.434,1.75-1.15,2.285c0.168,0.233,0.322,0.447,0.451,0.623
		c0.044,0.06,0.085,0.123,0.123,0.19c0.991-0.726,1.573-1.861,1.573-3.098v-1.45c0-2.124-1.727-3.852-3.851-3.852H4.477z"/>
	<path fill="#25303B" d="M15.516,6.389c-0.304,0-0.506-0.204-0.576-0.274c-0.117-0.119-0.264-0.307-0.295-0.531
		c-0.029-0.235,0.063-0.412,0.146-0.541c0.158-0.242,0.247-0.535,0.25-0.826c-0.003-0.283-0.092-0.576-0.249-0.816
		c-0.084-0.131-0.176-0.309-0.148-0.536c0.032-0.231,0.179-0.419,0.296-0.538c0.075-0.075,0.299-0.302,0.629-0.273
		c0.319,0.043,0.523,0.295,0.618,0.442c0.332,0.513,0.51,1.109,0.516,1.722c-0.006,0.619-0.184,1.215-0.517,1.728
		c-0.093,0.146-0.297,0.399-0.605,0.44C15.559,6.388,15.537,6.389,15.516,6.389 M15.5,2.675c0.001,0.001-0.034,0.008-0.116,0.091
		c-0.089,0.09-0.118,0.158-0.122,0.18c-0.002,0.017,0.014,0.053,0.054,0.116c0.22,0.336,0.345,0.747,0.349,1.155
		c-0.004,0.416-0.129,0.828-0.351,1.166c-0.038,0.06-0.054,0.097-0.051,0.12c0.003,0.016,0.032,0.083,0.121,0.173
		c0.091,0.092,0.126,0.09,0.126,0.09c0.007-0.002,0.079-0.045,0.151-0.158c0.269-0.415,0.413-0.895,0.418-1.39
		c-0.005-0.489-0.149-0.969-0.417-1.383c-0.001,0-0.001-0.001-0.001-0.001C15.591,2.724,15.521,2.68,15.5,2.675"/>
	<path fill="#25303B" d="M17.138,7.681c-0.304,0-0.511-0.208-0.581-0.278c-0.178-0.179-0.277-0.366-0.294-0.554
		c-0.006-0.121,0.015-0.231,0.063-0.34c0.023-0.048,0.047-0.089,0.073-0.129c0.006-0.01,0.019-0.029,0.032-0.048
		c0.002-0.003,0.018-0.025,0.02-0.029c0.004-0.003,0.018-0.022,0.022-0.026c0.001-0.001,0.002-0.003,0.003-0.005
		c0.067-0.087,0.232-0.316,0.298-0.451c0.141-0.262,0.243-0.521,0.31-0.781c0.066-0.263,0.103-0.548,0.106-0.822
		c-0.003-0.268-0.04-0.552-0.106-0.817c-0.067-0.259-0.169-0.518-0.305-0.771c-0.086-0.174-0.253-0.397-0.31-0.47
		c-0.003-0.003-0.019-0.024-0.022-0.027c-0.029-0.04-0.041-0.059-0.053-0.079c-0.022-0.032-0.046-0.074-0.066-0.118
		c-0.05-0.112-0.071-0.221-0.066-0.329c0.018-0.202,0.116-0.388,0.295-0.567c0.072-0.073,0.291-0.293,0.609-0.279
		c0.135,0.01,0.26,0.059,0.377,0.144c0.043,0.031,0.087,0.067,0.127,0.108c0.284,0.284,0.545,0.772,0.575,0.835
		c0.195,0.362,0.349,0.749,0.448,1.141c0.102,0.403,0.156,0.816,0.158,1.229v0.006c-0.002,0.413-0.056,0.826-0.158,1.227
		c-0.1,0.394-0.253,0.782-0.453,1.154c-0.027,0.054-0.229,0.458-0.453,0.688c-0.003,0.004-0.007,0.008-0.01,0.012
		c-0.006,0.009-0.023,0.03-0.026,0.034c-0.002,0.002-0.023,0.026-0.024,0.027c-0.016,0.02-0.034,0.038-0.051,0.058
		c-0.047,0.045-0.09,0.082-0.136,0.114c-0.115,0.085-0.24,0.134-0.368,0.143C17.16,7.681,17.148,7.681,17.138,7.681 M16.954,6.675
		c-0.009,0.013-0.033,0.047-0.034,0.049c-0.009,0.013-0.018,0.027-0.025,0.041c-0.003,0.009-0.01,0.028-0.009,0.042
		c0.001,0.009,0.027,0.069,0.113,0.156c0.088,0.087,0.126,0.094,0.134,0.094c-0.001,0,0.014-0.004,0.041-0.024
		c0.02-0.015,0.039-0.03,0.056-0.047l0.025-0.028l0.004,0.003c0.007-0.012,0.013-0.022,0.02-0.032
		c0.001-0.002,0.003-0.004,0.004-0.005c0.004-0.005,0.008-0.01,0.012-0.014c0.079-0.105,0.3-0.407,0.39-0.591
		c0.182-0.338,0.316-0.678,0.404-1.021c0.089-0.351,0.136-0.714,0.138-1.077c-0.002-0.363-0.049-0.726-0.138-1.078
		c-0.088-0.342-0.222-0.681-0.399-1.01c-0.095-0.193-0.316-0.497-0.395-0.601c-0.001-0.001-0.002-0.002-0.002-0.003
		c-0.007-0.007-0.016-0.018-0.022-0.026L17.225,1.45c-0.012-0.01-0.031-0.026-0.049-0.04c-0.031-0.022-0.045-0.026-0.048-0.026
		c0,0-0.039,0.006-0.129,0.096c-0.086,0.086-0.112,0.147-0.114,0.169c0-0.001,0.004,0.011,0.013,0.033
		c0.004,0.011,0.013,0.023,0.022,0.036l0.018,0.029c0.028,0.036,0.268,0.337,0.396,0.597c0.155,0.288,0.275,0.595,0.354,0.903
		c0.08,0.317,0.122,0.643,0.126,0.971c-0.004,0.334-0.046,0.66-0.126,0.976c-0.079,0.309-0.199,0.616-0.358,0.913
		C17.231,6.307,17.099,6.535,16.954,6.675"/>
	<path fill="#25303B" d="M6.589,6.39c-0.021,0-0.041-0.001-0.062-0.003C6.209,6.345,6.005,6.093,5.91,5.946
		C5.577,5.433,5.4,4.838,5.394,4.224C5.4,3.604,5.578,3.009,5.911,2.495C6.004,2.35,6.208,2.097,6.516,2.056
		c0.34-0.03,0.566,0.196,0.64,0.271c0.118,0.119,0.265,0.307,0.296,0.532c0.029,0.233-0.063,0.411-0.146,0.54
		C7.147,3.641,7.059,3.934,7.055,4.224c0.004,0.285,0.092,0.577,0.249,0.817C7.389,5.172,7.481,5.35,7.453,5.577
		c-0.032,0.23-0.179,0.419-0.297,0.538C7.086,6.186,6.883,6.39,6.589,6.39 M6.599,5.767h0.003H6.599z M6.587,2.676H6.586
		C6.58,2.677,6.508,2.72,6.436,2.834c-0.27,0.415-0.413,0.895-0.418,1.39c0.005,0.489,0.148,0.97,0.417,1.383
		c0,0,0,0.001,0.001,0.001c0.07,0.11,0.14,0.154,0.161,0.159C6.595,5.766,6.63,5.759,6.713,5.676c0.088-0.09,0.118-0.157,0.121-0.18
		C6.836,5.479,6.82,5.443,6.78,5.381C6.561,5.045,6.436,4.633,6.431,4.224c0.005-0.415,0.13-0.826,0.351-1.165
		c0.038-0.06,0.054-0.096,0.051-0.12C6.831,2.923,6.801,2.856,6.712,2.766C6.627,2.679,6.592,2.676,6.587,2.676"/>
	<path fill="#25303B" d="M4.964,7.683c-0.012,0-0.022-0.001-0.033-0.001c-0.136-0.01-0.26-0.059-0.377-0.145
		C4.538,7.526,4.501,7.499,4.342,7.333C4.319,7.309,4.011,6.919,3.851,6.595c-0.195-0.362-0.348-0.75-0.448-1.141
		c-0.101-0.403-0.155-0.816-0.159-1.23V4.219c0.004-0.414,0.058-0.827,0.159-1.228c0.1-0.393,0.254-0.781,0.454-1.153
		C3.883,1.783,4.086,1.379,4.31,1.149l0.009-0.011l0.002,0.001C4.325,1.135,4.329,1.13,4.333,1.126L4.33,1.124
		c0.001-0.002,0.076-0.088,0.092-0.106C4.466,0.974,4.51,0.937,4.556,0.904c0.115-0.084,0.24-0.133,0.368-0.142
		C5.241,0.746,5.467,0.967,5.54,1.04c0.178,0.179,0.277,0.365,0.293,0.554c0.006,0.121-0.015,0.231-0.063,0.34
		C5.749,1.98,5.725,2.022,5.699,2.062C5.693,2.071,5.637,2.149,5.637,2.149C5.635,2.152,5.633,2.155,5.631,2.157
		C5.573,2.231,5.392,2.479,5.322,2.621c-0.14,0.262-0.243,0.522-0.309,0.782C4.947,3.666,4.909,3.951,4.907,4.225
		c0.002,0.268,0.04,0.552,0.106,0.816c0.066,0.26,0.169,0.519,0.304,0.772C5.378,5.936,5.494,6.11,5.666,6.338
		C5.688,6.366,5.7,6.385,5.702,6.388c0.023,0.034,0.047,0.075,0.067,0.119c0.049,0.112,0.07,0.221,0.065,0.33
		c-0.017,0.2-0.116,0.387-0.294,0.566C5.47,7.474,5.262,7.683,4.964,7.683 M4.803,6.912c0.031,0.032,0.1,0.104,0.129,0.129
		c0.02,0.015,0.034,0.017,0.037,0.017c0,0,0.038-0.004,0.129-0.095c0.086-0.086,0.111-0.147,0.113-0.168
		c0,0-0.002-0.009-0.012-0.034C5.194,6.749,5.185,6.736,5.176,6.723c-0.08-0.105-0.303-0.4-0.414-0.624
		C4.608,5.811,4.488,5.504,4.407,5.195c-0.079-0.317-0.122-0.643-0.125-0.97c0.003-0.33,0.047-0.665,0.125-0.976
		c0.08-0.31,0.201-0.617,0.36-0.914c0.098-0.199,0.407-0.612,0.407-0.612c0.011-0.017,0.02-0.03,0.026-0.044
		c0.004-0.01,0.011-0.029,0.011-0.042c-0.002-0.01-0.027-0.07-0.113-0.157C5.012,1.394,4.972,1.386,4.964,1.385
		c0,0.001-0.015,0.006-0.041,0.024c-0.02,0.015-0.039,0.03-0.056,0.047c-0.01,0.012-0.06,0.07-0.06,0.07
		C4.806,1.528,4.804,1.53,4.803,1.531c-0.077,0.103-0.3,0.406-0.392,0.593C4.23,2.462,4.096,2.802,4.008,3.145
		C3.919,3.496,3.872,3.858,3.869,4.222C3.872,4.585,3.919,4.947,4.008,5.3C4.095,5.641,4.23,5.981,4.407,6.309
		C4.516,6.532,4.722,6.81,4.803,6.912"/>
	<path fill="#25303B" d="M14.372,6.157c-0.053-0.085-0.518-0.842-0.667-1.085V3.288c0-1.038-0.619-1.982-1.555-2.408
		C12.04,0.372,11.596,0,11.057,0c-0.538,0-0.983,0.372-1.092,0.88C9.028,1.306,8.411,2.25,8.411,3.288v1.784
		c-0.15,0.243-0.616,1-0.668,1.085C7.652,6.3,7.644,6.484,7.722,6.627c0.076,0.139,0.224,0.222,0.394,0.222h1.582
		c0.134,0.646,0.688,1.138,1.359,1.138s1.224-0.492,1.358-1.138h1.582c0.17,0,0.318-0.083,0.394-0.222
		C14.471,6.484,14.463,6.3,14.372,6.157z M11.057,7.363c-0.284,0-0.538-0.158-0.676-0.392h1.354
		C11.601,7.207,11.348,7.363,11.057,7.363z M8.434,6.224c0.215-0.347,0.555-0.901,0.555-0.901c0.03-0.049,0.046-0.105,0.046-0.163
		V3.288c0-0.842,0.533-1.605,1.325-1.896c0.12-0.044,0.201-0.157,0.204-0.285c0.007-0.271,0.224-0.483,0.493-0.483
		c0.27,0,0.486,0.212,0.493,0.483c0.004,0.128,0.084,0.241,0.204,0.285c0.793,0.291,1.326,1.054,1.326,1.896V5.16
		c0,0.058,0.016,0.114,0.046,0.163c0,0,0.34,0.554,0.554,0.901H8.434z"/>
	<path fill="#25303B" d="M5.631,22.983c-0.77,0-1.396-0.696-1.396-1.552v-5.16c0-0.856,0.626-1.552,1.396-1.552
		c0.771,0,1.396,0.696,1.396,1.552v5.16C7.027,22.287,6.402,22.983,5.631,22.983 M5.631,15.344c-0.425,0-0.771,0.416-0.771,0.927
		v5.16c0,0.512,0.346,0.927,0.771,0.927c0.426,0,0.771-0.415,0.771-0.927v-5.16C6.402,15.76,6.057,15.344,5.631,15.344"/>
	<path fill="#25303B" d="M8.737,23.921c-0.77,0-1.396-0.696-1.396-1.551v-6.453c0-0.855,0.626-1.551,1.396-1.551
		c0.77,0,1.396,0.696,1.396,1.551v6.453C10.133,23.225,9.507,23.921,8.737,23.921 M8.737,14.99c-0.426,0-0.771,0.416-0.771,0.927
		v6.453c0,0.511,0.345,0.926,0.771,0.926c0.426,0,0.771-0.415,0.771-0.926v-6.453C9.508,15.406,9.163,14.99,8.737,14.99"/>
	<path fill="#25303B" d="M11.843,23.203c-0.769,0-1.395-0.696-1.395-1.551v-2.971c0-0.157,0.116-0.29,0.272-0.31
		c0.153-0.02,0.302,0.079,0.342,0.232c0.055,0.213,0.144,0.406,0.264,0.574c0.001,0,0.016,0.022,0.019,0.026
		c0.356,0.496,0.938,0.762,1.557,0.71c0.088-0.006,0.173,0.023,0.237,0.082s0.101,0.142,0.101,0.229v1.428
		C13.24,22.507,12.613,23.203,11.843,23.203 M11.072,19.846v1.806c0,0.511,0.346,0.926,0.771,0.926c0.426,0,0.772-0.415,0.772-0.926
		V20.54C12.026,20.508,11.48,20.262,11.072,19.846"/>
	<path fill="#25303B" d="M10.761,17.992c-0.013,0-0.025-0.001-0.038-0.003c-0.157-0.018-0.275-0.152-0.275-0.309V15.2
		c0-0.856,0.626-1.552,1.396-1.552c0.77,0,1.396,0.696,1.396,1.552v0.313c0,0.101-0.048,0.196-0.13,0.254l-1.382,0.988
		c-0.333,0.239-0.563,0.584-0.664,0.999C11.029,17.895,10.903,17.992,10.761,17.992 M11.546,16.502h0.004H11.546z M11.844,14.273
		c-0.426,0-0.771,0.416-0.771,0.927v1.296c0.089-0.09,0.187-0.173,0.292-0.248l1.25-0.895V15.2
		C12.615,14.689,12.27,14.273,11.844,14.273"/>
	<path fill="#25303B" d="M13.866,15.154c-0.049,0-0.098-0.012-0.143-0.035c-0.103-0.053-0.169-0.16-0.169-0.278v-0.782
		c0-0.856,0.626-1.552,1.396-1.552c0.769,0,1.395,0.695,1.396,1.549c0,0.093-0.042,0.18-0.112,0.24
		c-0.071,0.059-0.164,0.084-0.256,0.067c-0.467-0.084-0.935,0.02-1.317,0.293l-0.613,0.439
		C13.994,15.134,13.93,15.154,13.866,15.154 M14.95,13.132c-0.426,0-0.771,0.416-0.771,0.927v0.176l0.119-0.086
		c0.403-0.288,0.875-0.438,1.363-0.438h0.004C15.551,13.372,15.272,13.132,14.95,13.132"/>
	<path fill="#25303B" d="M5.966,29.906c-0.372,0-0.674-0.303-0.674-0.675v-2.077c-0.306-0.414-0.975-1.32-1.355-1.827
		c-0.382-0.509-0.576-1.111-0.576-1.789v-1.569c0-0.158,0.119-0.292,0.276-0.31c0.155-0.018,0.303,0.084,0.34,0.238
		c0.195,0.824,0.875,1.4,1.654,1.4c0.371,0,0.726-0.13,1.026-0.377c0.078-0.064,0.182-0.086,0.28-0.06
		c0.098,0.027,0.176,0.099,0.211,0.194c0.261,0.718,0.885,1.182,1.589,1.182c0.651,0,1.238-0.398,1.53-1.04
		c0.042-0.09,0.123-0.155,0.221-0.176c0.097-0.02,0.198,0.007,0.271,0.073c0.306,0.274,0.691,0.424,1.084,0.424
		c0.944,0,1.711-0.836,1.711-1.865v-1.747c0-0.105,0.053-0.204,0.142-0.262c0.02-0.013,0.042-0.025,0.063-0.036l1.413-1.008
		c0.019-0.014,0.026-0.051,0.012-0.07l-0.173-0.243c-0.015-0.022-0.048-0.027-0.07-0.011l-1.405,1.005
		c-0.29,0.208-0.644,0.291-0.998,0.232c-0.353-0.058-0.662-0.251-0.87-0.541c-0.226-0.315-0.308-0.67-0.248-1.023
		c0.057-0.354,0.249-0.663,0.539-0.87l2.933-2.098c0.6-0.43,1.438-0.292,1.867,0.308l0.096,0.134
		c0.584,0.823,1.65,2.319,2.221,3.101c0.451,0.615,0.322,1.528-0.038,2.111c-0.294,0.477-3.876,6.096-3.907,6.144L15.1,26.825v2.406
		c0,0.372-0.302,0.674-0.674,0.674L5.966,29.906z M3.985,23.196v0.342c0,0.54,0.152,1.016,0.451,1.415
		c0.408,0.545,1.152,1.55,1.419,1.913c0.04,0.054,0.062,0.119,0.062,0.185v2.18c0,0.027,0.023,0.05,0.049,0.05h8.46
		c0.028,0,0.05-0.023,0.05-0.05v-2.496c0-0.06,0.017-0.118,0.049-0.168l0.08-0.126c0.031-0.048,3.622-5.682,3.901-6.135
		c0.249-0.401,0.34-1.04,0.066-1.415c-0.573-0.784-1.641-2.283-2.226-3.107l-0.094-0.134c-0.229-0.318-0.676-0.392-0.996-0.163
		l-2.934,2.099c-0.153,0.11-0.256,0.275-0.287,0.464s0.012,0.378,0.122,0.532c0.13,0.18,0.294,0.283,0.483,0.314
		c0.188,0.031,0.378-0.012,0.533-0.123l1.405-1.006c0.303-0.217,0.724-0.146,0.941,0.157l0.173,0.242
		c0.105,0.146,0.146,0.325,0.116,0.503c-0.03,0.177-0.127,0.333-0.273,0.438l-1.357,0.97v1.575c0,1.373-1.047,2.49-2.335,2.49
		c-0.421,0-0.833-0.123-1.192-0.35c-0.433,0.667-1.138,1.068-1.914,1.068c-0.828,0-1.597-0.482-2.012-1.231
		c-0.335,0.192-0.708,0.292-1.094,0.292C4.997,23.921,4.412,23.649,3.985,23.196"/>
</g>
</svg>
