<?xml version="1.0" encoding="utf-8"?>
<!-- Generator: Adobe Illustrator 25.4.1, SVG Export Plug-In . SVG Version: 6.00 Build 0)  -->
<svg version="1.1" id="Layer_1" xmlns="http://www.w3.org/2000/svg" xmlns:xlink="http://www.w3.org/1999/xlink" x="0px" y="0px"
	 viewBox="0 0 37.252 37.251" enable-background="new 0 0 37.252 37.251" xml:space="preserve">
<g>
	<path fill="#25303B" d="M37.252,28.777c0,4.661-3.814,8.475-8.476,8.475H8.475C3.814,37.252,0,33.438,0,28.777V8.475
		C0,3.814,3.814,0,8.475,0h20.301c4.662,0,8.476,3.814,8.476,8.475V28.777z"/>
	<path fill="#FFFFFF" d="M21.993,18.035c0.468-0.334,1.029-0.441,1.555-0.347c-0.001-0.682-0.487-1.236-1.084-1.236
		s-1.083,0.556-1.083,1.239v0.782L21.993,18.035z"/>
	<path fill="#FFCC30" d="M25.261,13.029H11.99c-2.295,0-4.164,1.868-4.164,4.164v1.45c0,1.998,1.416,3.671,3.297,4.071v-1.685
		c-0.974-0.356-1.675-1.29-1.675-2.386v-1.45c0-1.402,1.141-2.542,2.542-2.542h13.271c1.401,0,2.541,1.14,2.541,2.542v1.45
		c0,0.943-0.517,1.765-1.281,2.204c0.241,0.335,0.467,0.647,0.642,0.889c0.109,0.147,0.186,0.304,0.25,0.464
		c1.203-0.731,2.012-2.049,2.012-3.557v-1.45C29.425,14.897,27.557,13.029,25.261,13.029"/>
	<path fill="#FFFFFF" d="M13.146,18.664c-0.598,0-1.084,0.556-1.084,1.239v5.16c0,0.684,0.486,1.24,1.084,1.24
		c0.598,0,1.084-0.556,1.084-1.24v-5.16C14.23,19.22,13.744,18.664,13.146,18.664"/>
	<path fill="#FFFFFF" d="M16.252,18.31c-0.598,0-1.084,0.556-1.084,1.239v6.453c0,0.683,0.486,1.239,1.084,1.239
		c0.598,0,1.084-0.556,1.084-1.239v-6.453C17.336,18.866,16.85,18.31,16.252,18.31"/>
	<path fill="#FFFFFF" d="M18.606,23.016l-0.019-0.026c-0.148-0.207-0.251-0.437-0.312-0.677v2.971c0,0.683,0.486,1.238,1.083,1.238
		c0.598,0,1.085-0.555,1.085-1.238v-1.428C19.748,23.913,19.041,23.623,18.606,23.016"/>
	<path fill="#FFFFFF" d="M19.061,20.134l1.382-0.989v-0.313c0-0.683-0.487-1.239-1.085-1.239c-0.597,0-1.083,0.556-1.083,1.239v2.48
		C18.391,20.837,18.661,20.42,19.061,20.134"/>
	<path fill="#FFFFFF" d="M26.339,22.339c-0.619-0.846-1.827-2.545-2.224-3.104l-0.094-0.133c-0.329-0.459-0.973-0.565-1.432-0.236
		l-0.964,0.689l-1.971,1.409c-0.22,0.159-0.368,0.396-0.413,0.667c-0.045,0.272,0.018,0.543,0.177,0.765l0.019,0.026
		c0.329,0.46,0.971,0.566,1.432,0.237l0.512-0.366l0.894-0.64c0.162-0.116,0.389-0.078,0.504,0.084l0.173,0.243
		c0.116,0.162,0.078,0.389-0.084,0.505l-1.404,1.005c-0.026,0.019-0.057,0.03-0.083,0.048v1.746c0,1.201-0.907,2.178-2.023,2.178
		c-0.491,0-0.941-0.189-1.291-0.504c-0.331,0.722-1.019,1.222-1.815,1.222c-0.856,0-1.588-0.576-1.883-1.386
		c-0.34,0.279-0.763,0.447-1.223,0.447c-0.943,0-1.735-0.698-1.958-1.64v1.569c0,0.609,0.172,1.148,0.513,1.603
		c0.409,0.544,1.151,1.548,1.417,1.911v1.431v0.749c0,0.199,0.163,0.362,0.363,0.362h8.46c0.199,0,0.362-0.163,0.362-0.362v-0.749
		v-1.748l0.08-0.126c0.036-0.056,3.619-5.677,3.904-6.138C26.585,23.62,26.704,22.839,26.339,22.339"/>
	<path fill="#FFCC30" d="M21.622,9.955c-0.063-0.101-0.716-1.164-0.716-1.164V6.919c0-1.006-0.638-1.86-1.53-2.189
		c-0.011-0.436-0.366-0.786-0.805-0.786c-0.438,0-0.794,0.35-0.805,0.786c-0.892,0.329-1.53,1.183-1.53,2.189v1.872
		c0,0-0.652,1.063-0.717,1.164c-0.046,0.075-0.037,0.213,0.111,0.213h5.883C21.66,10.168,21.67,10.03,21.622,9.955"/>
	<path fill="#FFCC30" d="M17.478,10.62c0.045,0.568,0.515,1.016,1.094,1.016c0.579,0,1.049-0.448,1.093-1.016H17.478z"/>
	<path fill="#FFCC30" d="M11.4,7.853c0.004-0.393,0.054-0.776,0.148-1.154c0.097-0.376,0.243-0.74,0.426-1.081
		c0.148-0.3,0.543-0.8,0.437-0.66l0.001-0.001l0.001-0.001l0.002-0.003l0.005-0.006l0.009-0.012l0.02-0.023
		c0.013-0.016,0.026-0.031,0.041-0.045c0.028-0.029,0.059-0.055,0.092-0.078c0.063-0.047,0.133-0.079,0.208-0.084
		c0.147-0.008,0.271,0.085,0.372,0.187c0.1,0.101,0.192,0.228,0.204,0.361c0.003,0.066-0.013,0.128-0.038,0.186
		c-0.013,0.029-0.03,0.057-0.047,0.083c-0.009,0.014-0.018,0.027-0.027,0.04l-0.014,0.02l-0.007,0.009l-0.004,0.005l-0.002,0.002
		l-0.001,0.001c0.081-0.106-0.225,0.283-0.341,0.515c-0.142,0.267-0.256,0.55-0.332,0.843c-0.073,0.292-0.112,0.598-0.115,0.896
		c0.003,0.298,0.042,0.604,0.115,0.896c0.076,0.293,0.19,0.576,0.332,0.843c0.116,0.233,0.422,0.622,0.341,0.515l0.001,0.001
		l0.002,0.003l0.004,0.005l0.007,0.009l0.014,0.019c0.009,0.013,0.018,0.026,0.027,0.04c0.017,0.027,0.034,0.054,0.047,0.083
		c0.025,0.058,0.041,0.121,0.038,0.187c-0.012,0.132-0.104,0.259-0.204,0.361c-0.101,0.101-0.225,0.194-0.372,0.186
		c-0.075-0.005-0.145-0.037-0.208-0.084c-0.033-0.023-0.064-0.049-0.092-0.077c-0.015-0.015-0.028-0.03-0.041-0.046l-0.02-0.023
		l-0.009-0.012l-0.005-0.006l-0.002-0.003l-0.001-0.001h-0.001v-0.001c0.106,0.14-0.289-0.36-0.437-0.66
		c-0.183-0.341-0.329-0.704-0.426-1.081C11.454,8.63,11.404,8.246,11.4,7.853"/>
	<path fill="#FFCC30" d="M13.687,9.409c0.094,0.146,0.233,0.28,0.385,0.3c0.152,0.015,0.276-0.079,0.377-0.181
		c0.1-0.101,0.191-0.229,0.209-0.356c0.015-0.128-0.04-0.233-0.101-0.327c-0.194-0.298-0.296-0.651-0.3-0.992
		c0.004-0.34,0.106-0.693,0.3-0.99c0.061-0.095,0.116-0.2,0.101-0.328c-0.018-0.127-0.109-0.255-0.209-0.356
		c-0.101-0.102-0.225-0.196-0.377-0.181c-0.152,0.02-0.291,0.154-0.385,0.3c-0.303,0.467-0.462,1.005-0.467,1.555
		C13.225,8.405,13.384,8.942,13.687,9.409"/>
	<path fill="#FFCC30" d="M25.725,7.853c-0.003,0.393-0.053,0.777-0.147,1.154c-0.097,0.377-0.243,0.74-0.426,1.082
		c-0.148,0.299-0.543,0.799-0.437,0.659v0.001h-0.001l-0.001,0.002l-0.002,0.003l-0.005,0.006l-0.009,0.011l-0.02,0.023
		c-0.014,0.016-0.027,0.031-0.041,0.046c-0.029,0.028-0.06,0.055-0.093,0.077c-0.063,0.047-0.132,0.079-0.208,0.084
		c-0.146,0.008-0.27-0.085-0.372-0.186c-0.1-0.101-0.191-0.228-0.203-0.361c-0.003-0.066,0.013-0.129,0.038-0.187
		c0.013-0.029,0.03-0.056,0.047-0.083c0.009-0.014,0.018-0.027,0.026-0.04l0.014-0.019l0.008-0.009l0.004-0.005l0.001-0.002
		l0.001-0.002H23.9c-0.082,0.107,0.225-0.282,0.341-0.515c0.142-0.267,0.256-0.55,0.331-0.843c0.074-0.292,0.113-0.598,0.116-0.896
		c-0.003-0.298-0.042-0.604-0.116-0.896c-0.075-0.293-0.189-0.576-0.331-0.842c-0.116-0.233-0.423-0.622-0.341-0.516h-0.001
		l-0.001-0.001l-0.001-0.002l-0.004-0.005l-0.008-0.009l-0.014-0.02c-0.008-0.013-0.017-0.026-0.026-0.04
		c-0.017-0.026-0.034-0.053-0.047-0.083c-0.025-0.058-0.041-0.12-0.038-0.186c0.012-0.133,0.103-0.26,0.203-0.361
		c0.102-0.102,0.226-0.195,0.372-0.187c0.076,0.005,0.145,0.037,0.208,0.084c0.033,0.023,0.064,0.049,0.093,0.078
		c0.014,0.015,0.027,0.029,0.041,0.045l0.02,0.023l0.009,0.012l0.005,0.006l0.002,0.003l0.001,0.001l0.001,0.001
		c-0.106-0.14,0.289,0.361,0.437,0.66c0.183,0.341,0.329,0.705,0.426,1.081C25.672,7.077,25.722,7.46,25.725,7.853"/>
	<path fill="#FFCC30" d="M23.439,6.298c-0.094-0.146-0.233-0.28-0.385-0.3c-0.153-0.014-0.277,0.08-0.377,0.181
		c-0.1,0.102-0.191,0.229-0.209,0.356c-0.015,0.128,0.039,0.234,0.1,0.328c0.195,0.297,0.296,0.65,0.3,0.991
		c-0.004,0.34-0.105,0.694-0.3,0.991c-0.061,0.094-0.115,0.2-0.1,0.328c0.018,0.126,0.109,0.254,0.209,0.355
		c0.1,0.102,0.224,0.196,0.377,0.182c0.152-0.02,0.291-0.154,0.385-0.3c0.303-0.467,0.462-1.005,0.467-1.556
		C23.901,7.303,23.742,6.765,23.439,6.298"/>
</g>
</svg>
