<?xml version="1.0" encoding="utf-8"?>
<!-- Generator: Adobe Illustrator 25.4.1, SVG Export Plug-In . SVG Version: 6.00 Build 0)  -->
<svg version="1.1" id="Layer_1" xmlns="http://www.w3.org/2000/svg" xmlns:xlink="http://www.w3.org/1999/xlink" x="0px" y="0px"
	 viewBox="0 0 29.108 25.641" enable-background="new 0 0 29.108 25.641" xml:space="preserve">
<g>
	<g>
		<path fill="#FFCC30" d="M4.341,3.509c-1.321,0-2.396,1.075-2.396,2.396c0,0.428,0.115,0.842,0.326,1.204
			c0.002-1.134,0.924-2.057,2.058-2.057c1.148,0,2.081,0.921,2.084,2.054c0.21-0.361,0.324-0.774,0.324-1.201
			C6.737,4.584,5.662,3.509,4.341,3.509z"/>
		<path fill="#FFCC30" d="M12.184,14.209c-0.004-0.543-0.402-0.998-0.906-1.037c-0.292-0.02-0.574,0.1-0.78,0.333
			c-0.069,0.078-0.17,0.117-0.275,0.103l-0.322-0.042c-0.104-0.014-0.194-0.079-0.24-0.173c-0.159-0.327-0.455-0.538-0.793-0.564
			c-0.299-0.025-0.585,0.103-0.791,0.344c-0.069,0.081-0.174,0.121-0.28,0.106l-0.303-0.042c-0.105-0.014-0.194-0.081-0.239-0.176
			c-0.158-0.334-0.455-0.55-0.798-0.576c-0.296-0.022-0.587,0.105-0.794,0.348c-0.069,0.082-0.175,0.122-0.281,0.107l-0.265-0.038
			c-0.153-0.022-0.268-0.153-0.268-0.309V7.44c0-0.273-0.221-0.496-0.495-0.496c-0.298,0-0.52,0.223-0.52,0.496v9.388
			c0,0.131-0.082,0.248-0.205,0.293c-0.122,0.046-0.26,0.009-0.345-0.091l-0.805-0.946c-0.048-0.057-0.074-0.128-0.074-0.202v-2.715
			c0-0.274-0.223-0.496-0.496-0.496c-0.298,0-0.521,0.222-0.521,0.496v4.567c0,0.115,0.039,0.221,0.109,0.309
			c0.271,0.361,2.261,2.676,3.276,3.851l0.098,0.112c0.05,0.057,0.076,0.13,0.076,0.205v2.719c0,0.047,0.04,0.087,0.087,0.087h5.967
			c0.048,0,0.087-0.04,0.087-0.087v-2.691c0-0.061,0.018-0.121,0.052-0.172l0.067-0.101c0.378-0.57,0.977-1.712,0.977-2.349V14.209z
			"/>
		<path fill="#FFCC30" d="M25.679,13.361c0.052-0.127,0.043-0.268-0.025-0.386l-0.003-0.005c-0.105-0.181-1.063-1.838-2.4-4.069
			c-0.025-0.043-0.04-0.09-0.043-0.139c-0.269-3.841-0.805-6.203-5.859-6.295v22.55h2.003c0.048,0,0.087-0.04,0.087-0.087v-2.69
			c0-0.17,0.138-0.309,0.309-0.312c2.327-0.03,3.435-0.414,3.435-2.514c0-0.146-0.072-0.282-0.193-0.364l-1.636-1.102
			c-0.086-0.058-0.138-0.154-0.138-0.258v-0.32c0-0.153,0.111-0.283,0.262-0.308L23.06,16.8c0.212-0.036,0.366-0.218,0.366-0.434
			v-1.968c0-0.14,0.094-0.263,0.23-0.301l1.734-0.48C25.52,13.581,25.628,13.486,25.679,13.361z M22.915,9.937
			c0,0.175-0.068,0.339-0.192,0.463c-0.124,0.123-0.288,0.191-0.463,0.191h-1.572c-0.172,0-0.312-0.14-0.312-0.312V9.918
			c0-0.116,0.065-0.222,0.167-0.276l1.661-0.867c0.069-0.036,0.149-0.045,0.226-0.024c0.285,0.077,0.485,0.334,0.485,0.625V9.937z"
			/>
		<path fill="#FFCC30" d="M28.348,19.043c0.086-0.345,0.132-0.701,0.136-1.058c-0.004-0.358-0.05-0.714-0.137-1.059
			c-0.086-0.336-0.217-0.67-0.391-0.992c-0.094-0.191-0.311-0.488-0.388-0.591l-0.003-0.002c-0.001-0.002-0.019-0.026-0.02-0.027
			l-0.044-0.049c-0.014-0.013-0.033-0.028-0.05-0.042c-0.027-0.019-0.041-0.023-0.044-0.024c-0.001,0.001-0.039,0.008-0.123,0.093
			c-0.083,0.084-0.109,0.143-0.11,0.162c0,0,0.002,0.009,0.012,0.032c0.004,0.008,0.012,0.021,0.021,0.034l-0.011,0.009
			c0.009,0.006,0.017,0.014,0.025,0.021l0.003-0.002l-0.003,0.003c0.11,0.099,0.242,0.277,0.394,0.585
			c0.152,0.283,0.27,0.585,0.349,0.89c0.079,0.31,0.12,0.631,0.124,0.955c-0.004,0.331-0.045,0.652-0.124,0.962
			c-0.079,0.305-0.197,0.608-0.354,0.9c-0.098,0.197-0.229,0.424-0.373,0.562c-0.001,0-0.001,0.001-0.001,0.001l-0.029,0.044
			c-0.009,0.013-0.018,0.026-0.024,0.04c-0.006,0.013-0.009,0.028-0.008,0.039c0,0.005,0.026,0.064,0.11,0.149
			c0.081,0.082,0.119,0.091,0.127,0.091c0,0,0.013-0.005,0.038-0.022c0.018-0.014,0.037-0.029,0.054-0.046l0.025-0.028l0.004,0.002
			c0.006-0.01,0.013-0.02,0.018-0.029c0.003-0.004,0.006-0.007,0.009-0.011c0.003-0.003,0.006-0.006,0.009-0.009
			c0.077-0.103,0.293-0.399,0.382-0.58C28.13,19.714,28.261,19.38,28.348,19.043z"/>
		<path fill="#FFCC30" d="M25.811,19.499c0.008-0.002,0.076-0.046,0.145-0.153c0.264-0.407,0.406-0.878,0.409-1.364
			c-0.003-0.48-0.145-0.951-0.409-1.358v-0.001c-0.066-0.103-0.132-0.147-0.155-0.154c0,0.002-0.033,0.011-0.11,0.088
			c-0.086,0.087-0.116,0.153-0.119,0.175c-0.001,0.014,0.014,0.05,0.052,0.109c0.218,0.332,0.34,0.737,0.345,1.14
			c-0.005,0.41-0.128,0.816-0.346,1.149c-0.037,0.057-0.052,0.093-0.05,0.115c0.002,0.015,0.032,0.08,0.118,0.168
			C25.784,19.507,25.811,19.5,25.811,19.499z"/>
	</g>
	<path fill="#25303B" d="M19.352,25.641h-2.315c-0.173,0-0.313-0.14-0.313-0.312V2.152c0-0.172,0.14-0.312,0.313-0.312
		c5.81,0,6.512,2.943,6.789,6.804c1.319,2.203,2.261,3.834,2.365,4.014c0.001,0,0.004,0.006,0.004,0.006
		c0.165,0.287,0.187,0.627,0.061,0.934c-0.123,0.301-0.384,0.534-0.699,0.621l-1.507,0.416v1.731c0,0.523-0.373,0.964-0.888,1.049
		l-1.189,0.198l1.365,0.919c0.293,0.198,0.469,0.528,0.469,0.882c0,2.712-1.735,3.079-3.743,3.133v2.383
		C20.064,25.322,19.745,25.641,19.352,25.641 M17.349,25.017h2.003c0.048,0,0.087-0.04,0.087-0.087v-2.69
		c0-0.17,0.138-0.309,0.309-0.312c2.327-0.03,3.435-0.414,3.435-2.514c0-0.146-0.072-0.282-0.193-0.364l-1.636-1.102
		c-0.086-0.058-0.138-0.154-0.138-0.258v-0.32c0-0.153,0.111-0.283,0.262-0.308L23.06,16.8c0.212-0.036,0.366-0.218,0.366-0.434
		v-1.968c0-0.14,0.094-0.263,0.23-0.301l1.734-0.48c0.13-0.036,0.238-0.131,0.289-0.256c0.052-0.127,0.043-0.268-0.025-0.386
		l-0.003-0.005c-0.105-0.181-1.063-1.838-2.4-4.069c-0.025-0.043-0.04-0.09-0.043-0.139c-0.269-3.841-0.805-6.203-5.859-6.295
		V25.017z M22.26,10.591L22.26,10.591h-1.572c-0.172,0-0.312-0.14-0.312-0.312V9.918c0-0.116,0.065-0.222,0.167-0.276l1.661-0.867
		c0.069-0.036,0.149-0.045,0.226-0.024c0.285,0.077,0.485,0.334,0.485,0.625v0.561c0,0.175-0.068,0.339-0.192,0.463
		C22.599,10.523,22.435,10.591,22.26,10.591 M21.269,9.967h0.991c0.015,0,0.03-0.016,0.03-0.03V9.434L21.269,9.967z"/>
	<path fill="#25303B" d="M25.817,20.123c-0.301,0-0.5-0.202-0.57-0.271c-0.116-0.118-0.26-0.304-0.293-0.526
		c-0.027-0.233,0.064-0.408,0.146-0.536c0.155-0.237,0.241-0.524,0.245-0.809c-0.004-0.278-0.09-0.565-0.244-0.8
		c-0.083-0.129-0.174-0.304-0.148-0.53c0.034-0.23,0.178-0.416,0.294-0.533c0.074-0.075,0.301-0.299,0.622-0.27
		c0.316,0.042,0.518,0.291,0.611,0.437c0.328,0.506,0.505,1.093,0.509,1.697c-0.004,0.61-0.181,1.197-0.509,1.703
		c-0.093,0.144-0.294,0.394-0.599,0.434C25.86,20.122,25.837,20.123,25.817,20.123 M25.801,16.469c0,0.002-0.033,0.011-0.11,0.088
		c-0.086,0.087-0.116,0.153-0.119,0.175c-0.001,0.014,0.014,0.05,0.052,0.109c0.218,0.332,0.34,0.737,0.345,1.14
		c-0.005,0.41-0.128,0.816-0.346,1.149c-0.037,0.057-0.052,0.093-0.05,0.115c0.002,0.015,0.032,0.08,0.118,0.168
		c0.093,0.094,0.12,0.087,0.12,0.086c0.008-0.002,0.076-0.046,0.145-0.153c0.264-0.407,0.406-0.878,0.409-1.364
		c-0.003-0.48-0.145-0.951-0.409-1.358v-0.001C25.89,16.52,25.824,16.476,25.801,16.469"/>
	<path fill="#25303B" d="M27.417,21.393c-0.301,0-0.506-0.205-0.576-0.275c-0.175-0.177-0.273-0.362-0.29-0.548
		c-0.005-0.121,0.016-0.229,0.063-0.336c0.022-0.049,0.046-0.09,0.072-0.129c0.007-0.011,0.019-0.03,0.031-0.047
		c0.003-0.004,0.02-0.026,0.022-0.029c0.002-0.002,0.005-0.006,0.008-0.01c0.001-0.002,0.003-0.004,0.005-0.007
		c0.004-0.005,0.008-0.011,0.013-0.017c0.068-0.088,0.226-0.307,0.29-0.438c0.138-0.257,0.239-0.512,0.304-0.768
		c0.065-0.258,0.102-0.537,0.105-0.808c-0.003-0.263-0.04-0.543-0.105-0.801c-0.065-0.255-0.166-0.51-0.299-0.758
		c-0.069-0.139-0.228-0.361-0.295-0.449c-0.005-0.005-0.009-0.011-0.014-0.017c-0.001-0.002-0.003-0.004-0.005-0.006
		c-0.003-0.004-0.005-0.007-0.007-0.009c-0.003-0.004-0.02-0.027-0.023-0.031c-0.011-0.017-0.023-0.035-0.035-0.054
		c-0.021-0.031-0.045-0.072-0.065-0.115c-0.049-0.112-0.07-0.221-0.066-0.328c0.018-0.199,0.116-0.384,0.291-0.561
		c0.073-0.073,0.29-0.296,0.604-0.276c0.135,0.01,0.258,0.058,0.374,0.143c0.042,0.031,0.086,0.067,0.126,0.107
		c0.021,0.022,0.038,0.041,0.055,0.06c0.001,0.002,0.021,0.026,0.023,0.028c0.001,0.002,0.01,0.012,0.016,0.019v-0.001l0.011,0.016
		c0.215,0.216,0.412,0.6,0.461,0.7c0.192,0.356,0.342,0.738,0.441,1.124c0.1,0.395,0.152,0.802,0.156,1.21v0.006
		c-0.004,0.407-0.056,0.814-0.155,1.209c-0.1,0.387-0.25,0.768-0.447,1.134c-0.045,0.093-0.239,0.47-0.452,0.685
		c-0.001,0.002-0.003,0.004-0.004,0.006c-0.003,0.005-0.007,0.01-0.012,0.015c-0.006,0.008-0.014,0.017-0.016,0.019
		c-0.001,0.002-0.021,0.026-0.022,0.027c-0.018,0.02-0.035,0.04-0.054,0.059c-0.041,0.041-0.084,0.076-0.129,0.109
		c-0.115,0.085-0.238,0.133-0.365,0.142C27.44,21.393,27.428,21.393,27.417,21.393 M27.237,20.405c-0.001,0-0.001,0.001-0.001,0.001
		l-0.029,0.044c-0.009,0.013-0.018,0.026-0.024,0.04c-0.006,0.013-0.009,0.028-0.008,0.039c0,0.005,0.026,0.064,0.11,0.149
		c0.081,0.082,0.119,0.091,0.127,0.091c0,0,0.013-0.005,0.038-0.022c0.018-0.014,0.037-0.029,0.054-0.046l0.025-0.028l0.004,0.002
		c0.006-0.01,0.013-0.02,0.018-0.029c0.003-0.004,0.006-0.007,0.009-0.011c0.003-0.003,0.006-0.006,0.009-0.009
		c0.077-0.103,0.293-0.399,0.382-0.58c0.179-0.332,0.31-0.666,0.397-1.003c0.086-0.345,0.132-0.701,0.136-1.058
		c-0.004-0.358-0.05-0.714-0.137-1.059c-0.086-0.336-0.217-0.67-0.391-0.992c-0.094-0.191-0.311-0.488-0.388-0.591l-0.003-0.002
		c-0.001-0.002-0.019-0.026-0.02-0.027l-0.044-0.049c-0.014-0.013-0.033-0.028-0.05-0.042c-0.027-0.019-0.041-0.023-0.044-0.024
		c-0.001,0.001-0.039,0.008-0.123,0.093c-0.083,0.084-0.109,0.143-0.11,0.162c0,0,0.002,0.009,0.012,0.032
		c0.004,0.008,0.012,0.021,0.021,0.034l-0.011,0.009c0.009,0.006,0.017,0.014,0.025,0.021l0.003-0.002l-0.003,0.003
		c0.11,0.099,0.242,0.277,0.394,0.585c0.152,0.283,0.27,0.585,0.349,0.89c0.079,0.31,0.12,0.631,0.124,0.955
		c-0.004,0.331-0.045,0.652-0.124,0.962c-0.079,0.305-0.197,0.608-0.354,0.9C27.512,20.04,27.381,20.267,27.237,20.405"/>
	<path fill="#25303B" d="M11.001,25.641H5.034c-0.392,0-0.711-0.319-0.711-0.711v-2.603l-0.021-0.025
		c-0.122-0.14-2.955-3.419-3.297-3.876c-0.155-0.191-0.241-0.433-0.241-0.692v-4.567c0-0.618,0.503-1.121,1.121-1.121
		c0.642,0,1.144,0.503,1.144,1.121v2.6l0.181,0.212V7.44c0-0.618,0.502-1.12,1.119-1.12c0.643,0,1.145,0.502,1.145,1.12v4.722
		c0.299-0.22,0.66-0.326,1.031-0.299c0.509,0.039,0.957,0.322,1.227,0.769c0.325-0.305,0.748-0.457,1.183-0.425
		c0.506,0.038,0.952,0.318,1.223,0.761l0.012,0.001c0.324-0.3,0.742-0.452,1.175-0.419c0.826,0.062,1.478,0.789,1.483,1.656v0.002
		v5.409c0,1.05-1.07,2.678-1.081,2.694l-0.014,0.023v2.596C11.713,25.322,11.393,25.641,11.001,25.641 M1.909,12.671
		c-0.298,0-0.521,0.222-0.521,0.496v4.567c0,0.115,0.039,0.221,0.109,0.309c0.271,0.361,2.261,2.676,3.276,3.851l0.098,0.112
		c0.05,0.057,0.076,0.13,0.076,0.205v2.719c0,0.047,0.04,0.087,0.087,0.087h5.967c0.048,0,0.087-0.04,0.087-0.087v-2.691
		c0-0.061,0.018-0.121,0.052-0.172l0.067-0.101c0.378-0.57,0.977-1.712,0.977-2.349v-5.408c-0.004-0.543-0.402-0.998-0.906-1.037
		c-0.292-0.02-0.574,0.1-0.78,0.333c-0.069,0.078-0.17,0.117-0.275,0.103l-0.322-0.042c-0.104-0.014-0.194-0.079-0.24-0.173
		c-0.159-0.327-0.455-0.538-0.793-0.564c-0.299-0.025-0.585,0.103-0.791,0.344c-0.069,0.081-0.174,0.121-0.28,0.106l-0.303-0.042
		c-0.105-0.014-0.194-0.081-0.239-0.176c-0.158-0.334-0.455-0.55-0.798-0.576c-0.296-0.022-0.587,0.105-0.794,0.348
		c-0.069,0.082-0.175,0.122-0.281,0.107l-0.265-0.038c-0.153-0.022-0.268-0.153-0.268-0.309V7.44c0-0.273-0.221-0.496-0.495-0.496
		c-0.298,0-0.52,0.223-0.52,0.496v9.388c0,0.131-0.082,0.248-0.205,0.293c-0.122,0.046-0.26,0.009-0.345-0.091l-0.805-0.946
		c-0.048-0.057-0.074-0.128-0.074-0.202v-2.715C2.405,12.893,2.182,12.671,1.909,12.671"/>
	<path fill="#25303B" d="M2.583,8.275C2.51,8.275,2.438,8.249,2.38,8.2C1.707,7.624,1.32,6.788,1.32,5.905
		c0-1.665,1.356-3.02,3.021-3.02s3.021,1.355,3.021,3.02c0,0.882-0.386,1.717-1.058,2.293C6.211,8.278,6.081,8.296,5.97,8.244
		c-0.11-0.05-0.182-0.161-0.182-0.283v-0.85c0-0.791-0.654-1.434-1.459-1.434c-0.79,0-1.433,0.643-1.433,1.434v0.852
		c0,0.121-0.072,0.232-0.182,0.283C2.672,8.265,2.627,8.275,2.583,8.275 M4.341,3.509c-1.321,0-2.396,1.075-2.396,2.396
		c0,0.428,0.115,0.842,0.326,1.204c0.002-1.134,0.924-2.057,2.058-2.057c1.148,0,2.081,0.921,2.084,2.054
		c0.21-0.361,0.324-0.774,0.324-1.201C6.737,4.584,5.662,3.509,4.341,3.509"/>
	<path fill="#25303B" d="M4.468,0H4.214C4.072,0,3.957,0.115,3.957,0.257v1.357v0.167c0,0.142,0.115,0.257,0.257,0.257h0.254
		c0.143,0,0.258-0.115,0.258-0.257V1.615V0.257C4.726,0.115,4.611,0,4.468,0"/>
	<path fill="#25303B" d="M8.244,1.565c-0.065,0-0.131,0.025-0.182,0.075L7.102,2.6L6.985,2.718c-0.1,0.1-0.1,0.263,0,0.363
		l0.18,0.18c0.05,0.051,0.116,0.075,0.182,0.075c0.065,0,0.131-0.024,0.181-0.075l0.118-0.117l0.96-0.96
		c0.101-0.101,0.101-0.264,0-0.364L8.427,1.64C8.376,1.59,8.31,1.565,8.244,1.565"/>
	<path fill="#25303B" d="M0.437,1.565c-0.066,0-0.132,0.025-0.182,0.075l-0.18,0.18c-0.1,0.1-0.101,0.263,0,0.363l0.96,0.96
		l0.118,0.118c0.05,0.05,0.116,0.075,0.181,0.075c0.067,0,0.132-0.025,0.182-0.075l0.18-0.18c0.1-0.1,0.1-0.263,0-0.363L1.579,2.6
		l-0.96-0.96C0.568,1.59,0.502,1.565,0.437,1.565"/>
</g>
</svg>
