<?xml version="1.0" encoding="utf-8"?>
<!-- Generator: Adobe Illustrator 25.4.1, SVG Export Plug-In . SVG Version: 6.00 Build 0)  -->
<svg version="1.1" id="Layer_1" xmlns="http://www.w3.org/2000/svg" xmlns:xlink="http://www.w3.org/1999/xlink" x="0px" y="0px"
	 viewBox="0 0 37.252 37.251" enable-background="new 0 0 37.252 37.251" xml:space="preserve">
<g>
	<path fill="#FFCC30" d="M37.252,28.777c0,4.661-3.814,8.475-8.476,8.475H8.475C3.814,37.252,0,33.438,0,28.777V8.475
		C0,3.814,3.814,0,8.475,0h20.301c4.662,0,8.476,3.814,8.476,8.475V28.777z"/>
	<path fill="#25303B" d="M8.079,14.095v-0.852c0-0.962,0.784-1.746,1.747-1.746c0.987,0,1.771,0.784,1.771,1.746v0.851
		c0.58-0.497,0.948-1.233,0.948-2.057c0-1.495-1.212-2.708-2.707-2.708c-1.496,0-2.709,1.213-2.709,2.708
		C7.129,12.862,7.499,13.598,8.079,14.095"/>
	<path fill="#25303B" d="M17.993,20.011c-0.005-0.703-0.52-1.295-1.194-1.346c-0.408-0.031-0.781,0.145-1.038,0.437
		c-0.105-0.013-0.212-0.028-0.323-0.042c-0.198-0.409-0.584-0.703-1.05-0.738c-0.414-0.032-0.793,0.15-1.052,0.452
		c-0.102-0.014-0.202-0.028-0.302-0.042c-0.196-0.417-0.585-0.719-1.057-0.754c-0.416-0.032-0.796,0.152-1.055,0.456
		c-0.168-0.024-0.264-0.037-0.264-0.037v-5.154c0-0.445-0.362-0.808-0.808-0.808H9.826c-0.445,0-0.808,0.363-0.808,0.808v9.389
		l-0.804-0.947V18.97c0-0.445-0.363-0.808-0.808-0.808H7.381c-0.446,0-0.808,0.363-0.808,0.808v4.567
		c0,0.187,0.062,0.362,0.178,0.506c0.272,0.363,2.265,2.681,3.283,3.858l0.098,0.113v2.72c0,0.219,0.179,0.399,0.399,0.399h5.967
		c0.219,0,0.398-0.18,0.398-0.399v-2.691l0.068-0.101c0.286-0.432,1.029-1.727,1.029-2.521V20.011z"/>
	<path fill="#25303B" d="M10.222,7.747v0.167c0,0.142-0.115,0.256-0.257,0.256H9.71c-0.141,0-0.257-0.114-0.257-0.256V7.747V6.389
		c0-0.142,0.116-0.257,0.257-0.257h0.255c0.142,0,0.257,0.115,0.257,0.257V7.747z"/>
	<path fill="#25303B" d="M13.142,9.275l-0.117,0.118c-0.101,0.1-0.264,0.1-0.364,0l-0.18-0.18c-0.1-0.101-0.1-0.263,0-0.364
		l0.118-0.117l0.96-0.96c0.101-0.101,0.263-0.101,0.363,0l0.18,0.179c0.101,0.101,0.101,0.263,0,0.364L13.142,9.275z"/>
	<path fill="#25303B" d="M7.075,8.732L7.193,8.85c0.101,0.1,0.101,0.263,0,0.363l-0.18,0.18c-0.1,0.1-0.263,0.1-0.364,0L6.532,9.275
		l-0.96-0.96c-0.101-0.1-0.101-0.263,0-0.363l0.18-0.18c0.1-0.101,0.262-0.101,0.363,0L7.075,8.732z"/>
	<path fill="#25303B" d="M31.42,18.624c-0.009-0.018-0.989-1.718-2.404-4.08c-0.279-3.987-0.943-6.588-6.483-6.588v23.177h2.316
		c0.219,0,0.398-0.18,0.398-0.399v-2.689c2.146-0.028,3.745-0.295,3.745-2.826c0-0.25-0.124-0.484-0.332-0.624l-1.635-1.101v-0.32
		l1.582-0.263c0.362-0.06,0.628-0.373,0.628-0.74v-1.969l1.735-0.48c0.224-0.062,0.406-0.224,0.494-0.439
		C31.552,19.069,31.537,18.825,31.42,18.624 M28.099,15.741c0,0.189-0.153,0.342-0.342,0.342h-1.572v-0.361l1.659-0.866
		c0.146,0.039,0.255,0.167,0.255,0.324V15.741z"/>
	<path fill="#25303B" d="M33.034,21.609c-0.106-0.217-0.349-0.544-0.421-0.64l-0.001,0.001l-0.007-0.008
		c0-0.001-0.001-0.002-0.001-0.003l-0.032-0.037c-0.012-0.014-0.025-0.029-0.038-0.043c-0.025-0.024-0.054-0.049-0.086-0.071
		c-0.061-0.046-0.123-0.071-0.183-0.075c-0.004-0.001-0.009-0.001-0.014-0.001c-0.101,0-0.203,0.055-0.32,0.172
		c-0.116,0.117-0.179,0.228-0.188,0.33c-0.003,0.052,0.008,0.106,0.034,0.163c0.013,0.028,0.029,0.056,0.043,0.076
		c0.008,0.014,0.017,0.026,0.026,0.038l0.013,0.02l0.001-0.001l0.012,0.016l-0.002,0.001c0.1,0.111,0.31,0.448,0.341,0.513
		c0.146,0.272,0.257,0.553,0.329,0.836c0.073,0.286,0.112,0.594,0.115,0.892c-0.003,0.298-0.042,0.607-0.115,0.892
		c-0.072,0.283-0.183,0.565-0.329,0.838c-0.031,0.063-0.241,0.4-0.341,0.51l0.002,0.002l-0.012,0.016h-0.001l-0.013,0.02
		c-0.009,0.012-0.018,0.024-0.025,0.036c-0.015,0.022-0.031,0.049-0.044,0.077c-0.026,0.058-0.037,0.112-0.034,0.165
		c0.009,0.099,0.074,0.213,0.188,0.328c0.123,0.123,0.23,0.181,0.335,0.172c0.059-0.005,0.121-0.029,0.182-0.075
		c0.033-0.024,0.062-0.047,0.086-0.073c0.013-0.013,0.026-0.027,0.039-0.042l0.027-0.033h0.001c0.002-0.003,0.004-0.007,0.007-0.01
		h0.001c0.069-0.088,0.317-0.424,0.424-0.642c0.186-0.343,0.325-0.698,0.416-1.056c0.093-0.366,0.142-0.745,0.145-1.125
		c-0.003-0.379-0.052-0.758-0.145-1.125C33.358,22.306,33.219,21.951,33.034,21.609"/>
	<path fill="#25303B" d="M31.351,22.281L31.351,22.281c-0.102-0.158-0.231-0.261-0.35-0.277c-0.008-0.001-0.017-0.001-0.026-0.001
		c-0.1,0-0.196,0.052-0.31,0.168c-0.111,0.112-0.18,0.228-0.194,0.326c-0.014,0.112,0.036,0.208,0.093,0.295
		c0.19,0.291,0.297,0.645,0.301,0.996c-0.004,0.352-0.111,0.706-0.302,0.998c-0.064,0.1-0.105,0.189-0.092,0.295
		c0.014,0.097,0.083,0.214,0.194,0.326c0.083,0.085,0.195,0.178,0.338,0.166c0.117-0.015,0.246-0.119,0.348-0.276
		c0.291-0.45,0.447-0.972,0.452-1.509C31.798,23.252,31.642,22.731,31.351,22.281"/>
</g>
</svg>
