<?xml version="1.0" encoding="utf-8"?>
<!-- Generator: Adobe Illustrator 25.4.1, SVG Export Plug-In . SVG Version: 6.00 Build 0)  -->
<svg version="1.1" id="Layer_1" xmlns="http://www.w3.org/2000/svg" xmlns:xlink="http://www.w3.org/1999/xlink" x="0px" y="0px"
	 viewBox="0 0 211.2 233.9" style="enable-background:new 0 0 211.2 233.9;" xml:space="preserve">
<style type="text/css">
	.st0{fill:#25303B;}
</style>
<g>
	<path class="st0" d="M162.3,124.7L162.3,124.7c-2.3,0-4.3-1.9-4.3-4.3c0-2.3,1.9-4.3,4.3-4.3s4.3,1.9,4.3,4.3
		C166.5,122.8,164.6,124.7,162.3,124.7 M166.5,134.6L166.5,134.6c0-2.3-1.9-4.3-4.3-4.3s-4.3,1.9-4.3,4.3c0,2.3,1.9,4.3,4.3,4.3
		S166.5,137,166.5,134.6 M166.5,106.3L166.5,106.3c0-2.3-1.9-4.3-4.3-4.3s-4.3,1.9-4.3,4.3c0,2.3,1.9,4.3,4.3,4.3
		S166.5,108.6,166.5,106.3 M98.6,95.2c-1.7-1.8-2.1-4.5-2.1-6.9s0.4-5.2,2.1-7c1.8-1.7,4.5-2.1,6.9-2.1c2.5,0,5.2,0.4,7,2.1
		c1.7,1.8,2.1,4.5,2.1,7s-0.4,5.2-2.1,6.9c-1.8,1.7-4.5,2.1-7,2.1C103.1,97.4,100.4,96.9,98.6,95.2 M132.3,142.4l-5.2-25.6l-1.3-6.4
		l-0.2-0.8l-0.1-0.6c-0.1-0.2-0.1-0.4-0.2-0.6c-0.3-0.9-0.7-1.7-1.1-2.4c-1-1.5-2.3-2.8-3.9-3.6c-0.2-0.1-0.4-0.2-0.6-0.3l-0.3-0.1
		l-0.2-0.1c-0.3-0.1-0.6-0.2-0.9-0.3c-0.6-0.2-1.2-0.4-1.7-0.6c-1.2-0.4-2.4-0.7-3.6-0.9c-2.4-0.5-4.9-0.8-7.3-0.8
		c-2.5,0-4.9,0.3-7.3,0.8c-1.2,0.3-2.4,0.6-3.6,0.9c-0.6,0.2-1.2,0.4-1.7,0.6c-0.3,0.1-0.6,0.2-0.9,0.3l-0.2,0.1l-0.3,0.1
		c-0.2,0.1-0.4,0.2-0.6,0.3c-1.6,0.8-3,2.1-3.9,3.6c-0.5,0.8-0.9,1.6-1.1,2.4c-0.1,0.2-0.1,0.4-0.2,0.6l-0.1,0.6l-0.2,0.8l-1.3,6.4
		l-5.2,25.6c-0.2,1.1-0.3,2.3,0.3,3.3c0.6,0.9,1.8,1.3,2.9,1.6c1.1,0.2,2.3,0.3,3.3-0.3c0.9-0.6,1.3-1.8,1.6-2.9l5.3-25.6l0.2-1
		c0.1-0.3,0.3-0.5,0.6-0.5h0.3c0.4,0,0.6,0.3,0.6,0.6c-0.2,11.9-0.4,23.7-0.5,35.5c-0.5,13.4-0.9,26.8-1.4,40.3v0.3
		c0,0.2,0,0.4,0,0.6c0,0.4,0.1,0.7,0.2,1.1c0.2,0.7,0.4,1.4,0.9,1.9c1,1,2.5,1.3,4,1.4c1.4,0,3-0.1,4.1-1.1c0.5-0.5,0.8-1.1,1-1.8
		c0.1-0.3,0.2-0.7,0.2-1.1c0-0.2,0-0.4,0.1-0.5l0-0.3c0.5-13.5,0.9-27,1.4-40.4c0-1.2,0-2.4,0.1-3.6c0-0.7,0.6-1.2,1.3-1.2h0.8
		c0.7,0,1.3,0.6,1.3,1.2c0,1.2,0,2.4,0.1,3.6c0.5,13.4,0.9,26.9,1.4,40.4l0,0.3c0,0.2,0,0.4,0.1,0.5c0,0.4,0.1,0.7,0.2,1.1
		c0.2,0.7,0.5,1.3,1,1.8c1.1,1,2.6,1.1,4.1,1.1c1.4,0,3-0.3,4-1.4c0.5-0.5,0.8-1.2,0.9-1.9c0.1-0.4,0.1-0.7,0.2-1.1
		c0-0.2,0-0.4,0-0.6v-0.3c-0.5-13.5-0.9-26.9-1.4-40.3c-0.2-11.8-0.4-23.6-0.5-35.5c0-0.4,0.3-0.6,0.6-0.6h0.3
		c0.3,0,0.6,0.2,0.6,0.5l0.2,1l5.3,25.6c0.2,1.1,0.6,2.2,1.6,2.9c0.9,0.6,2.2,0.5,3.3,0.3c1.1-0.2,2.3-0.7,2.9-1.6
		C132.6,144.7,132.5,143.5,132.3,142.4 M144.3,23.5c-2.5-2.5-5.7-6.4-5.9-6.6c0.3,1.6,0.3,8.7,0.3,8.7l0,13.7c0,1.8-1.4,3.2-3.2,3.2
		h-3.2c-1.8,0-3.2-1.4-3.2-3.2V25.6c0,0,0-7.1,0.3-8.7c-0.1,0.2-3.3,4.1-5.9,6.6l-2.3,2.3c-1.2,1.2-3.2,1.2-4.4,0l-2.2-2.2
		c-1.2-1.2-1.2-3.2,0-4.4L133.9,0l19.2,19.2c1.2,1.2,1.2,3.2,0,4.4l-2.2,2.2c-1.2,1.2-3.2,1.2-4.4,0L144.3,23.5z M64.6,16.7
		c-1.2-1.2-3.2-1.2-4.4,0L58,18.9c-1.2,1.2-1.2,3.2,0,4.4l19.2,19.2l19.2-19.2c1.2-1.2,1.2-3.2,0-4.4l-2.2-2.2
		c-1.2-1.2-3.2-1.2-4.4,0L87.6,19c-2.5,2.5-5.7,6.4-5.9,6.6c0.3-1.6,0.3-8.7,0.3-8.7V3.2c0-1.8-1.4-3.2-3.2-3.2h-3.2
		c-1.8,0-3.2,1.4-3.2,3.2v13.7c0,0,0,7.1,0.3,8.7c-0.1-0.2-3.3-4.1-5.9-6.6L64.6,16.7z M12.8,233.9H0V0h12.8V233.9z M211.2,0h-12.8
		v233.9h12.8V0z M180.3,61.5H30.8c-1.8,0-3.2-1.4-3.2-3.2v-3.2c0-1.8,1.4-3.2,3.2-3.2h149.5c1.8,0,3.2,1.4,3.2,3.2v3.2
		C183.5,60.1,182.1,61.5,180.3,61.5 M183.5,214.2V211c0-1.8-1.4-3.2-3.2-3.2H30.8c-1.8,0-3.2,1.4-3.2,3.2v3.2c0,1.8,1.4,3.2,3.2,3.2
		h149.5C182.1,217.4,183.5,216,183.5,214.2"/>
</g>
</svg>
