<?xml version="1.0" encoding="utf-8"?>
<!-- Generator: Adobe Illustrator 25.4.1, SVG Export Plug-In . SVG Version: 6.00 Build 0)  -->
<svg version="1.1" id="Layer_1" xmlns="http://www.w3.org/2000/svg" xmlns:xlink="http://www.w3.org/1999/xlink" x="0px" y="0px"
	 viewBox="0 0 211.2 233.9" style="enable-background:new 0 0 211.2 233.9;" xml:space="preserve">
<style type="text/css">
	.st0{fill:#25303B;}
</style>
<g>
	<path class="st0" d="M126,175.7c0.4,0.6,0.5,1.5,0.2,2.3c-1.2,4.3-3.5,8.3-6.6,11.6c-3.1,3.3-6.9,5.8-11.1,7.4
		c-4.2,1.6-8.8,2.2-13.2,1.7c-4.5-0.4-8.8-2-12.6-4.4c-3.8-2.4-7-5.7-9.3-9.6c-1.2-1.9-2.1-4-2.8-6.1c-0.7-2.1-1.1-4.4-1.3-6.6
		c-0.3-4.5,0.4-9,2.1-13.2c1.7-4.2,4.4-7.9,7.7-10.9c0.7-0.6,1.5-0.8,2.2-0.8c0.7,0.1,1.4,0.4,1.8,1l1.6,2.2
		c0.8,1.3,0.7,2.8-0.2,3.6c-2.4,2.1-4.3,4.8-5.6,7.8c-1.2,3-1.7,6.3-1.5,9.5c0.4,6.4,4.1,12.6,9.6,16c2.7,1.7,5.8,2.8,9.1,3.1
		c3.2,0.3,6.5-0.1,9.5-1.2c3-1.1,5.8-3,8-5.4c2.2-2.4,3.8-5.2,4.7-8.3c0.3-1.2,1.7-2,3.2-1.7l2.7,0.5
		C125,174.6,125.6,175.1,126,175.7 M109.2,117.8c2.5,0,5.2-0.4,6.9-2.1c1.7-1.8,2.1-4.5,2.1-7c0-2.5-0.4-5.2-2.1-6.9
		c-1.8-1.7-4.5-2.1-6.9-2.1c-2.5,0-5.2,0.4-7,2.1c-1.7,1.8-2.1,4.5-2.1,6.9c0,2.5,0.4,5.2,2.1,7C104,117.4,106.7,117.8,109.2,117.8
		 M125.6,162.9l13.8,22.9c0.6,1,1.4,1.9,2.4,2.2c1.1,0.2,2.2-0.2,3.2-0.8c1-0.5,2-1.3,2.3-2.3c0.3-1.1-0.1-2.2-0.7-3.2l-13-23.5
		c-0.3-0.5-0.6-1-1-1.5c-0.8-0.9-1.9-1.5-3-1.9l-23.3-6.9l4.2-19.8c0.1-0.6,0.2-1.2,0.3-1.8c0-0.3,0-0.6,0-0.8
		c0-0.3-0.1-0.5-0.1-0.8c-0.1-0.5-0.3-1-0.5-1.5c-0.5-1-1.2-1.9-2-2.5c-0.9-0.7-1.9-1.1-3-1.3c-0.5-0.1-1.1-0.1-1.6-0.1
		c-0.3,0-0.6,0.1-0.9,0.1l-0.9,0.2l-20.3,6.9c-0.2,0.1-0.4,0.1-0.6,0.2c-0.8,0.3-1.5,0.8-2.1,1.4c-0.3,0.3-0.6,0.6-0.8,1l-11.1,14.7
		c-0.7,0.9-1.3,2-1.1,3.1c0.2,1.1,1,2,1.9,2.6c0.9,0.7,2,1.3,3.1,1.1c1.1-0.2,2-1,2.6-1.9l11.1-14.7l8.7-2.9l-2.8,13.4l-1,4.6
		c-0.3,1.4-0.3,2.7,0.1,3.9c0.4,1.2,1.2,2.4,2.2,3.2c1,0.8,2.2,1.3,3.6,1.5l2.5,0.4l4.1,0.7L125.6,162.9z M162.3,124.7L162.3,124.7
		c-2.3,0-4.3-1.9-4.3-4.3c0-2.3,1.9-4.3,4.3-4.3s4.3,1.9,4.3,4.3C166.5,122.8,164.6,124.7,162.3,124.7 M166.5,134.6L166.5,134.6
		c0-2.3-1.9-4.3-4.3-4.3s-4.3,1.9-4.3,4.3c0,2.3,1.9,4.3,4.3,4.3S166.5,137,166.5,134.6 M166.5,106.3L166.5,106.3
		c0-2.3-1.9-4.3-4.3-4.3s-4.3,1.9-4.3,4.3c0,2.3,1.9,4.3,4.3,4.3S166.5,108.6,166.5,106.3 M144.3,23.5c-2.5-2.5-5.7-6.4-5.9-6.6
		c0.3,1.6,0.3,8.7,0.3,8.7l0,13.7c0,1.8-1.4,3.2-3.2,3.2h-3.2c-1.8,0-3.2-1.4-3.2-3.2V25.6c0,0,0-7.1,0.3-8.7
		c-0.1,0.2-3.3,4.1-5.9,6.6l-2.3,2.3c-1.2,1.2-3.2,1.2-4.4,0l-2.2-2.2c-1.2-1.2-1.2-3.2,0-4.4L133.9,0l19.2,19.2
		c1.2,1.2,1.2,3.2,0,4.4l-2.2,2.2c-1.2,1.2-3.2,1.2-4.4,0L144.3,23.5z M64.6,16.7c-1.2-1.2-3.2-1.2-4.4,0L58,18.9
		c-1.2,1.2-1.2,3.2,0,4.4l19.2,19.2l19.2-19.2c1.2-1.2,1.2-3.2,0-4.4l-2.2-2.2c-1.2-1.2-3.2-1.2-4.4,0L87.6,19
		c-2.5,2.5-5.7,6.4-5.9,6.6c0.3-1.6,0.3-8.7,0.3-8.7V3.2c0-1.8-1.4-3.2-3.2-3.2h-3.2c-1.8,0-3.2,1.4-3.2,3.2v13.7c0,0,0,7.1,0.3,8.7
		c-0.1-0.2-3.3-4.1-5.9-6.6L64.6,16.7z M12.8,233.9H0V0h12.8V233.9z M211.2,0h-12.8v233.9h12.8V0z M180.3,61.5H30.8
		c-1.8,0-3.2-1.4-3.2-3.2v-3.2c0-1.8,1.4-3.2,3.2-3.2h149.5c1.8,0,3.2,1.4,3.2,3.2v3.2C183.5,60.1,182.1,61.5,180.3,61.5
		 M183.5,214.2V211c0-1.8-1.4-3.2-3.2-3.2H30.8c-1.8,0-3.2,1.4-3.2,3.2v3.2c0,1.8,1.4,3.2,3.2,3.2h149.5
		C182.1,217.4,183.5,216,183.5,214.2"/>
</g>
</svg>
