<?xml version="1.0" encoding="utf-8"?>
<!-- Generator: Adobe Illustrator 25.4.1, SVG Export Plug-In . SVG Version: 6.00 Build 0)  -->
<svg version="1.1" id="Layer_1" xmlns="http://www.w3.org/2000/svg" xmlns:xlink="http://www.w3.org/1999/xlink" x="0px" y="0px"
	 viewBox="0 0 211.2 233.9" style="enable-background:new 0 0 211.2 233.9;" xml:space="preserve">
<style type="text/css">
	.st0{fill:#FFFFFF;}
</style>
<g>
	<path class="st0" d="M84,151.2l-1.6-2.2c-0.3-0.4-0.6-0.6-1.1-0.6c-0.1,0-0.1,0-0.2,0c-0.5,0-0.9,0.2-1.3,0.5
		c-3.3,2.9-5.9,6.5-7.5,10.5c-1.6,4-2.3,8.4-2,12.7c0.2,2.2,0.6,4.3,1.2,6.4c0.7,2,1.6,4,2.7,5.9c2.2,3.7,5.3,6.9,9,9.2
		c3.7,2.3,7.9,3.8,12.2,4.2c4.3,0.5,8.7-0.1,12.8-1.6c4.1-1.6,7.8-4,10.7-7.2c3-3.2,5.1-7,6.3-11.2c0.2-0.6,0.1-1.1-0.1-1.5
		c0,0,0,0,0,0c-0.2-0.4-0.6-0.7-1-0.7l-2.7-0.5c-1-0.2-1.9,0.4-2.1,1c-0.9,3.2-2.6,6.3-4.9,8.7c-2.3,2.5-5.1,4.4-8.3,5.6
		c-3.2,1.2-6.6,1.6-10,1.3c-3.3-0.3-6.6-1.5-9.5-3.3c-5.8-3.6-9.6-10.1-10.1-16.8c-0.3-3.4,0.3-6.8,1.6-9.9c1.2-3.1,3.3-5.9,5.8-8.2
		C84.5,153,84.5,152,84,151.2z"/>
	<path class="st0" d="M162.3,109.6c1.8,0,3.3-1.5,3.3-3.3c0-1.8-1.5-3.3-3.3-3.3s-3.3,1.5-3.3,3.3
		C159,108.1,160.5,109.6,162.3,109.6z"/>
	<path class="st0" d="M78.8,129.7l-11.1,14.8c-0.7,0.9-1,1.7-0.9,2.3c0.1,0.6,0.6,1.3,1.5,2c0.9,0.7,1.7,1,2.3,0.9
		c0.6-0.1,1.3-0.6,2-1.5l11.1-14.7c0.1-0.2,0.3-0.3,0.5-0.3l8.7-2.9c0.1,0,0.2-0.1,0.3-0.1c0.2,0,0.5,0.1,0.7,0.3
		c0.3,0.2,0.4,0.6,0.3,1l-3.8,17.9c-0.3,1.2-0.3,2.3,0.1,3.4c0.3,1.1,1,2,1.9,2.7c0.9,0.7,1.9,1.1,3.1,1.3l30.4,5.2
		c0.3,0,0.5,0.2,0.7,0.5l13.8,22.9c0.6,1,1.2,1.6,1.8,1.7c0.6,0.1,1.4-0.1,2.4-0.7c1-0.6,1.6-1.2,1.8-1.8c0.2-0.6,0-1.4-0.6-2.4
		l-13-23.5c-0.3-0.5-0.6-0.9-0.9-1.3c-0.7-0.8-1.6-1.3-2.6-1.6l-23.3-6.9c-0.5-0.1-0.8-0.7-0.7-1.2l4.2-19.8
		c0.1-0.7,0.2-1.2,0.3-1.7v-0.1c0-0.2,0-0.4,0-0.6c0-0.2,0-0.3-0.1-0.5l0-0.3c-0.1-0.4-0.2-0.9-0.4-1.2c-0.4-0.8-1-1.6-1.7-2.2
		c-0.7-0.6-1.6-0.9-2.5-1.1c-0.4-0.1-0.9-0.1-1.4-0.1c-0.2,0-0.5,0.1-0.7,0.1l-0.8,0.2l-20.2,6.8c-0.2,0.1-0.3,0.1-0.5,0.2
		c-0.7,0.3-1.3,0.7-1.8,1.2C79.2,129.1,79,129.4,78.8,129.7z"/>
	<circle class="st0" cx="162.3" cy="120.5" r="3.3"/>
	<path class="st0" d="M109.2,116.8c2.9,0,5-0.6,6.3-1.8c1.2-1.3,1.8-3.3,1.8-6.2c0-2.9-0.6-5-1.8-6.3c-1.3-1.2-3.3-1.8-6.2-1.8
		c-2.9,0-5,0.6-6.3,1.8c-1.2,1.3-1.8,3.3-1.8,6.2c0,2.9,0.6,5,1.8,6.3C104.2,116.2,106.3,116.8,109.2,116.8z"/>
	<path class="st0" d="M117.6,25.1c0.8,0.8,2.2,0.8,2.9,0l2.3-2.3c2.4-2.4,5.5-6,5.7-6.4c0.2-0.3,0.5-0.5,0.8-0.5
		c0.1,0,0.2,0,0.4,0.1c0.5,0.2,0.7,0.7,0.6,1.2c-0.2,1.1-0.3,5.7-0.3,8.5v13.7c0,1.2,1,2.2,2.2,2.2h3.2c1.2,0,2.2-1,2.2-2.2l0-13.7
		c0-2.8-0.1-7.4-0.3-8.5c-0.1-0.5,0.2-1,0.6-1.1c0.5-0.2,1,0,1.2,0.5c0.2,0.3,3.3,4,5.7,6.4l2.3,2.3c0.8,0.8,2.2,0.8,2.9,0l2.2-2.2
		c0.8-0.8,0.8-2.1,0-2.9L133.9,1.4L115.4,20c-0.8,0.8-0.8,2.1,0,3L117.6,25.1z"/>
	<path class="st0" d="M180.3,208.8H30.8c-1.2,0-2.2,1-2.2,2.2v3.2c0,1.2,1,2.2,2.2,2.2h149.5c1.2,0,2.2-1,2.2-2.2V211
		C182.5,209.8,181.6,208.8,180.3,208.8z"/>
	<path class="st0" d="M77.2,41.1l18.5-18.5c0.8-0.8,0.8-2.1,0-3l-2.2-2.2c-0.8-0.8-2.1-0.8-3,0l-2.3,2.3c-2.4,2.4-5.5,6-5.7,6.4
		c-0.2,0.4-0.7,0.6-1.2,0.4c-0.5-0.2-0.7-0.7-0.6-1.2c0.2-1.1,0.3-5.7,0.3-8.5V3.2c0-1.2-1-2.2-2.2-2.2h-3.2c-1.2,0-2.2,1-2.2,2.2
		v13.7c0,2.8,0.1,7.4,0.3,8.5c0.1,0.5-0.2,1-0.6,1.1c-0.5,0.2-1,0-1.2-0.5c-0.2-0.3-3.3-4-5.7-6.4l-2.3-2.3
		c-0.4-0.4-0.9-0.6-1.5-0.6s-1.1,0.2-1.5,0.6l-2.2,2.2c-0.8,0.8-0.8,2.1,0,3L77.2,41.1z"/>
	<rect x="1" y="1" class="st0" width="10.8" height="231.9"/>
	<circle class="st0" cx="162.3" cy="134.6" r="3.3"/>
	<rect x="199.4" y="1" class="st0" width="10.8" height="231.9"/>
	<path class="st0" d="M180.3,52.9H30.8c-1.2,0-2.2,1-2.2,2.2v3.2c0,1.2,1,2.2,2.2,2.2h149.5c1.2,0,2.2-1,2.2-2.2v-3.2
		C182.5,53.9,181.6,52.9,180.3,52.9z"/>
</g>
</svg>
