<?xml version="1.0" encoding="utf-8"?>
<!-- Generator: Adobe Illustrator 25.4.1, SVG Export Plug-In . SVG Version: 6.00 Build 0)  -->
<svg version="1.1" id="Layer_1" xmlns="http://www.w3.org/2000/svg" xmlns:xlink="http://www.w3.org/1999/xlink" x="0px" y="0px"
	 viewBox="0 0 211.2 233.9" style="enable-background:new 0 0 211.2 233.9;" xml:space="preserve">
<style type="text/css">
	.st0{fill:#FFFFFF;}
</style>
<g>
	<path class="st0" d="M180.3,208.8H30.8c-1.2,0-2.2,1-2.2,2.2v3.2c0,1.2,1,2.2,2.2,2.2h149.5c1.2,0,2.2-1,2.2-2.2V211
		C182.5,209.8,181.6,208.8,180.3,208.8z"/>
	<path class="st0" d="M93.3,102.4c-0.2,0.1-0.4,0.2-0.6,0.2l-0.7,0.3c-0.2,0.1-0.4,0.2-0.5,0.3c-1.4,0.8-2.7,1.9-3.5,3.3
		c-0.4,0.7-0.8,1.4-1,2.2l0,0.1c0,0.2-0.1,0.3-0.1,0.5l-0.3,1.4l-6.6,32c-0.2,1.1-0.2,2,0.2,2.5c0.3,0.5,1.1,0.9,2.2,1.1
		c1.1,0.2,2,0.2,2.5-0.2c0.5-0.3,0.9-1.1,1.1-2.2l5.5-26.7c0.2-0.8,0.8-1.3,1.6-1.3h0.3c0.4,0,0.9,0.2,1.2,0.5s0.5,0.7,0.5,1.2
		l-0.5,35.5L93,193.4l0,0.2c0,0.2,0,0.3,0,0.5c0,0.3,0.1,0.6,0.1,0.9c0.1,0.6,0.4,1.1,0.7,1.4c0.6,0.6,1.7,1,3.3,1
		c1.6,0,2.7-0.2,3.4-0.8c0.3-0.3,0.6-0.8,0.8-1.4c0.1-0.3,0.1-0.6,0.2-0.9c0-0.2,0-0.3,0.1-0.5l0-0.3l1.4-40.4l0.1-3.6
		c0-1.2,1-2.2,2.3-2.2h0.8c1.2,0,2.2,1,2.3,2.2l0.1,3.6l1.4,40.6c0,0.1,0,0.3,0.1,0.5c0,0.3,0.1,0.6,0.2,0.9
		c0.2,0.6,0.4,1.1,0.8,1.4c0.7,0.6,1.8,0.9,3.3,0.8c1.6-0.1,2.7-0.4,3.3-1.1c0.3-0.3,0.5-0.8,0.7-1.4c0.1-0.3,0.1-0.6,0.1-0.9
		c0-0.2,0-0.3,0-0.5v-0.3l-1.4-40.3l-0.5-35.5c0-0.4,0.2-0.9,0.5-1.2c0.3-0.3,0.7-0.5,1.2-0.5h0.3c0.8,0,1.5,0.6,1.6,1.3l5.5,26.7
		c0.2,1.1,0.6,1.9,1.1,2.2c0.5,0.3,1.4,0.4,2.5,0.2c1.1-0.2,1.9-0.6,2.2-1.1c0.3-0.5,0.4-1.4,0.2-2.5l-6.9-33.4
		c0-0.1-0.1-0.3-0.1-0.4l0-0.1c-0.2-0.7-0.6-1.5-1-2.2c-0.9-1.4-2.1-2.5-3.5-3.3c-0.2-0.1-0.4-0.2-0.5-0.3l-0.7-0.3
		c-0.2-0.1-0.4-0.2-0.7-0.3c-0.6-0.2-1.1-0.4-1.7-0.6c-1.1-0.4-2.3-0.7-3.5-0.9c-4.7-1-9.6-1-14.2,0c-1.2,0.2-2.3,0.6-3.5,0.9
		C94.4,102,93.9,102.2,93.3,102.4C93.3,102.4,93.3,102.4,93.3,102.4z"/>
	<path class="st0" d="M111.8,82c-1.3-1.2-3.3-1.8-6.2-1.8c-2.9,0-5,0.6-6.3,1.8c-1.2,1.3-1.8,3.3-1.8,6.2c0,2.9,0.6,5,1.8,6.3
		c1.3,1.2,3.3,1.8,6.2,1.8c2.9,0,5-0.6,6.3-1.8c1.2-1.3,1.8-3.3,1.8-6.2C113.7,85.4,113.1,83.3,111.8,82z"/>
	<path class="st0" d="M117.6,25.1C117.6,25.1,117.6,25.1,117.6,25.1c0.8,0.8,2.2,0.8,2.9,0l2.3-2.3c2.4-2.4,5.5-6,5.7-6.4
		c0.2-0.3,0.5-0.5,0.8-0.5c0.1,0,0.2,0,0.4,0.1c0.5,0.2,0.7,0.7,0.6,1.2c-0.2,1.1-0.3,5.7-0.3,8.5v13.7c0,1.2,1,2.2,2.2,2.2h3.2
		c1.2,0,2.2-1,2.2-2.2l0-13.7c0-2.8-0.1-7.4-0.3-8.5c-0.1-0.5,0.2-1,0.6-1.1c0.5-0.2,1,0,1.2,0.5c0.2,0.3,3.3,4,5.7,6.4l2.3,2.3
		c0.8,0.8,2.1,0.8,2.9,0l2.2-2.2c0.8-0.8,0.8-2.1,0-2.9L133.9,1.4L115.4,20c-0.8,0.8-0.8,2.1,0,3L117.6,25.1z"/>
	<rect x="1" y="1" class="st0" width="10.8" height="231.9"/>
	<path class="st0" d="M77.2,41.1l18.5-18.5c0.8-0.8,0.8-2.1,0-3l-2.2-2.2c-0.8-0.8-2.2-0.8-2.9,0l-2.3,2.3c-2.4,2.4-5.5,6-5.7,6.4
		c-0.2,0.4-0.7,0.6-1.2,0.4c-0.5-0.2-0.7-0.7-0.6-1.2c0.2-1.1,0.3-5.7,0.3-8.5V3.2c0-1.2-1-2.2-2.2-2.2h-3.2c-1.2,0-2.2,1-2.2,2.2
		v13.7c0,2.8,0.1,7.4,0.3,8.5c0.1,0.5-0.2,1-0.6,1.1c-0.5,0.2-1,0-1.2-0.5c-0.2-0.3-3.3-4-5.7-6.4l-2.3-2.3
		c-0.4-0.4-0.9-0.6-1.5-0.6s-1.1,0.2-1.5,0.6l-2.2,2.2c-0.8,0.8-0.8,2.1,0,3L77.2,41.1z"/>
	<circle class="st0" cx="162.3" cy="120.5" r="3.3"/>
	<path class="st0" d="M180.3,52.9H30.8c-1.2,0-2.2,1-2.2,2.2v3.2c0,1.2,1,2.2,2.2,2.2h149.5c1.2,0,2.2-1,2.2-2.2v-3.2
		C182.5,53.9,181.6,52.9,180.3,52.9z"/>
	<rect x="199.4" y="1" class="st0" width="10.8" height="231.9"/>
	<path class="st0" d="M162.3,109.6c1.8,0,3.3-1.5,3.3-3.3c0-1.8-1.5-3.3-3.3-3.3s-3.3,1.5-3.3,3.3
		C159,108.1,160.5,109.6,162.3,109.6z"/>
	<circle class="st0" cx="162.3" cy="134.6" r="3.3"/>
</g>
</svg>
