<?xml version="1.0" encoding="utf-8"?>
<!-- Generator: Adobe Illustrator 25.4.1, SVG Export Plug-In . SVG Version: 6.00 Build 0)  -->
<svg version="1.1" id="Layer_1" xmlns="http://www.w3.org/2000/svg" xmlns:xlink="http://www.w3.org/1999/xlink" x="0px" y="0px"
	 viewBox="0 0 211.181 233.858" enable-background="new 0 0 211.181 233.858" xml:space="preserve">
<g>
	<path fill="#25303B" d="M176.457,124.724L176.457,124.724c-2.339,0-4.252-1.913-4.252-4.252c0-2.339,1.913-4.252,4.252-4.252
		c2.338,0,4.252,1.913,4.252,4.252C180.709,122.811,178.795,124.724,176.457,124.724 M180.709,134.645L180.709,134.645
		c0-2.338-1.914-4.252-4.252-4.252c-2.339,0-4.252,1.914-4.252,4.252c0,2.339,1.913,4.252,4.252,4.252
		C178.795,138.897,180.709,136.984,180.709,134.645 M180.709,106.298L180.709,106.298c0-2.338-1.914-4.251-4.252-4.251
		c-2.339,0-4.252,1.913-4.252,4.251c0,2.339,1.913,4.252,4.252,4.252C178.795,110.55,180.709,108.637,180.709,106.298
		 M52.576,95.238c-1.707-1.761-2.12-4.452-2.12-6.95s0.413-5.189,2.12-6.95c1.761-1.708,4.453-2.121,6.951-2.121
		c2.497,0,5.188,0.413,6.95,2.121c1.708,1.761,2.121,4.452,2.121,6.95s-0.413,5.189-2.121,6.95c-1.762,1.707-4.453,2.121-6.95,2.121
		C57.029,97.359,54.337,96.945,52.576,95.238 M86.225,142.402l-5.248-25.616l-1.312-6.404l-0.164-0.801l-0.133-0.591
		c-0.053-0.214-0.121-0.428-0.184-0.642c-0.272-0.85-0.656-1.662-1.136-2.416c-0.957-1.507-2.324-2.772-3.908-3.607
		c-0.197-0.108-0.397-0.205-0.601-0.294l-0.302-0.133l-0.213-0.086c-0.286-0.114-0.57-0.232-0.859-0.337
		c-0.575-0.217-1.156-0.421-1.743-0.606c-1.172-0.374-2.364-0.687-3.568-0.938c-2.41-0.503-4.871-0.755-7.326-0.755
		s-4.916,0.252-7.325,0.754c-1.205,0.252-2.397,0.565-3.569,0.939c-0.588,0.185-1.168,0.389-1.743,0.606
		c-0.29,0.105-0.574,0.223-0.859,0.337l-0.214,0.085l-0.301,0.134c-0.203,0.089-0.404,0.186-0.601,0.293
		c-1.584,0.835-2.951,2.1-3.908,3.608c-0.481,0.753-0.864,1.566-1.136,2.416c-0.063,0.213-0.132,0.428-0.184,0.642l-0.134,0.591
		l-0.164,0.8l-1.312,6.405l-5.248,25.616c-0.225,1.101-0.286,2.325,0.308,3.255c0.622,0.911,1.771,1.337,2.872,1.563
		c1.101,0.225,2.325,0.286,3.256-0.308c0.912-0.623,1.337-1.772,1.563-2.873l5.25-25.63l0.213-1.037
		c0.06-0.296,0.32-0.508,0.622-0.508h0.297c0.355,0,0.642,0.291,0.636,0.646c-0.183,11.882-0.366,23.734-0.549,35.53
		c-0.455,13.378-0.913,26.82-1.373,40.305v0.273c0.002,0.184,0.009,0.367,0.022,0.551c0.025,0.366,0.074,0.731,0.154,1.083
		c0.159,0.703,0.444,1.358,0.922,1.885c0.988,1.023,2.539,1.316,3.987,1.365c1.448,0.05,3.016-0.137,4.071-1.093
		c0.512-0.494,0.842-1.13,1.049-1.823c0.104-0.347,0.177-0.708,0.227-1.073c0.026-0.183,0.045-0.366,0.06-0.549l0.019-0.274
		c0.462-13.523,0.923-27.003,1.382-40.418c0.019-1.206,0.037-2.414,0.056-3.621c0.01-0.694,0.576-1.25,1.27-1.25h0.766
		c0.694,0,1.259,0.556,1.27,1.25c0.018,1.207,0.037,2.415,0.055,3.621c0.459,13.415,0.92,26.895,1.383,40.418l0.019,0.274
		c0.014,0.183,0.033,0.366,0.059,0.549c0.05,0.365,0.124,0.726,0.227,1.073c0.208,0.693,0.537,1.329,1.05,1.823
		c1.054,0.956,2.623,1.143,4.07,1.093c1.448-0.049,3-0.342,3.988-1.365c0.477-0.527,0.762-1.182,0.922-1.885
		c0.08-0.352,0.128-0.717,0.154-1.083c0.012-0.184,0.019-0.367,0.022-0.551l-0.001-0.273c-0.459-13.485-0.917-26.927-1.373-40.305
		c-0.182-11.796-0.365-23.648-0.548-35.529c-0.006-0.355,0.281-0.647,0.636-0.647h0.299c0.301,0,0.561,0.212,0.622,0.508
		l0.212,1.037l5.251,25.63c0.226,1.101,0.65,2.25,1.563,2.873c0.93,0.594,2.154,0.533,3.255,0.308
		c1.101-0.226,2.25-0.652,2.873-1.563C86.511,144.727,86.45,143.503,86.225,142.402 M158.154,175.723
		c0.38,0.646,0.479,1.492,0.24,2.333c-1.245,4.307-3.514,8.32-6.573,11.611c-3.053,3.297-6.863,5.837-11.062,7.441
		c-4.205,1.574-8.775,2.175-13.232,1.693c-4.46-0.45-8.802-1.975-12.593-4.38c-3.787-2.415-7.004-5.718-9.293-9.561
		c-1.153-1.921-2.089-3.978-2.776-6.116c-0.675-2.141-1.103-4.36-1.276-6.596c-0.334-4.471,0.363-9.018,2.066-13.168
		c1.677-4.162,4.368-7.912,7.742-10.869c0.666-0.566,1.469-0.838,2.216-0.764c0.744,0.062,1.4,0.426,1.829,1.042l1.561,2.229
		c0.845,1.255,0.695,2.83-0.231,3.638c-2.422,2.128-4.35,4.806-5.554,7.8c-1.23,2.982-1.728,6.264-1.488,9.476
		c0.429,6.435,4.138,12.566,9.587,16.002c2.718,1.722,5.845,2.826,9.058,3.148c3.211,0.349,6.489-0.09,9.503-1.213
		c3.001-1.148,5.776-2.992,7.96-5.357c2.191-2.359,3.821-5.233,4.717-8.336c0.344-1.179,1.708-1.978,3.202-1.744l2.68,0.473
		C157.177,174.634,157.783,175.074,158.154,175.723 M141.42,117.779c2.497,0,5.187-0.413,6.95-2.12
		c1.707-1.762,2.12-4.453,2.12-6.951c0-2.497-0.413-5.188-2.12-6.95c-1.763-1.708-4.453-2.121-6.95-2.121
		c-2.498,0-5.19,0.413-6.951,2.121c-1.707,1.762-2.12,4.453-2.12,6.95c0,2.498,0.413,5.189,2.12,6.951
		C136.23,117.366,138.922,117.779,141.42,117.779 M157.767,162.874l13.788,22.94c0.579,0.963,1.361,1.903,2.426,2.187
		c1.075,0.25,2.208-0.215,3.169-0.793c0.983-0.543,1.952-1.291,2.274-2.346c0.288-1.064-0.135-2.212-0.678-3.195l-12.965-23.453
		c-0.288-0.541-0.636-1.037-1.048-1.48c-0.822-0.888-1.878-1.543-3.045-1.892l-23.27-6.908l4.195-19.752
		c0.139-0.614,0.246-1.232,0.286-1.818c0.002-0.284,0.013-0.579-0.01-0.85c-0.022-0.269-0.075-0.528-0.114-0.791
		c-0.11-0.52-0.271-1.034-0.506-1.524c-0.451-0.986-1.164-1.863-2.032-2.53c-0.872-0.661-1.901-1.115-2.957-1.296
		c-0.531-0.092-1.05-0.118-1.6-0.09c-0.283,0.031-0.567,0.061-0.853,0.109l-0.888,0.234l-20.298,6.862
		c-0.202,0.069-0.399,0.144-0.591,0.23c-0.772,0.34-1.476,0.825-2.07,1.422c-0.299,0.296-0.561,0.629-0.814,0.97l-11.144,14.746
		c-0.677,0.895-1.258,1.972-1.123,3.067c0.169,1.09,1.022,1.967,1.918,2.644c0.895,0.677,1.972,1.258,3.067,1.124
		c1.09-0.169,1.967-1.023,2.644-1.918l11.1-14.686l8.676-2.933l-2.838,13.363l-0.969,4.56c-0.343,1.38-0.313,2.691,0.084,3.944
		c0.399,1.244,1.164,2.365,2.177,3.19c1.022,0.827,2.236,1.324,3.645,1.514l2.517,0.426l4.126,0.701L157.767,162.874z
		 M144.315,23.506c-2.517-2.521-5.726-6.358-5.857-6.596c0.323,1.579,0.298,8.713,0.298,8.713v13.693
		c0,1.769-1.434,3.203-3.203,3.203h-3.232c-1.768,0-3.203-1.434-3.203-3.203V25.623c0,0-0.025-7.134,0.298-8.713
		c-0.131,0.238-3.339,4.075-5.857,6.596l-2.304,2.304c-1.205,1.205-3.158,1.205-4.363,0l-2.202-2.2
		c-1.205-1.206-1.205-3.159,0-4.364l19.248-19.247l19.246,19.247c1.205,1.205,1.205,3.158,0,4.364l-2.202,2.2
		c-1.205,1.205-3.158,1.205-4.363,0L144.315,23.506z M64.562,16.708c-1.205-1.205-3.158-1.205-4.363,0l-2.201,2.201
		c-1.205,1.205-1.205,3.159,0,4.364l19.246,19.246l19.247-19.246c1.205-1.205,1.205-3.159,0-4.364l-2.201-2.201
		c-1.205-1.205-3.159-1.205-4.364,0l-2.303,2.304c-2.518,2.521-5.726,6.358-5.857,6.597c0.322-1.58,0.297-8.713,0.297-8.713V3.203
		c0-1.769-1.434-3.204-3.203-3.204h-3.232c-1.769,0-3.203,1.435-3.203,3.204l0.001,13.693c0,0-0.026,7.133,0.297,8.713
		c-0.131-0.239-3.339-4.076-5.858-6.597L64.562,16.708z M12.756,233.858H0V0h12.756V233.858z M211.181-0.001h-12.756v233.858h12.756
		V-0.001z M180.34,61.511H30.841c-1.769,0-3.203-1.434-3.203-3.203v-3.232c0-1.769,1.434-3.203,3.203-3.203H180.34
		c1.769,0,3.203,1.434,3.203,3.203v3.232C183.543,60.077,182.109,61.511,180.34,61.511 M183.543,214.214v-3.232
		c0-1.769-1.434-3.204-3.203-3.204H30.841c-1.769,0-3.203,1.435-3.203,3.204v3.232c0,1.769,1.434,3.203,3.203,3.203H180.34
		C182.109,217.417,183.543,215.983,183.543,214.214"/>
</g>
</svg>
