<?xml version="1.0" encoding="utf-8"?>
<!-- Generator: Adobe Illustrator 25.4.1, SVG Export Plug-In . SVG Version: 6.00 Build 0)  -->
<svg version="1.1" id="Layer_1" xmlns="http://www.w3.org/2000/svg" xmlns:xlink="http://www.w3.org/1999/xlink" x="0px" y="0px"
	 viewBox="0 0 211.181 233.858" enable-background="new 0 0 211.181 233.858" xml:space="preserve">
<g>
	<circle fill="#FFFFFF" cx="176.457" cy="120.472" r="3.252"/>
	<circle fill="#FFFFFF" cx="176.457" cy="134.645" r="3.252"/>
	<path fill="#FFFFFF" d="M180.34,208.778H30.841c-1.214,0-2.203,0.988-2.203,2.204v3.232c0,1.215,0.988,2.203,2.203,2.203H180.34
		c1.215,0,2.203-0.988,2.203-2.203v-3.232C182.543,209.766,181.555,208.778,180.34,208.778z"/>
	<path fill="#FFFFFF" d="M67.598,88.288c0-2.932-0.602-4.978-1.839-6.253c-1.255-1.216-3.301-1.817-6.232-1.817
		c-2.933,0-4.979,0.602-6.254,1.839c-1.215,1.254-1.816,3.3-1.816,6.232c0,2.924,0.598,4.966,1.827,6.243
		c1.277,1.23,3.32,1.828,6.244,1.828c2.931,0,4.977-0.602,6.254-1.839C66.997,93.267,67.598,91.221,67.598,88.288z"/>
	<path fill="#FFFFFF" d="M116.174,151.177l-1.551-2.215c-0.256-0.366-0.634-0.58-1.094-0.619c-0.051-0.005-0.102-0.007-0.153-0.007
		c-0.451,0-0.924,0.191-1.331,0.537c-3.272,2.867-5.856,6.495-7.462,10.48c-1.632,3.977-2.321,8.373-1.997,12.72
		c0.168,2.164,0.583,4.308,1.233,6.37c0.658,2.05,1.56,4.037,2.679,5.901c2.205,3.703,5.308,6.895,8.974,9.233
		c3.679,2.334,7.883,3.796,12.156,4.228c4.27,0.46,8.688-0.104,12.78-1.635c4.073-1.556,7.768-4.04,10.68-7.184
		c2.95-3.174,5.144-7.05,6.345-11.209c0.159-0.56,0.108-1.125-0.141-1.549c-0.002-0.004-0.004-0.007-0.006-0.01
		c-0.229-0.401-0.582-0.653-1.021-0.729l-2.682-0.474c-1.04-0.159-1.881,0.398-2.068,1.039c-0.935,3.239-2.645,6.262-4.944,8.737
		c-2.262,2.449-5.146,4.39-8.335,5.609c-3.206,1.195-6.646,1.636-9.969,1.273c-3.324-0.333-6.606-1.474-9.484-3.297
		c-5.75-3.626-9.602-10.057-10.05-16.78c-0.254-3.396,0.285-6.831,1.561-9.924c1.243-3.092,3.257-5.92,5.819-8.17
		C116.607,153.074,116.77,152.062,116.174,151.177z"/>
	<path fill="#FFFFFF" d="M46.585,102.668l-0.662,0.277c-0.183,0.08-0.358,0.165-0.53,0.258c-1.428,0.753-2.681,1.91-3.542,3.266
		c-0.437,0.685-0.783,1.419-1.027,2.185l-0.043,0.144c-0.043,0.144-0.087,0.287-0.123,0.431l-0.29,1.355l-6.56,32.021
		c-0.231,1.13-0.173,1.977,0.171,2.517c0.345,0.504,1.101,0.89,2.229,1.121c1.131,0.231,1.977,0.173,2.518-0.171
		c0.503-0.345,0.889-1.101,1.121-2.231l5.463-26.667c0.153-0.756,0.827-1.307,1.602-1.307h0.297c0.442,0,0.856,0.174,1.167,0.489
		c0.31,0.315,0.477,0.731,0.469,1.173l-0.549,35.529l-1.374,40.323l0,0.239c0.001,0.153,0.008,0.317,0.02,0.482
		c0.023,0.334,0.067,0.646,0.132,0.93c0.137,0.606,0.362,1.075,0.688,1.435c0.616,0.638,1.696,0.984,3.28,1.038
		c1.586,0.045,2.686-0.218,3.366-0.835c0.322-0.312,0.586-0.779,0.762-1.368c0.083-0.278,0.149-0.589,0.194-0.922
		c0.024-0.169,0.041-0.333,0.054-0.497l0.018-0.261l1.38-40.383l0.056-3.603c0.018-1.231,1.036-2.234,2.27-2.234h0.766
		c1.231,0,2.25,1.002,2.27,2.233l0.055,3.623l1.4,40.638c0.012,0.155,0.028,0.317,0.051,0.478c0.046,0.337,0.112,0.647,0.195,0.929
		c0.179,0.597,0.436,1.052,0.786,1.388c0.657,0.596,1.757,0.857,3.342,0.814c1.585-0.054,2.666-0.4,3.302-1.061
		c0.304-0.336,0.529-0.806,0.667-1.412c0.064-0.282,0.107-0.587,0.131-0.932c0.011-0.163,0.017-0.329,0.02-0.496l-0.001-0.254
		l-1.373-40.274l-0.548-35.548c-0.007-0.441,0.16-0.858,0.47-1.174c0.31-0.315,0.724-0.489,1.166-0.489h0.299
		c0.772,0,1.445,0.549,1.602,1.306l5.463,26.668c0.236,1.146,0.611,1.882,1.147,2.248c0.515,0.329,1.362,0.387,2.491,0.154
		c1.129-0.231,1.886-0.617,2.249-1.147c0.326-0.513,0.384-1.36,0.153-2.49l-6.853-33.394c-0.031-0.122-0.074-0.266-0.117-0.41
		l-0.051-0.17c-0.236-0.737-0.582-1.472-1.021-2.161c-0.861-1.355-2.115-2.513-3.53-3.259c-0.185-0.101-0.357-0.185-0.534-0.262
		l-0.697-0.292c-0.206-0.083-0.411-0.166-0.619-0.242c-0.569-0.214-1.133-0.413-1.703-0.592c-1.135-0.362-2.302-0.669-3.471-0.913
		c-4.666-0.973-9.574-0.973-14.243-0.001c-1.172,0.245-2.339,0.552-3.47,0.913c-0.574,0.181-1.136,0.379-1.693,0.589
		C47.014,102.494,46.799,102.581,46.585,102.668z"/>
	<path fill="#FFFFFF" d="M176.457,109.55c1.793,0,3.252-1.459,3.252-3.252c0-1.792-1.459-3.251-3.252-3.251
		s-3.252,1.458-3.252,3.251C173.205,108.091,174.664,109.55,176.457,109.55z"/>
	<path fill="#FFFFFF" d="M110.969,129.706L99.82,144.459c-0.694,0.919-1.007,1.707-0.928,2.343c0.094,0.602,0.609,1.273,1.528,1.968
		c0.919,0.695,1.708,1.01,2.342,0.93c0.601-0.094,1.274-0.609,1.969-1.529l11.099-14.685c0.121-0.16,0.287-0.28,0.478-0.345
		l8.676-2.933c0.104-0.035,0.213-0.053,0.32-0.053c0.241,0,0.479,0.088,0.665,0.253c0.269,0.239,0.388,0.604,0.313,0.955
		l-3.807,17.923c-0.307,1.236-0.285,2.349,0.059,3.433c0.338,1.053,0.997,2.019,1.855,2.718c0.871,0.705,1.901,1.131,3.146,1.298
		l30.397,5.154c0.288,0.049,0.54,0.221,0.69,0.471l13.788,22.939c0.594,0.987,1.208,1.572,1.827,1.737
		c0.589,0.135,1.408-0.09,2.396-0.684c1.04-0.576,1.646-1.169,1.833-1.781c0.158-0.587-0.04-1.411-0.597-2.42l-12.965-23.453
		c-0.258-0.483-0.561-0.911-0.906-1.284c-0.701-0.757-1.6-1.315-2.599-1.613l-23.268-6.907c-0.5-0.148-0.803-0.656-0.694-1.167
		l4.195-19.752c0.147-0.654,0.234-1.198,0.267-1.678v-0.119c0.003-0.195,0.007-0.393-0.009-0.577
		c-0.014-0.166-0.04-0.321-0.066-0.477l-0.04-0.253c-0.093-0.427-0.233-0.852-0.419-1.237c-0.387-0.848-0.985-1.592-1.739-2.171
		c-0.748-0.567-1.62-0.95-2.517-1.104c-0.45-0.077-0.892-0.103-1.38-0.076c-0.215,0.024-0.477,0.052-0.739,0.096l-0.798,0.215
		l-20.233,6.843c-0.17,0.058-0.339,0.122-0.503,0.195c-0.664,0.292-1.257,0.7-1.769,1.214
		C111.42,129.112,111.185,129.416,110.969,129.706z"/>
	<rect x="199.425" y="1" fill="#FFFFFF" width="10.756" height="231.857"/>
	<path fill="#FFFFFF" d="M77.244,41.106l18.54-18.539c0.813-0.813,0.813-2.137,0-2.95l-2.201-2.201c-0.813-0.813-2.137-0.813-2.95,0
		l-2.303,2.304c-2.416,2.419-5.456,6.046-5.722,6.428c-0.237,0.434-0.737,0.601-1.204,0.43c-0.464-0.17-0.717-0.683-0.619-1.168
		c0.221-1.085,0.287-5.684,0.277-8.51V3.203C81.063,1.988,80.075,1,78.86,1h-3.232c-1.215,0-2.203,0.989-2.203,2.204l0.001,13.693
		c-0.01,2.83,0.055,7.428,0.277,8.513c0.099,0.484-0.17,0.968-0.635,1.139c-0.462,0.172-0.983-0.023-1.221-0.457
		c-0.231-0.326-3.274-3.955-5.689-6.372l-2.303-2.303c-0.394-0.394-0.917-0.611-1.475-0.611c-0.557,0-1.08,0.217-1.474,0.611
		l-2.201,2.201c-0.813,0.813-0.813,2.137,0,2.95L77.244,41.106z"/>
	<path fill="#FFFFFF" d="M141.42,116.779c2.932,0,4.978-0.602,6.255-1.838c1.214-1.254,1.815-3.3,1.815-6.232
		c0-2.932-0.602-4.978-1.839-6.254c-1.255-1.215-3.3-1.817-6.231-1.817c-2.933,0-4.979,0.602-6.255,1.839
		c-1.215,1.255-1.816,3.301-1.816,6.232c0,2.932,0.602,4.978,1.838,6.255C136.441,116.178,138.487,116.779,141.42,116.779z"/>
	<rect x="1" y="1.001" fill="#FFFFFF" width="10.756" height="231.857"/>
	<path fill="#FFFFFF" d="M117.599,25.103c0.812,0.813,2.137,0.813,2.949,0l2.304-2.304c2.413-2.415,5.456-6.045,5.723-6.428
		c0.176-0.32,0.496-0.495,0.839-0.495c0.121,0,0.244,0.022,0.365,0.066c0.464,0.17,0.717,0.683,0.617,1.168
		c-0.222,1.084-0.287,5.683-0.277,8.509v13.696c0,1.215,0.988,2.203,2.203,2.203h3.231c1.215,0,2.203-0.988,2.203-2.203V25.624
		c0.01-2.83-0.056-7.429-0.277-8.513c-0.1-0.485,0.171-0.969,0.635-1.139c0.462-0.171,0.982,0.023,1.222,0.457
		c0.23,0.325,3.273,3.953,5.688,6.371l2.303,2.303c0.812,0.812,2.137,0.812,2.949,0l2.201-2.2c0.812-0.813,0.812-2.137,0-2.95
		l-18.539-18.54l-18.54,18.54c-0.812,0.813-0.812,2.137,0,2.95L117.599,25.103z"/>
	<path fill="#FFFFFF" d="M180.34,52.874H30.841c-1.214,0-2.203,0.988-2.203,2.203v3.232c0,1.215,0.988,2.203,2.203,2.203H180.34
		c1.215,0,2.203-0.988,2.203-2.203v-3.232C182.543,53.862,181.555,52.874,180.34,52.874z"/>
</g>
</svg>
