<?xml version="1.0" encoding="utf-8"?>
<!-- Generator: Adobe Illustrator 25.4.1, SVG Export Plug-In . SVG Version: 6.00 Build 0)  -->
<svg version="1.1" id="Layer_1" xmlns="http://www.w3.org/2000/svg" xmlns:xlink="http://www.w3.org/1999/xlink" x="0px" y="0px"
	 viewBox="0 0 37.252 37.251" enable-background="new 0 0 37.252 37.251" xml:space="preserve">
<g>
	<g>
		<path fill="#FFCC30" d="M37.253,28.793c0,4.661-3.814,8.475-8.475,8.475H8.476c-4.661,0-8.475-3.814-8.475-8.475V8.491
			c0-4.661,3.813-8.475,8.475-8.475h20.302c4.661,0,8.475,3.813,8.475,8.475V28.793z"/>
	</g>
	<g>
		<g>
			<g>
				<polygon fill="#FFFFFF" points="19.222,14.913 21.666,12.206 21.48,15.849 25.123,15.663 22.416,18.107 25.123,20.551 
					21.48,20.365 21.666,24.008 19.222,21.3 				"/>
			</g>
		</g>
	</g>
	<g>
		<g>
			<g>
				<path fill="#25303B" d="M11.818,12.215c0.527,0,1.095-0.087,1.467-0.448c0.361-0.371,0.448-0.939,0.448-1.467
					c0-0.527-0.087-1.095-0.448-1.467c-0.372-0.361-0.939-0.448-1.467-0.448c-0.527,0-1.095,0.087-1.467,0.448
					C9.99,9.206,9.903,9.774,9.903,10.3c0,0.527,0.087,1.095,0.448,1.467C10.722,12.128,11.291,12.215,11.818,12.215"/>
			</g>
		</g>
		<g>
			<g>
				<path fill="#25303B" d="M28.099,5.545h-7.891c-0.544,0-0.986,0.441-0.986,0.986v8.382l1.681-1.862V7.979
					c0-0.269,0.22-0.489,0.489-0.489h5.523c0.269,0,0.489,0.22,0.489,0.489v9.492c0,0.269-0.22,0.489-0.489,0.489h-4.337
					l-0.162,0.147l2.707,2.444l-3.643-0.186l0.186,3.643L19.222,21.3v8.886c0,0.545,0.441,0.986,0.986,0.986h7.891
					c0.545,0,0.986-0.441,0.986-0.986V6.531C29.085,5.986,28.644,5.545,28.099,5.545z"/>
			</g>
			<g>
				<path fill="#25303B" d="M9.053,7.979c0-0.269,0.22-0.489,0.489-0.489h5.523c0.269,0,0.489,0.22,0.489,0.489v6.526l0.285,0.605
					l0.01,0.023l0.641,1.452l0.746,0.423V6.531c0-0.545-0.441-0.986-0.986-0.986H8.357c-0.545,0-0.986,0.441-0.986,0.986v8.767
					l1.681-1.541V7.979z"/>
			</g>
			<g>
				<path fill="#25303B" d="M16.484,20.452l-0.098-0.056l0,0l-1.234-0.7l0.282,11.476h0.814c0.544,0,0.986-0.441,0.986-0.986v-9.325
					c-0.077-0.034-0.155-0.073-0.234-0.118L16.484,20.452z"/>
			</g>
			<g>
				<path fill="#25303B" d="M15.097,15.465c-0.003-0.006-0.005-0.012-0.008-0.018l-0.611-1.295
					c-0.238-0.505-0.646-0.919-1.147-1.166l-0.153-0.076c-0.339-0.167-0.718-0.255-1.096-0.255h-0.038
					c-0.184,0-0.363,0.034-0.535,0.1c-0.171,0.067-0.326,0.163-0.461,0.287l-0.001,0.001l-1.237,1.135l-2.059,1.887
					c-0.101,0.093-0.184,0.201-0.246,0.324c-0.062,0.124-0.102,0.256-0.116,0.393l-0.363,3.266l-0.048,0.435L6.93,20.918
					c-0.024,0.22-0.019,0.465,0.119,0.633c0.138,0.168,0.371,0.23,0.592,0.255c0.058,0.006,0.118,0.01,0.177,0.01
					c0.166,0,0.33-0.031,0.456-0.129c0.168-0.138,0.23-0.371,0.255-0.591l0.049-0.436l0.049-0.436c0-0.002,0-0.003,0-0.005
					l0.323-2.906c0.008-0.011,0.017-0.02,0.024-0.03l1.154-1.058v5.264l-0.852,5.52c-0.001,0.003-0.002,0.005-0.003,0.009
					l-1.357,4.03c0,0.001-0.001,0.001-0.001,0.003l-0.001,0.003c-0.094,0.28-0.149,0.596-0.023,0.858
					c0.134,0.258,0.421,0.407,0.702,0.501c0.035,0.011,0.07,0.023,0.107,0.033c0.133,0.038,0.272,0.064,0.407,0.064
					c0.121,0,0.24-0.021,0.348-0.073c0.259-0.134,0.407-0.421,0.501-0.702l1.418-4.214l0.005-0.031
					c0.039-0.135,0.073-0.271,0.113-0.406l0.188-0.672l0.36-1.288v2.183l0.4,5.26c0.022,0.296,0.095,0.611,0.313,0.804
					c0.181,0.151,0.427,0.196,0.67,0.196c0.058,0,0.115-0.003,0.172-0.007c0.297-0.007,0.615-0.065,0.819-0.272
					c0.197-0.214,0.238-0.535,0.231-0.831l-0.357-14.53l0.037,0.084c0.051,0.118,0.122,0.226,0.208,0.321
					c0.085,0.095,0.184,0.174,0.295,0.237l2.668,1.507l0.001,0.001l0.076,0.043l0.269,0.152l0.17,0.096
					c0.04,0.022,0.08,0.044,0.122,0.064v-1.974l-2.288-1.292L15.097,15.465z"/>
			</g>
		</g>
	</g>
</g>
</svg>
