<?xml version="1.0" encoding="utf-8"?>
<!-- Generator: Adobe Illustrator 25.4.1, SVG Export Plug-In . SVG Version: 6.00 Build 0)  -->
<svg version="1.1" id="Layer_1" xmlns="http://www.w3.org/2000/svg" xmlns:xlink="http://www.w3.org/1999/xlink" x="0px" y="0px"
	 viewBox="0 0 37.252 37.251" enable-background="new 0 0 37.252 37.251" xml:space="preserve">
<g>
	<g>
		<path fill="#FFCC30" d="M37.244,28.788c0,4.661-3.814,8.475-8.475,8.475H8.467c-4.661,0-8.475-3.814-8.475-8.475V8.486
			c0-4.661,3.813-8.475,8.475-8.475h20.302c4.661,0,8.475,3.813,8.475,8.475V28.788z"/>
	</g>
	<g>
		<g>
			<g>
				<g>
					<path fill="#25303B" d="M22.618,10.998V4.202c0-0.246-0.201-0.447-0.447-0.447h-0.367c-0.246,0-0.447,0.201-0.447,0.447v8.058
						L22.618,10.998z"/>
				</g>
				<g>
					<path fill="#25303B" d="M21.357,26.008v7.156c0,0.246,0.201,0.447,0.447,0.447h0.367c0.246,0,0.447-0.201,0.447-0.447v-8.418
						L21.357,26.008z"/>
				</g>
			</g>
			<g>
				<path fill="#25303B" d="M24.373,3.755h-0.367c-0.246,0-0.447,0.201-0.447,0.447v7.445c-0.164,0.04-0.32,0.119-0.448,0.247
					l-1.739,1.739l-5.529,5.529l-0.674-0.675l5.529-5.529c0.373-0.373,0.373-0.981,0-1.355l-0.021-0.021
					c-0.373-0.373-0.981-0.373-1.355,0l-5.356,5.356l-0.679,0.679l-2.391,2.391l0.119-1.468l1.538-1.538l0.739-0.739
					c0.374-0.373,0.374-0.981,0-1.355l-0.021-0.02c-0.374-0.374-0.981-0.374-1.355,0l-3.83,3.83
					c-0.156,0.157-0.251,0.355-0.274,0.573c-0.076,0.532-0.349,4.148-0.483,5.988l-0.013,0.177l-1.744,1.745
					c-0.183,0.182-0.183,0.481,0,0.664l5.009,5.009c0.182,0.182,0.481,0.182,0.664,0l1.721-1.721l0.141-0.029
					c0.602-0.122,2.311-0.585,2.977-1.251l7.477-7.477v10.766c0,0.246,0.201,0.447,0.447,0.447h0.367
					c0.246,0,0.447-0.201,0.447-0.447V4.202C24.82,3.956,24.619,3.755,24.373,3.755z M17.218,20.538l5.529-5.529l0.812-0.812v1.375
					c-0.048,0.033-0.095,0.069-0.138,0.112l-5.529,5.529L17.218,20.538z M19.439,23.766l-0.675-0.674l4.247-4.247l0.548-0.547v1.349
					L19.439,23.766z"/>
			</g>
			<g>
				<polygon fill="#FFFFFF" points="24.82,14.648 27.864,11.277 27.632,15.813 32.168,15.581 28.797,18.625 32.168,21.668 
					27.632,21.436 27.864,25.973 24.82,22.601 				"/>
			</g>
		</g>
	</g>
</g>
</svg>
