<?xml version="1.0" encoding="utf-8"?>
<!-- Generator: Adobe Illustrator 25.4.1, SVG Export Plug-In . SVG Version: 6.00 Build 0)  -->
<svg version="1.1" id="Layer_1" xmlns="http://www.w3.org/2000/svg" xmlns:xlink="http://www.w3.org/1999/xlink" x="0px" y="0px"
	 viewBox="0 0 22.2 28" style="enable-background:new 0 0 22.2 28;" xml:space="preserve">
<style type="text/css">
	.st0{fill:#FFCC30;}
	.st1{fill:#25303B;}
</style>
<g>
	<g>
		<g>
			<g>
				<polygon class="st0" points="12.3,9.4 14.7,6.7 14.6,10.3 18.2,10.1 15.5,12.6 18.2,15 14.6,14.8 14.7,18.5 12.3,15.8 				"/>
			</g>
		</g>
	</g>
	<g>
		<g>
			<g>
				<path class="st1" d="M4.9,6.7c0.5,0,1.1-0.1,1.5-0.4c0.4-0.4,0.4-0.9,0.4-1.5c0-0.5-0.1-1.1-0.4-1.5C6,2.9,5.4,2.8,4.9,2.8
					c-0.5,0-1.1,0.1-1.5,0.4C3.1,3.7,3,4.2,3,4.8c0,0.5,0.1,1.1,0.4,1.5C3.8,6.6,4.4,6.7,4.9,6.7"/>
			</g>
		</g>
		<g>
			<g>
				<path class="st1" d="M21.2,0h-7.9c-0.5,0-1,0.4-1,1v8.4L14,7.5V2.4c0-0.3,0.2-0.5,0.5-0.5H20c0.3,0,0.5,0.2,0.5,0.5v9.5
					c0,0.3-0.2,0.5-0.5,0.5h-4.3l-0.2,0.1l2.7,2.4l-3.6-0.2l0.2,3.6l-2.4-2.7v8.9c0,0.5,0.4,1,1,1h7.9c0.5,0,1-0.4,1-1V1
					C22.2,0.4,21.7,0,21.2,0z"/>
			</g>
			<g>
				<path class="st1" d="M2.1,2.4c0-0.3,0.2-0.5,0.5-0.5h5.5c0.3,0,0.5,0.2,0.5,0.5V9l0.3,0.6l0,0L9.6,11l0.7,0.4V1c0-0.5-0.4-1-1-1
					H1.4c-0.5,0-1,0.4-1,1v8.8l1.7-1.5V2.4z"/>
			</g>
			<g>
				<path class="st1" d="M9.6,14.9L9.6,14.9L9.6,14.9l-1.3-0.8l0.3,11.5h0.8c0.5,0,1-0.4,1-1v-9.3c-0.1,0-0.2-0.1-0.2-0.1L9.6,14.9z
					"/>
			</g>
			<g>
				<path class="st1" d="M8.2,9.9C8.2,9.9,8.2,9.9,8.2,9.9L7.6,8.6C7.3,8.1,6.9,7.7,6.4,7.4L6.3,7.4C5.9,7.2,5.5,7.1,5.2,7.1h0
					c-0.2,0-0.4,0-0.5,0.1C4.4,7.3,4.3,7.4,4.1,7.5l0,0L2.9,8.6l-2.1,1.9c-0.1,0.1-0.2,0.2-0.2,0.3c-0.1,0.1-0.1,0.3-0.1,0.4
					l-0.4,3.3l0,0.4l0,0.4c0,0.2,0,0.5,0.1,0.6c0.1,0.2,0.4,0.2,0.6,0.3c0.1,0,0.1,0,0.2,0c0.2,0,0.3,0,0.5-0.1
					c0.2-0.1,0.2-0.4,0.3-0.6l0-0.4l0-0.4c0,0,0,0,0,0L2,11.8c0,0,0,0,0,0l1.2-1.1v5.3l-0.9,5.5c0,0,0,0,0,0l-1.4,4c0,0,0,0,0,0l0,0
					c-0.1,0.3-0.1,0.6,0,0.9c0.1,0.3,0.4,0.4,0.7,0.5c0,0,0.1,0,0.1,0c0.1,0,0.3,0.1,0.4,0.1c0.1,0,0.2,0,0.3-0.1
					c0.3-0.1,0.4-0.4,0.5-0.7L4.5,22l0,0c0-0.1,0.1-0.3,0.1-0.4l0.2-0.7l0.4-1.3v2.2L5.5,27c0,0.3,0.1,0.6,0.3,0.8
					C6,28,6.3,28,6.5,28c0.1,0,0.1,0,0.2,0C7,28,7.3,28,7.5,27.7c0.2-0.2,0.2-0.5,0.2-0.8L7.4,12.4l0,0.1c0.1,0.1,0.1,0.2,0.2,0.3
					C7.7,12.9,7.8,13,7.9,13l2.7,1.5l0,0l0.1,0l0.3,0.2l0.2,0.1c0,0,0.1,0,0.1,0.1v-2l-2.3-1.3L8.2,9.9z"/>
			</g>
		</g>
	</g>
</g>
</svg>
