<?xml version="1.0" encoding="utf-8"?>
<!-- Generator: Adobe Illustrator 25.4.1, SVG Export Plug-In . SVG Version: 6.00 Build 0)  -->
<svg version="1.1" id="Layer_1" xmlns="http://www.w3.org/2000/svg" xmlns:xlink="http://www.w3.org/1999/xlink" x="0px" y="0px"
	 viewBox="0 0 283.465 283.464" enable-background="new 0 0 283.465 283.464" xml:space="preserve">
<g>
	<path fill="#996017" d="M219.685,283.464H63.779C28.555,283.464,0,254.909,0,219.685V63.779C0,28.555,28.555,0,63.779,0h155.906
		c35.225,0,63.779,28.555,63.779,63.779v155.906C283.464,254.909,254.91,283.464,219.685,283.464"/>
	<path fill="#FFFFFF" d="M106.688,158.918c9.554,1.844,17.802,5.878,22.877,8.814c2.386,1.38,5.367-0.331,5.367-3.087V88.793
		c0-1.198-0.595-2.315-1.595-2.975c-3.832-2.531-14.182-8.737-26.766-11.148c-12.64-2.42-28.334,0.8-34.55,2.311
		c-1.6,0.389-2.718,1.822-2.718,3.469v76.916c0,2.286,2.118,3.991,4.347,3.487C80.699,159.258,95.008,156.697,106.688,158.918
		 M209.98,157.606V80.701c0-1.621-1.088-3.043-2.657-3.453c-5.857-1.53-20.352-4.681-32.896-2.27
		c-12.574,2.401-23.182,8.625-27.112,11.154c-1.021,0.657-1.63,1.785-1.63,2.999v75.897c0,2.741,2.953,4.461,5.335,3.105
		c5.176-2.947,13.65-7.051,23.319-8.907c11.459-2.18,24.573,0.252,31.243,1.854C207.829,161.62,209.98,159.916,209.98,157.606
		 M230.54,92.303v48.848v24.424v12.212v3.054v2.853c0.01,1.016,0.009,2.058-0.245,2.903c-0.247,0.88-0.558,1.496-1.043,2.163
		c-0.487,0.665-1.158,1.293-1.902,1.736c-0.37,0.224-0.754,0.406-1.127,0.544c-0.189,0.069-0.362,0.13-0.553,0.171l-0.636,0.049
		l-1.272,0.096c-0.214,0.014-0.422,0.038-0.639,0.043l-0.739-0.134l-2.049-0.473l-1.756-0.392l-1.997-0.417
		c-1.333-0.273-2.67-0.523-4.009-0.765c-2.68-0.465-5.366-0.906-8.056-1.234c-5.377-0.699-10.769-1.09-16.079-1.051
		c-2.661-0.006-5.277,0.184-7.864,0.439c-1.275,0.187-2.546,0.335-3.816,0.573c-1.275,0.218-2.518,0.547-3.778,0.833
		c-2.505,0.656-4.99,1.471-7.449,2.398c-2.451,0.958-4.872,2.031-7.252,3.21c-2.382,1.177-4.714,2.477-6.994,3.856
		c-1.139,0.692-2.266,1.404-3.37,2.141l-0.825,0.553l-1.573,1.103c-0.519,0.429-1.158,0.619-1.737,0.929l-0.445,0.208l-0.451,0.12
		c-0.308,0.07-0.626,0.12-0.95,0.146c-0.647,0.051-1.313,0.006-1.936-0.134c-0.313-0.073-0.612-0.147-0.902-0.277l-0.87-0.461
		c-0.599-0.265-1.125-0.694-1.659-1.107l-0.803-0.615l-0.428-0.311c-1.043-0.764-2.137-1.488-3.234-2.201
		c-2.208-1.414-4.504-2.713-6.858-3.887c-4.707-2.357-9.647-4.233-14.717-5.53c-1.26-0.353-2.549-0.584-3.82-0.88
		c-1.265-0.253-2.534-0.393-3.799-0.602c-1.297-0.12-2.584-0.274-3.896-0.35c-1.321-0.049-2.625-0.163-3.962-0.149
		c-10.649-0.129-21.578,1.322-32.273,3.453l-3.266,0.684l-1.026,0.218l-0.513,0.109c-0.172,0.037-0.301-0.008-0.454-0.007
		l-1.767-0.125c-0.628,0.006-1.07-0.185-1.608-0.432c-0.52-0.246-1.036-0.579-1.49-0.978c-0.458-0.392-0.846-0.855-1.157-1.314
		c-0.309-0.449-0.517-0.915-0.728-1.448c-0.176-0.565-0.343-1.164-0.363-1.858c-0.042-0.68-0.012-1.393-0.021-2.088v-3.116v-4.195
		v-16.779V91.944c0-1.769,1.434-3.203,3.203-3.203h3.231c1.769,0,3.203,1.434,3.203,3.203v67.118v16.779v5.274l0.841-0.169
		c11.226-2.227,22.602-3.775,34.344-3.644c1.46-0.013,2.946,0.108,4.42,0.167c1.479,0.086,2.972,0.259,4.458,0.402
		c1.495,0.237,3.008,0.417,4.486,0.712c1.453,0.332,2.92,0.603,4.354,1.001c5.77,1.477,11.344,3.597,16.638,6.249
		c2.65,1.323,5.23,2.781,7.732,4.384c1.248,0.809,2.487,1.63,3.701,2.519l0.492,0.357l1.088-0.733
		c1.222-0.815,2.461-1.598,3.711-2.358c2.505-1.515,5.063-2.941,7.696-4.243c2.632-1.304,5.327-2.501,8.087-3.578
		c2.774-1.048,5.608-1.979,8.515-2.738c1.465-0.339,2.931-0.717,4.413-0.973c1.479-0.277,2.988-0.462,4.479-0.673
		c2.978-0.3,5.948-0.505,8.881-0.501c5.877-0.042,11.668,0.387,17.382,1.128c2.862,0.35,5.698,0.815,8.529,1.306
		c1.412,0.255,2.824,0.52,4.23,0.807l2.404,0.503V92.303c0-1.769,1.434-3.203,3.203-3.203h3.232
		C229.106,89.1,230.54,90.534,230.54,92.303"/>
</g>
</svg>
