<?xml version="1.0" encoding="utf-8"?>
<!-- Generator: Adobe Illustrator 25.4.1, SVG Export Plug-In . SVG Version: 6.00 Build 0)  -->
<svg version="1.1" id="Layer_1" xmlns="http://www.w3.org/2000/svg" xmlns:xlink="http://www.w3.org/1999/xlink" x="0px" y="0px"
	 viewBox="0 0 201.3 138.2" style="enable-background:new 0 0 201.3 138.2;" xml:space="preserve">
<style type="text/css">
	.st0{fill:#25303B;}
</style>
<g>
	<path class="st0" d="M180.7,0h-17v0H30.3c-1.1,0-2,0.9-2,2v27c0,29.6,15.9,53.1,29.3,67.7c5.2,5.7,12.6,8.9,20.3,8.9h42.6
		c7.7,0,15.2-3.3,20.4-9c9.1-9.9,19.3-24,25-41.3h14.9c11.4,0,20.6-9.2,20.6-20.6V20.6C201.3,9.2,192.1,0,180.7,0 M188.5,34.7
		c0,4.3-3.5,7.8-7.8,7.8h-9.4c-1.2,0-2.1-1-2-2.2c0.5-3.6,0.8-7.4,0.8-11.3V14.7c0-1.1,0.9-2,2-2h8.6c4.3,0,7.8,3.5,7.8,7.8V34.7z
		 M0,123.3c0,4.1,1.7,7.8,4.4,10.5c2.7,2.7,6.4,4.4,10.5,4.4h105.6h63.1c4.1,0,7.8-1.7,10.5-4.4c2.7-2.7,4.4-6.4,4.4-10.5v-4.4
		c0-1.1-0.9-2-2-2H2c-1.1,0-2,0.9-2,2V123.3z"/>
</g>
</svg>
