<?xml version="1.0" encoding="utf-8"?>
<!-- Generator: Adobe Illustrator 25.4.1, SVG Export Plug-In . SVG Version: 6.00 Build 0)  -->
<svg version="1.1" id="Layer_1" xmlns="http://www.w3.org/2000/svg" xmlns:xlink="http://www.w3.org/1999/xlink" x="0px" y="0px"
	 viewBox="0 0 283.465 283.464" enable-background="new 0 0 283.465 283.464" xml:space="preserve">
<g>
	<path fill="#996017" d="M219.685,283.464H63.78C28.555,283.464,0,254.909,0,219.685V63.779C0,28.555,28.555,0,63.78,0h155.905
		c35.225,0,63.78,28.555,63.78,63.779v155.906C283.465,254.909,254.91,283.464,219.685,283.464"/>
	<path fill-rule="evenodd" clip-rule="evenodd" fill="#FFFFFF" d="M125.066,132.369l-5.927-12.115H47.598
		c-1.973,0-3.572,1.599-3.572,3.572v9.599c0,1.972,1.599,3.571,3.572,3.571h4.491c1.435,0,2.73,0.858,3.289,2.179l29.676,70.053
		c0.56,1.32,1.855,2.178,3.289,2.178h107.423c1.428,0,2.718-0.85,3.282-2.163l30.075-70.083c0.563-1.313,1.854-2.164,3.282-2.164
		h4.152c1.973,0,3.572-1.599,3.572-3.571v-9.599c0-1.973-1.599-3.572-3.572-3.572H149.05c1.586,3.311,0.268,7.284-2.982,8.991
		l-11.728,6.158C130.946,137.186,126.75,135.812,125.066,132.369 M115.181,68.313l25.201,52.437c0.855,1.78,0.104,3.916-1.677,4.769
		l-3.226,1.544c-1.776,0.851-3.907,0.103-4.761-1.673l-25.207-52.425c-0.854-1.777-0.108-3.909,1.669-4.765l3.231-1.557
		C112.189,65.786,114.325,66.535,115.181,68.313 M121.014,158.854v28.146c0,2.599,2.107,4.705,4.705,4.705h4.74
		c2.598,0,4.705-2.106,4.705-4.705v-28.146c0-2.599-2.107-4.705-4.705-4.705h-4.74C123.121,154.15,121.014,156.255,121.014,158.854
		 M147.937,158.854v28.146c0,2.599,2.106,4.705,4.705,4.705h4.739c2.598,0,4.705-2.106,4.705-4.705v-28.146
		c0-2.599-2.107-4.705-4.705-4.705h-4.739C150.043,154.15,147.937,156.255,147.937,158.854 M175.035,158.867v28.115
		c0,2.609,2.115,4.724,4.724,4.724h4.701c2.609,0,4.725-2.115,4.725-4.724v-28.115c0-2.605-2.112-4.717-4.717-4.717h-4.717
		C177.146,154.15,175.035,156.262,175.035,158.867 M95,158.854v28.146c0,2.599,2.106,4.705,4.705,4.705h4.71
		c2.599,0,4.705-2.106,4.705-4.705v-28.146c0-2.599-2.106-4.705-4.705-4.705h-4.71C97.106,154.15,95,156.255,95,158.854"/>
</g>
</svg>
