<?xml version="1.0" encoding="utf-8"?>
<!-- Generator: Adobe Illustrator 25.4.1, SVG Export Plug-In . SVG Version: 6.00 Build 0)  -->
<svg version="1.1" id="Layer_1" xmlns="http://www.w3.org/2000/svg" xmlns:xlink="http://www.w3.org/1999/xlink" x="0px" y="0px"
	 viewBox="0 0 283.465 283.464" enable-background="new 0 0 283.465 283.464" xml:space="preserve">
<g>
	<defs>
		<rect id="SVGID_1_" width="283.465" height="283.464"/>
	</defs>
	<clipPath id="SVGID_00000048462759480557448720000007718550099853426082_">
		<use xlink:href="#SVGID_1_"  overflow="visible"/>
	</clipPath>
	<path clip-path="url(#SVGID_00000048462759480557448720000007718550099853426082_)" fill="#996017" d="M219.685,283.464H63.78
		C28.555,283.464,0,254.909,0,219.685V63.779C0,28.555,28.555,0,63.78,0h155.905c35.225,0,63.78,28.555,63.78,63.779v155.906
		C283.465,254.909,254.91,283.464,219.685,283.464"/>
	<path clip-path="url(#SVGID_00000048462759480557448720000007718550099853426082_)" fill="#FFFFFF" d="M247.864,93.449
		c0,15.009-5.608,29.668-15.776,41.308c-0.031,0.036-0.065,0.071-0.099,0.106l-96.954,96.909c-0.032,0.033-0.066,0.065-0.1,0.095
		c-11.713,10.3-26.344,15.91-41.414,15.91h-0.029c-15.618,0-30.212-5.978-41.083-16.864c-10.843-10.842-16.821-25.421-16.821-41.055
		c0-15.025,5.61-29.685,15.837-41.296c0.031-0.034,0.062-0.068,0.095-0.1l96.896-96.912c0.034-0.033,0.068-0.065,0.103-0.096
		c11.712-10.285,26.343-15.895,41.383-15.895c15.706,0,30.3,5.978,41.142,16.85C241.886,63.252,247.864,77.816,247.864,93.449
		 M58.056,161.506c-6.05,8.522-9.34,18.418-9.34,28.352c0,12.132,4.63,23.458,12.982,31.839
		c8.351,8.322,19.692,12.937,31.853,12.982c9.879,0,19.783-3.303,28.294-9.342c0.909-0.645,1.034-1.946,0.246-2.735l-61.299-61.341
		C60.004,160.472,58.702,160.597,58.056,161.506 M214.074,132.01l-62.675-62.661c-0.697-0.697-1.828-0.697-2.525-0.001
		l-79.495,79.438c-0.698,0.697-0.698,1.829,0,2.526l62.704,62.661c0.697,0.698,1.828,0.698,2.525,0l79.466-79.438
		C214.771,133.838,214.771,132.707,214.074,132.01 M161.595,58.026c-0.904,0.647-1.026,1.944-0.24,2.731l61.279,61.292
		c0.787,0.787,2.088,0.664,2.734-0.243c6.077-8.532,9.368-18.406,9.368-28.357c0-12.088-4.6-23.414-12.952-31.824
		c-8.439-8.351-19.75-12.967-31.882-12.967C179.965,48.658,170.08,51.949,161.595,58.026 M93.492,245.198v-0.015V245.198z
		 M140.437,125.141c-7.854,0-14.242,6.344-14.242,14.198c0,7.853,6.388,14.227,14.242,14.227c7.824,0,14.183-6.374,14.183-14.227
		C154.62,131.485,148.261,125.141,140.437,125.141 M140.437,112.262c14.916,0,27.047,12.132,27.047,27.077
		c0,14.93-12.131,27.076-27.047,27.076c-14.945,0-27.077-12.146-27.077-27.076C113.36,124.394,125.492,112.262,140.437,112.262"/>
</g>
</svg>
