<?xml version="1.0" encoding="utf-8"?>
<!-- Generator: Adobe Illustrator 25.4.1, SVG Export Plug-In . SVG Version: 6.00 Build 0)  -->
<svg version="1.1" id="Layer_1" xmlns="http://www.w3.org/2000/svg" xmlns:xlink="http://www.w3.org/1999/xlink" x="0px" y="0px"
	 viewBox="0 0 125.67 183.475" enable-background="new 0 0 125.67 183.475" xml:space="preserve">
<g>
	<path fill="#25303B" d="M3.203,133.8h78.633c1.77,0,3.204,1.435,3.204,3.203v3.233c0,1.768-1.434,3.203-3.204,3.203H3.203
		c-1.769,0-3.203-1.435-3.203-3.203v-3.233C0,135.235,1.434,133.8,3.203,133.8 M70.211,7.412c-1.753,3.409-1.15,7.62-0.016,11.354
		c1.134,3.735,2.973,7.571,6.327,9.43c3.409,1.751,7.619,1.148,11.353,0.014c3.733-1.134,7.57-2.973,9.43-6.325
		c1.752-3.409,1.148-7.62,0.013-11.355c-1.133-3.734-2.972-7.57-6.324-9.429c-3.409-1.753-7.621-1.149-11.355-0.015
		C75.905,2.22,72.07,4.059,70.211,7.412 M14.883,111.123c-2.342,0-4.864,0.388-6.516,1.989c-1.601,1.651-1.989,4.173-1.989,6.515
		c0,2.342,0.388,4.865,1.989,6.517c1.652,1.599,4.174,1.987,6.516,1.987c2.341,0,4.865-0.388,6.516-1.987
		c1.6-1.652,1.988-4.175,1.988-6.517c0-2.342-0.388-4.864-1.988-6.515C19.748,111.511,17.224,111.123,14.883,111.123
		 M70.903,112.647l-10.891-10.892l9.141-1.819v-0.001l0.058-0.011c1.3-0.26,2.658-0.754,3.398-1.826
		c0.707-1.095,0.643-2.539,0.384-3.841c-0.259-1.301-0.754-2.661-1.825-3.401c-1.095-0.706-2.539-0.643-3.839-0.385l-0.058,0.012
		l-0.058,0.011c-0.003,0.001-0.007,0.002-0.01,0.003l-14.276,2.842c-2.465,0.49-4.45,2.29-5.179,4.695
		c-0.731,2.408-0.079,5.008,1.7,6.787l6.023,6.023H35.25l5.59-13.483h-0.001h0.001c0.256-0.619,0.372-1.352-0.113-2.064
		c-0.512-0.707-1.518-1.244-2.491-1.648c-0.974-0.403-2.065-0.736-2.926-0.598c-0.847,0.161-1.284,0.76-1.54,1.378
		c0,0,0,0.001-0.001,0.002l-8.827,21.291c-0.467,1.103-0.705,2.274-0.705,3.479c0,1.206,0.238,2.377,0.703,3.476
		c0.449,1.061,1.091,2.016,1.912,2.839c0.818,0.817,1.771,1.46,2.839,1.913c1.103,0.466,2.272,0.702,3.476,0.702h15.165v0.001
		h16.157c2.423,0,4.701-0.944,6.414-2.658c1.713-1.713,2.658-3.991,2.658-6.413C73.561,116.638,72.616,114.36,70.903,112.647
		 M125.545,91.488c-0.005-0.075-0.003-0.144-0.009-0.218l-0.005-0.03c-0.216-2.706-0.685-5.385-1.378-8.01l-0.009-0.058
		l-0.002-0.006l-0.003-0.011l-0.005-0.021l-0.011-0.042l-0.023-0.086l-0.046-0.172l-0.004-0.014
		c-0.569-2.079-1.271-4.124-2.133-6.109c0,0-12.992-29.951-16.706-38.519l-0.099-0.216c-2.057-4.274-6.267-7.145-10.972-7.491
		c-1.342-0.102-2.684,0.045-3.981,0.438l-0.282,0.086c-2.678,0.813-5.172,2.253-7.216,4.167l-0.92,0.863
		c-3.019,2.827-5.012,6.637-5.613,10.726l-0.609,4.146l-0.051-0.006l-0.241,1.99l-0.641,4.355l-1.428,11.751l-13.062,2.6
		c-0.003,0-0.006,0.001-0.009,0.001l-4.304,0.857c-1.722,0.342-3.522,0.996-4.502,2.416c-0.936,1.449-0.851,3.362-0.508,5.084
		c0.342,1.722,0.996,3.521,2.416,4.502c1.449,0.936,3.361,0.851,5.084,0.508l4.304-0.856c0.002,0,0.004-0.001,0.005-0.001
		l14.893-2.964c4.398-0.874,7.715-4.452,8.253-8.902l0.87-7.172c0.997,2.216,2.117,4.707,3.339,7.424
		c2.48,5.514,5.374,11.948,8.474,18.842c0.776,1.723,1.564,3.475,2.361,5.249l0.299,0.666l0.153,0.417
		c0.098,0.275,0.223,0.542,0.319,0.819c0.126,0.575,0.346,1.13,0.396,1.725c0.138,0.581,0.119,1.181,0.174,1.775
		c0.007,0.978,0.014,1.958,0.021,2.94c0.009,2.008,0.017,4.023,0.025,6.039l0.272,64.498c0.009,2.195,0.382,4.559,1.888,6.101
		c1.555,1.494,3.922,1.847,6.117,1.837h0.001c1.074,0.117,2.209,0.106,3.225-0.19c1.104-0.222,2.136-0.638,2.968-1.367
		c1.576-1.473,2.056-3.817,2.165-6.009l1.336-26.894c0.619-5.749,1.239-11.505,1.855-17.234l2.116-19.651
		c0.308-4.302,1.053-8.475,1.382-13.088C125.709,96.478,125.731,93.975,125.545,91.488"/>
</g>
</svg>
