<?xml version="1.0" encoding="utf-8"?>
<!-- Generator: Adobe Illustrator 25.4.1, SVG Export Plug-In . SVG Version: 6.00 Build 0)  -->
<svg version="1.1" id="Layer_1" xmlns="http://www.w3.org/2000/svg" xmlns:xlink="http://www.w3.org/1999/xlink" x="0px" y="0px"
	 viewBox="0 0 125.67 183.475" enable-background="new 0 0 125.67 183.475" xml:space="preserve">
<g>
	<polygon fill="#FFFFFF" points="124.123,83.092 124.123,83.092 124.123,83.092 	"/>
	<path fill="#FFFFFF" d="M81.836,134.799H3.203c-1.215,0-2.203,0.988-2.203,2.203v3.233c0,1.215,0.988,2.203,2.203,2.203h78.633
		c1.216,0,2.204-0.988,2.204-2.203v-3.233C84.04,135.788,83.052,134.799,81.836,134.799z"/>
	<path fill="#FFFFFF" d="M77.006,27.321c2.579,1.323,6.049,1.308,10.579-0.068c4.53-1.376,7.424-3.292,8.846-5.854
		c1.325-2.58,1.308-6.05-0.07-10.579c-1.374-4.531-3.288-7.424-5.852-8.846c-2.578-1.325-6.047-1.31-10.579,0.068
		c-4.522,1.373-7.413,3.283-8.837,5.84c-1.333,2.606-1.314,6.072,0.059,10.592C72.528,23.007,74.443,25.9,77.006,27.321z"/>
	<path fill="#FFFFFF" d="M27.56,124.81c0.728,0.726,1.576,1.298,2.522,1.698c0.977,0.413,2.015,0.622,3.085,0.622l31.322,0.001
		c2.156,0,4.183-0.84,5.707-2.364c1.525-1.525,2.365-3.552,2.365-5.706c0-2.155-0.84-4.182-2.365-5.707l-12.213-12.216l10.975-2.183
		c1.46-0.293,2.365-0.755,2.828-1.426c0.426-0.66,0.506-1.676,0.228-3.078c-0.28-1.402-0.742-2.31-1.413-2.773
		c-0.66-0.424-1.674-0.505-3.076-0.227l-0.125,0.026l-14.276,2.841c-2.103,0.419-3.795,1.953-4.417,4.005
		c-0.623,2.054-0.067,4.271,1.45,5.79l7.73,7.73H33.752l6.164-14.866c0.248-0.601,0.131-0.902-0.016-1.119
		c-0.197-0.271-0.729-0.738-2.048-1.286c-1.318-0.547-2.025-0.593-2.383-0.534c-0.208,0.039-0.468,0.149-0.699,0.606v0.198
		l-0.153,0.153l-8.751,21.108c-0.418,0.987-0.629,2.026-0.629,3.096s0.21,2.108,0.624,3.087
		C26.26,123.231,26.832,124.08,27.56,124.81z"/>
	<path fill="#FFFFFF" d="M14.883,127.13c2.731,0,4.636-0.558,5.821-1.705c1.125-1.163,1.683-3.067,1.683-5.799
		c0-2.73-0.558-4.634-1.706-5.819c-1.163-1.126-3.067-1.685-5.798-1.685c-2.73,0-4.635,0.559-5.82,1.707
		c-1.126,1.163-1.685,3.066-1.685,5.797c0,2.732,0.558,4.637,1.707,5.821C10.248,126.573,12.151,127.13,14.883,127.13z"/>
	<path fill="#FFFFFF" d="M123.088,83.092c-0.578-2.109-1.28-4.12-2.088-5.983c0,0-12.993-29.951-16.707-38.519l-0.09-0.196
		c-1.895-3.938-5.782-6.592-10.137-6.912c-1.225-0.095-2.44,0.041-3.617,0.397l-0.281,0.085c-2.532,0.769-4.892,2.131-6.823,3.94
		l-0.921,0.863c-2.854,2.673-4.738,6.274-5.307,10.142l-0.75,5.105l-0.026-0.003l-0.121,1.003l-0.645,4.38L74.062,69.84l-18.084,3.6
		c-1.943,0.385-3.21,1.041-3.874,2.003c-0.617,0.956-0.737,2.378-0.351,4.321c0.386,1.942,1.042,3.21,2.003,3.875
		c0.956,0.616,2.376,0.737,4.32,0.35l19.202-3.821c3.974-0.79,6.97-4.021,7.455-8.042l1.303-10.735l16.125,35.936
		c0.046,0.13,0.095,0.246,0.143,0.363c0.063,0.156,0.127,0.312,0.183,0.472l0.032,0.115c0.041,0.186,0.093,0.368,0.144,0.551
		c0.104,0.366,0.219,0.779,0.265,1.229c0.102,0.458,0.124,0.893,0.146,1.313c0.009,0.177,0.018,0.354,0.034,0.529l0.051,9.067
		l0.271,64.498c0.01,2.543,0.534,4.312,1.604,5.406c1.08,1.036,2.845,1.532,5.396,1.535h0.057l0.057,0.006
		c1.111,0.121,2.067,0.069,2.838-0.156c1.137-0.232,1.956-0.604,2.589-1.158c1.094-1.023,1.698-2.767,1.825-5.308l1.336-26.894
		l3.976-36.942c0.149-2.099,0.402-4.148,0.67-6.317c0.267-2.168,0.543-4.409,0.709-6.734c0.222-2.457,0.242-4.92,0.062-7.34
		l-0.007-0.152c-0.215-2.686-0.668-5.322-1.355-7.924l-0.021-0.106l0.022-0.005l0.936-0.283v0l-0.988,0.177L123.088,83.092z"/>
</g>
</svg>
