<svg xmlns="http://www.w3.org/2000/svg" viewBox="0 0 191.21 166.24"><defs><style>.cls-1{fill:#25303b;}</style></defs><g id="Layer_2" data-name="Layer 2"><g id="Layer_1-2" data-name="Layer 1"><path class="cls-1" d="M190.58,24.08a6.38,6.38,0,0,1-.46,2.83,7.8,7.8,0,0,1-1,1.9,9.64,9.64,0,0,1-.62.87q-.34.39-.69.75l-.42.42a12.69,12.69,0,0,1-1.21,1.07c-.26.21-.55.46-.87.7l-1,.7c-.75.53-1.58,1-2.5,1.47a42.12,42.12,0,0,1-6.15,2.49A65,65,0,0,1,168.76,39c-1,.19-1.91.35-2.86.5a10.71,10.71,0,0,1-.21,1.13L162.11,56.1a26.6,26.6,0,0,0-19.39-8.59H123.64l.1-.42c.27-1.14.53-2.63.78-4.12s.52-3.1.79-4.67c.55-3.2,1.16-6.51,2-9.85l.18-.68L130.63,32c2.7,3.57,6.19,7,10.53,7.65s8.65-1.77,12.22-4.46,7-6.19,7.65-10.53-1.77-8.65-4.46-12.22l-6.85-9.08c-.74-1-1.28-1.69-1.77-2.22A35,35,0,0,1,155.33,0a25.46,25.46,0,0,1,4.7.26,19.74,19.74,0,0,1,4.48,1.29A16.9,16.9,0,0,1,171,6.31a18.27,18.27,0,0,1,2.66,4.18,13.92,13.92,0,0,1,.64,1.54,10.74,10.74,0,0,1,.57,2.1h10a6.94,6.94,0,0,1,4.89,1.49,6.94,6.94,0,0,1,1.49,4.89,8.94,8.94,0,0,1-.63,3.57m-35.64-1.49c.44-3-1.11-6.06-2.94-8.59l-2.39-3.32h0c-1.82-2.53-4.21-4.95-7.23-5.48s-6.07,1.11-8.6,2.94-5,4.21-5.49,7.23,1.12,6.07,2.95,8.6h0l2.39,3.31c1.83,2.53,4.22,5,7.24,5.49s6.06-1.11,8.59-2.94,5-4.22,5.49-7.24m12.57,123.89-3.94-73.55a21.17,21.17,0,0,0-20.85-19.75H111.43c0-.36,0-.72,0-1.1,0-1.1-.1-2.29-.19-3.53a35.13,35.13,0,0,0-1.79-8.26c-.29-.74-.64-1.49-1-2.25a7.25,7.25,0,0,0-.6-1.13l-.68-1.13a14.81,14.81,0,0,0-1.65-2.22c-.31-.36-.61-.73-.94-1.08l-1.1-.93a23.69,23.69,0,0,0-9.79-4.74,41.88,41.88,0,0,0-9.93-1.06,41.88,41.88,0,0,0-9.93,1.06,23.75,23.75,0,0,0-9.79,4.74l-1.1.93c-.33.35-.63.72-.94,1.08a14.81,14.81,0,0,0-1.65,2.22l-.68,1.13a7.25,7.25,0,0,0-.6,1.13c-.33.76-.68,1.51-1,2.25a35.13,35.13,0,0,0-1.79,8.26c-.09,1.24-.2,2.43-.2,3.53,0,.38,0,.74,0,1.1H24.81A21.17,21.17,0,0,0,4,72.93L0,146.48a18.6,18.6,0,0,0,18.73,19.76h130a18.6,18.6,0,0,0,18.73-19.76M67,52.35c0-.91.09-1.8.15-2.75a24.84,24.84,0,0,1,1.17-5.54l.54-1.25a2.46,2.46,0,0,1,.31-.58l.34-.56a5,5,0,0,1,.73-1c.12-.15.23-.31.36-.46l.48-.37a13,13,0,0,1,5.3-2.45,31.6,31.6,0,0,1,7.37-.76,31.6,31.6,0,0,1,7.37.76,13,13,0,0,1,5.3,2.45c.15.13.31.25.47.37a5.32,5.32,0,0,1,.37.46,5.43,5.43,0,0,1,.73,1l.33.56a1.9,1.9,0,0,1,.31.58c.19.42.37.84.55,1.25a24.28,24.28,0,0,1,1.16,5.54c.07.95.16,1.84.15,2.75,0,.28,0,.55,0,.83H67c0-.28,0-.55,0-.83"/></g></g></svg>