<?xml version="1.0" encoding="utf-8"?>
<!-- Generator: Adobe Illustrator 25.4.1, SVG Export Plug-In . SVG Version: 6.00 Build 0)  -->
<svg version="1.1" id="Layer_1" xmlns="http://www.w3.org/2000/svg" xmlns:xlink="http://www.w3.org/1999/xlink" x="0px" y="0px"
	 viewBox="0 0 191.064 198.334" enable-background="new 0 0 191.064 198.334" xml:space="preserve">
<g>
	<g>
		<path fill="#25303B" d="M8.223,94.904L8.223,94.904l0,84.312c0,2.271-1.841,4.112-4.112,4.112h0c-2.271,0-4.112-1.841-4.112-4.112
			l0-76.089C0,98.585,3.682,94.904,8.223,94.904z"/>
		<path fill="#25303B" d="M171.924,174.121h1.516c3.087,0,5.589-2.502,5.589-5.589V88.84c0-3.087-2.502-5.589-5.589-5.589h-1.516
			c-3.087,0-5.589,2.502-5.589,5.589v79.692C166.335,171.619,168.838,174.121,171.924,174.121z"/>
		<path fill="#25303B" d="M182.841,94.904L182.841,94.904v84.312c0,2.271,1.841,4.112,4.112,4.112h0
			c2.271,0,4.112-1.841,4.112-4.112v-76.089C191.064,98.585,187.382,94.904,182.841,94.904z"/>
	</g>
</g>
<path fill="#25303B" d="M66.311,28.457c-3.918,0-8.138-0.648-10.902-3.325c-2.678-2.763-3.327-6.984-3.327-10.903
	c0-3.918,0.648-8.139,3.327-10.902C58.173,0.648,62.393,0,66.311,0c3.918,0,8.14,0.648,10.903,3.326
	c2.677,2.763,3.325,6.984,3.325,10.902c0,3.919-0.648,8.14-3.325,10.903C74.45,27.809,70.228,28.457,66.311,28.457z"/>
<path fill="#25303B" d="M62.634,58.598l-1.759-7.507c-0.03-0.129-0.054-0.262-0.073-0.395c-0.33-0.053-0.663-0.11-0.998-0.176
	c-0.811-0.159-1.628-0.354-2.405-0.599c-0.777-0.247-1.515-0.547-2.151-0.869c-0.322-0.181-0.612-0.328-0.874-0.514
	c-0.129-0.088-0.251-0.17-0.363-0.246c-0.112-0.085-0.215-0.171-0.307-0.246c-0.184-0.151-0.327-0.268-0.422-0.372
	c-0.095-0.097-0.146-0.148-0.146-0.148c-0.082-0.084-0.163-0.171-0.241-0.26c-0.078-0.092-0.149-0.202-0.219-0.305
	c-0.138-0.211-0.265-0.42-0.346-0.666c-0.135-0.331-0.181-0.679-0.161-0.99c-0.169-0.379-0.22-0.825-0.22-1.25
	c0-0.614,0.102-1.276,0.522-1.71c0.433-0.42,1.095-0.522,1.71-0.522h3.499c0.041-0.246,0.106-0.494,0.198-0.734
	c0,0,0.062-0.188,0.224-0.538c0.166-0.347,0.429-0.867,0.93-1.464c0.493-0.589,1.264-1.253,2.258-1.659
	c0.493-0.219,1.021-0.348,1.568-0.449c0.427-0.061,0.867-0.099,1.303-0.099c0.114,0,0.227,0.003,0.34,0.008
	c0.871,0.032,1.732,0.179,2.582,0.396c-0.171,0.184-0.36,0.431-0.621,0.777v0l-0.3,0.398c-0.347,0.336-0.685,0.724-1.014,1.179
	l-0.838,1.16c-0.222,0.307-0.41,0.608-0.578,0.906c-0.787,1.148-1.39,2.469-1.224,3.808c0.237,1.518,1.427,2.739,2.676,3.681
	c1.125,0.848,2.455,1.588,3.822,1.588c0.151,0,0.302-0.009,0.453-0.028c1.518-0.237,2.739-1.427,3.681-2.676l1.119-1.484
	c0.001,0,0.001,0,0.002,0c0.306,1.25,0.536,2.488,0.742,3.683c0.093,0.55,0.184,1.095,0.275,1.634
	c0.089,0.521,0.18,1.044,0.274,1.442v0c-0.374,0.287-3.152,2.015-3.152,2.015C70.339,56.577,63.29,59.025,62.634,58.598z"/>
<path fill="#25303B" d="M69.405,38.673c0.936,0,1.855,0.49,2.637,1.055c0.885,0.64,1.733,1.475,1.92,2.532
	c0.154,1.062-0.389,2.121-1.029,3.006v0l-0.838,1.16c-0.64,0.885-1.475,1.733-2.532,1.92c-0.123,0.018-0.247,0.026-0.369,0.026
	c-0.936,0-1.855-0.49-2.637-1.055c-0.885-0.64-1.733-1.475-1.92-2.532c-0.102-0.707,0.107-1.411,0.445-2.065
	c0.106-0.158,0.198-0.311,0.323-0.476l2.016-2.674c0.469-0.431,1.004-0.764,1.616-0.872C69.158,38.681,69.282,38.673,69.405,38.673z
	"/>
<path fill="#25303B" d="M81.429,54.667c0-0.005-0.001-0.011-0.001-0.016c-1.319-0.186-2.63-0.37-3.952-0.556l0.055,0.206
	l-1.097,0.643l-1.067,0.625c-0.893,0.631-1.82,1.229-2.805,1.771c-1.246,0.721-2.595,1.195-3.853,1.655
	c-1.296,0.449-2.612,0.863-3.978,1.14c-0.495,0.13-1.112,0.237-1.719,0.322c0.84,3.418,1.679,6.829,2.516,10.232
	c1.721,6.999,3.451,14.032,5.187,21.086l0.028,0.099c0.02,0.066,0.041,0.132,0.064,0.197c0.047,0.13,0.102,0.257,0.166,0.377
	c0.13,0.239,0.3,0.447,0.527,0.589c0.241,0.141,2.762,0.004,3.116-0.312c0.194-0.184,0.32-0.422,0.4-0.682
	c0.04-0.13,0.069-0.265,0.088-0.402c0.01-0.068,0.018-0.137,0.024-0.206l0.008-0.103c0.211-5.063,0.422-10.108,0.631-15.138
	c2.298-0.246,4.584-0.491,6.875-0.736c-0.014-0.232-0.027-0.464-0.041-0.696c0.014,0.232,0.027,0.464,0.041,0.696
	c0.112-0.012,0.224-0.024,0.335-0.036l2.589-12.472L81.429,54.667z"/>
<g>
	<path fill="#25303B" d="M114.808,55.195c-0.339-0.487-0.931-0.612-1.471-0.612c-0.003,0-0.006,0-0.009,0
		c-0.546,0.001-1.128,0.059-1.537,0.311c-0.4,0.263-0.561,0.675-0.682,1.052c-0.246,0.799-0.64,1.412-1.138,1.784
		c-0.495,0.378-1.158,0.594-2.009,0.618c-0.08,0.002-0.162,0.006-0.245,0.013c-0.031-0.007-0.062-0.014-0.093-0.02l-0.102-0.018
		c-2.373-0.334-4.728-0.666-7.093-0.999c1.116,2.331,1.445,4.992,0.906,7.553L98.55,78.139c0.623,4.155,1.532,10.223,2.011,13.422
		l0.019,0.102c0.013,0.068,0.028,0.135,0.046,0.202c0.035,0.134,0.077,0.266,0.131,0.391c0.107,0.25,0.258,0.473,0.47,0.635
		c0.29,0.207,0.649,0.278,1.017,0.278c0.184,0,0.889-0.008,1.06-0.008c0.382,0,0.758-0.073,1.055-0.293
		c0.21-0.165,0.357-0.391,0.461-0.642c0.052-0.126,0.093-0.258,0.125-0.392c0.016-0.067,0.03-0.135,0.043-0.203l0.017-0.102
		c0.654-4.848,3.256-24.133,3.909-28.98l0.01-0.103c0.006-0.069,0.01-0.138,0.012-0.207c0-0.001,0-0.003,0-0.004
		c0.446-0.057,0.896-0.149,1.343-0.286c0.737-0.228,1.465-0.591,2.1-1.079c0.638-0.486,1.176-1.089,1.585-1.736
		c0.413-0.647,0.715-1.332,0.926-2.025C115.101,56.447,115.133,55.696,114.808,55.195z"/>
</g>
<path fill="#25303B" d="M162.416,195.503l0.107-100.599c-4.541,0-8.223,3.682-8.223,8.223v72.055c-30.599,0-47.564,0-67.92,0
	c0.03-0.11,0.066-0.217,0.092-0.329c0.12-0.528,0.193-1.075,0.231-1.626c0.019-0.275,0.03-0.551,0.033-0.827v-0.412
	c-0.69-20.248-1.378-40.434-2.063-60.523c-0.019-1.204-0.483-9.416-1.101-20.065c0.956,0.764,2.215,1.206,3.442,1.48
	c1.686,0.377,3.564,0.504,5.011-0.383c1.417-0.931,2.102-2.684,2.479-4.368c0.109-0.489,0.216-0.968,0.323-1.446
	c0.107-0.478,0.213-0.955,0.323-1.443h0l4.569-20.447c0.563-2.516,0.179-5.142-1.081-7.392l-9.229-16.478
	c-0.845-1.509-4.607-5.716-8.459-7.842c-0.792-0.448-1.637-0.789-2.506-1.057c-12.798-3.944-28.55,0.791-29.671,1.541v0.004
	c-3.474,1.815-6.301,4.736-7.976,8.287l-4.445,9.424c-0.022,0.044-0.041,0.088-0.062,0.134l-5.463,12.382l-15.24,8.641L13.3,73.736
	c-1.503,0.852-2.98,2.018-3.457,3.645c-0.426,1.642,0.244,3.401,1.095,4.904c0.63,1.112,1.434,2.206,2.467,2.896
	c-0.851,0.981-1.371,2.258-1.371,3.659v79.692c0,3.087,2.502,5.589,5.589,5.589h1.516c3.087,0,5.589-2.502,5.589-5.589V88.84
	c0-2.347-1.448-4.352-3.498-5.181l2.012-1.141c0.002-0.001,0.005-0.003,0.006-0.004l14.998-8.504c0.806-0.459,1.53-1.04,2.152-1.727
	c0.628-0.694,1.137-1.479,1.513-2.335l0.267-0.609l6.652-15.101c-0.019,1.259-0.039,2.519-0.058,3.781
	c-0.276,17.872-0.551,35.701-0.825,53.446c-0.685,20.089-1.373,40.275-2.063,60.523l0,0.412c0.003,0.275,0.014,0.551,0.033,0.827
	c0.038,0.55,0.111,1.097,0.231,1.626c0.025,0.112,0.062,0.219,0.092,0.329c-3.018,0-6.17,0-9.478,0v-72.055
	c0-4.541-3.682-8.223-8.223-8.223l0.053,100.598c0.001,1.565,1.27,2.833,2.835,2.833h128.154
	C161.146,198.335,162.415,197.067,162.416,195.503z M51.269,41.181l0.018-0.019l0.019-0.018c0.68-0.659,1.647-0.993,2.874-0.993
	h2.269c0.037-0.088,0.082-0.188,0.134-0.302c0.253-0.527,0.581-1.139,1.168-1.837c0.445-0.531,1.413-1.515,2.882-2.122
	c0.696-0.306,1.391-0.458,1.921-0.555l0.034-0.006l0.034-0.005c0.538-0.077,1.056-0.115,1.539-0.115c0.141,0,0.281,0.003,0.42,0.01
	c0.009,0,0.018,0.001,0.027,0.001c1.61,0.063,3.162,0.621,4.518,1.491l0.482,0.309c1.092,0.049,2.21,0.483,3.414,1.353
	c1.505,1.088,2.352,2.264,2.588,3.596l0.005,0.026l0.004,0.026c0.14,0.967,0.31,1.093-0.215,2.135l0.215,0.951l0.268,1.09
	c0.329,1.34,0.572,2.671,0.766,3.797l0.276,1.641c0.042,0.247,0.084,0.488,0.125,0.711l0.531,0.075l4.838,0.621l4.88,9.796
	l-3.238,14.488l-6.685,0.38l-0.183,4.394l-0.388,9.303l-0.001,0.029l-0.002,0.029l-0.008,0.103c-0.01,0.119-0.022,0.22-0.037,0.32
	c-0.033,0.228-0.082,0.448-0.145,0.652c-0.173,0.562-0.458,1.034-0.847,1.403l-0.019,0.018l-0.02,0.018
	c-0.616,0.549-4.594,0.788-5.073,0.508l-0.023-0.013l-0.022-0.014c-0.454-0.285-0.827-0.691-1.107-1.207
	c-0.102-0.188-0.193-0.393-0.271-0.611c-0.035-0.097-0.066-0.192-0.094-0.287l-0.034-0.121l-0.008-0.027l-0.007-0.027l-1.864-7.579
	l-3.322-13.507l-2.516-10.232l-0.442-1.8l-0.294-1.514l-0.152-0.657l-1.097-4.739c-0.936-0.186-1.757-0.393-2.508-0.63
	c-0.849-0.27-1.678-0.605-2.401-0.971l-0.034-0.017l-0.033-0.019l-0.211-0.117c-0.262-0.144-0.532-0.294-0.81-0.49l-0.137-0.092
	l-0.196-0.133l-0.038-0.026l-0.037-0.028c-0.104-0.079-0.201-0.158-0.29-0.231l-0.057-0.046c-0.211-0.173-0.405-0.332-0.576-0.513
	l-0.131-0.133c-0.106-0.109-0.206-0.217-0.303-0.327c-0.149-0.175-0.245-0.319-0.323-0.435l-0.027-0.039
	c-0.199-0.303-0.39-0.622-0.53-1.024c-0.158-0.404-0.248-0.836-0.265-1.271c-0.147-0.457-0.219-0.968-0.219-1.547
	C50.275,42.828,50.61,41.861,51.269,41.181z M61.552,173.744c0.038-0.274,0.067-0.55,0.089-0.825l0.028-0.412
	c0.695-20.305,1.387-40.549,2.076-60.695c0.037-2.435,0.075-4.878,0.112-7.315h4.906c0.037,2.437,0.075,4.879,0.112,7.315
	c0.689,20.146,1.382,40.389,2.076,60.695l0.028,0.412c0.022,0.275,0.051,0.551,0.089,0.825c0.067,0.488,0.168,0.97,0.298,1.438
	c-3.211,0-6.565,0-10.114,0C61.384,174.714,61.484,174.232,61.552,173.744z"/>
</svg>
