<?xml version="1.0" encoding="utf-8"?>
<!-- Generator: Adobe Illustrator 25.4.1, SVG Export Plug-In . SVG Version: 6.00 Build 0)  -->
<svg version="1.1" id="Layer_1" xmlns="http://www.w3.org/2000/svg" xmlns:xlink="http://www.w3.org/1999/xlink" x="0px" y="0px"
	 viewBox="0 0 226.8 166.1" style="enable-background:new 0 0 226.8 166.1;" xml:space="preserve">
<style type="text/css">
	.st0{fill:#25303B;}
</style>
<g>
	<path class="st0" d="M47.1,50c-2,0.3-4,0.6-6,0.8l-0.1,0c0,0-0.1,0-0.1,0c-0.1,0-0.1,0-0.2,0c-0.7,0-1.3-0.2-1.8-0.5
		c-0.4-0.3-0.8-0.9-1-1.6c-0.1-0.3-0.2-0.7-0.6-0.9c-0.4-0.2-0.9-0.3-1.3-0.3c0,0,0,0,0,0c-0.5,0-1,0.1-1.3,0.5
		c-0.3,0.4-0.3,1.1-0.1,1.7c0.2,0.6,0.4,1.2,0.8,1.8c0.4,0.6,0.8,1.1,1.4,1.5c0.6,0.4,1.2,0.7,1.8,0.9c0.4,0.1,0.8,0.2,1.2,0.2
		c0,0,0,0,0,0c0,0.1,0,0.1,0,0.2l0,0.1c0.6,4.2,2.8,21,3.4,25.3l0,0.1c0,0.1,0,0.1,0,0.2c0,0.1,0.1,0.2,0.1,0.3
		c0.1,0.2,0.2,0.4,0.4,0.6c0.3,0.2,0.6,0.3,0.9,0.3c0.1,0,0.8,0,0.9,0c0.3,0,0.6-0.1,0.9-0.2c0.2-0.1,0.3-0.3,0.4-0.6
		c0-0.1,0.1-0.2,0.1-0.3c0-0.1,0-0.1,0-0.2l0-0.1c0.4-2.6,1.1-7.3,1.6-10.9l-2.6-12.2C45.8,54.5,46.1,52.1,47.1,50z"/>
</g>
<g>
	<path class="st0" d="M77,24.8c3.4,0,7.1-0.6,9.5-2.9c2.3-2.4,2.9-6.1,2.9-9.5c0-3.4-0.6-7.1-2.9-9.5C84.1,0.6,80.5,0,77,0
		c-3.4,0-7.1,0.6-9.5,2.9c-2.3,2.4-2.9,6.1-2.9,9.5c0,3.4,0.6,7.1,2.9,9.5C69.9,24.3,73.6,24.8,77,24.8z"/>
	<path class="st0" d="M89.1,36.9c-0.4-0.4-1-0.5-1.5-0.5h-3.1c0-0.2-0.1-0.4-0.2-0.6c0,0-0.1-0.2-0.2-0.5c-0.1-0.3-0.4-0.8-0.8-1.3
		c-0.4-0.5-1.1-1.1-2-1.4c-0.4-0.2-0.9-0.3-1.4-0.4c-0.4-0.1-0.8-0.1-1.1-0.1c-0.1,0-0.2,0-0.3,0c-0.8,0-1.4,0.3-2.1,0.7
		c0.1,0.2,0.6,0.7,0.6,0.7c0.3,0.3,0.6,0.6,0.9,1l0.7,1c0.2,0.3,0.4,0.5,0.5,0.8c0.7,1,1.2,2.2,1.1,3.3c-0.2,1.3-1.2,2.4-2.3,3.2
		c-1,0.7-2.1,1.4-3.3,1.4c-0.1,0-0.3,0-0.4,0c-1.3-0.2-2.4-1.2-3.2-2.3l-1-1.3c0,0,0,0,0,0c-0.3,1.1-0.5,2.2-0.6,3.2
		c-0.1,0.5-0.2,1-0.2,1.4c-0.1,0.5-0.2,0.9-0.2,1.3v0c0.4,0.5,2.7,1.8,2.7,1.8c1.8,1.1,7.8,3,8.5,2.8l1.6-6.5c0-0.1,0-0.2,0.1-0.3
		c0.3,0,0.6-0.1,0.9-0.2c0.7-0.1,1.4-0.3,2.1-0.5c0.7-0.2,1.3-0.5,1.9-0.8c0.3-0.2,0.5-0.3,0.8-0.4c0.1-0.1,0.2-0.1,0.3-0.2
		C87.9,42,88,42,88,41.9c0.2-0.1,0.3-0.2,0.4-0.3c0.1-0.1,0.1-0.1,0.1-0.1c0.1-0.1,0.1-0.1,0.2-0.2c0.1-0.1,0.1-0.2,0.2-0.3
		c0.1-0.2,0.2-0.4,0.3-0.6c0.1-0.3,0.2-0.6,0.1-0.9c0.1-0.3,0.2-0.7,0.2-1.1C89.6,37.9,89.5,37.3,89.1,36.9z"/>
	<path class="st0" d="M78.1,37.3c-0.1-0.3-0.3-0.6-0.5-0.8l-0.7-1c-0.2-0.3-0.5-0.6-0.8-0.9c-0.4-0.4-0.9-0.7-1.4-0.8
		c-0.1,0-0.2,0-0.3,0c-0.8,0-1.6,0.4-2.3,0.9c-0.8,0.6-1.5,1.3-1.7,2.2c-0.1,0.9,0.3,1.9,0.9,2.6v0l0.7,1c0.6,0.8,1.3,1.5,2.2,1.7
		c0.1,0,0.2,0,0.3,0c0.8,0,1.6-0.4,2.3-0.9c0.8-0.6,1.5-1.3,1.7-2.2C78.6,38.4,78.4,37.8,78.1,37.3z"/>
	<path class="st0" d="M78.4,52.5c-1.2-0.2-2.3-0.6-3.5-1c-1.1-0.4-2.3-0.8-3.4-1.4c-0.9-0.5-1.7-1-2.4-1.5c-0.6-0.4-1.2-0.9-1.7-1.3
		c0,0-0.1,0-0.1,0c-1.1,0.2-2.2,0.3-3.3,0.5L63.8,48l-3.5,7l2.3,10.9c0.1,0,0.1,0,0.2,0c2,0.2,4,0.4,6,0.6c0.2,4.4,0.4,8.8,0.6,13.2
		l0,0.1c0,0.1,0,0.1,0,0.2c0,0.1,0,0.2,0.1,0.4c0.1,0.2,0.2,0.4,0.3,0.6c0.3,0.3,1.8,0.4,2,0.4c0.2,0,0.5,0,0.7-0.2
		c0.2-0.1,0.3-0.3,0.5-0.5c0.1-0.1,0.1-0.2,0.1-0.3c0-0.1,0-0.1,0.1-0.2l0-0.1c1.5-6.2,3-12.3,4.5-18.4c0.7-3,1.5-5.9,2.2-8.9
		C79.4,52.7,78.8,52.6,78.4,52.5z"/>
</g>
<path class="st0" d="M195.6,13.3h-41.3c-7.4,0-14.4,2.9-19.7,8.1L108.1,48c-1.7-3-3.5-6.1-5.4-9.3c-0.4-0.8-0.9-1.6-1.3-2.4
	c-0.5-0.9-1.2-2.2-2.4-3.4c-0.3-0.3-0.6-0.6-1-0.9c-0.4-0.3-0.7-0.6-1.1-0.8c-0.4-0.2-0.8-0.4-1.2-0.6l-0.6-0.3
	c0,0-12.7-5.9-26.9-2.7c-3.5,1.1-6,2.7-6.8,3.2c-1.8,1.3-3.3,3-4.4,4.9l-8.1,14.4c-1.1,2-1.4,4.3-0.9,6.4l4,17.8l0,0
	c0.1,0.4,0.2,0.8,0.3,1.3c0.1,0.4,0.2,0.8,0.3,1.3c0.3,1.5,0.9,3,2.2,3.8c1.3,0.8,2.9,0.7,4.4,0.3c1.1-0.2,2.2-0.6,3-1.3
	C61.6,86.4,61.3,92,61.1,95l-5.6,5.6c-2.8,2.8-6.6,4.4-10.6,4.4H31.1C14.4,105,0.4,118.1,0,134.8c-0.4,17.2,13.5,31.3,30.6,31.3
	h34.4c7.4,0,14.5-2.9,19.7-8.1l79.2-79.2c2.8-2.8,6.6-4.4,10.6-4.4h21.9c17.1,0,31-14.1,30.6-31.3C226.4,26.4,212.3,13.3,195.6,13.3
	z M98.8,53.3c0.5,0.9,1,1.7,1.5,2.6l-7.7,7.7c-0.1-6.3-0.2-12.7-0.3-19h1.4C95.4,47.6,97.1,50.5,98.8,53.3z M61.6,67.4l-2.8-12.6
	l4.3-8.5l4.2-0.5l0.5-0.1c0-0.2,0.1-0.4,0.1-0.6l0.2-1.4c0.2-1,0.4-2.1,0.7-3.3l0.2-1l0.2-0.8c-0.5-0.9-0.3-1-0.2-1.9l0,0l0,0
	c0.2-1.2,0.9-2.2,2.3-3.1c1-0.8,2-1.1,3-1.2l0.4-0.3c1.2-0.8,2.5-1.2,3.9-1.3c0,0,0,0,0,0c0.1,0,0.2,0,0.4,0c0.4,0,0.9,0,1.3,0.1
	l0,0l0,0c0.5,0.1,1.1,0.2,1.7,0.5c1.3,0.5,2.1,1.4,2.5,1.9c0.5,0.6,0.8,1.1,1,1.6c0,0.1,0.1,0.2,0.1,0.3h2c1.1,0,1.9,0.3,2.5,0.9
	l0,0l0,0c0.6,0.6,0.9,1.4,0.9,2.5c0,0.5-0.1,1-0.2,1.3c0,0.4-0.1,0.8-0.2,1.1c-0.1,0.4-0.3,0.6-0.5,0.9l0,0
	c-0.1,0.1-0.2,0.2-0.3,0.4c-0.1,0.1-0.2,0.2-0.3,0.3l-0.1,0.1c-0.1,0.2-0.3,0.3-0.5,0.4l-0.1,0c-0.1,0.1-0.2,0.1-0.3,0.2l0,0l0,0
	l-0.2,0.1l-0.1,0.1c-0.2,0.2-0.5,0.3-0.7,0.4l-0.2,0.1l0,0l0,0c-0.6,0.3-1.4,0.6-2.1,0.8c-0.7,0.2-1.4,0.4-2.2,0.5l-1,4.1L82,50.2
	l-0.3,1.3l-0.4,1.6L79.1,62l-2.9,11.8l-1.6,6.6l0,0l0,0l0,0.1c0,0.1-0.1,0.2-0.1,0.3c-0.1,0.2-0.1,0.4-0.2,0.5
	c-0.2,0.5-0.6,0.8-1,1.1l0,0l0,0c-0.4,0.2-0.9,0.4-1.4,0.4c-0.3,0-2.5-0.3-3-0.8l0,0l0,0c-0.3-0.3-0.6-0.7-0.7-1.2
	c-0.1-0.2-0.1-0.4-0.1-0.6c0-0.1,0-0.2,0-0.3l0-0.1l0,0l0,0l-0.3-8.1l-0.2-3.8L61.6,67.4z M196.2,61.6h-21.9
	c-7.4,0-14.4,2.9-19.6,8.1l-79.2,79.2c-2.8,2.8-6.6,4.4-10.6,4.4H30.6c-9.8,0-17.7-8-17.7-17.7c0-9.8,8-17.7,17.7-17.7h14.4
	c7.4,0,14.4-2.9,19.7-8.1l79.2-79.2c2.8-2.8,6.6-4.4,10.6-4.4h41.9c9.8,0,17.7,8,17.7,17.7C213.9,53.6,206,61.6,196.2,61.6z"/>
</svg>
