<?xml version="1.0" encoding="utf-8"?>
<!-- Generator: Adobe Illustrator 25.4.1, SVG Export Plug-In . SVG Version: 6.00 Build 0)  -->
<svg version="1.1" id="Layer_1" xmlns="http://www.w3.org/2000/svg" xmlns:xlink="http://www.w3.org/1999/xlink" x="0px" y="0px"
	 viewBox="0 0 283.5 283.5" style="enable-background:new 0 0 283.5 283.5;" xml:space="preserve">
<style type="text/css">
	.st0{fill:#25303B;}
	.st1{fill:#EB2132;}
</style>
<g>
	<path class="st0" d="M228,89.7c-0.4,2.4-1.3,4.8-3.3,6.2c-0.1,0-0.1,0.1-0.2,0.1c-1.2,0.8-2.6,1.4-4,1.8c-6.1,1.7-12,3.3-18,5
		c-0.1,0-0.3,0.1-0.4,0.1c-1.4,5.8-2.8,11.5-4.3,17.3c-1.8-0.2-3.7-0.5-5.2-0.9c-3.5-0.7-6.9-1.8-10.3-2.9c-3.4-1.3-6.7-2.4-9.7-4.1
		c-3.8-2.1-7.6-4.7-11.2-7.5c0,0,0,0,0,0c1.4-3.1,2.9-6.1,4.3-9.2c2.9-6.2,5.9-12.3,8.8-18.5c0.2-0.6,0.5-1.2,0.8-1.7
		c1.5-3.2,3-6.4,4.5-9.6l0.1-0.3c0.1-0.2,0.2-0.3,0.3-0.5c0.2-0.3,0.4-0.7,0.7-1c0.5-0.6,1.1-1.1,1.8-1.3c1.4-0.5,3.1,0,4.5,0.7
		c1.4,0.7,2.8,1.6,3.3,3.1c0.2,0.7,0.2,1.5,0.1,2.3c-0.1,0.4-0.2,0.8-0.3,1.1c-0.1,0.2-0.1,0.4-0.2,0.6l-0.1,0.3
		c-0.5,1-0.9,1.9-1.4,2.9c4.6,0.9,9.2,1.7,13.7,2.6c6.1,1.2,12.1,2.3,18.3,3.5c2.4,0.4,4.8,1.3,6.2,3.3
		C228.6,84.7,228.5,87.3,228,89.7 M190.8,128.2c-3.9-0.8-7.7-2-11.4-3.3c-3.6-1.3-7.5-2.7-11-4.7c-5-2.7-9.4-5.9-13.7-9.3
		c-13.7,1.9-27.4,3.9-41,5.8c-15,2.1-30.1,4.2-45.3,6.4l-0.3,0.1c-0.1,0-0.2,0-0.3,0.1c-0.2,0-0.5,0-0.7,0c-2.4-0.1-4.3-0.7-5.7-1.8
		c-1.4-1.1-2.5-2.8-3.3-5.1c-0.3-1.1-0.8-2.3-1.9-3c-1.2-0.7-2.8-0.9-4.4-0.9c-1.6,0-3.3,0.3-4.2,1.7c-0.9,1.4-0.8,3.6-0.2,5.5
		c0.6,2,1.5,3.9,2.6,5.8c1.2,1.8,2.7,3.6,4.5,5c1.8,1.4,3.9,2.4,6,3.1c1.3,0.4,2.6,0.7,3.8,0.8c0,0,0,0,0,0c0,0.2,0,0.4,0,0.6l0,0.3
		c1.9,13.9,9.3,69,11.2,82.8l0.1,0.3c0,0.2,0.1,0.4,0.1,0.6c0.1,0.4,0.2,0.8,0.4,1.1c0.3,0.7,0.7,1.4,1.3,1.8
		c1.2,0.9,2.9,0.9,4.5,0.7c1.5,0.2,3.2,0.2,4.5-0.7c0.6-0.5,1-1.1,1.3-1.8c0.2-0.4,0.3-0.7,0.4-1.1c0-0.2,0.1-0.4,0.1-0.6l0.1-0.3
		c2.1-14.1,7.2-47.9,7.6-50.7c10.5,1.1,21,2.2,31.4,3.4c10.6,1.1,21.2,2.3,31.9,3.4c0.6,14.4,1.2,28.8,1.8,43.3l0,0.3
		c0,0.2,0,0.4,0.1,0.6c0.1,0.4,0.1,0.8,0.3,1.1c0.2,0.7,0.6,1.4,1.1,1.9c1.1,1,2.8,1.2,4.4,1.1c1.5,0.4,3.2,0.5,4.5-0.2
		c0.6-0.4,1.1-1,1.5-1.7c0.2-0.3,0.3-0.7,0.5-1.1c0.1-0.2,0.1-0.4,0.2-0.6l0.1-0.3c5-20.2,9.9-40.3,14.8-60.3
		c2.4-9.7,4.8-19.5,7.2-29.2C194,128.8,192.3,128.5,190.8,128.2"/>
	<path class="st1" d="M141.7,0C63.5,0,0,63.5,0,141.7C0,220,63.5,283.5,141.7,283.5c78.3,0,141.7-63.5,141.7-141.7
		C283.5,63.5,220,0,141.7,0 M28.4,143.6c-0.4-27.1,8.7-52.1,24.2-71.9c0.7-0.9,2.1-1,3-0.2L211.9,228c0.8,0.8,0.8,2.2-0.2,3
		c-19.7,15.5-44.7,24.6-71.9,24.2C79,254.1,29.3,204.5,28.4,143.6 M227.9,211.9L71.5,55.5c-0.8-0.8-0.8-2.2,0.2-3
		c19.7-15.5,44.7-24.6,71.9-24.2c60.9,1,110.6,50.6,111.5,111.5c0.4,27.1-8.7,52.2-24.2,71.9C230.2,212.7,228.8,212.8,227.9,211.9"
		/>
</g>
</svg>
