<?xml version="1.0" encoding="utf-8"?>
<!-- Generator: Adobe Illustrator 25.4.1, SVG Export Plug-In . SVG Version: 6.00 Build 0)  -->
<svg version="1.1" id="Layer_1" xmlns="http://www.w3.org/2000/svg" xmlns:xlink="http://www.w3.org/1999/xlink" x="0px" y="0px"
	 viewBox="0 0 283.465 283.465" enable-background="new 0 0 283.465 283.465" xml:space="preserve">
<g>
	<defs>
		<rect id="SVGID_1_" width="283.465" height="283.465"/>
	</defs>
	<clipPath id="SVGID_00000075880262128351618230000002014161270368365478_">
		<use xlink:href="#SVGID_1_"  overflow="visible"/>
	</clipPath>
	<path clip-path="url(#SVGID_00000075880262128351618230000002014161270368365478_)" fill="#006FB6" d="M219.685,283.465H63.78
		C28.555,283.465,0,254.91,0,219.686V63.78C0,28.556,28.555,0,63.78,0h155.905c35.225,0,63.78,28.556,63.78,63.78v155.906
		C283.465,254.91,254.91,283.465,219.685,283.465"/>
	<path clip-path="url(#SVGID_00000075880262128351618230000002014161270368365478_)" fill="#FFFFFF" d="M77.395,70.663
		c-3.902,0-8.108-0.646-10.861-3.313c-2.667-2.752-3.312-6.957-3.312-10.861c0-3.902,0.645-8.107,3.312-10.859
		c2.753-2.668,6.959-3.314,10.861-3.314c3.902,0,8.106,0.646,10.859,3.314c2.668,2.752,3.314,6.957,3.314,10.859
		c0,3.904-0.646,8.109-3.314,10.861C85.501,70.017,81.297,70.663,77.395,70.663 M39.025,139.777c1.025,1.241,2.751,1.705,4.38,1.886
		s3.414,0.106,4.687-0.88c1.241-1.025,1.704-2.749,1.885-4.377l0.358-3.226l0.358-3.225c0.001-0.01,0.002-0.021,0.003-0.031
		l2.388-21.518c0.06-0.076,0.126-0.145,0.183-0.225l8.536-7.827v38.966l-6.304,40.871c-0.007,0.021-0.015,0.042-0.021,0.063
		l-10.043,29.837c-0.002,0.007-0.004,0.013-0.006,0.019l-0.007,0.02c-0.697,2.07-1.102,4.413-0.171,6.352
		c0.991,1.909,3.117,3.008,5.197,3.708c0.26,0.088,0.524,0.171,0.792,0.247c1.872,0.535,3.889,0.748,5.593-0.064
		c1.916-0.989,3.014-3.115,3.714-5.196l10.5-31.198l0.036-0.228c0.285-1,0.543-2.006,0.838-3.003l1.392-4.977l2.664-9.534v16.165
		l2.962,38.947c0.166,2.189,0.707,4.52,2.321,5.95c1.658,1.379,4.043,1.562,6.233,1.395c2.194-0.054,4.55-0.475,6.061-2.013
		c1.462-1.585,1.767-3.958,1.712-6.153l-2.645-107.574l0.272,0.619c0.383,0.87,0.901,1.668,1.539,2.374
		c0.632,0.698,1.368,1.289,2.188,1.756l15.252,8.648c0.002,0.001,0.005,0.003,0.007,0.004l3.817,2.165
		c1.528,0.866,3.317,1.547,4.987,1.114c1.655-0.486,2.841-1.989,3.708-3.516c0.866-1.528,1.547-3.317,1.113-4.987
		c-0.485-1.655-1.988-2.841-3.516-3.707l-2.325-1.319l-15.497-8.787L98.61,94.726c-0.021-0.046-0.041-0.091-0.063-0.137l-4.52-9.584
		c-1.765-3.74-4.778-6.805-8.486-8.632l-1.137-0.56c-2.511-1.237-5.316-1.891-8.112-1.891h-0.29c-1.357,0-2.688,0.25-3.955,0.742
		c-1.267,0.493-2.417,1.208-3.419,2.126l-0.002,0.002l-9.163,8.402L44.225,99.165c-0.747,0.687-1.357,1.49-1.816,2.391
		c0,0.001-0.001,0.003-0.001,0.003l-0.001,0.001v0.001c-0.464,0.913-0.755,1.891-0.864,2.907l-2.684,24.177h0.001l-0.358,3.223
		l-0.358,3.225C37.964,136.721,38.04,138.505,39.025,139.777 M165.256,137.234c-11.712-2.641-23.482-5.294-35.286-7.956
		l-0.167-0.043l-0.331-0.101c-0.219-0.074-0.433-0.161-0.634-0.265c-0.402-0.209-0.755-0.487-1-0.86
		c-0.465-0.762-0.396-1.75-0.196-2.637c0.2-0.887,0.562-1.809,1.309-2.298c0.381-0.233,0.819-0.332,1.272-0.348
		c0.226-0.008,0.457,0.005,0.686,0.033l0.342,0.051l0.169,0.032c11.806,2.66,23.575,5.312,35.288,7.952
		c11.565,2.608,23.187,5.228,34.843,7.856l-17.523,2.815C177.757,140.052,171.498,138.641,165.256,137.234 M218.546,169.35
		c-3.654-0.401-7.328-0.803-11.011-1.207c-0.28,8.029-0.562,16.094-0.845,24.18c0.396,9.485,0.793,18.988,1.191,28.529l0.016,0.212
		c0.013,0.141,0.029,0.283,0.049,0.424c0.041,0.281,0.1,0.56,0.182,0.827c0.165,0.534,0.423,1.023,0.822,1.402
		c0.822,0.732,2.035,0.867,3.155,0.821c1.088,0.267,2.304,0.376,3.255-0.179c0.466-0.293,0.816-0.721,1.083-1.212
		c0.134-0.245,0.246-0.507,0.343-0.775c0.048-0.134,0.091-0.269,0.132-0.405l0.058-0.205c3.568-14.51,7.127-28.975,10.668-43.372
		c0.64-2.605,1.284-5.225,1.926-7.835C225.883,170.152,222.206,169.75,218.546,169.35 M200.964,167.153
		c0.263-7.541,0.528-15.118,0.793-22.71c-9.333,1.313-18.646,2.623-27.913,3.928c-10.814,1.523-21.68,3.053-32.58,4.589
		l-0.209,0.036c-0.064,0.012-0.127,0.028-0.191,0.042c-0.171-0.015-0.34-0.025-0.503-0.028c-1.752-0.049-3.116-0.493-4.133-1.271
		c-1.024-0.766-1.834-2.026-2.341-3.67c-0.247-0.776-0.579-1.623-1.402-2.164c-0.841-0.518-2.039-0.638-3.161-0.64
		c-1.116-0.003-2.343,0.25-3.044,1.258c-0.67,1.03-0.603,2.574-0.172,3.935c0.435,1.427,1.055,2.835,1.905,4.166
		c0.841,1.331,1.949,2.572,3.26,3.572c1.308,1.005,2.806,1.751,4.321,2.219c0.92,0.283,1.846,0.471,2.763,0.589
		c0,0.003-0.001,0.005-0.001,0.008c0.005,0.142,0.014,0.284,0.026,0.426l0.021,0.211c1.345,9.971,6.696,49.638,8.042,59.609
		l0.036,0.209c0.025,0.14,0.054,0.279,0.087,0.418c0.067,0.276,0.151,0.548,0.258,0.807c0.213,0.516,0.515,0.979,0.948,1.32
		c0.885,0.653,2.106,0.675,3.217,0.526c1.108,0.166,2.329,0.161,3.224-0.479c0.437-0.334,0.747-0.793,0.967-1.307
		c0.111-0.256,0.199-0.527,0.27-0.803c0.035-0.137,0.067-0.276,0.094-0.416l0.039-0.209c1.524-10.174,5.164-34.463,5.467-36.487
		c7.553,0.81,15.093,1.618,22.6,2.423c5.497,0.589,11.026,1.181,16.551,1.772C200.457,181.719,200.711,174.419,200.964,167.153
		 M255.502,123.991c-0.98-1.392-2.761-2.023-4.464-2.346c-4.462-0.848-8.828-1.677-13.194-2.507c-3.265-0.62-6.544-1.243-9.85-1.871
		c0.332-0.701,0.663-1.4,0.996-2.102l0.084-0.194c0.055-0.131,0.107-0.264,0.155-0.398c0.094-0.269,0.172-0.542,0.223-0.817
		c0.104-0.549,0.103-1.103-0.074-1.624c-0.386-1.03-1.397-1.715-2.41-2.195c-1.012-0.48-2.182-0.83-3.225-0.476
		c-0.515,0.193-0.944,0.542-1.304,0.97c-0.18,0.214-0.342,0.447-0.49,0.69c-0.074,0.122-0.144,0.246-0.211,0.371l-0.097,0.189
		c-1.089,2.295-2.174,4.584-3.261,6.874c-0.238,0.391-0.434,0.816-0.596,1.258c-2.112,4.454-4.221,8.902-6.323,13.333
		c-0.988,2.085-1.981,4.179-2.972,6.27c0.002,0.028,0.01,0.055,0.012,0.083l0.013,0.346v0.172c-0.251,7.193-0.5,14.362-0.749,21.513
		c3.847,0.421,7.683,0.84,11.5,1.257c3.894,0.427,7.806,0.856,11.731,1.286l0.162,0.024c0.553-2.253,1.105-4.497,1.66-6.752
		c1.111-4.52,3.664-14.905,4.642-18.884c0.093-0.025,0.186-0.051,0.279-0.076c4.284-1.182,8.568-2.364,12.946-3.572
		c1.017-0.28,2.051-0.679,2.901-1.278c0.038-0.023,0.078-0.039,0.115-0.063c1.393-0.98,2.023-2.762,2.346-4.466
		C256.371,127.303,256.438,125.414,255.502,123.991"/>
</g>
</svg>
