<?xml version="1.0" encoding="utf-8"?>
<!-- Generator: Adobe Illustrator 25.4.1, SVG Export Plug-In . SVG Version: 6.00 Build 0)  -->
<svg version="1.1" id="Layer_1" xmlns="http://www.w3.org/2000/svg" xmlns:xlink="http://www.w3.org/1999/xlink" x="0px" y="0px"
	 viewBox="0 0 181.344 160.436" enable-background="new 0 0 181.344 160.436" xml:space="preserve">
<g>
	<path fill="#25303B" d="M171.789,16.698c0.766,0.146,1.52,0.289,2.29,0.435c0.808,0.154,1.626,0.363,2.411,0.641
		c-0.049,0.066-0.107,0.125-0.154,0.193c-0.379,0.575-0.683,1.201-0.929,1.867l-7.052-0.555
		C169.13,18.22,170.274,17.368,171.789,16.698 M167.396,21.21c-0.339,0.979-0.531,2.067-0.577,3.22h7.904
		c-0.018-0.936,0.041-1.811,0.177-2.629L167.396,21.21z M166.741,32.771l-6.254,0.495c1.935,1.968,4.389,3.504,5.797,4.184
		c1.156-0.319,2.323-0.641,3.486-0.962C168.577,35.542,167.548,34.279,166.741,32.771 M176.209,32.022l-7.251,0.574
		c0.672,1.06,1.465,1.951,2.351,2.575c0.048,0.018,0.101,0.047,0.153,0.078c0.27,0.189,0.561,0.364,0.857,0.536
		c0.426-0.118,0.842-0.232,1.269-0.35c1.232-0.34,2.471-0.817,3.553-1.481C176.801,33.358,176.483,32.727,176.209,32.022
		 M166.631,18.242c0.566-0.805,1.282-1.504,2.132-2.119c-1.651-0.313-3.31-0.628-4.95-0.94c-1.416,0.635-2.599,1.815-3.831,3.438
		l6.153,0.483C166.289,18.808,166.45,18.516,166.631,18.242 M167.96,30.668l7.608-0.602c-0.163-0.604-0.315-1.229-0.442-1.898
		c-0.048-0.253-0.078-0.492-0.118-0.738h-7.983c0.015,0.09,0.023,0.18,0.04,0.272C167.264,28.75,167.575,29.744,167.96,30.668
		 M132.47,62.57c-3.594-1.317-7.451-2.672-11.013-4.732c-4.956-2.725-9.439-5.918-13.688-9.328
		c-13.702,1.928-27.37,3.852-40.972,5.766c-15.029,2.117-30.131,4.244-45.279,6.378l-0.29,0.051
		c-0.089,0.017-0.177,0.039-0.265,0.058c-0.238-0.021-0.472-0.035-0.7-0.039c-2.435-0.069-4.33-0.686-5.744-1.767
		c-1.423-1.064-2.549-2.816-3.253-5.101c-0.344-1.078-0.804-2.254-1.949-3.007c-1.169-0.72-2.833-0.886-4.393-0.889
		c-1.551-0.004-3.256,0.348-4.23,1.749c-0.931,1.43-0.838,3.577-0.239,5.468c0.603,1.983,1.467,3.941,2.648,5.79
		c1.168,1.85,2.708,3.574,4.531,4.964c1.817,1.397,3.899,2.434,6.004,3.085c1.279,0.393,2.566,0.653,3.84,0.817
		c0,0.004,0,0.008,0,0.011c0.006,0.198,0.018,0.396,0.035,0.592l0.03,0.294c1.868,13.857,9.305,68.985,11.176,82.843l0.049,0.291
		c0.035,0.194,0.076,0.387,0.122,0.58c0.093,0.385,0.21,0.762,0.358,1.121c0.296,0.719,0.717,1.362,1.317,1.835
		c1.231,0.908,2.928,0.939,4.471,0.731c1.54,0.231,3.238,0.225,4.482-0.666c0.607-0.464,1.037-1.101,1.344-1.815
		c0.153-0.357,0.275-0.733,0.374-1.116c0.049-0.192,0.092-0.385,0.131-0.578l0.053-0.291c2.12-14.14,7.177-47.896,7.599-50.708
		c10.497,1.125,20.976,2.249,31.409,3.367c10.584,1.133,21.217,2.272,31.867,3.412c0.6,14.378,1.202,28.801,1.806,43.273
		l0.022,0.294c0.017,0.196,0.04,0.394,0.068,0.589c0.057,0.392,0.139,0.778,0.254,1.149c0.228,0.744,0.587,1.423,1.142,1.95
		c1.141,1.017,2.828,1.205,4.384,1.14c1.512,0.371,3.203,0.523,4.524-0.249c0.648-0.406,1.134-1.001,1.505-1.683
		c0.186-0.342,0.343-0.705,0.476-1.077c0.067-0.186,0.128-0.374,0.184-0.564l0.08-0.284c4.96-20.166,9.905-40.27,14.826-60.277
		c2.392-9.726,4.789-19.479,7.192-29.249c-1.735-0.242-3.5-0.549-4.915-0.92C139.936,65.037,136.174,63.852,132.47,62.57
		 M154.816,24.397c0.189-2.29,0.675-4.522,1.931-6.431c0.862-1.225,1.821-2.486,2.969-3.561c-1.323-0.252-2.651-0.504-3.973-0.755
		c-4.538-0.862-9.096-1.728-13.69-2.601c0.462-0.974,0.922-1.945,1.385-2.921l0.117-0.27c0.076-0.182,0.148-0.367,0.214-0.553
		c0.132-0.373,0.24-0.754,0.311-1.136c0.143-0.763,0.142-1.531-0.103-2.256c-0.537-1.432-1.943-2.384-3.349-3.051
		c-1.408-0.667-3.033-1.153-4.482-0.662c-0.717,0.269-1.312,0.754-1.813,1.348c-0.25,0.298-0.476,0.622-0.681,0.96
		c-0.103,0.169-0.201,0.342-0.293,0.515l-0.136,0.263c-1.512,3.19-3.021,6.37-4.53,9.553c-0.332,0.543-0.603,1.134-0.829,1.748
		c-0.625,1.319-1.248,2.63-1.873,3.949C129.72,19.944,141.558,24.015,154.816,24.397 M154.696,27.888
		c0-0.163,0.004-0.328,0.004-0.492c-14.101-0.404-26.339-4.721-30-6.137c-1.876,3.956-3.755,7.918-5.624,11.858
		c-1.445,3.049-2.896,6.11-4.345,9.168c-0.013,0.012-0.027,0.024-0.04,0.036c3.591,2.806,7.304,5.373,11.152,7.479
		c2.949,1.731,6.216,2.86,9.664,4.132c3.38,1.17,6.808,2.252,10.262,2.945c1.526,0.401,3.435,0.708,5.187,0.93
		c1.417-5.766,2.834-11.527,4.254-17.303c0.128-0.035,0.258-0.07,0.386-0.106c2.218-0.612,4.441-1.225,6.666-1.839
		C158.844,36.299,154.696,32.464,154.696,27.888 M157.814,24.43h7.011c0.043-1.188,0.225-2.324,0.538-3.38l-6.621-0.521
		C158.206,21.679,157.942,23.006,157.814,24.43 M157.696,27.888c0,1.199,0.481,2.383,1.226,3.495l6.94-0.549
		c-0.321-0.872-0.579-1.795-0.762-2.759c-0.041-0.217-0.063-0.43-0.095-0.645H157.7C157.699,27.582,157.696,27.734,157.696,27.888
		 M180.283,20.394c-0.315-0.447-0.694-0.833-1.113-1.174c-0.123,0.142-0.248,0.283-0.355,0.435c-1.167,1.776-1.419,4.39-0.742,7.953
		c0.32,1.687,0.76,3.092,1.319,4.245c0.857-1.309,1.351-2.919,1.649-4.489C181.491,24.997,181.584,22.372,180.283,20.394"/>
</g>
</svg>
