<?xml version="1.0" encoding="utf-8"?>
<!-- Generator: Adobe Illustrator 25.4.1, SVG Export Plug-In . SVG Version: 6.00 Build 0)  -->
<svg version="1.1" id="Layer_1" xmlns="http://www.w3.org/2000/svg" xmlns:xlink="http://www.w3.org/1999/xlink" x="0px" y="0px"
	 viewBox="0 0 283.465 283.464" enable-background="new 0 0 283.465 283.464" xml:space="preserve">
<g>
	<path fill="#996017" d="M219.685,283.464H63.779C28.555,283.464,0,254.909,0,219.684V63.779C0,28.554,28.555,0,63.779,0h155.906
		c35.224,0,63.779,28.554,63.779,63.779v155.905C283.464,254.909,254.909,283.464,219.685,283.464"/>
	<path fill="#FFFFFF" d="M149.958,144.449c0.093-11.917,0.137-15.868,0.198-27.759c0.011-2.189,0.4-4.595,2.047-6.301
		c1.701-1.649,4.155-1.675,6.875-1.777c2.721-0.101,5.688,0.245,7.865,2.374c2.131,2.198,3.149,5.761,3.672,8.822
		c2.155,13.057,3.839,26.294,6.836,39.196c0.151,0.853,0.891,1.471,1.758,1.471h1.157c1.088,0,1.923-0.964,1.767-2.041
		l-6.575-45.496L160.264,77.97c-1.126-2.574-1.913-5.534-0.947-8.12c1.046-2.553,3.488-3.58,6.018-4.803
		c2.529-1.223,5.457-2.122,8.078-1.256c2.592,0.949,4.353,3.533,5.576,6.062l20.358,42.114c0.312,0.644,0.525,1.331,0.632,2.039
		l10.341,68.268l0.44,2.871c0.791,3.618,2.417,8.394,7.237,6.915l28.01-4.073v50.203c0,0-50.57-3.208-68.516-10.269
		c-18.34-7.193-27.057-22.033-27.526-38.41c-0.483-16.364-0.029-37.415-0.029-37.415L149.958,144.449z M133.507,144.449
		c-0.094-11.917-0.138-15.868-0.198-27.759c-0.011-2.189-0.401-4.595-2.047-6.301c-1.702-1.649-4.155-1.675-6.876-1.777
		c-2.72-0.101-5.688,0.245-7.864,2.374c-2.132,2.198-3.15,5.761-3.673,8.822c-2.154,13.057-3.839,26.294-6.835,39.196
		c-0.151,0.853-0.892,1.471-1.758,1.471h-1.158c-1.088,0-1.923-0.964-1.767-2.041l6.576-45.496l15.294-34.968
		c1.125-2.574,1.913-5.534,0.947-8.12c-1.046-2.553-3.488-3.58-6.018-4.803c-2.53-1.223-5.457-2.122-8.078-1.256
		c-2.592,0.949-4.354,3.533-5.577,6.062l-20.358,42.114c-0.311,0.644-0.524,1.331-0.631,2.039l-10.342,68.268l-0.44,2.871
		c-0.791,3.618-2.417,8.394-7.237,6.915l-28.009-4.073v50.203c0,0,50.57-3.208,68.515-10.269
		c18.341-7.193,27.057-22.033,27.526-38.41c0.484-16.364,0.029-37.415,0.029-37.415L133.507,144.449z"/>
</g>
</svg>
