<?xml version="1.0" encoding="utf-8"?>
<!-- Generator: Adobe Illustrator 25.4.1, SVG Export Plug-In . SVG Version: 6.00 Build 0)  -->
<svg version="1.1" id="Layer_1" xmlns="http://www.w3.org/2000/svg" xmlns:xlink="http://www.w3.org/1999/xlink" x="0px" y="0px"
	 viewBox="0 0 283.465 283.464" enable-background="new 0 0 283.465 283.464" xml:space="preserve">
<g>
	<path fill="#996017" d="M219.685,283.464H63.78c-35.225,0-63.78-28.555-63.78-63.78V63.779c0-35.225,28.555-63.78,63.78-63.78
		h155.905c35.225,0,63.78,28.555,63.78,63.78v155.905C283.465,254.909,254.91,283.464,219.685,283.464"/>
	<path fill="#FFFFFF" d="M79.776,198.035l-24.598,5.974c-1.125,0.273-2.208-0.578-2.208-1.735v-26.06
		c0-1.234,1.222-2.096,2.384-1.683l24.422,8.677V198.035z M196.813,78c-6.408,0-11.698,5.203-11.698,11.639
		c0,6.437,5.29,11.639,11.698,11.639c6.465,0,11.756-5.202,11.756-11.639C208.569,83.203,203.278,78,196.813,78 M196.813,57.015
		c18.134,0,32.8,14.608,32.8,32.624c0,18.017-14.666,32.625-32.8,32.625c-18.047,0-32.743-14.608-32.743-32.625
		C164.07,71.623,178.766,57.015,196.813,57.015 M111.871,71.828c-8.083,0-14.755,6.554-14.755,14.696
		c0,8.068,6.672,14.681,14.755,14.681c8.141,0,14.813-6.613,14.813-14.681C126.684,78.382,120.012,71.828,111.871,71.828
		 M111.871,45.435c22.808,0,41.324,18.384,41.324,41.089c0,22.661-18.516,41.06-41.324,41.06c-22.749,0-41.236-18.399-41.236-41.06
		C70.635,63.819,89.122,45.435,111.871,45.435 M220.34,137.562c1.972,0,3.571,1.599,3.571,3.572v78.842
		c0,1.972-1.599,3.571-3.571,3.571H96.867c-1.972,0-3.571-1.599-3.571-3.571v-13.02v-35.432v-30.39c0-1.973,1.599-3.572,3.571-3.572
		h110.35H220.34z"/>
</g>
</svg>
