<?xml version="1.0" encoding="utf-8"?>
<!-- Generator: Adobe Illustrator 25.4.1, SVG Export Plug-In . SVG Version: 6.00 Build 0)  -->
<svg version="1.1" id="Layer_1" xmlns="http://www.w3.org/2000/svg" xmlns:xlink="http://www.w3.org/1999/xlink" x="0px" y="0px"
	 viewBox="0 0 850.394 283.464" enable-background="new 0 0 850.394 283.464" xml:space="preserve">
<g>
	<path fill="#006FB6" d="M786.614,283.464H63.78c-35.225,0-63.78-28.555-63.78-63.78V63.779C0,28.555,28.555,0,63.78,0h722.834
		c35.225,0,63.78,28.555,63.78,63.779v155.905C850.394,254.909,821.839,283.464,786.614,283.464"/>
	<path fill="#FFFFFF" d="M747.797,188.685v3.878c0,2.123-1.72,3.844-3.843,3.844h-22.996h-23.571
		c-2.233,0.001-4.503,0.001-6.801,0.002c-2.208-0.016-4.412-0.609-6.226-1.877c-0.891-0.645-1.722-1.393-2.377-2.292
		c-0.353-0.431-0.627-0.916-0.893-1.408c-0.296-0.474-0.509-0.996-0.71-1.526c-1.647-4.275-3.321-8.618-4.995-12.961
		c-13.23-34.332-26.462-68.665-26.462-68.665c-0.763-1.981,0.224-4.206,2.205-4.969l3.619-1.394c1.98-0.763,4.205,0.223,4.968,2.204
		c0,0,13.231,34.333,26.462,68.665c1.634,4.241,3.269,8.481,4.877,12.656v-0.003c2.14,0.001,4.254,0.002,6.333,0.003h23.571h22.996
		C746.077,184.842,747.797,186.562,747.797,188.685 M733.988,80.923c4.683,0.001,9.727-0.773,13.032-3.974
		c3.202-3.302,3.978-8.348,3.978-13.032c0-4.683-0.774-9.729-3.976-13.032c-3.304-3.202-8.348-3.977-13.031-3.977
		c-4.683-0.001-9.73,0.773-13.033,3.975c-3.201,3.303-3.976,8.348-3.976,13.031c-0.001,4.684,0.773,9.73,3.974,13.033
		C724.258,80.148,729.305,80.923,733.988,80.923 M783.343,122.333h-2.566h-0.001h-2.566h-16.4l-16.543-26.815
		c-4.954-8.781-11.239-11.359-15.651-11.971c-4.54-0.63-9.129,0.621-11.694,3.186c-1.888,1.888-4.391,5.585-5.307,7.079
		c-10.262,16.735-29.066,59.587-18.099,77.909c2.13,3.557,5.316,5.674,8.856,6.336c0.817,0.153,1.697,0.138,1.697,0.138
		l43.529,0.041c0.23,0.605,0.498,1.197,0.787,1.765l21.939,43.115c1.114,2.191,2.678,4.368,4.963,5.151
		c2.307,0.712,4.852-0.127,7.044-1.242c1.24-0.519,2.483-1.228,3.305-2.242c0.82-0.773,1.485-1.667,1.846-2.721
		c0.712-2.308-0.127-4.853-1.242-7.045l-11.347-22.299l-11.597-27.721v-0.001c0.008,0.026,0.014,0.044,0.022,0.068
		c-0.039-0.103-0.075-0.208-0.119-0.309c-0.194-0.444-0.33-0.663-0.491-0.924c-0.154-0.245-0.353-0.53-0.504-0.716
		c-0.136-0.166-0.277-0.328-0.423-0.485c-0.572-0.604-1.001-0.919-1.4-1.208c-0.777-0.541-1.378-0.842-1.963-1.119
		c-0.582-0.269-1.124-0.481-1.71-0.676c-0.646-0.216-1.406-0.411-2.124-0.512l-4.537-0.585l-8.797-1.134l-17.597-2.268
		c-0.669-0.086-1.362-0.13-2.042-0.096c-0.283-8.348,5.046-25.143,15.428-44.021l13.705,22.216c1.301,2.109,3.602,3.393,6.08,3.393
		h22.953v-0.001h2.566c1.966,0,4.083-0.325,5.47-1.669c1.345-1.388,1.67-3.507,1.67-5.474c0-1.967-0.325-4.086-1.67-5.473
		C787.426,122.659,785.309,122.333,783.343,122.333 M799.607,127.116l-0.006-0.176l-0.025-0.353
		c-0.025-0.234-0.064-0.467-0.123-0.691c-0.117-0.448-0.315-0.862-0.632-1.19c-0.655-0.635-1.656-0.788-2.585-0.788
		s-1.93,0.153-2.585,0.788c-0.317,0.328-0.515,0.742-0.632,1.19c-0.058,0.224-0.098,0.457-0.122,0.691l-0.026,0.353l-0.006,0.176
		c-0.001,15.924-0.001,31.8-0.002,47.599c0.001,15.799,0.001,31.675,0.002,47.6l0.006,0.176l0.026,0.352
		c0.024,0.235,0.064,0.467,0.122,0.691c0.117,0.449,0.315,0.863,0.632,1.19c0.655,0.635,1.656,0.789,2.585,0.789
		s1.93-0.154,2.585-0.789c0.317-0.327,0.515-0.741,0.632-1.19c0.059-0.224,0.098-0.456,0.123-0.691l0.025-0.352l0.006-0.176
		c0.001-15.925,0.002-31.801,0.002-47.6S799.608,143.04,799.607,127.116"/>
	<path fill="#FFFFFF" d="M376.255,82.346c-3.2-3.303-3.976-8.349-3.976-13.033c0-4.683,0.776-9.728,3.976-13.032
		c3.303-3.201,8.35-3.976,13.032-3.976c4.684,0,9.728,0.775,13.032,3.976c3.202,3.304,3.976,8.349,3.976,13.032
		c0,4.684-0.774,9.73-3.976,13.033c-3.304,3.2-8.348,3.975-13.032,3.975C384.605,86.321,379.558,85.546,376.255,82.346
		 M445.387,185.425h-22.996h-23.572c-2.079-0.001-4.192-0.001-6.332-0.002v0.002c-1.609-4.174-3.243-8.414-4.877-12.655
		c-13.231-34.332-26.461-68.665-26.461-68.665c-0.764-1.981-2.989-2.968-4.969-2.205l-3.619,1.395
		c-1.981,0.763-2.968,2.988-2.204,4.969c0,0,13.23,34.332,26.462,68.665c1.673,4.343,3.346,8.686,4.994,12.961
		c0.2,0.529,0.415,1.052,0.711,1.525c0.265,0.493,0.54,0.978,0.892,1.409c0.655,0.899,1.486,1.647,2.377,2.292
		c1.815,1.267,4.019,1.861,6.227,1.877c2.298-0.001,4.567-0.002,6.799-0.003h23.572h22.996c2.123,0,3.844-1.72,3.844-3.843v-3.878
		C449.231,187.146,447.51,185.425,445.387,185.425 M488.673,215.601L477.325,193.3l-11.595-27.72
		c0.006,0.023,0.012,0.039,0.019,0.06c-0.083-0.215-0.171-0.429-0.271-0.634c-0.205-0.4-0.394-0.691-0.625-1.021l-0.172-0.232
		l-0.131-0.159l-0.273-0.311l-0.284-0.299l-0.233-0.219l-0.466-0.402l-0.391-0.293c-0.282-0.209-0.475-0.323-0.717-0.476
		c-0.882-0.531-1.576-0.831-2.307-1.118c-0.377-0.145-0.695-0.255-1.157-0.396c-0.46-0.134-0.917-0.254-1.387-0.329
		c-0.208-0.044-0.525-0.078-0.648-0.095l-0.353-0.045l-0.705-0.091l-5.02-0.647c-0.397-0.258-0.639-0.72-0.576-1.219
		c0.022-0.174,0.093-0.313,0.176-0.456c0.804-2.363,1.398-4.824,1.723-7.399c2.605-20.591-11.98-39.399-32.569-42.004
		c-2.834-0.359-5.635-0.392-8.364-0.126l-1.184,0.143c-1.041-0.131-1.846-0.869-2.111-1.818l-0.086,0.022
		c-6.036-11.044-11.41-16.392-18.331-16.392c-6.365,0-11.44,2.362-14.291,6.652c-3.139,4.723-3.131,10.932,0.029,18.452
		c0,0,19.582,54.087,20.102,55.55c0.033,0.091,0.065,0.18,0.096,0.267l0.185,0.481l0.045,0.104c0.076,0.164,0.152,0.325,0.226,0.484
		c0.226,0.449,0.406,0.758,0.589,1.052c0.364,0.584,0.69,1.03,0.977,1.382c0.281,0.355,0.512,0.614,0.675,0.782
		c0.161,0.17,0.244,0.257,0.244,0.257c1.574,1.668,3.871,2.901,5.996,3.256c0.909,0.16,1.672,0.224,2.533,0.224l43.24-0.03
		c0.25,0.703,0.552,1.392,0.886,2.048l21.937,43.115c1.115,2.191,2.679,4.367,4.963,5.151c2.308,0.712,4.853-0.127,7.045-1.242
		v-0.001c1.24-0.518,2.484-1.227,3.305-2.241c0.82-0.774,1.485-1.668,1.846-2.722C490.627,220.337,489.787,217.792,488.673,215.601"
		/>
	<path fill="#FFFFFF" d="M77.479,82.055c-3.201-3.303-3.976-8.349-3.976-13.033c0-4.683,0.775-9.729,3.976-13.032
		c3.303-3.201,8.349-3.976,13.032-3.976c4.684,0,9.728,0.775,13.032,3.976c3.201,3.303,3.976,8.349,3.976,13.032
		c0,4.684-0.775,9.73-3.976,13.033c-3.304,3.2-8.348,3.975-13.032,3.975C85.828,86.03,80.782,85.255,77.479,82.055 M146.611,185.134
		h-22.996h-23.572c-2.079-0.001-4.192-0.002-6.332-0.002l-0.001,0.002c-1.608-4.174-3.242-8.414-4.876-12.655
		c-13.231-34.332-26.462-68.665-26.462-68.665c-0.763-1.981-2.988-2.968-4.969-2.205l-3.618,1.395
		c-1.981,0.763-2.968,2.988-2.205,4.969c0,0,13.231,34.332,26.462,68.665c1.674,4.343,3.347,8.686,4.994,12.961
		c0.201,0.529,0.416,1.051,0.711,1.526c0.266,0.492,0.54,0.977,0.893,1.408c0.655,0.899,1.486,1.647,2.377,2.291
		c1.814,1.268,4.018,1.862,6.227,1.878c2.297-0.001,4.567-0.002,6.799-0.003h23.572h22.996c2.123,0,3.843-1.72,3.843-3.843v-3.878
		C150.454,186.855,148.734,185.134,146.611,185.134 M209.403,224.315c-0.026-0.23-0.073-0.461-0.134-0.689l-0.103-0.338
		l-0.057-0.167c-5.807-15.079-11.596-30.112-17.357-45.073s-11.551-29.993-17.359-45.072l-0.069-0.162l-0.151-0.32
		c-0.107-0.21-0.227-0.413-0.363-0.601c-0.271-0.376-0.604-0.692-1.018-0.883c-0.839-0.357-1.828-0.141-2.695,0.193
		c-0.866,0.334-1.745,0.837-2.129,1.665c-0.178,0.419-0.213,0.877-0.162,1.337c0.025,0.231,0.073,0.462,0.135,0.689l0.102,0.339
		l0.058,0.166c5.806,15.08,11.595,30.113,17.355,45.073c5.763,14.961,11.552,29.993,17.36,45.072l0.069,0.163l0.151,0.319
		c0.107,0.21,0.227,0.413,0.363,0.601c0.27,0.376,0.603,0.692,1.017,0.883c0.84,0.358,1.828,0.141,2.696-0.193
		c0.867-0.334,1.745-0.836,2.129-1.664C209.419,225.233,209.454,224.776,209.403,224.315 M178.221,192.224l-2.425-5.796
		c-1.74,1.314-3.486,2.631-5.219,3.939c-3.168,2.389-6.351,4.79-9.544,7.198l-0.145,0.102l-0.005,0.003l2.808,5.517
		c3.044-2.298,6.081-4.589,9.101-6.869C174.594,194.959,176.41,193.59,178.221,192.224 M189.897,215.31l-2.716-5.335
		c-2.312,1.745-4.625,3.491-6.924,5.225c-2.508,1.891-5.031,3.794-7.555,5.698l1.278,2.511c1.115,2.191,2.679,4.367,4.963,5.151
		c2.308,0.712,4.853-0.128,7.045-1.243c1.24-0.518,2.484-1.228,3.305-2.242c0.82-0.773,1.485-1.667,1.846-2.72
		C191.85,220.046,191.011,217.501,189.897,215.31 M184.076,203.871l-2.8-5.503c-1.474,1.112-2.953,2.228-4.42,3.336
		c-3.168,2.389-6.352,4.79-9.545,7.198l-0.145,0.101l-0.297,0.191c-0.031,0.019-0.065,0.031-0.096,0.05l2.823,5.549
		c2.203-1.662,4.408-3.326,6.599-4.979C178.81,207.841,181.442,205.857,184.076,203.871 M166.514,184.981
		c2.189-1.651,4.394-3.313,6.596-4.974l-6.157-14.718c0.007,0.022,0.012,0.038,0.02,0.06c-0.084-0.215-0.171-0.429-0.272-0.634
		c-0.205-0.4-0.393-0.691-0.624-1.021l-0.172-0.233l-0.131-0.158l-0.273-0.311l-0.284-0.3l-0.233-0.218l-0.466-0.402l-0.391-0.293
		c-0.282-0.209-0.475-0.323-0.717-0.476c-0.882-0.53-1.577-0.831-2.307-1.118c-0.377-0.145-0.695-0.256-1.157-0.396
		c-0.46-0.134-0.917-0.254-1.387-0.329c-0.208-0.044-0.526-0.078-0.649-0.095l-0.352-0.046l-0.705-0.09l-5.645-0.728l-11.288-1.455
		l-11.287-1.455l-4.707-0.606l-6.837-18.407l19.567,2.166c0.554,0.123,1.119,0.21,1.675,0.265c2.167,0.213,4.298,0.422,6.422,0.631
		l7.053,0.78l0.009-0.086c1.481,0.145,2.97,0.292,4.475,0.439c1.956,0.192,4.096,0.076,5.608-1.126
		c1.473-1.249,2.004-3.327,2.196-5.284c0.192-1.958,0.076-4.099-1.126-5.611c-1.249-1.473-3.324-2.004-5.281-2.197
		c-3.036-0.298-6.008-0.59-8.979-0.882c-0.832-0.082-1.667-0.164-2.5-0.246l-29.475-3.262
		c-9.787-22.223-16.471-32.832-26.222-32.832c-6.365,0-11.44,2.362-14.291,6.651c-3.14,4.725-3.13,10.933,0.028,18.454
		c0,0,19.582,54.086,20.103,55.549c0.033,0.091,0.064,0.18,0.096,0.266l0.185,0.482l0.045,0.104
		c0.076,0.163,0.151,0.325,0.226,0.483c0.226,0.45,0.405,0.759,0.589,1.053c0.364,0.584,0.689,1.03,0.977,1.382
		c0.28,0.355,0.512,0.614,0.675,0.782c0.161,0.17,0.244,0.257,0.244,0.257c1.574,1.668,3.871,2.901,5.995,3.256
		c0.909,0.16,1.717,0.082,2.536,0.082l43.238,0.111c0.25,0.704,0.551,1.393,0.885,2.049l5.739,11.278
		C160.701,189.368,163.616,187.169,166.514,184.981"/>
	<path fill="#FFFFFF" d="M226.547,81.77c-3.2-3.303-3.976-8.348-3.976-13.032c0-4.683,0.776-9.729,3.976-13.032
		c3.302-3.202,8.349-3.976,13.032-3.976c4.684,0,9.728,0.774,13.032,3.976c3.201,3.303,3.976,8.349,3.976,13.032
		c0,4.684-0.775,9.729-3.976,13.032c-3.304,3.201-8.348,3.975-13.032,3.975C234.896,85.745,229.849,84.971,226.547,81.77
		 M295.679,184.849h-22.997h-23.571c-2.079,0-4.192-0.001-6.333-0.002v0.002c-1.608-4.173-3.242-8.414-4.877-12.654
		c-13.23-34.333-26.462-68.666-26.462-68.666c-0.762-1.98-2.987-2.968-4.968-2.204l-3.619,1.395
		c-1.98,0.763-2.967,2.987-2.204,4.968c0,0,13.231,34.333,26.462,68.665c1.673,4.343,3.347,8.686,4.994,12.961
		c0.201,0.53,0.414,1.052,0.711,1.526c0.266,0.492,0.539,0.978,0.893,1.408c0.654,0.899,1.485,1.647,2.377,2.292
		c1.814,1.267,4.018,1.861,6.226,1.877c2.298-0.001,4.568-0.001,6.8-0.002h23.571h22.997c2.123,0,3.843-1.721,3.843-3.844v-3.878
		C299.522,186.571,297.802,184.849,295.679,184.849 M327.617,192.725l-11.596-27.72h-0.001c0.008,0.022,0.013,0.038,0.02,0.059
		c-0.083-0.215-0.17-0.429-0.271-0.634c-0.205-0.4-0.393-0.69-0.625-1.02l-0.171-0.233l-0.131-0.159l-0.273-0.311l-0.285-0.299
		l-0.232-0.219l-0.466-0.402l-0.391-0.293c-0.282-0.208-0.475-0.322-0.718-0.476c-0.881-0.53-1.576-0.83-2.307-1.118
		c-0.376-0.145-0.695-0.255-1.156-0.396c-0.46-0.133-0.918-0.253-1.388-0.328c-0.207-0.044-0.526-0.079-0.648-0.096l-0.352-0.045
		l-0.706-0.091l-5.644-0.727l-11.288-1.455l-11.288-1.455l-4.707-0.607l-6.836-18.407l19.569,2.166
		c0.553,0.124,1.118,0.211,1.673,0.265c2.165,0.213,4.294,0.422,6.416,0.631l7.058,0.781l0.01-0.087
		c1.481,0.146,2.969,0.292,4.475,0.44c1.956,0.192,4.096,0.075,5.607-1.127c1.473-1.249,2.005-3.327,2.197-5.284
		c0.192-1.958,0.076-4.098-1.126-5.61c-1.249-1.474-3.324-2.004-5.281-2.197c-3.036-0.299-6.008-0.591-8.98-0.882
		c-0.832-0.082-1.669-0.165-2.503-0.247l-29.471-3.262c-9.788-22.222-16.471-32.831-26.222-32.831
		c-6.365,0-11.44,2.361-14.291,6.651c-3.14,4.724-3.131,10.932,0.028,18.453l2.073,4.935c0.963,2.705,5.141,14.434,9.32,26.165
		c2.383,6.687,4.765,13.374,6.551,18.389c0.893,2.508,1.637,4.598,2.159,6.06c0.032,0.092,0.064,0.181,0.095,0.267l0.186,0.482
		l0.045,0.104c0.076,0.163,0.151,0.324,0.226,0.483c0.226,0.449,0.405,0.759,0.588,1.053c0.365,0.584,0.69,1.029,0.978,1.381
		c0.28,0.355,0.512,0.614,0.675,0.783c0.161,0.169,0.244,0.257,0.244,0.257c1.573,1.668,3.871,2.9,5.995,3.255
		c0.911,0.161,1.765,0.174,2.539,0.082l43.234,0.112c0.25,0.703,0.552,1.392,0.885,2.048l21.939,43.115
		c1.115,2.191,2.678,4.368,4.963,5.151c2.308,0.712,4.853-0.127,7.045-1.242c1.24-0.519,2.483-1.228,3.305-2.242
		c0.819-0.773,1.485-1.668,1.846-2.721c0.711-2.308-0.128-4.853-1.243-7.045L327.617,192.725z M354.745,214.407
		c-4.843-12.649-9.675-25.272-14.484-37.836c-5.809-15.169-11.645-30.411-17.499-45.7l-0.069-0.162l-0.15-0.32
		c-0.107-0.21-0.226-0.414-0.361-0.602c-0.27-0.376-0.603-0.692-1.016-0.885c-0.839-0.359-1.828-0.144-2.696,0.188
		c-0.868,0.332-1.747,0.833-2.132,1.66c-0.179,0.42-0.215,0.877-0.165,1.338c0.025,0.23,0.072,0.461,0.133,0.689l0.102,0.339
		l0.057,0.167c5.853,15.289,11.688,30.531,17.495,45.7c4.841,12.641,9.704,25.342,14.577,38.07
		c-0.914,1.151-1.486,2.589-1.538,4.171c-0.127,3.912,2.941,7.186,6.853,7.313c3.913,0.127,7.186-2.942,7.313-6.853
		C361.287,217.918,358.446,214.752,354.745,214.407"/>
	<path fill="#FFFFFF" d="M551.522,56.274c3.201,3.304,3.975,8.349,3.975,13.032c0,4.684-0.774,9.73-3.975,13.033
		c-3.305,3.2-8.349,3.975-13.032,3.975s-9.73-0.775-13.033-3.975c-3.201-3.303-3.975-8.349-3.975-13.033
		c0-4.683,0.774-9.728,3.975-13.032c3.303-3.201,8.35-3.976,13.033-3.976S548.217,53.073,551.522,56.274 M598.433,193.14v-3.878
		c0-2.123-1.721-3.844-3.844-3.844h-22.996h-23.571c-2.079-0.001-4.193-0.001-6.332-0.002v0.002
		c-1.61-4.174-3.243-8.415-4.877-12.655c-13.232-34.332-26.462-68.665-26.462-68.665c-0.764-1.981-2.988-2.968-4.969-2.204
		l-3.619,1.394c-1.98,0.763-2.968,2.988-2.204,4.969c0,0,13.23,34.332,26.462,68.665c1.674,4.343,3.347,8.685,4.994,12.96
		c0.2,0.53,0.415,1.053,0.711,1.526c0.266,0.493,0.54,0.978,0.892,1.409c0.656,0.899,1.487,1.647,2.377,2.291
		c1.815,1.268,4.019,1.862,6.227,1.878c2.298-0.001,4.567-0.002,6.8-0.003h23.571h22.996
		C596.712,196.983,598.433,195.263,598.433,193.14 M593.548,175.739l-2.028-9.119c-0.071-0.323-0.106-0.619-0.125-0.867
		l-0.153-0.699l-0.094,0.419c-0.016,0.421-0.067,0.814-0.154,1.196l-2.038,8.892c-0.258,1.132-0.792,2.136-1.517,2.954
		c2.909,0.004,5.499,0.008,7.497,0.01C594.277,177.731,593.782,176.79,593.548,175.739 M573.058,176.764
		c-0.948-1.512-1.251-3.302-0.852-5.041l0.919-4.011c0.021-0.367,0.071-0.726,0.148-1.069l2.211-9.855l-3.945-0.007l-1.858-0.261
		l-0.123-0.029c-0.57-0.134-1.014-0.332-1.338-0.476c-0.089-0.04-0.178-0.082-0.271-0.117c-0.68-0.245-1.169-0.588-1.495-0.816
		l-0.238-0.166c-0.604-0.44-1.121-0.958-1.448-1.315c-0.487-0.559-0.747-0.925-1.011-1.339c-0.116-0.172-0.227-0.365-0.335-0.56
		l-0.062-0.113c-0.285-0.507-0.463-1-0.551-1.518l-0.334-1.55c-0.053-0.236-0.103-0.472-0.134-0.72l-0.023-0.18v-25.966
		c0-0.255,0.019-0.488,0.046-0.706c-0.014-0.215-0.022-0.43-0.022-0.649c0-0.073,0.012-0.142,0.013-0.214
		c-8.728-21.399-14.439-30.469-23.865-30.469c-6.366,0-11.441,2.362-14.291,6.652c-3.14,4.724-3.13,10.932,0.028,18.453l2.07,4.93
		c0.96,2.694,5.141,14.431,9.323,26.169c2.382,6.687,4.764,13.374,6.551,18.389c0.893,2.508,1.638,4.598,2.158,6.061
		c0.034,0.091,0.065,0.18,0.096,0.267l0.186,0.482l0.045,0.103c0.076,0.164,0.151,0.325,0.225,0.483
		c0.227,0.45,0.405,0.759,0.589,1.053c0.364,0.584,0.69,1.03,0.978,1.382c0.28,0.355,0.511,0.613,0.674,0.782
		c0.162,0.17,0.245,0.257,0.245,0.257c1.574,1.668,3.871,2.901,5.996,3.255c0.428,0.076,10.61,0.124,21.26,0.152
		C574.014,178.014,573.481,177.437,573.058,176.764 M637.874,215.594l-11.346-22.3l-11.596-27.721
		c0.007,0.023,0.013,0.039,0.02,0.06c-0.084-0.215-0.171-0.429-0.272-0.634c-0.205-0.4-0.394-0.691-0.625-1.021l-0.172-0.232
		l-0.131-0.159l-0.272-0.311l-0.285-0.299l-0.233-0.219l-0.466-0.402l-0.39-0.293c-0.282-0.209-0.476-0.323-0.718-0.476
		c-0.882-0.531-1.576-0.831-2.307-1.118c-0.377-0.145-0.695-0.256-1.157-0.397c-0.064-0.018-0.129-0.034-0.193-0.052l1.514,6.896
		c0.052,0.237,0.082,0.472,0.102,0.706l0.976,4.388c0.799,3.595-1.475,7.17-5.07,7.969l-3.736,0.831
		c-0.428,0.095-0.865,0.141-1.302,0.151l21.743,42.732c1.116,2.191,2.679,4.367,4.963,5.151c2.309,0.711,4.854-0.128,7.045-1.242
		v-0.001c1.24-0.518,2.485-1.228,3.306-2.241c0.819-0.774,1.484-1.668,1.846-2.722C639.828,220.33,638.99,217.785,637.874,215.594
		 M573.237,110.067c2.367,0.001,4.917-0.391,6.587-2.008c1.619-1.67,2.01-4.22,2.01-6.588c0-2.367-0.39-4.917-2.008-6.587
		c-1.671-1.619-4.221-2.01-6.588-2.011c-2.368,0-4.918,0.391-6.588,2.01c-1.617,1.669-2.01,4.22-2.01,6.587s0.392,4.918,2.009,6.588
		C568.319,109.676,570.869,110.067,573.237,110.067 M573.237,110.068c2.367,0,4.917-0.392,6.587-2.009
		c1.619-1.67,2.01-4.22,2.01-6.588c0-2.367-0.39-4.917-2.008-6.587c-1.671-1.619-4.221-2.01-6.588-2.011
		c-2.367,0-4.918,0.392-6.588,2.01c-1.617,1.669-2.01,4.22-2.01,6.587s0.392,4.918,2.009,6.588
		C568.319,109.676,570.869,110.067,573.237,110.068 M607.556,172.625l-1.018-4.578c-0.013-0.174-0.022-0.347-0.06-0.523
		c0,0-0.971-4.416-2.426-11.041c-0.389-1.766-0.808-3.679-1.254-5.703c-0.208-0.949-0.42-1.911-0.634-2.884
		c-0.307-0.889-0.566-1.89-1.109-2.502c-0.243-0.35-0.465-0.714-0.786-0.999c-0.322-0.309-0.701-0.624-1.083-0.86
		c-0.399-0.236-0.715-0.427-1.153-0.576c-0.401-0.171-0.851-0.3-1.332-0.397c-0.974-0.19-2.091-0.087-3.155-0.115h-2.545h-3.306
		h-5.236v-13.409c0.449,0.34,0.9,0.681,1.349,1.021c3.392,2.567,6.783,5.133,10.249,7.756c1.058,0.8,2.329,1.487,3.622,1.329
		c1.288-0.2,2.325-1.207,3.126-2.265c0.801-1.058,1.488-2.331,1.33-3.624c-0.198-1.287-1.205-2.324-2.263-3.125
		c-3.465-2.623-6.857-5.19-10.248-7.756c-3.391-2.566-6.783-5.133-10.249-7.756c-0.609-0.461-1.291-0.878-2.006-1.124
		c-1.219-0.753-2.652-1.195-4.191-1.195c-4.419,0-8.001,3.582-8.001,8.001c0,0.251,0.015,0.498,0.037,0.743
		c-0.032,0.201-0.061,0.402-0.061,0.612v11.304v13.685v0.796c0.031,0.245,0.094,0.469,0.141,0.705
		c0.1,0.466,0.201,0.935,0.302,1.405c0.035,0.25,0.122,0.45,0.225,0.63c0.099,0.177,0.195,0.368,0.303,0.522
		c0.217,0.342,0.397,0.595,0.735,0.984c0.316,0.346,0.684,0.69,1.025,0.938c0.349,0.235,0.615,0.459,1.06,0.619
		c0.422,0.159,0.786,0.377,1.258,0.488l1.539,0.216c2.405,0.005,4.841,0.009,7.283,0.013l-2.986,13.305
		c-0.061,0.274-0.087,0.547-0.089,0.817l-0.98,4.274c-0.474,2.07,0.819,4.132,2.89,4.606l3.729,0.854
		c2.071,0.475,4.132-0.819,4.607-2.889l2.036-8.891c0.069-0.303,0.09-0.603,0.087-0.9l2.5-11.138
		c0.003-0.012,0.002-0.023,0.004-0.035h0.885c0.402,1.827,0.776,3.531,1.097,4.992c0.545,2.481,1.023,4.653,1.406,6.399
		c0.011,0.216,0.029,0.433,0.077,0.651l2.028,9.12c0.461,2.072,2.514,3.378,4.588,2.918l3.735-0.831
		C606.71,176.751,608.017,174.698,607.556,172.625"/>
</g>
</svg>
