<?xml version="1.0" encoding="utf-8"?>
<!-- Generator: Adobe Illustrator 25.4.1, SVG Export Plug-In . SVG Version: 6.00 Build 0)  -->
<svg version="1.1" id="Layer_1" xmlns="http://www.w3.org/2000/svg" xmlns:xlink="http://www.w3.org/1999/xlink" x="0px" y="0px"
	 viewBox="0 0 402.52 283.464" enable-background="new 0 0 402.52 283.464" xml:space="preserve">
<g>
	<path fill="#006FB6" d="M338.74,283.464H63.779C28.554,283.464,0,254.909,0,219.684V63.779C0,28.555,28.554,0,63.779,0H338.74
		c35.225,0,63.779,28.555,63.779,63.779v155.905C402.519,254.909,373.965,283.464,338.74,283.464"/>
	<path fill="#FFFFFF" d="M300.551,188.685v3.878c0,2.123-1.72,3.844-3.843,3.844h-22.996h-23.572
		c-2.232,0.001-4.502,0.001-6.8,0.002c-2.208-0.016-4.412-0.609-6.226-1.877c-0.892-0.645-1.723-1.393-2.377-2.292
		c-0.354-0.431-0.627-0.916-0.893-1.408c-0.296-0.474-0.51-0.996-0.711-1.526c-1.647-4.275-3.321-8.618-4.994-12.961
		c-13.231-34.332-26.462-68.665-26.462-68.665c-0.763-1.981,0.224-4.206,2.205-4.969l3.618-1.394
		c1.981-0.763,4.206,0.223,4.968,2.204c0,0,13.232,34.333,26.462,68.665c1.635,4.241,3.269,8.481,4.877,12.656v-0.003
		c2.14,0.001,4.254,0.002,6.333,0.003h23.572h22.996C298.832,184.842,300.551,186.562,300.551,188.685 M286.742,80.923
		c4.682,0.001,9.727-0.773,13.032-3.974c3.201-3.302,3.977-8.348,3.977-13.032c0.001-4.683-0.774-9.729-3.975-13.032
		c-3.304-3.202-8.349-3.977-13.031-3.977c-4.683-0.001-9.73,0.773-13.033,3.975c-3.202,3.303-3.976,8.348-3.977,13.031
		c0,4.684,0.774,9.73,3.975,13.033C277.013,80.148,282.06,80.923,286.742,80.923 M336.096,122.333h-2.566h-2.567h-16.4
		l-16.543-26.815c-4.954-8.781-11.239-11.359-15.65-11.971c-4.541-0.63-9.13,0.621-11.695,3.186
		c-1.887,1.888-4.391,5.585-5.307,7.079c-10.261,16.735-29.066,59.587-18.098,77.909c2.129,3.557,5.316,5.674,8.856,6.336
		c0.816,0.153,1.696,0.138,1.696,0.138l43.53,0.041c0.23,0.605,0.497,1.197,0.786,1.765l21.939,43.115
		c1.115,2.191,2.679,4.368,4.963,5.151c2.308,0.712,4.853-0.127,7.045-1.242c1.239-0.519,2.483-1.228,3.305-2.242
		c0.819-0.773,1.485-1.667,1.846-2.721c0.711-2.308-0.128-4.853-1.243-7.045l-11.347-22.299l-11.596-27.721l-0.001-0.001
		c0.009,0.026,0.015,0.044,0.023,0.068c-0.04-0.103-0.076-0.208-0.12-0.309c-0.193-0.444-0.33-0.663-0.49-0.924
		c-0.155-0.245-0.354-0.53-0.504-0.716c-0.136-0.166-0.278-0.328-0.424-0.485c-0.572-0.604-1-0.919-1.4-1.208
		c-0.777-0.541-1.377-0.842-1.962-1.119c-0.583-0.269-1.125-0.481-1.711-0.676c-0.645-0.216-1.405-0.411-2.123-0.512l-4.537-0.585
		l-8.798-1.134l-17.596-2.268c-0.669-0.086-1.363-0.13-2.043-0.096c-0.283-8.348,5.047-25.143,15.428-44.021l13.705,22.216
		c1.301,2.109,3.602,3.393,6.08,3.393h22.953v-0.001h2.566c1.967,0,4.084-0.325,5.471-1.669c1.345-1.388,1.67-3.507,1.67-5.474
		c0-1.967-0.325-4.086-1.67-5.473C340.181,122.659,338.064,122.333,336.096,122.333 M352.362,127.116l-0.006-0.176l-0.026-0.353
		c-0.025-0.234-0.064-0.467-0.122-0.691c-0.118-0.448-0.315-0.862-0.633-1.19c-0.654-0.635-1.655-0.788-2.584-0.788
		c-0.929,0-1.93,0.153-2.585,0.788c-0.317,0.328-0.515,0.742-0.633,1.19c-0.058,0.224-0.098,0.457-0.122,0.691l-0.025,0.353
		l-0.007,0.176c0,15.924-0.001,31.8-0.001,47.599s0.001,31.675,0.001,47.6l0.007,0.176l0.025,0.352
		c0.024,0.235,0.064,0.467,0.122,0.691c0.118,0.449,0.316,0.863,0.633,1.19c0.655,0.635,1.656,0.789,2.585,0.789
		c0.929,0,1.93-0.154,2.584-0.789c0.318-0.327,0.515-0.741,0.633-1.19c0.058-0.224,0.097-0.456,0.122-0.691l0.026-0.352l0.006-0.176
		c0.001-15.925,0.001-31.801,0.002-47.6C352.362,158.916,352.362,143.04,352.362,127.116"/>
	<path fill="#FFFFFF" d="M77.367,82.346c-3.2-3.303-3.975-8.349-3.975-13.033c0-4.683,0.775-9.728,3.975-13.032
		c3.303-3.201,8.35-3.976,13.033-3.976s9.727,0.775,13.031,3.976c3.202,3.304,3.977,8.349,3.977,13.032
		c0,4.684-0.775,9.73-3.977,13.033c-3.304,3.2-8.348,3.975-13.031,3.975S80.67,85.546,77.367,82.346 M146.499,185.425h-22.996
		H99.932c-2.08-0.001-4.193-0.001-6.333-0.002v0.002c-1.609-4.174-3.243-8.414-4.877-12.655
		c-13.231-34.332-26.461-68.665-26.461-68.665c-0.764-1.981-2.989-2.968-4.969-2.205l-3.619,1.395
		c-1.981,0.763-2.968,2.988-2.204,4.969c0,0,13.231,34.332,26.462,68.665c1.673,4.343,3.347,8.686,4.995,12.961
		c0.2,0.529,0.414,1.052,0.71,1.525c0.265,0.493,0.54,0.978,0.892,1.409c0.655,0.899,1.486,1.647,2.377,2.292
		c1.815,1.267,4.019,1.861,6.227,1.877c2.298-0.001,4.567-0.002,6.8-0.003h23.571h22.996c2.123,0,3.844-1.72,3.844-3.843v-3.878
		C150.343,187.146,148.622,185.425,146.499,185.425 M189.785,215.601L178.437,193.3l-11.595-27.72
		c0.006,0.023,0.012,0.039,0.019,0.06c-0.083-0.215-0.171-0.429-0.271-0.634c-0.205-0.4-0.394-0.691-0.625-1.021l-0.171-0.232
		l-0.132-0.159l-0.273-0.311l-0.284-0.299l-0.233-0.219l-0.466-0.402l-0.391-0.293c-0.282-0.209-0.475-0.323-0.716-0.476
		c-0.883-0.531-1.577-0.831-2.308-1.118c-0.376-0.145-0.695-0.255-1.157-0.396c-0.46-0.134-0.917-0.254-1.387-0.329
		c-0.208-0.044-0.525-0.078-0.648-0.095l-0.353-0.045l-0.705-0.091l-5.02-0.647c-0.397-0.258-0.639-0.72-0.576-1.219
		c0.022-0.174,0.093-0.313,0.176-0.456c0.804-2.363,1.398-4.824,1.723-7.399c2.605-20.591-11.98-39.399-32.569-42.004
		c-2.834-0.359-5.635-0.392-8.364-0.126l-1.184,0.143c-1.041-0.131-1.846-0.869-2.111-1.818l-0.086,0.022
		c-6.036-11.044-11.41-16.392-18.33-16.392c-6.365,0-11.44,2.362-14.292,6.652c-3.139,4.723-3.13,10.932,0.029,18.452
		c0,0,19.582,54.087,20.102,55.55c0.033,0.091,0.065,0.18,0.096,0.267l0.185,0.481l0.045,0.104c0.077,0.164,0.153,0.325,0.226,0.484
		c0.226,0.449,0.406,0.758,0.589,1.052c0.364,0.584,0.69,1.03,0.977,1.382c0.281,0.355,0.512,0.614,0.675,0.782
		c0.161,0.17,0.244,0.257,0.244,0.257c1.574,1.668,3.871,2.901,5.996,3.256c0.909,0.16,1.672,0.224,2.533,0.224l43.24-0.03
		c0.25,0.703,0.552,1.392,0.886,2.048l21.937,43.115c1.115,2.191,2.679,4.367,4.964,5.151c2.307,0.712,4.852-0.127,7.044-1.242
		v-0.001c1.24-0.518,2.484-1.227,3.305-2.241c0.82-0.774,1.485-1.668,1.846-2.722C191.739,220.337,190.9,217.792,189.785,215.601"/>
</g>
</svg>
