<?xml version="1.0" encoding="utf-8"?>
<!-- Generator: Adobe Illustrator 25.4.1, SVG Export Plug-In . SVG Version: 6.00 Build 0)  -->
<svg version="1.1" id="Layer_1" xmlns="http://www.w3.org/2000/svg" xmlns:xlink="http://www.w3.org/1999/xlink" x="0px" y="0px"
	 viewBox="0 0 850.394 326.268" enable-background="new 0 0 850.394 326.268" xml:space="preserve">
<g>
	<path fill="#006FB6" d="M786.614,326.268H63.78C28.555,326.268,0,297.713,0,262.489V63.78C0,28.555,28.555,0,63.78,0h722.834
		c35.225,0,63.78,28.555,63.78,63.78v198.709C850.394,297.713,821.839,326.268,786.614,326.268"/>
	<path fill="#FFFFFF" d="M747.797,188.686v3.878c0,2.123-1.72,3.844-3.843,3.844h-22.996h-23.571
		c-2.233,0.001-4.503,0.001-6.801,0.002c-2.208-0.016-4.412-0.609-6.226-1.877c-0.891-0.645-1.722-1.393-2.377-2.292
		c-0.353-0.431-0.627-0.916-0.893-1.408c-0.296-0.474-0.509-0.996-0.71-1.526c-1.647-4.275-3.321-8.618-4.995-12.961
		c-13.23-34.332-26.462-68.665-26.462-68.665c-0.763-1.981,0.224-4.206,2.205-4.969l3.619-1.394c1.98-0.763,4.205,0.223,4.968,2.204
		c0,0,13.231,34.333,26.462,68.665c1.634,4.241,3.269,8.481,4.877,12.656v-0.003c2.14,0.001,4.254,0.002,6.333,0.003h23.571h22.996
		C746.077,184.843,747.797,186.563,747.797,188.686 M733.988,80.924c4.683,0.001,9.727-0.773,13.032-3.974
		c3.202-3.302,3.978-8.348,3.978-13.032c0-4.683-0.774-9.729-3.976-13.032c-3.304-3.202-8.348-3.977-13.031-3.977
		c-4.683-0.001-9.73,0.773-13.033,3.975c-3.201,3.303-3.976,8.348-3.976,13.031c-0.001,4.684,0.773,9.73,3.974,13.033
		C724.258,80.149,729.305,80.924,733.988,80.924 M783.343,122.334h-2.566h-0.001h-2.566h-16.4l-16.543-26.815
		c-4.954-8.781-11.239-11.359-15.651-11.971c-4.54-0.63-9.129,0.621-11.694,3.186c-1.888,1.888-4.391,5.585-5.307,7.079
		c-10.262,16.735-29.066,59.587-18.099,77.909c2.13,3.557,5.316,5.674,8.856,6.336c0.817,0.153,1.697,0.138,1.697,0.138
		l43.529,0.041c0.23,0.605,0.498,1.197,0.787,1.765l21.939,43.115c1.114,2.191,2.678,4.368,4.963,5.151
		c2.307,0.712,4.852-0.127,7.044-1.242c1.24-0.519,2.483-1.228,3.305-2.242c0.82-0.773,1.485-1.667,1.846-2.721
		c0.712-2.308-0.127-4.853-1.242-7.045l-11.347-22.299l-11.597-27.721v-0.001c0.008,0.026,0.014,0.044,0.022,0.068
		c-0.039-0.103-0.075-0.208-0.119-0.309c-0.194-0.444-0.33-0.663-0.491-0.924c-0.154-0.245-0.353-0.53-0.504-0.716
		c-0.136-0.166-0.277-0.328-0.423-0.485c-0.572-0.604-1.001-0.919-1.4-1.208c-0.777-0.541-1.378-0.842-1.963-1.119
		c-0.582-0.269-1.124-0.481-1.71-0.676c-0.646-0.216-1.406-0.411-2.124-0.512l-4.537-0.585l-8.797-1.134l-17.597-2.268
		c-0.669-0.086-1.362-0.13-2.042-0.096c-0.283-8.348,5.046-25.143,15.428-44.021l13.705,22.216c1.301,2.109,3.602,3.393,6.08,3.393
		h22.953v-0.001h2.566c1.966,0,4.083-0.325,5.47-1.669c1.345-1.388,1.67-3.507,1.67-5.474c0-1.967-0.325-4.086-1.67-5.473
		C787.426,122.66,785.309,122.334,783.343,122.334 M799.607,127.117l-0.006-0.176l-0.025-0.353
		c-0.025-0.234-0.064-0.467-0.123-0.691c-0.117-0.448-0.315-0.862-0.632-1.19c-0.655-0.635-1.656-0.788-2.585-0.788
		s-1.93,0.153-2.585,0.788c-0.317,0.328-0.515,0.742-0.632,1.19c-0.058,0.224-0.098,0.457-0.122,0.691l-0.026,0.353l-0.006,0.176
		c-0.001,15.924-0.001,31.8-0.002,47.599c0.001,15.799,0.001,31.675,0.002,47.6l0.006,0.176l0.026,0.352
		c0.024,0.235,0.064,0.467,0.122,0.691c0.117,0.449,0.315,0.863,0.632,1.19c0.655,0.635,1.656,0.789,2.585,0.789
		s1.93-0.154,2.585-0.789c0.317-0.327,0.515-0.741,0.632-1.19c0.059-0.224,0.098-0.456,0.123-0.691l0.025-0.352l0.006-0.176
		c0.001-15.925,0.002-31.801,0.002-47.6S799.608,143.041,799.607,127.117"/>
	<path fill="#FFFFFF" d="M376.255,82.347c-3.2-3.303-3.976-8.349-3.976-13.033c0-4.683,0.776-9.728,3.976-13.032
		c3.303-3.201,8.35-3.976,13.032-3.976c4.684,0,9.728,0.775,13.032,3.976c3.202,3.304,3.976,8.349,3.976,13.032
		c0,4.684-0.774,9.73-3.976,13.033c-3.304,3.2-8.348,3.975-13.032,3.975C384.605,86.322,379.558,85.547,376.255,82.347
		 M445.387,185.426h-22.996h-23.572c-2.079-0.001-4.192-0.001-6.332-0.002v0.002c-1.609-4.174-3.243-8.414-4.877-12.655
		c-13.231-34.332-26.461-68.665-26.461-68.665c-0.764-1.981-2.989-2.968-4.969-2.205l-3.619,1.395
		c-1.981,0.763-2.968,2.988-2.204,4.969c0,0,13.23,34.332,26.462,68.665c1.673,4.343,3.346,8.686,4.994,12.961
		c0.2,0.529,0.415,1.052,0.711,1.525c0.265,0.493,0.54,0.978,0.892,1.409c0.655,0.899,1.486,1.647,2.377,2.292
		c1.815,1.267,4.019,1.861,6.227,1.877c2.298-0.001,4.567-0.002,6.799-0.003h23.572h22.996c2.123,0,3.844-1.72,3.844-3.843v-3.878
		C449.231,187.147,447.51,185.426,445.387,185.426 M488.673,215.602l-11.348-22.301l-11.595-27.72
		c0.006,0.023,0.012,0.039,0.019,0.06c-0.083-0.215-0.171-0.429-0.271-0.634c-0.205-0.4-0.394-0.691-0.625-1.021l-0.172-0.232
		l-0.131-0.159l-0.273-0.311l-0.284-0.299l-0.233-0.219l-0.466-0.402l-0.391-0.293c-0.282-0.209-0.475-0.323-0.717-0.476
		c-0.882-0.531-1.576-0.831-2.307-1.118c-0.377-0.145-0.695-0.255-1.157-0.396c-0.46-0.134-0.917-0.254-1.387-0.329
		c-0.208-0.044-0.525-0.078-0.648-0.095l-0.353-0.045l-0.705-0.091l-5.02-0.647c-0.397-0.258-0.639-0.72-0.576-1.219
		c0.022-0.174,0.093-0.313,0.176-0.456c0.804-2.363,1.398-4.824,1.723-7.399c2.605-20.591-11.98-39.399-32.569-42.004
		c-2.834-0.359-5.635-0.392-8.364-0.126l-1.184,0.143c-1.041-0.131-1.846-0.869-2.111-1.818l-0.086,0.022
		c-6.036-11.044-11.41-16.392-18.331-16.392c-6.365,0-11.44,2.362-14.291,6.652c-3.139,4.723-3.131,10.932,0.029,18.452
		c0,0,19.582,54.087,20.102,55.55c0.033,0.091,0.065,0.18,0.096,0.267l0.185,0.481l0.045,0.104c0.076,0.164,0.152,0.325,0.226,0.484
		c0.226,0.449,0.406,0.758,0.589,1.052c0.364,0.584,0.69,1.03,0.977,1.382c0.281,0.355,0.512,0.614,0.675,0.782
		c0.161,0.17,0.244,0.257,0.244,0.257c1.574,1.668,3.871,2.901,5.996,3.256c0.909,0.16,1.672,0.224,2.533,0.224l43.24-0.03
		c0.25,0.703,0.552,1.392,0.886,2.048l21.937,43.115c1.115,2.191,2.679,4.367,4.963,5.151c2.308,0.712,4.853-0.127,7.045-1.242
		v-0.001c1.24-0.518,2.484-1.227,3.305-2.241c0.82-0.774,1.485-1.668,1.846-2.722C490.627,220.338,489.787,217.793,488.673,215.602"
		/>
	<path fill="#FFFFFF" d="M77.479,82.056c-3.201-3.303-3.976-8.349-3.976-13.033c0-4.683,0.775-9.729,3.976-13.032
		c3.303-3.201,8.349-3.976,13.032-3.976c4.684,0,9.728,0.775,13.032,3.976c3.201,3.303,3.976,8.349,3.976,13.032
		c0,4.684-0.775,9.73-3.976,13.033c-3.304,3.2-8.348,3.975-13.032,3.975C85.828,86.031,80.782,85.256,77.479,82.056
		 M146.611,185.135h-22.996h-23.572c-2.079-0.001-4.192-0.002-6.332-0.002l-0.001,0.002c-1.608-4.174-3.242-8.414-4.876-12.655
		c-13.231-34.332-26.462-68.665-26.462-68.665c-0.763-1.981-2.988-2.968-4.969-2.205l-3.618,1.395
		c-1.981,0.763-2.968,2.988-2.205,4.969c0,0,13.231,34.332,26.462,68.665c1.674,4.343,3.347,8.686,4.994,12.961
		c0.201,0.529,0.415,1.051,0.711,1.526c0.266,0.492,0.54,0.977,0.893,1.408c0.655,0.899,1.486,1.647,2.377,2.291
		c1.814,1.268,4.018,1.862,6.226,1.878c2.298-0.001,4.568-0.002,6.8-0.003h23.572h22.996c2.123,0,3.843-1.72,3.843-3.843v-3.878
		C150.454,186.856,148.734,185.135,146.611,185.135 M209.403,224.316c-0.026-0.23-0.073-0.461-0.134-0.689l-0.103-0.338
		l-0.057-0.167c-5.807-15.079-11.596-30.112-17.357-45.073s-11.551-29.993-17.359-45.072l-0.069-0.162l-0.151-0.32
		c-0.107-0.21-0.227-0.413-0.363-0.601c-0.271-0.376-0.604-0.692-1.018-0.883c-0.839-0.357-1.828-0.141-2.695,0.193
		c-0.866,0.334-1.745,0.837-2.129,1.665c-0.178,0.419-0.213,0.877-0.162,1.337c0.025,0.231,0.073,0.462,0.135,0.689l0.102,0.339
		l0.058,0.166c5.806,15.08,11.595,30.113,17.355,45.073c5.763,14.961,11.552,29.993,17.36,45.072l0.069,0.163l0.151,0.319
		c0.107,0.21,0.227,0.413,0.363,0.601c0.27,0.376,0.603,0.692,1.017,0.883c0.84,0.358,1.828,0.141,2.696-0.193
		c0.867-0.334,1.745-0.836,2.129-1.664C209.419,225.234,209.454,224.777,209.403,224.316 M178.221,192.225l-2.425-5.796
		c-1.74,1.314-3.486,2.631-5.219,3.939c-3.168,2.389-6.351,4.79-9.544,7.198l-0.145,0.102l-0.005,0.003l2.808,5.517
		c3.044-2.298,6.081-4.589,9.101-6.869C174.594,194.96,176.41,193.591,178.221,192.225 M189.897,215.311l-2.715-5.335
		c-2.313,1.745-4.626,3.491-6.925,5.225c-2.508,1.891-5.031,3.794-7.555,5.698l1.278,2.511c1.115,2.191,2.679,4.367,4.963,5.151
		c2.308,0.712,4.853-0.128,7.045-1.243c1.24-0.518,2.484-1.228,3.305-2.242c0.82-0.773,1.485-1.667,1.846-2.72
		C191.85,220.047,191.011,217.502,189.897,215.311 M184.076,203.872l-2.8-5.503c-1.474,1.112-2.953,2.228-4.42,3.336
		c-3.168,2.389-6.352,4.79-9.545,7.198l-0.145,0.101l-0.297,0.191c-0.031,0.019-0.065,0.031-0.096,0.05l2.823,5.549
		c2.203-1.662,4.408-3.326,6.599-4.979C178.81,207.842,181.442,205.858,184.076,203.872 M166.514,184.982
		c2.189-1.651,4.394-3.313,6.596-4.974l-6.157-14.718c0.007,0.022,0.012,0.038,0.02,0.06c-0.084-0.215-0.171-0.429-0.272-0.634
		c-0.205-0.4-0.393-0.691-0.624-1.021l-0.172-0.233l-0.131-0.158l-0.273-0.311l-0.284-0.3l-0.233-0.218l-0.466-0.402l-0.391-0.293
		c-0.282-0.209-0.475-0.323-0.717-0.476c-0.882-0.53-1.577-0.831-2.307-1.118c-0.377-0.145-0.695-0.256-1.157-0.396
		c-0.46-0.134-0.917-0.254-1.387-0.329c-0.208-0.044-0.526-0.078-0.649-0.095l-0.352-0.046l-0.705-0.09l-5.645-0.728l-11.288-1.455
		l-11.287-1.455l-4.707-0.606l-6.837-18.407l19.567,2.166c0.554,0.123,1.119,0.21,1.675,0.265c2.167,0.213,4.298,0.422,6.422,0.631
		l7.053,0.78l0.009-0.086c1.481,0.145,2.97,0.292,4.475,0.439c1.956,0.192,4.096,0.076,5.608-1.126
		c1.473-1.249,2.004-3.327,2.196-5.284c0.192-1.958,0.076-4.099-1.126-5.611c-1.249-1.473-3.324-2.004-5.281-2.197
		c-3.036-0.298-6.008-0.59-8.979-0.882c-0.832-0.082-1.667-0.164-2.5-0.246l-29.475-3.262c-9.787-22.223-16.47-32.832-26.222-32.832
		c-6.365,0-11.44,2.362-14.291,6.651c-3.14,4.725-3.13,10.933,0.028,18.454c0,0,19.582,54.086,20.103,55.549
		c0.033,0.091,0.064,0.18,0.096,0.266l0.185,0.482l0.045,0.104c0.076,0.163,0.151,0.325,0.226,0.483
		c0.226,0.45,0.405,0.759,0.589,1.053c0.364,0.584,0.689,1.03,0.977,1.382c0.28,0.355,0.512,0.614,0.675,0.782
		c0.161,0.17,0.244,0.257,0.244,0.257c1.574,1.668,3.871,2.901,5.995,3.256c0.909,0.16,1.717,0.082,2.536,0.082l43.238,0.111
		c0.25,0.704,0.551,1.393,0.885,2.049l5.739,11.278C160.701,189.369,163.616,187.17,166.514,184.982"/>
	<path fill="#FFFFFF" d="M226.547,81.771c-3.2-3.303-3.976-8.348-3.976-13.032c0-4.683,0.776-9.729,3.976-13.032
		c3.302-3.202,8.349-3.976,13.032-3.976c4.684,0,9.728,0.774,13.032,3.976c3.201,3.303,3.976,8.349,3.976,13.032
		c0,4.684-0.775,9.729-3.976,13.032c-3.304,3.201-8.348,3.975-13.032,3.975C234.896,85.746,229.849,84.972,226.547,81.771
		 M295.679,184.85h-22.997h-23.57c-2.079,0-4.193-0.001-6.333-0.002v0.002c-1.608-4.173-3.243-8.414-4.877-12.654
		c-13.231-34.333-26.462-68.666-26.462-68.666c-0.763-1.98-2.988-2.968-4.968-2.204l-3.62,1.395
		c-1.98,0.763-2.967,2.987-2.204,4.968c0,0,13.232,34.333,26.462,68.665c1.674,4.343,3.348,8.686,4.995,12.961
		c0.201,0.53,0.414,1.052,0.71,1.526c0.266,0.492,0.54,0.978,0.893,1.408c0.655,0.899,1.486,1.647,2.377,2.292
		c1.814,1.267,4.018,1.861,6.226,1.877c2.298-0.001,4.568-0.001,6.801-0.002h23.57h22.997c2.123,0,3.844-1.721,3.844-3.844v-3.878
		C299.523,186.572,297.802,184.85,295.679,184.85 M327.617,192.726l-11.596-27.72c0.007,0.022,0.012,0.038,0.02,0.059
		c-0.084-0.215-0.171-0.429-0.272-0.634c-0.205-0.4-0.393-0.69-0.625-1.02l-0.17-0.233l-0.132-0.159l-0.273-0.311l-0.284-0.299
		l-0.233-0.219l-0.466-0.402l-0.391-0.293c-0.282-0.208-0.475-0.322-0.717-0.476c-0.882-0.53-1.577-0.83-2.307-1.118
		c-0.376-0.145-0.696-0.255-1.157-0.396c-0.46-0.133-0.917-0.253-1.387-0.328c-0.208-0.044-0.526-0.079-0.648-0.096l-0.353-0.045
		l-0.705-0.091l-5.644-0.727l-11.288-1.455l-11.288-1.455l-4.708-0.607l-6.836-18.407l19.569,2.166
		c0.553,0.124,1.118,0.211,1.673,0.265c2.165,0.213,4.294,0.422,6.416,0.631l7.058,0.781l0.01-0.087
		c1.481,0.146,2.97,0.292,4.475,0.44c1.957,0.192,4.096,0.075,5.608-1.127c1.473-1.249,2.005-3.327,2.197-5.284
		c0.192-1.958,0.075-4.098-1.127-5.61c-1.249-1.474-3.324-2.004-5.28-2.197c-3.037-0.299-6.008-0.591-8.98-0.882
		c-0.833-0.082-1.67-0.165-2.504-0.247l-29.471-3.262C256.013,99.659,249.33,89.05,239.58,89.05c-6.365,0-11.44,2.361-14.292,6.651
		c-3.14,4.724-3.13,10.932,0.028,18.453l2.073,4.935c0.963,2.705,5.141,14.434,9.321,26.165c2.382,6.687,4.764,13.374,6.551,18.389
		c0.893,2.508,1.637,4.598,2.159,6.06c0.032,0.092,0.063,0.181,0.095,0.267l0.185,0.482l0.046,0.104
		c0.076,0.163,0.151,0.324,0.225,0.483c0.226,0.449,0.406,0.759,0.588,1.053c0.365,0.584,0.691,1.029,0.978,1.381
		c0.28,0.355,0.512,0.614,0.675,0.783c0.161,0.169,0.245,0.257,0.245,0.257c1.573,1.668,3.87,2.9,5.995,3.255
		c0.91,0.161,1.764,0.174,2.538,0.082l43.234,0.112c0.25,0.703,0.552,1.392,0.886,2.048l21.939,43.115
		c1.114,2.191,2.677,4.368,4.963,5.151c2.307,0.712,4.852-0.127,7.044-1.242c1.24-0.519,2.483-1.228,3.305-2.242
		c0.819-0.773,1.485-1.668,1.846-2.721c0.712-2.308-0.127-4.853-1.242-7.045L327.617,192.726z M354.745,214.408
		c-4.843-12.649-9.675-25.272-14.484-37.836c-5.808-15.169-11.645-30.411-17.498-45.7l-0.069-0.162l-0.15-0.32
		c-0.107-0.21-0.227-0.414-0.362-0.602c-0.27-0.376-0.602-0.692-1.016-0.885c-0.839-0.359-1.828-0.144-2.695,0.188
		c-0.868,0.332-1.747,0.833-2.132,1.66c-0.18,0.42-0.216,0.877-0.165,1.338c0.024,0.23,0.071,0.461,0.133,0.689l0.101,0.339
		l0.058,0.167c5.852,15.289,11.687,30.531,17.494,45.7c4.841,12.641,9.704,25.342,14.577,38.07
		c-0.914,1.151-1.486,2.589-1.538,4.171c-0.127,3.912,2.941,7.186,6.853,7.313c3.913,0.127,7.186-2.942,7.313-6.853
		C361.287,217.919,358.446,214.753,354.745,214.408"/>
	<path fill="#FFFFFF" d="M551.522,56.275c3.201,3.304,3.975,8.349,3.975,13.032c0,4.684-0.774,9.73-3.975,13.033
		c-3.305,3.2-8.349,3.975-13.032,3.975s-9.73-0.775-13.033-3.975c-3.201-3.303-3.975-8.349-3.975-13.033
		c0-4.683,0.774-9.728,3.975-13.032c3.303-3.201,8.35-3.976,13.033-3.976S548.217,53.074,551.522,56.275 M598.433,193.141v-3.878
		c0-2.123-1.721-3.844-3.844-3.844h-22.996h-23.571c-2.079-0.001-4.193-0.001-6.332-0.002v0.002
		c-1.61-4.174-3.243-8.415-4.877-12.655c-13.232-34.332-26.462-68.665-26.462-68.665c-0.764-1.981-2.988-2.968-4.969-2.204
		l-3.619,1.394c-1.98,0.763-2.968,2.988-2.204,4.969c0,0,13.23,34.332,26.462,68.665c1.674,4.343,3.347,8.685,4.994,12.96
		c0.2,0.53,0.415,1.053,0.711,1.526c0.266,0.493,0.54,0.978,0.892,1.409c0.656,0.899,1.487,1.647,2.377,2.291
		c1.815,1.268,4.019,1.862,6.227,1.878c2.298-0.001,4.567-0.002,6.8-0.003h23.571h22.996
		C596.712,196.984,598.433,195.264,598.433,193.141 M593.548,175.74l-2.028-9.119c-0.071-0.323-0.106-0.619-0.125-0.867
		l-0.153-0.699l-0.094,0.419c-0.016,0.421-0.067,0.814-0.154,1.196l-2.038,8.892c-0.258,1.132-0.792,2.136-1.517,2.954
		c2.909,0.004,5.499,0.008,7.497,0.01C594.277,177.732,593.782,176.791,593.548,175.74 M573.058,176.765
		c-0.948-1.512-1.251-3.302-0.852-5.041l0.919-4.011c0.021-0.367,0.071-0.726,0.148-1.069l2.211-9.855l-3.945-0.007l-1.858-0.261
		l-0.123-0.029c-0.57-0.134-1.014-0.332-1.338-0.476c-0.089-0.04-0.178-0.082-0.271-0.117c-0.68-0.245-1.169-0.588-1.495-0.816
		l-0.238-0.166c-0.604-0.44-1.121-0.958-1.448-1.315c-0.487-0.559-0.747-0.925-1.011-1.339c-0.116-0.172-0.227-0.365-0.335-0.56
		l-0.062-0.113c-0.285-0.507-0.463-1-0.551-1.518l-0.334-1.55c-0.053-0.236-0.103-0.472-0.134-0.72l-0.023-0.18v-25.966
		c0-0.255,0.019-0.488,0.046-0.706c-0.014-0.215-0.022-0.43-0.022-0.649c0-0.073,0.012-0.142,0.013-0.214
		c-8.728-21.399-14.439-30.469-23.865-30.469c-6.366,0-11.441,2.362-14.291,6.652c-3.14,4.724-3.13,10.932,0.028,18.453l2.07,4.93
		c0.96,2.694,5.141,14.431,9.323,26.169c2.382,6.687,4.764,13.374,6.551,18.389c0.893,2.508,1.638,4.598,2.158,6.061
		c0.034,0.091,0.065,0.18,0.096,0.267l0.186,0.482l0.045,0.103c0.076,0.164,0.151,0.325,0.225,0.483
		c0.227,0.45,0.405,0.759,0.589,1.053c0.364,0.584,0.69,1.03,0.978,1.382c0.28,0.355,0.511,0.613,0.674,0.782
		c0.162,0.17,0.245,0.257,0.245,0.257c1.574,1.668,3.871,2.901,5.996,3.255c0.428,0.076,10.61,0.124,21.26,0.152
		C574.014,178.015,573.481,177.438,573.058,176.765 M637.874,215.595l-11.346-22.3l-11.596-27.721
		c0.007,0.023,0.013,0.039,0.02,0.06c-0.084-0.215-0.171-0.429-0.272-0.634c-0.205-0.4-0.394-0.691-0.625-1.021l-0.172-0.232
		l-0.131-0.159l-0.272-0.311l-0.285-0.299l-0.233-0.219l-0.466-0.402l-0.39-0.293c-0.282-0.209-0.476-0.323-0.718-0.476
		c-0.882-0.531-1.576-0.831-2.307-1.118c-0.377-0.145-0.695-0.256-1.157-0.397c-0.064-0.018-0.129-0.034-0.193-0.052l1.514,6.896
		c0.052,0.237,0.082,0.472,0.102,0.706l0.976,4.388c0.799,3.595-1.475,7.17-5.07,7.969l-3.736,0.831
		c-0.428,0.095-0.865,0.141-1.302,0.151l21.743,42.732c1.116,2.191,2.679,4.367,4.963,5.151c2.309,0.711,4.854-0.128,7.045-1.242
		v-0.001c1.24-0.518,2.485-1.228,3.306-2.241c0.819-0.774,1.484-1.668,1.846-2.722C639.828,220.331,638.99,217.786,637.874,215.595
		 M573.237,110.068c2.367,0.001,4.917-0.391,6.587-2.008c1.619-1.67,2.01-4.22,2.01-6.588c0-2.367-0.39-4.917-2.008-6.587
		c-1.671-1.619-4.221-2.01-6.588-2.011c-2.368,0-4.918,0.391-6.588,2.01c-1.617,1.669-2.01,4.22-2.01,6.587s0.392,4.918,2.009,6.588
		C568.319,109.677,570.869,110.068,573.237,110.068 M573.237,110.069c2.367,0,4.917-0.392,6.587-2.009
		c1.619-1.67,2.01-4.22,2.01-6.588c0-2.367-0.39-4.917-2.008-6.587c-1.671-1.619-4.221-2.01-6.588-2.011
		c-2.367,0-4.918,0.392-6.588,2.01c-1.617,1.669-2.01,4.22-2.01,6.587s0.392,4.918,2.009,6.588
		C568.319,109.677,570.869,110.068,573.237,110.069 M607.556,172.626l-1.018-4.578c-0.013-0.174-0.022-0.347-0.06-0.523
		c0,0-0.971-4.416-2.426-11.041c-0.389-1.766-0.808-3.679-1.254-5.703c-0.208-0.949-0.42-1.911-0.634-2.884
		c-0.307-0.889-0.566-1.89-1.109-2.502c-0.243-0.35-0.465-0.714-0.786-0.999c-0.322-0.309-0.701-0.624-1.083-0.86
		c-0.399-0.236-0.715-0.427-1.153-0.576c-0.401-0.171-0.851-0.3-1.332-0.397c-0.974-0.19-2.091-0.087-3.155-0.115h-2.545h-3.306
		h-5.236v-13.409c0.449,0.34,0.9,0.681,1.349,1.021c3.392,2.567,6.783,5.133,10.249,7.756c1.058,0.8,2.329,1.487,3.622,1.329
		c1.288-0.2,2.325-1.207,3.126-2.265c0.801-1.058,1.488-2.331,1.33-3.624c-0.198-1.287-1.205-2.324-2.263-3.125
		c-3.465-2.623-6.857-5.19-10.248-7.756c-3.391-2.566-6.783-5.133-10.249-7.756c-0.609-0.461-1.291-0.878-2.006-1.124
		c-1.219-0.753-2.652-1.195-4.191-1.195c-4.419,0-8.001,3.582-8.001,8.001c0,0.251,0.015,0.498,0.037,0.743
		c-0.032,0.201-0.061,0.402-0.061,0.612v11.304v13.685v0.796c0.031,0.245,0.094,0.469,0.141,0.705
		c0.1,0.466,0.201,0.935,0.302,1.405c0.035,0.25,0.122,0.45,0.225,0.63c0.099,0.177,0.195,0.368,0.303,0.522
		c0.217,0.342,0.397,0.595,0.735,0.984c0.316,0.346,0.684,0.69,1.025,0.938c0.349,0.235,0.615,0.459,1.06,0.619
		c0.422,0.159,0.786,0.377,1.258,0.488l1.539,0.216c2.405,0.005,4.841,0.009,7.283,0.013l-2.986,13.305
		c-0.061,0.274-0.087,0.547-0.089,0.817l-0.98,4.274c-0.474,2.07,0.819,4.132,2.89,4.606l3.729,0.854
		c2.071,0.475,4.132-0.819,4.607-2.889l2.036-8.891c0.069-0.303,0.09-0.603,0.087-0.9l2.5-11.138
		c0.003-0.012,0.002-0.023,0.004-0.035h0.885c0.402,1.827,0.776,3.531,1.097,4.992c0.545,2.481,1.023,4.653,1.406,6.399
		c0.011,0.216,0.029,0.433,0.077,0.651l2.028,9.12c0.461,2.072,2.514,3.378,4.588,2.918l3.735-0.831
		C606.71,176.752,608.017,174.699,607.556,172.626"/>
	<path fill="#FFFFFF" d="M110.329,260.349h8.1l7.245,24.164l7.829-24.164h7.515l3.24,33.929h-6.479l-1.981-23.49l-7.92,23.49h-5.13
		l-7.379-24.39l-2.205,24.39h-6.299L110.329,260.349z M148.714,282.577c0-7.694,4.05-13.274,10.665-13.274
		c7.289,0,10.259,5.04,10.259,14.175l-14.939,0.045c0.495,4.005,2.655,6.03,6.299,6.03c2.925,0,5.625-0.9,8.01-2.655v4.904
		c-2.474,1.98-5.534,2.971-9.224,2.971C152.764,294.773,148.714,290.273,148.714,282.577 M163.609,279.653
		c-0.316-3.825-1.531-5.624-4.23-5.624c-2.7,0-4.32,2.114-4.68,5.624H163.609z M175.174,276.818l-0.9-6.885h5.76l0.584,3.33
		c1.8-2.654,4.005-4.005,6.616-4.005c0.494,0,0.944,0.045,1.304,0.136v5.714c-0.765-0.18-1.53-0.27-2.295-0.27
		c-2.115,0-3.87,0.99-5.219,2.97v16.47h-5.85V276.818z M201.498,294.637c-3.464,0-6.165-1.079-8.189-3.284
		c-2.025-2.16-3.016-5.13-3.016-8.865c0-3.78,1.08-6.93,3.241-9.495c2.115-2.52,4.95-3.78,8.459-3.78
		c2.205,0,4.139,0.405,5.804,1.26v5.355c-1.665-0.945-3.33-1.44-5.039-1.44c-1.934,0-3.465,0.63-4.635,1.891
		c-1.17,1.259-1.755,3.149-1.755,5.624c0,2.52,0.585,4.41,1.8,5.759c1.17,1.306,2.835,1.981,4.949,1.981
		c1.486,0,3.015-0.405,4.635-1.215v4.68c-1.575,1.035-3.689,1.574-6.299,1.574L201.498,294.637z M213.109,259.629h6.119v6.254
		h-6.119V259.629z M213.243,269.933h5.895v24.345h-5.895V269.933z M237.452,291.577c-1.665-2.25-2.474-5.219-2.474-8.864
		c0-4.05,0.989-7.335,2.97-9.765c1.934-2.384,4.409-3.6,7.154-3.6c2.52,0,4.59,0.99,6.03,2.926v-13.005h5.895v35.009h-4.906
		l-0.629-3.375c-2.025,2.7-4.275,3.915-7.47,3.915C241.278,294.818,239.073,293.738,237.452,291.577 M251.132,286.627v-8.864
		c-1.261-2.385-2.925-3.555-4.815-3.555c-1.485,0-2.744,0.675-3.645,2.025c-0.99,1.44-1.44,3.33-1.44,5.895
		c0,2.25,0.405,4.275,1.26,5.715c0.9,1.484,2.16,2.204,3.735,2.204C248.072,290.047,249.782,288.922,251.132,286.627
		 M262.202,282.577c0-7.694,4.05-13.274,10.665-13.274c7.29,0,10.259,5.04,10.259,14.175l-14.939,0.045
		c0.495,4.005,2.655,6.03,6.3,6.03c2.924,0,5.625-0.9,8.009-2.655v4.904c-2.474,1.98-5.534,2.971-9.224,2.971
		C266.252,294.773,262.202,290.273,262.202,282.577 M277.097,279.653c-0.315-3.825-1.53-5.624-4.23-5.624
		c-2.7,0-4.32,2.114-4.68,5.624H277.097z M299.237,276.818l-0.9-6.885h5.76l0.63,3.33c1.979-2.654,4.364-4.005,7.334-4.005
		c2.25,0,4.095,0.721,5.445,2.16c1.305,1.395,1.98,3.555,1.98,6.39v16.47h-5.895v-14.175c0-3.375-0.945-5.489-3.915-5.489
		c-1.755,0-3.284,0.989-4.59,2.924v16.74h-5.849V276.818z M327.451,291.577c-2.025-2.16-3.06-5.129-3.06-9.134
		c0-3.915,1.08-7.02,3.15-9.495c2.071-2.429,4.905-3.69,8.505-3.69c3.42,0,6.119,1.125,8.1,3.33c2.024,2.205,3.014,5.22,3.014,9.27
		c0,3.96-0.99,7.064-3.059,9.45c-2.115,2.385-4.905,3.599-8.505,3.599C332.176,294.907,329.521,293.827,327.451,291.577
		 M339.915,287.843c0.946-1.44,1.441-3.42,1.441-5.805c0-2.385-0.495-4.275-1.441-5.715c-0.944-1.395-2.34-2.07-4.005-2.07
		c-1.664,0-3.059,0.72-4.049,2.07c-1.035,1.485-1.575,3.285-1.575,5.805c0,2.52,0.496,4.275,1.53,5.76
		c0.945,1.394,2.295,2.159,4.05,2.159C337.575,290.047,338.926,289.238,339.915,287.843 M354.045,292.747
		c-1.484-1.575-1.979-3.779-1.979-6.344v-16.47h5.849v14.175c0,3.33,0.991,5.445,3.915,5.445c1.665,0,3.195-0.9,4.5-2.655v-16.965
		h5.895v17.46l0.854,6.885h-5.759l-0.63-3.151c-1.935,2.521-4.365,3.78-7.199,3.78C357.285,294.907,355.486,294.278,354.045,292.747
		 M378.031,292.927v-5.31c3.149,1.486,5.894,2.25,8.234,2.25c2.385,0,3.96-0.809,3.96-2.519c0-1.575-1.125-1.891-2.7-2.43
		l-2.88-0.586c-4.275-0.899-6.794-2.969-6.794-7.064c0-2.25,0.944-4.275,2.744-5.76c1.8-1.439,4.05-2.205,6.525-2.205
		c3.105,0,5.76,0.63,7.83,1.846v5.264c-2.61-1.44-5.085-2.16-7.334-2.16c-1.216,0-2.206,0.18-2.835,0.585
		c-0.721,0.45-1.125,0.99-1.125,1.8c0,1.44,1.619,2.34,4.274,2.79c0.495,0.045,1.8,0.405,2.385,0.495
		c3.554,1.08,5.535,2.79,5.535,6.75c0,2.565-1.035,4.544-2.88,5.94c-1.98,1.439-4.41,2.205-7.11,2.205
		C383.116,294.818,380.505,294.188,378.031,292.927 M421.544,294.637c-3.465,0-6.164-1.079-8.189-3.284
		c-2.025-2.16-3.015-5.13-3.015-8.865c0-3.78,1.08-6.93,3.239-9.495c2.116-2.52,4.951-3.78,8.46-3.78c2.205,0,4.14,0.405,5.805,1.26
		v5.355c-1.665-0.945-3.33-1.44-5.039-1.44c-1.936,0-3.466,0.63-4.636,1.891c-1.17,1.259-1.755,3.149-1.755,5.624
		c0,2.52,0.585,4.41,1.801,5.759c1.17,1.306,2.834,1.981,4.949,1.981c1.486,0,3.015-0.405,4.635-1.215v4.68
		c-1.575,1.035-3.689,1.574-6.3,1.574L421.544,294.637z M434.46,291.577c-1.935-2.16-2.925-5.129-2.925-9
		c0-3.959,0.99-7.154,2.925-9.584c1.98-2.474,4.499-3.69,7.74-3.69c7.29,0,10.259,5.04,10.259,14.175l-14.939,0.045
		c0.495,4.005,2.655,6.03,6.3,6.03c2.924,0,5.625-0.9,8.009-2.655v4.904c-2.475,1.98-5.535,2.971-9.224,2.971
		C439.095,294.773,436.35,293.693,434.46,291.577 M446.429,279.653v-0.27c-0.359-3.465-1.574-5.354-4.229-5.354
		c-2.701,0-4.32,2.114-4.68,5.624H446.429z M443.82,258.368h5.534l-4.86,8.236h-4.5L443.82,258.368z M458.985,291.577
		c-1.665-2.25-2.475-5.219-2.475-8.864c0-4.05,0.989-7.335,2.97-9.765c1.934-2.384,4.409-3.6,7.154-3.6
		c2.521,0,4.59,0.99,6.03,2.926v-13.005h5.895v35.009h-4.905l-0.63-3.375c-2.025,2.7-4.275,3.915-7.47,3.915
		C462.81,294.818,460.605,293.738,458.985,291.577 M472.664,286.627v-8.864c-1.26-2.385-2.924-3.555-4.815-3.555
		c-1.484,0-2.744,0.675-3.645,2.025c-0.99,1.44-1.44,3.33-1.44,5.895c0,2.25,0.405,4.275,1.261,5.715
		c0.899,1.484,2.159,2.204,3.734,2.204C469.604,290.047,471.314,288.922,472.664,286.627 M483.78,282.577
		c0-7.694,4.049-13.274,10.664-13.274c7.29,0,10.259,5.04,10.259,14.175l-14.939,0.045c0.495,4.005,2.655,6.03,6.3,6.03
		c2.925,0,5.625-0.9,8.01-2.655v4.904c-2.476,1.98-5.536,2.971-9.225,2.971C487.829,294.773,483.78,290.273,483.78,282.577
		 M498.673,279.653c-0.314-3.825-1.529-5.624-4.229-5.624c-2.701,0-4.32,2.114-4.68,5.624H498.673z M510.194,276.818l-0.9-6.885
		h5.76l0.585,3.33c1.8-2.654,4.005-4.005,6.614-4.005c0.495,0,0.946,0.045,1.305,0.136v5.714c-0.765-0.18-1.529-0.27-2.295-0.27
		c-2.114,0-3.869,0.99-5.22,2.97v16.47h-5.849V276.818z M548.308,294.637c-3.465,0-6.164-1.079-8.19-3.284
		c-2.024-2.16-3.014-5.13-3.014-8.865c0-3.78,1.08-6.93,3.239-9.495c2.115-2.52,4.95-3.78,8.46-3.78c2.205,0,4.14,0.405,5.805,1.26
		v5.355c-1.665-0.945-3.33-1.44-5.039-1.44c-1.936,0-3.466,0.63-4.636,1.891c-1.17,1.259-1.755,3.149-1.755,5.624
		c0,2.52,0.585,4.41,1.801,5.759c1.17,1.306,2.834,1.981,4.949,1.981c1.485,0,3.015-0.405,4.635-1.215v4.68
		c-1.575,1.035-3.69,1.574-6.3,1.574L548.308,294.637z M558.299,282.577c0-7.694,4.05-13.274,10.664-13.274
		c7.29,0,10.26,5.04,10.26,14.175l-14.939,0.045c0.495,4.005,2.655,6.03,6.299,6.03c2.925,0,5.625-0.9,8.01-2.655v4.904
		c-2.476,1.98-5.535,2.971-9.225,2.971C562.349,294.773,558.299,290.273,558.299,282.577 M573.193,279.653
		c-0.315-3.825-1.53-5.624-4.23-5.624c-2.7,0-4.319,2.114-4.679,5.624H573.193z M583.768,292.927v-5.31
		c3.15,1.486,5.895,2.25,8.235,2.25c2.385,0,3.96-0.809,3.96-2.519c0-1.575-1.125-1.891-2.7-2.43l-2.88-0.586
		c-4.275-0.899-6.795-2.969-6.795-7.064c0-2.25,0.946-4.275,2.745-5.76c1.8-1.439,4.05-2.205,6.525-2.205
		c3.105,0,5.759,0.63,7.83,1.846v5.264c-2.611-1.44-5.085-2.16-7.335-2.16c-1.215,0-2.205,0.18-2.835,0.585
		c-0.72,0.45-1.125,0.99-1.125,1.8c0,1.44,1.62,2.34,4.275,2.79c0.494,0.045,1.8,0.405,2.385,0.495
		c3.555,1.08,5.534,2.79,5.534,6.75c0,2.565-1.034,4.544-2.88,5.94c-1.979,1.439-4.409,2.205-7.109,2.205
		C588.853,294.818,586.243,294.188,583.768,292.927 M617.653,276.818l-0.9-6.885h5.76l0.63,3.24c1.8-2.564,3.96-3.825,6.659-3.825
		c6.075,0,9.54,5.13,9.54,12.33c0,3.779-0.81,6.975-2.475,9.404c-1.665,2.476-3.915,3.736-6.75,3.736
		c-2.745,0-4.95-0.991-6.615-2.925v12.374h-5.849V276.818z M631.783,287.752c0.899-1.529,1.349-3.554,1.349-5.849
		c0-2.43-0.45-4.365-1.349-5.715c-0.901-1.26-2.116-1.98-3.736-1.98c-1.755,0-3.284,0.99-4.545,3.015v9.899
		c1.306,1.936,2.835,2.925,4.59,2.925C629.712,290.047,630.927,289.238,631.783,287.752 M644.607,259.269h5.896v35.009h-5.896
		V259.269z M657.477,293.018c-1.17-1.216-1.755-2.79-1.755-4.95c0-5.175,3.689-7.83,9.09-7.83c1.665,0,3.059,0.225,4.455,0.585
		v-1.08c0-3.195-1.306-4.95-4.455-4.95c-3.061,0-5.895,1.125-7.74,2.655v-5.58c2.295-1.754,5.625-2.61,8.594-2.61
		c3.196,0,5.535,0.721,7.111,2.25c1.529,1.485,2.34,3.87,2.34,7.335v10.079l0.495,5.356h-5.851l-0.269-3.196
		c-1.666,2.566-4.05,3.825-7.291,3.825C660.177,294.907,658.647,294.278,657.477,293.018 M669.312,288.247v-3.554
		c-1.215-0.361-2.34-0.54-3.33-0.54c-2.79,0-4.185,1.035-4.185,3.105c0,1.98,1.17,2.97,3.105,2.97
		C666.567,290.228,668.142,289.462,669.312,288.247 M691.181,294.637c-3.465,0-6.165-1.079-8.189-3.284
		c-2.026-2.16-3.016-5.13-3.016-8.865c0-3.78,1.08-6.93,3.24-9.495c2.115-2.52,4.95-3.78,8.46-3.78c2.205,0,4.14,0.405,5.805,1.26
		v5.355c-1.665-0.945-3.33-1.44-5.04-1.44c-1.935,0-3.465,0.63-4.635,1.891c-1.17,1.259-1.755,3.149-1.755,5.624
		c0,2.52,0.585,4.41,1.8,5.759c1.17,1.306,2.835,1.981,4.95,1.981c1.484,0,3.015-0.405,4.635-1.215v4.68
		c-1.575,1.035-3.691,1.574-6.3,1.574L691.181,294.637z M701.171,282.577c0-7.694,4.05-13.274,10.665-13.274
		c7.289,0,10.259,5.04,10.259,14.175l-14.939,0.045c0.495,4.005,2.655,6.03,6.299,6.03c2.925,0,5.625-0.9,8.01-2.655v4.904
		c-2.474,1.98-5.534,2.971-9.224,2.971C705.221,294.773,701.171,290.273,701.171,282.577 M716.066,279.653
		c-0.316-3.825-1.531-5.624-4.23-5.624c-2.7,0-4.32,2.114-4.68,5.624H716.066z M726.596,292.927v-5.31
		c3.149,1.486,5.895,2.25,8.234,2.25c2.385,0,3.96-0.809,3.96-2.519c0-1.575-1.125-1.891-2.7-2.43l-2.88-0.586
		c-4.274-0.899-6.794-2.969-6.794-7.064c0-2.25,0.945-4.275,2.744-5.76c1.8-1.439,4.05-2.205,6.526-2.205
		c3.104,0,5.76,0.63,7.829,1.846v5.264c-2.609-1.44-5.085-2.16-7.334-2.16c-1.216,0-2.205,0.18-2.835,0.585
		c-0.721,0.45-1.125,0.99-1.125,1.8c0,1.44,1.619,2.34,4.274,2.79c0.496,0.045,1.8,0.405,2.385,0.495
		c3.555,1.08,5.535,2.79,5.535,6.75c0,2.565-1.035,4.544-2.88,5.94c-1.98,1.439-4.41,2.205-7.11,2.205
		C731.681,294.818,729.071,294.188,726.596,292.927"/>
</g>
</svg>
