<?xml version="1.0" encoding="utf-8"?>
<!-- Generator: Adobe Illustrator 25.4.1, SVG Export Plug-In . SVG Version: 6.00 Build 0)  -->
<svg version="1.1" id="Layer_1" xmlns="http://www.w3.org/2000/svg" xmlns:xlink="http://www.w3.org/1999/xlink" x="0px" y="0px"
	 viewBox="0 0 2829.89 2829.89" enable-background="new 0 0 2829.89 2829.89" xml:space="preserve">
<g>
	<g>
		<path fill="#FFFFFF" d="M2363.097,1001.669l-929.044-399.365c-11.497-4.944-24.684-4.945-36.18,0l-929.045,399.365
			c-16.852,7.219-27.736,23.731-27.736,42.068l-0.024,1015.766c0,15.53,12.645,28.165,28.188,28.165h35.275
			c15.544,0,28.19-12.635,28.19-28.165v-985.602l4.538-1.951l878.701-377.73l2.962,1.273l880.278,378.408v985.602
			c0,15.53,12.646,28.165,28.19,28.165h35.25c15.543,0,28.188-12.635,28.188-28.165l-0.023-1015.766
			C2390.807,1025.412,2379.93,1008.899,2363.097,1001.669z"/>
		<path fill="#FFFFFF" d="M1917.929,1509.426c-31.79,0-63.22,5.248-93.415,15.598l-6.035,2.068l-151.548-283.297l4.18-3.936
			c36.458-34.335,66.151-75.976,85.877-120.424c2.586-6.517,2.548-13.497-0.106-19.169c-2.124-4.537-5.779-7.841-10.294-9.304
			l-0.132-0.044l-26.691-9.197c-10.851-3.469-22.821,0.801-26.16,9.348l-0.132,0.317c-23.13,52.057-62.199,98.235-110.011,130.027
			c-47.266,31.486-103.588,48.606-162.873,49.506l-0.2,0.003l-0.2-0.008c-9.249-0.352-17.877,8.964-18.926,20.353l-2.077,28.264
			c-0.423,4.78,1.178,9.466,4.507,13.195c4.13,4.626,10.5,7.391,17.495,7.598c60.935-0.799,120.84-16.242,173.256-44.661
			l6.632-3.595l38.809,72.568l-213.88,341.729l-130.004-364.804c-7.984-22.423-29.35-37.487-53.166-37.487h-137.171
			c-13.485,0-24.457,10.971-24.457,24.456v31.957c0,13.472,10.972,24.432,24.457,24.432h67.708l-120.126,160.322l-5.652-2.955
			c-41.698-21.804-86.655-32.859-133.622-32.859c-159.418,0-289.114,129.707-289.114,289.139
			c0,159.417,129.696,289.112,289.114,289.112c68.915,0,135.702-24.763,188.059-69.727c51.788-44.476,86.325-105.795,97.25-172.66
			l1.028-6.291h215.024c0.29-0.033,0.58-0.049,0.874-0.049c1.469,0,2.888-0.075,4.331-0.229l0.092-0.02
			c0.256-0.053,0.509-0.103,0.758-0.144l0.209-0.069l1.794-0.221c0.456-0.078,0.89-0.181,1.329-0.28l0.667-0.149
			c0.101-0.026,0.207-0.059,0.314-0.089c0.295-0.084,0.591-0.168,0.86-0.235c0.89-0.232,1.684-0.479,2.422-0.753l0.317-0.11
			c0.161-0.052,0.313-0.096,0.458-0.133l0.807-0.312c0.207-0.083,0.406-0.161,0.593-0.229c0.421-0.155,0.815-0.325,1.157-0.503
			l0.44-0.211c0.478-0.21,0.9-0.4,1.394-0.646l0.568-0.297c0.457-0.236,0.888-0.459,1.205-0.654l0.496-0.294
			c0.382-0.224,0.742-0.436,0.954-0.591l0.271-0.189c0.249-0.165,0.504-0.323,0.763-0.482c0.112-0.069,0.229-0.136,0.341-0.213
			l0.636-0.515l0.431-0.211l0.316-0.239c0.192-0.144,0.384-0.274,0.562-0.434l0.417-0.348c0.377-0.292,0.694-0.558,1.062-0.889
			l0.364-0.307c0.283-0.225,0.555-0.462,0.813-0.691l0.396-0.417c0.167-0.164,0.326-0.306,0.474-0.428
			c0.117-0.12,0.241-0.248,0.366-0.376c0.189-0.196,0.38-0.392,0.574-0.588c0.512-0.554,1.011-1.093,1.471-1.632l0.557-0.617
			c0.2-0.282,0.403-0.557,0.622-0.825l0.369-0.473c0.271-0.344,0.526-0.668,0.68-0.898l0.355-0.518
			c0.153-0.221,0.31-0.429,0.434-0.646l0.355-0.658l0.261-0.312l233.599-373.149l63.434,118.574l-5.046,3.876
			c-34.482,26.483-63.03,60.901-82.559,99.532c-20.485,40.528-30.873,84.218-30.873,129.854
			c0,159.417,129.696,289.112,289.114,289.112s289.114-129.695,289.114-289.112
			C2207.043,1639.133,2077.347,1509.426,1917.929,1509.426z M1135.009,1848.14c-11.078,49.401-38.971,94.294-78.542,126.409
			c-40.168,32.6-90.775,50.554-142.497,50.554c-124.914,0-226.539-101.625-226.539-226.538
			c0-124.914,101.625-226.539,226.539-226.539c32.237,0,63.47,6.716,92.831,19.959l8.526,3.846l-133.566,178.344
			c-0.223,0.328-0.419,0.605-0.607,0.855c-0.193,0.292-0.393,0.583-0.593,0.875c-0.222,0.323-0.447,0.645-0.646,0.968l-0.186,0.288
			c-0.246,0.362-0.451,0.728-0.654,1.079l-0.114,0.196c-0.183,0.334-0.36,0.669-0.538,1.003c-0.197,0.369-0.394,0.738-0.595,1.107
			c-0.233,0.451-0.452,0.903-0.658,1.344c-0.159,0.412-0.321,0.814-0.484,1.215c-0.115,0.283-0.23,0.566-0.342,0.853l-0.146,0.35
			c-0.128,0.287-0.288,0.755-0.442,1.208l-0.091,0.266c-0.208,0.646-0.375,1.189-0.514,1.726l-0.084,0.301
			c-0.173,0.574-0.336,1.124-0.416,1.55l-0.126,0.559c-0.074,0.276-0.117,0.549-0.167,0.813c-0.048,0.257-0.095,0.512-0.147,0.764
			l-0.116,0.688c-0.073,0.424-0.147,0.839-0.2,1.24c-0.038,0.556-0.076,1.062-0.114,1.571l-0.042,0.51
			c-0.073,0.708-0.106,1.349-0.106,2.014v2.05c0,0.674,0.039,1.373,0.083,2.183c0.035,0.518,0.115,1.104,0.191,1.691l0.052,0.521
			c0.017,0.224,0.064,0.448,0.102,0.674c0.05,0.301,0.098,0.603,0.141,0.903l0.035,0.192c0.1,0.553,0.199,1.127,0.332,1.672
			c0.139,0.601,0.278,1.134,0.434,1.701c0.123,0.41,0.24,0.831,0.358,1.251c0.082,0.291,0.162,0.582,0.246,0.868l1.079,2.789
			c0.121,0.309,0.241,0.617,0.358,0.913c0.174,0.368,0.343,0.714,0.514,1.064l1.262,2.473c0.274,0.494,0.575,0.981,0.917,1.487
			l0.069,0.104c0.189,0.289,0.374,0.588,0.558,0.89c0.133,0.218,0.263,0.438,0.408,0.646c0.181,0.259,0.375,0.506,0.564,0.753
			c0.279,0.362,0.554,0.724,0.817,1.091c0.314,0.382,0.611,0.746,0.912,1.115l0.192,0.236c0.304,0.354,0.608,0.692,0.906,1.026
			l0.413,0.465c0.336,0.327,0.655,0.649,0.98,0.979l0.36,0.364c0.188,0.167,0.375,0.336,0.564,0.506
			c0.263,0.238,0.529,0.48,0.817,0.723l0.16,0.138c0.552,0.49,1.104,0.962,1.656,1.414c0.054,0.043,0.107,0.084,0.159,0.125
			l0.202,0.076l0.88,0.674c1.561,1.193,3.108,2.174,4.732,2.995l0.068,0.029c0.226,0.103,0.541,0.246,0.906,0.444
			c1.625,0.806,3.271,1.495,4.894,2.049l0.386,0.144c0.104,0.043,0.22,0.082,0.346,0.124c1.426,0.453,3.104,0.862,5.194,1.261
			c0.252,0.03,0.503,0.065,0.753,0.103c0.126,0.018,0.251,0.039,0.38,0.052l0.353,0.043c1.942,0.282,3.773,0.439,5.593,0.482
			h223.102L1135.009,1848.14z M994.784,1758.154l85.217-113.83l6.089,7.122c23.966,28.032,40.882,61.77,48.918,97.565l2.053,9.143
			H994.784z M1200.304,1758.154l-1.026-6.294c-9.424-57.826-36.048-110.888-76.993-153.449l-4.42-4.595l123.463-164.797
			l117.305,329.135H1200.304z M1917.929,2025.103c-124.914,0-226.539-101.625-226.539-226.538c0-65.75,28.652-128.219,78.61-171.389
			l7.093-6.13l112.736,210.693c6.366,11.859,21.212,16.356,33.082,10.021l28.163-15.094c11.89-6.346,16.392-21.187,10.049-33.09
			l-112.771-210.764l9.017-2.511c19.721-5.492,40.096-8.277,60.56-8.277c124.913,0,226.538,101.625,226.538,226.539
			C2144.467,1923.478,2042.842,2025.103,1917.929,2025.103z"/>
	</g>
	<path fill="#64B5E5" d="M2193.162,0.005H636.724C285.072,0.005,0,285.075,0,636.729v1556.437
		c0,351.653,285.072,636.725,636.724,636.725h1556.438c351.655,0,636.724-285.072,636.724-636.725V636.729
		C2829.886,285.075,2544.817,0.005,2193.162,0.005 M2645.945,2193.166c0,250.064-202.718,452.782-452.783,452.782H636.724
		c-250.065,0-452.78-202.718-452.78-452.782V636.729c0-250.064,202.715-452.783,452.78-452.783h1556.438
		c250.065,0,452.783,202.719,452.783,452.783V2193.166z"/>
</g>
</svg>
