<?xml version="1.0" encoding="utf-8"?>
<!-- Generator: Adobe Illustrator 25.4.1, SVG Export Plug-In . SVG Version: 6.00 Build 0)  -->
<svg version="1.1" id="Layer_1" xmlns="http://www.w3.org/2000/svg" xmlns:xlink="http://www.w3.org/1999/xlink" x="0px" y="0px"
	 viewBox="0 0 198.4 165.1" style="enable-background:new 0 0 198.4 165.1;" xml:space="preserve">
<style type="text/css">
	.st0{fill:#FFFFFF;}
</style>
<g>
	<path class="st0" d="M131,31c-0.2-4.6-0.7-10.1-3.2-15.7c-1.4-3-3.1-5.4-5.3-7.3c-2.1-1.9-4.6-3.3-7.6-4.5
		C109.2,1.3,103.8,1,99.2,1c-4.5,0-9.9,0.3-15.6,2.5c-3,1.2-5.5,2.7-7.6,4.5c-2.2,2-3.9,4.3-5.3,7.4C68,21,67.5,26.7,67.4,31l0,2.8
		H56.9v130.3h84.7V33.8h-10.5L131,31z M78.1,33.8l0-2.5c0.1-4.7,0.9-8.6,2.2-11.4c0.7-1.6,1.7-3,2.8-3.9c1-0.9,2.5-1.8,4.3-2.5
		c3-1.2,7-1.8,11.8-1.8c0,0,0,0,0,0c4.8,0,8.7,0.6,11.8,1.8c1.8,0.7,3.3,1.6,4.3,2.5c1,0.9,2,2.3,2.7,3.9c1.4,2.9,2.1,6.7,2.2,11.4
		l0,2.5H78.1z"/>
	<path class="st0" d="M1,56v86c0,12.2,9.9,22.1,22.1,22.1h19V33.8h-19C10.9,33.8,1,43.8,1,56z"/>
	<path class="st0" d="M175.3,33.8h-18.9v130.3h18.9c12.2,0,22.2-9.9,22.2-22.1V56C197.4,43.8,187.5,33.8,175.3,33.8z"/>
</g>
</svg>
