<svg xmlns="http://www.w3.org/2000/svg" viewBox="0 0 2829.89 2829.89"><defs><style>.cls-1{fill:#25303b;}.cls-2{fill:#64b5e5;}</style></defs><g id="Layer_2" data-name="Layer 2"><g id="Layer_1-2" data-name="Layer 1"><path class="cls-1" d="M2398.31,1043.73a53.33,53.33,0,0,0-32.25-49L1437,595.41a53.28,53.28,0,0,0-42.1,0l-929,399.36a53.28,53.28,0,0,0-32.28,49l0,1015.77a35.68,35.68,0,0,0,35.69,35.66h35.27a35.68,35.68,0,0,0,35.69-35.66V1078.84L1416,702.38l875.74,376.46V2059.5a35.68,35.68,0,0,0,35.69,35.66h35.25a35.68,35.68,0,0,0,35.69-35.66Z"/><path class="cls-1" d="M1917.93,1501.92a295.21,295.21,0,0,0-95.85,16l-145.83-272.61a382.64,382.64,0,0,0,87.65-123c6.59-16.39-.32-33.76-15-38.52l-26.76-9.22c-14.81-4.78-30.69,1.37-35.52,13.74a299.56,299.56,0,0,1-107.31,126.82c-46.84,31.2-102.63,47.4-158.84,48.25-13.36-.51-25.29,11.79-26.68,27.23l-2.08,28.22c-1.36,15.45,11.76,28.52,29.42,29,61.33-.78,122.8-16.25,176.89-45.57l33.2,62.09-203.35,324.91L1303.06,1339a64,64,0,0,0-60.23-42.47H1105.66a31.93,31.93,0,0,0-32,32v32a31.93,31.93,0,0,0,32,31.93h52.72l-107.31,143.22A295,295,0,0,0,914,1501.92c-163.54,0-296.61,133.07-296.61,296.64S750.43,2095.17,914,2095.17c147.25,0,269.71-107.87,292.71-248.68H1416s.15,0,.25,0a46.6,46.6,0,0,0,5.31-.3c.42-.05.83-.17,1.22-.22a2.36,2.36,0,0,0,.52-.09l1.19-.15c.93-.15,1.78-.37,2.68-.56.39-.1.86-.25,1.25-.34,1.12-.3,2.17-.61,3.22-1,.14,0,.29,0,.46-.1s.51-.22.73-.32.64-.24.91-.34a18.45,18.45,0,0,0,2.07-.9c.61-.27,1.15-.51,1.78-.83s1.54-.78,2.29-1.25a22.65,22.65,0,0,0,2-1.22c.51-.34,1.07-.63,1.58-1a8.48,8.48,0,0,0,.86-.57c.51-.39,1-.73,1.46-1.14s1-.81,1.49-1.25.9-.75,1.31-1.12a2.14,2.14,0,0,0,.49-.51s.17-.12.22-.17c.47-.46.9-.93,1.37-1.39.58-.64,1.19-1.3,1.75-2l.3-.3a.89.89,0,0,0,.26-.31c.3-.34.49-.69.76-1,.49-.64,1-1.25,1.44-1.91s.83-1.17,1.15-1.75a2,2,0,0,0,.31-.47l226.8-362.28,54.33,101.55c-70.67,54.28-116.37,139.54-116.37,235.34,0,163.54,133.08,296.61,296.62,296.61s296.61-133.07,296.61-296.61-133.05-296.64-296.61-296.64M1348,1750.65H1206.68a295.55,295.55,0,0,0-79-157.44L1239,1444.69Zm-267.61-94.34a218.82,218.82,0,0,1,47.3,94.34H1009.77ZM914,2017.6c-120.78,0-219-98.26-219-219s98.26-219,219-219a217.52,217.52,0,0,1,89.75,19.3l-128.07,171c-.2.3-.42.61-.61.86-.49.75-1,1.51-1.52,2.26s-.75,1.22-1.09,1.81c-.42.76-.81,1.51-1.22,2.27s-.66,1.32-1,2-.6,1.51-.9,2.27-.56,1.46-.8,2.17-.47,1.46-.66,2.22a21.86,21.86,0,0,0-.61,2.34c-.2.73-.29,1.44-.44,2.12-.15.91-.32,1.78-.41,2.61s-.1,1.37-.15,2a26.17,26.17,0,0,0-.15,2.78,7.18,7.18,0,0,0,0,1,6.9,6.9,0,0,0,0,1c0,.9,0,1.76.1,2.66,0,.71.15,1.46.24,2.22s.22,1.51.32,2.27.29,1.66.49,2.46c.15.64.32,1.29.51,2s.46,1.66.71,2.46l.76,2c.29.73.6,1.56.9,2.29s.66,1.37,1,2.08l1.05,2a25.07,25.07,0,0,0,1.31,2.15c.37.56.71,1.17,1.1,1.73.51.73,1.08,1.39,1.56,2.1.47.56.88,1.07,1.32,1.61s1.12,1.27,1.66,1.88,1.05,1,1.61,1.61,1.1,1,1.71,1.51,1.31,1.15,2,1.68c.29.22.49.42.78.61a2.7,2.7,0,0,0,.56.34,37.44,37.44,0,0,0,5.91,3.74c.29.14.61.27.85.41a46.76,46.76,0,0,0,6,2.51l.8.3a55,55,0,0,0,6.44,1.56c.52,0,1,.14,1.52.19a50.62,50.62,0,0,0,6.58.56h213.82c-21.93,97.8-109.36,171.11-213.72,171.11m1004,0c-120.78,0-219-98.26-219-219a218.57,218.57,0,0,1,76-165.71l108.32,202.42a32,32,0,0,0,43.22,13.1l28.18-15.1a32,32,0,0,0,13.12-43.22l-108.36-202.53a218.14,218.14,0,0,1,58.55-8c120.8,0,219,98.24,219,219s-98.24,219-219,219"/><path class="cls-2" d="M2193.16,0H636.72C285.07,0,0,285.07,0,636.72V2193.16c0,351.65,285.07,636.73,636.72,636.73H2193.16c351.66,0,636.73-285.08,636.73-636.73V636.72C2829.89,285.07,2544.82,0,2193.16,0M2646,2193.16c0,250.06-202.72,452.78-452.79,452.78H636.72c-250.06,0-452.78-202.72-452.78-452.78V636.72c0-250.06,202.72-452.78,452.78-452.78H2193.16c250.07,0,452.79,202.72,452.79,452.78Z"/></g></g></svg>