<?xml version="1.0" encoding="utf-8"?>
<!-- Generator: Adobe Illustrator 25.4.1, SVG Export Plug-In . SVG Version: 6.00 Build 0)  -->
<svg version="1.1" id="Layer_1" xmlns="http://www.w3.org/2000/svg" xmlns:xlink="http://www.w3.org/1999/xlink" x="0px" y="0px"
	 viewBox="0 0 198.4 165.1" style="enable-background:new 0 0 198.4 165.1;" xml:space="preserve">
<style type="text/css">
	.st0{fill:#25303B;}
</style>
<g>
	<path class="st0" d="M55.9,165.1h86.7V32.8H132l0-1.8c-0.2-5.1-0.8-10.6-3.3-16.1c-1.3-2.7-3-5.4-5.6-7.7c-2.5-2.2-5.2-3.6-7.9-4.7
		c-5.5-2.1-10.9-2.5-16-2.5c-5.1,0-10.5,0.5-16,2.5c-2.7,1.1-5.5,2.5-7.9,4.7c-2.6,2.3-4.3,4.9-5.6,7.7c-2.5,5.5-3.2,11-3.3,16.1
		l0,1.8H55.9V165.1z M79.2,31.4c0.1-4.1,0.7-8.1,2.1-11c0.7-1.5,1.6-2.8,2.5-3.6c1-0.9,2.4-1.7,4-2.3c3.2-1.2,7.2-1.7,11.4-1.7
		c4.2,0,8.2,0.5,11.4,1.7c1.6,0.6,3,1.4,4,2.3c0.9,0.8,1.8,2.1,2.5,3.6c1.4,3,2,6.9,2.1,11l0,1.5H79.1L79.2,31.4z M198.4,56v86
		c0,12.7-10.4,23.1-23.2,23.1h-19.9V32.8h19.9C188,32.8,198.4,43.3,198.4,56 M43.1,165.1h-20C10.4,165.1,0,154.7,0,142V56
		c0-12.7,10.4-23.1,23.1-23.1h20V165.1z"/>
</g>
</svg>
