<?xml version="1.0" encoding="utf-8"?>
<!-- Generator: Adobe Illustrator 25.4.1, SVG Export Plug-In . SVG Version: 6.00 Build 0)  -->
<svg version="1.1" id="Layer_1" xmlns="http://www.w3.org/2000/svg" xmlns:xlink="http://www.w3.org/1999/xlink" x="0px" y="0px"
	 viewBox="0 0 283.465 283.465" enable-background="new 0 0 283.465 283.465" xml:space="preserve">
<g>
	<path fill="#64B5E5" d="M219.684,283.465H63.779c-35.224,0-63.78-28.555-63.78-63.78V63.78C-0.001,28.555,28.555,0,63.779,0
		h155.905c35.225,0,63.78,28.555,63.78,63.78v155.905C283.464,254.91,254.909,283.465,219.684,283.465 M265.039,219.685V63.78
		c0-25.049-20.306-45.355-45.355-45.355H63.779c-25.049,0-45.354,20.306-45.354,45.355v155.905
		c0,25.049,20.305,45.354,45.354,45.354h155.905C244.733,265.039,265.039,244.734,265.039,219.685"/>
	<g>
		<path fill="#FFFFFF" d="M179.372,127.145c-1.162-1.125-3.065-1.684-5.798-1.684s-4.637,0.558-5.82,1.706
			c-1.126,1.163-1.684,3.066-1.684,5.798c0,2.733,0.558,4.637,1.705,5.82c1.163,1.126,3.066,1.684,5.799,1.684
			c2.731,0,4.635-0.558,5.819-1.706c1.127-1.161,1.685-3.065,1.685-5.798C181.078,130.234,180.52,128.33,179.372,127.145z"/>
		<path fill="#FFFFFF" d="M147.481,127.145c-1.162-1.125-3.065-1.684-5.798-1.684c-2.731,0-4.635,0.558-5.82,1.706
			c-1.125,1.163-1.684,3.067-1.684,5.798c0,2.723,0.555,4.624,1.695,5.809c1.187,1.141,3.087,1.695,5.809,1.695
			c2.731,0,4.636-0.558,5.821-1.706c1.125-1.162,1.684-3.066,1.684-5.798C149.188,130.235,148.63,128.331,147.481,127.145z"/>
		<path fill="#FFFFFF" d="M115.592,127.145c-1.162-1.125-3.065-1.684-5.797-1.684c-2.733,0-4.637,0.558-5.82,1.706
			c-1.125,1.163-1.684,3.067-1.684,5.798c0,2.732,0.558,4.636,1.706,5.82c1.162,1.125,3.066,1.684,5.798,1.684
			c2.73,0,4.634-0.558,5.819-1.706c1.126-1.163,1.685-3.066,1.685-5.798C117.299,130.235,116.741,128.331,115.592,127.145z"/>
		<path fill="#FFFFFF" d="M230.653,156.895h-14.616l-0.194-0.75c-4.518-17.506-13.404-33.858-25.698-47.287
			c-4.632-5.059-10.938-8.109-17.758-8.589c-10.144-0.715-20.468-1.078-30.685-1.078c-10.215,0-20.539,0.363-30.683,1.078
			c-6.821,0.48-13.127,3.53-17.758,8.589c-12.294,13.43-21.18,29.782-25.698,47.287l-0.194,0.75H52.807
			c-1.215,0-2.203,0.988-2.203,2.203v3.231c0,1.215,0.988,2.203,2.203,2.203h12.938l-0.227,1.359c-0.159,0.95-0.317,1.9-0.45,2.858
			c-0.223,1.607-0.339,3.244-0.346,4.865v43.697c0,4.659,3.79,8.449,8.449,8.449h9.449c4.659,0,8.449-3.79,8.449-8.449v-5.726
			h101.266v5.726c0,4.659,3.79,8.449,8.448,8.449h9.45c4.658,0,8.447-3.79,8.447-8.449v-43.729c-0.007-1.6-0.123-3.227-0.345-4.831
			c-0.129-0.926-0.281-1.845-0.434-2.763l-0.242-1.457h12.991c1.216,0,2.204-0.988,2.204-2.203v-3.231
			C232.856,157.883,231.868,156.895,230.653,156.895z M107.241,186.367c0,2.896-2.356,5.252-5.252,5.252H82.146
			c-2.896,0-5.252-2.356-5.252-5.252v-4.252c0-2.896,2.356-5.252,5.252-5.252h19.843c2.896,0,5.252,2.356,5.252,5.252V186.367z
			 M166.912,144.859c-1.094,0.229-2.186,0.516-3.245,0.854c-0.538,0.169-1.064,0.354-1.586,0.551
			c-0.21,0.077-0.406,0.156-0.603,0.234l-0.632,0.266c-0.17,0.074-0.332,0.151-0.491,0.238c-1.329,0.701-2.496,1.778-3.299,3.04
			c-0.406,0.636-0.728,1.319-0.956,2.034c-0.07,0.232-0.118,0.387-0.156,0.539l-0.887,4.279h-6.961l1.216-5.854l0.209-0.755
			c0.542-1.692,1.269-3.177,2.214-4.527c-0.045-0.015-0.091-0.029-0.136-0.043c-1.064-0.341-2.156-0.628-3.251-0.856
			c-4.354-0.909-8.976-0.907-13.326,0c-1.093,0.228-2.185,0.516-3.246,0.854c-0.054,0.017-0.107,0.034-0.16,0.051
			c0.54,0.751,1.004,1.526,1.388,2.317c0.433,1.022,0.821,1.979,1.058,2.974c0.124,0.525,0.221,1.006,0.313,1.463l0.896,4.377h-6.96
			l-0.892-4.299c-0.031-0.125-0.074-0.266-0.116-0.406l-0.04-0.133c-0.221-0.689-0.542-1.373-0.95-2.011
			c-0.803-1.266-1.97-2.343-3.287-3.036c-0.172-0.094-0.335-0.172-0.5-0.245l-0.645-0.27c-0.194-0.078-0.388-0.156-0.585-0.229
			c-0.529-0.199-1.057-0.385-1.588-0.552c-1.065-0.341-2.157-0.628-3.25-0.856c-4.351-0.908-8.973-0.908-13.326,0
			c-1.095,0.229-2.188,0.517-3.246,0.854c-0.537,0.169-1.063,0.354-1.586,0.551c-0.204,0.075-0.398,0.153-0.592,0.231l-0.644,0.27
			c-0.165,0.072-0.329,0.15-0.49,0.238c-1.33,0.701-2.497,1.778-3.297,3.039c-0.408,0.64-0.729,1.323-0.957,2.034l-0.04,0.132
			c-0.04,0.133-0.081,0.267-0.113,0.398l-0.89,4.288h-8.758c-0.964,0-1.842-0.447-2.409-1.226c-0.572-0.786-0.727-1.771-0.426-2.699
			c4.45-13.721,11.686-26.119,21.508-36.85c2.764-3.019,6.521-4.837,10.58-5.123c9.906-0.698,19.975-1.051,29.928-1.051
			c9.953,0,20.023,0.354,29.931,1.051c4.058,0.285,7.814,2.104,10.577,5.123c9.823,10.729,17.06,23.127,21.51,36.85
			c0.302,0.928,0.146,1.911-0.425,2.697c-0.567,0.78-1.445,1.228-2.41,1.228h-8.792l-0.894-4.301
			c-0.032-0.13-0.077-0.279-0.122-0.427l-0.032-0.108c-0.222-0.691-0.543-1.375-0.95-2.014c-0.804-1.265-1.971-2.343-3.286-3.035
			c-0.172-0.094-0.335-0.172-0.5-0.244l-0.642-0.27c-0.195-0.078-0.391-0.156-0.589-0.229c-0.53-0.199-1.057-0.385-1.59-0.552
			c-1.062-0.34-2.153-0.628-3.249-0.856C175.884,143.95,171.266,143.95,166.912,144.859z M206.511,186.367
			c0,2.896-2.356,5.252-5.252,5.252h-19.843c-2.896,0-5.252-2.356-5.252-5.252v-4.252c0-2.896,2.356-5.252,5.252-5.252h19.843
			c2.896,0,5.252,2.356,5.252,5.252V186.367z"/>
	</g>
</g>
</svg>
