<?xml version="1.0" encoding="utf-8"?>
<!-- Generator: Adobe Illustrator 25.4.1, SVG Export Plug-In . SVG Version: 6.00 Build 0)  -->
<svg version="1.1" id="Layer_1" xmlns="http://www.w3.org/2000/svg" xmlns:xlink="http://www.w3.org/1999/xlink" x="0px" y="0px"
	 viewBox="0 0 283.465 283.465" enable-background="new 0 0 283.465 283.465" xml:space="preserve">
<g>
	<path fill="#64B5E5" d="M219.684,283.465H63.779c-35.224,0-63.78-28.555-63.78-63.78V63.78C-0.001,28.555,28.555,0,63.779,0
		h155.905c35.225,0,63.78,28.555,63.78,63.78v155.905C283.464,254.91,254.909,283.465,219.684,283.465 M265.039,219.685V63.78
		c0-25.049-20.306-45.355-45.355-45.355H63.779c-25.049,0-45.354,20.306-45.354,45.355v155.905
		c0,25.049,20.305,45.354,45.354,45.354h155.905C244.733,265.039,265.039,244.734,265.039,219.685"/>
	<path fill="#25303B" d="M135.168,139.482c-1.6-1.651-1.988-4.174-1.988-6.516s0.388-4.864,1.988-6.516
		c1.652-1.601,4.175-1.988,6.516-1.988c2.342,0,4.864,0.387,6.516,1.988c1.601,1.652,1.988,4.174,1.988,6.516
		s-0.387,4.865-1.988,6.516c-1.652,1.6-4.174,1.988-6.516,1.988C139.343,141.469,136.82,141.081,135.168,139.482 M109.795,141.469
		c2.341,0,4.863-0.388,6.515-1.988c1.601-1.651,1.989-4.174,1.989-6.516s-0.388-4.864-1.989-6.516
		c-1.652-1.601-4.174-1.988-6.515-1.988c-2.342,0-4.866,0.387-6.517,1.988c-1.6,1.652-1.987,4.174-1.987,6.516
		s0.387,4.865,1.987,6.516C104.929,141.081,107.453,141.469,109.795,141.469 M173.574,141.469c2.342,0,4.864-0.388,6.516-1.988
		c1.601-1.651,1.988-4.174,1.988-6.516s-0.387-4.864-1.988-6.516c-1.652-1.601-4.174-1.988-6.516-1.988
		c-2.341,0-4.865,0.387-6.516,1.988c-1.601,1.652-1.988,4.174-1.988,6.516s0.387,4.865,1.988,6.516
		C168.709,141.081,171.233,141.469,173.574,141.469 M233.856,159.098v3.232c0,1.769-1.434,3.203-3.203,3.203h-0.001h-11.811
		c0.17,1.025,0.343,2.049,0.486,3.082c0.229,1.649,0.348,3.32,0.355,4.969v31.918v11.811c0,5.218-4.23,9.449-9.448,9.449h-9.45
		c-5.218,0-9.448-4.231-9.448-9.449v-4.725H92.07v4.725c0,5.218-4.231,9.449-9.449,9.449h-9.449c-5.219,0-9.449-4.231-9.449-9.449
		v-4.725v-38.976c0.007-1.681,0.127-3.353,0.355-4.999c0.143-1.032,0.316-2.056,0.487-3.08H52.807c-1.769,0-3.203-1.434-3.203-3.203
		v-3.232c0-1.769,1.434-3.203,3.203-3.203h13.788c4.575-17.724,13.404-34.029,25.929-47.712c4.804-5.249,11.348-8.414,18.425-8.912
		c10.176-0.717,20.524-1.08,30.753-1.08c10.231,0,20.579,0.363,30.755,1.08c7.077,0.498,13.62,3.663,18.425,8.912
		c12.525,13.682,21.354,29.986,25.929,47.712h13.841h0.001C232.422,155.895,233.856,157.328,233.856,159.098 M82.521,155.895h7.942
		l0.454-2.216l0.154-0.751l0.125-0.554c0.048-0.2,0.113-0.402,0.172-0.602c0.255-0.797,0.615-1.559,1.065-2.265
		c0.897-1.413,2.179-2.599,3.664-3.382c0.185-0.101,0.373-0.191,0.563-0.275l0.283-0.125l0.2-0.081
		c0.268-0.106,0.534-0.216,0.805-0.315c0.54-0.203,1.084-0.395,1.634-0.568c1.099-0.351,2.217-0.645,3.346-0.88
		c2.259-0.472,4.566-0.707,6.868-0.707c2.301,0,4.609,0.235,6.867,0.707c1.13,0.235,2.247,0.529,3.346,0.88
		c0.55,0.173,1.095,0.365,1.634,0.568c0.271,0.099,0.537,0.209,0.805,0.315l0.2,0.081l0.283,0.125
		c0.191,0.084,0.379,0.175,0.563,0.276c1.486,0.782,2.767,1.969,3.664,3.382c0.45,0.706,0.81,1.468,1.065,2.265
		c0.059,0.199,0.123,0.401,0.172,0.602l0.126,0.554l0.153,0.75l0.454,2.216h4.919l-0.533-2.6c-0.13-0.62-0.251-1.272-0.424-2.008
		c-0.225-0.945-0.605-1.868-0.985-2.769c-0.563-1.16-1.294-2.246-2.135-3.235c0.497-0.185,0.996-0.363,1.502-0.522
		c1.099-0.351,2.216-0.645,3.346-0.88c2.258-0.472,4.566-0.707,6.867-0.707c2.302,0,4.609,0.235,6.868,0.707
		c1.129,0.235,2.247,0.529,3.346,0.88c0.5,0.158,0.995,0.334,1.486,0.517c-0.061,0.069-0.128,0.132-0.188,0.203
		c-1.214,1.497-2.102,3.17-2.713,5.073l-0.197,0.708l-0.123,0.541l-0.208,1.001l-0.384,1.879l-0.249,1.212h4.919l0.454-2.216
		l0.154-0.751l0.125-0.554c0.049-0.2,0.113-0.402,0.173-0.602c0.255-0.797,0.614-1.559,1.065-2.265
		c0.897-1.413,2.178-2.599,3.664-3.382c0.184-0.101,0.372-0.191,0.563-0.275l0.282-0.125l0.201-0.081
		c0.267-0.106,0.533-0.216,0.805-0.315c0.539-0.203,1.083-0.395,1.634-0.568c1.099-0.351,2.216-0.645,3.346-0.88
		c2.259-0.472,4.566-0.707,6.867-0.707c2.302,0,4.609,0.235,6.868,0.707c1.129,0.235,2.247,0.529,3.345,0.88
		c0.551,0.173,1.095,0.365,1.635,0.568c0.271,0.099,0.537,0.209,0.804,0.315l0.201,0.081l0.282,0.125
		c0.191,0.084,0.38,0.175,0.564,0.276c1.486,0.782,2.766,1.969,3.664,3.382c0.45,0.706,0.81,1.468,1.065,2.265
		c0.059,0.199,0.123,0.401,0.172,0.602l0.125,0.554l0.154,0.75l0.454,2.216h7.977c1.356,0,2.302-1.326,1.883-2.616
		c-4.366-13.464-11.574-25.864-21.295-36.483c-2.589-2.828-6.108-4.533-9.911-4.8c-9.881-0.696-19.927-1.049-29.86-1.049
		c-9.931,0-19.977,0.353-29.858,1.049c-3.803,0.267-7.322,1.972-9.912,4.8c-9.72,10.619-16.928,23.018-21.295,36.483
		C80.219,154.568,81.164,155.895,82.521,155.895 M106.241,182.115c0-2.348-1.904-4.252-4.252-4.252H82.146
		c-2.348,0-4.252,1.904-4.252,4.252v4.252c0,2.348,1.904,4.252,4.252,4.252h19.843c2.348,0,4.252-1.904,4.252-4.252V182.115z
		 M205.511,182.115c0-2.348-1.904-4.252-4.252-4.252h-19.843c-2.348,0-4.252,1.904-4.252,4.252v4.252
		c0,2.348,1.904,4.252,4.252,4.252h19.843c2.348,0,4.252-1.904,4.252-4.252V182.115z"/>
</g>
</svg>
