<?xml version="1.0" encoding="utf-8"?>
<!-- Generator: Adobe Illustrator 25.4.1, SVG Export Plug-In . SVG Version: 6.00 Build 0)  -->
<svg version="1.1" id="Layer_1" xmlns="http://www.w3.org/2000/svg" xmlns:xlink="http://www.w3.org/1999/xlink" x="0px" y="0px"
	 viewBox="0 0 246.047 217.701" enable-background="new 0 0 246.047 217.701" xml:space="preserve">
<polygon fill="#FFCC30" points="123.024,9.638 236.41,208.063 9.638,208.063 "/>
<g>
	<path fill="#25303B" d="M123.024,9.638L236.41,208.064H9.638L123.024,9.638 M123.024,0.001c-3.459,0-6.652,1.853-8.368,4.856
		L1.27,203.281c-1.705,2.984-1.692,6.649,0.032,9.62c1.725,2.971,4.901,4.8,8.336,4.8H236.41c3.436,0,6.611-1.829,8.336-4.8
		c1.724-2.971,1.736-6.636,0.031-9.62L131.392,4.857C129.676,1.854,126.482,0.001,123.024,0.001 M128.869,172.621h-11.692
		c-2.642,0-4.783,2.142-4.783,4.783v11.694c0,2.641,2.141,4.783,4.783,4.783h11.692c2.643,0,4.784-2.142,4.784-4.783v-11.694
		C133.653,174.763,131.512,172.621,128.869,172.621 M107.854,70.153l8.466,84.657c0.203,2.028,1.91,3.573,3.949,3.573h5.51
		c2.039,0,3.746-1.545,3.949-3.573l8.465-84.657c0.585-5.84-4.002-10.908-9.871-10.908h-10.596
		C111.856,59.245,107.27,64.313,107.854,70.153"/>
</g>
</svg>
