<?xml version="1.0" encoding="utf-8"?>
<!-- Generator: Adobe Illustrator 25.4.1, SVG Export Plug-In . SVG Version: 6.00 Build 0)  -->
<svg version="1.1" id="Layer_1" xmlns="http://www.w3.org/2000/svg" xmlns:xlink="http://www.w3.org/1999/xlink" x="0px" y="0px"
	 viewBox="0 0 255.1 149.2" style="enable-background:new 0 0 255.1 149.2;" xml:space="preserve">
<style type="text/css">
	.st0{fill:#FFFFFF;}
</style>
<g>
	<path class="st0" d="M66.9,47.3l6.2,5.7l1.5,13.8c0.2,1.8,0.7,3,1.5,3.7c0.8,0.6,2.1,0.9,3.9,0.7c1.8-0.2,3-0.7,3.7-1.5
		c0.6-0.8,0.9-2.1,0.7-3.9l-1.8-16c0-0.2,0-0.3-0.1-0.5c-0.1-0.7-0.3-1.4-0.6-1.9c-0.4-0.7-0.9-1.4-1.5-2L61.1,27.4
		c-0.3-0.3-0.8-0.6-1.2-0.8c-0.6-0.4-1.1-0.6-1.7-0.8c-1-0.4-2.1-0.6-3.2-0.6h-0.2c-2.3,0-4.5,0.5-6.6,1.5l-0.9,0.4
		c-3,1.5-5.4,4-6.9,7l-3.7,7.8L34,47.9l0,0l-1.7,3.9l-13.5,7.7c-1.5,0.9-2.4,1.9-2.7,2.9c-0.3,1.1,0,2.5,1,4.2
		c0.1,0.2,0.2,0.4,0.3,0.5l1,1.5H4.8c-2.1,0-3.8,1.7-3.8,3.8V94c0,2.1,1.7,3.8,3.8,3.8h35.2L39,141c-0.1,2.5,0.4,4.3,1.4,5.5
		c1.1,1.1,2.8,1.6,5.4,1.7c2.6,0.2,4.4-0.2,5.6-1.2c1.1-1,1.8-2.7,2-5.3l2.3-29.6l0-8.6l2.8,10l7.9,23.5c0.8,2.4,1.9,3.9,3.2,4.6
		c1.2,0.6,2.8,0.6,4.9,0c0.3-0.1,0.5-0.1,0.7-0.2c2.4-0.8,3.9-1.9,4.6-3.2c0.6-1.3,0.6-3.2-0.2-5.6l-7.6-22.5l-5-32.6V47.3z
		 M40.2,94.1H4.7V72.3h36L40.2,94.1z M40.8,68.6H24.4l14.2-8.1c0.3-0.2,0.5-0.3,0.8-0.5l1.7-1.2L40.8,68.6z"/>
	<path class="st0" d="M200.6,49.5c-1.2-1.1-3.1-1.7-5.8-1.7c-2.7,0-4.6,0.6-5.8,1.7c-1.1,1.2-1.7,3.1-1.7,5.8c0,2.7,0.6,4.6,1.7,5.8
		c1.2,1.1,3.1,1.7,5.8,1.7c2.7,0,4.6-0.6,5.8-1.7c1.1-1.2,1.7-3.1,1.7-5.8C202.3,52.6,201.8,50.7,200.6,49.5z"/>
	<path class="st0" d="M61.9,19.3c1.6-1.6,2.3-4.2,2.3-8c0-3.7-0.8-6.3-2.4-8c-1.6-1.6-4.2-2.3-8-2.3c-3.7,0-6.3,0.8-8,2.4
		c-1.6,1.6-2.4,4.3-2.4,8c0,3.7,0.8,6.3,2.4,8c1.6,1.6,4.2,2.3,8,2.3C57.6,21.7,60.2,20.9,61.9,19.3z"/>
	<path class="st0" d="M251.9,79.3h-14.6l-0.2-0.8c-4.5-17.5-13.4-33.9-25.7-47.3c-4.6-5.1-10.9-8.1-17.8-8.6
		c-10.2-0.7-20.5-1.1-30.7-1.1c-10.2,0-20.5,0.4-30.7,1.1c-6.8,0.5-13.1,3.5-17.8,8.6C102.2,44.7,93.3,61,88.8,78.5l-0.2,0.8H74.1
		c-1.2,0-2.2,1-2.2,2.2v3.2c0,1.2,1,2.2,2.2,2.2H87l-0.2,1.3c-0.2,1-0.3,1.9-0.5,2.9C86.1,92.7,86,94.4,86,96v43.7
		c0,4.7,3.8,8.4,8.4,8.4h9.4c4.7,0,8.4-3.8,8.4-8.4V134h101.3v5.7c0,4.7,3.8,8.4,8.4,8.4h9.5c4.7,0,8.4-3.8,8.4-8.4l0-43.7
		c0-1.6-0.1-3.2-0.3-4.8c-0.1-0.9-0.3-1.9-0.4-2.8l-0.2-1.4h13c1.2,0,2.2-1,2.2-2.2v-3.2C254.1,80.2,253.1,79.3,251.9,79.3z
		 M128.5,108.7c0,2.9-2.4,5.3-5.3,5.3h-19.8c-2.9,0-5.3-2.4-5.3-5.3v-4.3c0-2.9,2.4-5.3,5.3-5.3h19.8c2.9,0,5.3,2.4,5.3,5.3V108.7z
		 M188.2,67.2c-1.1,0.2-2.2,0.5-3.2,0.9c-0.5,0.2-1.1,0.4-1.6,0.6c-0.2,0.1-0.4,0.1-0.6,0.2l-0.7,0.3c-0.2,0.1-0.3,0.2-0.5,0.2
		c-1.3,0.7-2.5,1.8-3.3,3c-0.4,0.6-0.7,1.3-1,2c-0.1,0.2-0.1,0.4-0.2,0.5l-0.9,4.3h-72.5c-1,0-1.8-0.4-2.4-1.2
		c-0.6-0.8-0.7-1.8-0.4-2.7v0c4.5-13.7,11.7-26.1,21.5-36.8c2.8-3,6.5-4.8,10.6-5.1c9.9-0.7,20-1.1,29.9-1.1c10,0,20,0.4,29.9,1.1
		c4.1,0.3,7.8,2.1,10.6,5.1c9.8,10.7,17.1,23.1,21.5,36.8c0.3,0.9,0.1,1.9-0.4,2.7c-0.6,0.8-1.4,1.2-2.4,1.2h-8.8l-0.9-4.3
		c0-0.1-0.1-0.3-0.1-0.5c-0.2-0.8-0.6-1.4-1-2.1c-0.8-1.3-2-2.3-3.3-3c-0.2-0.1-0.3-0.2-0.5-0.2l-0.7-0.3c-0.2-0.1-0.4-0.1-0.5-0.2
		c-0.5-0.2-1.1-0.4-1.6-0.6c-1.1-0.3-2.2-0.6-3.2-0.9C197.1,66.3,192.5,66.3,188.2,67.2z M227.8,108.7c0,2.9-2.4,5.3-5.3,5.3h-19.8
		c-2.9,0-5.3-2.4-5.3-5.3v-4.3c0-2.9,2.4-5.3,5.3-5.3h19.8c2.9,0,5.3,2.4,5.3,5.3V108.7z"/>
</g>
</svg>
