<?xml version="1.0" encoding="utf-8"?>
<!-- Generator: Adobe Illustrator 25.4.1, SVG Export Plug-In . SVG Version: 6.00 Build 0)  -->
<svg version="1.1" id="Layer_1" xmlns="http://www.w3.org/2000/svg" xmlns:xlink="http://www.w3.org/1999/xlink" x="0px" y="0px"
	 viewBox="0 0 255.1 149.2" style="enable-background:new 0 0 255.1 149.2;" xml:space="preserve">
<style type="text/css">
	.st0{fill:#25303B;}
</style>
<g>
	<path class="st0" d="M251.9,78.3h-13.8c-4.6-17.7-13.4-34-25.9-47.7c-4.8-5.2-11.3-8.4-18.4-8.9c-10.2-0.7-20.5-1.1-30.8-1.1
		c-10.2,0-20.6,0.4-30.8,1.1c-7.1,0.5-13.6,3.7-18.4,8.9c-12.5,13.7-21.4,30-25.9,47.7H74.1c-1.8,0-3.2,1.4-3.2,3.2v3.2
		c0,1.8,1.4,3.2,3.2,3.2h11.8c-0.2,1-0.3,2-0.5,3.1c-0.2,1.6-0.3,3.3-0.4,5v39v4.7c0,5.2,4.2,9.4,9.4,9.4h9.4c5.2,0,9.4-4.2,9.4-9.4
		V135h99.3v4.7c0,5.2,4.2,9.4,9.4,9.4h9.4c5.2,0,9.4-4.2,9.4-9.4v-11.8h0V95.9c0-1.6-0.1-3.3-0.4-5c-0.1-1-0.3-2.1-0.5-3.1h11.8
		c1.8,0,3.2-1.4,3.2-3.2v-3.2C255.1,79.7,253.7,78.3,251.9,78.3 M101.9,75.6c4.4-13.5,11.6-25.9,21.3-36.5c2.6-2.8,6.1-4.5,9.9-4.8
		c9.9-0.7,19.9-1,29.9-1c9.9,0,20,0.4,29.9,1c3.8,0.3,7.3,2,9.9,4.8c9.7,10.6,16.9,23,21.3,36.5c0.4,1.3-0.5,2.6-1.9,2.6h-8
		l-0.5-2.2l-0.2-0.8l-0.1-0.6c0-0.2-0.1-0.4-0.2-0.6c-0.3-0.8-0.6-1.6-1.1-2.3c-0.9-1.4-2.2-2.6-3.7-3.4c-0.2-0.1-0.4-0.2-0.6-0.3
		l-0.3-0.1l-0.2-0.1c-0.3-0.1-0.5-0.2-0.8-0.3c-0.5-0.2-1.1-0.4-1.6-0.6c-1.1-0.3-2.2-0.6-3.3-0.9c-2.3-0.5-4.6-0.7-6.9-0.7
		c-2.3,0-4.6,0.2-6.9,0.7c-1.1,0.2-2.2,0.5-3.3,0.9c-0.6,0.2-1.1,0.4-1.6,0.6c-0.3,0.1-0.5,0.2-0.8,0.3l-0.2,0.1l-0.3,0.1
		c-0.2,0.1-0.4,0.2-0.6,0.3c-1.5,0.8-2.8,2-3.7,3.4c-0.4,0.7-0.8,1.5-1.1,2.3c-0.1,0.2-0.1,0.4-0.2,0.6l-0.1,0.6L176,76l-0.5,2.2
		h-71.7C102.4,78.3,101.5,76.9,101.9,75.6 M127.5,108.7c0,2.3-1.9,4.3-4.3,4.3h-19.8c-2.3,0-4.3-1.9-4.3-4.3v-4.3
		c0-2.3,1.9-4.3,4.3-4.3h19.8c2.3,0,4.3,1.9,4.3,4.3V108.7z M226.8,108.7c0,2.3-1.9,4.3-4.3,4.3h-19.8c-2.3,0-4.3-1.9-4.3-4.3v-4.3
		c0-2.3,1.9-4.3,4.3-4.3h19.8c2.3,0,4.3,1.9,4.3,4.3V108.7z M188.3,61.8c-1.6-1.7-2-4.2-2-6.5c0-2.3,0.4-4.9,2-6.5
		c1.7-1.6,4.2-2,6.5-2c2.3,0,4.9,0.4,6.5,2c1.6,1.7,2,4.2,2,6.5c0,2.3-0.4,4.9-2,6.5c-1.7,1.6-4.2,2-6.5,2
		C192.5,63.8,190,63.4,188.3,61.8 M45.2,2.7C47.4,0.5,50.7,0,53.9,0c3.1,0,6.5,0.5,8.7,2.7c2.1,2.2,2.7,5.6,2.7,8.7
		c0,3.1-0.5,6.5-2.7,8.7c-2.2,2.1-5.6,2.7-8.7,2.7c-3.1,0-6.5-0.5-8.7-2.7c-2.1-2.2-2.6-5.6-2.6-8.7C42.5,8.2,43,4.9,45.2,2.7
		 M85.5,65.6c-0.1-0.5-0.1-0.9-0.2-1.4c-0.1-0.5-0.1-0.9-0.2-1.4c0,0,0,0,0,0l-1.5-13.2c0-0.2-0.1-0.4-0.1-0.6
		c-0.1-0.7-0.3-1.5-0.7-2.2c-0.4-0.9-1-1.6-1.7-2.3L61.7,26.6c-0.4-0.4-0.9-0.7-1.4-1c-0.5-0.4-1.1-0.7-1.7-0.9
		c-1.2-0.4-2.4-0.7-3.6-0.7h-0.2c-2.4,0-4.8,0.6-7,1.6l-0.9,0.4c-3.2,1.6-5.8,4.2-7.3,7.5l-3.6,7.7c0,0,0,0.1-0.1,0.1l-2.2,5.1l0,0
		l-2,4.5l-13.2,7.5l0,0c-1.4,0.8-2.7,2-3.2,3.5c-0.4,1.7,0.2,3.5,1.1,5c0.1,0.2,0.2,0.4,0.3,0.6H4.8c-2.7,0-4.8,2.2-4.8,4.8V94
		c0,2.7,2.2,4.8,4.8,4.8H39l-1,42.1c-0.1,2.2,0.3,4.6,1.7,6.2c1.5,1.5,3.9,2,6.1,2c2.2,0.2,4.6,0,6.2-1.4c1.6-1.4,2.2-3.8,2.3-5.9
		l2.3-29.6v-1.4c0.2,0.7,0.4,1.4,0.6,2.1c0,0.2,0.1,0.4,0.2,0.6l0,0.3l7.9,23.6c0.7,2.1,1.8,4.2,3.7,5.2c1.7,0.8,3.7,0.6,5.6,0.1
		c0.3-0.1,0.5-0.2,0.8-0.2c2.1-0.7,4.2-1.8,5.2-3.7c0.9-1.9,0.5-4.3-0.2-6.3c0,0,0,0,0,0c0,0,0,0,0,0l-7.4-22c0-0.1-0.1-0.2-0.1-0.3
		l-5-32.4V49.6l4.3,3.9l1.2,10.6c0.1,0.5,0.1,0.9,0.2,1.4c0.1,0.5,0.1,0.9,0.2,1.4c0.2,1.6,0.6,3.4,1.9,4.4c1.3,1,3.1,1.1,4.7,0.9
		c1.6-0.2,3.4-0.6,4.4-1.9C85.6,69,85.7,67.2,85.5,65.6 M39.1,61.4c0.3-0.2,0.6-0.4,0.9-0.6l-0.2,6.8H28.2L39.1,61.4z M5.7,93.1
		V73.3h34l-0.5,19.8H5.7z"/>
</g>
</svg>
