<?xml version="1.0" encoding="utf-8"?>
<!-- Generator: Adobe Illustrator 25.4.1, SVG Export Plug-In . SVG Version: 6.00 Build 0)  -->
<svg version="1.1" id="Layer_1" xmlns="http://www.w3.org/2000/svg" xmlns:xlink="http://www.w3.org/1999/xlink" x="0px" y="0px"
	 viewBox="0 0 184.252 185.153" enable-background="new 0 0 184.252 185.153" xml:space="preserve">
<g>
	<path fill="#FFFFFF" d="M180.283,89.208h-36.418v21.26h-35.433v21.259H73v21.26H37.566v21.261H3.969
		c-1.637,0-2.969,1.332-2.969,2.969v3.968c0,1.637,1.332,2.968,2.969,2.968h43.504v-21.26h35.434v-21.259h35.432v-21.26h35.433
		V99.113h26.512c1.637,0,2.969-1.332,2.969-2.969v-3.967C183.252,90.54,181.92,89.208,180.283,89.208z"/>
	<path fill="#FFFFFF" d="M65.633,21.677c3.732,0,6.347-0.775,7.992-2.368c1.571-1.622,2.346-4.237,2.346-7.971
		s-0.774-6.348-2.368-7.992C71.98,1.775,69.366,1,65.633,1c-3.725,0-6.335,0.771-7.981,2.358c-1.587,1.645-2.358,4.255-2.358,7.98
		c0,3.734,0.775,6.349,2.369,7.993C59.286,20.903,61.9,21.677,65.633,21.677z"/>
	<path fill="#FFFFFF" d="M29.79,67.231c0.694,0.313,1.569,0.291,2.649-0.082l0.77-0.304l12.938-5.742
		c1.692-0.751,3.087-1.985,4.033-3.568l3.354-5.605v88.402c0,1.98,0.396,3.352,1.209,4.19c0.817,0.792,2.188,1.188,4.169,1.188
		c2.049,0.153,3.448-0.139,4.346-0.885c0.851-0.755,1.35-2.092,1.5-4.067l2.364-31.091l9.701,12.208
		c1.233,1.55,2.396,2.377,3.554,2.526c1.129,0.117,2.451-0.431,4.002-1.664c1.704-1.154,2.619-2.249,2.859-3.393
		c0.198-1.12-0.241-2.478-1.35-4.119L73.077,96.259l2.499-12.493V47.083l7.514,8.389v22.315c0.001,1.83,0.365,3.094,1.11,3.863
		c0.748,0.724,2.012,1.087,3.843,1.087s3.095-0.363,3.865-1.109c0.724-0.748,1.087-2.011,1.087-3.841l0.002-22.69
		c0-2.201-0.809-4.315-2.278-5.954L73.558,29.986c-0.742-0.83-1.62-1.504-2.609-2.006c-0.994-0.504-2.06-0.815-3.17-0.924
		l-0.222-0.022c-2.258-0.224-4.573,0.082-6.697,0.88l-0.944,0.356c-3.136,1.179-5.811,3.412-7.532,6.288L41.845,52.176l-13.396,5.98
		c-1,0.55-1.605,1.184-1.848,1.939c-0.267,0.932-0.031,2.271,0.712,3.947C28.057,65.716,28.89,66.789,29.79,67.231z"/>
</g>
</svg>
