<?xml version="1.0" encoding="utf-8"?>
<!-- Generator: Adobe Illustrator 25.4.1, SVG Export Plug-In . SVG Version: 6.00 Build 0)  -->
<svg version="1.1" id="Layer_1" xmlns="http://www.w3.org/2000/svg" xmlns:xlink="http://www.w3.org/1999/xlink" x="0px" y="0px"
	 viewBox="0 0 184.252 185.153" enable-background="new 0 0 184.252 185.153" xml:space="preserve">
<g>
	<path fill="#25303B" d="M48.473,185.152H3.969c-2.192,0-3.969-1.776-3.969-3.968v-3.968c0-2.192,1.777-3.969,3.969-3.969h32.598
		v-21.26H72v-21.26h35.433v-21.259h35.433v-21.26h37.418c2.192,0,3.968,1.776,3.968,3.969v3.967c0,2.193-1.776,3.969-3.968,3.969
		h-25.512v21.26h-35.433v21.26H83.907v21.259H48.473V185.152z M56.945,2.65C59.148,0.516,62.511,0,65.633,0
		c3.122,0,6.486,0.516,8.688,2.65c2.134,2.202,2.65,5.566,2.65,8.688c0,3.123-0.516,6.487-2.65,8.689
		c-2.202,2.133-5.566,2.65-8.688,2.65c-3.122,0-6.485-0.517-8.688-2.65c-2.135-2.202-2.651-5.566-2.651-8.689
		C54.294,8.216,54.81,4.852,56.945,2.65 M93.997,55.097c0-2.448-0.9-4.8-2.533-6.621L74.303,29.318
		c-0.824-0.922-1.803-1.674-2.902-2.231c-1.102-0.559-2.284-0.905-3.524-1.027l-0.222-0.022c-2.407-0.237-4.878,0.087-7.147,0.939
		l-0.945,0.356c-3.347,1.258-6.2,3.64-8.037,6.71L41.15,51.39l-13.197,5.855l0.015,0.034c-1.026,0.564-1.945,1.35-2.318,2.51
		c-0.416,1.45,0.086,3.159,0.75,4.658c0.665,1.498,1.596,3.017,2.95,3.681c1.11,0.502,2.31,0.348,3.416-0.034l0.015,0.034
		l0.728-0.323c0.003-0.002,0.007-0.003,0.009-0.004c0.003-0.001,0.006-0.003,0.01-0.004l13.026-5.78
		c1.882-0.835,3.434-2.209,4.486-3.97l1.496-2.5v84.784c0,1.756,0.29,3.648,1.491,4.887c1.239,1.201,3.131,1.491,4.887,1.491
		c1.751,0.133,3.66-0.013,4.986-1.116c1.291-1.144,1.724-3.009,1.857-4.76l2.171-28.548l8.115,10.211
		c1.093,1.374,2.497,2.675,4.208,2.897c1.717,0.17,3.378-0.78,4.753-1.873c1.455-0.983,2.861-2.283,3.215-3.971
		c0.302-1.699-0.517-3.429-1.5-4.884L74.14,96.045l2.436-12.18V49.698l5.514,6.156v19.121v0.003v1.403v1.406
		c0.001,1.639,0.272,3.403,1.392,4.559c1.156,1.12,2.922,1.391,4.561,1.391c1.64,0,3.405-0.271,4.561-1.391
		c1.121-1.156,1.392-2.92,1.392-4.559v-1.406v-1.403h0.001V55.097z"/>
</g>
</svg>
