<?xml version="1.0" encoding="utf-8"?>
<!-- Generator: Adobe Illustrator 25.4.1, SVG Export Plug-In . SVG Version: 6.00 Build 0)  -->
<svg version="1.1" id="Layer_1" xmlns="http://www.w3.org/2000/svg" xmlns:xlink="http://www.w3.org/1999/xlink" x="0px" y="0px"
	 viewBox="0 0 210.331 153.463" enable-background="new 0 0 210.331 153.463" xml:space="preserve">
<g>
	<path fill="#25303B" d="M181.984,11.731h-38.847c-6.886,0-13.361,2.681-18.231,7.55L96.757,47.43l-16.23-18.116
		c-0.825-0.921-1.802-1.671-2.902-2.228c-1.101-0.559-2.283-0.904-3.51-1.025l-0.237-0.024c-2.411-0.238-4.879,0.089-7.141,0.94
		l-0.949,0.356c-3.347,1.259-6.201,3.642-8.036,6.711L46.787,52.38l-10.45,10.449l-0.002,0.003c-0.001,0-0.001,0.001-0.002,0.002
		l-0.568,0.568l0.026,0.026c-0.754,0.895-1.33,1.958-1.26,3.176c0.133,1.502,1.216,2.917,2.374,4.076
		c1.159,1.159,2.574,2.242,4.076,2.375c1.218,0.069,2.281-0.507,3.176-1.261l0.026,0.027l11.196-11.196
		c0.577-0.577,1.081-1.223,1.496-1.918l1.801-3.011v29.815l-7.19,7.19c-2.625,2.624-6.113,4.069-9.822,4.069H28.346
		C12.716,96.77,0,109.487,0,125.116c0,15.63,12.716,28.347,28.346,28.347h31.869c6.89,0,13.366-2.682,18.235-7.551l73.434-73.433
		c2.616-2.615,6.094-4.055,9.796-4.055h20.304c15.63,0,28.347-12.716,28.347-28.347C210.331,24.447,197.614,11.731,181.984,11.731
		 M82.771,49.66l5.547,6.193v0.015l-5.547,5.549V49.66z M181.984,56.518H161.68c-6.882,0-13.349,2.679-18.214,7.542l-73.434,73.433
		c-2.62,2.622-6.107,4.064-9.817,4.064H28.346c-9.065,0-16.441-7.375-16.441-16.441c0-9.065,7.376-16.44,16.441-16.44h13.318
		c6.889,0,13.366-2.684,18.24-7.556l73.42-73.42c2.621-2.621,6.106-4.064,9.813-4.064h38.847c9.065,0,16.44,7.375,16.44,16.441
		S191.049,56.518,181.984,56.518 M67.605,22.677c3.122,0,6.486-0.517,8.688-2.65c2.134-2.202,2.65-5.566,2.65-8.688
		c0-3.122-0.516-6.486-2.65-8.688C74.091,0.516,70.727,0,67.605,0c-3.122,0-6.485,0.516-8.688,2.651
		c-2.134,2.202-2.651,5.566-2.651,8.688c0,3.122,0.517,6.486,2.651,8.688C61.12,22.16,64.483,22.677,67.605,22.677"/>
</g>
</svg>
