<?xml version="1.0" encoding="utf-8"?>
<!-- Generator: Adobe Illustrator 25.4.1, SVG Export Plug-In . SVG Version: 6.00 Build 0)  -->
<svg version="1.1" id="Layer_1" xmlns="http://www.w3.org/2000/svg" xmlns:xlink="http://www.w3.org/1999/xlink" x="0px" y="0px"
	 viewBox="0 0 210.331 153.463" enable-background="new 0 0 210.331 153.463" xml:space="preserve">
<g>
	<path fill="#FFFFFF" d="M67.605,21.677c3.732,0,6.347-0.775,7.992-2.368c1.571-1.622,2.346-4.236,2.346-7.97
		s-0.774-6.348-2.368-7.992C73.953,1.775,71.339,1,67.605,1c-3.733,0-6.347,0.775-7.992,2.369c-1.572,1.623-2.347,4.237-2.347,7.97
		s0.775,6.347,2.369,7.992C61.259,20.902,63.873,21.677,67.605,21.677z"/>
	<path fill="#FFFFFF" d="M181.984,12.731h-38.848c-6.619,0-12.843,2.577-17.523,7.257L96.717,48.884L79.782,29.982
		c-0.742-0.829-1.62-1.502-2.609-2.003c-0.991-0.503-2.053-0.813-3.156-0.922l-0.239-0.024c-2.254-0.223-4.566,0.083-6.689,0.881
		l-0.949,0.356c-3.136,1.18-5.811,3.413-7.529,6.288l-11.116,18.53L36.556,64.072c-0.736,0.874-1.072,1.684-1.026,2.475
		c0.086,0.966,0.788,2.13,2.083,3.426s2.458,1.998,3.457,2.086c0.755,0.04,1.57-0.293,2.444-1.029l0.301-0.254l10.857-10.857
		c0.519-0.52,0.972-1.099,1.345-1.724l3.659-6.119v33.85l-7.483,7.483c-2.813,2.812-6.553,4.361-10.529,4.361H28.346
		C13.268,97.77,1,110.037,1,125.116s12.268,27.347,27.346,27.347h31.869c6.623,0,12.848-2.577,17.528-7.258l73.434-73.433
		c2.805-2.804,6.535-4.348,10.503-4.348h20.305c15.079,0,27.347-12.268,27.347-27.347C209.331,24.998,197.063,12.731,181.984,12.731
		z M81.771,47.045l7.547,8.426v0.796l-0.293,0.308l-7.254,7.257V47.045z M181.984,57.518H161.68c-6.612,0-12.83,2.575-17.507,7.25
		L70.739,138.2c-2.807,2.81-6.545,4.356-10.524,4.356H28.346c-9.617,0-17.441-7.824-17.441-17.44s7.824-17.44,17.441-17.44h13.318
		c6.621,0,12.847-2.579,17.533-7.263l73.42-73.42c2.81-2.81,6.546-4.357,10.52-4.357h38.848c9.616,0,17.439,7.824,17.439,17.441
		S191.601,57.518,181.984,57.518z"/>
</g>
</svg>
