<?xml version="1.0" encoding="utf-8"?>
<!-- Generator: Adobe Illustrator 25.4.1, SVG Export Plug-In . SVG Version: 6.00 Build 0)  -->
<svg version="1.1" id="Layer_1" xmlns="http://www.w3.org/2000/svg" xmlns:xlink="http://www.w3.org/1999/xlink" x="0px" y="0px"
	 viewBox="0 0 198.6 189.7" style="enable-background:new 0 0 198.6 189.7;" xml:space="preserve">
<style type="text/css">
	.st0{fill:#25303B;}
</style>
<g>
	<path class="st0" d="M135.9,126.8c11.7,0,21.3,9.5,21.3,21.3s-9.5,21.3-21.3,21.3c-11.7,0-21.3-9.5-21.3-21.3
		S124.2,126.8,135.9,126.8 M96.8,27.6h101.8V0H43.1H21.8C9.8,0,0,9.8,0,21.8v55.4v55.4c0,12,9.8,21.8,21.8,21.8h9.6h10.5v-11.6H22
		V29.6c0-1.1,0.9-2,2-2h57c1.1,0,2,0.9,2,2v113.3h-20v11.6h43.1c1.2,0,2.1-1.1,2-2.3c-0.2-1.3-0.3-2.7-0.3-4.1
		c0-16.4,14-29.6,30.7-28.3c12.4,1,22.8,10.2,25.4,22.4c0.7,3.4,0.8,6.8,0.3,10c-0.2,1.2,0.7,2.3,2,2.3h32.5l0-63.1H96.8
		c-1.1,0-2-0.9-2-2V29.6C94.8,28.5,95.7,27.6,96.8,27.6 M52.4,189.7l19.2-19.2c1.2-1.2,1.2-3.2,0-4.4l-2.2-2.2
		c-1.2-1.2-3.2-1.2-4.4,0l-2.3,2.3c-2.5,2.5-5.7,6.4-5.9,6.6c0.3-1.6,0.3-8.7,0.3-8.7l0-34.8c0-1.8-1.4-3.2-3.2-3.2h-3.2
		c-1.8,0-3.2,1.4-3.2,3.2v34.8c0,0,0,7.1,0.3,8.7c-0.1-0.2-3.3-4.1-5.9-6.6l-2.3-2.3c-1.2-1.2-3.2-1.2-4.4,0l-2.2,2.2
		c-1.2,1.2-1.2,3.2,0,4.4L52.4,189.7z"/>
</g>
</svg>
