<?xml version="1.0" encoding="utf-8"?>
<!-- Generator: Adobe Illustrator 25.4.1, SVG Export Plug-In . SVG Version: 6.00 Build 0)  -->
<svg version="1.1" id="Layer_1" xmlns="http://www.w3.org/2000/svg" xmlns:xlink="http://www.w3.org/1999/xlink" x="0px" y="0px"
	 viewBox="0 0 216.295 193.007" enable-background="new 0 0 216.295 193.007" xml:space="preserve">
<g>
	<path fill="#25303B" d="M209.817,180.2c2.349,0,4.252,1.903,4.252,4.252v4.252c0,2.346-1.903,4.252-4.252,4.252h-4.252
		c-2.348,0-4.252-1.906-4.252-4.252v-4.252c0-2.349,1.904-4.252,4.252-4.252H209.817 M185.723,184.452
		c0-2.349-1.904-4.252-4.252-4.252h-4.252c-2.348,0-4.252,1.903-4.252,4.252v4.252c0,2.346,1.904,4.252,4.252,4.252h4.252
		c2.348,0,4.252-1.906,4.252-4.252V184.452 M157.376,184.452c0-2.349-1.903-4.252-4.252-4.252h-4.252
		c-2.348,0-4.252,1.903-4.252,4.252v4.252c0,2.346,1.904,4.252,4.252,4.252h4.252c2.349,0,4.252-1.906,4.252-4.252V184.452
		 M129.03,184.452c0-2.349-1.904-4.252-4.252-4.252h-4.252c-2.348,0-4.252,1.903-4.252,4.252v4.252c0,2.346,1.904,4.252,4.252,4.252
		h4.252c2.348,0,4.252-1.906,4.252-4.252V184.452 M100.682,184.452c0-2.349-1.903-4.252-4.25-4.252H92.18
		c-2.349,0-4.252,1.903-4.252,4.252v4.252c0,2.346,1.903,4.252,4.252,4.252h4.252c2.347,0,4.25-1.906,4.25-4.252V184.452
		 M37.384,31.611c2.754,2.667,6.957,3.313,10.859,3.313c3.901,0,8.107-0.646,10.86-3.313c2.667-2.752,3.314-6.957,3.314-10.861
		c0-3.902-0.647-8.106-3.314-10.859c-2.753-2.668-6.959-3.314-10.86-3.314c-3.902,0-8.105,0.646-10.859,3.314
		c-2.668,2.753-3.315,6.957-3.315,10.859C34.069,24.654,34.716,28.859,37.384,31.611 M87.494,99.354
		c0.18,1.629,0.104,3.412-0.882,4.685c-1.024,1.241-2.751,1.705-4.38,1.884c-1.629,0.182-3.414,0.107-4.686-0.88
		c-1.24-1.024-1.704-2.749-1.885-4.377l-0.358-3.224l-0.359-3.226c-0.001-0.01-0.002-0.021-0.003-0.031l-2.386-21.518
		c-0.06-0.076-0.126-0.146-0.184-0.225l-8.536-7.827v38.967l6.305,40.87c0.005,0.021,0.013,0.042,0.021,0.063l10.042,29.837
		c0.002,0.007,0.004,0.013,0.006,0.02l0.007,0.019c0.697,2.069,1.101,4.412,0.172,6.353c-0.993,1.908-3.119,3.006-5.199,3.708
		c-0.258,0.087-0.523,0.17-0.792,0.247c-1.872,0.534-3.888,0.747-5.591-0.067c-1.916-0.987-3.015-3.113-3.715-5.193l-10.5-31.198
		l-0.035-0.23c-0.287-1-0.543-2.007-0.839-3.003l-1.392-4.975l-2.664-9.534v16.165l-2.962,38.946
		c-0.166,2.188-0.707,4.519-2.321,5.95c-1.657,1.379-4.043,1.562-6.234,1.396c-2.193-0.055-4.548-0.476-6.06-2.014
		c-1.462-1.585-1.768-3.958-1.712-6.152l2.644-107.575l-0.271,0.618c-0.384,0.871-0.9,1.668-1.539,2.375
		c-0.632,0.698-1.368,1.289-2.189,1.756l-15.252,8.648c0,0.001-0.003,0.003-0.005,0.004l-3.819,2.165
		c-1.527,0.865-3.316,1.547-4.986,1.114c-1.655-0.486-2.842-1.988-3.707-3.516c-0.866-1.528-1.547-3.317-1.114-4.987
		c0.486-1.655,1.988-2.841,3.515-3.707l2.325-1.319l15.499-8.787l5.554-12.592c0.022-0.046,0.041-0.091,0.064-0.136l4.519-9.584
		c1.766-3.741,4.78-6.807,8.488-8.633l1.135-0.56c2.512-1.237,5.317-1.89,8.114-1.89h0.29c1.356,0,2.687,0.249,3.954,0.741
		c1.266,0.492,2.417,1.208,3.419,2.126l0.003,0.002l9.163,8.402l15.237,13.971c0.747,0.687,1.356,1.491,1.815,2.391
		c0,0.001,0.001,0.003,0.001,0.003l0.001,0.001v0.001c0.464,0.913,0.755,1.891,0.866,2.907l2.682,24.177h-0.001l0.359,3.223
		L87.494,99.354"/>
	<path fill="#25303B" d="M125.741,105.162V82.84l-1.214-8.906h6.651l0.578,3.296c2.313-2.486,5.262-4.106,9.021-4.106
		s6.593,1.62,8.039,4.974c2.429-3.008,5.552-4.974,9.715-4.974c5.61,0,8.964,3.586,8.964,11.219v20.819h-6.477V86.425
		c0-4.973-1.677-7.113-4.973-7.113c-2.429,0-4.453,1.157-6.188,3.239c0.058,0.578,0.058,1.156,0.058,1.792v20.819h-6.651V86.425
		c0-4.973-1.677-7.113-5.031-7.113c-2.256,0-4.221,0.983-5.842,2.776v23.074H125.741z"/>
	<path fill="#25303B" d="M174.605,60.748h7.055v7.518h-7.055V60.748z M174.835,73.934h6.593v31.228h-6.593V73.934z"/>
	<path fill="#25303B" d="M189.291,105.162V82.84l-1.214-8.906h6.651l0.635,3.412c2.488-2.545,5.726-4.222,9.485-4.222
		c5.379,0,9.195,3.586,9.195,10.757v21.281h-6.593V85.963c0-4.742-1.793-6.651-5.146-6.651c-2.314,0-4.512,0.983-6.363,2.892v22.958
		H189.291z"/>
	<g>
		<path fill="#25303B" d="M138.379,52.54c-8.791,0-14.574-4.662-14.574-11.742c0-4.957,2.833-8.497,7.671-10.385
			c-4.366-2.36-6.845-5.724-6.845-10.503c0-7.729,6.195-13.335,15.105-13.335c8.143,0,14.103,4.366,14.103,11.565
			c0,4.897-2.597,8.143-8.143,10.208c5.782,2.537,8.851,5.605,8.851,10.68C154.547,46.875,147.938,52.54,138.379,52.54z
			 M139.028,46.167c3.895,0,6.55-2.183,6.55-5.959s-2.714-5.665-8.615-7.553c-0.354-0.118-0.767-0.236-1.121-0.354
			c-2.242,1.829-3.481,4.602-3.481,7.494C132.36,43.984,135.075,46.167,139.028,46.167z M140.857,26.518
			c3.187-1.947,4.779-4.662,4.779-7.435c0-3.6-2.478-5.96-6.195-5.96c-3.54,0-5.842,2.242-5.842,5.901c0,3.658,2.42,5.9,7.022,7.435
			L140.857,26.518z"/>
	</g>
</g>
</svg>
