<?xml version="1.0" encoding="utf-8"?>
<!-- Generator: Adobe Illustrator 25.4.1, SVG Export Plug-In . SVG Version: 6.00 Build 0)  -->
<svg version="1.1" id="Layer_1" xmlns="http://www.w3.org/2000/svg" xmlns:xlink="http://www.w3.org/1999/xlink" x="0px" y="0px"
	 viewBox="0 0 259.658 192.928" enable-background="new 0 0 259.658 192.928" xml:space="preserve">
<g>
	<g>
		<path fill="#25303B" d="M16.816,52.54c-8.792,0-14.574-4.662-14.574-11.742c0-4.957,2.833-8.497,7.671-10.385
			c-4.367-2.36-6.845-5.724-6.845-10.503c0-7.729,6.195-13.335,15.105-13.335c8.143,0,14.103,4.366,14.103,11.565
			c0,4.897-2.597,8.143-8.143,10.208c5.783,2.537,8.851,5.605,8.851,10.68C32.984,46.875,26.375,52.54,16.816,52.54z M17.466,46.167
			c3.894,0,6.549-2.183,6.549-5.959s-2.714-5.665-8.615-7.553c-0.354-0.118-0.767-0.236-1.121-0.354
			c-2.242,1.829-3.481,4.602-3.481,7.494C10.798,43.984,13.512,46.167,17.466,46.167z M19.295,26.518
			c3.186-1.947,4.779-4.662,4.779-7.435c0-3.6-2.478-5.96-6.195-5.96c-3.541,0-5.842,2.242-5.842,5.901
			c0,3.658,2.419,5.9,7.022,7.435L19.295,26.518z"/>
	</g>
	<path fill="#25303B" d="M10.663,180.171c2.349,0,4.252,1.905,4.252,4.252v4.252c0,2.349-1.903,4.252-4.252,4.252H6.411
		c-2.348,0-4.252-1.903-4.252-4.252v-4.252c0-2.347,1.904-4.252,4.252-4.252H10.663 M43.262,184.423
		c0-2.347-1.905-4.252-4.252-4.252h-4.252c-2.349,0-4.252,1.905-4.252,4.252v4.252c0,2.349,1.903,4.252,4.252,4.252h4.252
		c2.347,0,4.252-1.903,4.252-4.252V184.423 M71.608,184.423c0-2.347-1.904-4.252-4.252-4.252h-4.251
		c-2.349,0-4.251,1.905-4.251,4.252v4.252c0,2.349,1.902,4.252,4.251,4.252h4.251c2.348,0,4.252-1.903,4.252-4.252V184.423
		 M99.955,184.423c0-2.347-1.904-4.252-4.252-4.252h-4.252c-2.347,0-4.252,1.905-4.252,4.252v4.252c0,2.349,1.905,4.252,4.252,4.252
		h4.252c2.348,0,4.252-1.903,4.252-4.252V184.423 M170.788,40.75c-2.203,2.134-5.566,2.649-8.687,2.649
		c-3.122,0-6.488-0.515-8.689-2.649c-2.134-2.202-2.651-5.565-2.651-8.688s0.517-6.486,2.651-8.688
		c2.201-2.134,5.567-2.651,8.689-2.651c3.121,0,6.484,0.517,8.687,2.651c2.134,2.202,2.65,5.565,2.65,8.688
		S172.922,38.548,170.788,40.75 M95.445,155.646c0-16.787,13.66-30.444,30.447-30.444c4.7,0,9.154,1.072,13.133,2.982l7.176-9.579
		l-4.631-6.341c-1.235-1.458-1.987-3.263-2.241-5.136c-0.131-0.937-0.114-1.884,0.007-2.839l0.205-1.784l0.43-3.742
		c0.056-0.536,0.129-1.076,0.185-1.613l0.184-1.605l0.368-3.202l1.474-12.814l1.471-12.813l0.736-6.407l0.368-3.205
		c0.147-2.073,0.805-4.206,1.947-5.96c2.264-3.531,6.393-5.866,10.672-5.473c1.073,0.058,2.115,0.213,3.192,0.485
		c0.856,0.219,1.694,0.505,2.502,0.86l0.601,0.276l0.485,0.245c0.314,0.157,0.619,0.329,0.926,0.497
		c0.611,0.344,1.207,0.714,1.791,1.101c1.164,0.782,2.27,1.65,3.301,2.598c0.514,0.477,1.014,0.969,1.491,1.483
		c0.238,0.257,0.473,0.515,0.702,0.783l0.598,0.709l4.118,4.965l16.47,19.853c1.121,1.351,2.106,2.994,1.972,4.714
		c-0.106,0.969-0.564,1.845-1.181,2.63c0.189,0.015,0.376,0.035,0.559,0.068c0.806,0.14,1.504,0.361,2.227,0.73
		c0.717,0.369,1.373,0.854,1.901,1.393c0.551,0.54,1.036,1.229,1.431,1.985l1.153,2.1l1.228,2.234l2.456,4.472l9.823,17.883
		l4.884,8.892c2.907-0.922,5.999-1.425,9.207-1.425c16.788,0,30.445,13.657,30.445,30.444c0,16.786-13.657,30.443-30.445,30.443
		c-16.787,0-30.443-13.657-30.443-30.443c0-9.315,4.21-17.662,10.821-23.251l-4.903-8.929l-9.824-17.883l-3.758-6.84h-5.736
		c-2.192,0-3.968-1.777-3.968-3.97v-3.967c0-1.497,0.839-2.785,2.062-3.461l-16.022-19.314l-2.645,26.823l25.284,9.801
		c1.352,0.543,2.338,1.36,3.015,2.164c0.366,0.408,0.593,0.798,0.843,1.208c0.241,0.431,0.501,1.027,0.661,1.612
		c0.084,0.292,0.141,0.578,0.182,0.833c0.046,0.25,0.059,0.473,0.072,0.72c0.037,0.469,0.02,0.999-0.067,1.558
		c-0.043,0.285-0.083,0.566-0.182,0.871l-0.124,0.448l-0.187,0.462c-0.236,0.617-0.644,1.244-1.023,1.863l-6.025,9.741
		l-9.214,14.903c-0.395,0.636-0.852,1.262-1.371,1.809l-0.035,0.415l-0.586,7.077l-1.173,14.156c-0.145,1.75-0.59,3.611-1.888,4.747
		c-1.333,1.093-3.244,1.226-4.995,1.082c-1.753-0.105-3.624-0.497-4.796-1.753c-1.13-1.292-1.328-3.178-1.244-4.917
		c0.191-4.105,0.353-8.211,0.45-12.28c0.045-2.033,0.076-4.06,0.063-6.035c-0.004-0.993-0.02-1.962-0.06-2.885
		c-0.008-0.496-0.048-0.878-0.075-1.3l-0.021-0.313l-0.009-0.153l-0.014-0.071l-8.733-11.956l-5,6.673
		c4.84,5.393,7.79,12.512,7.79,20.312c0,16.786-13.657,30.443-30.443,30.443C109.105,186.089,95.445,172.432,95.445,155.646
		 M214.369,141.093c-3.681,3.755-5.961,8.891-5.961,14.553c0,11.473,9.333,20.806,20.805,20.806
		c11.474,0,20.807-9.333,20.807-20.806c0-11.474-9.333-20.807-20.807-20.807c-1.521,0-3,0.175-4.429,0.488l9.984,18.173
		c1.054,1.92,0.353,4.334-1.569,5.389l-3.478,1.91c-1.921,1.056-4.334,0.355-5.389-1.566L214.369,141.093 M170.694,116.084
		c-2.268-0.405-4.536-0.849-6.805-1.333c-0.129,0.233-0.268,0.459-0.431,0.676l-0.438,0.585l7.436,10.209l4.624-9.395
		L170.694,116.084 M105.084,155.646c0,11.473,9.334,20.806,20.808,20.806c11.472,0,20.805-9.333,20.805-20.806
		c0-4.632-1.54-8.898-4.108-12.359l-11.933,15.927c-1.17,1.562-2.959,2.384-4.77,2.384c-1.24,0-2.493-0.387-3.565-1.187
		c-2.631-1.972-3.166-5.702-1.195-8.334l11.938-15.935c-2.24-0.827-4.65-1.303-7.172-1.303
		C114.418,134.839,105.084,144.172,105.084,155.646"/>
	<path fill="#25303B" d="M4.187,105.083V82.761l-1.214-8.906h6.651l0.578,3.296c2.313-2.486,5.262-4.106,9.021-4.106
		s6.593,1.62,8.039,4.974c2.429-3.008,5.552-4.974,9.715-4.974c5.61,0,8.964,3.586,8.964,11.219v20.819h-6.477V86.346
		c0-4.973-1.677-7.113-4.973-7.113c-2.429,0-4.453,1.157-6.188,3.239c0.058,0.578,0.058,1.156,0.058,1.792v20.819h-6.651V86.346
		c0-4.973-1.677-7.113-5.031-7.113c-2.256,0-4.221,0.983-5.842,2.776v23.074H4.187z"/>
	<path fill="#25303B" d="M53.05,60.669h7.055v7.518H53.05V60.669z M53.28,73.855h6.593v31.228H53.28V73.855z"/>
	<path fill="#25303B" d="M67.736,105.083V82.761l-1.214-8.906h6.651l0.635,3.412c2.488-2.545,5.726-4.222,9.485-4.222
		c5.379,0,9.195,3.586,9.195,10.757v21.281h-6.593V85.884c0-4.742-1.793-6.651-5.146-6.651c-2.314,0-4.512,0.983-6.363,2.892v22.958
		H67.736z"/>
</g>
</svg>
