<?xml version="1.0" encoding="utf-8"?>
<!-- Generator: Adobe Illustrator 25.4.1, SVG Export Plug-In . SVG Version: 6.00 Build 0)  -->
<svg version="1.1" id="Layer_1" xmlns="http://www.w3.org/2000/svg" xmlns:xlink="http://www.w3.org/1999/xlink" x="0px" y="0px"
	 viewBox="0 0 259.596 192.928" enable-background="new 0 0 259.596 192.928" xml:space="preserve">
<g>
	<g>
		<path fill="#FFFFFF" d="M10.601,181.171H6.349c-1.793,0-3.252,1.459-3.252,3.252v4.252c0,1.793,1.459,3.252,3.252,3.252h4.252
			c1.793,0,3.252-1.459,3.252-3.252v-4.252C13.853,182.63,12.394,181.171,10.601,181.171z"/>
		<path fill="#FFFFFF" d="M95.641,181.171h-4.252c-1.793,0-3.252,1.459-3.252,3.252v4.252c0,1.793,1.459,3.252,3.252,3.252h4.252
			c1.793,0,3.252-1.459,3.252-3.252v-4.252C98.893,182.63,97.434,181.171,95.641,181.171z"/>
		<path fill="#FFFFFF" d="M67.293,181.171h-4.251c-1.792,0-3.251,1.459-3.251,3.252v4.252c0,1.793,1.458,3.252,3.251,3.252h4.251
			c1.793,0,3.252-1.459,3.252-3.252v-4.252C70.545,182.63,69.086,181.171,67.293,181.171z"/>
		<path fill="#FFFFFF" d="M229.15,126.202c-3.025,0-6.021,0.464-8.904,1.378l-0.783,0.248l-19.94-36.301
			c-0.369-0.707-0.799-1.306-1.254-1.752c-0.476-0.485-1.045-0.901-1.659-1.218c-0.608-0.311-1.208-0.506-1.939-0.634
			c-0.156-0.028-0.312-0.044-0.469-0.056l-1.858-0.149l1.152-1.466c0.579-0.737,0.897-1.431,0.974-2.121
			c0.088-1.134-0.483-2.442-1.748-3.966L171.54,54.644c-0.216-0.252-0.441-0.5-0.671-0.747c-0.431-0.464-0.901-0.932-1.438-1.431
			c-0.98-0.901-2.051-1.744-3.178-2.5c-0.603-0.399-1.168-0.747-1.724-1.06l-0.167-0.092c-0.237-0.13-0.475-0.261-0.717-0.383
			l-1.055-0.506c-0.732-0.321-1.521-0.592-2.333-0.8c-0.994-0.251-1.976-0.4-2.998-0.456c-3.792-0.349-7.602,1.624-9.776,5.014
			c-1.016,1.559-1.65,3.507-1.792,5.491l-4.604,40.089c-0.027,0.267-0.061,0.542-0.094,0.818c-0.031,0.263-0.062,0.525-0.091,0.786
			l-0.636,5.535c-0.119,0.941-0.122,1.783-0.01,2.586c0.238,1.755,0.935,3.354,2.014,4.628l5.112,6.996l-8.112,10.828l-0.74-0.355
			c-3.987-1.913-8.26-2.884-12.701-2.884c-16.237,0-29.447,13.209-29.447,29.444c0,16.234,13.21,29.442,29.447,29.442
			c16.235,0,29.443-13.208,29.443-29.442c0-7.254-2.676-14.23-7.534-19.645l-0.548-0.611l6.302-8.411l9.663,13.229l0.128,1.238
			c0.022,0.308,0.045,0.618,0.052,0.989c0.039,0.91,0.056,1.892,0.06,2.898c0.011,1.719-0.009,3.646-0.063,6.062
			c-0.087,3.64-0.229,7.549-0.45,12.304c-0.095,1.96,0.231,3.338,0.997,4.213c0.77,0.823,2.119,1.294,4.104,1.413
			c1.998,0.163,3.398-0.117,4.301-0.857c0.854-0.748,1.361-2.082,1.526-4.057l1.823-21.999l0.241-0.255
			c0.428-0.451,0.848-1.006,1.248-1.648l15.38-24.872c0.32-0.521,0.623-1.012,0.797-1.464l0.281-0.819
			c0.082-0.256,0.114-0.47,0.151-0.719c0.076-0.492,0.097-0.95,0.063-1.364c-0.012-0.23-0.021-0.414-0.058-0.619
			c-0.039-0.24-0.088-0.486-0.16-0.737c-0.126-0.463-0.339-0.981-0.572-1.4l-0.036-0.058c-0.215-0.354-0.401-0.66-0.679-0.97
			c-0.501-0.594-1.346-1.383-2.644-1.904l-25.98-10.071l2.955-29.963l18.322,22.087l-1.058,0.584
			c-0.953,0.527-1.545,1.518-1.545,2.586v3.967c0,1.638,1.331,2.97,2.968,2.97h6.328l19.163,34.888l-0.625,0.528
			c-6.651,5.624-10.467,13.82-10.467,22.487c0,16.234,13.208,29.442,29.443,29.442c16.236,0,29.445-13.208,29.445-29.442
			C258.596,139.411,245.387,126.202,229.15,126.202z M147.635,155.647c0,12.023-9.782,21.806-21.805,21.806
			c-12.025,0-21.808-9.782-21.808-21.806c0-12.024,9.783-21.808,21.808-21.808c2.535,0,5.065,0.459,7.519,1.365l1.258,0.465
			l-12.743,17.008c-1.637,2.186-1.191,5.297,0.994,6.935c0.865,0.645,1.891,0.986,2.966,0.986c1.579,0,3.026-0.723,3.969-1.983
			l12.737-17l0.799,1.077C146.146,146.487,147.635,150.967,147.635,155.647z M164.035,113.774c2.225,0.475,4.503,0.921,6.771,1.326
			l5.7,0.965l-5.947,12.083l-8.846-12.145l0.882-1.176c0.135-0.181,0.249-0.367,0.355-0.56l0.358-0.649L164.035,113.774z
			 M229.15,177.452c-12.023,0-21.805-9.782-21.805-21.806c0-5.729,2.219-11.146,6.247-15.254l0.942-0.961l10.611,19.32
			c0.381,0.695,1.011,1.199,1.771,1.421c0.761,0.22,1.562,0.132,2.258-0.25l3.479-1.911c0.695-0.381,1.2-1.011,1.422-1.772
			c0.222-0.761,0.133-1.563-0.248-2.258l-10.628-19.345l1.307-0.286c1.547-0.34,3.108-0.512,4.643-0.512
			c12.024,0,21.807,9.783,21.807,21.808C250.957,167.67,241.175,177.452,229.15,177.452z"/>
		<path fill="#FFFFFF" d="M38.947,181.171h-4.252c-1.793,0-3.252,1.459-3.252,3.252v4.252c0,1.793,1.459,3.252,3.252,3.252h4.252
			c1.793,0,3.252-1.459,3.252-3.252v-4.252C42.2,182.63,40.741,181.171,38.947,181.171z"/>
		<path fill="#FFFFFF" d="M162.038,42.399c3.725,0,6.336-0.771,7.98-2.356c1.586-1.644,2.356-4.255,2.356-7.98
			c0-3.734-0.774-6.348-2.367-7.992c-1.624-1.572-4.238-2.347-7.97-2.347c-3.733,0-6.348,0.775-7.992,2.369
			c-1.572,1.623-2.348,4.237-2.348,7.97c0,3.733,0.775,6.347,2.369,7.992C155.688,41.625,158.303,42.399,162.038,42.399z"/>
	</g>
	<path fill="#FFFFFF" d="M4.124,105.083V82.761L2.91,73.855h6.651l0.578,3.296c2.313-2.486,5.262-4.106,9.021-4.106
		s6.593,1.62,8.039,4.974c2.429-3.008,5.552-4.974,9.715-4.974c5.61,0,8.964,3.586,8.964,11.219v20.819h-6.477V86.346
		c0-4.973-1.677-7.113-4.973-7.113c-2.429,0-4.453,1.157-6.188,3.239c0.058,0.578,0.058,1.156,0.058,1.792v20.819h-6.651V86.346
		c0-4.973-1.677-7.113-5.031-7.113c-2.256,0-4.221,0.983-5.842,2.776v23.074H4.124z"/>
	<path fill="#FFFFFF" d="M52.987,60.669h7.055v7.518h-7.055V60.669z M53.218,73.855h6.593v31.228h-6.593V73.855z"/>
	<path fill="#FFFFFF" d="M67.674,105.083V82.761l-1.214-8.906h6.651l0.635,3.412c2.488-2.545,5.726-4.222,9.485-4.222
		c5.379,0,9.195,3.586,9.195,10.757v21.281h-6.593V85.884c0-4.742-1.793-6.651-5.146-6.651c-2.314,0-4.512,0.983-6.363,2.892v22.958
		H67.674z"/>
	<g>
		<path fill="#FFFFFF" d="M16.816,52.54c-8.792,0-14.574-4.662-14.574-11.742c0-4.957,2.833-8.497,7.671-10.385
			c-4.367-2.36-6.845-5.724-6.845-10.503c0-7.729,6.195-13.335,15.105-13.335c8.143,0,14.103,4.366,14.103,11.565
			c0,4.897-2.597,8.143-8.143,10.208c5.783,2.537,8.851,5.605,8.851,10.68C32.984,46.875,26.375,52.54,16.816,52.54z M17.466,46.167
			c3.894,0,6.549-2.183,6.549-5.959s-2.714-5.665-8.615-7.553c-0.354-0.118-0.767-0.236-1.121-0.354
			c-2.242,1.829-3.481,4.602-3.481,7.494C10.798,43.984,13.512,46.167,17.466,46.167z M19.295,26.518
			c3.186-1.947,4.779-4.662,4.779-7.435c0-3.6-2.478-5.96-6.195-5.96c-3.541,0-5.842,2.242-5.842,5.901
			c0,3.658,2.419,5.9,7.022,7.435L19.295,26.518z"/>
	</g>
</g>
</svg>
