<?xml version="1.0" encoding="utf-8"?>
<!-- Generator: Adobe Illustrator 25.4.1, SVG Export Plug-In . SVG Version: 6.00 Build 0)  -->
<svg version="1.1" id="Layer_1" xmlns="http://www.w3.org/2000/svg" xmlns:xlink="http://www.w3.org/1999/xlink" x="0px" y="0px"
	 viewBox="0 0 216.295 193.007" enable-background="new 0 0 216.295 193.007" xml:space="preserve">
<g>
	<path fill="#FFFFFF" d="M125.741,105.162V82.84l-1.214-8.906h6.651l0.578,3.296c2.313-2.486,5.262-4.106,9.021-4.106
		s6.593,1.62,8.039,4.974c2.429-3.008,5.552-4.974,9.715-4.974c5.61,0,8.964,3.586,8.964,11.219v20.819h-6.477V86.425
		c0-4.973-1.677-7.113-4.973-7.113c-2.429,0-4.453,1.157-6.188,3.239c0.058,0.578,0.058,1.156,0.058,1.792v20.819h-6.651V86.425
		c0-4.973-1.677-7.113-5.031-7.113c-2.256,0-4.221,0.983-5.842,2.776v23.074H125.741z"/>
	<path fill="#FFFFFF" d="M174.605,60.748h7.055v7.518h-7.055V60.748z M174.835,73.934h6.593v31.228h-6.593V73.934z"/>
	<path fill="#FFFFFF" d="M189.291,105.162V82.84l-1.214-8.906h6.651l0.635,3.412c2.488-2.545,5.726-4.222,9.485-4.222
		c5.379,0,9.195,3.586,9.195,10.757v21.281h-6.593V85.963c0-4.742-1.793-6.651-5.146-6.651c-2.314,0-4.512,0.983-6.363,2.892v22.958
		H189.291z"/>
	<g>
		<path fill="#FFFFFF" d="M138.379,52.54c-8.791,0-14.574-4.662-14.574-11.742c0-4.957,2.833-8.497,7.671-10.385
			c-4.366-2.36-6.845-5.724-6.845-10.503c0-7.729,6.195-13.335,15.105-13.335c8.143,0,14.103,4.366,14.103,11.565
			c0,4.897-2.597,8.143-8.143,10.208c5.782,2.537,8.851,5.605,8.851,10.68C154.547,46.875,147.938,52.54,138.379,52.54z
			 M139.028,46.167c3.895,0,6.55-2.183,6.55-5.959s-2.714-5.665-8.615-7.553c-0.354-0.118-0.767-0.236-1.121-0.354
			c-2.242,1.829-3.481,4.602-3.481,7.494C132.36,43.984,135.075,46.167,139.028,46.167z M140.857,26.518
			c3.187-1.947,4.779-4.662,4.779-7.435c0-3.6-2.478-5.96-6.195-5.96c-3.54,0-5.842,2.242-5.842,5.901c0,3.658,2.42,5.9,7.022,7.435
			L140.857,26.518z"/>
	</g>
	<g>
		<path fill="#FFFFFF" d="M177.445,181.2h4.252c1.793,0,3.252,1.459,3.252,3.252v4.252c0,1.793-1.459,3.252-3.252,3.252h-4.252
			c-1.793,0-3.252-1.459-3.252-3.252v-4.252C174.193,182.659,175.652,181.2,177.445,181.2z"/>
		<path fill="#FFFFFF" d="M149.098,181.2h4.252c1.793,0,3.252,1.459,3.252,3.252v4.252c0,1.793-1.459,3.252-3.252,3.252h-4.252
			c-1.793,0-3.252-1.459-3.252-3.252v-4.252C145.846,182.659,147.305,181.2,149.098,181.2z"/>
		<path fill="#FFFFFF" d="M205.79,181.2h4.252c1.793,0,3.252,1.459,3.252,3.252v4.252c0,1.793-1.459,3.252-3.252,3.252h-4.252
			c-1.793,0-3.252-1.459-3.252-3.252v-4.252C202.538,182.659,203.997,181.2,205.79,181.2z"/>
		<path fill="#FFFFFF" d="M120.752,181.2h4.252c1.793,0,3.252,1.459,3.252,3.252v4.252c0,1.793-1.459,3.252-3.252,3.252h-4.252
			c-1.793,0-3.252-1.459-3.252-3.252v-4.252C117.499,182.659,118.958,181.2,120.752,181.2z"/>
		<path fill="#FFFFFF" d="M48.469,33.924c-4.725,0-8.046-0.988-10.152-3.021c-2.033-2.105-3.021-5.427-3.021-10.154
			c0-4.733,0.992-8.057,3.032-10.163c2.084-2.018,5.408-3.01,10.142-3.01c4.734,0,8.06,0.992,10.164,3.032
			c2.019,2.083,3.01,5.408,3.01,10.141c0,4.735-0.991,8.061-3.031,10.166C56.528,32.933,53.203,33.924,48.469,33.924z"/>
		<path fill="#FFFFFF" d="M4.368,82.555l18.111-10.269l5.741-13.008l4.52-9.584c1.67-3.537,4.52-6.436,8.024-8.163l1.137-0.56
			c2.373-1.169,5.025-1.787,7.671-1.787h0.29c1.233,0,2.442,0.227,3.592,0.673c1.149,0.446,2.193,1.096,3.105,1.931l9.166,8.404
			l15.237,13.971c0.646,0.595,1.18,1.292,1.583,2.074l0.015,0.03c0.413,0.812,0.669,1.674,0.767,2.569l3.398,30.627
			c0.201,1.818-0.021,3.114-0.679,3.963c-0.663,0.804-1.879,1.303-3.698,1.502c-1.818,0.206-3.116-0.018-3.964-0.676
			c-0.803-0.663-1.303-1.878-1.504-3.697l-3.138-28.283l-0.471-0.567L63.06,62.341l0.012,41.393l6.322,40.975l0.058,0.162
			l10.028,29.801c0.819,2.431,0.891,4.263,0.23,5.641c-0.688,1.324-2.203,2.378-4.616,3.192c-0.243,0.082-0.493,0.16-0.748,0.233
			c-2.05,0.584-3.649,0.583-4.884-0.009c-1.332-0.687-2.388-2.198-3.199-4.609l-10.521-31.385c-0.12-0.422-0.235-0.845-0.352-1.269
			c-0.158-0.582-0.317-1.165-0.489-1.744l-6.015-21.519v23.46l-2.959,38.87c-0.192,2.536-0.843,4.263-1.987,5.278
			c-1.152,0.957-2.954,1.339-5.495,1.146c-2.594-0.066-4.351-0.627-5.423-1.718c-1.017-1.103-1.489-2.885-1.425-5.426l2.769-112.643
			l-2.311,5.258c-0.34,0.771-0.8,1.48-1.366,2.107c-0.56,0.619-1.213,1.143-1.941,1.558L9.674,91.911
			c-1.726,0.976-3.113,1.307-4.242,1.016c-1.093-0.321-2.113-1.319-3.088-3.041c-0.978-1.724-1.31-3.111-1.017-4.243
			C1.648,84.552,2.646,83.532,4.368,82.555z"/>
		<path fill="#FFFFFF" d="M92.405,181.2h4.252c1.792,0,3.25,1.459,3.25,3.252v4.252c0,1.793-1.458,3.252-3.25,3.252h-4.252
			c-1.793,0-3.252-1.459-3.252-3.252v-4.252C89.153,182.659,90.612,181.2,92.405,181.2z"/>
	</g>
</g>
</svg>
