<?xml version="1.0" encoding="utf-8"?>
<!-- Generator: Adobe Illustrator 25.4.1, SVG Export Plug-In . SVG Version: 6.00 Build 0)  -->
<svg version="1.1" id="Layer_1" xmlns="http://www.w3.org/2000/svg" xmlns:xlink="http://www.w3.org/1999/xlink" x="0px" y="0px"
	 viewBox="0 0 259.596 192.928" enable-background="new 0 0 259.596 192.928" xml:space="preserve">
<g>
	<path fill="#FFFFFF" d="M169.001,105.083V82.761l-1.214-8.906h6.651l0.578,3.296c2.313-2.486,5.262-4.106,9.021-4.106
		s6.593,1.62,8.039,4.974c2.429-3.008,5.552-4.974,9.715-4.974c5.61,0,8.964,3.586,8.964,11.219v20.819h-6.477V86.346
		c0-4.973-1.677-7.113-4.973-7.113c-2.429,0-4.453,1.157-6.188,3.239c0.058,0.578,0.058,1.156,0.058,1.792v20.819h-6.651V86.346
		c0-4.973-1.677-7.113-5.031-7.113c-2.256,0-4.221,0.983-5.842,2.776v23.074H169.001z"/>
	<path fill="#FFFFFF" d="M217.864,60.669h7.055v7.518h-7.055V60.669z M218.095,73.855h6.593v31.228h-6.593V73.855z"/>
	<path fill="#FFFFFF" d="M232.55,105.083V82.761l-1.214-8.906h6.651l0.635,3.412c2.488-2.545,5.726-4.222,9.485-4.222
		c5.379,0,9.195,3.586,9.195,10.757v21.281h-6.593V85.884c0-4.742-1.793-6.651-5.146-6.651c-2.314,0-4.512,0.983-6.363,2.892v22.958
		H232.55z"/>
	<g>
		<path fill="#FFFFFF" d="M181.692,52.54c-8.791,0-14.574-4.662-14.574-11.742c0-4.957,2.833-8.497,7.671-10.385
			c-4.366-2.36-6.845-5.724-6.845-10.503c0-7.729,6.195-13.335,15.105-13.335c8.143,0,14.103,4.366,14.103,11.565
			c0,4.897-2.597,8.143-8.143,10.208c5.782,2.537,8.851,5.605,8.851,10.68C197.86,46.875,191.252,52.54,181.692,52.54z
			 M182.342,46.167c3.895,0,6.55-2.183,6.55-5.959s-2.714-5.665-8.615-7.553c-0.354-0.118-0.767-0.236-1.121-0.354
			c-2.242,1.829-3.481,4.602-3.481,7.494C175.674,43.984,178.389,46.167,182.342,46.167z M184.171,26.518
			c3.187-1.947,4.779-4.662,4.779-7.435c0-3.6-2.478-5.96-6.195-5.96c-3.54,0-5.842,2.242-5.842,5.901c0,3.658,2.42,5.9,7.022,7.435
			L184.171,26.518z"/>
	</g>
	<g>
		<path fill="#FFFFFF" d="M249.091,181.171h4.252c1.793,0,3.252,1.459,3.252,3.252v4.252c0,1.793-1.459,3.252-3.252,3.252h-4.252
			c-1.793,0-3.252-1.459-3.252-3.252v-4.252C245.839,182.63,247.298,181.171,249.091,181.171z"/>
		<path fill="#FFFFFF" d="M164.05,181.171h4.252c1.793,0,3.252,1.459,3.252,3.252v4.252c0,1.793-1.459,3.252-3.252,3.252h-4.252
			c-1.793,0-3.252-1.459-3.252-3.252v-4.252C160.799,182.63,162.258,181.171,164.05,181.171z"/>
		<path fill="#FFFFFF" d="M192.398,181.171h4.251c1.792,0,3.251,1.459,3.251,3.252v4.252c0,1.793-1.458,3.252-3.251,3.252h-4.251
			c-1.793,0-3.252-1.459-3.252-3.252v-4.252C189.146,182.63,190.605,181.171,192.398,181.171z"/>
		<path fill="#FFFFFF" d="M1.095,155.647c0,16.234,13.209,29.442,29.445,29.442c16.235,0,29.443-13.208,29.443-29.442
			c0-8.667-3.815-16.863-10.467-22.487l-0.625-0.528l19.163-34.888h6.328c1.637,0,2.968-1.333,2.968-2.97v-3.967
			c0-1.068-0.592-2.059-1.545-2.586l-1.058-0.584l18.322-22.087l2.955,29.963l-25.98,10.071c-1.298,0.521-2.143,1.311-2.644,1.904
			c-0.277,0.31-0.464,0.615-0.679,0.97l-0.036,0.058c-0.233,0.419-0.446,0.938-0.572,1.4c-0.072,0.251-0.121,0.497-0.16,0.737
			c-0.037,0.205-0.046,0.389-0.058,0.619c-0.033,0.414-0.013,0.872,0.063,1.364c0.037,0.249,0.069,0.463,0.151,0.719l0.281,0.819
			c0.174,0.452,0.477,0.943,0.797,1.464l15.38,24.872c0.4,0.643,0.82,1.197,1.248,1.648l0.241,0.255l1.823,21.999
			c0.165,1.975,0.672,3.309,1.526,4.057c0.902,0.74,2.303,1.021,4.301,0.857c1.984-0.119,3.334-0.59,4.104-1.413
			c0.766-0.875,1.092-2.253,0.997-4.213c-0.221-4.755-0.363-8.664-0.45-12.304c-0.055-2.415-0.074-4.343-0.063-6.062
			c0.004-1.007,0.021-1.988,0.06-2.898c0.007-0.371,0.029-0.682,0.052-0.989l0.128-1.238l9.663-13.229l6.302,8.411l-0.548,0.611
			c-4.858,5.414-7.534,12.391-7.534,19.645c0,16.234,13.208,29.442,29.443,29.442c16.237,0,29.447-13.208,29.447-29.442
			c0-16.235-13.21-29.444-29.447-29.444c-4.441,0-8.713,0.971-12.701,2.884l-0.74,0.355l-8.112-10.828l5.112-6.996
			c1.079-1.274,1.775-2.873,2.014-4.628c0.112-0.803,0.109-1.645-0.01-2.586l-0.636-5.535c-0.028-0.261-0.06-0.523-0.091-0.786
			c-0.033-0.276-0.066-0.552-0.094-0.818L114,57.175c-0.142-1.984-0.776-3.932-1.792-5.491c-2.175-3.391-5.984-5.363-9.776-5.014
			c-1.022,0.055-2.004,0.205-2.998,0.456c-0.812,0.208-1.601,0.479-2.333,0.8l-1.055,0.506c-0.242,0.122-0.479,0.252-0.717,0.383
			l-0.167,0.092c-0.556,0.312-1.121,0.66-1.724,1.06c-1.127,0.757-2.197,1.599-3.178,2.5c-0.537,0.499-1.008,0.967-1.438,1.431
			c-0.229,0.247-0.455,0.495-0.671,0.747L66.97,80.165c-1.265,1.524-1.836,2.832-1.748,3.966c0.076,0.69,0.395,1.384,0.974,2.121
			l1.152,1.466l-1.858,0.149c-0.157,0.012-0.312,0.028-0.469,0.056c-0.731,0.127-1.331,0.323-1.939,0.634
			c-0.614,0.316-1.184,0.732-1.659,1.218c-0.455,0.446-0.885,1.045-1.254,1.752l-19.94,36.301l-0.783-0.248
			c-2.883-0.914-5.879-1.378-8.904-1.378C14.304,126.202,1.095,139.411,1.095,155.647z M116.362,142.692l0.799-1.077l12.737,17
			c0.943,1.261,2.39,1.983,3.969,1.983c1.075,0,2.101-0.342,2.966-0.986c2.185-1.638,2.631-4.749,0.994-6.935l-12.743-17.008
			l1.258-0.465c2.454-0.906,4.984-1.365,7.519-1.365c12.025,0,21.808,9.783,21.808,21.808c0,12.023-9.783,21.806-21.808,21.806
			c-12.023,0-21.805-9.782-21.805-21.806C112.056,150.967,113.546,146.487,116.362,142.692z M96.382,113.618l0.358,0.649
			c0.106,0.192,0.221,0.379,0.355,0.56l0.882,1.176l-8.846,12.145l-5.947-12.083l5.7-0.965c2.269-0.405,4.547-0.852,6.771-1.326
			L96.382,113.618z M8.734,155.647c0-12.024,9.782-21.808,21.807-21.808c1.534,0,3.096,0.172,4.643,0.512l1.307,0.286
			l-10.628,19.345c-0.381,0.694-0.47,1.497-0.248,2.258c0.222,0.762,0.727,1.392,1.422,1.772l3.479,1.911
			c0.695,0.382,1.497,0.47,2.258,0.25c0.761-0.222,1.391-0.726,1.771-1.421l10.611-19.32l0.942,0.961
			c4.028,4.108,6.247,9.525,6.247,15.254c0,12.023-9.781,21.806-21.805,21.806C18.516,177.452,8.734,167.67,8.734,155.647z"/>
		<path fill="#FFFFFF" d="M220.744,181.171h4.252c1.793,0,3.252,1.459,3.252,3.252v4.252c0,1.793-1.459,3.252-3.252,3.252h-4.252
			c-1.793,0-3.252-1.459-3.252-3.252v-4.252C217.491,182.63,218.95,181.171,220.744,181.171z"/>
		<path fill="#FFFFFF" d="M97.653,42.399c-3.725,0-6.336-0.771-7.98-2.356c-1.586-1.644-2.356-4.255-2.356-7.98
			c0-3.734,0.774-6.348,2.367-7.992c1.624-1.572,4.238-2.347,7.97-2.347c3.733,0,6.348,0.775,7.992,2.369
			c1.572,1.623,2.348,4.237,2.348,7.97c0,3.733-0.775,6.347-2.369,7.992C104.003,41.625,101.388,42.399,97.653,42.399z"/>
	</g>
</g>
</svg>
