<?xml version="1.0" encoding="utf-8"?>
<!-- Generator: Adobe Illustrator 25.4.1, SVG Export Plug-In . SVG Version: 6.00 Build 0)  -->
<svg version="1.1" id="Layer_1" xmlns="http://www.w3.org/2000/svg" xmlns:xlink="http://www.w3.org/1999/xlink" x="0px" y="0px"
	 viewBox="0 0 259.596 192.928" enable-background="new 0 0 259.596 192.928" xml:space="preserve">
<g>
	<path fill="#25303B" d="M248.995,180.171h4.252c2.348,0,4.252,1.905,4.252,4.252v4.252c0,2.349-1.904,4.252-4.252,4.252h-4.252
		c-2.349,0-4.252-1.903-4.252-4.252v-4.252C244.743,182.076,246.646,180.171,248.995,180.171 M216.396,184.423v4.252
		c0,2.349,1.905,4.252,4.252,4.252h4.252c2.349,0,4.252-1.903,4.252-4.252v-4.252c0-2.347-1.903-4.252-4.252-4.252h-4.252
		C218.301,180.171,216.396,182.076,216.396,184.423 M188.05,184.423v4.252c0,2.349,1.904,4.252,4.252,4.252h4.251
		c2.349,0,4.251-1.903,4.251-4.252v-4.252c0-2.347-1.902-4.252-4.251-4.252h-4.251C189.954,180.171,188.05,182.076,188.05,184.423
		 M159.703,184.423v4.252c0,2.349,1.904,4.252,4.252,4.252h4.252c2.347,0,4.252-1.903,4.252-4.252v-4.252
		c0-2.347-1.905-4.252-4.252-4.252h-4.252C161.607,180.171,159.703,182.076,159.703,184.423 M88.87,40.75
		c-2.134-2.202-2.65-5.565-2.65-8.688s0.516-6.486,2.65-8.688c2.203-2.134,5.566-2.651,8.687-2.651c3.122,0,6.488,0.517,8.689,2.651
		c2.134,2.202,2.651,5.565,2.651,8.688s-0.517,6.486-2.651,8.688c-2.201,2.134-5.567,2.649-8.689,2.649
		C94.436,43.399,91.073,42.884,88.87,40.75 M164.213,155.646c0,16.786-13.66,30.443-30.447,30.443
		c-16.786,0-30.443-13.657-30.443-30.443c0-7.8,2.95-14.919,7.79-20.312l-5-6.673l-8.733,11.956l-0.014,0.071l-0.009,0.153
		l-0.021,0.313c-0.027,0.422-0.067,0.804-0.075,1.3c-0.04,0.923-0.056,1.892-0.06,2.885c-0.013,1.975,0.018,4.002,0.063,6.035
		c0.097,4.069,0.259,8.175,0.45,12.28c0.084,1.739-0.114,3.625-1.244,4.917c-1.172,1.256-3.043,1.648-4.796,1.753
		c-1.751,0.144-3.662,0.011-4.995-1.082c-1.298-1.136-1.743-2.997-1.888-4.747l-1.173-14.156l-0.586-7.077l-0.035-0.415
		c-0.519-0.547-0.976-1.173-1.371-1.809l-9.214-14.903l-6.025-9.741c-0.379-0.619-0.787-1.246-1.023-1.863l-0.187-0.462
		l-0.124-0.448c-0.099-0.305-0.139-0.586-0.182-0.871c-0.087-0.559-0.104-1.089-0.067-1.558c0.013-0.247,0.026-0.47,0.072-0.72
		c0.041-0.255,0.098-0.541,0.182-0.833c0.16-0.585,0.42-1.181,0.661-1.612c0.25-0.41,0.477-0.8,0.843-1.208
		c0.677-0.804,1.663-1.621,3.015-2.164l25.284-9.801l-2.645-26.823L76.194,87.345c1.223,0.676,2.062,1.964,2.062,3.461v3.967
		c0,2.193-1.776,3.97-3.968,3.97h-5.736l-3.758,6.84l-9.824,17.883l-4.903,8.929c6.611,5.589,10.821,13.936,10.821,23.251
		c0,16.786-13.656,30.443-30.443,30.443C13.657,186.089,0,172.432,0,155.646c0-16.787,13.657-30.444,30.445-30.444
		c3.208,0,6.3,0.503,9.207,1.425l4.884-8.892l9.823-17.883l2.456-4.472l1.228-2.234l1.153-2.1c0.395-0.756,0.88-1.445,1.431-1.985
		c0.528-0.539,1.184-1.024,1.901-1.393c0.723-0.369,1.421-0.59,2.227-0.73c0.183-0.033,0.37-0.053,0.559-0.068
		c-0.617-0.785-1.075-1.661-1.181-2.63c-0.134-1.72,0.851-3.363,1.972-4.714l16.47-19.853l4.118-4.965l0.598-0.709
		c0.229-0.268,0.464-0.526,0.702-0.783c0.477-0.514,0.977-1.006,1.491-1.483c1.031-0.948,2.137-1.816,3.301-2.598
		c0.584-0.387,1.18-0.757,1.791-1.101c0.307-0.168,0.612-0.34,0.926-0.497l0.485-0.245l0.601-0.276
		c0.808-0.355,1.646-0.641,2.502-0.86c1.077-0.272,2.119-0.427,3.192-0.485c4.279-0.393,8.408,1.942,10.672,5.473
		c1.142,1.754,1.8,3.887,1.947,5.96l0.368,3.205l0.736,6.407l1.471,12.813l1.474,12.814l0.368,3.202l0.184,1.605
		c0.056,0.537,0.129,1.077,0.185,1.613l0.43,3.742l0.205,1.784c0.121,0.955,0.138,1.902,0.007,2.839
		c-0.254,1.873-1.006,3.678-2.241,5.136l-4.631,6.341l7.176,9.579c3.979-1.91,8.433-2.982,13.133-2.982
		C150.553,125.202,164.213,138.859,164.213,155.646 M45.289,141.093l-9.963,18.14c-1.055,1.921-3.468,2.622-5.389,1.566l-3.478-1.91
		c-1.922-1.055-2.623-3.469-1.569-5.389l9.984-18.173c-1.429-0.313-2.908-0.488-4.429-0.488c-11.474,0-20.807,9.333-20.807,20.807
		c0,11.473,9.333,20.806,20.807,20.806c11.472,0,20.805-9.333,20.805-20.806C51.25,149.984,48.97,144.848,45.289,141.093
		 M88.964,116.084l-4.386,0.742l4.624,9.395l7.436-10.209l-0.438-0.585c-0.163-0.217-0.302-0.443-0.431-0.676
		C93.5,115.235,91.232,115.679,88.964,116.084 M154.574,155.646c0-11.474-9.334-20.807-20.808-20.807
		c-2.522,0-4.932,0.476-7.172,1.303l11.938,15.935c1.971,2.632,1.436,6.362-1.195,8.334c-1.072,0.8-2.325,1.187-3.565,1.187
		c-1.811,0-3.6-0.822-4.77-2.384l-11.933-15.927c-2.568,3.461-4.108,7.727-4.108,12.359c0,11.473,9.333,20.806,20.805,20.806
		C145.24,176.452,154.574,167.119,154.574,155.646"/>
	<path fill="#25303B" d="M169.001,105.083V82.761l-1.214-8.906h6.651l0.578,3.296c2.313-2.486,5.262-4.106,9.021-4.106
		s6.593,1.62,8.039,4.974c2.429-3.008,5.552-4.974,9.715-4.974c5.61,0,8.964,3.586,8.964,11.219v20.819h-6.477V86.346
		c0-4.973-1.677-7.113-4.973-7.113c-2.429,0-4.453,1.157-6.188,3.239c0.058,0.578,0.058,1.156,0.058,1.792v20.819h-6.651V86.346
		c0-4.973-1.677-7.113-5.031-7.113c-2.256,0-4.221,0.983-5.842,2.776v23.074H169.001z"/>
	<path fill="#25303B" d="M217.864,60.669h7.055v7.518h-7.055V60.669z M218.095,73.855h6.593v31.228h-6.593V73.855z"/>
	<path fill="#25303B" d="M232.55,105.083V82.761l-1.214-8.906h6.651l0.635,3.412c2.488-2.545,5.726-4.222,9.485-4.222
		c5.379,0,9.195,3.586,9.195,10.757v21.281h-6.593V85.884c0-4.742-1.793-6.651-5.146-6.651c-2.314,0-4.512,0.983-6.363,2.892v22.958
		H232.55z"/>
	<g>
		<path fill="#25303B" d="M181.692,52.54c-8.791,0-14.574-4.662-14.574-11.742c0-4.957,2.833-8.497,7.671-10.385
			c-4.366-2.36-6.845-5.724-6.845-10.503c0-7.729,6.195-13.335,15.105-13.335c8.143,0,14.103,4.366,14.103,11.565
			c0,4.897-2.597,8.143-8.143,10.208c5.782,2.537,8.851,5.605,8.851,10.68C197.86,46.875,191.252,52.54,181.692,52.54z
			 M182.342,46.167c3.895,0,6.55-2.183,6.55-5.959s-2.714-5.665-8.615-7.553c-0.354-0.118-0.767-0.236-1.121-0.354
			c-2.242,1.829-3.481,4.602-3.481,7.494C175.674,43.984,178.389,46.167,182.342,46.167z M184.171,26.518
			c3.187-1.947,4.779-4.662,4.779-7.435c0-3.6-2.478-5.96-6.195-5.96c-3.54,0-5.842,2.242-5.842,5.901c0,3.658,2.42,5.9,7.022,7.435
			L184.171,26.518z"/>
	</g>
</g>
</svg>
