<?xml version="1.0" encoding="utf-8"?>
<!-- Generator: Adobe Illustrator 25.4.1, SVG Export Plug-In . SVG Version: 6.00 Build 0)  -->
<svg version="1.1" id="Layer_1" xmlns="http://www.w3.org/2000/svg" xmlns:xlink="http://www.w3.org/1999/xlink" x="0px" y="0px"
	 viewBox="0 0 216.295 193.007" enable-background="new 0 0 216.295 193.007" xml:space="preserve">
<g>
	<g>
		<path fill="#FFFFFF" d="M39.076,181.2h-4.252c-1.793,0-3.252,1.459-3.252,3.252v4.252c0,1.793,1.459,3.252,3.252,3.252h4.252
			c1.793,0,3.252-1.459,3.252-3.252v-4.252C42.328,182.659,40.869,181.2,39.076,181.2z"/>
		<path fill="#FFFFFF" d="M67.423,181.2h-4.252c-1.793,0-3.252,1.459-3.252,3.252v4.252c0,1.793,1.459,3.252,3.252,3.252h4.252
			c1.793,0,3.252-1.459,3.252-3.252v-4.252C70.675,182.659,69.216,181.2,67.423,181.2z"/>
		<path fill="#FFFFFF" d="M10.73,181.2H6.478c-1.793,0-3.252,1.459-3.252,3.252v4.252c0,1.793,1.459,3.252,3.252,3.252h4.252
			c1.793,0,3.252-1.459,3.252-3.252v-4.252C13.982,182.659,12.523,181.2,10.73,181.2z"/>
		<path fill="#FFFFFF" d="M95.769,181.2h-4.252c-1.793,0-3.252,1.459-3.252,3.252v4.252c0,1.793,1.459,3.252,3.252,3.252h4.252
			c1.793,0,3.252-1.459,3.252-3.252v-4.252C99.021,182.659,97.562,181.2,95.769,181.2z"/>
		<path fill="#FFFFFF" d="M168.052,33.924c4.725,0,8.046-0.988,10.152-3.021c2.033-2.105,3.021-5.427,3.021-10.154
			c0-4.733-0.992-8.057-3.032-10.163c-2.084-2.018-5.408-3.01-10.142-3.01c-4.734,0-8.06,0.992-10.164,3.032
			c-2.019,2.083-3.01,5.408-3.01,10.141c0,4.735,0.991,8.061,3.031,10.166C159.992,32.933,163.317,33.924,168.052,33.924z"/>
		<path fill="#FFFFFF" d="M212.152,82.555l-18.111-10.269L188.3,59.278l-4.52-9.584c-1.67-3.537-4.52-6.436-8.024-8.163l-1.137-0.56
			c-2.373-1.169-5.025-1.787-7.671-1.787h-0.29c-1.233,0-2.442,0.227-3.592,0.673c-1.149,0.446-2.193,1.096-3.105,1.931
			l-9.166,8.404l-15.237,13.971c-0.646,0.595-1.18,1.292-1.583,2.074l-0.015,0.03c-0.413,0.812-0.669,1.674-0.767,2.569
			l-3.398,30.627c-0.201,1.818,0.021,3.114,0.679,3.963c0.663,0.804,1.879,1.303,3.698,1.502c1.818,0.206,3.116-0.018,3.964-0.676
			c0.803-0.663,1.303-1.878,1.504-3.697l3.138-28.283l0.471-0.567l10.212-9.364l-0.012,41.393l-6.322,40.975l-0.058,0.162
			l-10.028,29.801c-0.819,2.431-0.891,4.263-0.23,5.641c0.688,1.324,2.203,2.378,4.616,3.192c0.243,0.082,0.493,0.16,0.748,0.233
			c2.05,0.584,3.649,0.583,4.884-0.009c1.332-0.687,2.388-2.198,3.199-4.609l10.521-31.385c0.12-0.422,0.235-0.845,0.352-1.269
			c0.158-0.582,0.317-1.165,0.489-1.744l6.015-21.519v23.46l2.959,38.87c0.192,2.536,0.843,4.263,1.987,5.278
			c1.152,0.957,2.954,1.339,5.495,1.146c2.594-0.066,4.351-0.627,5.423-1.718c1.017-1.103,1.489-2.885,1.425-5.426l-2.769-112.643
			l2.311,5.258c0.34,0.771,0.8,1.48,1.366,2.107c0.56,0.619,1.213,1.143,1.941,1.558l19.074,10.816
			c1.726,0.976,3.113,1.307,4.242,1.016c1.093-0.321,2.113-1.319,3.088-3.041c0.978-1.724,1.31-3.111,1.017-4.243
			C214.872,84.552,213.874,83.532,212.152,82.555z"/>
		<path fill="#FFFFFF" d="M124.115,181.2h-4.252c-1.792,0-3.25,1.459-3.25,3.252v4.252c0,1.793,1.458,3.252,3.25,3.252h4.252
			c1.793,0,3.252-1.459,3.252-3.252v-4.252C127.367,182.659,125.908,181.2,124.115,181.2z"/>
	</g>
	<path fill="#FFFFFF" d="M4.179,105.162V82.84l-1.214-8.906h6.651l0.578,3.296c2.313-2.486,5.262-4.106,9.021-4.106
		s6.593,1.62,8.039,4.974c2.429-3.008,5.552-4.974,9.715-4.974c5.61,0,8.964,3.586,8.964,11.219v20.819h-6.477V86.425
		c0-4.973-1.677-7.113-4.973-7.113c-2.429,0-4.453,1.157-6.188,3.239c0.058,0.578,0.058,1.156,0.058,1.792v20.819h-6.651V86.425
		c0-4.973-1.677-7.113-5.031-7.113c-2.256,0-4.221,0.983-5.842,2.776v23.074H4.179z"/>
	<path fill="#FFFFFF" d="M53.042,60.748h7.055v7.518h-7.055V60.748z M53.272,73.934h6.593v31.228h-6.593V73.934z"/>
	<path fill="#FFFFFF" d="M67.729,105.162V82.84l-1.214-8.906h6.651l0.635,3.412c2.488-2.545,5.726-4.222,9.485-4.222
		c5.379,0,9.195,3.586,9.195,10.757v21.281h-6.593V85.963c0-4.742-1.793-6.651-5.146-6.651c-2.314,0-4.512,0.983-6.363,2.892v22.958
		H67.729z"/>
	<g>
		<path fill="#FFFFFF" d="M16.816,52.54c-8.792,0-14.574-4.662-14.574-11.742c0-4.957,2.833-8.497,7.671-10.385
			c-4.367-2.36-6.845-5.724-6.845-10.503c0-7.729,6.195-13.335,15.105-13.335c8.143,0,14.103,4.366,14.103,11.565
			c0,4.897-2.597,8.143-8.143,10.208c5.783,2.537,8.851,5.605,8.851,10.68C32.984,46.875,26.375,52.54,16.816,52.54z M17.466,46.167
			c3.894,0,6.549-2.183,6.549-5.959s-2.714-5.665-8.615-7.553c-0.354-0.118-0.767-0.236-1.121-0.354
			c-2.242,1.829-3.481,4.602-3.481,7.494C10.798,43.984,13.512,46.167,17.466,46.167z M19.295,26.518
			c3.186-1.947,4.779-4.662,4.779-7.435c0-3.6-2.478-5.96-6.195-5.96c-3.541,0-5.842,2.242-5.842,5.901
			c0,3.658,2.419,5.9,7.022,7.435L19.295,26.518z"/>
	</g>
</g>
</svg>
