<?xml version="1.0" encoding="utf-8"?>
<!-- Generator: Adobe Illustrator 25.4.1, SVG Export Plug-In . SVG Version: 6.00 Build 0)  -->
<svg version="1.1" id="Layer_1" xmlns="http://www.w3.org/2000/svg" xmlns:xlink="http://www.w3.org/1999/xlink" x="0px" y="0px"
	 viewBox="0 0 283.465 283.464" enable-background="new 0 0 283.465 283.464" xml:space="preserve">
<g>
	<path fill="#996017" d="M219.685,283.464H63.779C28.555,283.464,0,254.909,0,219.685V63.779C0,28.555,28.555,0,63.779,0h155.906
		c35.224,0,63.779,28.555,63.779,63.779v155.906C283.464,254.909,254.909,283.464,219.685,283.464"/>
	<path fill="#FFFFFF" d="M63.512,190.515l-6.503,6.235c-1.421,1.364-3.679,1.319-5.045-0.101l-5.339-5.548
		c-0.748-0.777-1.105-1.852-0.97-2.922l8.091-64.348c0.084-0.674,0.643-1.188,1.321-1.216c0.012-0.001,0.024-0.001,0.036-0.002
		c0.723-0.029,1.348,0.498,1.439,1.216l8.041,63.66C64.725,188.61,64.327,189.732,63.512,190.515 M149.803,171.59l-54.656-19.938
		l-4.597,18.465c-0.411,1.649,0.398,3.36,1.934,4.089l55.5,26.359c0.958,0.455,2.069,0.461,3.031,0.016l56.004-25.896
		c1.552-0.717,2.377-2.433,1.97-4.093l-4.646-18.94L149.803,171.59z M148.197,155.394c0.835,0.326,1.763,0.325,2.597-0.001
		l82.363-32.209c0.354-0.139,0.587-0.48,0.587-0.861c0-0.372-0.223-0.708-0.567-0.852l-82.3-34.517
		c-0.883-0.371-1.879-0.371-2.762-0.001l-82.277,34.496c-0.375,0.157-0.62,0.524-0.62,0.931c0,0.417,0.256,0.79,0.644,0.942
		L148.197,155.394z"/>
</g>
</svg>
