<?xml version="1.0" encoding="utf-8"?>
<!-- Generator: Adobe Illustrator 25.4.1, SVG Export Plug-In . SVG Version: 6.00 Build 0)  -->
<svg version="1.1" id="Layer_1" xmlns="http://www.w3.org/2000/svg" xmlns:xlink="http://www.w3.org/1999/xlink" x="0px" y="0px"
	 viewBox="0 0 283.465 283.464" enable-background="new 0 0 283.465 283.464" xml:space="preserve">
<g>
	<path fill="#996017" d="M219.685,283.464H63.78c-35.225,0-63.78-28.555-63.78-63.78V63.779C0,28.554,28.555,0,63.78,0h155.905
		c35.225,0,63.78,28.554,63.78,63.779v155.905C283.465,254.909,254.91,283.464,219.685,283.464"/>
	<path fill="#FFFFFF" d="M173.544,146.132v34.63H39.08l15.588-32.599c0.593-1.242,1.847-2.031,3.222-2.031H173.544z
		 M173.544,252.708H39.198v-67.435h134.346V252.708z M90.122,211.532c0-5.946-4.655-11.045-10.6-11.148
		c-6.048-0.104-10.97,4.766-10.97,10.77v4.84h-0.021v17.824c0,1.096,0.889,1.984,1.985,1.984h17.609
		c1.096,0,1.985-0.888,1.985-1.984v-9.025l0.012-0.32V211.532z M141.292,211.492c0-5.621-4.169-10.539-9.766-11.061
		c-6.416-0.598-11.815,4.443-11.815,10.723v4.84h-0.013v17.824c0,1.096,0.889,1.984,1.985,1.984h17.594
		c1.096,0,1.985-0.888,1.985-1.984v-9.025l0.03-0.32V211.492z M235.83,252.708h-57.221V114.912h57.221V252.708z M218.015,139.642
		c0-5.617-4.155-10.534-9.745-11.07c-6.41-0.614-11.816,4.417-11.816,10.72v4.847h-0.029v17.816c0,1.096,0.888,1.985,1.984,1.985
		h17.602c1.096,0,1.984-0.889,1.984-1.985v-9.016l0.02-0.338V139.642z M203.589,54.692l-24.932,55.117h56.746l-25.05-55.225
		c-0.255-0.712-0.529-1.325-0.816-1.849V33.903h11.449c1.348,0,2.441-1.092,2.441-2.44c0-1.349-1.093-2.441-2.441-2.441h-11.449
		V18.417c0-1.348-1.093-2.441-2.44-2.441c-1.349,0-2.442,1.093-2.442,2.441v10.605h-11.448c-1.348,0-2.441,1.092-2.441,2.441
		c0,1.348,1.093,2.44,2.441,2.44h11.448v18.354C204.269,52.894,203.907,53.701,203.589,54.692"/>
</g>
</svg>
