<?xml version="1.0" encoding="utf-8"?>
<!-- Generator: Adobe Illustrator 25.4.1, SVG Export Plug-In . SVG Version: 6.00 Build 0)  -->
<svg version="1.1" id="Layer_1" xmlns="http://www.w3.org/2000/svg" xmlns:xlink="http://www.w3.org/1999/xlink" x="0px" y="0px"
	 viewBox="0 0 226.777 175.663" enable-background="new 0 0 226.777 175.663" xml:space="preserve">
<g>
	<path fill="#25303B" d="M196.214,22.848H154.33c-7.425,0-14.406,2.891-19.657,8.141l-6.83,6.83L114.799,24.84l-0.035-0.058
		l-0.975-0.94l-0.186-0.221l-0.035,0.035c-1.462-1.184-3.319-1.938-5.362-1.938h-8.738c-2.646,0-4.99,1.242-6.58,3.157
		c-0.452,0.511-0.835,1.068-1.149,1.671L71.228,66.075c-0.974,1.877-2.913,3.056-5.028,3.056h-0.16h-3.913h-2.11h-0.164
		c-2.085,0-4.084,0.828-5.558,2.302L29.667,96.061c-0.86,0.86-1.645,1.929-1.663,3.124c0.019,1.195,0.803,2.263,1.663,3.123
		c0.86,0.86,1.929,1.645,3.124,1.664c1.194-0.019,2.263-0.803,3.124-1.664c0,0,7.217-7.217,14.743-14.743
		c0.434-0.435,0.87-0.87,1.305-1.305c0,5.173,0,17.147,0,26.526c-2.142,1.144-4.545,1.751-7.041,1.751H30.563
		C13.71,114.537,0,128.248,0,145.1s13.71,30.563,30.563,30.563h34.361c7.429,0,14.411-2.891,19.661-8.141l79.176-79.176
		c2.82-2.82,6.57-4.372,10.562-4.372h21.891c16.852,0,30.563-13.71,30.563-30.563C226.777,36.558,213.066,22.848,196.214,22.848z
		 M121.165,44.496l-6.366,6.366V38.175C114.799,38.175,117.763,41.118,121.165,44.496z M92.889,43.501v9.818L79.056,83.353
		l-0.418,0.894c-0.035,0.174-0.058,0.348-0.058,0.58c0,0.62,0.231,1.199,0.615,1.64l-4.975,4.975V86.33v-6.282L92.889,43.501z
		 M196.214,71.137h-21.891c-7.42,0-14.394,2.888-19.638,8.131l-79.176,79.176c-2.826,2.826-6.585,4.381-10.585,4.381H30.563
		c-9.774,0-17.727-7.952-17.727-17.726c0-9.774,7.952-17.726,17.727-17.726h14.359c7.428,0,14.412-2.893,19.667-8.147l79.161-79.161
		c2.826-2.826,6.584-4.382,10.581-4.382h41.884c9.774,0,17.726,7.952,17.726,17.727C213.94,63.185,205.988,71.137,196.214,71.137z"
		/>
	<path fill="#25303B" d="M103.844,19.089c2.628,0,5.46-0.435,7.314-2.231c1.796-1.854,2.231-4.685,2.231-7.314
		c0-2.628-0.435-5.46-2.231-7.313C109.304,0.435,106.472,0,103.844,0c-2.628,0-5.459,0.435-7.313,2.231
		C94.734,4.085,94.3,6.917,94.3,9.545c0,2.629,0.435,5.46,2.231,7.314C98.385,18.655,101.216,19.089,103.844,19.089z"/>
	<path fill="#25303B" d="M62.074,66.135c2.473,0,5.139-0.409,6.884-2.1c1.691-1.745,2.1-4.41,2.1-6.884
		c0-2.473-0.409-5.138-2.1-6.883c-1.745-1.691-4.41-2.1-6.884-2.1c-2.473,0-5.138,0.409-6.883,2.1c-1.691,1.745-2.1,4.41-2.1,6.883
		c0,2.474,0.409,5.139,2.1,6.884C56.936,65.726,59.6,66.135,62.074,66.135z"/>
</g>
</svg>
