<?xml version="1.0" encoding="utf-8"?>
<!-- Generator: Adobe Illustrator 25.4.1, SVG Export Plug-In . SVG Version: 6.00 Build 0)  -->
<svg version="1.1" id="Layer_1" xmlns="http://www.w3.org/2000/svg" xmlns:xlink="http://www.w3.org/1999/xlink" x="0px" y="0px"
	 viewBox="0 0 191.2 189.5" style="enable-background:new 0 0 191.2 189.5;" xml:space="preserve">
<style type="text/css">
	.st0{fill:#25303B;}
</style>
<g>
	<path class="st0" d="M162.5,186.6L162.6,86c-4.5,0-8.2,3.7-8.2,8.2v72.1h-19.6l0-64.4c3.5,10.5,6.4,19.1,6.4,19.1
		c0.5,1.5,1.3,3.1,2.7,3.8c1.4,0.7,3.1,0.4,4.6-0.1c1.5-0.5,3.1-1.3,3.8-2.7c0.7-1.4,0.4-3.1-0.1-4.6L139.7,80c0,0,0,0.1,0,0.1
		c-0.5-2.2-4.9-9.8-15.1-9.9h-8.1l0,0c-1.9,0-3.8-0.9-4.9-2.5L88.2,34.2c-0.4-0.8-0.9-1.5-1.5-2.2c-2.1-2.5-5.1-4.1-8.6-4.1H66.7
		c-2.7,0-5.1,1-7,2.5l0,0l-0.2,0.3l-1.3,1.2l0,0.1L34,56l-15.8,9.9c-1.4,0.7-2.8,1.8-3.3,3.3c-0.4,1.5,0.1,3.1,0.9,4.5
		c0.1,0.3,0.3,0.6,0.5,0.8c-2.4,0.6-4.2,2.8-4.2,5.4v79.7c0,3.1,2.5,5.6,5.6,5.6h1.5c3.1,0,5.6-2.5,5.6-5.6V79.9
		c0-1.4-0.5-2.7-1.4-3.7c0.1,0,0.2-0.1,0.2-0.1c0,0,6.4-4.6,18.4-10.9c0.2,0,0.4-0.1,0.5-0.3c6.3-6.3,15.6-15.5,15.6-15.5l0,0
		l-14.6,59.9c-0.1,0.3-0.1,0.6-0.1,0.9c0,1.6,1.3,3.1,2.9,3.2c0.1,0.1,9,0,9,0s0,47.1,0,53H36.8V94.2c0-4.5-3.7-8.2-8.2-8.2
		l0.1,100.7c0,1.6,1.3,2.8,2.8,2.8h128.2C161.2,189.5,162.5,188.2,162.5,186.6z M121.8,127l0,39.3c0,0-2,0-3.1,0V127L121.8,127z
		 M86.7,56.3l19,25.4v84.6H89.4v-53c0,0,8.9,0.1,9.1,0c1.6-0.1,2.9-1.6,2.9-3.2c0-0.3,0-0.5-0.1-0.8L86.7,56.3L86.7,56.3z
		 M69.7,113.3h5.5c0,1.2,0,6,0,12.3c0,14,0,35.2,0,40.7c-1.8,0-3.6,0-5.5,0V113.3z"/>
	<path class="st0" d="M162.6,166.3C162.7,166.3,162.7,166.3,162.6,166.3C162.7,166.2,162.7,166.2,162.6,166.3z"/>
	<path class="st0" d="M0,94.2v76.1c0,2.3,1.8,4.1,4.1,4.1h0c2.3,0,4.1-1.8,4.1-4.1V86C3.7,86,0,89.7,0,94.2z"/>
	<path class="st0" d="M173.5,74.3H172c-3.1,0-5.6,2.5-5.6,5.6v79.7c0,3.1,2.5,5.6,5.6,5.6h1.5c3.1,0,5.6-2.5,5.6-5.6V79.9
		C179.1,76.8,176.6,74.3,173.5,74.3z"/>
	<path class="st0" d="M182.9,86v84.4c0,2.3,1.8,4.1,4.1,4.1s4.1-1.8,4.1-4.1V94.2C191.2,89.7,187.5,86,182.9,86z"/>
	<path class="st0" d="M72.4,24.9c3.4,0,7.1-0.6,9.5-2.9c2.3-2.4,2.9-6.1,2.9-9.5c0-3.4-0.6-7.1-2.9-9.5C79.5,0.6,75.8,0,72.4,0
		c-3.4,0-7.1,0.6-9.5,2.9C60.5,5.3,60,9,60,12.4c0,3.4,0.6,7.1,2.9,9.5C65.3,24.3,69,24.9,72.4,24.9z"/>
	<path class="st0" d="M122.1,66.7c3.2,0,6.7-0.5,9-2.7c2.2-2.3,2.7-5.7,2.7-9c0-3.2-0.5-6.7-2.7-9c-2.3-2.2-5.7-2.7-9-2.7
		s-6.7,0.5-9,2.7c-2.2,2.3-2.7,5.7-2.7,9c0,3.2,0.5,6.7,2.7,9C115.4,66.2,118.9,66.7,122.1,66.7z"/>
</g>
</svg>
