<?xml version="1.0" encoding="utf-8"?>
<!-- Generator: Adobe Illustrator 25.4.1, SVG Export Plug-In . SVG Version: 6.00 Build 0)  -->
<svg version="1.1" id="Layer_1" xmlns="http://www.w3.org/2000/svg" xmlns:xlink="http://www.w3.org/1999/xlink" x="0px" y="0px"
	 viewBox="0 0 25.9 22.8" style="enable-background:new 0 0 25.9 22.8;" xml:space="preserve">
<style type="text/css">
	.st0{fill:#25303B;}
</style>
<g id="Layer_2_1_">
	<g id="Layer_1-2">
		<path class="st0" d="M22.7,16.4c-0.4,0-0.8,0.1-1.2,0.2L4.8,1.7C4.3,1.2,3.6,1,2.9,1C1.3,1,0,2.4,0.1,3.9c0,0.9,0.4,1.7,1.1,2.2
			l0.2,0.1c0.2,0.1,0.4,0.1,0.5-0.1l0.2-0.3C2.2,5.7,2.2,5.5,2,5.3c0,0,0,0,0,0L1.8,5.2C1.4,4.9,1.1,4.4,1.1,3.8
			c0-1,0.8-1.7,1.7-1.8c0.4,0,0.9,0.2,1.2,0.5l2,1.8c0.7,2.3,2.3,7.3,2.6,8.3c0.2,0.5,0.4,0.9,0.8,1.3l-2.1,2.6
			c-1.8,0.2-3,1.8-2.8,3.6c0.2,1.8,1.8,3,3.6,2.8c1.8-0.2,3-1.8,2.8-3.6c-0.1-1-0.7-1.9-1.6-2.4l1.6-1.9c0.5,0.2,0.9,0.3,1.4,0.3
			h5.9l2.3,2.1c-1.3,1.2-1.3,3.2-0.1,4.5c1.2,1.3,3.2,1.3,4.5,0.1c1.3-1.2,1.3-3.2,0.1-4.5C24.4,16.8,23.6,16.4,22.7,16.4L22.7,16.4
			z M7.7,21c-0.8,0-1.4-0.6-1.4-1.4c0-0.8,0.6-1.4,1.4-1.4s1.4,0.6,1.4,1.4l0,0C9.1,20.4,8.5,21,7.7,21z M22.7,21
			c-0.8,0-1.4-0.6-1.4-1.4s0.6-1.4,1.4-1.4s1.4,0.6,1.4,1.4l0,0C24.1,20.4,23.5,21,22.7,21L22.7,21z"/>
		<path class="st0" d="M11.8,6.9C11.9,6.9,12.1,7,12.2,7c0.1,0,0.2-0.1,0.3-0.2l2.8-5c0.1-0.2,0.1-0.5,0-0.7
			c-0.1-0.2-0.3-0.4-0.5-0.5c-1.3-0.5-2.7-0.6-4-0.3c-1.4,0.3-2.6,1-3.6,2C7.1,2.2,7,2.3,7,2.5c0,0.1,0.1,0.2,0.2,0.3L11.8,6.9z"/>
	</g>
</g>
</svg>
