<?xml version="1.0" encoding="utf-8"?>
<!-- Generator: Adobe Illustrator 25.4.1, SVG Export Plug-In . SVG Version: 6.00 Build 0)  -->
<svg version="1.1" id="Layer_1" xmlns="http://www.w3.org/2000/svg" xmlns:xlink="http://www.w3.org/1999/xlink" x="0px" y="0px"
	 viewBox="0 0 99.2 99.2" style="enable-background:new 0 0 99.2 99.2;" xml:space="preserve">
<style type="text/css">
	.st0{fill:#64B5E5;}
	.st1{fill:#56B3E5;}
	.st2{fill:#F8A687;}
	.st3{fill:#341D11;}
	.st4{fill:#F58F53;}
	.st5{fill:#512E1B;}
	.st6{fill:#25303B;}
	.st7{fill:#0B1924;}
	.st8{fill:#FFFFFF;}
	.st9{fill:#EB8D76;}
</style>
<path class="st0" d="M22.6,0h54.1c12.5,0,22.6,10.1,22.6,22.6v54.1c0,12.5-10.1,22.6-22.6,22.6H22.6C10.1,99.2,0,89.1,0,76.7V22.6
	C0,10.1,10.1,0,22.6,0"/>
<path class="st1" d="M56.6,50.3c-0.5,0.8-0.4-1-1.2-1.5c-0.8-0.5-2.3,0.5-1.8-0.4c0.5-0.8,1.6-1.1,2.4-0.6
	C56.8,48.4,57.1,49.5,56.6,50.3z"/>
<path class="st1" d="M66.5,56.4c-0.5,0.8-0.3-1-1.2-1.5s-2.4,0.5-1.8-0.4c0.5-0.8,1.6-1.1,2.4-0.6C66.8,54.5,67,55.6,66.5,56.4z"/>
<path class="st1" d="M20.9,99.1c-0.3,0-0.6,0-0.8-0.1C20.4,99.1,20.6,99.1,20.9,99.1z"/>
<path class="st1" d="M22.6,99.2c-0.4,0-0.8,0-1.2,0C21.7,99.2,22.2,99.2,22.6,99.2z"/>
<path class="st1" d="M19.6,99c-0.2,0-0.5-0.1-0.7-0.1C19.1,98.9,19.4,99,19.6,99z"/>
<path class="st2" d="M18.9,98.9c-0.2,0-0.3-0.1-0.5-0.1C18.5,98.8,18.7,98.9,18.9,98.9z"/>
<path class="st2" d="M21.3,99.2c-0.1,0-0.3,0-0.4,0C21.1,99.2,21.2,99.2,21.3,99.2z"/>
<path class="st2" d="M20.1,99.1c-0.2,0-0.3,0-0.5-0.1C19.8,99,19.9,99.1,20.1,99.1z"/>
<path class="st3" d="M38.6,32.3c-0.2,0.8-0.5,1.7-0.7,2.5c-0.7,0.4-1.3,0.9-1.7,1.7c-0.7,1.1-0.9,2.3-0.7,3.4L35,40.6c0,0,0,0,0,0.1
	c-0.9,1.5-2.1,2.7-3.4,3.8c-0.5-0.4-1-0.8-1.5-1l-0.5-0.2c-1.6-0.8-3-1.8-4.2-3.1l-0.8-1.1c-1.1-1.2-2.9-1.3-4.2-0.3l-0.8,0.6
	c-1.5,1.2-2.3,3-2.2,4.8c0.1,1,0.3,2,0.4,3c-1.3-0.4-2.6-1-3.8-1.7l-2-1.2l6.8-10.7h0c3.9-6.1,11.4-8.6,18-6.2
	c-0.7,1.8-0.1,3.9,1.6,4.9C38.4,32.2,38.5,32.2,38.6,32.3z"/>
<path class="st4" d="M37,26.5c-0.1,0.2-0.2,0.4-0.3,0.7c-0.7,1.8-0.1,3.9,1.6,4.9c0.1,0.1,0.2,0.1,0.3,0.1c0.4-1.3,0.8-2.5,1.2-3.6
	c0.4-1.2,0.9-2.2,1.3-2.9c0.2-0.3,0.5-0.6,0.7-1C40.1,24.3,38.1,24.9,37,26.5z"/>
<path class="st3" d="M80.7,34c-1.6,1-3.2,1.8-4.9,2.7l0,0c-0.2,0.1-0.5,0.3-0.7,0.4c-0.5,0.3-1,0.6-1.5,0.8c1.4,4.2,2,9.7,1.1,13.4
	c0,0,0,0,0,0c0,0.1-0.1,0.3-0.1,0.4c4.2-0.9,6.9-5.2,8-9C83.6,39.4,82.6,36.6,80.7,34z"/>
<path class="st5" d="M80.7,33.9C80.7,33.9,80.7,33.9,80.7,33.9c-1.6,1-3.3,1.8-4.9,2.7c-0.2,0.1-0.5,0.3-0.7,0.4
	c-0.5,0.3-1,0.6-1.5,0.8c-7.3,3.6-16.1,4.2-24.5,2.4L48,42.1c-0.9,1.4-2.8,1.9-4.2,1l0.8-1.4c0,0,0,0,0,0c1.3-2.1,0.9-4.8-1-6.4
	c-0.2-0.2-0.4-0.3-0.6-0.5v0c-1.3-0.8-2.8-0.9-4.2-0.5c-0.3,0.1-0.7,0.3-1,0.4c0.2-0.8,0.5-1.7,0.7-2.5c0.4-1.3,0.8-2.5,1.2-3.6
	c0.4-1.2,0.9-2.2,1.3-2.9c0.2-0.3,0.5-0.6,0.7-0.9c5.1-6.7,14-9.2,21.8-6.1C71.2,21.7,76.2,27.6,80.7,33.9z"/>
<path class="st6" d="M56.6,50.3c-0.5,0.8-0.4-1-1.2-1.5c-0.8-0.5-2.3,0.5-1.8-0.4c0.5-0.8,1.6-1.1,2.4-0.6
	C56.8,48.4,57.1,49.5,56.6,50.3z"/>
<path class="st6" d="M66.5,56.4c-0.5,0.8-0.3-1-1.2-1.5s-2.4,0.5-1.8-0.4c0.5-0.8,1.6-1.1,2.4-0.6C66.8,54.5,67,55.6,66.5,56.4z"/>
<path class="st7" d="M32,58.8L32,58.8C31.9,58.7,31.9,58.7,32,58.8z"/>
<path class="st8" d="M86.5,56.2c0.8-0.2,1.2-1,1-1.8c0-0.1,0-0.1-0.1-0.2c-0.3-0.7-1.2-1-1.9-0.7L76,58.2l10.3-1.9
	C86.4,56.2,86.4,56.2,86.5,56.2z"/>
<path class="st8" d="M85.4,66.4l-9.2-5l7.5,7.3c0,0,0.1,0.1,0.1,0.1c0.6,0.5,1.5,0.4,2-0.2c0.1-0.1,0.1-0.1,0.1-0.2
	C86.3,67.7,86.1,66.8,85.4,66.4z"/>
<path class="st8" d="M90.2,60.3l-13.9-0.6L89.5,64c0,0,0.1,0,0.1,0c0.8,0.2,1.5-0.3,1.7-1.1l0.2-0.9c0-0.1,0-0.2,0-0.3
	C91.6,61,91,60.3,90.2,60.3z"/>
<path class="st2" d="M62.3,68.2"/>
<polygon class="st7" points="29.9,57.8 29.9,57.8 29.9,57.8 "/>
<path class="st2" d="M73.6,37.9c-7.3,3.6-16.1,4.2-24.5,2.4L48,42.1c-0.9,1.4-2.8,1.9-4.2,1l0.8-1.4c0,0,0,0,0,0
	c1.3-2.1,0.9-4.8-1-6.4c-0.2-0.2-0.4-0.3-0.6-0.5v0c-1.3-0.8-2.8-0.9-4.2-0.5c-0.3,0.1-0.7,0.3-1,0.4c-0.7,0.4-1.3,0.9-1.7,1.7
	c-0.7,1.1-0.9,2.3-0.7,3.4c0.1,0.6,0.3,1.2,0.6,1.8c0.4,0.7,0.9,1.3,1.6,1.7l1,0.7c-0.4,1.3-0.7,2.8-0.8,4.3l7.9,5.5l1.6,1.1
	l16.6,11.7c1.2-1.2,2.3-2.5,3.5-4.2c0.3-0.4,0.6-0.9,1-1.5c1.7-2.6,4.2-6.7,6.1-9.6C75.6,47.5,75,42.1,73.6,37.9z M56.6,50.3
	c-0.5,0.8-0.4-1-1.2-1.5c-0.8-0.5-2.3,0.5-1.8-0.4c0.5-0.8,1.6-1.1,2.4-0.6C56.8,48.4,57.1,49.5,56.6,50.3z M66.5,56.4
	c-0.5,0.8-0.3-1-1.2-1.5s-2.4,0.5-1.8-0.4c0.5-0.8,1.6-1.1,2.4-0.6C66.8,54.5,67,55.6,66.5,56.4z"/>
<g>
	<polygon class="st9" points="63.1,68.8 63.2,68.8 63.2,68.8 	"/>
	<path class="st9" d="M38,48.3c-0.1,1.4,0,2.8,0.2,4.2c0,0,0.1,0.1,0.1,0.1l3.4,2.2l4.8,3.1l15.7,10.3c0.7-0.5,1.8-1.6,1.8-1.6
		L47.5,54.9l-1.6-1.1L38,48.3L38,48.3z"/>
	<path class="st9" d="M38.1,47.5c0,0.2,0,0.5-0.1,0.7C38,48,38.1,47.8,38.1,47.5L38.1,47.5z"/>
</g>
<path class="st6" d="M74.3,65.2c-1-0.8-2-1.1-4.2-1c-1.8,0-3.4,1.1-4,2.8c-0.4,1.2-0.2,2.6,0.7,3.6l1,1.2l-5.5-3.6
	c0.7-0.5,1.8-1.7,1.8-1.7c1.2-1.2,2.3-2.5,3.5-4.2c0.3-0.4,0.6-0.9,1-1.5c1.8,1,3.5,2.2,5.1,3.5C73.9,64.7,74.1,65,74.3,65.2z"/>
<path class="st3" d="M38,48.3c0.1-1.5,0.3-2.9,0.8-4.3l-1-0.7c-0.7-0.4-1.2-1-1.6-1.7c-0.4,1.5-0.7,3-0.8,4.3
	c-0.1,1.5,0.1,2.8,0.5,4c0.7,0.8,1.5,1.7,2.3,2.5c0,0,0.1,0.1,0.1,0.1C38,51.1,37.9,49.7,38,48.3L38,48.3z"/>
<path class="st2" d="M80.2,75.9c-3-7.7-3.9-8.3-3.9-8.3c-0.8-1.1-1.4-1.8-2-2.3c-1-0.8-2-1.1-4.2-1c-1.8,0-3.4,1.1-4,2.8
	c-0.4,1.2-0.2,2.6,0.7,3.6l1,1.2L46.6,58l-4.8-3.1l-3.4-2.2c0,0-0.1-0.1-0.1-0.1c0,0-0.1-0.1-0.1-0.1c-0.8-0.8-1.6-1.6-2.3-2.5
	c-0.8-1-1.6-2-2.4-3c-0.5-0.7-1.2-1.7-1.9-2.5c-0.5-0.4-0.9-0.8-1.5-1l-0.5-0.2c-1.6-0.8-3-1.9-4.2-3.2l-0.8-1.1
	c-1.1-1.2-2.9-1.3-4.2-0.3l-0.8,0.6c-1.5,1.2-2.3,3-2.2,4.8c0.1,1,0.3,2,0.4,3c0.1,0.4,0.1,0.8,0.2,1.3c0.5,1.9,1.8,3.5,3.5,4.5
	l3.1,1.3c0.1,0.1,2.2,1.5,5.3,3.5c0.1,0.1,0.3,0.2,0.4,0.3c0.3,0.2,0.5,0.4,0.8,0.5c1,0.6,2.1,1.3,3.2,2.1c12.5,8.1,32.6,21,32.6,21
	c0.6,0.4,1.6,1.1,2.6,1.9l0,0c0.2,0.1,0.3,0.2,0.5,0.4c2.4,1.8,5.8,1.3,7.7-1l1.3-1.6C80.4,79.8,80.9,77.8,80.2,75.9z"/>
<path class="st2" d="M16.5,83.8l0.7,14.8c1.7,0.4,3.5,0.6,5.3,0.6H26l-0.2-14.4L16.5,83.8z"/>
<path class="st7" d="M32.6,62c8.1,6.1,32.6,20.9,34.5,22.1c1.1,0.6,1.9,1.1,2.7,1.4c0,0,0-0.5-0.1-1.4c0,0-0.1-0.5-0.1-0.5
	c0,0-2-1.5-2.6-1.9c0,0-20.1-12.9-32.6-21c-1.1-0.7-2.2-1.4-3.2-2.1c-0.3-0.2-0.6-0.4-0.8-0.5c-0.1-0.1-0.3-0.2-0.4-0.3v0
	C30,59.5,31.2,61,32.6,62z"/>
<path class="st6" d="M69.7,85.5c-0.7-0.3-1.6-0.8-2.7-1.4C65.1,82.9,40.6,68.1,32.6,62c-1.4-1-2.6-2.5-2.6-4.2l-2.5,0.6
	c-0.7,0.1-1.4,0.3-2.1,0.5c-5.1,1.8-8,8.9-11.6,24.5l2.7,0.3l9.2,1L26,99.2h38.7l0.4-4C68.2,92.7,69.9,89.4,69.7,85.5z"/>
</svg>
