<?xml version="1.0" encoding="utf-8"?>
<!-- Generator: Adobe Illustrator 25.4.1, SVG Export Plug-In . SVG Version: 6.00 Build 0)  -->
<svg version="1.1" id="Layer_1" xmlns="http://www.w3.org/2000/svg" xmlns:xlink="http://www.w3.org/1999/xlink" x="0px" y="0px"
	 viewBox="0 0 37.252 37.252" enable-background="new 0 0 37.252 37.252" xml:space="preserve">
<g>
	<defs>
		<rect id="SVGID_1_" y="0" width="37.252" height="37.252"/>
	</defs>
	<clipPath id="SVGID_00000003819418449075549180000003072981334937331631_">
		<use xlink:href="#SVGID_1_"  overflow="visible"/>
	</clipPath>
	<path clip-path="url(#SVGID_00000003819418449075549180000003072981334937331631_)" fill="#25303B" d="M37.252,28.777
		c0,4.661-3.813,8.475-8.476,8.475H8.475C3.814,37.252,0,33.438,0,28.777V8.475C0,3.814,3.814,0,8.475,0h20.301
		c4.663,0,8.476,3.814,8.476,8.475V28.777z"/>
	<path clip-path="url(#SVGID_00000003819418449075549180000003072981334937331631_)" fill="#EB2132" d="M33.311,26.22
		c-1.642,1.427-5.407,2.107-9.379-0.795c1.162,3.959,6.621,6.13,9.4,4.021L33.311,26.22z"/>
	<path clip-path="url(#SVGID_00000003819418449075549180000003072981334937331631_)" fill="#EB2132" d="M22.661,21.279
		c2.911,0.576,2.401,5.659,7.957,3.696C27.588,23.736,25.8,19.432,22.661,21.279"/>
	<path clip-path="url(#SVGID_00000003819418449075549180000003072981334937331631_)" fill="#EB2132" d="M27.666,9.583
		c2.507,2.193-0.839,6.849,5.663,8.056C31.078,14.735,31.753,9.548,27.666,9.583"/>
	<path clip-path="url(#SVGID_00000003819418449075549180000003072981334937331631_)" fill="#EB2132" d="M33.333,21.845
		c-1.603-3.501-5.421-6.168-9.305-6.318c3.796,2.561,2.875,6.179,9.305,8.937V21.845z"/>
	<path clip-path="url(#SVGID_00000003819418449075549180000003072981334937331631_)" fill="#FFFFFF" d="M8.05,21.605v7.64
		c0,1.025,0.838,1.862,1.862,1.862h4.083c1.025,0,1.863-0.837,1.863-1.862v-7.64H8.05z"/>
	<path clip-path="url(#SVGID_00000003819418449075549180000003072981334937331631_)" fill="#FFFFFF" d="M20.078,17.33l-1.577,1.121
		H8.396c-1.967,0-3.568-1.601-3.568-3.569v-2.026c0-1.967,1.426-3.568,3.178-3.568h3.097v1.204H9.912
		c-1.024,0-1.862,0.838-1.862,1.862V17.1h7.807v-4.746c0-1.024-0.838-1.862-1.862-1.862h-1.63V7.973
		c0-0.246,0.201-0.447,0.447-0.447h0.937c0.245,0,0.62,0.101,0.833,0.225l2.238,1.306c0.213,0.124,0.488,0.051,0.612-0.161
		l0.185-0.318c0.124-0.212,0.052-0.487-0.161-0.611l-2.533-1.478c-0.213-0.124-0.587-0.225-0.833-0.225h-2.539
		c-0.246,0-0.448,0.201-0.448,0.447v0.774H8.006c-2.746,0-4.981,2.41-4.981,5.371v2.026c0,2.962,2.409,5.371,5.371,5.371h10.106
		l1.576,1.121c0.2,0.143,0.364,0.058,0.364-0.188v-3.668C20.442,17.272,20.278,17.188,20.078,17.33"/>
</g>
</svg>
