<?xml version="1.0" encoding="utf-8"?>
<!-- Generator: Adobe Illustrator 25.4.1, SVG Export Plug-In . SVG Version: 6.00 Build 0)  -->
<svg version="1.1" id="Layer_1" xmlns="http://www.w3.org/2000/svg" xmlns:xlink="http://www.w3.org/1999/xlink" x="0px" y="0px"
	 viewBox="0 0 30.308 24.844" enable-background="new 0 0 30.308 24.844" xml:space="preserve">
<g>
	<path fill="#EB2132" d="M30.286,19.957c-1.642,1.427-5.407,2.107-9.379-0.795c1.162,3.959,6.621,6.13,9.4,4.021L30.286,19.957z"/>
	<path fill="#EB2132" d="M19.636,15.015c2.911,0.576,2.401,5.659,7.957,3.696C24.563,17.472,22.775,13.168,19.636,15.015"/>
	<path fill="#EB2132" d="M24.641,3.319c2.507,2.193-0.839,6.849,5.663,8.056C28.053,8.471,28.728,3.284,24.641,3.319"/>
	<path fill="#EB2132" d="M30.308,15.581c-1.603-3.501-5.421-6.168-9.305-6.318c3.796,2.561,2.875,6.179,9.305,8.937V15.581z"/>
	<path fill="#EB2132" d="M5.024,15.341v7.64c0,1.024,0.838,1.862,1.862,1.862h4.083c1.025,0,1.863-0.838,1.863-1.862v-7.64H5.024z"
		/>
	<path fill="#EB2132" d="M17.053,11.066l-1.577,1.121H5.371c-1.967,0-3.568-1.601-3.568-3.569V6.592
		c0-1.967,1.426-3.568,3.178-3.568h3.097v1.204H6.887c-1.024,0-1.862,0.837-1.862,1.862v4.746h7.807V6.09
		c0-1.025-0.838-1.862-1.862-1.862H9.34V1.709c0-0.246,0.201-0.447,0.447-0.447h0.937c0.245,0,0.62,0.101,0.833,0.225l2.238,1.306
		c0.213,0.124,0.488,0.051,0.612-0.162l0.185-0.317c0.124-0.212,0.052-0.487-0.161-0.611l-2.533-1.478
		C11.685,0.101,11.311,0,11.065,0H8.526C8.28,0,8.078,0.201,8.078,0.447v0.774H4.981C2.235,1.221,0,3.63,0,6.592v2.026
		c0,2.962,2.409,5.371,5.371,5.371h10.106l1.576,1.121c0.2,0.143,0.364,0.058,0.364-0.188v-3.668
		C17.417,11.008,17.253,10.924,17.053,11.066"/>
</g>
</svg>
