<?xml version="1.0" encoding="utf-8"?>
<!-- Generator: Adobe Illustrator 25.4.1, SVG Export Plug-In . SVG Version: 6.00 Build 0)  -->
<svg version="1.1" id="Layer_1" xmlns="http://www.w3.org/2000/svg" xmlns:xlink="http://www.w3.org/1999/xlink" x="0px" y="0px"
	 viewBox="0 0 238.9 222.3" style="enable-background:new 0 0 238.9 222.3;" xml:space="preserve">
<style type="text/css">
	.st0{fill:#25303B;}
</style>
<g>
	<path class="st0" d="M105.9,33.3v9.5v9.5c0,2.2,0.4,4.5,1.8,6c1.4,1.3,3.4,1.7,5.3,1.8v0v21.4v4.3v23.8c0,4.6,2.4,8.6,6,10.9v5
		c0,3.9,3.2,7.1,7.1,7.1h7.1c3.9,0,7.1-3.2,7.1-7.1v-2.9h64.1v2.9c0,3.9,3.2,7.1,7.1,7.1h7.1c3.9,0,7.1-3.2,7.1-7.1v-5
		c3.6-2.3,6-6.3,6-10.9V85.7v-4.3V60.1v0c1.9-0.1,3.9-0.5,5.3-1.8c1.5-1.5,1.8-3.9,1.8-6v-9.5v-9.5c0-2.2-0.4-4.5-1.8-6
		c-1.5-1.5-3.9-1.8-6-1.8c-1,0-2.1,0.1-3.1,0.3c-0.7-2.9-1.4-5.7-2.2-8.6C222.7,6.8,215.1,0,206.5,0h-68.2
		c-8.6,0-16.2,6.8-19.3,17.2c-0.8,2.8-1.6,5.7-2.2,8.6c-1-0.2-2.1-0.3-3.1-0.3c-2.2,0-4.5,0.4-6,1.8
		C106.2,28.8,105.9,31.1,105.9,33.3 M191.2,11.8c0,1.3-1,2.3-2.3,2.3h-33c-1.3,0-2.3-1-2.3-2.3V9.4c0-1.3,1-2.3,2.3-2.3h33
		c1.3,0,2.3,1,2.3,2.3V11.8z M199.1,98.9c0-1.7,1.4-3.1,3.1-3.1h15.2c1.7,0,3.1,1.4,3.1,3.1v3.1c0,1.7-1.4,3.1-3.1,3.1h-15.2
		c-1.7,0-3.1-1.4-3.1-3.1V98.9z M124.3,98.9c0-1.7,1.4-3.1,3.1-3.1h15.2c1.7,0,3.1,1.4,3.1,3.1v3.1c0,1.7-1.4,3.1-3.1,3.1h-15.2
		c-1.7,0-3.1-1.4-3.1-3.1V98.9z M124.1,60.1c0-12.4,1.5-24.4,4.5-35.8l0.5-1.7c0.2-0.9,1.2-1.6,2.1-1.6l82.6,0c0.9,0,1.8,0.5,2,1
		c0.2,0.6,0.3,1,0.6,2c3,11.5,4.6,23.7,4.6,36.2v19.7c0,0.9-0.8,1.7-1.7,1.7h-93.4c-0.9,0-1.7-0.8-1.7-1.7V60.1z M31.1,139.2
		c-2.7-2.8-3.3-7-3.3-10.9s0.6-8.1,3.3-10.9c2.8-2.7,7-3.3,10.9-3.3c3.9,0,8.1,0.6,10.9,3.3c2.7,2.8,3.3,7,3.3,10.9
		s-0.6,8.1-3.3,10.9c-2.8,2.7-7,3.3-10.9,3.3C38.1,142.6,33.9,141.9,31.1,139.2 M101.7,127.7c-0.5-1.7-2-2.9-3.5-3.7
		c-1.5-0.9-3.3-1.6-5-1.2c-1.7,0.5-2.9,2-3.7,3.5c0,0-2.2,3.8-5.4,9.4c-1.6,2.8-3.5,6.1-5.6,9.6c-0.1,0.2-0.2,0.4-0.4,0.6l-1.4,0
		c-1.1,0-2.2-0.1-3.3-0.1c-8.7-0.2-17.5-0.3-24.1-0.3c-3.3,0-6,0-8,0.1c-2,0-3.1,0.1-3.1,0.1c-0.5,0-0.9,0-1.4,0.1c0,0-0.1,0-0.1,0
		c-0.2,0-0.3,0-0.5,0c-0.5,0-1,0.1-1.5,0.2c0,0-1.3,0.2-3.6,0.5c-2.3,0.5-5.5,1.2-9.2,2.7c-0.5,0.2-1,0.3-1.4,0.5
		c-0.7,0.3-1.4,0.6-2,1c-1.3,0.8-2.6,1.8-3.7,3.1c-1.1,1.2-2.1,2.7-2.8,4.2c-0.3,0.8-0.7,1.6-0.9,2.5l-0.2,0.6
		c-0.1,0.2-0.1,0.4-0.1,0.5l-0.2,0.8c-0.9,4.3-1.8,8.9-2.8,13.5l-7.6,36.9c-0.4,1.7-0.4,3.6,0.5,5.1c1,1.4,2.8,2.1,4.5,2.4
		c1.7,0.4,3.6,0.4,5.1-0.5c1.4-1,2.1-2.8,2.4-4.5c0,0,3.8-18.5,7.6-36.9c0.9-4.6,1.9-9.2,2.8-13.6l0.2-0.8c0-0.2,0-0.2,0.1-0.3
		l0-0.1c0-0.2,0.1-0.4,0.2-0.6c0.1-0.1,0.2-0.3,0.2-0.4c-0.3,19.9-0.5,39.7-0.8,59.5h37.9c-0.3-21.2-0.5-42.5-0.8-63.8l0-0.1
		c4.1,0.1,8.6,0.1,13,0.2c1.1,0,2.2,0.1,3.2,0.1l1.8,0c0.5,0,1.1,0,1.6,0l1.5-0.1c0.5-0.1,1-0.1,1.5-0.1c0.5-0.1,0.9-0.3,1.4-0.5
		c0.4-0.2,0.9-0.5,1.3-0.7c0.4-0.3,0.7-0.7,1-1l1-1.1l0.8-1.3c0.4-0.7,0.8-1.4,1.2-2.1c2-3.5,3.9-6.8,5.6-9.6
		c3.3-5.6,5.4-9.4,5.4-9.4C101.4,131.2,102.1,129.4,101.7,127.7"/>
</g>
</svg>
