<?xml version="1.0" encoding="utf-8"?>
<!-- Generator: Adobe Illustrator 25.4.1, SVG Export Plug-In . SVG Version: 6.00 Build 0)  -->
<svg version="1.1" id="Layer_1" xmlns="http://www.w3.org/2000/svg" xmlns:xlink="http://www.w3.org/1999/xlink" x="0px" y="0px"
	 viewBox="0 0 283.465 283.465" enable-background="new 0 0 283.465 283.465" xml:space="preserve">
<g>
	<path fill="#006FB6" d="M219.685,283.465H63.779C28.555,283.465,0,254.91,0,219.686V63.78C0,28.556,28.555,0,63.779,0h155.906
		c35.225,0,63.779,28.556,63.779,63.78v155.906C283.464,254.91,254.91,283.465,219.685,283.465"/>
	<path fill="#FFFFFF" d="M128.582,63.515c-3.2-3.303-3.974-8.349-3.974-13.033c0.001-4.683,0.775-9.728,3.976-13.031
		c3.303-3.201,8.35-3.976,13.033-3.975c4.683,0,9.727,0.775,13.032,3.977c3.201,3.303,3.975,8.349,3.975,13.032
		c-0.001,4.684-0.776,9.73-3.978,13.033c-3.305,3.2-8.349,3.974-13.032,3.974C136.931,67.491,131.884,66.716,128.582,63.515
		 M189.006,129.841c0-15.38-10.547-28.295-24.802-31.913l-1.474-6.955l-0.683-3.22l-0.341-1.61l-0.221-1.042
		c-0.109-0.538-0.32-1.046-0.509-1.561c-0.356-1.036-0.939-2.006-1.447-2.845c-0.534-0.73-1.095-1.542-1.675-2.126
		c-1.157-1.313-2.382-2.27-3.649-3.202c-0.651-0.423-1.284-0.864-1.974-1.232l-1.031-0.554l-0.766-0.381
		c-0.268-0.129-0.442-0.225-0.787-0.381l-1.124-0.485c-0.745-0.339-1.521-0.586-2.309-0.805c-0.778-0.252-1.579-0.407-2.386-0.536
		c-0.801-0.161-1.615-0.222-2.431-0.258l-0.67-0.034c-0.223-0.011-0.474-0.022-0.761-0.005l-0.41,0.016
		c-0.133,0.053-0.27,0.04-0.405,0.063l-0.813,0.089l-0.814,0.088c-0.268,0.045-0.529,0.13-0.792,0.198
		c-0.522,0.158-1.058,0.284-1.552,0.51c-0.495,0.227-0.986,0.469-1.467,0.725c-0.474,0.266-0.91,0.6-1.354,0.918
		c-0.439,0.325-0.873,0.657-1.269,1.04l-0.621,0.57l-2.425,2.224l-4.852,4.449l-19.978,18.319c-1.09,1.073-2.005,2.308-2.533,3.744
		c-0.113,0.36-0.254,0.711-0.344,1.079c-0.081,0.373-0.154,0.748-0.22,1.124c-0.069,0.375-0.092,0.767-0.141,1.15l-0.099,0.884
		l-0.514,4.619l-1.029,9.237l-1.343,12.065c-0.008,0.069-0.02,0.138-0.027,0.206c-0.137,1.226-0.27,2.426-0.403,3.626
		c-0.133,1.199-0.266,2.399-0.402,3.625c-0.212,1.912-0.123,4.006,1.034,5.499c1.204,1.457,3.23,2.002,5.142,2.214
		c1.913,0.212,4.008,0.125,5.503-1.033c1.456-1.203,2.001-3.227,2.213-5.139c0.038-0.346,0.076-0.68,0.113-1.022
		c0.001-0.007,0.004-0.013,0.005-0.019l3.629-32.602l11.76-10.782l-16.153,78.845h13.796l-2.602,16.866l-12.237,36.358
		c-0.657,1.954-1.043,4.168-0.171,5.996c0.929,1.799,2.925,2.831,4.879,3.489c1.955,0.657,4.168,1.043,5.997,0.171
		c1.799-0.929,2.831-2.925,3.488-4.879l12.648-37.578l3.151-20.423h5.414l1.605,65.241c0.051,2.061,0.446,4.274,1.891,5.693
		c1.489,1.373,3.718,1.659,5.779,1.609c2.061-0.051,4.273-0.447,5.692-1.891c1.374-1.489,1.66-3.718,1.609-5.779l-1.596-64.873
		h13.896l-3.513-17.152C180.822,155.02,189.006,143.388,189.006,129.841"/>
</g>
</svg>
