<?xml version="1.0" encoding="utf-8"?>
<!-- Generator: Adobe Illustrator 25.4.1, SVG Export Plug-In . SVG Version: 6.00 Build 0)  -->
<svg version="1.1" id="Layer_1" xmlns="http://www.w3.org/2000/svg" xmlns:xlink="http://www.w3.org/1999/xlink" x="0px" y="0px"
	 viewBox="0 0 283.465 283.465" enable-background="new 0 0 283.465 283.465" xml:space="preserve">
<g>
	<path fill="#006FB6" d="M219.685,283.465H63.779C28.555,283.465,0,254.91,0,219.685V63.78C0,28.555,28.555,0,63.779,0h155.906
		c35.224,0,63.779,28.555,63.779,63.78v155.905C283.464,254.91,254.909,283.465,219.685,283.465"/>
	<path fill="#FFFFFF" d="M87.291,82.774c-3.2-3.303-3.975-8.349-3.975-13.033c0-4.683,0.775-9.728,3.975-13.032
		c3.303-3.201,8.35-3.976,13.033-3.976s9.727,0.775,13.031,3.976c3.202,3.304,3.977,8.349,3.977,13.032
		c0,4.684-0.775,9.73-3.977,13.033c-3.304,3.2-8.348,3.975-13.031,3.975S90.594,85.974,87.291,82.774 M156.423,185.853h-22.996
		h-23.571c-2.079-0.001-4.193-0.001-6.333-0.002v0.002c-1.608-4.174-3.243-8.414-4.877-12.655l-26.461-68.665
		c-0.764-1.981-2.989-2.968-4.969-2.205l-3.619,1.395c-1.981,0.763-2.968,2.988-2.204,4.969l26.462,68.665
		c1.673,4.343,3.347,8.686,4.994,12.961c0.2,0.529,0.415,1.052,0.711,1.525c0.266,0.493,0.54,0.978,0.892,1.409
		c0.655,0.899,1.486,1.647,2.377,2.292c1.815,1.267,4.019,1.861,6.227,1.877c2.298-0.001,4.568-0.002,6.8-0.003h23.571h22.996
		c2.123,0,3.844-1.72,3.844-3.843v-3.878C160.267,187.574,158.546,185.853,156.423,185.853 M199.709,216.029l-11.347-22.301
		l-11.596-27.72c0.007,0.023,0.012,0.039,0.019,0.06c-0.083-0.215-0.17-0.429-0.271-0.634c-0.205-0.4-0.394-0.691-0.625-1.021
		l-0.172-0.232l-0.131-0.159l-0.273-0.311l-0.284-0.299l-0.233-0.219l-0.466-0.402l-0.39-0.293
		c-0.282-0.209-0.476-0.323-0.718-0.476c-0.882-0.531-1.576-0.831-2.307-1.118c-0.376-0.145-0.695-0.255-1.157-0.396
		c-0.46-0.134-0.917-0.254-1.387-0.329c-0.208-0.044-0.525-0.078-0.648-0.095l-0.352-0.045l-0.706-0.091l-5.02-0.647
		c-0.397-0.258-0.639-0.72-0.576-1.219c0.022-0.174,0.093-0.313,0.176-0.456c0.804-2.363,1.398-4.824,1.723-7.399
		c2.606-20.591-11.98-39.399-32.569-42.004c-2.833-0.359-5.635-0.392-8.364-0.126l-1.184,0.143
		c-1.041-0.131-1.846-0.869-2.111-1.818l-0.085,0.022c-6.036-11.044-11.411-16.392-18.331-16.392
		c-6.365,0-11.441,2.362-14.292,6.652c-3.139,4.723-3.13,10.932,0.029,18.452c0,0,19.582,54.087,20.103,55.55
		c0.032,0.091,0.064,0.18,0.095,0.267l0.186,0.481l0.045,0.104c0.076,0.164,0.151,0.325,0.225,0.484
		c0.227,0.449,0.406,0.758,0.589,1.052c0.364,0.584,0.69,1.03,0.977,1.382c0.281,0.355,0.512,0.614,0.676,0.782
		c0.161,0.17,0.244,0.257,0.244,0.257c1.573,1.668,3.871,2.901,5.995,3.256c0.909,0.16,1.672,0.224,2.533,0.224l43.24-0.03
		c0.25,0.703,0.552,1.392,0.886,2.048l21.937,43.115c1.116,2.191,2.679,4.367,4.963,5.151c2.308,0.712,4.853-0.127,7.045-1.242
		v-0.001c1.24-0.518,2.484-1.227,3.306-2.241c0.819-0.774,1.484-1.668,1.846-2.722C201.663,220.765,200.824,218.22,199.709,216.029"
		/>
</g>
</svg>
