<?xml version="1.0" encoding="utf-8"?>
<!-- Generator: Adobe Illustrator 25.4.1, SVG Export Plug-In . SVG Version: 6.00 Build 0)  -->
<svg version="1.1" id="Layer_1" xmlns="http://www.w3.org/2000/svg" xmlns:xlink="http://www.w3.org/1999/xlink" x="0px" y="0px"
	 viewBox="0 0 37.252 37.251" enable-background="new 0 0 37.252 37.251" xml:space="preserve">
<g>
	<g>
		<path fill="#FFCC30" d="M37.252,28.777c0,4.661-3.814,8.475-8.475,8.475H8.475C3.813,37.251,0,33.438,0,28.777V8.475
			C0,3.813,3.813,0,8.475,0h20.302c4.661,0,8.475,3.813,8.475,8.475V28.777z"/>
	</g>
	<g>
		<path fill="#25303B" d="M12.582,7.67H5.369c-0.498,0-0.901,0.403-0.901,0.901v21.624c0,0.498,0.404,0.901,0.901,0.901h7.213
			c0.498,0,0.901-0.403,0.901-0.901V8.572C13.484,8.074,13.08,7.67,12.582,7.67z M9.857,25.491c-0.131,0.132-0.345,0.132-0.477,0
			l-0.24-0.24c-0.132-0.131-0.132-0.345,0-0.477l0.252-0.251c0.275-0.275,0.694-0.626,0.72-0.64
			c-0.172,0.036-0.952,0.033-0.952,0.033l-2.776,0c-0.193,0-0.35-0.156-0.35-0.35v-0.353c0-0.193,0.156-0.35,0.35-0.35l2.776,0
			c0,0,0.78-0.003,0.952,0.033c-0.026-0.014-0.445-0.365-0.72-0.64L9.14,22.003c-0.132-0.132-0.132-0.346,0-0.477l0.24-0.241
			c0.132-0.131,0.346-0.131,0.477,0l2.103,2.103L9.857,25.491z M11.978,18.67c0,0.246-0.201,0.447-0.447,0.447H6.482
			c-0.246,0-0.447-0.201-0.447-0.447V9.993c0-0.246,0.201-0.447,0.447-0.447h5.048c0.246,0,0.447,0.201,0.447,0.447V18.67z"/>
	</g>
	<g>
		<path fill="#25303B" d="M32.043,7.67H24.83c-0.498,0-0.901,0.403-0.901,0.901v21.624c0,0.498,0.404,0.901,0.901,0.901h7.213
			c0.498,0,0.901-0.403,0.901-0.901V8.572C32.944,8.074,32.541,7.67,32.043,7.67z M31.377,23.656c0,0.193-0.156,0.35-0.35,0.35
			l-2.776,0c0,0-0.78,0.003-0.952-0.033c0.026,0.014,0.445,0.365,0.72,0.64l0.252,0.251c0.132,0.132,0.132,0.345,0,0.477
			l-0.24,0.241c-0.132,0.131-0.346,0.131-0.477,0l-2.103-2.103l2.103-2.102c0.131-0.132,0.345-0.132,0.477,0l0.24,0.24
			c0.132,0.131,0.132,0.345,0,0.477l-0.252,0.251c-0.275,0.275-0.694,0.626-0.72,0.64c0.172-0.036,0.952-0.033,0.952-0.033l2.776,0
			c0.193,0,0.35,0.156,0.35,0.35V23.656z M31.377,18.67c0,0.246-0.201,0.447-0.447,0.447h-5.048c-0.246,0-0.447-0.201-0.447-0.447
			V9.993c0-0.246,0.201-0.447,0.447-0.447h5.048c0.246,0,0.447,0.201,0.447,0.447V18.67z"/>
	</g>
	<g>
		<path fill="#25303B" d="M18.156,10.697c0.003-0.386,0.052-0.764,0.146-1.135c0.095-0.37,0.238-0.727,0.419-1.064
			c0.145-0.294,0.534-0.786,0.429-0.649h0l0,0l0.001-0.001l0.001-0.001l0.002-0.003l0.005-0.006l0.009-0.011l0.019-0.023
			c0.013-0.015,0.026-0.03,0.04-0.044c0.028-0.028,0.059-0.054,0.091-0.077c0.063-0.046,0.131-0.077,0.205-0.083
			c0.145-0.008,0.267,0.084,0.366,0.183c0.099,0.1,0.189,0.224,0.201,0.356c0.003,0.065-0.012,0.126-0.038,0.183
			c-0.013,0.029-0.029,0.055-0.046,0.082c-0.008,0.013-0.017,0.027-0.026,0.039l-0.014,0.019l-0.007,0.009l-0.004,0.005
			l-0.002,0.002L19.953,8.48l0,0c0.08-0.105-0.222,0.278-0.335,0.507c-0.141,0.262-0.253,0.54-0.326,0.829
			c-0.073,0.287-0.111,0.588-0.114,0.882c0.003,0.293,0.041,0.594,0.114,0.882c0.074,0.288,0.186,0.566,0.326,0.829
			c0.113,0.229,0.415,0.612,0.335,0.507l0,0l0.001,0.001l0.002,0.002l0.004,0.005l0.007,0.009l0.014,0.019
			c0.009,0.013,0.018,0.026,0.026,0.039c0.017,0.026,0.033,0.053,0.046,0.082c0.025,0.057,0.041,0.119,0.038,0.183
			c-0.012,0.131-0.102,0.256-0.201,0.356c-0.099,0.1-0.221,0.191-0.366,0.184c-0.073-0.005-0.142-0.037-0.205-0.083
			c-0.032-0.023-0.062-0.048-0.091-0.076c-0.014-0.014-0.027-0.029-0.04-0.044l-0.019-0.023l-0.009-0.012l-0.005-0.006l-0.002-0.003
			l-0.001-0.001l-0.001-0.001l0,0l0,0c0.105,0.138-0.284-0.354-0.429-0.649c-0.181-0.336-0.324-0.693-0.419-1.064
			C18.208,11.461,18.159,11.083,18.156,10.697"/>
	</g>
	<g>
		<g>
			<path fill="#26303C" d="M17.374,6.425c-0.015,0.019-0.036,0.047-0.06,0.08L17.374,6.425L17.374,6.425z"/>
		</g>
		<g>
			<path fill="#25303B" d="M16.049,10.697c0.005,0.561,0.077,1.121,0.214,1.663c0.135,0.528,0.342,1.053,0.614,1.557
				c0.154,0.313,0.506,0.792,0.618,0.939l0.011,0.013l0,0c0.003,0.003,0.005,0.006,0.007,0.01l0.044,0.052
				c0.016,0.019,0.034,0.039,0.053,0.058c0.034,0.034,0.073,0.066,0.114,0.096c0.078,0.057,0.153,0.089,0.223,0.094
				c0.127,0.009,0.26-0.065,0.421-0.227c0.154-0.155,0.242-0.305,0.253-0.432c0.003-0.056-0.012-0.122-0.043-0.194
				c-0.015-0.033-0.036-0.066-0.057-0.099c-0.012-0.019-0.023-0.036-0.035-0.053l-0.022-0.03l-0.001,0l0,0l-0.032-0.046l0.002-0.001
				c-0.215-0.238-0.502-0.754-0.505-0.76c-0.221-0.413-0.391-0.843-0.501-1.275c-0.111-0.439-0.172-0.91-0.176-1.362
				c0.004-0.455,0.065-0.926,0.176-1.364c0.111-0.432,0.28-0.863,0.504-1.28c0.001-0.003,0.502-0.755,0.502-0.755l0.053-0.079
				c0.011-0.015,0.022-0.032,0.032-0.049c0.023-0.036,0.044-0.069,0.06-0.104c0.03-0.07,0.045-0.136,0.042-0.199
				c-0.011-0.12-0.099-0.27-0.253-0.425c-0.161-0.161-0.298-0.233-0.424-0.227c-0.067,0.005-0.141,0.036-0.218,0.092
				c-0.042,0.03-0.081,0.063-0.118,0.099c-0.017,0.017-0.035,0.038-0.052,0.058l-0.027,0.032l-0.002-0.001
				c-0.007,0.01-0.013,0.019-0.02,0.027h0h0c0,0.001-0.001,0.001-0.002,0.002l-0.001-0.001c-0.098,0.128-0.469,0.628-0.626,0.946
				c-0.274,0.51-0.481,1.034-0.616,1.563C16.126,9.576,16.054,10.136,16.049,10.697z"/>
		</g>
	</g>
	<g>
		<path fill="#25303B" d="M20.406,12.227c0.092,0.144,0.229,0.275,0.378,0.295c0.15,0.014,0.272-0.078,0.371-0.178
			c0.099-0.1,0.188-0.225,0.206-0.35c0.015-0.126-0.039-0.23-0.099-0.323c-0.192-0.293-0.291-0.64-0.295-0.975
			c0.004-0.335,0.103-0.682,0.295-0.975c0.06-0.093,0.114-0.197,0.099-0.323c-0.018-0.125-0.107-0.25-0.206-0.35
			c-0.099-0.1-0.221-0.192-0.371-0.178c-0.149,0.02-0.286,0.151-0.378,0.295c-0.298,0.46-0.454,0.988-0.459,1.53
			C19.951,11.239,20.108,11.768,20.406,12.227"/>
	</g>
</g>
<g>
	<g>
		<circle fill="#EB2132" cx="18.722" cy="23.457" r="3.484"/>
		<rect x="15.707" y="22.984" fill="#FFFFFF" width="6.031" height="0.946"/>
	</g>
</g>
</svg>
