<?xml version="1.0" encoding="utf-8"?>
<!-- Generator: Adobe Illustrator 25.4.1, SVG Export Plug-In . SVG Version: 6.00 Build 0)  -->
<svg version="1.1" id="Layer_1" xmlns="http://www.w3.org/2000/svg" xmlns:xlink="http://www.w3.org/1999/xlink" x="0px" y="0px"
	 viewBox="0 0 283.465 283.464" enable-background="new 0 0 283.465 283.464" xml:space="preserve">
<g>
	<path fill="#996017" d="M219.685,283.464H63.779C28.555,283.464,0,254.909,0,219.685V63.779C0,28.555,28.555,0,63.779,0h155.906
		c35.225,0,63.779,28.555,63.779,63.779v155.906C283.464,254.909,254.91,283.464,219.685,283.464"/>
	<path fill="#FFFFFF" d="M166.088,53.202c2.341-2.267,5.914-2.816,9.231-2.816s6.892,0.549,9.231,2.816
		c2.268,2.34,2.816,5.914,2.816,9.231c0,3.318-0.548,6.892-2.816,9.232c-2.339,2.266-5.914,2.815-9.231,2.815
		s-6.89-0.549-9.231-2.815c-2.268-2.34-2.816-5.914-2.816-9.232C163.272,59.116,163.82,55.542,166.088,53.202 M80.672,96.531
		c-2.135,2.202-2.651,5.566-2.651,8.688c0,3.123,0.516,6.486,2.651,8.688c2.202,2.134,5.565,2.65,8.687,2.65
		c3.122,0,6.486-0.516,8.689-2.65c2.133-2.202,2.65-5.565,2.65-8.688c0-3.122-0.517-6.486-2.65-8.688
		c-2.203-2.134-5.567-2.651-8.689-2.651C86.237,93.88,82.874,94.397,80.672,96.531 M115.82,200.8c0-2.028-0.535-4.015-1.557-5.767
		c-4.115-7.054-10.879-18.649-10.879-18.649h0.044V143.31l7.178,7.016c0.63,0.865,1.552,1.538,2.563,1.904
		c0.234,0.059,0.454,0.073,0.63,0.161c0.366,0.088,0.761,0.147,1.215,0.147c0.279,0,0.616-0.059,0.865-0.059l0.38-0.088
		l18.852-3.295v-0.059c1.67-0.307,3.267-1.347,4.189-2.929c0.074-0.132,0.103-0.249,0.176-0.411l22.015-37.878v12.392l-17.46,37.908
		l-0.527,1.128c-0.044,0.22-0.073,0.439-0.073,0.732c0,1.582,1.186,2.959,2.768,3.091c0.118,0.073,0.249,0.073,0.425,0.073
		c0.103,0,0.22,0,0.352-0.073h11.879v10.678l-17.387,29.984c-0.058,0.088-0.058,0.117-0.058,0.117
		c-0.926,1.62-1.646,3.502-1.207,5.275c0.504,1.797,2.114,3.099,3.755,4.055c1.642,0.956,3.569,1.716,5.38,1.269
		c1.796-0.504,3.099-2.115,4.055-3.756c0.168-0.288,0.325-0.586,0.475-0.889c0,0,10.776-18.649,17.238-29.831
		c1.006-1.742,1.532-3.712,1.532-5.724V163.07h5.332v52.11c-0.01,0.227-0.015,0.454-0.015,0.68c0,1.899,0.314,3.946,1.613,5.286
		c1.34,1.299,3.387,1.613,5.287,1.613c1.899,0,3.946-0.314,5.287-1.613c1.288-1.329,1.606-3.355,1.611-5.242
		c0.01,0,0.014-25.061,0.015-40.663c0-7.052,0-12.171,0-12.171h11.953c0.102,0.073,0.234,0.073,0.322,0.073
		c0.132,0,0.264,0,0.352-0.073c1.611-0.132,2.841-1.509,2.841-3.091c0-0.307-0.044-0.542-0.102-0.849l-0.454-0.982l-17.533-37.937
		v-19.116c0,0,9.031,8.969,15.144,15.038c2.151,2.135,5.055,3.331,8.086,3.331h19.482c0.014-0.001,0.029,0,0.044,0
		c1.645,0,3.418-0.272,4.579-1.397c1.125-1.161,1.397-2.934,1.397-4.58c0-1.645-0.272-3.418-1.397-4.579
		c-1.161-1.125-2.934-1.398-4.579-1.398c-0.015,0-0.03,0.001-0.044,0.001h-19.35l-23.362-23.246l-0.045-0.073l-1.23-1.186
		l-0.235-0.279l-0.043,0.044c-1.846-1.494-4.19-2.446-6.768-2.446h-11.029c-3.34,0-6.299,1.567-8.306,3.984
		c-0.571,0.645-1.054,1.348-1.449,2.11l-30.38,52.35l-12.787,2.256l-13.447-13.432l-3.296-3.193
		c-0.043-0.015-0.131-0.088-0.175-0.102l-0.22-0.264l-0.308-0.22c-0.571-0.395-1.098-0.791-1.743-1.098
		c-1.376-0.704-2.9-1.114-4.584-1.114H85.5h-0.207c-2.632,0-5.155,1.046-7.016,2.906l-31.084,31.084
		c-1.086,1.086-2.077,2.436-2.1,3.944c0.024,1.508,1.014,2.856,2.1,3.942c1.085,1.086,2.435,2.076,3.942,2.1
		c1.508-0.024,2.857-1.014,3.943-2.1c0,0,9.109-9.109,18.609-18.609c0.548-0.548,1.097-1.098,1.647-1.647v32.884l-5.727,21.547
		c0,0-18.442,18.324-18.442,18.338h-0.044l-0.044,0.045v0.043c-1.208,1.257-2.303,2.781-2.336,4.485
		c0.021,1.755,1.166,3.329,2.424,4.597c1.259,1.268,2.824,2.427,4.579,2.462c1.754-0.021,3.329-1.166,4.597-2.425
		c0.215-0.213,0.424-0.438,0.627-0.668l18.094-18.027c1.437-1.431,2.466-3.212,2.987-5.172c2.435-9.173,6.527-24.58,6.527-24.58
		l14.266,24.417v25.883v0.029v0.088c0.035,1.745,0.344,3.6,1.532,4.826c1.261,1.221,3.185,1.516,4.972,1.516
		c1.787,0,3.712-0.295,4.972-1.516c1.221-1.26,1.517-3.185,1.517-4.972c0-0.213-0.006-0.427-0.015-0.642v-14.008V200.8z"/>
</g>
</svg>
