<?xml version="1.0" encoding="utf-8"?>
<!-- Generator: Adobe Illustrator 25.4.1, SVG Export Plug-In . SVG Version: 6.00 Build 0)  -->
<svg version="1.1" id="Layer_1" xmlns="http://www.w3.org/2000/svg" xmlns:xlink="http://www.w3.org/1999/xlink" x="0px" y="0px"
	 viewBox="0 0 187.7 192.8" style="enable-background:new 0 0 187.7 192.8;" xml:space="preserve">
<style type="text/css">
	.st0{fill:#FFFFFF;}
</style>
<g>
	<path class="st0" d="M107.3,53.1c-3.6,0-6.5-1.2-8.5-3.4c-1-1.2-1.8-2.7-2.2-4.6l-0.3-1.2h15.3v-2.3H95.7v-2c0-0.6,0-1.3,0.1-2
		l0.1-0.9h15.7v-2.3H96.4l0.3-1.3c0.5-1.8,1.2-3.2,2.1-4.3c1.9-2.3,4.7-3.6,8.1-3.6c2.3,0,4.5,0.6,6,1.1l1.2-4.9
		c-2.3-0.9-5.1-1.4-7.8-1.4c-5.2,0-9.7,2-13.1,5.8c-1.9,2.2-3.2,4.8-3.9,7.8l-0.2,0.8h-3.8v2.3h3.4v1c0,0.3,0,0.6,0,1
		c0,0.3,0,0.6,0,0.9v2h-3.3v2.3H89l0.1,0.8c0.5,2.8,1.5,5.3,3.2,7.3c3.1,4.1,8.2,6.5,13.9,6.5c3.3,0,6.3-0.9,8.2-1.8l-1-4.7
		C111.9,52.5,109.6,53.1,107.3,53.1z"/>
	<path class="st0" d="M95.3,125.3c0,2.9,0.6,5,1.8,6.3c1.3,1.2,3.3,1.8,6.2,1.8h2.6c2-5.7,4.7-11.1,8.2-16.1h-10.8
		c-2.9,0-5,0.6-6.3,1.8C95.9,120.3,95.3,122.4,95.3,125.3z"/>
	<path class="st0" d="M180.7,78.4h3c0.5,0,1-0.4,1-1V2c0-0.5-0.4-1-1-1h-159c-0.5,0-1,0.4-1,1v10.4H13.3c-0.5,0-1,0.4-1,1v10.4H2
		c-0.5,0-1,0.4-1,1v75.4c0,0.5,0.4,1,1,1h87.6l0,1.2c0,0.1,0,0.3,0,0.4c0,2.9,0.6,5,1.8,6.3c1.3,1.2,3.3,1.8,6.2,1.8h17.6V101h10.5
		v19.1l-0.4,0.6l-0.9-0.5l0.8,0.6c-0.5,0.7-1,1.3-1.4,1.9l-0.3,0.4c-0.3,0.5-0.8,1.2-1.1,1.7c-0.1,0.2-0.2,0.3-0.3,0.5
		c-0.9,1.4-1.8,2.9-2.5,4.4c-0.7,1.4-1.4,2.8-1.9,4.2l-0.3,0.7c-2.7,6.7-4,13.9-4,21.2c0,5.3,0.7,10.6,2.2,15.6
		c0.1,0.3,0.1,0.5,0.1,0.8v19.4h49.6v-22.6c0-1.6,0.3-3.2,0.9-4.7l19.2-46.4c1.5-3.6,1.9-7.4,1.1-11.2L180.7,78.4z M125.7,97.4H4.7
		v-70h7.7v62.4h113.4V97.4z M125.7,86H16V16h7.7v62.4h102V86z M136.1,63.4c-3.7,0-6.3,0.8-8,2.4c-1.6,1.6-2.3,4.2-2.3,8v1H27.3v-70
		H181v70h-34.6v-1c0-3.7-0.8-6.3-2.4-8C142.4,64.1,139.8,63.4,136.1,63.4z M158.3,111.2c0,2.4-1.9,4.3-4.3,4.3h-3.3
		c-2.4,0-4.3-1.9-4.3-4.3V101h11.9V111.2z M158.3,97.4h-11.9v-7.7h11.9V97.4z M169.7,86h-23.3v-7.7h23.3V86z"/>
</g>
</svg>
