<?xml version="1.0" encoding="utf-8"?>
<!-- Generator: Adobe Illustrator 25.4.1, SVG Export Plug-In . SVG Version: 6.00 Build 0)  -->
<svg version="1.1" id="Layer_1" xmlns="http://www.w3.org/2000/svg" xmlns:xlink="http://www.w3.org/1999/xlink" x="0px" y="0px"
	 viewBox="0 0 187.7 192.8" style="enable-background:new 0 0 187.7 192.8;" xml:space="preserve">
<style type="text/css">
	.st0{fill:#25303B;}
</style>
<g>
	<path class="st0" d="M88.2,44.8h-3.9v-4.3h3.3v-1c0-0.6,0.1-1.2,0.1-1.8h-3.4v-4.3h4c0.8-3.2,2.2-6,4.1-8.2
		c3.4-3.8,8.2-6.1,13.9-6.1c3.7,0,6.8,0.8,9,1.8l-1.7,6.8c-1.6-0.7-4-1.4-6.7-1.4c-2.9,0-5.5,1-7.4,3.2c-0.8,1-1.5,2.3-1.9,3.9h14.9
		v4.3H96.8c-0.1,0.6-0.1,1.3-0.1,1.9v1h15.9v4.3H97.5c0.4,1.8,1.1,3.2,2,4.2c1.9,2.2,4.7,3.1,7.7,3.1c2.8,0,5.6-0.9,6.8-1.6l1.4,6.7
		c-2,1.1-5.5,2.3-9.4,2.3c-5.9,0-11.3-2.4-14.6-6.8C89.9,50.6,88.7,48,88.2,44.8 M114.5,192.8v-20.4c0-0.2,0-0.3-0.1-0.5
		c-1.5-5.1-2.2-10.5-2.2-15.9c0-7.5,1.4-14.8,4.1-21.5h0c0.7-1.7,1.4-3.3,2.2-4.9c0,0,0-0.1,0-0.1c0.8-1.5,1.6-3,2.6-4.5
		c0.1-0.2,0.2-0.4,0.3-0.5c0.3-0.5,0.8-1.3,1.2-1.7c0.1-0.1,0.2-0.3,0.3-0.4c0.4-0.6,0.9-1.3,1.4-1.9l0.1-0.1c0,0,0.1-0.1,0.1-0.1
		l0.2-0.3V102h-8.5v9.6H97.7c-2.5,0-5.2-0.4-6.9-2.1c-1.7-1.8-2.1-4.5-2.1-6.9c0-0.2,0-0.4,0-0.6H2c-1.1,0-2-0.9-2-2V24.7
		c0-1.1,0.9-2,2-2h9.4v-9.4c0-1.1,0.9-2,2-2h9.4V2c0-1.1,0.9-2,2-2h159c1.1,0,2,0.9,2,2v75.4c0,1.1-0.9,2-2,2h-1.8l5.4,27.3
		c0.8,4,0.4,8-1.2,11.8L167,164.8c-0.6,1.4-0.9,2.8-0.9,4.3v23.6H114.5z M124.7,90.7H11.3V28.3H5.7v68h119.1V90.7z M124.7,79.4h-102
		V17H17v5.7v5.7V85h107.7V79.4z M157.3,111.2V102h-9.9v9.2c0,1.8,1.5,3.3,3.3,3.3h3.3C155.8,114.5,157.3,113,157.3,111.2
		 M157.3,90.7h-9.9v5.7h9.9V90.7z M168.7,79.4h-21.3V85h21.3V79.4z M180,5.7H28.3v5.7V17v56.7h96.4c0-3.1,0.5-6.5,2.7-8.7
		c2.2-2.1,5.6-2.6,8.7-2.6c3.1,0,6.5,0.5,8.7,2.6c2.1,2.2,2.6,5.6,2.6,8.7h21.3h5.7h5.7V5.7z M103.3,116.2c-2.5,0-5.2,0.4-7,2.1
		c-1.7,1.8-2.1,4.5-2.1,7c0,2.5,0.4,5.2,2.1,6.9c1.8,1.7,4.5,2.1,7,2.1h3.4c2.2-6.4,5.3-12.5,9.4-18.1H103.3z"/>
</g>
</svg>
