<svg xmlns="http://www.w3.org/2000/svg" viewBox="0 0 283.46 283.46"><defs><style>.cls-1{fill:#006fb6;}.cls-2{fill:#fff;}</style></defs><g id="Layer_2" data-name="Layer 2"><g id="Layer_1-2" data-name="Layer 1"><path class="cls-1" d="M219.68,283.46H63.78A63.77,63.77,0,0,1,0,219.68V63.78A63.78,63.78,0,0,1,63.78,0h155.9a63.78,63.78,0,0,1,63.78,63.78v155.9a63.77,63.77,0,0,1-63.78,63.78"/><path class="cls-2" d="M238.61,143.19a20.81,20.81,0,0,0-4.23-12.61l0-.07a117.48,117.48,0,0,0-89-44.88s-3.65.08-3.86.1l-9.86-40.8A4,4,0,0,0,126.87,42l-3.85.93a4,4,0,0,0-2.93,4.79l9.3,38.48a117.51,117.51,0,0,0-80.28,44.3l0,.07a20.94,20.94,0,0,0-4.21,13.22c0,.35.09,1.53.12,1.76,0,0,.08.66.13.87.24,1.13.49,2.22.49,2.22l.32,1.29,1.24,5.15a3.49,3.49,0,0,0,4.21,2.57l3.41-.83a3.48,3.48,0,0,0,2.57-4.21l-1.24-5.15-.31-1.28-.16-.65-.07-.32-.1-.41-.07-.43a8.69,8.69,0,0,1,0-.89,10.39,10.39,0,0,1,2.08-6.58h0q1.43-1.8,2.93-3.54l11.8,48.79a3.48,3.48,0,0,0,4.2,2.57l3.42-.83a3.48,3.48,0,0,0,2.57-4.2L69,124.43q3.45-3.18,7.17-6.06L94,192.24a3.49,3.49,0,0,0,4.21,2.57l3.41-.82a3.49,3.49,0,0,0,2.57-4.21L85.41,112q3.72-2.3,7.61-4.28l21.73,89.92a3.5,3.5,0,0,0,4.21,2.57l3.42-.83a3.49,3.49,0,0,0,2.57-4.21L119,170.7a32.72,32.72,0,0,0,10.37,5.11L135,198.87h0a3.48,3.48,0,0,0,4.2,2.57l3.42-.82a3.5,3.5,0,0,0,2.57-4.21L140.5,177a32.56,32.56,0,0,0,10.28-2.3l15.15,62.68a4,4,0,0,0,4.79,2.93l3.86-.94a4,4,0,0,0,2.93-4.79l-8.92-36.89a117.67,117.67,0,0,0,65.76-41.86l0-.07a20.81,20.81,0,0,0,4.23-12.6M109.08,129.5l-6.32-26.16c2.77-1.08,5.59-2,8.44-2.88L116,120.23a33,33,0,0,0-6.9,9.27m16.2-15.43L121.39,98q5.2-1,10.49-1.47l3.61,14.92a32.56,32.56,0,0,0-10.21,2.64M148,112.69,144.1,96.4c.72.11,1.55.25,2.54.39.41.06.84.12,1.29.2l1.39.36,3.12.81,3.45,1.26c.3.12.61.21.92.35l.9.44,1.88.9a46.84,46.84,0,0,1,24.76,31.76,20.42,20.42,0,0,1,.51,2.79l.43,2.8c0,.94.09,1.88.13,2.82a21.87,21.87,0,0,1,.07,2.8A45.12,45.12,0,0,1,184,154.9a51.75,51.75,0,0,1-1.54,5c-.67,1.56-1.26,3.13-2,4.56s-1.56,2.8-2.33,4.12c-.41.65-.86,1.25-1.28,1.86a17.55,17.55,0,0,1-1.29,1.75,47.47,47.47,0,0,1-9.88,9.45c-.29.22-.56.41-.83.59l-3.47-14.36A32.9,32.9,0,0,0,148,112.69m50.34,61.5a106.86,106.86,0,0,1-18.77,9.24,59.09,59.09,0,0,0,4.21-4.8c.56-.67,1.07-1.39,1.58-2.13s1.06-1.49,1.56-2.28c.95-1.61,2-3.24,2.85-5s1.68-3.66,2.49-5.58a64,64,0,0,0,1.89-6.11A55.67,55.67,0,0,0,196,144.28a30,30,0,0,0-.08-3.42l-.18-3.44c-.15-1.14-.33-2.28-.5-3.43a30.34,30.34,0,0,0-.63-3.4,58.86,58.86,0,0,0-11.85-24.19c-1-1.25-2.13-2.41-3.23-3.53a105.29,105.29,0,0,1,10.61,4.66A107.83,107.83,0,0,1,226,136.9h0a10.39,10.39,0,0,1,0,12.55h0a108,108,0,0,1-27.65,24.72"/></g></g></svg>