<?xml version="1.0" encoding="utf-8"?>
<!-- Generator: Adobe Illustrator 25.4.1, SVG Export Plug-In . SVG Version: 6.00 Build 0)  -->
<svg version="1.1" id="Layer_1" xmlns="http://www.w3.org/2000/svg" xmlns:xlink="http://www.w3.org/1999/xlink" x="0px" y="0px"
	 viewBox="0 0 283.465 283.465" enable-background="new 0 0 283.465 283.465" xml:space="preserve">
<g>
	<path fill="#006FB6" d="M219.685,283.465H63.78C28.555,283.465,0,254.91,0,219.686V63.78C0,28.556,28.555,0,63.78,0h155.905
		c35.225,0,63.78,28.556,63.78,63.78v155.906C283.465,254.91,254.91,283.465,219.685,283.465"/>
	<path fill="#FFFFFF" d="M53.622,201.919c7.197,6.381,14.649,12.586,22.417,18.072l2.934,1.996l1.467,0.999
		c0.241,0.16,0.496,0.348,0.726,0.484l0.684,0.395c0.91,0.528,1.799,1.088,2.787,1.505l1.442,0.686l1.509,0.574
		c4.038,1.512,8.416,2.429,12.92,2.787c4.503,0.357,9.111,0.294,13.701-0.198c1.148-0.109,2.294-0.263,3.437-0.424l1.711-0.266
		l0.855-0.143c0.157-0.046,0.276-0.083,0.419-0.113c0.537-0.147,0.974-0.341,1.35-0.676c0.39-0.306,0.76-0.713,1.058-1.286
		c0.18-0.248,0.277-0.601,0.43-0.903c0.093-0.356,0.24-0.68,0.296-1.071c0.183-0.739,0.23-1.565,0.217-2.388
		c-0.007-0.83-0.16-1.663-0.34-2.475l-0.439-1.435l-0.356-1.169l-0.269-1.203c-0.679-3.236-0.44-6.622,0.285-9.566
		c0.367-1.472,0.835-2.856,1.338-4.152c0.252-0.65,0.512-1.267,0.773-1.876l0.316-0.722c0.006,0.002-0.015-0.006,0.016,0.007
		c-0.195-0.086-0.431-0.168-0.648-0.253c-0.463-0.166-0.941-0.331-1.455-0.488c-1.015-0.316-2.107-0.612-3.225-0.902l-3.44-0.863
		l-1.768-0.441c-0.595-0.151-1.151-0.281-1.952-0.538c-2.98-0.896-5.643-2.323-8.01-4.081c-2.365-1.769-4.456-3.87-6.196-6.405
		c-0.455-0.604-0.822-1.33-1.222-2.001c-0.38-0.698-0.708-1.467-1.032-2.223l-0.208-0.614l-0.262-0.821
		c-0.23-0.59-0.261-1.165-0.344-1.752l-0.228-1.752l0.099-1.711c0.273-2.214,0.977-4.398,2.424-5.951
		c0.328-0.416,0.76-0.748,1.152-1.103c0.457-0.268,0.9-0.591,1.393-0.776c0.486-0.206,0.967-0.425,1.489-0.509l0.768-0.178
		l0.806-0.036l0.807-0.036l0.837,0.099c0.558,0.067,1.114,0.108,1.683,0.305c0.556,0.166,1.15,0.302,1.675,0.493l1.547,0.593
		l0.37,0.144l0.226,0.099l0.452,0.2l0.888,0.399l1.681,0.785c2.183,1.032,4.227,1.991,6.265,2.791
		c2.089,0.821,4.24,1.568,6.368,2.197c2.127,0.631,4.27,1.14,6.253,1.417c0.966,0.148,1.988,0.205,2.611,0.181l-0.035,0.005
		c-0.021,0.229,0.047-0.47,0.059-0.914c0.02-0.51,0.032-1.037,0.036-1.629c0.018-1.169-0.003-2.418,0.097-3.905
		c0.006-0.17,0.034-0.388,0.05-0.579l0.067-0.655c0.065-0.543,0.193-1.166,0.324-1.737c0.127-0.583,0.35-1.13,0.555-1.682
		c0.231-0.538,0.562-1.022,0.848-1.528c0.673-0.952,1.493-1.803,2.505-2.407c0.97-0.654,2.097-1.079,3.255-1.371
		c0.291-0.072,0.584-0.138,0.877-0.198l0.607-0.104l1.007-0.153c0.624-0.086,1.127-0.161,1.592-0.24
		c0.905-0.159,1.499-0.354,1.987-0.595c0.113-0.074,0.228-0.141,0.348-0.201l0.328-0.236c0.117-0.065,0.21-0.195,0.323-0.281
		c0.046-0.044,0.13-0.101,0.149-0.132c0.01-0.027,0.023-0.051,0.04-0.071c0.136-0.169,0.246-0.274,0.315-0.76
		c0.066-0.46,0.118-1.12-0.024-1.965c-0.201-1.642-0.857-3.665-1.65-5.672c-0.8-2.023-1.764-4.094-2.786-6.181l-0.387-0.784
		l-0.194-0.392l-0.221-0.5l-0.881-2.061c-0.417-1.253-0.911-2.556-1.239-3.765c-1.44-4.904-2.486-9.658-3.498-14.434
		c-0.99-4.765-1.892-9.518-2.768-14.263l-2.569-14.182c-0.429-2.344-0.863-4.694-1.327-6.945l-0.359-1.652l-0.461-1.495
		l-0.451-1.499l-0.223-0.751l-0.31-0.796c-0.836-2.125-1.6-4.242-2.585-6.389l-1.401-3.211l-1.494-3.205
		c-1.983-4.275-4.118-8.526-6.274-12.745c-0.871-1.692-0.197-3.763,1.5-4.67l3.103-1.651c1.7-0.908,3.828-0.216,4.72,1.516
		c2.213,4.332,4.391,8.665,6.449,13.103l1.55,3.323l1.48,3.39c1.017,2.221,1.897,4.618,2.812,6.964l0.341,0.883l0.298,0.972
		l0.588,1.95l0.577,1.953l0.407,1.867c0.505,2.452,0.941,4.824,1.378,7.204l2.565,14.167c0.869,4.699,1.757,9.382,2.721,14.02
		c0.975,4.618,2.008,9.25,3.277,13.561c0.299,1.11,0.677,2.049,1.006,3.078l0.535,1.25l0.137,0.325l0.205,0.416l0.41,0.83
		c1.089,2.225,2.159,4.509,3.126,6.951c0.95,2.458,1.867,5.017,2.291,8.146c0.229,1.526,0.27,3.3-0.052,5.202
		c-0.286,1.889-1.217,4.057-2.651,5.695l-0.539,0.618c-0.18,0.194-0.337,0.32-0.509,0.482c-0.345,0.3-0.66,0.619-1.043,0.89
		c-0.375,0.274-0.749,0.552-1.141,0.804c-0.401,0.237-0.807,0.468-1.216,0.692c-1.66,0.84-3.403,1.302-4.86,1.555l-3.023,0.463
		l-0.053,0.585c-0.066,0.909-0.059,2.063-0.074,3.294c-0.004,0.609-0.016,1.282-0.044,1.972c-0.041,0.753-0.045,1.258-0.251,2.669
		l-0.395,1.736c-0.182,0.555-0.392,1.105-0.637,1.627c-0.318,0.478-0.581,0.991-0.943,1.439l-0.533,0.679
		c-0.176,0.228-0.441,0.367-0.657,0.555c-0.904,0.71-1.902,1.292-3.026,1.637c-0.542,0.211-1.151,0.252-1.724,0.387
		c-0.572,0.136-1.171,0.185-1.811,0.204c-1.775,0.068-3.158-0.069-4.566-0.263c-2.773-0.393-5.311-1.018-7.787-1.747
		c-2.477-0.733-4.865-1.564-7.246-2.498c-2.433-0.956-4.737-2.045-6.893-3.063l-1.583-0.739l-1.359-0.606l-0.147-0.059v-0.012
		l-0.001-0.013c-0.003-0.014,0-0.008,0.018,0.048l0.072,0.241c0.164,0.338,0.294,0.685,0.488,1.038
		c0.229,0.351,0.376,0.719,0.658,1.068c0.974,1.427,2.303,2.786,3.782,3.886c1.481,1.103,3.123,1.958,4.744,2.441
		c0.338,0.125,0.95,0.277,1.52,0.419l1.725,0.431l3.547,0.89c1.205,0.313,2.432,0.643,3.709,1.04
		c0.635,0.194,1.292,0.418,1.959,0.659c0.343,0.132,0.673,0.249,1.029,0.401c0.592,0.231,1.101,0.5,1.646,0.761
		c2.118,1.096,3.925,2.625,4.835,4.659c0.479,1.003,0.707,2.132,0.693,3.222c0.03,1.087-0.346,2.183-0.709,3.288l-1.169,2.642
		c-0.221,0.517-0.437,1.03-0.627,1.523c-0.385,0.989-0.696,1.933-0.924,2.839c-0.429,1.81-0.516,3.436-0.188,5.01l0.126,0.592
		l0.186,0.589l0.282,0.915c0.117,0.389,0.243,0.776,0.345,1.168c0.375,1.573,0.636,3.169,0.665,4.793
		c0.033,1.623-0.075,3.264-0.455,4.913c-0.149,0.822-0.439,1.648-0.703,2.465c-0.345,0.815-0.649,1.631-1.131,2.419
		c-1.677,3.175-5.072,6.02-8.779,6.93c-0.453,0.115-0.928,0.231-1.366,0.325l-0.959,0.161l-1.922,0.298
		c-1.283,0.182-2.568,0.354-3.861,0.477c-5.159,0.55-10.397,0.637-15.667,0.217c-5.264-0.425-10.586-1.497-15.73-3.422l-1.924-0.741
		l-1.882-0.885c-1.27-0.552-2.47-1.28-3.677-1.988l-0.904-0.532c-0.296-0.178-0.534-0.356-0.804-0.534l-1.573-1.07l-3.145-2.141
		c-8.252-5.834-15.892-12.204-23.364-18.827c-1.458-1.314-1.598-3.561-0.278-4.968l2.402-2.567
		C50.059,200.791,52.219,200.655,53.622,201.919 M177.822,194.455c0.473-0.35,0.865-0.765,1.156-1.205
		c0.28-0.468,0.453-0.978,0.524-1.463c0.142-0.979-0.153-1.893-0.835-2.571l-2.486-2.485c-0.683-0.678-1.556-1.068-2.351-1.202
		c-0.401-0.066-0.775-0.059-1.129,0.013c-0.379,0.057-0.724,0.189-1.024,0.413c0,0-0.071,0.053-0.204,0.153
		c-0.131,0.102-0.322,0.253-0.603,0.406c-0.548,0.319-1.292,0.832-2.305,1.274c-1.971,0.961-4.825,1.868-7.783,2.093l-1.109,0.058
		c-0.381,0.017-0.693,0.057-1.181,0.046h-2.635h-4.672h-4.558c-1.926,0-3.487,1.561-3.487,3.487v3.515
		c0,1.925,1.561,3.486,3.487,3.486h4.558h4.672h2.635c0.411,0.011,1.001-0.028,1.527-0.051l1.618-0.088
		c4.328-0.328,8.528-1.656,11.462-3.088c1.492-0.671,2.647-1.43,3.469-1.926c0.415-0.241,0.722-0.471,0.932-0.628
		C177.71,194.537,177.822,194.455,177.822,194.455 M140.849,229.656c-1.925,0-3.486,1.561-3.486,3.486v3.515
		c0,1.926,1.561,3.487,3.486,3.487h10.985h5.788h3.286h1.736c0.303-0.002,0.609-0.003,0.916-0.005
		c0.349-0.01,0.701-0.021,1.056-0.032c5.675-0.145,12.099-1.872,17.963-5.29c2.93-1.702,5.738-3.768,8.395-6.098
		c2.636-2.348,5.141-4.945,7.486-7.742c4.71-5.579,8.83-11.946,12.694-18.488c0.236-0.378,0.499-0.884,0.754-1.36l0.765-1.443
		c0.542-0.964,0.881-1.939,1.328-2.917c0.451-0.978,0.768-1.96,1.127-2.947l0.522-1.483l0.446-1.488
		c1.193-3.974,2.073-7.995,2.741-12.041c0.665-4.048,1.146-8.123,1.483-12.219c0.168-2.049,0.297-4.101,0.384-6.171l0.067-1.896
		l2.84-0.681c0.592-0.161,1.206-0.334,1.897-0.593c0.332-0.127,0.687-0.257,1.173-0.493c0.452-0.21,0.885-0.456,1.307-0.715
		c1.67-1.062,3.042-2.604,3.711-4.472c0.176-0.457,0.345-0.942,0.477-1.391l0.252-1.121c0.149-0.682,0.2-1.22,0.299-1.838
		c0.139-1.15,0.233-2.246,0.296-3.306c0.126-2.12,0.174-4.148,0.212-6.144c0.035-1.954,0.07-3.899,0.104-5.835
		c0.045-1.891,0.12-3.751,0.287-5.381c0.074-0.83,0.207-1.502,0.326-1.978l0.308-0.924c0.151-0.352,0.256-0.669,0.435-1.05
		c0.65-1.477,1.559-3.16,2.43-5.152c0.849-1.986,1.738-4.383,1.839-7.286c-0.02-0.732-0.013-1.462-0.115-2.192
		c-0.136-0.725-0.225-1.478-0.463-2.162c-0.426-1.421-1.048-2.654-1.771-3.811c-1.433-2.298-3.672-4.22-6.007-5.358
		c-2.346-1.163-4.716-1.66-6.891-1.85c-1.087-0.085-2.15-0.117-3.167-0.083c-0.508,0.017-1.014,0.037-1.499,0.079l-0.627,0.049
		l-0.005,0.001l0.013,0.046c-0.133-0.54-0.241-1.167-0.336-1.807c-0.181-1.299-0.284-2.693-0.349-4.077
		c-0.231-5.593,0.051-11.026,0.272-15.848c0.116-2.422,0.236-4.707,0.305-6.908c0.011-0.569,0.021-1.125,0.032-1.67
		c-0.001-0.151,0.007-0.25-0.002-0.443l-0.032-0.584c-0.03-0.386-0.059-0.768-0.089-1.146c-0.101-0.696-0.236-1.333-0.365-1.971
		c-0.166-0.575-0.327-1.136-0.484-1.682c-1.432-4.104-3.018-6.609-4.069-8.385c-1.073-1.742-1.696-2.619-1.696-2.619
		c-1.172-1.733-3.477-2.143-4.999-0.962l-2.756,2.181c-1.522,1.181-1.897,3.229-0.912,4.687c0,0,0.534,0.753,1.425,2.201
		c0.868,1.422,2.175,3.649,3.04,6.162c0.085,0.293,0.172,0.594,0.261,0.903c0.05,0.263,0.1,0.533,0.151,0.809
		c0,0.105,0.005,0.209,0.016,0.315l0.021,0.159c0.009,0.056,0,0.209,0.001,0.31c-0.009,0.464-0.017,0.939-0.027,1.424
		c-0.062,2.009-0.18,4.274-0.297,6.714c-0.218,4.9-0.53,10.454-0.272,16.84c0.076,1.606,0.191,3.267,0.44,5.055
		c0.132,0.901,0.289,1.826,0.532,2.829c0.097,0.351,0.208,0.833,0.326,1.195c0.117,0.38,0.278,0.737,0.418,1.107
		c0.158,0.358,0.266,0.752,0.463,1.084l0.57,1.017c0.852,1.268,1.951,2.386,3.356,3.042c0.344,0.185,0.713,0.273,1.075,0.391
		c0.365,0.128,0.715,0.212,1.101,0.252c0.393,0.017,0.76,0.113,1.176,0.067l1.227-0.091l1.159-0.124l0.453-0.045l0.261-0.019
		c0.353-0.032,0.69-0.042,1.027-0.054c0.675-0.024,1.316,0.003,1.941,0.047c1.239,0.102,2.326,0.382,3.142,0.793
		c0.818,0.421,1.396,0.903,1.876,1.672c0.492,0.807,0.669,1.385,0.667,2.157c-0.017,0.793-0.348,1.981-0.979,3.418
		c-0.622,1.444-1.509,3.088-2.402,5.088c-0.223,0.48-0.44,1.061-0.656,1.59c-0.209,0.572-0.409,1.178-0.593,1.796
		c-0.366,1.379-0.549,2.605-0.655,3.694c-0.223,2.205-0.291,4.223-0.342,6.227c-0.035,1.96-0.07,3.93-0.105,5.908
		c-0.037,1.935-0.085,3.853-0.194,5.686c-0.054,0.916-0.133,1.795-0.231,2.616c-0.089,0.742-0.306,1.709-0.25,1.45l-0.207,0.08
		c-0.242,0.094-0.589,0.194-0.959,0.296c-0.372,0.101-0.813,0.202-1.28,0.311l-1.703,0.403c-1.939,0.482-3.802,1.239-5.184,2.513
		c-0.692,0.633-1.276,1.402-1.686,2.248c-0.195,0.426-0.357,0.855-0.474,1.301l-0.196,1.427c-0.092,0.464-0.064,0.98-0.076,1.476
		l-0.03,1.158l-0.054,1.434c-0.08,1.918-0.201,3.844-0.359,5.761c-0.315,3.834-0.766,7.636-1.376,11.349
		c-1.256,7.393-3.11,14.55-6.356,20.046c-3.747,6.349-7.545,12.168-11.701,17.089c-2.065,2.465-4.214,4.68-6.4,6.63
		c-2.2,1.927-4.446,3.568-6.697,4.878c-4.515,2.608-9.023,3.774-13.072,3.891c-0.254,0.009-0.505,0.017-0.755,0.026
		c-0.29,0.002-0.579,0.003-0.865,0.005h-1.736h-3.286h-5.788H140.849z M113.32,111.044c-0.129-1.467-5.418-12.326-11.475-9.644
		c-0.064,0.028-5.499,2.98-8.072,4.375c-2.584,1.402-7.833,4.096-8.345,4.608c-0.394,0.394-0.394,1.077-0.394,1.292
		c0,0.465,0.077,0.965,0.394,1.293c0.164,0.158,0.371,0.257,0.595,0.316c0.112,0.029,0.229,0.049,0.346,0.061l0.176,0.013
		l25.506-0.013c0.118-0.012,0.234-0.032,0.346-0.061c0.224-0.059,0.431-0.158,0.595-0.316c0.317-0.328,0.394-0.828,0.394-1.293
		C113.386,111.465,113.366,111.249,113.32,111.044 M188.566,111.044c-0.129-1.467-5.418-12.326-11.475-9.644
		c-0.064,0.028-5.499,2.98-8.072,4.375c-2.584,1.402-7.832,4.096-8.345,4.608c-0.394,0.394-0.394,1.077-0.394,1.292
		c0,0.465,0.077,0.965,0.394,1.293c0.164,0.158,0.371,0.257,0.595,0.316c0.112,0.029,0.229,0.049,0.346,0.061l0.176,0.013
		l25.506-0.013c0.118-0.012,0.234-0.032,0.346-0.061c0.224-0.059,0.431-0.158,0.595-0.316c0.317-0.328,0.394-0.828,0.394-1.293
		C188.632,111.465,188.612,111.249,188.566,111.044"/>
</g>
</svg>
