<?xml version="1.0" encoding="utf-8"?>
<!-- Generator: Adobe Illustrator 25.4.1, SVG Export Plug-In . SVG Version: 6.00 Build 0)  -->
<svg version="1.1" id="Layer_1" xmlns="http://www.w3.org/2000/svg" xmlns:xlink="http://www.w3.org/1999/xlink" x="0px" y="0px"
	 viewBox="0 0 283.5 283.5" style="enable-background:new 0 0 283.5 283.5;" xml:space="preserve">
<style type="text/css">
	.st0{fill:#006FB6;}
	.st1{fill:#FFFFFF;}
</style>
<g>
	<path class="st0" d="M219.7,283.5H63.8C28.6,283.5,0,254.9,0,219.7V63.8C0,28.6,28.6,0,63.8,0h155.9c35.2,0,63.8,28.6,63.8,63.8
		v155.9C283.5,254.9,254.9,283.5,219.7,283.5"/>
	<path class="st1" d="M200.4,90.7c0,0-0.1,0.1-0.1,0.1c0.7,1.3,1.3,2.7,1.9,4.1c0.4,1.3,1,2.5,1.3,3.8c0.3,1.3,0.7,2.6,1,3.9
		c0.2,1.3,0.4,2.6,0.6,4c0.1,0.7,0.1,1.3,0.2,2l0.1,2c0.2,5.4-0.6,10.8-2.2,15.9c-0.5,1.3-0.9,2.6-1.4,3.8c-0.6,1.2-1.1,2.5-1.7,3.6
		c-0.6,1.2-1.3,2.4-2.1,3.5c-0.4,0.6-0.7,1.1-1.1,1.7l-1.2,1.6c-0.8,1.1-1.6,2-2.3,2.9l-2.3,2.8c-1.5,1.8-3,3.6-4.5,5.4
		c-3,3.6-5.8,7.2-8.3,10.7c-0.5,0.9-1.1,1.7-1.6,2.6c-0.5,0.9-1,1.9-1.5,2.8c-1,1.9-2,3.9-2.9,5.9c-3.7,8-7,15.9-9.4,23.4
		c-0.7,1.9-1.1,3.6-1.5,5.4c-0.1,0.4-0.2,1-0.4,1.5c-0.1,0.5-0.2,1.1-0.4,1.6c-0.3,1.1-0.6,2.1-1,3.1c-1.4,4.1-3.4,8-6,11.4
		c-2.6,3.4-6,6.3-9.8,8.1c-0.5,0.2-0.9,0.5-1.4,0.6c-0.5,0.2-1,0.3-1.5,0.5c-1,0.4-2,0.5-3,0.7c-1,0.2-2,0.2-2.9,0.3
		c-1,0.1-1.8,0-2.7,0c-6.8-0.3-12.9-2.7-17-6c-0.3-0.2-0.5-0.4-0.8-0.6c-0.2-0.2-0.5-0.4-0.7-0.6c-0.5-0.4-0.9-0.8-1.3-1.3
		c-0.8-0.9-1.5-1.7-2.1-2.6c-0.3-0.4-0.6-0.8-0.8-1.3c-0.2-0.4-0.5-0.8-0.7-1.2c-0.5-0.8-0.7-1.5-1-2.2c-0.1-0.3-0.3-0.7-0.4-1
		c-0.1-0.3-0.2-0.6-0.3-0.9c-0.1-0.5-0.3-1-0.4-1.3c-0.1-0.4-0.1-0.6-0.2-0.8c0-0.2,0-0.3,0-0.3c-0.1-0.6-0.1-1.2,0-1.8
		c0.1-0.5,0.4-1,0.7-1.4c0.6-0.8,1.4-1.2,2.4-1.2h3.5c1,0,1.9,0.3,2.5,0.8c0.3,0.2,0.6,0.5,0.8,0.8c0.2,0.3,0.4,0.6,0.4,0.9
		c0,0,0.1,0.9,0.7,2.3c0.2,0.4,0.3,0.8,0.5,1.2c0.1,0.2,0.2,0.4,0.4,0.7c0.1,0.2,0.3,0.4,0.5,0.7c0.6,1,1.6,2,2.8,2.9
		c2.4,1.9,6.3,3.5,11.1,3.8c0.6,0,1.3,0.1,1.8,0c0.5-0.1,1.1,0,1.6-0.2c0.5-0.1,1.1-0.2,1.6-0.4c0.3-0.1,0.5-0.2,0.8-0.3
		c0.3-0.1,0.5-0.2,0.8-0.4c2.1-1,4.2-2.6,5.9-5c1.8-2.3,3.3-5.2,4.4-8.4c0.3-0.8,0.5-1.6,0.8-2.4c0.1-0.4,0.2-0.8,0.3-1.3
		c0.1-0.5,0.2-0.9,0.3-1.4c0.6-2.1,1.1-4.3,1.8-6.3c2.7-8.2,6-16.3,9.9-24.7c1-2.1,2-4.2,3.1-6.3c0.6-1.1,1.2-2.1,1.7-3.2
		c0.7-1.1,1.4-2.2,2.1-3.3c2.8-4.1,5.8-7.8,8.9-11.5c1.5-1.8,3-3.6,4.6-5.5l2.3-2.7c0.7-0.9,1.5-1.8,2.1-2.7l1-1.3
		c0.3-0.4,0.6-0.9,0.9-1.3c0.6-0.8,1.1-1.8,1.6-2.7c0.5-0.9,0.9-1.9,1.4-2.8c0.4-1,0.7-2,1.1-2.9c1.3-4,1.9-8.2,1.7-12.4l-0.1-1.6
		c0-0.5,0-1-0.1-1.6l-0.5-3.1l-0.8-3c-0.3-1-0.7-1.9-1-2.9c-3-7.6-8.6-14.2-15.4-18.1c-3.4-2-7-3.4-10.7-4.2c-3.7-0.7-7.4-1-11-0.7
		c-0.9,0.1-1.8,0.3-2.7,0.4l-1.3,0.2l-1.3,0.3c-0.8,0.2-1.7,0.4-2.5,0.7c-0.8,0.3-1.6,0.6-2.4,0.9c-3.1,1.3-6,2.9-8.5,4.8
		c-5.1,3.8-8.5,8.6-10.7,13.2c-2.2,4.6-3.1,9-3.5,12.7c-0.3,3.7,0,6.6,0.3,8.5c0.1,1,0.3,1.7,0.4,2.2c0.1,0.5,0.1,0.8,0.1,0.8
		c0.4,1.6-0.7,3.4-2.5,4l-3.3,1.1c-1.8,0.6-3.8-0.6-4.4-2.7c0,0-0.1-0.3-0.2-1c-0.1-0.6-0.4-1.6-0.5-2.8c-0.3-2.5-0.7-6.2-0.3-10.9
		c0.4-4.7,1.6-10.4,4.5-16.3c2.9-5.9,7.3-12.1,13.8-16.9c3.2-2.5,6.9-4.5,10.9-6.2c1-0.4,2.1-0.8,3.1-1.1c1.1-0.3,2.2-0.6,3.2-0.9
		c0.5-0.1,1.1-0.3,1.6-0.4c0.6-0.1,1.1-0.2,1.7-0.3c1.1-0.2,2.3-0.4,3.4-0.5c4.6-0.4,9.4-0.1,14.2,0.9c4.8,1,9.5,2.9,13.8,5.4
		c4.1,2.4,7.9,5.5,11.2,9.2l44.7-44.7c1.6-1.6,4.1-1.6,5.6,0l2.8,2.8c1.6,1.5,1.6,4.1,0,5.6L200.4,90.7z M139.5,151.5
		c1.5-1.6,1.5-4.1,0-5.6l-2.8-2.8c-1.5-1.6-4.1-1.6-5.6,0L38.3,236c-1.6,1.5-1.6,4.1,0,5.6l2.8,2.8c1.6,1.6,4.1,1.6,5.6,0
		L139.5,151.5z M171.8,115.5c-0.4,1.3-0.7,2-0.7,2c-0.1,0.3-0.2,0.7-0.2,1c0,0.4,0.1,0.7,0.2,1.1c0.3,0.7,0.8,1.5,1.6,2.1l2.9,2
		c0.8,0.6,1.7,0.7,2.7,0.4c0.5-0.2,0.9-0.4,1.3-0.8c0.4-0.4,0.8-0.9,1-1.4c0,0,0.1-0.3,0.4-0.9c0.2-0.6,0.6-1.5,0.9-2.7
		c0.3-1.2,0.6-2.6,0.8-4.3c0-0.8,0.1-1.7,0-2.7c0-0.5-0.1-1-0.1-1.5c0-0.5-0.1-1-0.2-1.5c-0.3-2.1-1-4.3-2-6.4
		c-1-2.2-2.4-4.3-4.2-6.2c-1.8-1.9-3.9-3.6-6.3-4.9c-2.4-1.3-5.1-2.2-7.9-2.6c-2.8-0.4-5.6-0.3-8.3,0.2c-2.7,0.6-5.2,1.6-7.5,2.9
		c-2.3,1.3-4.2,3-5.8,4.8c-1.6,1.8-2.8,3.7-3.7,5.6c-1.8,3.8-2.3,7.3-2.4,9.8c0,0.6,0,1.2,0,1.6c0,0.5,0,0.9,0.1,1.2
		c0.1,0.6,0.1,1,0.1,1c0.1,0.6,0.3,1.2,0.6,1.7c0.3,0.5,0.6,0.9,1,1.2c0.8,0.6,1.8,0.7,2.7,0.4l3.3-1.1c0.9-0.3,1.7-0.9,2.1-1.5
		c0.2-0.3,0.4-0.6,0.5-1c0.1-0.3,0.1-0.7,0.1-1c0,0,0-0.2-0.1-0.6c0-0.2,0-0.4,0-0.7c0-0.3,0-0.6,0-0.9c0-1.4,0.3-3.4,1.3-5.5
		c0.5-1.1,1.2-2.2,2.1-3.2c0.9-1,2-2,3.3-2.7c1.3-0.8,2.7-1.3,4.2-1.6c1.5-0.3,3.1-0.3,4.7-0.1c1.6,0.2,3.1,0.7,4.4,1.4
		c1.4,0.7,2.6,1.7,3.6,2.8c1,1.1,1.8,2.3,2.4,3.5c0.6,1.2,1,2.5,1.1,3.6c0,0.3,0.1,0.6,0.1,0.9c0,0.3,0,0.6,0,0.8
		c0.1,0.5,0,1.1,0,1.5C172.1,114.1,172,114.9,171.8,115.5"/>
</g>
</svg>
