<?xml version="1.0" encoding="utf-8"?>
<!-- Generator: Adobe Illustrator 25.4.1, SVG Export Plug-In . SVG Version: 6.00 Build 0)  -->
<svg version="1.1" id="Layer_1" xmlns="http://www.w3.org/2000/svg" xmlns:xlink="http://www.w3.org/1999/xlink" x="0px" y="0px"
	 viewBox="0 0 283.465 283.464" enable-background="new 0 0 283.465 283.464" xml:space="preserve">
<g>
	<path fill="#996017" d="M219.685,283.464H63.78c-35.225,0-63.78-28.555-63.78-63.78V63.779C0,28.554,28.555,0,63.78,0h155.905
		c35.225,0,63.78,28.554,63.78,63.779v155.905C283.465,254.909,254.91,283.464,219.685,283.464"/>
	<path fill="#FFFFFF" d="M72.742,215.66V67.756c0-6.565,5.321-11.886,11.886-11.886h11.855c6.565,0,11.886,5.321,11.886,11.886
		v53.596h66.742V67.756c0-6.565,5.321-11.886,11.886-11.886h11.885c6.565,0,11.886,5.321,11.886,11.886V215.66
		c0,6.564-5.321,11.886-11.886,11.886h-11.885c-6.565,0-11.886-5.322-11.886-11.886v-64.73h-66.742v64.73
		c0,6.564-5.321,11.886-11.886,11.886H84.628C78.063,227.546,72.742,222.224,72.742,215.66"/>
</g>
</svg>
