<?xml version="1.0" encoding="utf-8"?>
<!-- Generator: Adobe Illustrator 25.4.1, SVG Export Plug-In . SVG Version: 6.00 Build 0)  -->
<svg version="1.1" id="Layer_1" xmlns="http://www.w3.org/2000/svg" xmlns:xlink="http://www.w3.org/1999/xlink" x="0px" y="0px"
	 viewBox="0 0 283.465 283.464" enable-background="new 0 0 283.465 283.464" xml:space="preserve">
<g>
	<path fill="#996017" d="M219.685,283.464H63.78C28.555,283.464,0,254.909,0,219.685V63.779C0,28.555,28.555,0,63.78,0h155.905
		c35.225,0,63.78,28.555,63.78,63.779v155.906C283.465,254.909,254.91,283.464,219.685,283.464"/>
	<path fill="#FFFFFF" d="M71.672,130.801v58.333h149.455c1.972,0,3.571,1.599,3.571,3.572v35.176h-13.682v-25.9H71.672v25.9H58.091
		v-97.081c0-2.5,2.027-4.527,4.527-4.527h4.526C69.645,126.274,71.672,128.301,71.672,130.801 M224.86,162.018
		c-0.044-5.376-4.557-9.068-9.786-9.727l-96.612-9.61c-0.191-0.044-0.367-0.132-0.543-0.132c-3.325,0-6.035,2.725-6.035,6.021
		v18.253H86.607c-1.668,0-3.466,0.276-4.642,1.416c-1.141,1.177-1.416,2.974-1.416,4.642s0.275,3.465,1.416,4.642
		c1.176,1.14,2.974,1.416,4.642,1.416h25.277h55.724h55.505c0.988,0,1.789-0.803,1.786-1.791L224.86,162.018z M225.867,92.271
		l-82.772-41.149c-1.002-0.498-2.179-0.498-3.18,0L57.143,92.271c-2.754,1.368-3.877,4.71-2.511,7.464l2.476,4.99
		c1.368,2.759,4.713,3.884,7.47,2.513l76.927-38.243l76.926,38.243c2.757,1.371,6.103,0.246,7.471-2.513l2.476-4.99
		C229.744,96.981,228.62,93.639,225.867,92.271 M83.881,139.421c-2.134,2.202-2.651,5.566-2.651,8.688
		c0,3.123,0.517,6.486,2.651,8.688c2.203,2.134,5.566,2.65,8.688,2.65s6.486-0.516,8.688-2.65c2.134-2.202,2.65-5.565,2.65-8.688
		c0-3.122-0.516-6.486-2.65-8.688c-2.202-2.134-5.566-2.651-8.688-2.651S86.084,137.287,83.881,139.421"/>
</g>
</svg>
