<?xml version="1.0" encoding="utf-8"?>
<!-- Generator: Adobe Illustrator 25.4.1, SVG Export Plug-In . SVG Version: 6.00 Build 0)  -->
<svg version="1.1" id="Layer_1" xmlns="http://www.w3.org/2000/svg" xmlns:xlink="http://www.w3.org/1999/xlink" x="0px" y="0px"
	 viewBox="0 0 283.465 283.465" enable-background="new 0 0 283.465 283.465" xml:space="preserve">
<g>
	<path fill="#64B5E5" d="M219.685,283.465H63.78c-35.224,0-63.78-28.556-63.78-63.78V63.779C0,28.555,28.556,0,63.78,0h155.905
		c35.225,0,63.78,28.555,63.78,63.779v155.906C283.465,254.909,254.91,283.465,219.685,283.465"/>
	<path fill="#25303B" d="M115.873,258.51c-1.374,0-2.739-0.443-3.875-1.311c-1.993-1.525-2.907-4.076-2.337-6.518l5.993-25.641
		c-18.74-3.008-33.58-9.714-44.178-19.983c-0.049-0.047-0.097-0.095-0.144-0.143c-14.713-15.186-21.865-38.162-21.865-70.237
		c0-32.073,7.152-55.046,21.865-70.232c0.047-0.049,0.094-0.095,0.143-0.142c15.184-14.718,38.159-21.872,70.238-21.872
		c32.068,0,55.042,7.154,70.231,21.872c0.048,0.046,0.095,0.092,0.142,0.141c14.718,15.185,21.873,38.159,21.873,70.233
		c0,32.077-7.155,55.053-21.873,70.238c-0.047,0.048-0.095,0.095-0.143,0.142c-5.228,5.065-11.532,9.305-18.742,12.607
		L118.9,257.746C117.95,258.258,116.909,258.51,115.873,258.51 M80.423,195.964c9.951,9.603,24.251,15.273,43.715,17.336
		c1.818,0.194,3.466,1.157,4.526,2.649c1.06,1.491,1.428,3.365,1.012,5.145l-4.371,18.703l61.667-33.267
		c0.212-0.127,0.433-0.244,0.664-0.349c5.962-2.698,11.129-6.136,15.36-10.216c12.251-12.692,18.207-32.742,18.207-61.288
		c0-28.543-5.957-48.592-18.208-61.284c-12.697-12.251-32.744-18.207-61.282-18.207c-28.548,0-48.597,5.957-61.289,18.207
		c-12.247,12.694-18.201,32.742-18.201,61.284C62.223,163.22,68.177,183.271,80.423,195.964 M154.387,172.712h-3.449
		c0.002-8.654,0.003-10.207,0.004-18.805c-0.001-11.215-0.003-22.483-0.005-33.785l-0.016-0.481
		c-0.015-0.321-0.038-0.643-0.071-0.963c-0.067-0.641-0.173-1.277-0.333-1.888c-0.254-0.967-0.651-1.869-1.23-2.649
		c-0.238-0.394-0.504-0.771-0.829-1.107c-1.789-1.733-4.521-2.153-7.057-2.153h-5.838h-5.838c-2.536,0-5.268,0.42-7.057,2.153
		c-1.733,1.79-2.153,4.523-2.153,7.06c0,2.536,0.42,5.269,2.153,7.059c1.789,1.733,4.521,2.153,7.057,2.153h2.796
		c-0.001,8.221-0.002,16.429-0.003,24.601c0.001,8.598,0.002,10.151,0.003,18.805h-2.796c-2.536,0.001-5.268,0.421-7.057,2.155
		c-1.733,1.789-2.153,4.522-2.153,7.058c0,2.537,0.42,5.27,2.153,7.06c1.789,1.733,4.521,2.153,7.057,2.153h12.331h12.331
		c2.536,0,5.267-0.42,7.056-2.153c1.734-1.79,2.154-4.523,2.154-7.06c0-2.536-0.42-5.269-2.154-7.058
		C159.654,173.133,156.923,172.713,154.387,172.712 M140.311,101.561c2.99,0,6.21-0.495,8.321-2.538
		c2.044-2.109,2.539-5.331,2.539-8.322c0-2.99-0.495-6.212-2.539-8.321c-2.111-2.044-5.331-2.539-8.321-2.539
		c-2.99,0-6.212,0.495-8.322,2.539c-2.043,2.109-2.538,5.331-2.538,8.321c0,2.991,0.495,6.213,2.538,8.322
		C134.099,101.066,137.321,101.561,140.311,101.561"/>
</g>
</svg>
