<?xml version="1.0" encoding="utf-8"?>
<!-- Generator: Adobe Illustrator 25.4.1, SVG Export Plug-In . SVG Version: 6.00 Build 0)  -->
<svg version="1.1" id="Layer_1" xmlns="http://www.w3.org/2000/svg" xmlns:xlink="http://www.w3.org/1999/xlink" x="0px" y="0px"
	 viewBox="0 0 283.5 283.5" style="enable-background:new 0 0 283.5 283.5;" xml:space="preserve">
<style type="text/css">
	.st0{fill:#25303B;}
	.st1{fill:#EB2132;}
</style>
<g>
	<path class="st0" d="M191.3,165.3H58.7c-1.1,0-2-0.9-2-2v-28.9c0-1.1,0.9-2,2-2h132.7V165.3z M209.1,132.4h-10.6v32.9h10.6V132.4z
		 M226.8,132.4h-10.6v32.9h10.6V132.4z M217.6,124.3c0.6,0.7,1.4,1.1,2.2,1.1h3.2c1.8,0,3.2-1.2,3.4-2.5c0.1-0.8,0.3-1.5,0.5-2.3
		c0.1-0.4,0.2-0.7,0.4-1.1l0.5-1.4c0.8-2.1,1.4-4.3,1.8-6.5c0.9-4.4,1.1-8.9,0.6-13.4c-0.2-2.2-0.6-4.4-1.2-6.6
		c-0.3-1.1-0.6-2.2-1-3.2c-0.2-0.5-0.4-1.1-0.6-1.6c-0.2-0.4-0.3-0.7-0.4-1.1c-0.9-2.9-1.1-6.2-0.4-9.2c0.2-0.7,0-1.4-0.4-2
		c-0.4-0.6-1-1.2-1.8-1.6l-3-1.2c-0.8-0.3-1.7-0.3-2.5,0.2c-0.8,0.5-1.4,1.3-1.7,2.4c-1.1,4.8-0.9,9.7,0.6,14.4
		c0.2,0.6,0.4,1.2,0.6,1.7c0.2,0.4,0.3,0.8,0.5,1.2c0.3,0.8,0.5,1.7,0.8,2.5c0.4,1.7,0.8,3.4,0.9,5.1c0.4,3.5,0.2,7-0.5,10.4
		c-0.3,1.7-0.8,3.4-1.4,5l-0.5,1.4c-0.2,0.6-0.4,1.2-0.6,1.7c-0.3,1.2-0.6,2.4-0.8,3.6C216.8,122.6,217,123.6,217.6,124.3 M208,66.8
		l-3-1.2c-1.6-0.7-3.6,0.3-4.2,2.2c-1.5,4.9-2.1,10-1.8,15c0.1,2.5,0.5,5.1,1.1,7.5c0.3,1.2,0.6,2.5,1,3.7c0.2,0.6,0.4,1.2,0.6,1.8
		l0.3,0.9l0.2,0.6c1.2,3.3,1.2,7.1,0.3,10.4c-0.1,0.4-0.3,0.8-0.4,1.2l-0.3,0.8c-0.1,0.3-0.2,0.6-0.3,0.9c-0.4,1.2-0.8,2.4-1.1,3.6
		c-0.6,2.5-1.1,5-1.3,7.5c-0.2,2,1.3,3.6,3.1,3.6h3.2c1.8,0,3.2-1.3,3.3-2.8c0.2-2,0.5-3.9,1-5.8c0.3-1,0.5-1.9,0.9-2.8
		c0.1-0.2,0.2-0.5,0.3-0.7l0.3-0.8c0.2-0.6,0.5-1.3,0.7-2c1.5-5.3,1.4-11-0.4-16.3c-0.1-0.3-0.2-0.7-0.4-1l-0.3-0.7
		c-0.2-0.5-0.3-0.9-0.5-1.4c-0.3-0.9-0.6-1.9-0.8-2.9c-0.4-1.9-0.7-3.9-0.8-5.9c-0.2-4,0.3-8,1.4-11.7
		C210.5,69.2,209.6,67.5,208,66.8"/>
	<path class="st1" d="M141.7,0C63.5,0,0,63.5,0,141.7C0,220,63.5,283.5,141.7,283.5c78.3,0,141.7-63.5,141.7-141.7
		C283.5,63.5,220,0,141.7,0 M28.4,143.6c-0.4-27.1,8.7-52.1,24.2-71.9c0.7-0.9,2.1-1,3-0.2L211.9,228c0.8,0.8,0.8,2.2-0.2,3
		c-19.7,15.5-44.7,24.6-71.9,24.2C79,254.1,29.3,204.5,28.4,143.6 M227.9,211.9L71.5,55.5c-0.8-0.8-0.8-2.2,0.2-3
		c19.7-15.5,44.7-24.6,71.9-24.2c60.9,1,110.6,50.6,111.5,111.5c0.4,27.1-8.7,52.1-24.2,71.9C230.2,212.7,228.8,212.8,227.9,211.9"
		/>
</g>
</svg>
