<?xml version="1.0" encoding="utf-8"?>
<!-- Generator: Adobe Illustrator 25.4.1, SVG Export Plug-In . SVG Version: 6.00 Build 0)  -->
<svg version="1.1" id="Layer_1" xmlns="http://www.w3.org/2000/svg" xmlns:xlink="http://www.w3.org/1999/xlink" x="0px" y="0px"
	 viewBox="0 0 283.5 283.5" style="enable-background:new 0 0 283.5 283.5;" xml:space="preserve">
<style type="text/css">
	.st0{fill:#25303B;}
	.st1{fill:#EB2132;}
</style>
<g>
	<path class="st0" d="M138.2,182.7v4.4c0,4.1-1.7,7.8-4.4,10.5c-2.7,2.7-6.4,4.4-10.5,4.4H68c-4.1,0-7.8-1.7-10.5-4.4
		c-2.7-2.7-4.4-6.4-4.4-10.5v-4.4c0-1.1,0.9-2,2-2h81.1C137.3,180.7,138.2,181.6,138.2,182.7 M55.1,153.8h81.1c1.1,0,2-0.9,2-2v-4.4
		c0-4.1-1.7-7.8-4.4-10.5c-2.7-2.7-6.4-4.4-10.5-4.4H68c-4.1,0-7.8,1.7-10.5,4.4c-2.7,2.7-4.4,6.4-4.4,10.5v4.4
		C53.2,152.9,54,153.8,55.1,153.8 M227.9,88.6h-59.3l-7.9-39.9l-9.5,1.9l7.6,38h-11c-1.3,0-2.2,1.1-1.9,2.4l22.1,109.4
		c0.2,0.9,1,1.6,1.9,1.6h35.9c0.9,0,1.8-0.7,1.9-1.6l22.1-109.4C230.1,89.7,229.1,88.6,227.9,88.6 M134.6,159h-78
		c-4.5,0-8.2,3.7-8.2,8.2c0,4.5,3.7,8.2,8.2,8.2h78c4.5,0,8.2-3.7,8.2-8.2C142.9,162.7,139.2,159,134.6,159"/>
	<path class="st1" d="M141.7,0C63.5,0,0,63.5,0,141.7C0,220,63.5,283.5,141.7,283.5c78.3,0,141.7-63.5,141.7-141.7
		C283.5,63.5,220,0,141.7,0 M28.4,143.6c-0.4-27.1,8.7-52.1,24.2-71.9c0.7-0.9,2.1-1,3-0.2L211.9,228c0.8,0.8,0.8,2.2-0.2,3
		c-19.7,15.5-44.7,24.6-71.9,24.2C79,254.1,29.3,204.5,28.4,143.6 M227.9,211.9L71.5,55.5c-0.8-0.8-0.8-2.2,0.2-3
		c19.7-15.5,44.7-24.6,71.9-24.2c60.9,1,110.6,50.6,111.5,111.5c0.4,27.1-8.7,52.1-24.2,71.9C230.2,212.7,228.8,212.8,227.9,211.9"
		/>
</g>
</svg>
