<?xml version="1.0" encoding="utf-8"?>
<!-- Generator: Adobe Illustrator 25.4.1, SVG Export Plug-In . SVG Version: 6.00 Build 0)  -->
<svg version="1.1" id="Layer_1" xmlns="http://www.w3.org/2000/svg" xmlns:xlink="http://www.w3.org/1999/xlink" x="0px" y="0px"
	 viewBox="0 0 283.465 283.464" enable-background="new 0 0 283.465 283.464" xml:space="preserve">
<g>
	<path fill="#996017" d="M219.685,283.464H63.779C28.555,283.464,0,254.909,0,219.685V63.779C0,28.555,28.555,0,63.779,0h155.906
		c35.224,0,63.779,28.555,63.779,63.779v155.906C283.464,254.909,254.909,283.464,219.685,283.464"/>
	<path fill="#FFFFFF" d="M30.869,182.802c-0.498,0.161-0.792-0.556-0.147-0.82c49.808-18.752,63.886-26.193,70.067-30.046
		c12.028-7.457,17.771-15.177,17.243-20.597l132.767-2.373c3.78,0.044,2.373,0.996,0.044,1.391
		C174.168,144.816,117.036,161.033,30.869,182.802 M170.989,164.945c0.366-0.396,0.352-0.835-0.307-0.615L51.758,194.346
		c-0.234,0.044-0.41,0.439,0.176,0.41l92.115-2.901c5.684-0.278,9.713-4.76,11.822-7.573L170.989,164.945 M191.601,91.771
		c-6.27-0.088-105.637,0.352-117.18,0.396c-1.802-0.044-3.164-0.044-0.908,0.879c12.056,4.307,32.023,11.939,42.468,21.27
		l76.323-0.791c2.183-2.636,3.018-3.75,5.244-6.826C203.057,99.345,203.408,91.917,191.601,91.771"/>
</g>
</svg>
