<?xml version="1.0" encoding="utf-8"?>
<!-- Generator: Adobe Illustrator 25.4.1, SVG Export Plug-In . SVG Version: 6.00 Build 0)  -->
<svg version="1.1" id="Layer_1" xmlns="http://www.w3.org/2000/svg" xmlns:xlink="http://www.w3.org/1999/xlink" x="0px" y="0px"
	 viewBox="0 0 283.5 283.5" style="enable-background:new 0 0 283.5 283.5;" xml:space="preserve">
<style type="text/css">
	.st0{fill:#006FB6;}
	.st1{fill:#FFFFFF;}
</style>
<g>
	<path class="st0" d="M219.7,283.5H63.8C28.6,283.5,0,254.9,0,219.7V63.8C0,28.6,28.6,0,63.8,0h155.9c35.2,0,63.8,28.6,63.8,63.8
		v155.9C283.5,254.9,254.9,283.5,219.7,283.5"/>
	<path class="st1" d="M139.7,96.8c-0.1-0.2-0.2-0.3-0.4-0.4l-0.2-0.2l-0.1-0.1l0-0.1l0,0l0,0l0,0l0,0h0c0.1,0.1,0.1,0.1,0.1,0.1
		c-0.5-0.5-3.7-3.9-6.2-5.9c-6.8-4.9-12.5-2.8-14.9-2.3c-3.3,0.7-6.7,1.4-9.8,2.5l-14.7,3.5c0,0,4.1-6,8.8-9.7
		c2.5-1.9,7.1-3.5,10-4.5c1.2-0.4,2.5-0.7,4-0.9c3.2-0.6,9.2-0.9,10-0.9l0.2,0l0.5-0.1c0.3,0,0.7-0.1,1-0.2c0.7-0.2,1.3-0.5,1.8-1
		c0.9-1,1.2-2.6,1.2-4c0-1.4-0.2-3-1.3-4c-0.5-0.5-1.2-0.8-1.9-0.9c-0.4-0.1-0.7-0.1-1.1-0.2c-0.2,0-0.4,0-0.6,0l-0.3,0l-0.1,0
		l-0.1,0l0,0c2.3-0.1-6.3,0.2-10.9,1.1c-5.4,0.5-12,3.5-16,6.6c-4.5,3.1-8.5,6.5-12.4,10c-2,1.6-4.3,4-6.3,6.5
		c0.3-1.3,0.7-2.5,1.1-3.8c0.8-5.1,2.8-5.4,7.6-10.1l7.8-7.1l0,0l0,0l0,0l0,0l0,0l0.1-0.1l0.2-0.2c0.1-0.1,0.3-0.3,0.4-0.4
		c0.2-0.3,0.5-0.6,0.7-0.9c0.4-0.6,0.6-1.3,0.7-2c0-1.4-0.8-2.7-1.8-3.8c-1-1.1-2.2-2.1-3.6-2.1c-0.7,0-1.4,0.2-2,0.5
		c-0.3,0.2-0.6,0.4-0.9,0.6c-0.1,0.1-0.3,0.2-0.4,0.3l-0.2,0.2l-0.1,0.1l-0.1,0l0,0l0,0l0,0l0,0l-7.9,7.3c-3,2-9.5,8.7-10.4,14.6
		c-1.6,5.3-2.7,10.5-3.8,15.7c-0.7,4.8-2.7,8.6-5,13.1c-1.3,2.3-2.6,4.6-4.1,6.8l-12.7,15.2c0,0-7,12.4-1.1,28.1
		c2.7,7,7.2,14.2,7.9,14.6c0.6,0.4,0.9,0.4,0.9,0.4s1,0.1,1.4,0c0.4,0,0.7-0.1,1.1-0.2c0.2,0,0.3-0.1,0.5-0.2c0,0,7.1-2.7,10.4-3.9
		c4.4-1.5,10.8-3.9,12.8-3.5c3.7,0.2,10.3,3.3,17.2,1.2c5.7-1.5,10.4-3.2,15.6-4.9c5.6-1.9,9.4-1.6,16.2-8.2
		c2.9-3.3,5.8-8.8,6.4-10.1c0,0,0,0,0,0.1h0l0,0l0,0l0,0l0,0c0,0,0.4-0.8,0.4-1c0.1-0.4,0.3-0.7,0.3-1.1c0.2-0.7,0.2-1.5,0-2.2
		c-0.5-1.4-1.8-2.2-3.1-2.8c-1.3-0.6-2.8-1-4.1-0.6c-0.7,0.2-1.2,0.6-1.6,1.2c-0.2,0.3-1,1.5-1,1.5c-0.4,0.7-5.1,9.1-6.7,9.6
		c0,0-12.6,0.7-17.8-1.6c-0.5-0.2-1.9-1.4-1.9-1.4c-0.6-0.5-1.1-1-1.5-1.5c-0.9-1-1.8-1.9-2.4-2.9c-1.3-2-2.1-4-2.5-6.4l-0.1-0.9
		l-0.1-1.1l-0.2-2.3l-0.4-4.5c0.2-0.4,0.5-1.2,1.1-2.1c1-1.5,3-3.4,5.5-4.9c2.5-1.6,5.3-2.9,7.5-3.8c2.2-0.9,3.7-1.3,3.7-1.3
		c0.1,0,0.1-0.1,0.2-0.1c5.7-1.2,8.2-0.3,12.4,3c3.9,3,3.8,13,4,10.5v0l0,0l0,0l0,0l0,0l0,0.1l0,0.1l0,0.3c0,0.2,0.1,0.3,0.1,0.5
		c0.1,0.3,0.2,0.7,0.3,1c0.3,0.6,0.7,1.2,1.2,1.7c1.1,0.8,2.7,0.9,4.1,0.7c1.4-0.2,2.9-0.6,3.8-1.7c0.4-0.6,0.6-1.3,0.7-2
		c0-0.4,0-0.7,0-1.1c0-0.2,0-0.4,0-0.6l0-0.3l0-0.1l0-0.1l0,0l0,0l0,0v0l0,0c0,0.1,0,0.2,0,0.3c-0.2-2.5-2.1-11.6-6.9-16.5
		c-6.6-6.8-19-7.8-25.1-5.3c-4.4,2-7.6,1.8-11.3,2.9c5-4.6,10.4-8.4,16.3-10.7c0.5-0.2,0.9-0.4,1.4-0.5c0,0,7.2-1.8,7.7-2
		c0.2,0,5.5-0.8,6.5-0.5c2.2,0.5,5.5,4.6,6.1,5.3l0,0l0.1,0.1l0.2,0.2l0.4,0.4c0.3,0.2,0.6,0.4,0.8,0.6c0.6,0.4,1.2,0.6,1.9,0.7
		c1.4,0,2.7-0.8,3.8-1.8c1.1-1,2.1-2.2,2.2-3.6c0-0.7-0.2-1.4-0.6-2.1C140.2,97.4,140,97.1,139.7,96.8 M125.7,67.4L125.7,67.4
		L125.7,67.4L125.7,67.4L125.7,67.4C125.7,67.4,125.7,67.4,125.7,67.4 M47.4,133.1L47.4,133.1C47.2,133.3,47.2,133.3,47.4,133.1
		 M142.7,182.6c0.1,0.2,0.2,0.3,0.4,0.4l0.2,0.2l0.1,0.1l0,0.1l0,0l0,0l0,0l0,0v0c-0.1-0.1-0.1-0.1-0.1-0.2c0.5,0.5,3.7,3.9,6.2,5.9
		c6.8,4.9,12.5,2.8,14.9,2.3c3.3-0.7,6.7-1.4,9.8-2.5l14.7-3.5c0,0-4.1,6.1-8.8,9.7c-2.5,1.9-7.1,3.5-10,4.5c-1.2,0.4-2.5,0.7-4,0.9
		c-3.2,0.6-9.2,0.9-10,0.9l-0.2,0l-0.5,0.1c-0.3,0-0.7,0.1-1,0.2c-0.7,0.2-1.3,0.5-1.8,1c-0.9,1-1.2,2.6-1.2,4c0,1.4,0.2,3,1.3,4
		c0.5,0.5,1.2,0.8,1.9,0.9c0.4,0.1,0.7,0.1,1.1,0.2c0.2,0,0.4,0,0.6,0l0.3,0l0.1,0l0.1,0l0,0c-2.3,0.1,6.3-0.2,10.9-1.1
		c5.4-0.5,12-3.5,16-6.6c4.5-3.1,8.5-6.5,12.4-10c2-1.6,4.3-4,6.3-6.5c-0.3,1.3-0.7,2.5-1.1,3.8c-0.8,5.1-2.8,5.4-7.6,10.1l-7.8,7.1
		l0,0l0,0l0,0l0,0l0,0l-0.1,0.1l-0.2,0.2c-0.1,0.1-0.3,0.3-0.4,0.4c-0.2,0.3-0.5,0.6-0.7,0.9c-0.4,0.6-0.6,1.3-0.7,2
		c0,1.4,0.8,2.7,1.8,3.8c1,1.1,2.2,2.1,3.6,2.1c0.7,0,1.4-0.2,2-0.5c0.3-0.2,0.6-0.4,0.9-0.6c0.1-0.1,0.3-0.2,0.4-0.3l0.2-0.2
		l0.1-0.1l0.1,0l0,0l0,0l0,0l0,0l7.9-7.3c3-2,9.5-8.7,10.4-14.6c1.6-5.3,2.7-10.5,3.8-15.7c0.7-4.8,2.7-8.6,5-13.1
		c1.3-2.3,2.6-4.6,4.1-6.8l12.7-15.2c0,0,7-12.4,1.1-28.1c-2.7-7-7.2-14.2-7.9-14.6c-0.6-0.4-0.9-0.4-0.9-0.4s-1-0.1-1.4,0
		c-0.4,0-0.7,0.1-1.1,0.2c-0.2,0-0.3,0.1-0.5,0.2c0,0-7.1,2.7-10.4,3.9c-4.4,1.5-10.8,3.9-12.8,3.5c-3.7-0.2-10.3-3.3-17.2-1.2
		c-5.7,1.5-10.4,3.2-15.6,4.9c-5.6,1.9-9.4,1.6-16.2,8.2c-2.9,3.3-5.8,8.8-6.4,10.1c0,0,0,0,0-0.1l0,0l0,0l0,0l0,0l0,0
		c0,0-0.4,0.8-0.4,1c-0.1,0.4-0.3,0.7-0.3,1.1c-0.2,0.7-0.2,1.5,0,2.2c0.5,1.4,1.8,2.2,3.1,2.8c1.3,0.6,2.8,1,4.2,0.6
		c0.7-0.2,1.2-0.6,1.6-1.2c0.2-0.3,1-1.5,1-1.5c0.4-0.7,5.1-9.1,6.7-9.6c0,0,12.6-0.7,17.8,1.6c0.5,0.2,1.9,1.4,1.9,1.4
		c0.6,0.5,1.1,1,1.5,1.5c1,1,1.8,1.9,2.4,2.9c1.3,2,2.1,4,2.5,6.4l0.1,0.9l0.1,1.1l0.2,2.3l0.4,4.5c-0.2,0.4-0.5,1.2-1.1,2.1
		c-1,1.5-3,3.4-5.5,4.9c-2.5,1.6-5.3,2.9-7.5,3.8c-2.2,0.9-3.7,1.3-3.7,1.3c-0.1,0-0.1,0.1-0.2,0.1c-5.7,1.2-8.2,0.3-12.4-3
		c-3.9-3-3.8-13-4-10.5v0l0,0l0,0l0,0l0,0l0-0.1l0-0.1l0-0.3c0-0.2-0.1-0.3-0.1-0.5c-0.1-0.3-0.2-0.7-0.3-1
		c-0.3-0.6-0.7-1.2-1.2-1.7c-1.1-0.8-2.7-0.9-4.1-0.7c-1.4,0.2-2.9,0.6-3.8,1.7c-0.4,0.6-0.6,1.3-0.7,2c0,0.4,0,0.7,0,1.1
		c0,0.2,0,0.4,0,0.6l0,0.3l0,0.1l0,0.1l0,0l0,0l0,0v0l0,0c0-0.1,0-0.2,0-0.3c0.2,2.5,2.1,11.6,6.9,16.5c6.6,6.8,19,7.8,25.1,5.3
		c4.4-2,7.6-1.8,11.3-2.9c-5,4.6-10.4,8.4-16.3,10.7c-0.5,0.2-0.9,0.4-1.4,0.5c0,0-7.2,1.8-7.7,2c-0.2,0-5.5,0.8-6.5,0.5
		c-2.2-0.5-5.5-4.6-6.1-5.3l0,0l-0.1-0.1l-0.2-0.2l-0.4-0.4c-0.3-0.2-0.6-0.4-0.8-0.6c-0.6-0.4-1.2-0.6-1.9-0.7
		c-1.4,0-2.7,0.8-3.8,1.8c-1.1,1-2.1,2.2-2.2,3.6c0,0.7,0.2,1.4,0.6,2.1C142.3,182,142.5,182.3,142.7,182.6 M156.8,212L156.8,212
		L156.8,212L156.8,212L156.8,212C156.8,212,156.8,212,156.8,212 M235.1,146.3L235.1,146.3C235.3,146.1,235.3,146.1,235.1,146.3"/>
</g>
</svg>
