<?xml version="1.0" encoding="utf-8"?>
<!-- Generator: Adobe Illustrator 25.4.1, SVG Export Plug-In . SVG Version: 6.00 Build 0)  -->
<svg version="1.1" id="Layer_1" xmlns="http://www.w3.org/2000/svg" xmlns:xlink="http://www.w3.org/1999/xlink" x="0px" y="0px"
	 viewBox="0 0 210.331 153.071" enable-background="new 0 0 210.331 153.071" xml:space="preserve">
<g>
	<path fill="#FFFFFF" d="M71.857,21.677c3.732,0,6.346-0.775,7.991-2.368c1.572-1.622,2.347-4.237,2.347-7.971
		c0-3.733-0.775-6.348-2.369-7.992c-1.624-1.572-4.238-2.347-7.969-2.347c-3.734,0-6.348,0.775-7.993,2.369
		c-1.571,1.622-2.346,4.236-2.346,7.97c0,3.726,0.771,6.337,2.357,7.982C65.52,20.906,68.131,21.677,71.857,21.677z"/>
	<path fill="#FFFFFF" d="M181.984,12.338h-38.847c-6.62,0-12.844,2.578-17.525,7.258L95.159,50.05L78.541,31.612
		c-1.48-1.468-3.242-2.599-5.218-3.341l-0.95-0.357c-2.122-0.799-4.435-1.104-6.687-0.881l-0.241,0.023
		c-1.104,0.109-2.167,0.419-3.156,0.921c-0.989,0.502-1.868,1.176-2.609,2.003L42.514,49.142c-1.468,1.639-2.277,3.753-2.277,5.955
		l-0.001,22.689c0,1.829,0.363,3.091,1.109,3.863c0.748,0.724,2.012,1.087,3.843,1.087s3.095-0.362,3.865-1.108
		c0.724-0.749,1.087-2.013,1.087-3.84l0.002-22.315l7.548-8.425v40.473l-5.498,5.498c-2.813,2.812-6.553,4.361-10.53,4.361H28.346
		C13.268,97.378,1,109.645,1,124.724s12.267,27.347,27.346,27.347h31.869c6.623,0,12.848-2.577,17.528-7.258l73.435-73.434
		c2.803-2.804,6.533-4.348,10.503-4.348h20.304c15.078,0,27.346-12.268,27.346-27.346C209.33,24.606,197.062,12.338,181.984,12.338z
		 M79.785,47.781l8.361,9.283l-8.361,8.36V47.781z M181.984,57.126h-20.304c-6.614,0-12.832,2.574-17.508,7.248l-73.434,73.434
		c-2.809,2.81-6.547,4.356-10.524,4.356H28.346c-9.617,0-17.441-7.824-17.441-17.44s7.824-17.44,17.441-17.44h13.317
		c6.622,0,12.849-2.579,17.533-7.263l73.42-73.42c2.811-2.81,6.547-4.357,10.521-4.357h38.847c9.616,0,17.439,7.824,17.439,17.441
		S191.601,57.126,181.984,57.126z"/>
</g>
</svg>
