<?xml version="1.0" encoding="utf-8"?>
<!-- Generator: Adobe Illustrator 25.4.1, SVG Export Plug-In . SVG Version: 6.00 Build 0)  -->
<svg version="1.1" id="Layer_1" xmlns="http://www.w3.org/2000/svg" xmlns:xlink="http://www.w3.org/1999/xlink" x="0px" y="0px"
	 viewBox="0 0 198.6 171.3" style="enable-background:new 0 0 198.6 171.3;" xml:space="preserve">
<style type="text/css">
	.st0{fill:#25303B;}
</style>
<g>
	<path class="st0" d="M55.4,148.1c0,11.7-9.5,21.3-21.3,21.3c-11.7,0-21.3-9.5-21.3-21.3c0-11.7,9.5-21.3,21.3-21.3
		C45.9,126.8,55.4,136.4,55.4,148.1 M198.6,77.2c0,7.7,0,25.7-1.2,41.7c-1.7,21.9-4.7,35.5-14.7,35.5h-66v-11.6h20.5V29.6
		c0-1.1-0.9-2-2-2h-57c-1.1,0-2,0.9-2,2v113.3h19.5v11.6H64.2c-1.2,0-2.1-1.1-2-2.3c0.2-1.3,0.3-2.7,0.3-4.1
		c0-16.4-14-29.6-30.7-28.3c-12.4,1-22.8,10.2-25.4,22.4c-0.7,3.4-0.8,6.8-0.3,10c0.2,1.2-0.7,2.3-2,2.3H0l0-63.1h62.3
		c1.1,0,2-0.9,2-2V29.6c0-1.1-0.9-2-2-2H0V0h155.5c14,0,26.5,8.3,31.8,21.3c0.2,0.5,0.4,1,0.6,1.6c0,0,3.2,8.6,3.5,9.6
		C196.2,47,198.6,62,198.6,77.2 M185.8,77.2c0-16.5-3.1-32.8-9.2-48.3c-0.3-0.8-1-1.3-1.9-1.3h-23.8c-1.1,0-2,0.9-2,2v81.1
		c0,1.1,0.9,2,2,2h32.2c1.1,0,1.9-0.8,2-1.9C185.5,102.1,185.8,91.2,185.8,77.2 M106.1,107.7l-19.2,19.2c-1.2,1.2-1.2,3.2,0,4.4
		l2.2,2.2c1.2,1.2,3.2,1.2,4.4,0l2.3-2.3c2.5-2.5,5.7-6.4,5.9-6.6c-0.3,1.6-0.3,8.7-0.3,8.7l0,34.8c0,1.8,1.4,3.2,3.2,3.2h3.2
		c1.8,0,3.2-1.4,3.2-3.2v-34.8c0,0,0-7.1-0.3-8.7c0.1,0.2,3.3,4.1,5.9,6.6l2.3,2.3c1.2,1.2,3.2,1.2,4.4,0l2.2-2.2
		c1.2-1.2,1.2-3.2,0-4.4L106.1,107.7z"/>
</g>
</svg>
