<?xml version="1.0" encoding="utf-8"?>
<!-- Generator: Adobe Illustrator 25.4.1, SVG Export Plug-In . SVG Version: 6.00 Build 0)  -->
<svg version="1.1" id="Layer_1" xmlns="http://www.w3.org/2000/svg" xmlns:xlink="http://www.w3.org/1999/xlink" x="0px" y="0px"
	 viewBox="0 0 210.331 153.071" enable-background="new 0 0 210.331 153.071" xml:space="preserve">
<g>
	<path fill="#25303B" d="M63.168,20.027c-2.134-2.202-2.65-5.566-2.65-8.689c0-3.122,0.516-6.486,2.65-8.688
		c2.202-2.134,5.567-2.651,8.689-2.651c3.122,0,6.484,0.517,8.687,2.651c2.135,2.202,2.651,5.566,2.651,8.688
		c0,3.123-0.516,6.487-2.651,8.689c-2.203,2.134-5.565,2.65-8.687,2.65C68.735,22.677,65.37,22.161,63.168,20.027 M210.33,39.685
		c0,15.63-12.717,28.346-28.346,28.346H161.68c-3.702,0-7.181,1.44-9.796,4.055L78.45,145.52
		c-4.869,4.869-11.345,7.551-18.235,7.551H28.346C12.716,153.071,0,140.354,0,124.724s12.716-28.347,28.346-28.347h13.317
		c3.71,0,7.198-1.444,9.823-4.068l5.205-5.205V49.66l-5.548,6.193l-0.001,20.526h-0.001c0,0.465,0,0.931,0,1.407
		c0,1.638-0.272,3.402-1.392,4.558c-1.156,1.12-2.922,1.391-4.561,1.391c-1.639,0-3.405-0.272-4.561-1.392
		c-1.12-1.156-1.391-2.921-1.391-4.558v-1.407v-1.406c0-0.013,0.001-0.025,0.001-0.038V55.096c0-2.447,0.899-4.799,2.532-6.622
		l17.166-19.161c0.826-0.921,1.802-1.67,2.902-2.228c1.103-0.559,2.284-0.903,3.513-1.025l0.238-0.023
		c2.4-0.237,4.87,0.087,7.137,0.94l0.949,0.357c2.108,0.792,3.99,1.999,5.591,3.588l0.242,0.254l15.69,17.421l29.708-29.708
		c4.871-4.87,11.345-7.551,18.232-7.551h38.847C197.613,11.338,210.33,24.055,210.33,39.685 M80.785,63.009l5.983-5.982
		l-5.983-6.642V63.009z M198.424,39.685c0-9.066-7.375-16.441-16.44-16.441h-38.847c-3.707,0-7.192,1.443-9.814,4.064l-73.42,73.42
		c-4.873,4.872-11.351,7.556-18.24,7.556H28.346c-9.066,0-16.441,7.375-16.441,16.44s7.375,16.44,16.441,16.44h31.869
		c3.709,0,7.196-1.442,9.817-4.063l73.434-73.434c4.864-4.863,11.332-7.541,18.214-7.541h20.304
		C191.049,56.126,198.424,48.75,198.424,39.685"/>
</g>
</svg>
