<?xml version="1.0" encoding="utf-8"?>
<!-- Generator: Adobe Illustrator 25.4.1, SVG Export Plug-In . SVG Version: 6.00 Build 0)  -->
<svg version="1.1" id="Layer_1" xmlns="http://www.w3.org/2000/svg" xmlns:xlink="http://www.w3.org/1999/xlink" x="0px" y="0px"
	 viewBox="0 0 184.252 190.205" enable-background="new 0 0 184.252 190.205" xml:space="preserve">
<g>
	<path fill="#FFFFFF" d="M37.328,79.778c1.822,0.179,3.117-0.058,3.956-0.726c0.794-0.673,1.279-1.895,1.459-3.715l2.189-22.206
		l8.301-7.612l-6.147,62.355h0.282l-0.42,1.263c-0.014,0.052-0.039,0.124-0.071,0.218l-8.605,25.394
		c-0.636,1.875-0.702,3.301-0.201,4.357c0.52,1.011,1.691,1.826,3.567,2.463c1.895,0.836,3.309,1.031,4.406,0.628
		c1.055-0.425,1.972-1.518,2.777-3.328l9.744-21.954l0.943-2.478l0.668-2.546l4.083-19.612l20.057,9.168l-1.427,22.345
		c-0.126,1.977,0.181,3.37,0.939,4.26c0.764,0.841,2.107,1.322,4.086,1.449l0.127,0.017c1.942,0.376,3.364,0.252,4.343-0.388
		c0.934-0.65,1.583-1.921,1.961-3.866l4.704-24.213c0.028-0.157,0.063-0.33,0.099-0.503c0.056-0.272,0.112-0.546,0.144-0.812
		c0.03-0.396,0.056-0.833,0.067-1.269c-0.002-0.111,0.004-0.271,0.01-0.431c0.009-0.237,0.019-0.482-0.016-0.617
		c-0.041-0.163-0.075-0.322-0.11-0.481c-0.051-0.236-0.099-0.473-0.18-0.71l-0.083-0.25c-0.102-0.309-0.189-0.576-0.319-0.782
		l-0.053-0.093c-0.19-0.386-0.427-0.735-0.61-0.996c-0.108-0.165-0.203-0.304-0.303-0.431c-0.101-0.098-0.206-0.194-0.312-0.29
		l-0.119-0.109c-0.318-0.287-0.654-0.577-0.999-0.858c-0.235-0.211-0.512-0.383-0.805-0.565l-23.21-14.596l2.44-24.757l2.787,5.906
		c0.788,1.672,2.055,3.038,3.666,3.95l13.048,7.362c1.038,0.476,1.906,0.585,2.66,0.33c0.907-0.339,1.841-1.326,2.746-2.921
		c0.904-1.594,1.271-2.902,1.091-3.888c-0.162-0.744-0.701-1.434-1.644-2.08l-0.605-0.381l-12.138-6.884l-8.759-18.567
		c-1.431-3.031-3.874-5.516-6.88-6.997l-0.905-0.445c-2.035-1.003-4.309-1.534-6.576-1.534H62.95c-1.114,0-2.201,0.204-3.23,0.606
		c-1.036,0.402-1.978,0.988-2.799,1.74L37.96,46.083c-1.623,1.487-2.635,3.512-2.85,5.702l-2.226,22.579
		c-0.18,1.822,0.057,3.115,0.725,3.955C34.284,79.113,35.506,79.598,37.328,79.778z"/>
	<path fill="#FFFFFF" d="M180.283,94.26h-36.418v21.26h-35.433v21.26H73v21.259H37.566v21.26H3.969c-1.637,0-2.969,1.332-2.969,2.97
		v3.969c0,1.636,1.332,2.967,2.969,2.967h43.504v-21.259h35.434v-21.26h35.432v-21.261h35.433v-21.26h26.512
		c1.637,0,2.969-1.331,2.969-2.968v-3.968C183.252,95.592,181.92,94.26,180.283,94.26z"/>
	<path fill="#FFFFFF" d="M70.867,21.677c3.733,0,6.347-0.774,7.991-2.368c1.572-1.622,2.347-4.236,2.347-7.97
		c0-3.725-0.771-6.336-2.358-7.98C77.202,1.771,74.591,1,70.867,1c-3.734,0-6.349,0.775-7.993,2.369
		c-1.572,1.622-2.346,4.236-2.346,7.97s0.774,6.348,2.368,7.992C64.518,20.903,67.132,21.677,70.867,21.677z"/>
</g>
</svg>
