<?xml version="1.0" encoding="utf-8"?>
<!-- Generator: Adobe Illustrator 25.4.1, SVG Export Plug-In . SVG Version: 6.00 Build 0)  -->
<svg version="1.1" id="Layer_1" xmlns="http://www.w3.org/2000/svg" xmlns:xlink="http://www.w3.org/1999/xlink" x="0px" y="0px"
	 viewBox="0 0 184.252 190.205" enable-background="new 0 0 184.252 190.205" xml:space="preserve">
<g>
	<path fill="#25303B" d="M48.473,190.204H3.969c-2.192,0-3.969-1.776-3.969-3.967v-3.969c0-2.191,1.777-3.969,3.969-3.969h32.598
		v-21.26H72V135.78h35.433v-21.26h35.433V93.26h37.418c2.192,0,3.968,1.776,3.968,3.969v3.968c0,2.192-1.776,3.968-3.968,3.968
		h-25.512v21.26h-35.433v21.26H83.907v21.26H48.473V190.204z M79.554,2.651C77.352,0.516,73.989,0,70.867,0
		s-6.487,0.516-8.689,2.651c-2.134,2.202-2.65,5.566-2.65,8.688c0,3.122,0.516,6.486,2.65,8.688c2.202,2.134,5.567,2.65,8.689,2.65
		s6.485-0.516,8.687-2.65c2.135-2.202,2.651-5.566,2.651-8.688C82.205,8.217,81.689,4.853,79.554,2.651 M45.981,108.875
		l-0.001,0.003C45.98,108.878,45.981,108.874,45.981,108.875L45.981,108.875z M75.332,56.202l-2.025,20.539
		c5.078,3.193,13.129,8.256,21.187,13.324l1.23,0.773c0.406,0.26,0.838,0.502,1.174,0.806c0.357,0.291,0.705,0.592,1.044,0.897
		c0.168,0.154,0.34,0.307,0.498,0.464c0.133,0.164,0.256,0.343,0.376,0.526c0.249,0.353,0.487,0.72,0.689,1.129
		c0.243,0.383,0.36,0.82,0.505,1.245c0.145,0.424,0.206,0.844,0.313,1.266c0.102,0.4,0.03,0.883,0.037,1.324
		c-0.013,0.452-0.039,0.905-0.074,1.355c-0.053,0.455-0.171,0.928-0.253,1.389c-0.145,0.753-0.292,1.503-0.436,2.247
		c-0.178,0.918-0.355,1.824-0.528,2.715c-0.692,3.566-1.34,6.893-1.893,9.746c-1.109,5.705-1.848,9.507-1.848,9.507
		c-0.335,1.725-0.981,3.527-2.396,4.513c-1.445,0.943-3.358,0.867-5.081,0.532c-1.753-0.112-3.623-0.522-4.783-1.799
		c-1.119-1.313-1.288-3.22-1.176-4.972l1.383-21.658c-7.649-3.496-15.296-6.992-18.291-8.361
		c-1.038,4.986-2.295,11.025-3.553,17.069l-0.286,1.364l-0.459,1.765l-0.24,0.877l-0.315,0.85c-0.218,0.563-0.435,1.125-0.651,1.685
		c-0.738,1.665-1.464,3.304-2.168,4.89c-1.403,3.16-2.712,6.11-3.835,8.638c-2.245,5.056-3.741,8.427-3.741,8.427
		c-0.713,1.604-1.746,3.216-3.346,3.861c-1.62,0.595-3.467,0.092-5.072-0.62c-1.663-0.564-3.362-1.446-4.15-2.981
		c-0.739-1.559-0.407-3.444,0.157-5.107c0,0,1.968-5.81,4.922-14.525c0.738-2.179,1.538-4.539,2.384-7.035
		c0.423-1.249,0.858-2.532,1.302-3.842c0.038-0.109,0.046-0.138,0.047-0.146c0.001,0,0,0.003,0.002-0.002h0.001h-0.002v-0.002
		l0.001-0.001l0.048-0.472c0.069-0.703,0.139-1.412,0.209-2.128c0.565-5.724,1.166-11.829,1.768-17.934
		c1.532-15.54,3.063-31.07,3.975-40.317l-6.092,5.586l-1.875,19.012c0,0.005-0.001,0.011-0.001,0.016
		c-0.047,0.473-0.093,0.936-0.138,1.399c-0.046,0.463-0.091,0.926-0.138,1.399c-0.161,1.631-0.604,3.36-1.832,4.4
		c-1.261,1.002-3.045,1.098-4.676,0.938c-1.631-0.161-3.362-0.604-4.403-1.833c-1.001-1.259-1.098-3.042-0.937-4.673
		c0.046-0.473,0.092-0.936,0.138-1.399c0.045-0.462,0.091-0.924,0.137-1.396l1.951-19.785c0.239-2.435,1.365-4.688,3.169-6.341
		l18.96-17.385c0.915-0.838,1.961-1.488,3.111-1.935c1.146-0.447,2.357-0.674,3.594-0.674h0.232c2.42,0,4.846,0.566,7.017,1.636
		l0.906,0.446c3.209,1.581,5.816,4.233,7.342,7.467l8.624,18.281l11.852,6.721l0.005,0.003c0.002,0.001,0.003,0.002,0.005,0.003
		l0.697,0.395l-0.019,0.032c0.965,0.661,1.803,1.533,2.061,2.725c0.272,1.484-0.396,3.136-1.204,4.561
		c-0.809,1.426-1.883,2.847-3.296,3.375c-1.155,0.391-2.333,0.12-3.397-0.369l-0.018,0.032l-13.106-7.432
		c-1.791-1.015-3.201-2.534-4.077-4.393L75.332,56.202z"/>
</g>
</svg>
