<?xml version="1.0" encoding="utf-8"?>
<!-- Generator: Adobe Illustrator 25.4.1, SVG Export Plug-In . SVG Version: 6.00 Build 0)  -->
<svg version="1.1" id="Layer_1" xmlns="http://www.w3.org/2000/svg" xmlns:xlink="http://www.w3.org/1999/xlink" x="0px" y="0px"
	 viewBox="0 0 283.465 283.464" enable-background="new 0 0 283.465 283.464" xml:space="preserve">
<g>
	<path fill="#996017" d="M219.685,283.464H63.78c-35.225,0-63.781-28.555-63.781-63.779V63.779C-0.001,28.555,28.555,0,63.78,0
		h155.905c35.225,0,63.779,28.555,63.779,63.779v155.906C283.464,254.909,254.91,283.464,219.685,283.464"/>
	<path fill="#FFFFFF" d="M79.75,53.906l25.542-0.091c1.972-0.008,3.576,1.585,3.584,3.557l0.073,18.107
		c0.008,1.969,1.61,3.56,3.578,3.557l9.031-0.016c1.975-0.004,3.573-1.611,3.564-3.586L125.049,57.3
		c-0.008-1.973,1.585-3.578,3.557-3.586l25.567-0.103c1.973-0.008,3.579,1.586,3.586,3.559l0.063,18.128
		c0.007,1.972,1.61,3.565,3.581,3.559l9.381-0.025c1.974-0.005,3.57-1.61,3.563-3.584l-0.064-18.15
		c-0.007-1.974,1.588-3.579,3.562-3.584l25.222-0.069c1.97-0.005,3.572,1.585,3.581,3.555l0.108,22.189
		c0.005,0.921-0.347,1.809-0.982,2.477l-11.471,12.077c-0.72,0.758-1.072,1.793-0.962,2.832l13.95,132.946l-38.499,0.146
		l-0.146-46.511c-0.074-17.14-6.592-32.053-26.37-31.951c-18.765,0.088-25.84,14.313-25.753,32.727l0.103,45.896l-38.821,0.176
		L91.349,96.995c0.106-1.045-0.252-2.084-0.982-2.84L77.262,80.558c-0.639-0.662-0.997-1.546-1-2.466L76.191,57.49
		C76.185,55.518,77.777,53.913,79.75,53.906"/>
</g>
</svg>
