<?xml version="1.0" encoding="utf-8"?>
<!-- Generator: Adobe Illustrator 25.4.1, SVG Export Plug-In . SVG Version: 6.00 Build 0)  -->
<svg version="1.1" id="Layer_1" xmlns="http://www.w3.org/2000/svg" xmlns:xlink="http://www.w3.org/1999/xlink" x="0px" y="0px"
	 viewBox="0 0 283.465 283.464" enable-background="new 0 0 283.465 283.464" xml:space="preserve">
<g>
	<defs>
		<rect id="SVGID_1_" width="283.465" height="283.464"/>
	</defs>
	<clipPath id="SVGID_00000055678823953446112650000005542678665772883123_">
		<use xlink:href="#SVGID_1_"  overflow="visible"/>
	</clipPath>
	<path clip-path="url(#SVGID_00000055678823953446112650000005542678665772883123_)" fill="#996017" d="M219.685,283.464H63.779
		c-35.224,0-63.78-28.555-63.78-63.78V63.779C-0.001,28.554,28.555,0,63.779,0h155.906c35.224,0,63.779,28.554,63.779,63.779
		v155.905C283.464,254.909,254.909,283.464,219.685,283.464"/>
	<path clip-path="url(#SVGID_00000055678823953446112650000005542678665772883123_)" fill="#FFFFFF" d="M196.573,136.28v113.121
		H88.09V136.28c0-1.096,0.889-1.985,1.984-1.985h3.914c-0.201-1.987-0.599-3.959-0.599-6.017c0-26.051,19.488-47.455,44.293-49.881
		V59.633C108.054,57.195,99.13,26.646,92.986,21.24c6.4,5.632,26.7,26.847,48.499,26.847c21.794,0,42.093-21.215,48.493-26.847
		c-6.144,5.406-15.066,35.959-44.699,38.394v18.623c25.647,1.537,45.997,23.342,45.997,50.021c0,2.058-0.3,4.03-0.6,6.017h3.914
		C195.686,134.295,196.573,135.184,196.573,136.28 M231.069,156.205c0-8.511-6.797-15.407-14.997-15.407
		c-8.4,0-15.098,6.896-15.098,15.407v93.196h30.095V156.205 M82.59,156.205c0-8.511-6.798-15.407-14.997-15.407
		c-8.399,0-15.099,6.896-15.099,15.407v93.196H82.59V156.205"/>
</g>
</svg>
