<?xml version="1.0" encoding="utf-8"?>
<!-- Generator: Adobe Illustrator 25.4.1, SVG Export Plug-In . SVG Version: 6.00 Build 0)  -->
<svg version="1.1" id="Calque_1" xmlns="http://www.w3.org/2000/svg" xmlns:xlink="http://www.w3.org/1999/xlink" x="0px" y="0px"
	 viewBox="0 0 283.46 283.46" enable-background="new 0 0 283.46 283.46" xml:space="preserve">
<path id="XMLID_1_" fill="#64B5E5" d="M219.827,283.56H63.921c-35.224,0-63.779-28.555-63.779-63.779V63.875
	c0-35.225,28.555-63.78,63.779-63.78h155.906c35.225,0,63.78,28.555,63.78,63.78v155.906
	C283.606,255.005,255.051,283.56,219.827,283.56z M265.181,219.781V63.875c0-25.049-20.306-45.354-45.354-45.354H63.921
	c-25.049,0-45.354,20.306-45.354,45.354v155.906c0,25.048,20.306,45.354,45.354,45.354h155.906
	C244.875,265.135,265.181,244.829,265.181,219.781z"/>
<g>
	<path fill="#25303B" d="M78.68,155.059c-15.901,0-28.791,12.89-28.791,28.791c0,15.901,12.89,28.791,28.791,28.791
		c15.901,0,28.791-12.89,28.791-28.791C107.471,167.949,94.581,155.059,78.68,155.059z M78.68,201.875
		c-9.955,0-18.025-8.07-18.025-18.025c0-9.955,8.07-18.025,18.025-18.025c9.955,0,18.025,8.07,18.025,18.025
		C96.705,193.805,88.635,201.875,78.68,201.875z"/>
	<path fill="#25303B" d="M204.368,155.059c-1.515,0-3.003,0.119-4.455,0.344l-2.406-6.996c0.008-0.002,0.016-0.004,0.024-0.005
		c-1.03-2.95-2.05-5.9-3.07-8.84c-0.122-0.036-0.241-0.084-0.362-0.124c0.121,0.039,0.24,0.088,0.362,0.124
		c2.194,0.635,4.488,0.621,6.788,0.6c2.855-0.026,3.707-0.857,3.714-3.666c0.007-2.874,0.002-5.748,0.001-8.622
		c0-3.037,0.019-6.073-0.007-9.11c-0.019-2.255-1.01-3.273-3.257-3.359c-1.246-0.047-2.495-0.029-3.742-0.006
		c-4.234,0.078-7.851,1.957-10.136,5.051c-0.084,0.114-0.155,0.239-0.235,0.355c0.08-0.116,0.151-0.241,0.234-0.354
		c-1.23-3.54-2.46-7.08-3.69-10.62c-1.04-3-2.67-4.34-5.7-4.41c-3.69-0.09-7.38-0.09-11.07,0.01c-3.11,0.1-5.38,2.52-5.34,5.43
		c0.04,2.93,2.36,5.25,5.45,5.38c1.4,0.06,2.82,0.01,4.23,0.02c3.06,0,3.07-0.01,4.1,2.89c0.92,2.55,1.81,5.12,2.81,7.94
		c-7.5-3.56-14.989-4.502-22.94-3.96c-11.552,0.787-15.59,6.65-16.21,7.63c-3.26,5.09-8.21,6.83-13.83,6.63
		c-5.18-0.18-10.34-1.04-15.51-1.51c-1.94-0.18-3.5-0.93-4.4-2.63c-1.6-3.02-4.06-4.68-7.42-5.11c-0.69-0.09-1.37-0.31-2.06-0.45
		c-10.47-2.16-21.05-2.66-31.71-2.42c-2.89,0.06-4.81,2.57-2.91,5.43c2.06,3.12,3.78,6.47,5.87,9.56c0.8,1.18,2.08,2.32,3.39,2.83
		c4.52,1.76,9.08,3.43,13.65,5.08c0.02,0.02,0.03,0.05,0.05,0.07c17.05,2.86,30.04,17.69,30.04,35.55c0,2.45-0.24,4.84-0.71,7.15
		h55.18c-0.47-2.31-0.71-4.7-0.71-7.15c0-13.925,7.899-25.999,19.457-32.003l-0.348,0.497l2.219,6.787
		c-8.458,5.015-14.131,14.232-14.131,24.778c0,15.901,12.89,28.791,28.791,28.791c15.901,0,28.791-12.89,28.791-28.791
		C233.159,167.949,220.269,155.059,204.368,155.059z M185.827,131.087c-0.022-0.073-0.037-0.148-0.058-0.221
		C185.79,130.939,185.805,131.014,185.827,131.087z M185.581,130.142c-0.022-0.101-0.033-0.204-0.052-0.305
		C185.548,129.938,185.559,130.041,185.581,130.142z M204.368,201.875c-9.955,0-18.025-8.07-18.025-18.025
		c0-5.729,2.681-10.823,6.848-14.125l5.921,18.109c0.349,1.06,1.504,1.623,2.554,1.247l6.907-2.478
		c1.024-0.367,1.561-1.49,1.205-2.518l-6.266-18.217c0.285-0.013,0.567-0.043,0.855-0.043c9.955,0,18.025,8.07,18.025,18.025
		C222.393,193.805,214.323,201.875,204.368,201.875z"/>
</g>
</svg>
