<?xml version="1.0" encoding="utf-8"?>
<!-- Generator: Adobe Illustrator 25.4.1, SVG Export Plug-In . SVG Version: 6.00 Build 0)  -->
<svg version="1.1" id="Calque_1" xmlns="http://www.w3.org/2000/svg" xmlns:xlink="http://www.w3.org/1999/xlink" x="0px" y="0px"
	 viewBox="0 0 283.46 283.46" enable-background="new 0 0 283.46 283.46" xml:space="preserve">
<path id="XMLID_1_" fill="#64B5E5" d="M219.827,283.56H63.921c-35.224,0-63.779-28.555-63.779-63.779V63.875
	c0-35.225,28.555-63.78,63.779-63.78h155.906c35.225,0,63.78,28.555,63.78,63.78v155.906
	C283.606,255.005,255.051,283.56,219.827,283.56z M265.181,219.781V63.875c0-25.049-20.306-45.354-45.354-45.354H63.921
	c-25.049,0-45.354,20.306-45.354,45.354v155.906c0,25.048,20.306,45.354,45.354,45.354h155.906
	C244.875,265.135,265.181,244.829,265.181,219.781z"/>
<g>
	<path fill="#FFFFFF" d="M78.68,156.059c-15.324,0-27.791,12.467-27.791,27.791s12.467,27.791,27.791,27.791
		s27.791-12.467,27.791-27.791S94.004,156.059,78.68,156.059z M78.68,202.875c-10.49,0-19.025-8.535-19.025-19.025
		s8.535-19.024,19.025-19.024s19.025,8.534,19.025,19.024S89.17,202.875,78.68,202.875z"/>
	<path fill="#FFFFFF" d="M204.368,156.059c-1.433,0-2.88,0.112-4.302,0.333c-0.471,0.072-0.94-0.204-1.099-0.663l-2.406-6.997
		c-0.023-0.068-0.04-0.138-0.048-0.208c-0.78-2.237-1.556-4.475-2.329-6.707l-0.511-1.474c-0.355-0.166-0.575-0.523-0.575-0.904
		c0-0.104,0.016-0.208,0.05-0.312c0.172-0.525,0.731-0.813,1.261-0.64l0.326,0.112c0.001,0,0.002,0,0.002,0.001
		c2.077,0.602,4.331,0.583,6.501,0.561c2.312-0.021,2.719-0.42,2.725-2.668c0.005-1.965,0.004-3.931,0.002-5.896l-0.001-2.723
		l0.003-2.707c0.004-2.132,0.008-4.264-0.01-6.395c-0.015-1.727-0.572-2.302-2.295-2.368c-1.19-0.046-2.372-0.03-3.686-0.005
		c-3.87,0.071-7.191,1.721-9.351,4.646c-0.034,0.046-0.065,0.096-0.097,0.146l-0.118,0.181c-0.312,0.455-0.933,0.57-1.389,0.26
		c-0.432-0.295-0.56-0.868-0.308-1.315l-3.528-10.157c-0.925-2.667-2.22-3.68-4.779-3.739c-3.722-0.089-7.43-0.086-11.02,0.01
		c-2.521,0.081-4.4,1.979-4.367,4.417c0.032,2.399,1.964,4.288,4.492,4.395c0.881,0.038,1.8,0.03,2.69,0.023
		c0.501-0.004,1.002-0.009,1.504-0.004c3.492,0,3.867,0.266,5.036,3.555c0.573,1.588,1.136,3.189,1.721,4.854l1.089,3.087
		c0.135,0.381,0.027,0.806-0.272,1.077c-0.3,0.271-0.734,0.334-1.099,0.161c-6.781-3.219-13.915-4.447-22.442-3.866
		c-10.841,0.739-14.758,6.1-15.434,7.167c-3.167,4.944-8.121,7.326-14.711,7.095c-3.333-0.116-6.694-0.514-9.944-0.899
		c-1.844-0.218-3.75-0.444-5.621-0.614c-2.458-0.229-4.204-1.291-5.193-3.158c-1.428-2.695-3.607-4.195-6.663-4.586
		c-0.485-0.063-0.942-0.177-1.384-0.287c-0.249-0.062-0.498-0.124-0.748-0.175c-9.271-1.913-19.276-2.673-31.488-2.4
		c-1.126,0.023-2.075,0.519-2.48,1.292c-0.379,0.726-0.245,1.644,0.38,2.585c0.997,1.509,1.921,3.083,2.816,4.605
		c0.969,1.649,1.972,3.355,3.049,4.948c0.738,1.089,1.886,2.055,2.925,2.459c4.686,1.824,9.318,3.516,13.627,5.071
		c0.054,0.02,0.105,0.043,0.155,0.071c17.745,3.114,30.595,18.414,30.595,36.488c0,2.079-0.17,4.143-0.507,6.15h52.774
		c-0.337-2.005-0.507-4.068-0.507-6.15c0-13.593,7.432-26.074,19.396-32.572c0.341-0.183,0.724-0.191,1.054-0.025
		c0.314,0.158,0.544,0.467,0.629,0.838l2.199,6.73c0.146,0.445-0.037,0.932-0.44,1.171c-8.414,4.988-13.641,14.153-13.641,23.917
		c0,15.324,12.467,27.791,27.791,27.791s27.791-12.467,27.791-27.791S219.692,156.059,204.368,156.059z M204.368,202.875
		c-10.49,0-19.025-8.535-19.025-19.025c0-5.835,2.635-11.27,7.228-14.909c0.256-0.203,0.596-0.269,0.909-0.174
		s0.561,0.336,0.662,0.647l5.92,18.11c0.083,0.252,0.262,0.456,0.503,0.573c0.241,0.119,0.514,0.132,0.764,0.042l6.907-2.478
		c0.506-0.182,0.774-0.741,0.599-1.248l-6.267-18.221c-0.103-0.298-0.059-0.626,0.117-0.887c0.177-0.26,0.466-0.422,0.78-0.438
		l0.277-0.017c0.207-0.014,0.415-0.027,0.626-0.027c10.49,0,19.024,8.534,19.024,19.024S214.858,202.875,204.368,202.875z"/>
</g>
</svg>
