<?xml version="1.0" encoding="utf-8"?>
<!-- Generator: Adobe Illustrator 25.4.1, SVG Export Plug-In . SVG Version: 6.00 Build 0)  -->
<svg version="1.1" id="Layer_1" xmlns="http://www.w3.org/2000/svg" xmlns:xlink="http://www.w3.org/1999/xlink" x="0px" y="0px"
	 viewBox="0 0 283.465 283.464" enable-background="new 0 0 283.465 283.464" xml:space="preserve">
<g>
	<defs>
		<rect id="SVGID_1_" width="283.465" height="283.464"/>
	</defs>
	<clipPath id="SVGID_00000039826284779413178160000002052483329722639489_">
		<use xlink:href="#SVGID_1_"  overflow="visible"/>
	</clipPath>
	<path clip-path="url(#SVGID_00000039826284779413178160000002052483329722639489_)" fill="#996017" d="M219.686,283.464H63.779
		c-35.225,0-63.78-28.555-63.78-63.779V63.779C-0.001,28.555,28.555,0,63.779,0h155.906c35.224,0,63.779,28.555,63.779,63.779
		v155.906C283.464,254.909,254.91,283.464,219.686,283.464"/>
	<path clip-path="url(#SVGID_00000039826284779413178160000002052483329722639489_)" fill="#FFFFFF" d="M256.635,177.92
		c-0.415-2.858-3.857-4.047-5.979-2.089c-9.795,9.041-20.371,15.654-29.196,15.654c-3.502,0-7.15-4.952-2.872-17.259l23.866-53.71
		c0,0,11.633-21.318-1.303-34.167c0,0-19.955-16.599-75.233,48.847c0,0,28.13-45.096,5.538-49.843c0,0-24.892-11.003-72.904,49.491
		c0,0,31.061-49.491-5.86-49.491c0,0-26.985-0.394-62.089,36.145c-1.289,1.342-2.024,3.123-2.024,4.983v7.801
		c0,3.373,4.245,4.859,6.36,2.231c20.043-24.914,33.282-37.798,51.189-37.798c0,0,12.16-1.304,3.59,15.296l-40.583,90.47h19.31
		c0,0,48.758-103.187,84.419-103.187c0,0,11.12,0,6.197,10.08l-43.455,93.107h18.929c0,0,46.429-101.195,87.35-103.187
		c0,0,7.501-1.29,2.93,13.068l-26.812,60.875c0,0-11.472,30.24,12.204,30.24c16.19,0,32.623-10.902,45.564-22.632
		c0.878-0.796,1.291-1.981,1.121-3.153L256.635,177.92z"/>
</g>
</svg>
