<?xml version="1.0" encoding="utf-8"?>
<!-- Generator: Adobe Illustrator 25.4.1, SVG Export Plug-In . SVG Version: 6.00 Build 0)  -->
<svg version="1.1" id="Layer_1" xmlns="http://www.w3.org/2000/svg" xmlns:xlink="http://www.w3.org/1999/xlink" x="0px" y="0px"
	 viewBox="0 0 283.5 283.5" style="enable-background:new 0 0 283.5 283.5;" xml:space="preserve">
<style type="text/css">
	.st0{fill:#25303B;}
	.st1{fill:#EB2132;}
</style>
<g>
	<path class="st0" d="M227.8,141.7c0,4-0.5,7.8-1.5,11.7c-1,3.8-2.4,7.5-4.3,10.9c-1.5,3-5.5,8.1-4.4,6.7h0l0,0l0,0l0,0l0,0l0,0.1
		l-0.1,0.1l-0.2,0.2c-0.1,0.2-0.3,0.3-0.4,0.5c-0.3,0.3-0.6,0.6-0.9,0.8c-0.6,0.5-1.4,0.8-2.1,0.8c-1.5,0.1-2.7-0.9-3.8-1.9
		c-1-1-1.9-2.3-2.1-3.7c0-0.7,0.1-1.3,0.4-1.9c0.1-0.3,0.3-0.6,0.5-0.8c0.1-0.1,0.2-0.3,0.3-0.4l0.1-0.2l0.1-0.1l0,0l0,0l0,0l0,0
		c-0.8,1.1,2.3-2.9,3.4-5.2c1.4-2.7,2.6-5.6,3.4-8.5c0.7-3,1.1-6,1.2-9.1c0-3-0.4-6.1-1.2-9.1c-0.8-3-1.9-5.8-3.4-8.5
		c-1.2-2.4-4.3-6.3-3.4-5.2l0,0l0,0l0,0l0,0l-0.1-0.1l-0.1-0.2c-0.1-0.1-0.2-0.3-0.3-0.4c-0.2-0.3-0.3-0.5-0.5-0.8
		c-0.3-0.6-0.4-1.2-0.4-1.9c0.1-1.3,1-2.6,2.1-3.7c1-1,2.3-2,3.8-1.9c0.8,0.1,1.5,0.4,2.1,0.9c0.3,0.2,0.6,0.5,0.9,0.8
		c0.1,0.1,0.3,0.3,0.4,0.5l0.2,0.2l0.1,0.1l0,0.1l0,0l0,0l0,0l0,0l0,0c-1.1-1.4,2.9,3.6,4.4,6.7c1.9,3.5,3.3,7.1,4.3,10.9
		C227.2,133.9,227.7,137.8,227.8,141.7 M204.6,126c-0.9-1.5-2.4-2.8-3.9-3c-1.5-0.1-2.8,0.8-3.8,1.8c-1,1-1.9,2.3-2.1,3.6
		c-0.2,1.3,0.4,2.4,1,3.3c2,3,3,6.6,3,10c0,3.4-1.1,7-3,10c-0.6,1-1.2,2-1,3.3c0.2,1.3,1.1,2.6,2.1,3.6c1,1,2.3,2,3.8,1.8
		c1.5-0.2,2.9-1.6,3.9-3c3.1-4.7,4.7-10.2,4.7-15.7C209.3,136.2,207.7,130.7,204.6,126 M184.4,217.9V65.2l0,0
		c0.1-1.2-0.3-2.4-1.3-3.4c-1.5-1.5-3.9-1.7-5.6-0.5l0,0l-79.6,51.5c-0.7,0.4-1.4,0.6-2.1,0.6c-0.1,0-34.7,0-34.7,0
		c-2.3,0-4.3,1.9-4.3,4.3v47.9c0,2.3,1.9,4.3,4.3,4.3c0,0,34.5,0,34.7,0c0.7,0,1.5,0.2,2.1,0.6l79.6,51.5l0,0c1.7,1.2,4.1,1,5.6-0.5
		C184.1,220.3,184.5,219.1,184.4,217.9L184.4,217.9z"/>
	<path class="st1" d="M141.7,0C63.5,0,0,63.5,0,141.7C0,220,63.5,283.5,141.7,283.5c78.3,0,141.7-63.5,141.7-141.7
		C283.5,63.5,220,0,141.7,0 M28.4,143.6c-0.4-27.1,8.7-52.1,24.2-71.9c0.7-0.9,2.1-1,3-0.2L211.9,228c0.8,0.8,0.8,2.2-0.2,3
		c-19.7,15.5-44.7,24.6-71.9,24.2C79,254.1,29.3,204.5,28.4,143.6 M227.9,211.9L71.5,55.5c-0.8-0.8-0.8-2.2,0.2-3
		c19.7-15.5,44.7-24.6,71.9-24.2c60.9,1,110.6,50.6,111.5,111.5c0.4,27.1-8.7,52.2-24.2,71.9C230.2,212.7,228.8,212.8,227.9,211.9"
		/>
</g>
</svg>
