<?xml version="1.0" encoding="utf-8"?>
<!-- Generator: Adobe Illustrator 25.4.1, SVG Export Plug-In . SVG Version: 6.00 Build 0)  -->
<svg version="1.1" id="Layer_1" xmlns="http://www.w3.org/2000/svg" xmlns:xlink="http://www.w3.org/1999/xlink" x="0px" y="0px"
	 viewBox="0 0 206.365 190.058" enable-background="new 0 0 206.365 190.058" xml:space="preserve">
<g>
	<g>
		<g>
			<g>
				<path fill="#25303B" d="M147.33,148.323c-2.761,0-5.394,0.551-7.808,1.53L31.284,52.752c-3.451-3.137-7.919-4.867-12.582-4.867
					C8.388,47.885,0,56.275,0,66.586c0,6.053,2.842,11.551,7.523,15.016l1.215,0.838c1.183,0.816,2.818,0.512,3.632-0.673
					l1.219-1.772c0.812-1.185,0.51-2.82-0.674-3.632l-1.212-0.843c-2.702-2.108-4.329-5.365-4.329-8.934
					c0-6.244,5.082-11.327,11.327-11.327c2.825,0,5.531,1.048,7.639,2.963l13.115,11.765c4.628,14.65,15.01,47.513,16.951,53.657
					c0.754,2.386,2.478,5.386,5.026,8.2l-13.858,16.629c-10.375,1.2-18.459,10.026-18.459,20.717
					c0,11.506,9.361,20.867,20.868,20.867c11.506,0,20.867-9.361,20.867-20.867c0-7.657-4.158-14.346-10.322-17.977l10.415-12.498
					c2.791,1.198,5.908,1.945,9.321,1.945h37.971l14.85,13.322c-4.065,3.81-6.623,9.209-6.623,15.207
					c0,11.506,9.361,20.867,20.867,20.867c11.507,0,20.868-9.361,20.868-20.867C168.198,157.684,158.837,148.323,147.33,148.323z
					 M49.983,178.353c-5.052,0-9.163-4.11-9.163-9.162s4.111-9.163,9.163-9.163s9.162,4.111,9.162,9.163
					S55.035,178.353,49.983,178.353z M147.33,178.353c-5.052,0-9.162-4.11-9.162-9.162s4.11-9.163,9.162-9.163
					s9.163,4.111,9.163,9.163S152.382,178.353,147.33,178.353z"/>
			</g>
		</g>
	</g>
	<g>
		<path fill="#25303B" d="M76.879,86.283c0.663,0.579,1.552,0.828,2.42,0.677c0.867-0.153,1.62-0.688,2.048-1.459l17.991-32.417
			c0.821-1.478,0.958-3.241,0.379-4.83c-0.58-1.59-1.821-2.848-3.401-3.451c-8.47-3.229-17.694-3.937-26.557-2.036
			c-8.863,1.899-16.987,6.327-23.389,12.743c-0.571,0.571-0.878,1.354-0.851,2.161c0.028,0.806,0.389,1.564,0.998,2.096
			L76.879,86.283z"/>
	</g>
	<g>
		<g>
			<circle fill="#EB2132" cx="164.64" cy="41.725" r="41.725"/>
			<rect x="128.527" y="36.065" fill="#FFFFFF" width="72.234" height="11.326"/>
		</g>
	</g>
</g>
</svg>
