<?xml version="1.0" encoding="utf-8"?>
<!-- Generator: Adobe Illustrator 25.4.1, SVG Export Plug-In . SVG Version: 6.00 Build 0)  -->
<svg version="1.1" id="Layer_1" xmlns="http://www.w3.org/2000/svg" xmlns:xlink="http://www.w3.org/1999/xlink" x="0px" y="0px"
	 viewBox="0 0 224.314 238.033" enable-background="new 0 0 224.314 238.033" xml:space="preserve">
<g>
	<path fill="#EB2132" d="M169.238,0c-28.439,0-51.577,23.138-51.577,51.578s23.138,51.577,51.577,51.577
		s51.577-23.137,51.577-51.577S197.677,0,169.238,0"/>
	<rect x="124.593" y="44.582" fill="#FFFFFF" width="89.29" height="14"/>
	<path fill="#25303B" d="M114.429,194.478c0.651,1.198,0.957,2.813,0.468,4.379c0,0-0.245,0.749-0.704,2.154
		c-0.247,0.695-0.482,1.58-0.897,2.566c-0.431,0.981-0.925,2.11-1.48,3.373c-2.362,4.943-6.575,11.853-13.78,18.042
		c-0.931,0.727-1.881,1.469-2.849,2.225c-0.49,0.369-0.965,0.768-1.483,1.118c-0.528,0.335-1.061,0.673-1.6,1.013
		c-1.085,0.664-2.156,1.395-3.312,2.02c-1.18,0.585-2.377,1.179-3.592,1.78c-4.945,2.211-10.482,3.865-16.363,4.572
		c-5.883,0.628-12.055,0.325-18.104-1.037c-6.048-1.354-11.964-3.773-17.303-7.145c-5.351-3.363-10.014-7.772-13.79-12.671
		c-3.752-4.912-6.754-10.33-8.574-15.975c-1.847-5.627-2.713-11.335-2.808-16.75c-0.046-5.43,0.812-10.511,1.975-15.087
		c2.615-9.122,7.032-15.879,10.543-20.1c0.899-1.047,1.695-1.991,2.412-2.787c0.773-0.742,1.43-1.374,1.963-1.886
		c1.073-1.018,1.645-1.56,1.645-1.56c1.245-1.067,2.809-1.503,4.176-1.412c1.38,0.099,2.6,0.769,3.406,1.924l2.927,4.18
		c0.805,1.156,1.124,2.526,1.046,3.759c-0.072,1.247-0.581,2.308-1.476,3.069c0,0-0.408,0.393-1.173,1.129
		c-0.386,0.365-0.861,0.815-1.421,1.345c-0.5,0.584-1.075,1.255-1.719,2.007c-2.517,3.025-5.673,7.865-7.579,14.426
		c-0.809,3.302-1.452,6.955-1.419,10.862c0.083,3.895,0.704,7.985,2.018,12.022c1.285,4.047,3.478,7.933,6.178,11.484
		c2.725,3.532,6.047,6.701,9.889,9.108c3.832,2.412,8.086,4.149,12.441,5.124c4.354,0.98,8.798,1.2,13.023,0.761
		c4.223-0.521,8.18-1.714,11.735-3.287c0.872-0.431,1.733-0.856,2.582-1.275c0.832-0.448,1.595-0.995,2.382-1.467
		c0.39-0.241,0.778-0.481,1.162-0.718c0.374-0.251,0.71-0.55,1.063-0.817c0.7-0.543,1.388-1.075,2.062-1.596
		c5.172-4.459,8.174-9.4,9.882-12.949c0.401-0.907,0.757-1.718,1.068-2.422c0.305-0.707,0.455-1.351,0.636-1.85
		c0.335-1.008,0.514-1.546,0.514-1.546c0.359-1.12,1.064-2.039,2.172-2.628c1.083-0.589,2.458-0.88,3.846-0.639l5.025,0.886
		C112.63,192.444,113.754,193.267,114.429,194.478 M81.377,88.393c4.683,0,9.727-0.774,13.031-3.975
		c3.202-3.303,3.977-8.349,3.977-13.033c0-4.683-0.775-9.728-3.977-13.032c-3.304-3.201-8.348-3.976-13.031-3.976
		c-4.683,0-9.73,0.775-13.033,3.976c-3.201,3.304-3.975,8.349-3.975,13.032c0,4.684,0.774,9.73,3.975,13.033
		C71.647,87.619,76.694,88.393,81.377,88.393 M151.789,208.204c0,0-3.238-5.857-8.095-14.643c-2.428-4.393-5.261-9.519-8.298-15.01
		c-1.517-2.746-3.086-5.583-4.679-8.466c-0.797-1.442-1.601-2.894-2.407-4.353l-0.708-1.281c-0.388-0.743-0.849-1.432-1.357-2.084
		c-0.965-1.347-2.259-2.423-3.67-3.278l-2.252-1.038c-0.387-0.151-0.786-0.272-1.188-0.387l-0.784-0.233l-2.402-0.713
		c-1.598-0.474-3.188-0.947-4.767-1.415c-3.159-0.938-6.267-1.86-9.274-2.753c-6.015-1.786-11.63-3.452-16.441-4.881
		c-3.644-1.082-6.824-2.026-9.374-2.783l5.523-26.004l1.831-8.625c0.282-1.385,0.617-2.779,0.856-4.155
		c0.086-0.68,0.234-1.385,0.207-2.017c0.011-0.652,0.002-1.295-0.097-1.878c-0.308-2.364-1.298-4.721-2.919-6.595
		c-0.784-0.956-1.724-1.788-2.77-2.447c-1.036-0.671-2.158-1.21-3.333-1.552c-2.361-0.665-4.698-0.762-7.439,0.07l-10.311,3.466
		l-16.116,5.448l-8.057,2.723l-2.014,0.681l-1.008,0.341l-0.85,0.287c-0.33,0.125-0.662,0.247-0.982,0.395
		c-1.296,0.555-2.496,1.317-3.541,2.263c-0.507,0.486-0.966,1.022-1.444,1.54c-0.229,0.269-0.439,0.557-0.65,0.84l-0.32,0.424
		l-20.514,27.14c-1.27,1.682-2.361,3.703-2.108,5.758c0.317,2.046,1.919,3.693,3.6,4.963c1.681,1.271,3.703,2.362,5.757,2.109
		c2.046-0.317,3.693-1.919,4.963-3.6l20.514-27.141l0.32-0.424l3.179-1.075l8.058-2.723l5.048-1.707
		c-1.242,5.851-3.284,15.463-5.325,25.076c-0.408,1.921-0.816,3.842-1.217,5.733c-0.124,0.583-0.248,1.164-0.371,1.742
		c-0.18,0.934-0.45,1.876-0.503,2.784l-0.147,1.368l-0.036,0.34l0.026,0.328l0.052,0.655c0.053,0.433,0.024,0.877,0.145,1.296
		c0.097,0.422,0.195,0.843,0.293,1.262c0.877,3.354,3.234,6.054,5.949,7.625c0.354,0.175,0.706,0.348,1.054,0.52
		c0.345,0.178,0.69,0.351,1.089,0.432c0.774,0.201,1.509,0.446,2.279,0.602c1.189,0.202,2.338,0.397,3.442,0.584
		c5.808,0.985,9.68,1.641,9.68,1.641c0.737,0.125,1.501,0.206,2.257,0.212c0.592,0.109,1.195,0.197,1.787,0.305l1.862,0.316
		l13.556,2.299l24.949,4.231l25.994,43.246c1.086,1.807,2.554,3.573,4.555,4.105c2.016,0.469,4.141-0.402,5.948-1.488
		c1.844-1.019,3.663-2.422,4.266-4.403C153.602,212.204,152.809,210.049,151.789,208.204"/>
</g>
</svg>
