<?xml version="1.0" encoding="utf-8"?>
<!-- Generator: Adobe Illustrator 25.4.1, SVG Export Plug-In . SVG Version: 6.00 Build 0)  -->
<svg version="1.1" id="Layer_1" xmlns="http://www.w3.org/2000/svg" xmlns:xlink="http://www.w3.org/1999/xlink" x="0px" y="0px"
	 viewBox="0 0 283.5 283.5" style="enable-background:new 0 0 283.5 283.5;" xml:space="preserve">
<style type="text/css">
	.st0{fill:#25303B;}
	.st1{fill:#EB2132;}
</style>
<g>
	<path class="st0" d="M123.5,55.2c-1.2-1.2-1.5-3.1-1.5-4.9c0-1.8,0.3-3.6,1.5-4.9c1.2-1.2,3.1-1.5,4.9-1.5h26.9
		c1.8,0,3.6,0.3,4.9,1.5c1.2,1.2,1.5,3.1,1.5,4.9c0,1.8-0.3,3.6-1.5,4.9c-1.2,1.2-3.1,1.5-4.9,1.5h-26.9
		C126.7,56.7,124.8,56.4,123.5,55.2 M199.9,182.8c0,10.9,0,21.8,0,32.6v0c0,4.7-0.8,9.7-4,13c-3.3,3.2-8.3,4-13,4H99.2
		c-4.7,0-9.7-0.8-13-4c-3.2-3.3-4-8.3-4-13c0,0,0-54.4,0-65.2c0-4.5,0.7-9.4,3.7-12.7c1-1.3,38.9-38.7,39-38.7c0-6.6,0-21.5,0-22
		h-1.3c-2.3,0-4.7-0.4-6.3-1.9c-1.5-1.6-1.9-4-1.9-6.3c0-2.3,0.4-4.7,1.9-6.3c1.6-1.5,4-1.9,6.3-1.9h18.2h18.2
		c2.3,0,4.7,0.4,6.3,1.9c1.5,1.6,1.9,4,1.9,6.3c0,2.3-0.4,4.7-1.9,6.3c-1.6,1.5-4,1.9-6.3,1.9h-1.2c0,0.5,0,14.8,0,22
		c5.4,5.4,36.4,37.4,37.4,38.7c3,3.3,3.7,8.2,3.7,12.7C200,161,200,171.9,199.9,182.8 M155.6,179.1l18.4-18.4L160.3,147l-18.4,18.4
		L123.5,147l-13.7,13.7l18.4,18.4l-18.4,18.4l13.7,13.7l18.4-18.4l18.4,18.4l13.7-13.7L155.6,179.1z"/>
	<path class="st1" d="M141.7,0C63.5,0,0,63.5,0,141.7C0,220,63.5,283.5,141.7,283.5c78.3,0,141.7-63.5,141.7-141.7
		C283.5,63.5,220,0,141.7,0 M28.4,143.6c-0.4-27.1,8.7-52.1,24.2-71.9c0.7-0.9,2.1-1,3-0.2L211.9,228c0.8,0.8,0.8,2.2-0.2,3
		c-19.7,15.5-44.7,24.6-71.9,24.2C79,254.1,29.3,204.5,28.4,143.6 M227.9,211.9L71.5,55.5c-0.8-0.8-0.8-2.2,0.2-3
		c19.7-15.5,44.7-24.6,71.9-24.2c60.9,1,110.6,50.6,111.5,111.5c0.4,27.1-8.7,52.2-24.2,71.9C230.2,212.7,228.8,212.8,227.9,211.9"
		/>
</g>
</svg>
