<?xml version="1.0" encoding="utf-8"?>
<!-- Generator: Adobe Illustrator 25.4.1, SVG Export Plug-In . SVG Version: 6.00 Build 0)  -->
<svg version="1.1" id="Layer_2" xmlns="http://www.w3.org/2000/svg" xmlns:xlink="http://www.w3.org/1999/xlink" x="0px" y="0px"
	 viewBox="0 0 87.379 87.379" enable-background="new 0 0 87.379 87.379" xml:space="preserve">
<polygon fill="#FFFFFF" points="36.017,18.916 36.017,15.538 33.282,17.331 "/>
<polygon fill="#FFFFFF" points="24.27,12.106 28.97,9.025 25.899,7.211 21.172,10.31 "/>
<polygon fill="#FFFFFF" points="68.876,29.587 66.054,31.436 66.054,35.851 70.736,32.782 70.736,28.368 68.877,29.587 "/>
<polygon fill="#FFFFFF" points="65.304,35.895 65.304,32.516 62.569,34.309 "/>
<polygon fill="#FFFFFF" points="20.833,9.635 25.513,6.567 25.513,4.473 25.513,2.152 20.833,5.221 "/>
<polygon fill="#FFFFFF" points="26.263,4.256 39.371,11.855 41.449,10.493 41.449,1.753 38.423,-0.001 26.263,-0.001 26.263,1.458 
	"/>
<polygon fill="#FFFFFF" points="25.513,1.255 25.513,-0.001 22.708,-0.001 22.708,3.095 "/>
<polygon fill="#FFFFFF" points="49.77,26.41 54.451,23.342 54.451,21.248 54.451,18.928 49.77,21.996 "/>
<polygon fill="#FFFFFF" points="53.208,28.881 57.908,25.8 54.837,23.986 50.109,27.085 "/>
<path fill="#25303B" d="M87.38,19.66c0-10.858-8.802-19.66-19.66-19.66H45.803L87.38,24.102V19.66z"/>
<polygon fill="#DEF0EA" points="72.743,40.206 72.743,16.483 82.455,22.114 82.455,45.837 "/>
<polygon fill="none" points="82.773,55.327 67.671,46.572 67.671,57.878 82.773,66.633 "/>
<g>
	<path fill="#25303B" d="M0.004,46.321v21.403c0,10.858,8.802,19.66,19.661,19.66h48.059c0.935,0,1.847-0.088,2.747-0.214
		L0.004,46.321z"/>
</g>
<polygon fill="#FFFFFF" points="67.671,46.572 82.773,55.327 82.773,66.633 67.671,57.878 "/>
<polygon fill="#FFFFFF" points="34.897,27.575 49.999,36.33 49.999,47.636 34.897,38.881 "/>
<path fill="#FFFFFF" d="M17.221,28.636V17.329L3.108,9.147C2.752,9.701,2.419,10.27,2.12,10.859v9.022L17.221,28.636z"/>
<path fill="#25303B" d="M1.556,20.421l15.852,9.189c0.059,0.034,0.123,0.051,0.188,0.051c0.064,0,0.129-0.017,0.188-0.05
	c0.116-0.067,0.188-0.191,0.188-0.325V17.113c0-0.134-0.071-0.258-0.187-0.324L3.525,8.523C3.382,8.728,3.243,8.936,3.108,9.147
	l14.114,8.182v11.307L2.12,19.881v-9.022c-0.274,0.539-0.526,1.091-0.75,1.657v7.58C1.37,20.23,1.441,20.354,1.556,20.421z"/>
<path fill="#25303B" d="M57.114,12.734c-0.213-0.214-0.559-0.214-0.773,0l-0.39,0.39c-0.214,0.213-0.214,0.559,0,0.773l0.409,0.408
	c0.446,0.446,1.126,1.015,1.168,1.039c-0.279-0.058-1.544-0.053-1.544-0.053h-0.783v1.708h0.783c0,0,1.265,0.004,1.544-0.053
	c-0.042,0.023-0.722,0.592-1.168,1.039l-0.409,0.408c-0.214,0.214-0.214,0.56,0,0.773l0.39,0.391c0.214,0.213,0.56,0.213,0.773,0
	l3.411-3.411L57.114,12.734z"/>
<rect x="53.951" y="15.29" fill="#25303B" width="0.5" height="1.708"/>
<path fill="#25303B" d="M53.201,15.29l-1.718,0c-0.313,0-0.567,0.254-0.567,0.568v0.573c0,0.313,0.254,0.567,0.567,0.567l1.718,0
	V15.29z"/>
<path fill="#FFFFFF" d="M53.201,16.997l-1.718,0c-0.313,0-0.567-0.254-0.567-0.567v-0.573c0-0.315,0.254-0.568,0.567-0.568l1.718,0
	v-0.75h-1.718c-0.726,0-1.316,0.591-1.316,1.318v0.572c0,0.727,0.591,1.317,1.316,1.317h1.718V16.997z"/>
<polygon fill="#FFFFFF" points="54.447,17.747 53.947,17.747 53.947,18.358 54.447,18.031 "/>
<path fill="#FFFFFF" d="M55.201,9.725v3.195c0.061-0.116,0.125-0.232,0.22-0.327l0.39-0.39c0.245-0.245,0.57-0.38,0.917-0.38
	c0.001,0,0.002,0,0.003,0c0.347,0,0.672,0.136,0.913,0.38l3.941,3.982l-3.94,3.897c-0.244,0.245-0.569,0.38-0.917,0.38
	c-0.346,0-0.671-0.134-0.918-0.38l-0.388-0.389c-0.096-0.096-0.16-0.212-0.221-0.328v1.665l13.458,7.801l2.078-1.362v-8.74
	L55.201,9.725z"/>
<path fill="#FFFFFF" d="M55.421,14.427c-0.096-0.096-0.159-0.212-0.22-0.328v0.441h0.333L55.421,14.427z"/>
<path fill="#FFFFFF" d="M55.533,17.747h-0.332v0.441c0.061-0.117,0.125-0.233,0.221-0.329L55.533,17.747z"/>
<path fill="#FFFFFF" d="M57.644,12.204c-0.241-0.244-0.566-0.379-0.913-0.38c-0.001,0-0.002,0-0.003,0
	c-0.347,0-0.672,0.135-0.917,0.38l-0.39,0.39c-0.095,0.095-0.159,0.21-0.22,0.327v1.178c0.061,0.117,0.124,0.233,0.22,0.328
	l0.113,0.113h-0.333v0.75h0.783c0,0,1.265-0.004,1.544,0.053c-0.042-0.023-0.722-0.592-1.168-1.039l-0.409-0.408
	c-0.214-0.214-0.214-0.56,0-0.773l0.39-0.39c0.214-0.214,0.56-0.214,0.773,0l3.411,3.409l-3.411,3.411
	c-0.213,0.213-0.559,0.213-0.773,0l-0.39-0.391c-0.214-0.213-0.214-0.559,0-0.773l0.409-0.408c0.446-0.446,1.126-1.015,1.168-1.039
	c-0.279,0.058-1.544,0.053-1.544,0.053h-0.783v0.75h0.332l-0.111,0.111c-0.096,0.096-0.16,0.212-0.221,0.329v1.178
	c0.061,0.117,0.125,0.233,0.221,0.328l0.388,0.389c0.247,0.246,0.572,0.38,0.918,0.38c0.348,0,0.673-0.135,0.917-0.38l3.94-3.897
	L57.644,12.204z"/>
<rect x="53.947" y="16.997" fill="#FFFFFF" width="0.5" height="0.75"/>
<rect x="53.947" y="14.54" fill="#FFFFFF" width="0.5" height="0.75"/>
<path fill="#25303B" d="M45.427,10.184c-0.297,0.287-0.751,0.357-1.172,0.357c-0.42,0-0.874-0.07-1.17-0.357
	c-0.289-0.298-0.358-0.751-0.358-1.172c0-0.42,0.069-0.874,0.358-1.17c0.296-0.289,0.75-0.358,1.17-0.358
	c0.421,0,0.875,0.069,1.172,0.358c0.287,0.296,0.357,0.75,0.357,1.17C45.784,9.433,45.714,9.886,45.427,10.184 M40.023,17.489
	c-0.02,0.176-0.011,0.368,0.095,0.505c0.111,0.134,0.297,0.184,0.472,0.203c0.175,0.02,0.369,0.012,0.506-0.095
	c0.133-0.11,0.183-0.296,0.203-0.471l0.038-0.349l0.04-0.347v-0.004l0.257-2.32c0.006-0.008,0.014-0.016,0.02-0.024l0.921-0.845
	v4.203l-0.68,4.408c-0.001,0.002-0.003,0.004-0.003,0.006l-1.083,3.217c-0.001,0.002-0.001,0.002-0.001,0.003v0.002
	c-0.075,0.223-0.119,0.475-0.018,0.685c0.106,0.206,0.336,0.325,0.559,0.4c0.028,0.01,0.057,0.018,0.086,0.027
	c0.201,0.057,0.419,0.08,0.604-0.007c0.206-0.107,0.324-0.336,0.4-0.561l1.132-3.364l0.004-0.024
	c0.031-0.109,0.058-0.217,0.091-0.325l0.15-0.536l0.287-1.029v1.744l0.319,4.2c0.018,0.236,0.077,0.487,0.25,0.641
	c0.179,0.149,0.437,0.169,0.673,0.151c0.237-0.006,0.49-0.051,0.654-0.217c0.157-0.171,0.19-0.427,0.184-0.664l-0.286-11.601
	l0.029,0.068c0.042,0.093,0.098,0.179,0.167,0.255c0.069,0.075,0.148,0.139,0.236,0.19l1.644,0.932l0.001,0.001l0.412,0.234
	c0.164,0.092,0.358,0.166,0.538,0.119c0.179-0.052,0.307-0.214,0.4-0.379c0.094-0.165,0.167-0.358,0.12-0.538
	c-0.053-0.179-0.215-0.306-0.38-0.399l-0.25-0.143l-1.671-0.948l-0.599-1.357c-0.002-0.005-0.005-0.01-0.007-0.015l-0.488-1.033
	c-0.19-0.404-0.515-0.734-0.915-0.932l-0.123-0.06c-0.27-0.133-0.573-0.204-0.875-0.204h-0.03c-0.146,0-0.29,0.027-0.427,0.08
	c-0.136,0.054-0.26,0.13-0.369,0.229l-0.988,0.906l-1.644,1.507c-0.08,0.075-0.145,0.161-0.195,0.258h-0.001
	c-0.05,0.099-0.081,0.205-0.093,0.314L40.1,16.793l-0.039,0.348L40.023,17.489"/>
<g>
	<path fill="#DEF0EA" d="M44.103,22.591v-1.744l-0.287,1.029l-0.15,0.536c-0.033,0.108-0.06,0.216-0.091,0.325l-0.004,0.024
		l-0.082,0.242v0.245l0.694,0.402L44.103,22.591z"/>
	<path fill="#DEF0EA" d="M51.483,14.54h1.718V5.155l-8.893-5.156h-0.819v7.606c0.24-0.088,0.507-0.121,0.766-0.121
		c0.421,0,0.875,0.069,1.172,0.358c0.287,0.296,0.357,0.75,0.357,1.17c0,0.421-0.07,0.874-0.357,1.172
		c-0.297,0.287-0.751,0.357-1.172,0.357c-0.259,0-0.526-0.034-0.766-0.121v0.67c0.063-0.039,0.12-0.09,0.19-0.118
		c0.137-0.053,0.281-0.08,0.427-0.08h0.03c0.302,0,0.605,0.071,0.875,0.204l0.123,0.06c0.4,0.198,0.725,0.528,0.915,0.932
		l0.488,1.033c0.002,0.005,0.005,0.01,0.007,0.015l0.599,1.357l1.671,0.948l0.25,0.143c0.165,0.093,0.327,0.22,0.38,0.399
		c0.047,0.18-0.026,0.373-0.12,0.538c-0.093,0.165-0.221,0.327-0.4,0.379c-0.18,0.047-0.374-0.027-0.538-0.119l-0.412-0.234
		l-0.001-0.001l-1.644-0.932c-0.088-0.051-0.167-0.115-0.236-0.19c-0.069-0.076-0.125-0.162-0.167-0.255l-0.029-0.068l0.239,9.681
		l2.885,1.672v-4.661c0-0.126,0.063-0.244,0.169-0.313l4.012-2.63v-1.103h-1.718c-0.726,0-1.316-0.591-1.316-1.317v-0.572
		C50.166,15.131,50.757,14.54,51.483,14.54z"/>
</g>
<g>
	<path fill="#92979D" d="M42.739,9.271v2.453l0.571-0.523c0.053-0.048,0.12-0.074,0.179-0.111v-0.67
		c-0.15-0.055-0.291-0.125-0.404-0.236C42.854,9.946,42.766,9.611,42.739,9.271z"/>
	<polygon fill="#92979D" points="44.183,23.65 43.489,23.248 43.489,23.003 43.176,23.933 44.252,24.557 	"/>
	<path fill="#92979D" d="M45.803-0.001h-1.495l8.893,5.156V18.85l-4.012,2.63c-0.105,0.069-0.169,0.187-0.169,0.313v4.661
		l-2.885-1.672l0.022,0.88l3.05,1.768l3.824,2.217c0.059,0.034,0.124,0.051,0.188,0.051c0.071,0,0.144-0.021,0.206-0.062
		l5.397-3.539c0.107-0.071,0.172-0.193,0.169-0.322s-0.073-0.248-0.185-0.314l-3.606-2.13v-1.432l12.756,7.394l-2.483,1.628
		c-0.105,0.069-0.169,0.187-0.169,0.313v0.385l-3.655,2.397c-0.108,0.071-0.173,0.194-0.169,0.324s0.074,0.249,0.187,0.314
		l3.824,2.217c0.002,0.001,0.003,0,0.005,0.001c0.002,0.001,0.003,0.003,0.005,0.005c0.057,0.03,0.117,0.045,0.179,0.045
		c0.069,0,0.135-0.022,0.194-0.058c0.004-0.002,0.008-0.001,0.012-0.004l5.432-3.561c0.105-0.069,0.169-0.187,0.169-0.313v-5.311
		v-9.159c0-0.134-0.071-0.257-0.187-0.324L55.014,8.75c-0.116-0.066-0.257-0.068-0.376,0c-0.116,0.067-0.188,0.19-0.188,0.325v8.956
		l-0.5,0.328V5.59l18.042,10.459v24.374c0,0.134,0.071,0.257,0.187,0.324l10.462,6.065c0.059,0.034,0.123,0.051,0.188,0.051
		c0.064,0,0.129-0.017,0.188-0.05c0.116-0.067,0.188-0.191,0.188-0.325V22.548l4.175,2.42v-0.867L45.803-0.001z M65.304,35.895
		l-2.735-1.586l2.735-1.793V35.895z M70.736,32.782l-4.682,3.069v-4.415l2.822-1.849c0,0,0,0,0,0l1.859-1.219V32.782z
		 M55.201,18.233V9.725l15.535,9.006v8.74l-2.078,1.362l-13.458-7.801V18.233z M54.837,23.986l3.071,1.814l-4.7,3.082l-3.099-1.796
		L54.837,23.986z M54.451,18.928v2.32v2.094L49.77,26.41v-4.414L54.451,18.928z M82.455,45.837l-9.712-5.631V16.483l9.712,5.63
		V45.837z"/>
	<path fill="#92979D" d="M43.085,7.842c0.114-0.111,0.255-0.182,0.404-0.237v-7.606h-0.75v8.754
		C42.766,8.414,42.854,8.078,43.085,7.842z"/>
</g>
<g>
	<path fill="#92979D" d="M42.199,16.029v-1.943l-0.545,0.5c-0.006,0.008-0.014,0.016-0.02,0.024l-0.238,2.145l0.633-0.412
		C42.135,16.274,42.199,16.156,42.199,16.029z"/>
	<path fill="#92979D" d="M40.023,17.489l0.038-0.348l0.039-0.348l0.01-0.095l-3.343,2.177v-4.417l4.682-3.068v1.517l0.75-0.688
		v-1.524V1.538c0-0.134-0.071-0.257-0.187-0.324l-2.094-1.214h-1.495l3.026,1.754v8.74l-2.078,1.362L26.263,4.256V1.458v-1.459
		h-0.75v1.256l-2.806,1.839v-3.095h-0.75v3.587l-1.706,1.119c-0.105,0.069-0.169,0.187-0.169,0.313v5.304
		c0,0.025,0.002,0.051,0.006,0.075c0.002,0.007,0.001,0.001,0.001,0.001c0.003,0.018,0.008,0.035,0.014,0.052
		c0.026,0.078,0.078,0.146,0.151,0.194c0,0,0.001,0,0.001,0c0.005,0.003,0.011,0.006,0.016,0.009l3.822,2.216
		c0.059,0.034,0.124,0.051,0.188,0.051c0.071,0,0.144-0.021,0.206-0.062l5.397-3.539c0.107-0.071,0.172-0.193,0.169-0.322
		s-0.073-0.248-0.185-0.314l-3.606-2.13V5.123l12.406,7.192l-2.483,1.627c-0.105,0.069-0.169,0.187-0.169,0.313v0.385l-3.655,2.397
		c-0.108,0.071-0.173,0.194-0.169,0.324s0.074,0.249,0.187,0.314l3.824,2.217c0.002,0.001,0.004,0.001,0.006,0.002
		c0.002,0.001,0.002,0.003,0.004,0.004c0.056,0.03,0.117,0.045,0.179,0.045c0.068,0,0.134-0.021,0.193-0.057
		c0.004-0.002,0.008-0.001,0.012-0.004l3.425-2.231C40.022,17.596,40.017,17.542,40.023,17.489z M20.833,5.221l4.681-3.069v2.32
		v2.094l-4.681,3.068V5.221z M28.97,9.025l-4.7,3.082l-3.099-1.796l4.728-3.099L28.97,9.025z M36.017,18.916l-2.735-1.586
		l2.735-1.793V18.916z"/>
</g>
<path fill="#FFFFFF" d="M42.195,1.538v9.158v1.527l0.127-0.116l0.413-0.379V9.185c-0.003-0.058-0.008-0.116-0.008-0.173
	c0-0.057,0.005-0.115,0.008-0.172v-8.84h-2.821l2.094,1.214C42.124,1.28,42.195,1.404,42.195,1.538z"/>
<path fill="#FFFFFF" d="M40.389,14.186c0.012-0.109,0.043-0.215,0.093-0.314h0.001c0.05-0.097,0.115-0.183,0.195-0.258l0.771-0.707
	V11.39l-4.682,3.068v4.417l3.343-2.177L40.389,14.186z"/>
<path fill="#EB2132" d="M35.472,22.977c-0.25,0.015-0.498,0.093-0.721,0.239l-19.576,12.83c-0.681,0.446-0.87,1.361-0.424,2.043
	c0.3,0.458,0.812,0.695,1.322,0.665c0.25-0.015,0.497-0.094,0.722-0.24l19.574-12.829c0.682-0.447,0.872-1.362,0.425-2.044
	C36.494,23.183,35.983,22.947,35.472,22.977z"/>
<path fill="#FFFFFF" d="M37.422,23.231c-0.436-0.664-1.2-1.049-1.994-1.002c-0.387,0.023-0.764,0.147-1.088,0.36l-14.449,9.47
	l-0.723,0.474l-4.404,2.886c-0.049,0.032-0.088,0.073-0.133,0.108c-0.251,0.194-0.45,0.431-0.593,0.697
	c-0.122,0.226-0.205,0.467-0.244,0.718c-0.081,0.525,0.015,1.08,0.328,1.558c0.437,0.665,1.201,1.05,1.995,1.003
	c0.386-0.023,0.763-0.148,1.089-0.361l19.574-12.83C37.807,25.639,38.094,24.258,37.422,23.231z M36.369,25.685L16.795,38.514
	c-0.225,0.147-0.473,0.225-0.722,0.24c-0.51,0.03-1.022-0.207-1.322-0.665c-0.446-0.682-0.257-1.597,0.424-2.043l19.576-12.83
	c0.223-0.146,0.472-0.224,0.721-0.239c0.51-0.03,1.022,0.206,1.322,0.664C37.241,24.323,37.051,25.238,36.369,25.685z"/>
<path fill="#EB2132" d="M68.246,41.974c-0.25,0.015-0.498,0.093-0.721,0.239l-19.576,12.83c-0.681,0.446-0.87,1.361-0.424,2.043
	c0.3,0.458,0.812,0.695,1.322,0.665c0.25-0.015,0.497-0.094,0.722-0.24l19.574-12.829c0.682-0.447,0.872-1.362,0.425-2.044
	C69.268,42.18,68.756,41.944,68.246,41.974z"/>
<path fill="#FFFFFF" d="M70.195,42.228c-0.436-0.664-1.2-1.049-1.994-1.002c-0.387,0.023-0.764,0.147-1.088,0.36l-14.449,9.47
	l-0.723,0.474l-4.404,2.886c-0.049,0.032-0.088,0.073-0.133,0.108c-0.251,0.194-0.45,0.431-0.593,0.697
	c-0.122,0.226-0.205,0.467-0.244,0.718c-0.081,0.525,0.015,1.08,0.328,1.558c0.437,0.665,1.201,1.05,1.995,1.003
	c0.386-0.023,0.763-0.148,1.089-0.361l19.574-12.83C70.58,44.636,70.867,43.255,70.195,42.228z M69.142,44.682L49.569,57.511
	c-0.225,0.147-0.473,0.225-0.722,0.24c-0.51,0.03-1.022-0.207-1.322-0.665c-0.446-0.682-0.257-1.597,0.424-2.043l19.576-12.83
	c0.223-0.146,0.472-0.224,0.721-0.239c0.51-0.03,1.022,0.206,1.322,0.664C70.015,43.32,69.824,44.235,69.142,44.682z"/>
<path fill="#FFFFFF" d="M83.201,22.548v23.939c0,0.134-0.071,0.258-0.188,0.325c-0.059,0.033-0.123,0.05-0.188,0.05
	c-0.065,0-0.13-0.017-0.188-0.051l-10.462-6.065c-0.115-0.067-0.187-0.19-0.187-0.324V16.049L53.947,5.59v8.95h0.5V9.075
	c0-0.134,0.071-0.258,0.188-0.325c0.119-0.067,0.26-0.066,0.376,0l16.285,9.44c0.115,0.067,0.187,0.19,0.187,0.324v9.159v5.311
	c0,0.126-0.063,0.244-0.169,0.313l-5.432,3.561c-0.004,0.002-0.008,0.001-0.012,0.004c-0.059,0.036-0.125,0.058-0.194,0.058
	c-0.062,0-0.122-0.015-0.179-0.045c-0.002-0.001-0.003-0.003-0.005-0.005c-0.002-0.001-0.004,0-0.005-0.001l-3.824-2.217
	c-0.112-0.065-0.183-0.184-0.187-0.314s0.061-0.252,0.169-0.324l3.655-2.397v-0.385c0-0.126,0.063-0.244,0.169-0.313l2.483-1.628
	l-12.756-7.394v1.432l3.606,2.13c0.111,0.066,0.182,0.185,0.185,0.314s-0.062,0.251-0.169,0.322l-5.397,3.539
	c-0.062,0.041-0.135,0.062-0.206,0.062c-0.064,0-0.13-0.017-0.188-0.051l-3.824-2.217l-3.046-1.766l0.026,1.038
	c0.006,0.237-0.027,0.493-0.184,0.664c-0.164,0.166-0.417,0.211-0.654,0.217c-0.236,0.018-0.494-0.002-0.673-0.151
	c-0.173-0.154-0.232-0.405-0.25-0.641l-0.169-2.232l-1.077-0.624l-0.737,2.19c-0.076,0.225-0.194,0.454-0.4,0.561
	c-0.185,0.087-0.403,0.064-0.604,0.007c-0.029-0.009-0.058-0.017-0.086-0.027c-0.223-0.075-0.453-0.194-0.559-0.4
	c-0.101-0.21-0.057-0.462,0.018-0.685v-0.002c0-0.001,0-0.001,0.001-0.003l1.083-3.217c0-0.002,0.002-0.004,0.003-0.006l0.68-4.408
	v-4.203l-0.38,0.348v1.939c0,0.127-0.064,0.245-0.17,0.314l-0.629,0.409l-0.02,0.178v0.004l-0.04,0.347l-0.038,0.349
	c-0.02,0.175-0.07,0.361-0.203,0.471c-0.137,0.107-0.331,0.115-0.506,0.095c-0.175-0.019-0.361-0.069-0.472-0.203
	c-0.074-0.096-0.093-0.22-0.095-0.346l-3.429,2.234c-0.004,0.002-0.008,0.001-0.012,0.004c-0.059,0.036-0.125,0.057-0.193,0.057
	c-0.062,0-0.123-0.015-0.179-0.045c-0.002-0.001-0.002-0.003-0.004-0.004c-0.002-0.001-0.004-0.001-0.006-0.002l-3.824-2.217
	c-0.112-0.065-0.183-0.184-0.187-0.314s0.061-0.252,0.169-0.324l3.655-2.397v-0.385c0-0.126,0.063-0.244,0.169-0.313l2.483-1.627
	L26.259,5.123v1.432l3.606,2.13c0.111,0.066,0.182,0.185,0.185,0.314s-0.062,0.251-0.169,0.322l-5.397,3.539
	c-0.062,0.041-0.135,0.062-0.206,0.062c-0.064,0-0.13-0.017-0.188-0.051l-3.822-2.216c-0.005-0.003-0.011-0.006-0.016-0.009
	c0,0-0.001,0-0.001,0c-0.073-0.047-0.125-0.116-0.151-0.194c-0.006-0.017-0.011-0.035-0.014-0.052c0,0,0.001,0.006-0.001-0.001
	c-0.004-0.024-0.006-0.05-0.006-0.075V5.018c0-0.126,0.063-0.244,0.169-0.313l1.706-1.119v-3.587h-2.298
	c-5.634,0-10.694,2.388-14.278,6.186l28.65,16.608l0.313-0.205c0.324-0.213,0.7-0.337,1.088-0.36
	c0.794-0.047,1.558,0.338,1.994,1.002c0.343,0.524,0.433,1.14,0.305,1.708L66.8,41.792l0.315-0.206
	c0.324-0.212,0.7-0.337,1.088-0.36c0.794-0.047,1.558,0.338,1.994,1.002c0.343,0.525,0.433,1.141,0.305,1.709l16.875,9.782V24.968
	L83.201,22.548z"/>
<g>
	<path fill="#25303B" d="M37.727,24.938c-0.055,0.246-0.154,0.482-0.29,0.698l15.794,9.156v15.891l0.75-0.492V35.228l4.481,2.598
		v9.43l0.75-0.492v-8.503l4.48,2.597v2.969l0.75-0.492v-2.043l1.654,0.959l0.702-0.46L37.727,24.938z"/>
	<path fill="#25303B" d="M20.457,31.687l0.75-0.492V16.229l4.481,2.598v9.432l0.75-0.492v-8.506l4.48,2.597v2.972l0.75-0.492v-2.046
		l1.656,0.96l0.702-0.46L5.378,6.185C5.203,6.37,5.047,6.572,4.88,6.763l15.577,9.03V31.687z"/>
	<path fill="#25303B" d="M31.669,45.929V29.661l-0.75,0.492v15.431l-4.48-2.598V33.09l-0.75,0.492v8.97l-4.481-2.598v-3.435
		l-0.75,0.492v2.506l-2.029-1.176l-0.702,0.46l28.931,16.772c0.041-0.121,0.092-0.238,0.154-0.352
		c0.058-0.108,0.132-0.208,0.208-0.305l-15.371-8.911C31.655,45.979,31.669,45.956,31.669,45.929z"/>
	<path fill="#25303B" d="M70.5,43.937c-0.056,0.246-0.154,0.482-0.291,0.698l17.174,9.956v-0.867L70.5,43.937z"/>
	<path fill="#25303B" d="M14.038,36.224c0.059-0.109,0.133-0.209,0.21-0.307L0.004,27.659v0.867l13.881,8.047
		C13.926,36.453,13.977,36.336,14.038,36.224z"/>
	<path fill="#25303B" d="M64.443,64.926V48.658l-0.75,0.492v15.431l-4.48-2.598v-9.897l-0.75,0.492v8.97l-4.481-2.598v-3.435
		l-0.75,0.492v2.508l-2.031-1.177l-0.702,0.46L84.692,77.62h0c0.126-0.216,0.24-0.439,0.358-0.659L64.422,65.003
		C64.428,64.977,64.443,64.954,64.443,64.926z"/>
</g>
<path fill="#25303B" d="M50.562,35.79l-14.987-8.688l-1.428,0.936v11.06c0,0.134,0.071,0.258,0.187,0.324l15.852,9.189
	c0.059,0.034,0.123,0.051,0.188,0.051c0.064,0,0.129-0.017,0.188-0.05c0.116-0.067,0.188-0.191,0.188-0.325V36.114
	C50.749,35.98,50.678,35.856,50.562,35.79z M49.999,47.636l-15.102-8.755V27.575l15.102,8.755V47.636z"/>
<path fill="#25303B" d="M83.336,54.786l-14.987-8.688l-1.428,0.936v11.06c0,0.134,0.071,0.258,0.187,0.324l15.852,9.189
	c0.059,0.034,0.123,0.051,0.188,0.051c0.064,0,0.129-0.017,0.188-0.05c0.116-0.067,0.188-0.191,0.188-0.325V55.111
	C83.523,54.977,83.451,54.853,83.336,54.786z M82.773,66.633l-15.102-8.755V46.572l15.102,8.755V66.633z"/>
<g>
	<path fill="#25303B" d="M27.489,27.079v-3.796l2.383,1.381v0.853l0.75-0.492v-0.578c0-0.134-0.071-0.257-0.187-0.324l-3.133-1.816
		c-0.116-0.066-0.258-0.068-0.376,0c-0.116,0.067-0.188,0.19-0.188,0.325v4.938L27.489,27.079z"/>
	<path fill="#25303B" d="M29.872,30.84v5.13l-2.383-1.381v-2.188l-0.75,0.492v1.912c0,0.134,0.071,0.257,0.187,0.324l3.133,1.815
		c0.059,0.034,0.123,0.051,0.188,0.051c0.064,0,0.129-0.017,0.188-0.05c0.116-0.067,0.188-0.19,0.188-0.325v-6.273L29.872,30.84z"/>
</g>
<g>
	<path fill="#25303B" d="M60.262,46.076V42.28l2.383,1.381v0.853l0.75-0.492v-0.578c0-0.134-0.071-0.257-0.187-0.324l-3.133-1.816
		c-0.116-0.066-0.258-0.068-0.376,0c-0.116,0.067-0.188,0.19-0.188,0.325v4.938L60.262,46.076z"/>
	<path fill="#25303B" d="M62.645,49.837v5.13l-2.383-1.381v-2.188l-0.75,0.492v1.912c0,0.134,0.071,0.257,0.187,0.324l3.133,1.815
		c0.059,0.034,0.123,0.051,0.188,0.051c0.064,0,0.129-0.017,0.188-0.05c0.116-0.067,0.188-0.19,0.188-0.325v-6.273L62.645,49.837z"
		/>
</g>
<g>
	<path fill="#25303B" d="M22.258,30.507V20.251l2.382,1.381v7.314l0.75-0.492v-7.039c0-0.134-0.071-0.257-0.187-0.324l-3.132-1.815
		c-0.115-0.066-0.257-0.068-0.376,0c-0.116,0.067-0.188,0.19-0.188,0.325v11.399L22.258,30.507z"/>
	<path fill="#25303B" d="M25.168,33.923c0.011-0.005,0.024-0.003,0.035-0.009c0.017-0.01,0.024-0.027,0.039-0.039L25.168,33.923z"/>
</g>
<g>
	<path fill="#25303B" d="M55.032,49.504V39.248l2.382,1.381v7.314l0.75-0.492v-7.039c0-0.134-0.071-0.257-0.187-0.324l-3.132-1.815
		c-0.115-0.066-0.257-0.068-0.376,0c-0.116,0.067-0.188,0.19-0.188,0.325v11.399L55.032,49.504z"/>
	<path fill="#25303B" d="M57.942,52.92c0.011-0.005,0.024-0.003,0.035-0.009c0.017-0.01,0.024-0.027,0.039-0.039L57.942,52.92z"/>
</g>
<path fill="#FFFFFF" d="M50.499,57.798l-0.519,0.34c-0.326,0.213-0.702,0.338-1.089,0.361c-0.794,0.047-1.558-0.338-1.995-1.003
	c-0.313-0.478-0.41-1.033-0.328-1.558c0.019-0.125,0.05-0.247,0.09-0.366L17.727,38.8l-0.521,0.341
	c-0.326,0.213-0.702,0.338-1.089,0.361c-0.794,0.047-1.558-0.338-1.995-1.003c-0.313-0.478-0.41-1.033-0.328-1.558
	c0.019-0.126,0.05-0.249,0.091-0.368L0.004,28.526v17.794l70.494,40.865c6.063-0.859,11.228-4.491,14.195-9.566L50.499,57.798z"/>
<g>
	<path fill="#FCE2E5" d="M26.739,27.571v-4.938c0-0.134,0.071-0.258,0.188-0.325c0.118-0.068,0.26-0.065,0.376,0l3.133,1.816
		c0.115,0.067,0.187,0.19,0.187,0.324v0.578l0.298-0.195v-2.97l-4.48-2.597v8.504L26.739,27.571z"/>
	<path fill="#FCE2E5" d="M30.622,30.348v6.273c0,0.134-0.071,0.258-0.188,0.325c-0.059,0.034-0.123,0.05-0.188,0.05
		c-0.065,0-0.13-0.017-0.188-0.051l-3.133-1.815c-0.115-0.067-0.187-0.19-0.187-0.324v-1.912l-0.3,0.196v9.897l4.48,2.598V30.153
		L30.622,30.348z"/>
</g>
<g>
	<path fill="#FCE2E5" d="M59.512,46.568v-4.938c0-0.134,0.071-0.258,0.188-0.325c0.118-0.068,0.26-0.065,0.376,0l3.133,1.816
		c0.115,0.067,0.187,0.19,0.187,0.324v0.578l0.298-0.195v-2.97l-4.48-2.597v8.504L59.512,46.568z"/>
	<path fill="#FCE2E5" d="M63.395,49.345v6.273c0,0.134-0.071,0.258-0.188,0.325c-0.059,0.034-0.123,0.05-0.188,0.05
		c-0.065,0-0.13-0.017-0.188-0.051l-3.133-1.815c-0.115-0.067-0.187-0.19-0.187-0.324V51.89l-0.3,0.197v9.897l4.48,2.598V49.15
		L63.395,49.345z"/>
</g>
<g>
	<polygon fill="#FCE2E5" points="60.262,51.399 60.262,53.586 62.645,54.967 62.645,49.837 	"/>
	<polygon fill="#FCE2E5" points="62.645,44.514 62.645,43.661 60.262,42.28 60.262,46.076 	"/>
</g>
<polygon fill="#FCE2E5" points="57.414,47.943 57.414,40.629 55.032,39.248 55.032,49.504 "/>
<g>
	<path fill="#FCE2E5" d="M54.282,49.996V38.597c0-0.134,0.071-0.258,0.188-0.325c0.119-0.067,0.261-0.066,0.376,0l3.132,1.815
		c0.115,0.067,0.187,0.19,0.187,0.324v7.039l0.299-0.196v-9.43l-4.481-2.598v14.965L54.282,49.996z"/>
	<path fill="#FCE2E5" d="M58.015,52.872c-0.015,0.012-0.023,0.029-0.039,0.039c-0.011,0.006-0.023,0.004-0.035,0.009l-3.961,2.596
		v3.435l4.481,2.598v-8.97L58.015,52.872z"/>
</g>
<g>
	<polygon fill="#FFFFFF" points="66.097,42.252 64.443,41.293 64.443,43.336 	"/>
	<path fill="#FFFFFF" d="M70.209,44.636c-0.165,0.261-0.382,0.493-0.656,0.673l-1.204,0.789l14.987,8.688
		c0.115,0.066,0.187,0.19,0.187,0.324v12.173c0,0.134-0.071,0.258-0.188,0.325c-0.059,0.033-0.123,0.05-0.188,0.05
		c-0.065,0-0.13-0.017-0.188-0.051l-15.852-9.189c-0.115-0.066-0.187-0.19-0.187-0.324v-11.06l-2.478,1.624v16.357L85.05,76.961
		c1.476-2.756,2.334-5.892,2.334-9.237V54.592L70.209,44.636z"/>
</g>
<g>
	<path fill="#FFFFFF" d="M37.437,25.637c-0.165,0.262-0.382,0.495-0.657,0.675l-1.204,0.789l14.987,8.688
		c0.115,0.066,0.187,0.19,0.187,0.324v12.173c0,0.134-0.071,0.258-0.188,0.325c-0.059,0.033-0.123,0.05-0.188,0.05
		c-0.065,0-0.13-0.017-0.188-0.051l-15.852-9.189c-0.115-0.066-0.187-0.19-0.187-0.324v-11.06l-2.478,1.624v16.355l15.351,8.899
		c0.111-0.142,0.236-0.276,0.385-0.391c0.046-0.035,0.085-0.076,0.133-0.108l4.404-2.886l0.723-0.474l0.566-0.371V34.793
		L37.437,25.637z"/>
	<polygon fill="#FFFFFF" points="33.326,23.254 31.669,22.294 31.669,24.339 	"/>
</g>
<g>
	<polygon fill="#FCE2E5" points="29.872,25.517 29.872,24.665 27.489,23.283 27.489,27.079 	"/>
	<polygon fill="#FCE2E5" points="27.489,32.402 27.489,34.589 29.872,35.97 29.872,30.84 	"/>
</g>
<polygon fill="#FCE2E5" points="24.64,28.946 24.64,21.632 22.258,20.251 22.258,30.507 "/>
<g>
	<path fill="#FCE2E5" d="M21.508,30.999V19.6c0-0.134,0.071-0.258,0.188-0.325c0.119-0.067,0.261-0.066,0.376,0l3.132,1.815
		c0.115,0.067,0.187,0.19,0.187,0.324v7.039l0.299-0.196v-9.43l-4.481-2.598v14.965L21.508,30.999z"/>
	<path fill="#FCE2E5" d="M25.242,33.875c-0.015,0.012-0.023,0.03-0.039,0.039c-0.011,0.006-0.023,0.004-0.035,0.009l-3.961,2.596
		v3.435l4.481,2.598v-8.97L25.242,33.875z"/>
</g>
<g>
	<path fill="#FFFFFF" d="M14.631,35.527c0.046-0.035,0.085-0.076,0.133-0.108l4.404-2.886l0.723-0.474l0.566-0.371V15.794
		L4.88,6.763c-0.487,0.557-0.931,1.15-1.355,1.759l14.259,8.266c0.115,0.066,0.187,0.19,0.187,0.324v12.173
		c0,0.134-0.071,0.258-0.188,0.325c-0.059,0.033-0.123,0.05-0.188,0.05c-0.065,0-0.13-0.017-0.188-0.051L1.556,20.421
		c-0.115-0.066-0.187-0.19-0.187-0.324v-7.58c-0.876,2.213-1.366,4.62-1.366,7.148v7.995l14.244,8.257
		C14.359,35.775,14.483,35.641,14.631,35.527z"/>
	<polygon fill="#FFFFFF" points="18.429,38.34 20.457,39.516 20.457,37.01 	"/>
</g>
<polygon fill="#FFFFFF" points="51.201,57.338 53.231,58.516 53.231,56.007 "/>
</svg>
