<?xml version="1.0" encoding="utf-8"?>
<!-- Generator: Adobe Illustrator 25.4.1, SVG Export Plug-In . SVG Version: 6.00 Build 0)  -->
<svg version="1.1" id="Layer_4" xmlns="http://www.w3.org/2000/svg" xmlns:xlink="http://www.w3.org/1999/xlink" x="0px" y="0px"
	 viewBox="0 0 87.379 87.379" style="enable-background:new 0 0 87.379 87.379;" xml:space="preserve">
<style type="text/css">
	.st0{fill:#25303B;}
	.st1{fill:#FFFFFF;}
	.st2{fill:none;}
	.st3{fill:#DEF0EA;}
	.st4{fill:#92979D;}
	.st5{fill:#FCE2E5;}
	.st6{fill:#EB2132;}
</style>
<g>
	<path class="st0" d="M0,46.316v21.403c0,10.858,8.802,19.66,19.661,19.66h48.059c0.935,0,1.847-0.088,2.747-0.214L0,46.316z"/>
</g>
<path class="st1" d="M64.926,65.292l20.14,11.675c1.473-2.757,2.314-5.904,2.314-9.249V54.586L64.926,41.57V65.292z M66.921,45.921
	c0-0.134,0.071-0.258,0.188-0.325c0.119-0.066,0.261-0.066,0.376,0.001l15.852,9.189c0.115,0.066,0.187,0.19,0.187,0.324v12.173
	c0,0.134-0.071,0.258-0.188,0.325c-0.059,0.033-0.123,0.05-0.188,0.05c-0.065,0-0.13-0.017-0.188-0.051l-15.852-9.189
	c-0.115-0.066-0.187-0.19-0.187-0.324V45.921z"/>
<path class="st1" d="M14.236,12.184L4.858,6.748C4.37,7.306,3.908,7.886,3.485,8.497l10.751,6.232V12.184z"/>
<path class="st1" d="M14.236,27.768L1.552,20.416c-0.115-0.067-0.187-0.19-0.187-0.324v-7.595C0.495,14.718,0,17.129,0,19.66v7.995
	l14.236,8.253V27.768z"/>
<polygon class="st2" points="33.865,26.975 31.484,25.594 31.484,36.9 33.865,38.281 "/>
<path class="st2" d="M30.433,45.297l4.481,2.598V24.172l-4.481-2.598V45.297z M30.734,24.943c0-0.134,0.071-0.258,0.188-0.325
	c0.118-0.067,0.26-0.066,0.376,0l3.132,1.816c0.115,0.067,0.187,0.19,0.187,0.324v12.173c0,0.134-0.071,0.258-0.188,0.325
	c-0.059,0.034-0.123,0.05-0.188,0.05c-0.065,0-0.13-0.017-0.188-0.051L30.92,37.44c-0.115-0.067-0.187-0.19-0.187-0.324V24.943z"/>
<polygon class="st2" points="35.664,27.151 43.66,31.787 43.66,29.242 35.664,24.607 "/>
<path class="st1" d="M2.115,19.875l12.12,7.026V15.595L3.078,9.128c-0.348,0.547-0.668,1.112-0.962,1.695V19.875z"/>
<polygon class="st2" points="18.417,18.02 16.034,16.639 16.034,27.944 18.417,29.326 "/>
<polygon class="st2" points="20.216,39.374 29.683,44.862 29.683,21.139 20.216,15.651 "/>
<path class="st2" d="M14.986,36.342l4.48,2.597V15.217l-4.48-2.597V36.342z M15.284,15.988c0-0.134,0.071-0.258,0.188-0.325
	c0.118-0.067,0.26-0.065,0.376,0l3.133,1.816c0.115,0.067,0.187,0.19,0.187,0.324v12.173c0,0.134-0.071,0.258-0.188,0.325
	c-0.059,0.034-0.123,0.05-0.188,0.05c-0.065,0-0.13-0.017-0.188-0.051l-3.133-1.816c-0.115-0.067-0.187-0.19-0.187-0.324V15.988z"/>
<polygon class="st2" points="82.773,55.327 67.671,46.572 67.671,57.878 82.773,66.633 "/>
<polygon class="st2" points="63.127,43.938 60.745,42.558 60.745,53.864 63.127,55.245 "/>
<path class="st2" d="M59.695,62.26l4.481,2.598V41.135l-4.481-2.598V62.26z M59.995,41.907c0-0.134,0.071-0.258,0.188-0.325
	c0.118-0.067,0.26-0.066,0.376,0l3.132,1.815c0.115,0.067,0.187,0.19,0.187,0.324v12.173c0,0.134-0.071,0.258-0.188,0.325
	c-0.059,0.033-0.123,0.05-0.188,0.05c-0.065,0-0.13-0.017-0.188-0.051l-3.132-1.815c-0.115-0.066-0.187-0.19-0.187-0.324V41.907z"/>
<path class="st0" d="M82.959,67.608c0.059,0.034,0.123,0.051,0.188,0.051c0.064,0,0.129-0.017,0.188-0.05
	c0.116-0.067,0.188-0.191,0.188-0.325V55.111c0-0.134-0.071-0.258-0.187-0.324l-15.852-9.189c-0.115-0.067-0.257-0.067-0.376-0.001
	c-0.116,0.067-0.188,0.191-0.188,0.325v12.173c0,0.134,0.071,0.258,0.187,0.324L82.959,67.608z M67.671,46.572l15.102,8.755v11.307
	l-15.102-8.755V46.572z"/>
<path class="st0" d="M63.314,56.219c0.059,0.034,0.123,0.051,0.188,0.051c0.064,0,0.129-0.017,0.188-0.05
	c0.116-0.067,0.188-0.191,0.188-0.325V43.722c0-0.134-0.071-0.257-0.187-0.324l-3.132-1.815c-0.116-0.066-0.258-0.068-0.376,0
	c-0.116,0.067-0.188,0.19-0.188,0.325v12.173c0,0.134,0.071,0.258,0.187,0.324L63.314,56.219z M60.745,42.558l2.382,1.381v11.306
	l-2.382-1.381V42.558z"/>
<path class="st0" d="M34.052,39.256c0.059,0.034,0.123,0.051,0.188,0.051c0.064,0,0.129-0.017,0.188-0.05
	c0.116-0.067,0.188-0.19,0.188-0.325V26.759c0-0.134-0.071-0.257-0.187-0.324l-3.132-1.816c-0.116-0.066-0.258-0.068-0.376,0
	c-0.116,0.067-0.188,0.19-0.188,0.325v12.173c0,0.134,0.071,0.257,0.187,0.324L34.052,39.256z M31.484,25.594l2.382,1.381v11.306
	L31.484,36.9V25.594z"/>
<path class="st1" d="M14.986,12.619v23.723l4.48,2.597V15.217L14.986,12.619z M19.167,29.976c0,0.134-0.071,0.258-0.188,0.325
	c-0.059,0.034-0.123,0.05-0.188,0.05c-0.065,0-0.13-0.017-0.188-0.051l-3.133-1.816c-0.115-0.067-0.187-0.19-0.187-0.324V15.988
	c0-0.134,0.071-0.258,0.188-0.325c0.118-0.067,0.26-0.065,0.376,0l3.133,1.816c0.115,0.067,0.187,0.19,0.187,0.324V29.976z"/>
<polygon class="st1" points="16.034,27.944 18.417,29.326 18.417,18.02 16.034,16.639 "/>
<path class="st1" d="M30.434,21.575v23.723l4.48,2.597V24.172L30.434,21.575z M34.615,38.932c0,0.134-0.071,0.258-0.188,0.325
	c-0.059,0.034-0.123,0.05-0.188,0.05c-0.065,0-0.13-0.017-0.188-0.051l-3.133-1.816c-0.115-0.067-0.187-0.19-0.187-0.324V24.943
	c0-0.134,0.071-0.258,0.188-0.325c0.118-0.067,0.26-0.065,0.376,0l3.133,1.816c0.115,0.067,0.187,0.19,0.187,0.324V38.932z"/>
<polygon class="st1" points="31.483,36.9 33.865,38.281 33.865,26.975 31.483,25.594 "/>
<path class="st1" d="M59.696,38.538V62.26l4.48,2.597V41.135L59.696,38.538z M63.877,55.895c0,0.134-0.071,0.258-0.188,0.325
	c-0.059,0.034-0.123,0.05-0.188,0.05c-0.065,0-0.13-0.017-0.188-0.051l-3.133-1.816c-0.115-0.067-0.187-0.19-0.187-0.324V41.906
	c0-0.134,0.071-0.258,0.188-0.325c0.118-0.067,0.26-0.065,0.376,0l3.133,1.816c0.115,0.067,0.187,0.19,0.187,0.324V55.895z"/>
<polygon class="st1" points="60.744,53.863 63.127,55.244 63.127,43.938 60.744,42.557 "/>
<path class="st0" d="M15.848,15.663c-0.116-0.066-0.258-0.067-0.376,0c-0.116,0.067-0.188,0.19-0.188,0.325v12.173
	c0,0.134,0.071,0.257,0.187,0.324l3.133,1.816c0.059,0.034,0.123,0.051,0.188,0.051c0.064,0,0.129-0.017,0.188-0.05
	c0.116-0.067,0.188-0.19,0.188-0.325V17.804c0-0.134-0.071-0.257-0.187-0.324L15.848,15.663z M18.417,29.326l-2.383-1.381V16.639
	l2.383,1.381V29.326z"/>
<polygon class="st3" points="29.683,44.862 20.216,39.374 20.216,15.651 29.683,21.139 "/>
<polygon class="st1" points="67.671,46.572 82.773,55.327 82.773,66.633 67.671,57.878 "/>
<polygon class="st1" points="43.66,31.787 35.664,27.151 35.664,24.607 43.66,29.242 "/>
<polygon class="st1" points="36.017,18.916 36.017,15.538 33.282,17.331 "/>
<polygon class="st1" points="24.27,12.106 28.97,9.025 25.899,7.211 21.172,10.31 "/>
<polygon class="st1" points="65.304,35.895 65.304,32.516 62.569,34.309 "/>
<polygon class="st1" points="20.833,9.635 25.513,6.567 25.513,4.473 25.513,2.152 20.833,5.221 "/>
<polygon class="st1" points="26.263,4.256 39.371,11.855 41.449,10.493 41.449,1.753 38.423,-0.001 26.263,-0.001 26.263,1.458 "/>
<polygon class="st1" points="25.513,1.255 25.513,-0.001 22.708,-0.001 22.708,3.095 "/>
<polygon class="st1" points="49.77,26.41 54.451,23.342 54.451,21.248 54.451,18.928 49.77,21.996 "/>
<polygon class="st1" points="53.208,28.881 57.908,25.8 54.837,23.986 50.109,27.085 "/>
<g>
	<path class="st1" d="M84.688,77.615L0,28.521v17.794l70.494,40.865C76.556,86.322,81.721,82.69,84.688,77.615z"/>
</g>
<path class="st0" d="M56.621,5.882c0.324-0.212,0.7-0.337,1.088-0.36c0.794-0.047,1.558,0.338,1.994,1.002
	c0.343,0.525,0.433,1.141,0.305,1.709l25.569,14.822l0.332-0.218c0.324-0.212,0.7-0.337,1.088-0.36
	c0.13-0.008,0.256,0.014,0.384,0.028V19.66c0-10.858-8.802-19.66-19.66-19.66H45.803l10.504,6.089L56.621,5.882z"/>
<polygon class="st2" points="25.513,4.473 25.513,2.152 20.833,5.221 20.833,9.635 25.513,6.567 "/>
<polygon class="st2" points="21.172,10.31 24.27,12.106 28.97,9.025 25.899,7.211 "/>
<polygon class="st2" points="36.017,18.916 36.017,15.538 33.282,17.331 "/>
<polygon class="st2" points="50.109,27.085 53.208,28.881 57.908,25.8 54.837,23.986 "/>
<polygon class="st2" points="65.304,35.895 65.304,32.516 62.569,34.309 "/>
<polygon class="st2" points="54.451,21.248 54.451,18.928 49.77,21.996 49.77,26.41 54.451,23.342 "/>
<path class="st4" d="M82.455,45.837l-4.48-2.598v-9.879l-0.75,0.492v8.952l-4.481-2.598V36.79l-0.75,0.492v3.141
	c0,0.134,0.071,0.257,0.187,0.324l10.462,6.065c0.059,0.034,0.123,0.051,0.188,0.051c0.064,0,0.129-0.017,0.188-0.05
	c0.116-0.067,0.188-0.191,0.188-0.325V29.933l-0.75,0.492V45.837z"/>
<path class="st4" d="M76.739,21.344l-3.132-1.815c-0.115-0.066-0.257-0.068-0.376,0c-0.116,0.067-0.188,0.19-0.188,0.325V31.27
	l0.75-0.492V20.504l2.382,1.381v7.332l0.75-0.492v-7.057C76.926,21.535,76.854,21.411,76.739,21.344z"/>
<path class="st4" d="M81.407,36.223l-2.383-1.381v-2.169l-0.75,0.492v1.894c0,0.134,0.071,0.257,0.187,0.324l3.133,1.815
	c0.059,0.034,0.123,0.051,0.188,0.051c0.064,0,0.129-0.017,0.188-0.05c0.116-0.067,0.188-0.19,0.188-0.325v-6.255l-0.75,0.492
	V36.223z"/>
<path class="st4" d="M79.024,23.536l2.383,1.381v0.871l0.75-0.492v-0.596c0-0.134-0.071-0.257-0.187-0.324l-3.133-1.816
	c-0.116-0.066-0.258-0.068-0.376,0c-0.116,0.067-0.188,0.19-0.188,0.325v4.956l0.75-0.492V23.536z"/>
<polygon class="st2" points="50.109,27.085 53.208,28.881 57.908,25.8 54.837,23.986 "/>
<polygon class="st2" points="54.451,21.248 54.451,18.928 49.77,21.996 49.77,26.41 54.451,23.342 "/>
<polygon class="st2" points="65.304,35.895 65.304,32.516 62.569,34.309 "/>
<polygon class="st4" points="43.489,-0.001 42.739,-0.001 42.739,14.981 43.489,14.489 "/>
<path class="st4" d="M52.716,7.418l-3.132-1.816c-0.115-0.066-0.257-0.068-0.376,0c-0.116,0.067-0.188,0.19-0.188,0.325v4.938
	l0.75-0.492V6.577l2.382,1.381v0.853l0.75-0.492V7.742C52.902,7.608,52.831,7.485,52.716,7.418z"/>
<path class="st4" d="M60.007,8.234c-0.056,0.246-0.154,0.482-0.291,0.698l12.276,7.117v15.91l0.75-0.492V16.483l4.481,2.598v9.448
	l0.75-0.492v-8.522l4.48,2.597v2.988l0.75-0.492v-2.062l1.669,0.968l0.702-0.46L60.007,8.234z"/>
<path class="st4" d="M70.736,18.731v8.74l-2.078,1.362l-13.458-7.801v-2.798v-6.098l-0.75,0.492v5.404l-0.5,0.328v-5.404
	l-0.75,0.492v5.404l-0.299,0.196v-5.404l-0.75,0.492v5.13l-2.382-1.381v-2.188l-0.75,0.492V18.1c0,0.134,0.071,0.257,0.187,0.324
	l2.465,1.429l-2.482,1.627c-0.105,0.069-0.169,0.187-0.169,0.313v4.661l-0.301-0.174v-9.896l-0.75,0.492v8.97l-4.48-2.597v-3.436
	l-0.75,0.492v3.16c0,0.016,0.007,0.029,0.009,0.044c0.003,0.026,0.007,0.052,0.016,0.077c0.008,0.022,0.018,0.042,0.03,0.062
	c0.012,0.021,0.024,0.041,0.041,0.06c0.017,0.019,0.036,0.034,0.056,0.05c0.013,0.01,0.021,0.023,0.035,0.031l6.281,3.641
	l3.824,2.217c0.059,0.034,0.124,0.051,0.188,0.051c0.071,0,0.144-0.021,0.206-0.062l5.397-3.539
	c0.107-0.071,0.172-0.193,0.169-0.322s-0.073-0.248-0.185-0.314l-3.606-2.13v-1.432l12.756,7.394l-2.483,1.628
	c-0.105,0.069-0.169,0.187-0.169,0.313v0.385l-3.655,2.397c-0.108,0.071-0.173,0.194-0.169,0.324s0.074,0.249,0.187,0.314
	l3.781,2.192c0.042-0.127,0.094-0.251,0.158-0.371c0.144-0.266,0.342-0.503,0.593-0.697c0.045-0.034,0.083-0.074,0.131-0.106
	l-0.275,0.18v-4.415l2.822-1.849c0,0,0,0,0,0l1.859-1.219v4.414l0.723-0.474l0.027-0.018v-4.617v-9.159
	c0-0.134-0.071-0.257-0.187-0.324l-13.446-7.794l-0.702,0.46L70.736,18.731z M49.77,21.996l4.681-3.068v2.32v2.094L49.77,26.41
	V21.996z M57.908,25.8l-4.7,3.082l-3.099-1.796l4.728-3.1L57.908,25.8z M65.304,35.895l-2.735-1.586l2.735-1.793V35.895z"/>
<polygon class="st4" points="48.719,2.557 53.201,5.155 53.201,8.124 53.951,7.632 53.951,5.59 55.605,6.548 56.307,6.088 
	45.803,-0.001 44.308,-0.001 47.969,2.122 47.969,11.553 48.719,11.061 "/>
<path class="st4" d="M44.539,3.545l2.382,1.381v7.314l0.75-0.492V4.709c0-0.134-0.071-0.257-0.187-0.324L44.352,2.57
	c-0.116-0.067-0.258-0.068-0.376,0c-0.116,0.067-0.188,0.19-0.188,0.325v11.399l0.75-0.492V3.545z"/>
<path class="st4" d="M36.912,18.821c0.046-0.035,0.085-0.076,0.133-0.108l-0.278,0.163v-4.417l4.682-3.068v4.436l0.723-0.474
	l0.027-0.018V13.71v-3.015V1.538c0-0.134-0.071-0.257-0.187-0.324l-2.094-1.214h-1.495l3.026,1.754v8.74l-2.078,1.362L26.263,4.256
	V1.458v-1.459h-0.75v1.256l-2.806,1.839v-3.095h-0.75v3.587l-1.706,1.119c-0.105,0.069-0.169,0.187-0.169,0.313v5.304
	c0,0.025,0.002,0.051,0.006,0.075c0.002,0.007,0.001,0.001,0.001,0.001c0.003,0.018,0.008,0.035,0.014,0.052
	c0.026,0.078,0.078,0.146,0.151,0.194c0,0,0.001,0,0.001,0c0.005,0.003,0.011,0.006,0.016,0.009l3.822,2.216
	c0.059,0.034,0.124,0.051,0.188,0.051c0.071,0,0.144-0.021,0.206-0.062l5.397-3.539c0.107-0.071,0.172-0.193,0.169-0.322
	s-0.073-0.248-0.185-0.314l-3.606-2.13V5.123l12.406,7.192l-2.483,1.627c-0.105,0.069-0.169,0.187-0.169,0.313v0.385l-3.655,2.397
	c-0.108,0.071-0.173,0.194-0.169,0.324s0.074,0.249,0.187,0.314l3.785,2.194c0.041-0.121,0.092-0.238,0.154-0.352
	C36.462,19.252,36.661,19.015,36.912,18.821z M20.833,5.221l4.681-3.069v2.32v2.094l-4.681,3.068V5.221z M28.97,9.025l-4.7,3.082
	l-3.099-1.796l4.728-3.099L28.97,9.025z M36.017,18.916l-2.735-1.586l2.735-1.793V18.916z"/>
<g>
	<polygon class="st5" points="81.407,25.788 81.407,24.917 79.024,23.536 79.024,27.35 	"/>
	<polygon class="st5" points="79.024,32.673 79.024,34.842 81.407,36.223 81.407,31.111 	"/>
</g>
<g>
	<path class="st5" d="M78.274,27.842v-4.956c0-0.134,0.071-0.258,0.188-0.325c0.118-0.068,0.26-0.065,0.376,0l3.133,1.816
		c0.115,0.067,0.187,0.19,0.187,0.324v0.596l0.298-0.195v-2.988l-4.48-2.597v8.522L78.274,27.842z"/>
	<path class="st5" d="M82.157,30.619v6.255c0,0.134-0.071,0.258-0.188,0.325c-0.059,0.034-0.123,0.05-0.188,0.05
		c-0.065,0-0.13-0.017-0.188-0.051l-3.133-1.815c-0.115-0.067-0.187-0.19-0.187-0.324v-1.894l-0.3,0.197v9.879l4.48,2.598V30.424
		L82.157,30.619z"/>
</g>
<g>
	<path class="st5" d="M73.044,31.27V19.853c0-0.134,0.071-0.258,0.188-0.325c0.119-0.067,0.261-0.066,0.376,0l3.132,1.815
		c0.115,0.067,0.187,0.19,0.187,0.324v7.057l0.299-0.196v-9.448l-4.481-2.598v14.983L73.044,31.27z"/>
	<polygon class="st5" points="72.743,36.79 72.743,40.206 77.224,42.805 77.224,33.852 	"/>
</g>
<polygon class="st5" points="76.176,29.217 76.176,21.885 73.794,20.504 73.794,30.778 "/>
<polygon class="st1" points="66.332,35.668 70.736,32.782 70.736,28.368 68.877,29.587 68.876,29.587 66.054,31.436 66.054,35.851 
	66.329,35.671 "/>
<polygon class="st1" points="83.201,22.548 83.201,24.613 84.872,23.517 "/>
<polygon class="st1" points="53.947,18.358 54.447,18.031 54.447,12.63 53.947,12.957 "/>
<path class="st1" d="M59.06,9.606l-1.208,0.792l13.443,7.793c0.115,0.067,0.187,0.19,0.187,0.324v9.159v4.62l0.507-0.332V16.049
	L59.716,8.934C59.551,9.194,59.334,9.426,59.06,9.606z"/>
<polygon class="st1" points="53.947,5.59 53.947,7.635 55.603,6.55 "/>
<path class="st1" d="M83.201,29.935v16.553c0,0.134-0.071,0.258-0.188,0.325c-0.059,0.033-0.123,0.05-0.188,0.05
	c-0.065,0-0.13-0.017-0.188-0.051l-10.462-6.065c-0.115-0.067-0.187-0.19-0.187-0.324v-3.139l-3.215,2.108
	c-0.326,0.213-0.702,0.338-1.089,0.361c-0.794,0.047-1.558-0.338-1.995-1.003c-0.313-0.478-0.41-1.033-0.328-1.558
	c0.018-0.118,0.048-0.233,0.085-0.345l-3.784-2.194c-0.112-0.065-0.183-0.184-0.187-0.314s0.061-0.252,0.169-0.324l3.655-2.397
	v-0.385c0-0.126,0.063-0.244,0.169-0.313l2.483-1.628l-12.756-7.394v1.432l3.606,2.13c0.111,0.066,0.182,0.185,0.185,0.314
	s-0.062,0.251-0.169,0.322l-5.397,3.539c-0.062,0.041-0.135,0.062-0.206,0.062c-0.064,0-0.13-0.017-0.188-0.051l-3.824-2.217
	l-6.281-3.641c-0.014-0.008-0.022-0.021-0.035-0.031c-0.02-0.016-0.04-0.031-0.056-0.05c-0.016-0.019-0.028-0.039-0.041-0.06
	c-0.012-0.02-0.022-0.04-0.03-0.062c-0.009-0.025-0.012-0.051-0.016-0.077c-0.002-0.015-0.009-0.029-0.009-0.044v-3.157
	l-3.249,2.129c-0.326,0.213-0.702,0.338-1.089,0.361c-0.794,0.047-1.558-0.338-1.995-1.003c-0.313-0.478-0.41-1.033-0.328-1.558
	c0.019-0.124,0.05-0.246,0.09-0.364l-3.789-2.196c-0.112-0.065-0.183-0.184-0.187-0.314s0.061-0.252,0.169-0.324l3.655-2.397v-0.385
	c0-0.126,0.063-0.244,0.169-0.313l2.483-1.627L26.259,5.123v1.432l3.606,2.13c0.111,0.066,0.182,0.185,0.185,0.314
	s-0.062,0.251-0.169,0.322l-5.397,3.539c-0.062,0.041-0.135,0.062-0.206,0.062c-0.064,0-0.13-0.017-0.188-0.051l-3.822-2.216
	c-0.005-0.003-0.011-0.006-0.016-0.009c0,0-0.001,0-0.001,0c-0.073-0.047-0.125-0.116-0.151-0.194
	c-0.006-0.017-0.011-0.035-0.014-0.052c0,0,0.001,0.006-0.001-0.001c-0.004-0.024-0.006-0.05-0.006-0.075V5.018
	c0-0.126,0.063-0.244,0.169-0.313l1.706-1.119v-3.587h-2.298c-5.634,0-10.694,2.388-14.278,6.186l81.997,47.534v-26.52
	L83.201,29.935z"/>
<path class="st1" d="M42.735-0.001h-2.821l2.094,1.214c0.115,0.067,0.187,0.19,0.187,0.324v9.158v3.015v1.627l0.54-0.354V-0.001z"/>
<g>
	<path class="st5" d="M49.02,10.864V5.926c0-0.134,0.071-0.258,0.188-0.325c0.119-0.067,0.261-0.066,0.376,0l3.132,1.816
		c0.115,0.067,0.187,0.19,0.187,0.324V8.32l0.299-0.196V5.155l-4.481-2.598v8.504L49.02,10.864z"/>
	<polygon class="st5" points="52.902,13.642 52.902,19.046 53.201,18.85 53.201,13.446 	"/>
	<path class="st5" d="M49.02,18.1v-1.913l-0.301,0.197v9.896l0.301,0.174v-4.661c0-0.126,0.063-0.244,0.169-0.313l2.482-1.627
		l-2.465-1.429C49.092,18.357,49.02,18.233,49.02,18.1z"/>
</g>
<g>
	<polygon class="st5" points="52.152,8.811 52.152,7.958 49.77,6.577 49.77,10.372 	"/>
	<polygon class="st5" points="49.77,15.695 49.77,17.883 52.152,19.264 52.152,14.134 	"/>
</g>
<g>
	<path class="st5" d="M43.789,14.293V2.894c0-0.134,0.071-0.258,0.188-0.325c0.118-0.068,0.26-0.066,0.376,0l3.132,1.815
		c0.115,0.067,0.187,0.19,0.187,0.324v7.039l0.299-0.196v-9.43l-3.662-2.123h-0.819v14.49L43.789,14.293z"/>
	<path class="st5" d="M47.522,17.168c-0.015,0.012-0.023,0.03-0.039,0.039c-0.011,0.006-0.023,0.004-0.035,0.009l-3.96,2.595v3.436
		l4.48,2.597v-8.97L47.522,17.168z"/>
</g>
<polygon class="st5" points="46.921,12.24 46.921,4.926 44.539,3.545 44.539,13.801 "/>
<polygon class="st1" points="41.449,11.39 36.767,14.458 36.767,18.875 41.449,15.826 "/>
<polygon class="st1" points="57.152,10.857 55.201,12.135 55.201,18.233 55.201,21.032 68.659,28.833 70.736,27.471 70.736,18.731 
	"/>
<path class="st6" d="M57.753,6.271c-0.25,0.015-0.498,0.093-0.721,0.239L37.456,19.34c-0.681,0.446-0.87,1.361-0.424,2.043
	c0.3,0.458,0.812,0.695,1.322,0.665c0.25-0.015,0.497-0.094,0.722-0.24L58.649,8.979c0.682-0.447,0.872-1.362,0.425-2.044
	C58.775,6.477,58.263,6.241,57.753,6.271z"/>
<path class="st1" d="M59.702,6.525c-0.436-0.664-1.2-1.049-1.994-1.002c-0.387,0.023-0.764,0.147-1.088,0.36l-14.449,9.47
	l-0.723,0.474l-4.404,2.886c-0.049,0.032-0.088,0.073-0.133,0.108c-0.251,0.194-0.45,0.431-0.593,0.697
	c-0.122,0.226-0.205,0.467-0.244,0.718c-0.081,0.525,0.015,1.08,0.328,1.558c0.437,0.665,1.201,1.05,1.995,1.003
	c0.386-0.023,0.763-0.148,1.089-0.361L59.06,9.606C60.087,8.933,60.374,7.552,59.702,6.525z M58.649,8.979L39.076,21.808
	c-0.225,0.147-0.473,0.225-0.722,0.24c-0.51,0.03-1.022-0.207-1.322-0.665c-0.446-0.682-0.257-1.597,0.424-2.043L57.032,6.51
	c0.223-0.146,0.472-0.224,0.721-0.239c0.51-0.03,1.022,0.206,1.322,0.664C59.521,7.617,59.331,8.532,58.649,8.979z"/>
<path class="st6" d="M87.04,23.227c-0.25,0.015-0.498,0.093-0.721,0.239l-19.576,12.83c-0.681,0.446-0.87,1.361-0.424,2.043
	c0.3,0.458,0.811,0.695,1.322,0.665c0.25-0.015,0.497-0.094,0.722-0.24L87.38,26.3v-3.049C87.268,23.232,87.154,23.22,87.04,23.227z
	"/>
<path class="st1" d="M68.363,38.764c-0.225,0.147-0.473,0.225-0.722,0.24c-0.51,0.03-1.022-0.207-1.322-0.665
	c-0.446-0.682-0.257-1.597,0.424-2.043l19.576-12.83c0.223-0.146,0.472-0.224,0.721-0.239c0.114-0.007,0.228,0.004,0.339,0.024
	v-0.744c-0.127-0.015-0.254-0.036-0.384-0.028c-0.387,0.023-0.764,0.147-1.088,0.36l-14.449,9.47l-0.723,0.474l-4.404,2.886
	c-0.049,0.032-0.088,0.073-0.133,0.108c-0.251,0.194-0.45,0.431-0.593,0.697c-0.122,0.226-0.205,0.467-0.244,0.718
	c-0.081,0.525,0.015,1.08,0.328,1.558c0.437,0.665,1.201,1.05,1.995,1.003c0.386-0.023,0.763-0.148,1.089-0.361L87.38,27.196V26.3
	L68.363,38.764z"/>
<polygon class="st3" points="58.372,48.855 58.945,52.565 58.945,45.177 58.372,44.652 "/>
<g>
	<path class="st0" d="M56.692,41.451c0.42,0,0.874-0.07,1.17-0.357c0.289-0.298,0.358-0.751,0.358-1.172
		c0-0.42-0.069-0.874-0.358-1.17c-0.296-0.289-0.75-0.358-1.17-0.358c-0.421,0-0.875,0.069-1.172,0.358
		c-0.287,0.296-0.357,0.75-0.357,1.17c0,0.421,0.07,0.874,0.357,1.172C55.817,41.381,56.271,41.451,56.692,41.451z"/>
	<path class="st0" d="M58.945,52.565l-0.572-3.71v-4.203l0.572,0.525v-1.867l-0.319-0.293l-0.988-0.906
		c-0.109-0.099-0.233-0.175-0.369-0.229c-0.137-0.053-0.281-0.08-0.427-0.08h-0.03c-0.302,0-0.605,0.071-0.875,0.204l-0.123,0.06
		c-0.4,0.198-0.725,0.528-0.915,0.932l-0.488,1.033c-0.002,0.005-0.005,0.01-0.007,0.015l-0.599,1.357l-1.671,0.948l-0.25,0.143
		c-0.165,0.093-0.327,0.22-0.38,0.399c-0.047,0.18,0.026,0.373,0.12,0.538c0.093,0.165,0.221,0.327,0.4,0.379
		c0.18,0.047,0.374-0.027,0.538-0.119l0.412-0.234l0.001-0.001l1.644-0.932c0.088-0.051,0.167-0.115,0.236-0.19
		c0.069-0.076,0.125-0.162,0.167-0.255l0.029-0.068l-0.286,11.601c-0.006,0.237,0.027,0.493,0.184,0.664
		c0.164,0.166,0.417,0.211,0.654,0.217c0.236,0.018,0.494-0.002,0.673-0.151c0.173-0.154,0.232-0.405,0.25-0.641l0.319-4.2v-1.744
		l0.287,1.029l0.15,0.536c0.033,0.108,0.06,0.216,0.091,0.325l0.004,0.024l1.132,3.364c0.076,0.225,0.194,0.454,0.4,0.561
		c0.011,0.005,0.025,0.003,0.036,0.007V52.565z"/>
</g>
<path class="st1" d="M49.15,45.44h-4.052l0.113-0.113c0.246-0.246,0.381-0.572,0.38-0.919c0-0.347-0.136-0.672-0.38-0.914
	l-0.39-0.39c-0.245-0.245-0.57-0.38-0.917-0.38c-0.001,0-0.002,0-0.003,0c-0.347,0-0.672,0.136-0.913,0.38l-3.941,3.982l3.94,3.897
	c0.244,0.245,0.569,0.38,0.917,0.38c0.346,0,0.671-0.134,0.918-0.38l0.388-0.389c0.245-0.244,0.381-0.569,0.381-0.916
	c0.001-0.348-0.135-0.674-0.381-0.92l-0.111-0.111h4.051c0.726,0,1.316-0.591,1.316-1.317v-0.572
	C50.466,46.031,49.875,45.44,49.15,45.44z M49.716,47.33c0,0.313-0.254,0.567-0.567,0.567l-4.501,0c0,0-1.265,0.004-1.544-0.053
	c0.042,0.023,0.722,0.592,1.168,1.039l0.409,0.408c0.214,0.214,0.214,0.56,0,0.773l-0.39,0.391c-0.214,0.213-0.56,0.213-0.773,0
	l-3.411-3.411l3.411-3.409c0.213-0.214,0.559-0.214,0.773,0l0.39,0.39c0.214,0.213,0.214,0.559,0,0.773l-0.409,0.408
	c-0.446,0.446-1.126,1.015-1.168,1.039c0.279-0.058,1.544-0.053,1.544-0.053l4.501,0c0.313,0,0.567,0.254,0.567,0.568V47.33z"/>
<path class="st0" d="M49.716,47.33c0,0.313-0.254,0.567-0.567,0.567l-4.501,0c0,0-1.265,0.004-1.544-0.053
	c0.042,0.023,0.722,0.592,1.168,1.039l0.409,0.408c0.214,0.214,0.214,0.56,0,0.773l-0.39,0.391c-0.214,0.213-0.56,0.213-0.773,0
	l-3.411-3.411l3.411-3.41c0.213-0.214,0.559-0.214,0.773,0l0.39,0.39c0.214,0.213,0.214,0.559,0,0.773l-0.409,0.408
	c-0.446,0.446-1.126,1.015-1.168,1.039c0.279-0.058,1.544-0.053,1.544-0.053l4.501,0c0.313,0,0.567,0.254,0.567,0.568V47.33z"/>
<path class="st3" d="M51.883,46.494l0.25-0.143l1.671-0.948l0.599-1.357c0.002-0.005,0.005-0.01,0.007-0.015l0.488-1.033
	c0.19-0.404,0.515-0.734,0.915-0.932l0.123-0.06c0.27-0.133,0.573-0.204,0.875-0.204h0.03c0.146,0,0.29,0.027,0.427,0.08
	c0.136,0.054,0.26,0.13,0.369,0.229l0.988,0.906l0.319,0.293v-5.207l-9.303-5.393v12.83c0.482,0.196,0.824,0.666,0.824,1.218v0.572
	c0,0.552-0.342,1.022-0.824,1.218v7.885l9.303,5.393v-4.222c-0.012-0.005-0.025-0.002-0.036-0.007
	c-0.206-0.107-0.324-0.336-0.4-0.561l-1.132-3.364l-0.004-0.024c-0.031-0.109-0.058-0.217-0.091-0.325l-0.15-0.536l-0.287-1.029
	v1.744l-0.319,4.2c-0.018,0.236-0.077,0.487-0.25,0.641c-0.179,0.149-0.437,0.169-0.673,0.151c-0.237-0.006-0.49-0.051-0.654-0.217
	c-0.157-0.171-0.19-0.427-0.184-0.664l0.286-11.601l-0.029,0.068c-0.042,0.093-0.098,0.179-0.167,0.255
	c-0.069,0.075-0.148,0.139-0.236,0.19l-1.644,0.932l-0.001,0.001l-0.412,0.234c-0.164,0.092-0.358,0.166-0.538,0.119
	c-0.179-0.052-0.307-0.214-0.4-0.379c-0.094-0.165-0.167-0.358-0.12-0.538C51.556,46.714,51.718,46.587,51.883,46.494z
	 M55.52,38.752c0.297-0.289,0.751-0.358,1.172-0.358c0.42,0,0.874,0.069,1.17,0.358c0.289,0.296,0.358,0.75,0.358,1.17
	c0,0.421-0.069,0.874-0.358,1.172c-0.296,0.287-0.75,0.357-1.17,0.357c-0.421,0-0.875-0.07-1.172-0.357
	c-0.287-0.298-0.357-0.751-0.357-1.172C55.163,39.502,55.233,39.048,55.52,38.752z"/>
<path class="st0" d="M87.38,54.586v-0.867L5.374,6.18C5.198,6.366,5.026,6.555,4.858,6.748l9.378,5.436v2.544L3.485,8.497
	C3.343,8.703,3.212,8.916,3.078,9.128l11.158,6.468v11.306l-12.12-7.026v-9.053c-0.275,0.545-0.526,1.102-0.75,1.674v7.595
	c0,0.134,0.071,0.257,0.187,0.324l12.684,7.352v8.139L0,27.654v0.867l84.688,49.094c0.126-0.216,0.26-0.427,0.378-0.648
	l-20.14-11.675V41.57L87.38,54.586z M35.664,24.607l7.996,4.635v2.544l-7.996-4.635V24.607z M19.466,38.939l-4.48-2.597V12.619
	l4.48,2.597V38.939z M29.683,44.862l-9.467-5.488V15.651l9.467,5.488V44.862z M34.914,47.895l-4.481-2.598V21.574l4.481,2.598
	V47.895z M58.945,61.825l-9.303-5.393v-7.885c-0.152,0.062-0.318,0.1-0.492,0.1h-0.258v7.35l-4.481-2.598v-2.141
	c-0.158,0.067-0.329,0.104-0.506,0.104c-0.085,0-0.162-0.032-0.244-0.048v1.65l-7.996-4.635v-8.138l6.486,3.76l0.545-0.551
	l-7.031-4.076V28.018l7.996,4.635v10.118c0.081-0.016,0.157-0.048,0.241-0.048c0.001,0,0.002,0,0.003,0
	c0.177,0,0.348,0.037,0.506,0.104V29.677l4.481,2.598V45.44h0.258c0.174,0,0.34,0.038,0.492,0.1v-12.83l9.303,5.393V61.825z
	 M64.176,64.858l-4.481-2.598V38.537l4.481,2.598V64.858z"/>
<g>
	<path class="st1" d="M44.71,43.029v-9.983c0-0.134,0.071-0.258,0.188-0.325c0.118-0.067,0.26-0.065,0.376,0l3.133,1.816
		c0.115,0.067,0.187,0.19,0.187,0.324V45.44h0.299V32.275l-4.48-2.597v13.151C44.521,42.875,44.616,42.952,44.71,43.029z"/>
	<path class="st1" d="M45.099,48.647l0.111,0.111c0.246,0.246,0.382,0.572,0.381,0.92c0,0.347-0.136,0.672-0.381,0.916l-0.388,0.389
		c-0.12,0.12-0.26,0.211-0.411,0.275V53.4l4.48,2.597v-7.35H45.099z"/>
</g>
<g>
	<path class="st0" d="M44.822,43.104l0.39,0.39c0.108,0.107,0.187,0.236,0.25,0.371V33.697l2.382,1.381V45.44h0.75V34.862
		c0-0.134-0.071-0.257-0.187-0.324l-3.132-1.815c-0.115-0.067-0.257-0.068-0.376,0c-0.116,0.067-0.188,0.19-0.188,0.325v9.983
		C44.746,43.058,44.789,43.071,44.822,43.104z"/>
	<path class="st0" d="M45.211,45.327l-0.113,0.113h1.116l-0.753-0.436v-0.049C45.398,45.089,45.32,45.218,45.211,45.327z"/>
</g>
<path class="st1" d="M45.591,44.407c0.001,0.194-0.051,0.377-0.131,0.548v0.047l0.754,0.437h1.629V35.078l-2.383-1.381v10.166
	C45.54,44.032,45.591,44.214,45.591,44.407z"/>
<path class="st1" d="M42.988,50.983l-3.94-3.897l3.103-3.135l-6.486-3.76v8.138l7.996,4.635v-1.65
	C43.409,51.266,43.172,51.168,42.988,50.983z"/>
<path class="st1" d="M42.989,43.104c0.182-0.184,0.42-0.283,0.672-0.332V32.653l-7.996-4.635v11.306l7.031,4.076L42.989,43.104z"/>
</svg>
