<?xml version="1.0" encoding="utf-8"?>
<!-- Generator: Adobe Illustrator 25.4.1, SVG Export Plug-In . SVG Version: 6.00 Build 0)  -->
<svg version="1.1" id="Layer_1" xmlns="http://www.w3.org/2000/svg" xmlns:xlink="http://www.w3.org/1999/xlink" x="0px" y="0px"
	 viewBox="0 0 283.465 283.465" enable-background="new 0 0 283.465 283.465" xml:space="preserve">
<g>
	<path fill="#64B5E5" d="M219.686,283.465H63.78C28.556,283.465,0,254.91,0,219.685V63.78C0,28.555,28.556,0,63.78,0h155.906
		c35.224,0,63.779,28.555,63.779,63.78v155.905C283.465,254.91,254.91,283.465,219.686,283.465 M265.04,219.685V63.78
		c0-25.049-20.306-45.355-45.354-45.355H63.78c-25.049,0-45.354,20.306-45.354,45.355v155.905c0,25.049,20.305,45.354,45.354,45.354
		h155.906C244.734,265.039,265.04,244.734,265.04,219.685"/>
	<g>
		<path fill="#FFFFFF" d="M202.083,119.774c-0.051-2.525-0.476-5.11-0.886-7.609l-0.1-0.603c-1.151-5.431-3.047-10.669-5.624-15.523
			c-2.679-4.826-6.02-9.262-9.922-13.168c-3.816-3.753-8.303-7.021-13.329-9.707c-4.57-2.437-9.828-4.252-15.629-5.395
			c-1.347-0.22-2.729-0.429-4.113-0.62c-0.985-0.113-2.033-0.163-3.046-0.211l-3.127-0.135l-44.418,0.001
			c-6.294,0-11.415,5.121-11.415,11.416v131.969c0,6.295,5.122,11.417,11.417,11.417h12.36c6.296,0,11.418-5.122,11.418-11.418
			v-36.659l26.179-0.019c1.429-0.052,2.897-0.128,4.362-0.226c5.781-0.579,11.388-2.118,16.631-4.569
			c5.362-2.51,10.127-5.814,14.161-9.821c4.127-4.087,7.506-8.801,10.043-14.011c2.602-5.356,4.227-10.937,4.83-16.585
			c0.198-2.205,0.438-5.5,0.21-8.467L202.083,119.774z M166.898,124.387v0.001c-0.163,1.658-0.65,3.318-1.489,5.075
			c-0.788,1.614-1.826,3.072-3.089,4.341c-1.181,1.197-2.66,2.217-4.393,3.03c-1.59,0.736-3.297,1.211-5.076,1.415l-0.059,0.007
			l-0.06,0c-0.389,0-0.776,0.017-1.165,0.055l-0.598,0.023h-25.301v-36.335h20.677l0.83,0.062c0.213,0.02,0.414,0.023,0.614,0.028
			c0.301,0.006,0.601,0.015,0.896,0.051c0.521,0.099,0.976,0.171,1.433,0.226c1.849,0.403,3.896,0.941,5.811,1.997
			c1.966,1.093,3.574,2.263,4.92,3.579c1.426,1.471,2.655,3.099,3.673,4.858c0.912,1.788,1.6,3.689,2.069,5.698
			C166.944,120.503,167.058,122.738,166.898,124.387z"/>
	</g>
</g>
</svg>
