<?xml version="1.0" encoding="utf-8"?>
<!-- Generator: Adobe Illustrator 25.4.1, SVG Export Plug-In . SVG Version: 6.00 Build 0)  -->
<svg version="1.1" id="Layer_1" xmlns="http://www.w3.org/2000/svg" xmlns:xlink="http://www.w3.org/1999/xlink" x="0px" y="0px"
	 viewBox="0 0 283.465 283.465" enable-background="new 0 0 283.465 283.465" xml:space="preserve">
<g>
	<path fill="#64B5E5" d="M219.686,283.465H63.78C28.556,283.465,0,254.91,0,219.685V63.78C0,28.555,28.556,0,63.78,0h155.906
		c35.224,0,63.779,28.555,63.779,63.78v155.905C283.465,254.91,254.91,283.465,219.686,283.465 M265.04,219.685V63.78
		c0-25.049-20.306-45.355-45.354-45.355H63.78c-25.049,0-45.354,20.306-45.354,45.355v155.905c0,25.049,20.305,45.354,45.354,45.354
		h155.906C244.734,265.039,265.04,244.734,265.04,219.685"/>
	<path fill="#25303B" d="M203.083,119.754c-0.057-2.799-0.545-5.58-0.998-8.353c-1.168-5.512-3.088-10.858-5.729-15.831
		c-2.73-4.921-6.132-9.437-10.098-13.406c-4.002-3.936-8.607-7.233-13.564-9.882c-4.971-2.651-10.394-4.408-15.907-5.494
		c-1.387-0.227-2.778-0.437-4.17-0.63c-1.392-0.159-2.792-0.195-4.19-0.272l-2.081-0.082h-1.417h-2.835h-11.341h-28.864
		c-6.857,0-12.415,5.559-12.415,12.416v131.969c0,6.858,5.559,12.417,12.417,12.417h12.36c6.859,0,12.418-5.559,12.418-12.418
		v-35.659h16.502h5.67h1.417h0.709l0.366-0.001l0.549-0.019c1.465-0.053,2.932-0.129,4.395-0.226
		c5.857-0.587,11.644-2.164,16.988-4.662c5.34-2.5,10.269-5.873,14.443-10.017c4.177-4.138,7.654-8.98,10.237-14.283
		c2.573-5.299,4.299-11.057,4.925-16.917C203.132,125.493,203.294,122.491,203.083,119.754 M165.903,124.291
		c-0.164,1.668-0.684,3.249-1.397,4.742c-0.726,1.488-1.708,2.873-2.895,4.067c-1.185,1.2-2.614,2.129-4.108,2.83
		c-1.504,0.696-3.1,1.136-4.765,1.326c-0.425-0.002-0.846,0.018-1.269,0.06l-0.158,0.017l-0.344,0.001h-0.709h-1.417h-5.67h-16.502
		v-34.335h4.084h11.341h2.835h1.417l0.752,0.059c0.487,0.045,0.984,0.015,1.467,0.074c0.476,0.093,0.953,0.168,1.435,0.226
		c1.879,0.415,3.746,0.941,5.447,1.879c1.688,0.939,3.304,2.05,4.703,3.418c1.359,1.403,2.535,2.965,3.507,4.644
		c0.88,1.728,1.521,3.545,1.961,5.425C165.944,120.589,166.053,122.731,165.903,124.291"/>
</g>
</svg>
