<?xml version="1.0" encoding="utf-8"?>
<!-- Generator: Adobe Illustrator 25.4.1, SVG Export Plug-In . SVG Version: 6.00 Build 0)  -->
<svg version="1.1" id="Layer_1" xmlns="http://www.w3.org/2000/svg" xmlns:xlink="http://www.w3.org/1999/xlink" x="0px" y="0px"
	 viewBox="0 0 283.5 283.5" style="enable-background:new 0 0 283.5 283.5;" xml:space="preserve">
<style type="text/css">
	.st0{fill:#25303B;}
	.st1{fill:#EB2132;}
</style>
<g>
	<path class="st0" d="M130.9,72.5c-2.7-2.8-3.3-7-3.3-10.9c0-3.9,0.6-8.1,3.3-10.9c2.8-2.7,7-3.3,10.9-3.3c3.9,0,8.1,0.6,10.9,3.3
		c2.7,2.8,3.3,7,3.3,10.9c0,3.9-0.6,8.1-3.3,10.9c-2.8,2.7-7,3.3-10.9,3.3C137.8,75.8,133.6,75.2,130.9,72.5 M181,140.3l-0.4-3.2
		l-0.4-3.2h0l-2.7-24.2c-0.1-1-0.4-2-0.9-2.9v0l0,0l0,0c-0.5-0.9-1.1-1.7-1.8-2.4l-15.2-14l-9.2-8.4l0,0c-1-0.9-2.2-1.6-3.4-2.1
		c-1.3-0.5-2.6-0.7-4-0.7h-0.3c-2.8,0-5.6,0.7-8.1,1.9l-1.1,0.6c-3.7,1.8-6.7,4.9-8.5,8.6l-4.5,9.6c0,0,0,0.1-0.1,0.1l-5.6,12.6
		l-15.5,8.8l-2.3,1.3c-1.5,0.9-3,2.1-3.5,3.7c-0.4,1.7,0.2,3.5,1.1,5c0.9,1.5,2.1,3,3.7,3.5c1.7,0.4,3.5-0.2,5-1.1l3.8-2.2l0,0
		l15.3-8.6c0.8-0.5,1.6-1.1,2.2-1.8c0.6-0.7,1.2-1.5,1.5-2.4l0.3-0.6l-2.6,107.6c-0.1,2.2,0.2,4.6,1.7,6.2c1.5,1.5,3.9,2,6.1,2
		c2.2,0.2,4.6,0,6.2-1.4c1.6-1.4,2.2-3.8,2.3-6l3-38.9v-16.2l2.7,9.5l1.4,5c0.3,1,0.6,2,0.8,3l0,0.2l10.5,31.2
		c0.7,2.1,1.8,4.2,3.7,5.2c1.7,0.8,3.7,0.6,5.6,0.1c0.3-0.1,0.5-0.2,0.8-0.2c2.1-0.7,4.2-1.8,5.2-3.7c0.9-1.9,0.5-4.3-0.2-6.4l0,0
		c0,0,0,0,0,0l-10-29.8c0,0,0,0,0-0.1l-6.3-40.9v-39l8.5,7.8c0.1,0.1,0.1,0.1,0.2,0.2l2.4,21.5c0,0,0,0,0,0l0.4,3.2l0.4,3.2
		c0.2,1.6,0.6,3.4,1.9,4.4c1.3,1,3.1,1.1,4.7,0.9c1.6-0.2,3.4-0.6,4.4-1.9C181.1,143.7,181.2,141.9,181,140.3"/>
	<path class="st1" d="M141.7,0C63.5,0,0,63.5,0,141.7C0,220,63.5,283.5,141.7,283.5c78.3,0,141.7-63.5,141.7-141.7
		C283.5,63.5,220,0,141.7,0 M28.4,143.6c-0.4-27.1,8.7-52.1,24.2-71.9c0.7-0.9,2.1-1,3-0.2L211.9,228c0.8,0.8,0.8,2.2-0.2,3
		c-19.7,15.5-44.7,24.6-71.9,24.2C79,254.1,29.3,204.5,28.4,143.6 M227.9,211.9L71.5,55.5c-0.8-0.8-0.8-2.2,0.2-3
		c19.7-15.5,44.7-24.6,71.9-24.2c60.9,1,110.6,50.6,111.5,111.5c0.4,27.1-8.7,52.1-24.2,71.9C230.2,212.7,228.8,212.8,227.9,211.9"
		/>
</g>
</svg>
