<?xml version="1.0" encoding="utf-8"?>
<!-- Generator: Adobe Illustrator 25.4.1, SVG Export Plug-In . SVG Version: 6.00 Build 0)  -->
<svg version="1.1" id="Layer_1" xmlns="http://www.w3.org/2000/svg" xmlns:xlink="http://www.w3.org/1999/xlink" x="0px" y="0px"
	 viewBox="0 0 283.5 283.5" style="enable-background:new 0 0 283.5 283.5;" xml:space="preserve">
<style type="text/css">
	.st0{clip-path:url(#SVGID_00000096774004121528673710000010590836928102853505_);fill:#006FB6;}
	.st1{clip-path:url(#SVGID_00000096774004121528673710000010590836928102853505_);fill:#FFFFFF;}
</style>
<g>
	<defs>
		<rect id="SVGID_1_" width="283.5" height="283.5"/>
	</defs>
	<clipPath id="SVGID_00000041290815172040935050000016976761147722459818_">
		<use xlink:href="#SVGID_1_"  style="overflow:visible;"/>
	</clipPath>
	<path style="clip-path:url(#SVGID_00000041290815172040935050000016976761147722459818_);fill:#006FB6;" d="M219.7,283.5H63.8
		C28.6,283.5,0,254.9,0,219.7V63.8C0,28.6,28.6,0,63.8,0h155.9c35.2,0,63.8,28.6,63.8,63.8v155.9
		C283.5,254.9,254.9,283.5,219.7,283.5"/>
	<path style="clip-path:url(#SVGID_00000041290815172040935050000016976761147722459818_);fill:#FFFFFF;" d="M87.3,82.8
		c-3.2-3.3-4-8.3-4-13c0-4.7,0.8-9.7,4-13c3.3-3.2,8.4-4,13-4s9.7,0.8,13,4c3.2,3.3,4,8.3,4,13c0,4.7-0.8,9.7-4,13
		c-3.3,3.2-8.3,4-13,4S90.6,86,87.3,82.8 M156.4,185.9h-23h-23.6c-2.1,0-4.2,0-6.3,0l0,0c-1.6-4.2-3.2-8.4-4.9-12.7
		c-13.2-34.3-26.5-68.7-26.5-68.7c-0.8-2-3-3-5-2.2l-3.6,1.4c-2,0.8-3,3-2.2,5c0,0,13.2,34.3,26.5,68.7c1.7,4.3,3.3,8.7,5,13
		c0.2,0.5,0.4,1.1,0.7,1.5c0.3,0.5,0.5,1,0.9,1.4c0.7,0.9,1.5,1.6,2.4,2.3c1.8,1.3,4,1.9,6.2,1.9c2.3,0,4.6,0,6.8,0h23.6h23
		c2.1,0,3.8-1.7,3.8-3.8v-3.9C160.3,187.6,158.6,185.9,156.4,185.9 M219.2,225c0-0.2-0.1-0.5-0.1-0.7L219,224l-0.1-0.2
		c-5.8-15.1-11.6-30.1-17.4-45.1c-5.8-15-11.6-30-17.4-45.1l-0.1-0.2l-0.2-0.3c-0.1-0.2-0.2-0.4-0.4-0.6c-0.3-0.4-0.6-0.7-1-0.9
		c-0.8-0.4-1.8-0.1-2.7,0.2s-1.7,0.8-2.1,1.7c-0.2,0.4-0.2,0.9-0.2,1.3c0,0.2,0.1,0.5,0.1,0.7l0.1,0.3l0.1,0.2
		c5.8,15.1,11.6,30.1,17.4,45.1c5.8,15,11.6,30,17.4,45.1l0.1,0.2l0.2,0.3c0.1,0.2,0.2,0.4,0.4,0.6c0.3,0.4,0.6,0.7,1,0.9
		c0.8,0.4,1.8,0.1,2.7-0.2c0.9-0.3,1.7-0.8,2.1-1.7C219.2,226,219.3,225.5,219.2,225 M188,192.9l-2.4-5.8c-1.7,1.3-3.5,2.6-5.2,3.9
		c-3.2,2.4-6.4,4.8-9.5,7.2l-0.1,0.1l0,0l2.8,5.5c3-2.3,6.1-4.6,9.1-6.9C184.4,195.7,186.2,194.3,188,192.9 M199.7,216l-2.7-5.3
		c-2.3,1.7-4.6,3.5-6.9,5.2c-2.5,1.9-5,3.8-7.6,5.7l1.3,2.5c1.1,2.2,2.7,4.4,5,5.2c2.3,0.7,4.9-0.1,7-1.2c1.2-0.5,2.5-1.2,3.3-2.2
		c0.8-0.8,1.5-1.7,1.8-2.7C201.7,220.8,200.8,218.2,199.7,216 M193.9,204.6l-2.8-5.5c-1.5,1.1-3,2.2-4.4,3.3
		c-3.2,2.4-6.4,4.8-9.5,7.2l-0.1,0.1l-0.3,0.2c0,0-0.1,0-0.1,0.1l2.8,5.5c2.2-1.7,4.4-3.3,6.6-5
		C188.6,208.6,191.3,206.6,193.9,204.6 M176.3,185.7c2.2-1.7,4.4-3.3,6.6-5l-6.2-14.7c0,0,0,0,0,0.1c-0.1-0.2-0.2-0.4-0.3-0.6
		c-0.2-0.4-0.4-0.7-0.6-1l-0.2-0.2l-0.1-0.2l-0.3-0.3l-0.3-0.3l-0.2-0.2l-0.5-0.4l-0.4-0.3c-0.3-0.2-0.5-0.3-0.7-0.5
		c-0.9-0.5-1.6-0.8-2.3-1.1c-0.4-0.1-0.7-0.3-1.2-0.4c-0.5-0.1-0.9-0.3-1.4-0.3c-0.2,0-0.5-0.1-0.6-0.1l-0.4,0l-0.7-0.1l-5.6-0.7
		l-11.3-1.5l-11.3-1.5l-4.7-0.6l-6.8-18.4l19.6,2.2c0.6,0.1,1.1,0.2,1.7,0.3c2.2,0.2,4.3,0.4,6.4,0.6l7.1,0.8l0-0.1
		c1.5,0.1,3,0.3,4.5,0.4c2,0.2,4.1,0.1,5.6-1.1c1.5-1.2,2-3.3,2.2-5.3c0.2-2,0.1-4.1-1.1-5.6c-1.2-1.5-3.3-2-5.3-2.2
		c-3-0.3-6-0.6-9-0.9c-0.8-0.1-1.7-0.2-2.5-0.2l-29.5-3.3c-9.8-22.2-16.5-32.8-26.2-32.8c-6.4,0-11.4,2.4-14.3,6.7
		c-3.1,4.7-3.1,10.9,0,18.5c0,0,19.6,54.1,20.1,55.5c0,0.1,0.1,0.2,0.1,0.3l0.2,0.5l0,0.1c0.1,0.2,0.2,0.3,0.2,0.5
		c0.2,0.4,0.4,0.8,0.6,1.1c0.4,0.6,0.7,1,1,1.4c0.3,0.4,0.5,0.6,0.7,0.8c0.2,0.2,0.2,0.3,0.2,0.3c1.6,1.7,3.9,2.9,6,3.3
		c0.9,0.2,1.7,0.1,2.5,0.1L161,179c0.2,0.7,0.6,1.4,0.9,2l5.7,11.3C170.5,190.1,173.4,187.9,176.3,185.7"/>
</g>
</svg>
