<?xml version="1.0" encoding="utf-8"?>
<!-- Generator: Adobe Illustrator 25.4.1, SVG Export Plug-In . SVG Version: 6.00 Build 0)  -->
<svg version="1.1" id="Layer_1" xmlns="http://www.w3.org/2000/svg" xmlns:xlink="http://www.w3.org/1999/xlink" x="0px" y="0px"
	 viewBox="0 0 283.5 283.5" style="enable-background:new 0 0 283.5 283.5;" xml:space="preserve">
<style type="text/css">
	.st0{fill:#006FB6;}
	.st1{fill:#FFFFFF;}
</style>
<g>
	<path class="st0" d="M219.7,283.5H63.8C28.6,283.5,0,254.9,0,219.7V63.8C0,28.6,28.6,0,63.8,0h155.9c35.2,0,63.8,28.6,63.8,63.8
		v155.9C283.5,254.9,254.9,283.5,219.7,283.5"/>
	<path class="st1" d="M128.7,63.7c-3.2-3.3-4-8.3-4-13c0-4.7,0.8-9.7,4-13c3.3-3.2,8.3-4,13-4c4.7,0,9.7,0.8,13,4
		c3.2,3.3,4,8.3,4,13c0,4.7-0.8,9.7-4,13c-3.3,3.2-8.3,4-13,4C137,67.7,132,66.9,128.7,63.7 M115.8,130.1l-3.9,0l-1.9-0.3l-0.1,0
		c-0.6-0.1-1-0.3-1.3-0.5c-0.1,0-0.2-0.1-0.3-0.1c-0.7-0.2-1.2-0.6-1.5-0.8l-0.2-0.2c-0.6-0.4-1.1-1-1.4-1.3c-0.5-0.6-0.7-0.9-1-1.3
		c-0.1-0.2-0.2-0.4-0.3-0.6l-0.1-0.1c-0.3-0.5-0.5-1-0.6-1.5l-0.3-1.6c-0.1-0.2-0.1-0.5-0.1-0.7l0-0.2v-26c0-0.2,0-0.3,0-0.5
		c-0.4,0.9-0.9,1.7-1.3,2.5c-1.1,2.1-2.1,4.1-3.2,6.1c-0.3,0.5-0.5,1-0.8,1.5l-0.5,1c-0.1,0.2-0.2,0.5-0.3,0.7l-0.2,0.7
		c-0.2,0.6-0.4,1.3-0.6,1.9c-0.2,0.7-0.3,1.3-0.5,2c-0.6,2.7-0.8,5.6-0.4,8.4c0.4,2.8,1.4,5.5,2.6,7.6c1.3,2.2,2.8,3.9,4.3,5.2
		c1.5,1.4,2.9,2.4,4.2,3.2c2.6,1.6,4.7,2.5,6.1,3.1c0.7,0.3,1.3,0.5,1.7,0.6L115.8,130.1z M191.5,117.2l-0.1-0.6l-0.1-0.5
		c0-0.3-0.1-0.6-0.1-1c-0.1-0.6-0.2-1.3-0.4-1.9c-0.1-0.6-0.3-1.3-0.5-2c-0.2-0.7-0.5-1.4-0.7-2.1c-0.2-0.4-0.4-0.8-0.6-1.2
		c-0.2-0.4-0.4-0.9-0.5-1c-0.3-0.5-0.5-0.9-0.8-1.4c-1.1-1.9-2.3-3.9-3.4-5.9c-2.4-4.1-4.9-8.3-7.4-12.8c-0.6-1.1-1.2-2.2-1.8-3.3
		c-0.7-1.2-1.7-3-3.3-4.7c-0.4-0.4-0.8-0.9-1.3-1.3c-0.5-0.4-1-0.8-1.5-1.1c-0.5-0.3-1-0.6-1.6-0.9l-0.8-0.4
		c-0.2-0.1-0.4-0.1-0.6-0.2c-1.4-0.5-2.8-1-4.2-1.5l-1.1-0.4l-1.1-0.3l-2.2-0.6c-1.5-0.4-2.9-0.8-4.5-1c-1.5-0.2-3-0.4-4.5-0.7
		l-4.6-0.2c-0.8,0-1.5-0.1-2.3-0.1l-2.3,0.1l-2.3,0.1c-0.8,0-1.5,0.1-2.3,0.2c-1.5,0.2-3,0.5-4.5,0.7c-0.4,0.1-0.8,0.1-1.1,0.2
		l-1.1,0.3l-2.2,0.6l-0.7,0.2c0.1,0.7,0.1,1.4,0.1,2.2c0,3.8-0.9,6.6-2.8,8.6c-0.6,0.6-1.3,1.1-2.1,1.5c0.4,0.2,0.8,0.5,1.3,0.8
		l20.5,15.5c2,1.5,3.1,3.1,3.4,5c0.2,1.9-0.4,3.8-1.9,5.8c-0.8,1.1-1.7,1.9-2.5,2.4c0,0,0.2,0.1,0.2,0.1c0.5,0.3,1,0.7,1.5,1.2
		c0.5,0.5,0.8,0.9,1.1,1.3l0,0.1c0.7,0.9,1.1,2,1.4,2.9l0.2,0.6l4.3,19.8c0.1,0.2,0.1,0.5,0.1,0.7l1,4.4c0.8,3.6-1.5,7.2-5.1,8
		l-3.7,0.8c-0.5,0.1-1,0.2-1.5,0.2c-3.1,0-5.8-2.2-6.5-5.2l-2-9.1c-0.1-0.3-0.1-0.6-0.1-0.9l-0.2-0.7l-0.1,0.4
		c0,0.4-0.1,0.8-0.2,1.2l-2,8.9c-0.7,3.1-3.4,5.2-6.5,5.2c-0.5,0-1-0.1-1.5-0.2l-1.3-0.3c-0.1,4.4-0.1,8.9-0.2,13.3
		c-0.8,24-1.6,48.1-2.5,72.3v0.5c0,0.3,0,0.7,0,1c0,0.7,0.1,1.3,0.3,1.9c0.3,1.3,0.8,2.4,1.7,3.4c1.8,1.8,4.6,2.4,7.2,2.4
		c2.6,0.1,5.4-0.2,7.3-2c0.9-0.9,1.5-2,1.9-3.3c0.2-0.6,0.3-1.3,0.4-1.9c0-0.3,0.1-0.7,0.1-1l0-0.5c0.8-24.3,1.7-48.5,2.5-72.6
		c0-2.9,0.1-5.8,0.1-8.7h5.9c0,2.9,0.1,5.8,0.1,8.7c0.8,24.1,1.7,48.3,2.5,72.6l0,0.5c0,0.3,0.1,0.7,0.1,1c0.1,0.7,0.2,1.3,0.4,1.9
		c0.4,1.2,1,2.4,1.9,3.3c1.9,1.7,4.7,2.1,7.3,2c2.6-0.1,5.4-0.6,7.2-2.4c0.9-0.9,1.4-2.1,1.7-3.4c0.1-0.6,0.2-1.3,0.3-1.9
		c0-0.3,0-0.7,0-1v-0.5c-0.8-24.2-1.6-48.3-2.5-72.3c-0.4-24-0.7-48-1.1-72.2h2c2.4,4.1,4.7,8.1,7,12c1.2,2,2.3,4,3.4,5.8
		c0.3,0.5,0.5,0.9,0.8,1.4c0.2,0.3,0.2,0.3,0.2,0.4c0,0.1,0.1,0.2,0.1,0.2c0.1,0.3,0.2,0.5,0.3,0.8c0.1,0.3,0.2,0.6,0.3,1
		c0.1,0.3,0.1,0.7,0.2,1c0,0.2,0.1,0.3,0.1,0.5l0,0.4c0,0.8,0,1.5,0,2.2c0,1.9,0,3.6,0,5.3c0,3.3-0.1,6.2-0.1,8.6
		c0,4.8-0.1,7.5-0.1,7.5c0,2,0.3,4.2,1.7,5.6c1.4,1.4,3.6,1.7,5.6,1.8c2,0,4.2-0.3,5.6-1.7c1.4-1.4,1.7-3.6,1.8-5.6
		c0,0,0-2.7,0.1-7.5c0-2.4,0-5.3,0.1-8.6c0-1.7,0-3.4,0-5.3c0-0.5,0-0.9,0-1.4l0-0.7l0-0.6C191.5,117.7,191.5,117.4,191.5,117.2
		 M125.6,108v4.9h6.4L125.6,108z M113.5,83.4c2.4,0,4.9-0.4,6.6-2c1.6-1.7,2-4.2,2-6.6c0-2.4-0.4-4.9-2-6.6c-1.7-1.6-4.2-2-6.6-2
		c-2.4,0-4.9,0.4-6.6,2c-1.6,1.7-2,4.2-2,6.6c0,2.4,0.4,4.9,2,6.6C108.6,83,111.2,83.4,113.5,83.4 M147.9,145.9l-1-4.6
		c0-0.2,0-0.3-0.1-0.5c0,0-1-4.4-2.4-11c-0.4-1.8-0.8-3.7-1.3-5.7c-0.2-0.9-0.4-1.9-0.6-2.9c-0.3-0.9-0.6-1.9-1.1-2.5
		c-0.2-0.4-0.5-0.7-0.8-1c-0.3-0.3-0.7-0.6-1.1-0.9c-0.4-0.2-0.7-0.4-1.2-0.6c-0.4-0.2-0.9-0.3-1.3-0.4c-1-0.2-2.1-0.1-3.2-0.1h-2.5
		H128h-5.2v-13.4c0.4,0.3,0.9,0.7,1.3,1c3.4,2.6,6.8,5.1,10.2,7.8c1.1,0.8,2.3,1.5,3.6,1.3c1.3-0.2,2.3-1.2,3.1-2.3
		c0.8-1.1,1.5-2.3,1.3-3.6c-0.2-1.3-1.2-2.3-2.3-3.1c-3.5-2.6-6.9-5.2-10.2-7.8c-3.4-2.6-6.8-5.1-10.2-7.8c-0.6-0.5-1.3-0.9-2-1.1
		c-1.2-0.8-2.7-1.2-4.2-1.2c-4.4,0-8,3.6-8,8c0,0.3,0,0.5,0,0.7c0,0.2-0.1,0.4-0.1,0.6v11.3v13.7v0.8c0,0.2,0.1,0.5,0.1,0.7
		c0.1,0.5,0.2,0.9,0.3,1.4c0,0.2,0.1,0.4,0.2,0.6c0.1,0.2,0.2,0.4,0.3,0.5c0.2,0.3,0.4,0.6,0.7,1c0.3,0.3,0.7,0.7,1,0.9
		c0.3,0.2,0.6,0.5,1.1,0.6c0.4,0.2,0.8,0.4,1.3,0.5l1.5,0.2c2.4,0,4.8,0,7.3,0l-3,13.3c-0.1,0.3-0.1,0.5-0.1,0.8l-1,4.3
		c-0.5,2.1,0.8,4.1,2.9,4.6l3.7,0.9c2.1,0.5,4.1-0.8,4.6-2.9l2-8.9c0.1-0.3,0.1-0.6,0.1-0.9l2.5-11.1c0,0,0,0,0,0h0.9
		c0.4,1.8,0.8,3.5,1.1,5c0.5,2.5,1,4.7,1.4,6.4c0,0.2,0,0.4,0.1,0.6l2,9.1c0.5,2.1,2.5,3.4,4.6,2.9l3.7-0.8
		C147,150,148.3,148,147.9,145.9"/>
</g>
</svg>
