<?xml version="1.0" encoding="utf-8"?>
<!-- Generator: Adobe Illustrator 25.4.1, SVG Export Plug-In . SVG Version: 6.00 Build 0)  -->
<svg version="1.1" id="Layer_1" xmlns="http://www.w3.org/2000/svg" xmlns:xlink="http://www.w3.org/1999/xlink" x="0px" y="0px"
	 viewBox="0 0 283.465 283.465" enable-background="new 0 0 283.465 283.465" xml:space="preserve">
<g>
	<path fill="#006FB6" d="M219.685,283.465H63.78C28.555,283.465,0,254.91,0,219.685V63.78C0,28.555,28.555,0,63.78,0h155.905
		c35.225,0,63.78,28.555,63.78,63.78v155.905C283.465,254.91,254.91,283.465,219.685,283.465"/>
	<path fill="#FFFFFF" d="M160.267,189.696v3.878c0,2.123-1.72,3.844-3.843,3.844h-22.996h-23.572c-2.232,0-4.502,0.001-6.8,0.002
		c-2.208-0.016-4.412-0.609-6.226-1.877c-0.892-0.645-1.723-1.393-2.377-2.292c-0.354-0.431-0.627-0.916-0.893-1.408
		c-0.296-0.474-0.51-0.996-0.711-1.526c-1.647-4.275-3.321-8.618-4.994-12.961c-13.231-34.332-26.462-68.665-26.462-68.665
		c-0.763-1.981,0.224-4.206,2.205-4.969l3.618-1.394c1.981-0.763,4.206,0.223,4.968,2.204c0,0,13.232,34.333,26.462,68.665
		c1.635,4.241,3.269,8.481,4.877,12.656v-0.003c2.14,0.001,4.254,0.002,6.333,0.003h23.572h22.996
		C158.547,185.853,160.267,187.573,160.267,189.696 M146.458,81.934c4.682,0.001,9.727-0.773,13.032-3.974
		c3.201-3.302,3.977-8.348,3.978-13.032c0-4.683-0.775-9.729-3.976-13.032c-3.304-3.202-8.349-3.977-13.031-3.977
		c-4.683-0.001-9.73,0.773-13.033,3.975c-3.201,3.303-3.976,8.348-3.977,13.031c0,4.684,0.774,9.73,3.975,13.033
		C136.728,81.159,141.775,81.934,146.458,81.934 M195.812,123.344h-2.566h-2.567h-16.4l-16.543-26.815
		c-4.954-8.781-11.239-11.359-15.65-11.971c-4.541-0.63-9.13,0.621-11.695,3.186c-1.887,1.888-4.391,5.585-5.307,7.079
		c-10.261,16.735-29.066,59.587-18.098,77.909c2.129,3.557,5.316,5.674,8.856,6.336c0.816,0.153,1.696,0.138,1.696,0.138
		l43.53,0.041c0.23,0.605,0.497,1.197,0.786,1.765l21.939,43.115c1.115,2.191,2.679,4.368,4.963,5.151
		c2.308,0.712,4.853-0.127,7.045-1.242c1.239-0.519,2.483-1.228,3.305-2.242c0.819-0.773,1.485-1.668,1.846-2.721
		c0.711-2.308-0.128-4.853-1.243-7.045l-11.347-22.299l-11.596-27.721l-0.001-0.001c0.009,0.026,0.015,0.044,0.023,0.068
		c-0.04-0.103-0.076-0.208-0.12-0.309c-0.193-0.444-0.33-0.663-0.49-0.924c-0.155-0.245-0.354-0.53-0.504-0.716
		c-0.136-0.166-0.278-0.328-0.424-0.485c-0.572-0.604-1-0.919-1.4-1.208c-0.777-0.541-1.377-0.842-1.962-1.119
		c-0.583-0.269-1.125-0.481-1.711-0.676c-0.645-0.216-1.405-0.411-2.123-0.512l-4.537-0.585l-8.798-1.134l-17.596-2.268
		c-0.669-0.086-1.363-0.13-2.043-0.096c-0.283-8.348,5.047-25.143,15.428-44.021l13.705,22.216c1.301,2.109,3.602,3.393,6.08,3.393
		h22.953v-0.001h2.566c1.967,0,4.084-0.325,5.471-1.669c1.345-1.388,1.67-3.507,1.67-5.474c0-1.967-0.325-4.086-1.67-5.473
		C199.896,123.67,197.779,123.344,195.812,123.344 M212.077,128.127l-0.006-0.176l-0.026-0.353
		c-0.025-0.234-0.064-0.467-0.122-0.691c-0.118-0.448-0.315-0.862-0.633-1.19c-0.654-0.635-1.655-0.788-2.584-0.788
		s-1.93,0.153-2.585,0.788c-0.317,0.328-0.515,0.742-0.633,1.19c-0.058,0.224-0.098,0.457-0.122,0.691l-0.025,0.353l-0.007,0.176
		c0,15.924-0.001,31.8-0.001,47.599s0.001,31.675,0.001,47.6l0.007,0.175l0.025,0.353c0.024,0.235,0.064,0.467,0.122,0.691
		c0.118,0.449,0.316,0.863,0.633,1.19c0.655,0.635,1.656,0.789,2.585,0.789s1.93-0.154,2.584-0.789
		c0.318-0.327,0.515-0.741,0.633-1.19c0.058-0.224,0.097-0.456,0.122-0.691l0.026-0.353l0.006-0.175
		c0.001-15.925,0.001-31.801,0.002-47.6C212.078,159.927,212.078,144.051,212.077,128.127"/>
</g>
</svg>
