<?xml version="1.0" encoding="utf-8"?>
<!-- Generator: Adobe Illustrator 25.4.1, SVG Export Plug-In . SVG Version: 6.00 Build 0)  -->
<svg version="1.1" id="Layer_1" xmlns="http://www.w3.org/2000/svg" xmlns:xlink="http://www.w3.org/1999/xlink" x="0px" y="0px"
	 viewBox="0 0 283.5 283.5" style="enable-background:new 0 0 283.5 283.5;" xml:space="preserve">
<style type="text/css">
	.st0{fill:#006FB6;}
	.st1{fill:#FFFFFF;}
</style>
<g>
	<path class="st0" d="M219.7,283.5H63.8C28.6,283.5,0,254.9,0,219.7V63.8C0,28.6,28.6,0,63.8,0h155.9c35.2,0,63.8,28.6,63.8,63.8
		v155.9C283.5,254.9,254.9,283.5,219.7,283.5"/>
	<path class="st1" d="M113.4,57c3.2,3.3,4,8.3,4,13c0,4.7-0.8,9.7-4,13c-3.3,3.2-8.3,4-13,4s-9.7-0.8-13-4c-3.2-3.3-4-8.3-4-13
		c0-4.7,0.8-9.7,4-13c3.3-3.2,8.4-4,13-4S110.1,53.8,113.4,57 M160.3,193.8V190c0-2.1-1.7-3.8-3.8-3.8h-23h-23.6c-2.1,0-4.2,0-6.3,0
		v0c-1.6-4.2-3.2-8.4-4.9-12.7c-13.2-34.3-26.5-68.7-26.5-68.7c-0.8-2-3-3-5-2.2l-3.6,1.4c-2,0.8-3,3-2.2,5c0,0,13.2,34.3,26.5,68.7
		c1.7,4.3,3.3,8.7,5,13c0.2,0.5,0.4,1.1,0.7,1.5c0.3,0.5,0.5,1,0.9,1.4c0.7,0.9,1.5,1.6,2.4,2.3c1.8,1.3,4,1.9,6.2,1.9
		c2.3,0,4.6,0,6.8,0h23.6h23C158.5,197.7,160.3,196,160.3,193.8 M155.4,176.4l-2-9.1c-0.1-0.3-0.1-0.6-0.1-0.9l-0.2-0.7l-0.1,0.4
		c0,0.4-0.1,0.8-0.2,1.2l-2,8.9c-0.3,1.1-0.8,2.1-1.5,3c2.9,0,5.5,0,7.5,0C156.1,178.4,155.6,177.5,155.4,176.4 M134.9,177.5
		c-0.9-1.5-1.3-3.3-0.9-5l0.9-4c0-0.4,0.1-0.7,0.1-1.1l2.2-9.9l-3.9,0l-1.9-0.3l-0.1,0c-0.6-0.1-1-0.3-1.3-0.5
		c-0.1,0-0.2-0.1-0.3-0.1c-0.7-0.2-1.2-0.6-1.5-0.8l-0.2-0.2c-0.6-0.4-1.1-1-1.4-1.3c-0.5-0.6-0.7-0.9-1-1.3
		c-0.1-0.2-0.2-0.4-0.3-0.6l-0.1-0.1c-0.3-0.5-0.5-1-0.6-1.5l-0.3-1.6c-0.1-0.2-0.1-0.5-0.1-0.7l0-0.2v-26c0-0.3,0-0.5,0-0.7
		c0-0.2,0-0.4,0-0.6c0-0.1,0-0.1,0-0.2c-8.7-21.4-14.4-30.5-23.9-30.5C94,90.3,88.9,92.7,86,97c-3.1,4.7-3.1,10.9,0,18.5l2.1,4.9
		c1,2.7,5.1,14.4,9.3,26.2c2.4,6.7,4.8,13.4,6.6,18.4c0.9,2.5,1.6,4.6,2.2,6.1c0,0.1,0.1,0.2,0.1,0.3l0.2,0.5l0,0.1
		c0.1,0.2,0.2,0.3,0.2,0.5c0.2,0.5,0.4,0.8,0.6,1.1c0.4,0.6,0.7,1,1,1.4c0.3,0.4,0.5,0.6,0.7,0.8c0.2,0.2,0.2,0.3,0.2,0.3
		c1.6,1.7,3.9,2.9,6,3.3c0.4,0.1,10.6,0.1,21.3,0.2C135.8,178.7,135.3,178.1,134.9,177.5 M199.7,216.3L188.4,194l-11.6-27.7
		c0,0,0,0,0,0.1c-0.1-0.2-0.2-0.4-0.3-0.6c-0.2-0.4-0.4-0.7-0.6-1l-0.2-0.2l-0.1-0.2l-0.3-0.3l-0.3-0.3l-0.2-0.2l-0.5-0.4l-0.4-0.3
		c-0.3-0.2-0.5-0.3-0.7-0.5c-0.9-0.5-1.6-0.8-2.3-1.1c-0.4-0.1-0.7-0.3-1.2-0.4c-0.1,0-0.1,0-0.2-0.1l1.5,6.9
		c0.1,0.2,0.1,0.5,0.1,0.7l1,4.4c0.8,3.6-1.5,7.2-5.1,8l-3.7,0.8c-0.4,0.1-0.9,0.1-1.3,0.2l21.7,42.7c1.1,2.2,2.7,4.4,5,5.2
		c2.3,0.7,4.9-0.1,7-1.2l0,0c1.2-0.5,2.5-1.2,3.3-2.2c0.8-0.8,1.5-1.7,1.8-2.7C201.7,221,200.8,218.5,199.7,216.3 M135.1,110.8
		c2.4,0,4.9-0.4,6.6-2c1.6-1.7,2-4.2,2-6.6c0-2.4-0.4-4.9-2-6.6c-1.7-1.6-4.2-2-6.6-2c-2.4,0-4.9,0.4-6.6,2c-1.6,1.7-2,4.2-2,6.6
		c0,2.4,0.4,4.9,2,6.6C130.2,110.4,132.7,110.8,135.1,110.8 M135.1,110.8c2.4,0,4.9-0.4,6.6-2c1.6-1.7,2-4.2,2-6.6
		c0-2.4-0.4-4.9-2-6.6c-1.7-1.6-4.2-2-6.6-2c-2.4,0-4.9,0.4-6.6,2c-1.6,1.7-2,4.2-2,6.6c0,2.4,0.4,4.9,2,6.6
		C130.2,110.4,132.7,110.8,135.1,110.8 M169.4,173.3l-1-4.6c0-0.2,0-0.3-0.1-0.5c0,0-1-4.4-2.4-11c-0.4-1.8-0.8-3.7-1.3-5.7
		c-0.2-0.9-0.4-1.9-0.6-2.9c-0.3-0.9-0.6-1.9-1.1-2.5c-0.2-0.3-0.5-0.7-0.8-1c-0.3-0.3-0.7-0.6-1.1-0.9c-0.4-0.2-0.7-0.4-1.2-0.6
		c-0.4-0.2-0.9-0.3-1.3-0.4c-1-0.2-2.1-0.1-3.2-0.1h-2.5h-3.3h-5.2v-13.4c0.4,0.3,0.9,0.7,1.4,1c3.4,2.6,6.8,5.1,10.2,7.8
		c1.1,0.8,2.3,1.5,3.6,1.3c1.3-0.2,2.3-1.2,3.1-2.3s1.5-2.3,1.3-3.6c-0.2-1.3-1.2-2.3-2.3-3.1c-3.5-2.6-6.9-5.2-10.2-7.8
		c-3.4-2.6-6.8-5.1-10.2-7.8c-0.6-0.5-1.3-0.9-2-1.1c-1.2-0.8-2.7-1.2-4.2-1.2c-4.4,0-8,3.6-8,8c0,0.3,0,0.5,0,0.7
		c0,0.2-0.1,0.4-0.1,0.6v11.3v13.7v0.8c0,0.2,0.1,0.5,0.1,0.7c0.1,0.5,0.2,0.9,0.3,1.4c0,0.2,0.1,0.4,0.2,0.6
		c0.1,0.2,0.2,0.4,0.3,0.5c0.2,0.3,0.4,0.6,0.7,1c0.3,0.3,0.7,0.7,1,0.9c0.3,0.2,0.6,0.5,1.1,0.6c0.4,0.2,0.8,0.4,1.3,0.5l1.5,0.2
		c2.4,0,4.8,0,7.3,0l-3,13.3c-0.1,0.3-0.1,0.5-0.1,0.8l-1,4.3c-0.5,2.1,0.8,4.1,2.9,4.6l3.7,0.9c2.1,0.5,4.1-0.8,4.6-2.9l2-8.9
		c0.1-0.3,0.1-0.6,0.1-0.9l2.5-11.1c0,0,0,0,0,0h0.9c0.4,1.8,0.8,3.5,1.1,5c0.5,2.5,1,4.7,1.4,6.4c0,0.2,0,0.4,0.1,0.7l2,9.1
		c0.5,2.1,2.5,3.4,4.6,2.9l3.7-0.8C168.5,177.4,169.9,175.4,169.4,173.3"/>
</g>
</svg>
