<?xml version="1.0" encoding="utf-8"?>
<!-- Generator: Adobe Illustrator 25.4.1, SVG Export Plug-In . SVG Version: 6.00 Build 0)  -->
<svg version="1.1" id="Layer_1" xmlns="http://www.w3.org/2000/svg" xmlns:xlink="http://www.w3.org/1999/xlink" x="0px" y="0px"
	 viewBox="0 0 283.465 283.465" enable-background="new 0 0 283.465 283.465" xml:space="preserve">
<g>
	<path fill="#006FB6" d="M219.685,283.465H63.78C28.555,283.465,0,254.91,0,219.685V63.78C0,28.555,28.555,0,63.78,0h155.905
		c35.225,0,63.779,28.555,63.779,63.78v155.905C283.464,254.91,254.91,283.465,219.685,283.465"/>
	<path fill="#FFFFFF" d="M159.491,79.765c4.684,0,9.728-0.774,13.032-3.974c3.202-3.303,3.977-8.348,3.978-13.032
		c0-4.683-0.775-9.729-3.976-13.032c-3.304-3.202-8.347-3.977-13.031-3.978c-4.683,0-9.73,0.774-13.033,3.975
		c-3.2,3.303-3.976,8.349-3.976,13.032c-0.001,4.684,0.774,9.729,3.974,13.033C149.762,78.989,154.808,79.765,159.491,79.765"/>
	<path fill="#FFFFFF" d="M199.136,138.843c1.802-0.697,2.985-2.484,3.81-4.27c0.824-1.786,1.416-3.847,0.776-5.67
		c-0.695-1.801-2.482-2.984-4.267-3.808c-0.851-0.393-20.178-9.876-20.178-9.876c-0.17-0.1-25.305-29.347-25.305-29.347
		c-5.019-7.669-14.201-12.018-20.633-10.776c-7.29,1.411-10.932,5.626-13.108,8.145c-0.373,0.432-1.301,1.395-1.436,1.539
		c-15.938,16.968-22.131,36.274-25.413,59.684c-0.098,0.693-5.513,49.235-5.513,49.235c-0.627,1.92-1.257,3.83-1.885,5.713
		l-3.56,10.578c-0.801,2.368-1.556,4.605-2.236,6.643l-3.912,11.624c-0.001,0.003-0.001,0.006-0.002,0.008
		c-0.007,0.018-0.013,0.038-0.013,0.038c-0.806,2.393-1.275,5.103-0.199,7.345c1.004,1.931,3.011,3.146,5.109,3.962
		c0.299,0.116,0.601,0.225,0.902,0.326c0.3,0.101,0.606,0.197,0.916,0.285c2.164,0.619,4.497,0.865,6.466-0.074
		c2.216-1.144,3.487-3.602,4.296-6.008l6.917-20.553c0.73-2.157,1.488-4.404,2.259-6.709l3.028-9l0.03-0.262
		c0.001-0.002,0.002-0.005,0.003-0.007c1.962-7.025,3.925-14.047,5.606-20.062v18.692l3.425,45.038
		c0.192,2.531,0.818,5.226,2.684,6.881c1.917,1.594,4.676,1.805,7.207,1.613h0.001c2.538-0.063,5.261-0.55,7.008-2.329
		c1.692-1.832,2.044-4.577,1.982-7.114l-1.953-79.367c1.872-28.528,17.543-49.699,18.669-51.184c0.609-0.717,1.502-1.79,2.436-3.124
		c0,0,14.91,17.44,14.971,17.506c0.514,0.559,2.381,2.475,4.755,3.687c0,0,19.839,9.829,20.69,10.222
		C195.255,138.891,197.314,139.482,199.136,138.843"/>
	<path fill="#FFFFFF" d="M203.383,144.616l-0.026-0.353c-0.025-0.234-0.064-0.467-0.122-0.691c-0.119-0.448-0.315-0.862-0.632-1.19
		c-0.656-0.635-1.657-0.788-2.585-0.788c-0.929,0-1.93,0.153-2.585,0.788c-0.318,0.328-0.515,0.742-0.633,1.19
		c-0.059,0.224-0.098,0.457-0.122,0.691l-0.025,0.353l-0.007,0.176c0,16.938-0.001,33.825-0.001,50.63
		c0,16.806,0.001,33.692,0.001,50.631l0.007,0.175l0.025,0.353c0.024,0.235,0.063,0.467,0.122,0.692
		c0.118,0.448,0.315,0.862,0.633,1.189c0.655,0.635,1.656,0.789,2.585,0.789c0.928,0,1.929-0.154,2.585-0.789
		c0.317-0.327,0.513-0.741,0.632-1.189c0.058-0.225,0.097-0.457,0.122-0.692l0.026-0.353l0.006-0.175
		c0.001-16.939,0.001-33.825,0.002-50.631c-0.001-16.805-0.001-33.692-0.002-50.63L203.383,144.616z"/>
</g>
</svg>
