<svg xmlns="http://www.w3.org/2000/svg" viewBox="0 0 283.46 283.46"><defs><style>.cls-1{fill:#006fb6;}.cls-2{fill:#fff;}</style></defs><g id="Layer_2" data-name="Layer 2"><g id="Layer_1-2" data-name="Layer 1"><path class="cls-1" d="M219.68,283.46H63.78A63.77,63.77,0,0,1,0,219.68V63.78A63.77,63.77,0,0,1,63.78,0h155.9a63.77,63.77,0,0,1,63.78,63.78v155.9a63.77,63.77,0,0,1-63.78,63.78"/><path class="cls-2" d="M87.86,82.77c-3.2-3.3-4-8.34-4-13s.78-9.73,4-13,8.35-4,13-4,9.73.78,13,4,4,8.35,4,13-.78,9.73-4,13-8.35,4-13,4-9.73-.78-13-4M157,185.85h-52.9c-1.61-4.17-3.24-8.41-4.88-12.65L72.75,104.53a3.84,3.84,0,0,0-5-2.2l-3.62,1.39a3.85,3.85,0,0,0-2.2,5l26.46,68.67c1.68,4.34,3.35,8.68,5,13a13.28,13.28,0,0,0,1.6,2.93,10.34,10.34,0,0,0,2.38,2.29,11,11,0,0,0,6.22,1.88H157a3.84,3.84,0,0,0,3.84-3.85V189.7a3.84,3.84,0,0,0-3.84-3.85m31.94,7.88L177.33,166h0a.14.14,0,0,1,0,.06c-.08-.22-.17-.43-.27-.64a7.67,7.67,0,0,0-.62-1l-.17-.23-.14-.16-.27-.31-.28-.3-.24-.22-.46-.4-.39-.29c-.29-.21-.48-.32-.72-.48a14.55,14.55,0,0,0-2.31-1.12c-.37-.14-.69-.25-1.15-.39a9.67,9.67,0,0,0-1.39-.33l-.65-.1-.35,0-.71-.09-5.64-.73-11.29-1.45L139,156.31l-4.7-.61-6.84-18.4L147,139.46a13.82,13.82,0,0,0,1.67.27l6.42.63,7.05.78v-.09l4.48.44c2,.19,4.1.08,5.61-1.12s2-3.33,2.19-5.29.08-4.1-1.12-5.61-3.33-2-5.28-2.2l-9-.88-2.51-.24-29.47-3.27c-9.79-22.22-16.47-32.83-26.22-32.83-6.36,0-11.44,2.36-14.29,6.65-3.14,4.73-3.13,10.94,0,18.46l2.07,4.93c1,2.71,5.14,14.44,9.32,26.17,2.38,6.68,4.77,13.37,6.55,18.39.9,2.5,1.64,4.59,2.16,6.06,0,.09.07.18.1.26l.18.48,0,.11.22.48c.23.45.41.76.59,1.05a14.22,14.22,0,0,0,1,1.39c.28.35.51.61.67.78l.25.26a11.21,11.21,0,0,0,6,3.25,8.8,8.8,0,0,0,2.54.08l43.24.11a17.09,17.09,0,0,0,.88,2l21.94,43.12c1.11,2.19,2.68,4.37,5,5.15s4.86-.13,7.05-1.24a8.3,8.3,0,0,0,3.3-2.25,6.74,6.74,0,0,0,1.85-2.72c.71-2.3-.13-4.85-1.24-7Zm27.13,21.68q-7.27-19-14.49-37.84-8.72-22.74-17.5-45.7l-.06-.16-.15-.32a4.6,4.6,0,0,0-.37-.6,2.59,2.59,0,0,0-1-.88,3.68,3.68,0,0,0-2.7.18,3.73,3.73,0,0,0-2.13,1.66,2.54,2.54,0,0,0-.16,1.34,4.19,4.19,0,0,0,.13.69l.1.34.06.17q8.78,22.94,17.49,45.7,7.26,19,14.58,38.07a7,7,0,0,0-1.54,4.17,7.09,7.09,0,1,0,7.75-6.82"/></g></g></svg>