<?xml version="1.0" encoding="utf-8"?>
<!-- Generator: Adobe Illustrator 25.4.1, SVG Export Plug-In . SVG Version: 6.00 Build 0)  -->
<svg version="1.1" id="Layer_1" xmlns="http://www.w3.org/2000/svg" xmlns:xlink="http://www.w3.org/1999/xlink" x="0px" y="0px"
	 viewBox="0 0 283.5 283.5" style="enable-background:new 0 0 283.5 283.5;" xml:space="preserve">
<style type="text/css">
	.st0{fill:#006FB6;}
	.st1{fill:#FFFFFF;}
</style>
<g>
	<path class="st0" d="M219.7,283.5H63.8C28.6,283.5,0,254.9,0,219.7V63.8C0,28.6,28.6,0,63.8,0h155.9c35.2,0,63.8,28.6,63.8,63.8
		v155.9C283.5,254.9,254.9,283.5,219.7,283.5"/>
	<path class="st1" d="M156.7,201.1c2.7-1.1,5.3-2.2,8-3.2c0.1,2.2,0.1,4.3,0.2,6.5c-2.6,1-5.1,2.1-7.6,3.1c-3.6,1.5-7.3,3-11,4.5
		c-0.1-2.2-0.1-4.3-0.2-6.5C149.7,204,153.2,202.6,156.7,201.1 M165.4,218c-0.1-2.2-0.1-4.3-0.2-6.5c-1.8,0.7-3.6,1.4-5.4,2.2
		c-3.7,1.5-7.4,3-11.1,4.5l-0.2,0.1l-0.3,0.1c-0.2,0.1-0.5,0.1-0.7,0.1c-0.4,0-0.7,0-1-0.1c0.1,2.4,0.2,4.7,0.2,7.1
		c3.5-1.4,6.9-2.8,10.3-4.2C159.9,220.3,162.6,219.1,165.4,218 M141.7,67c4.5,0,9.3-0.7,12.5-3.8c3.1-3.2,3.8-8,3.8-12.5
		c0-4.5-0.7-9.3-3.8-12.5c-3.2-3.1-8-3.8-12.5-3.8s-9.3,0.7-12.5,3.8c-3.1,3.2-3.8,8-3.8,12.5c0,4.5,0.7,9.3,3.8,12.5
		C132.4,66.2,137.2,67,141.7,67 M102.6,154.9l0-0.4c0-0.2-0.1-0.5-0.1-0.7c-0.1-0.4-0.3-0.9-0.6-1.2c-0.7-0.6-1.7-0.8-2.6-0.8
		c-0.9,0-1.9,0.2-2.6,0.8c-0.3,0.3-0.5,0.7-0.6,1.2c-0.1,0.2-0.1,0.5-0.1,0.7l0,0.4l0,0.2c0,15.1,0,30.1,0,45.1s0,30,0,45.1l0,0.2
		l0,0.4c0,0.2,0.1,0.5,0.1,0.7c0.1,0.4,0.3,0.9,0.6,1.2c0.7,0.6,1.7,0.8,2.6,0.8c0.9,0,1.9-0.2,2.6-0.8c0.3-0.3,0.5-0.7,0.6-1.2
		c0.1-0.2,0.1-0.5,0.1-0.7l0-0.4l0-0.2c0-15.1,0-30.1,0-45.1c0-15,0-30,0-45.1L102.6,154.9z M165.7,225.2c-2,0.8-4,1.6-6,2.4
		c-3.7,1.5-7.4,3-11.1,4.5l-0.2,0.1l-0.3,0.1c-0.2,0.1-0.5,0.1-0.7,0.1c-0.1,0-0.2,0-0.3,0c0.1,2.5,0.2,4.9,0.3,7.4l0,0.5
		c0,0.3,0.1,0.7,0.1,1c0.1,0.7,0.2,1.3,0.4,1.9c0.4,1.2,1,2.4,1.9,3.3c1.9,1.7,4.7,2,7.3,2c2.6-0.1,5.4-0.6,7.2-2.5
		c0.9-0.9,1.4-2.1,1.7-3.4c0.1-0.6,0.2-1.3,0.3-1.9c0-0.3,0-0.7,0-1l0-0.5C166,234.6,165.8,229.9,165.7,225.2 M191.5,117.7l-0.1-0.7
		l-0.1-0.5c-0.1-1.3-0.4-2.6-0.7-3.9c-0.2-0.7-0.3-1.3-0.6-2.1c-0.1-0.4-0.3-0.7-0.4-1.1c-0.1-0.3-0.3-0.8-0.5-1.2l-0.3-0.6
		l-0.2-0.3l-0.1-0.2l-0.1-0.1l-0.4-0.7c-0.3-0.5-0.6-1-0.8-1.4c-1.1-1.9-2.3-4-3.5-6c-2.4-4.1-4.9-8.4-7.5-12.9
		c-0.5-1-1.2-2.2-2-3.7c-0.8-1.4-2.3-3.5-4.4-5c-0.5-0.4-1-0.8-1.6-1.1c-0.5-0.3-1.1-0.6-1.6-0.8l-0.4-0.2l-0.3-0.1l-0.5-0.2
		l-1.1-0.4c-1.4-0.5-2.9-1.1-4.3-1.5c-5.9-1.7-12.2-2.6-18.4-2.7c-6.2,0.1-12.5,1-18.4,2.7c-1.5,0.4-2.9,1-4.3,1.5l-1.1,0.4
		l-0.5,0.2l-0.3,0.1l-0.4,0.2c-0.5,0.3-1.1,0.5-1.6,0.8c-0.5,0.3-1.1,0.7-1.6,1.1c-2,1.5-3.5,3.6-4.4,5c-0.9,1.5-1.5,2.7-2,3.7
		c-2.6,4.5-5.1,8.8-7.5,12.9c-1.2,2.1-2.4,4.1-3.5,6c-0.3,0.5-0.6,1-0.8,1.4l-0.4,0.7l-0.1,0.1l-0.1,0.2l-0.2,0.3l-0.3,0.6
		c-0.2,0.4-0.4,0.9-0.5,1.2c-0.1,0.4-0.3,0.7-0.4,1.1c-0.3,0.7-0.4,1.4-0.6,2.1c-0.3,1.3-0.6,2.6-0.7,3.9L92,117l-0.1,0.7
		c0,0.2,0,0.5,0,0.7l0,0.4c0,0.5,0,1,0,1.4c0,1.9,0,3.7,0,5.4c0,3.4,0.1,6.3,0.1,8.7c0,4.8,0.1,7.6,0.1,7.6c0,2,0.4,4.2,1.8,5.6
		c1.4,1.4,3.6,1.7,5.6,1.7c2,0,4.2-0.4,5.6-1.8c1.4-1.4,1.7-3.6,1.7-5.6c0,0,0-2.8-0.1-7.6c0-2.4,0-5.4-0.1-8.7c0-1.7,0-3.5,0-5.4
		c0-0.5,0-1,0-1.4l0-0.3c0,0,0,0,0,0l0-0.2c0.1-0.7,0.2-1.4,0.4-2.1c0.1-0.3,0.2-0.7,0.3-0.9l0.1-0.4c0-0.2,0.1-0.2,0.1-0.3l0-0.1
		l0-0.1l0,0l0-0.1l0.4-0.7c0.3-0.5,0.6-0.9,0.8-1.4c1.1-1.9,2.3-3.9,3.5-6c2.1-3.6,4.3-7.4,6.5-11.3h2c-0.4,24.1-0.7,48.2-1.1,72.2
		c-0.8,24-1.6,48.1-2.5,72.3v0.5c0,0.3,0,0.7,0,1c0,0.7,0.1,1.3,0.3,1.9c0.3,1.3,0.8,2.4,1.7,3.4c1.8,1.8,4.6,2.4,7.2,2.5
		c2.6,0.1,5.4-0.2,7.3-2c0.9-0.9,1.5-2,1.9-3.3c0.2-0.6,0.3-1.3,0.4-1.9c0-0.3,0.1-0.7,0.1-1l0-0.5c0.8-24.3,1.7-48.5,2.5-72.5
		c0-2.9,0.1-5.8,0.1-8.7h5.9c0,2.9,0.1,5.8,0.1,8.7c0.4,10.3,0.7,20.6,1.1,30.9c2.8-1.1,5.6-2.3,8.3-3.4c3.4-1.4,6.9-2.8,10.3-4.2
		c-0.3-7.9-0.5-15.9-0.8-23.8c-0.4-24-0.7-48-1.1-72.2h2c2.3,3.9,4.5,7.7,6.5,11.3c1.2,2,2.4,4,3.5,6c0.3,0.5,0.6,1,0.8,1.4l0.4,0.7
		l0.1,0.1l0,0l0,0.1l0,0.1c0,0.1,0.1,0.1,0.1,0.3l0.1,0.4c0.1,0.3,0.2,0.6,0.3,0.9c0.2,0.7,0.3,1.4,0.4,2.1l0,0.2c0,0,0,0,0,0l0,0.3
		c0,0.5,0,1,0,1.4c0,1.9,0,3.7,0,5.4c0,3.4-0.1,6.3-0.1,8.7c0,4.8-0.1,7.6-0.1,7.6c0,2,0.3,4.2,1.7,5.6c1.4,1.4,3.6,1.7,5.6,1.8
		c2,0,4.2-0.3,5.6-1.7c1.4-1.4,1.7-3.6,1.8-5.6c0,0,0-2.8,0.1-7.6c0-2.4,0-5.4,0.1-8.7c0-1.7,0-3.5,0-5.4c0-0.5,0-1,0-1.4l0-0.4
		C191.5,118.2,191.5,118,191.5,117.7 M187.6,154.9l0-0.4c0-0.2-0.1-0.5-0.1-0.7c-0.1-0.4-0.3-0.9-0.6-1.2c-0.7-0.6-1.7-0.8-2.6-0.8
		c-0.9,0-1.9,0.2-2.6,0.8c-0.3,0.3-0.5,0.7-0.6,1.2c-0.1,0.2-0.1,0.5-0.1,0.7l0,0.4l0,0.2c0,15.1,0,30.1,0,45.1c0,15,0,30,0,45.1
		l0,0.2l0,0.4c0,0.2,0.1,0.5,0.1,0.7c0.1,0.4,0.3,0.9,0.6,1.2c0.7,0.6,1.7,0.8,2.6,0.8c0.9,0,1.9-0.2,2.6-0.8
		c0.3-0.3,0.5-0.7,0.6-1.2c0.1-0.2,0.1-0.5,0.1-0.7l0-0.4l0-0.2c0-15.1,0-30.1,0-45.1c0-15,0-30,0-45.1L187.6,154.9z"/>
</g>
</svg>
