<svg xmlns="http://www.w3.org/2000/svg" viewBox="0 0 283.46 283.46"><defs><style>.cls-1{fill:#006fb6;}.cls-2{fill:#fff;}</style></defs><g id="Layer_2" data-name="Layer 2"><g id="Layer_1-2" data-name="Layer 1"><path class="cls-1" d="M219.68,283.46H63.78A63.77,63.77,0,0,1,0,219.68V63.78A63.78,63.78,0,0,1,63.78,0h155.9a63.78,63.78,0,0,1,63.78,63.78v155.9a63.77,63.77,0,0,1-63.78,63.78"/><path class="cls-2" d="M71.81,63.66c-3.2-3.3-4-8.35-4-13s.77-9.73,4-13,8.35-4,13-4,9.72.78,13,4,4,8.35,4,13-.77,9.73-4,13-8.35,4-13,4-9.73-.78-13-4M146.73,131c-.44-1.88-2-3.31-3.68-4.38l-2.33-1.51-2.33-1.51a14.1,14.1,0,0,0-1.42-.81l-13.08-9.25L109.22,93.94,104.3,83.52a21.57,21.57,0,0,0-9.92-10.09l-1.31-.65a21.61,21.61,0,0,0-9.48-2.2h-.33A12.82,12.82,0,0,0,74.58,74L46.36,99.82a10,10,0,0,0-2.14,2.83,9.8,9.8,0,0,0-1,3.42l-3,27.14c-.06.36-.12.73-.16,1.09-.13,1.17-.26,2.32-.38,3.47s-.26,2.3-.39,3.47c-.22,2-.13,4.1,1.06,5.62s3.3,2,5.25,2.27,4.1.12,5.63-1.06,2-3.3,2.26-5.25c.13-1.18.26-2.33.38-3.47s.26-2.3.39-3.48c0-.36.06-.73.08-1.1l2.7-24.4,9.84-9v45.06l-7.29,47.24,0,.09-11.61,34.5h0l0,0c-.8,2.39-1.27,5.1-.19,7.35a9.27,9.27,0,0,0,5.11,4l.9.32.91.29a9.22,9.22,0,0,0,6.47-.08c2.22-1.14,3.49-3.6,4.3-6l12.14-36.08,0-.35c0-.19.12-.37.17-.55.79-2.84,1.59-5.71,2.4-8.59,1-3.71,2.07-7.42,3.08-11v18.7l3.42,45c.2,2.53.82,5.23,2.69,6.88s4.67,1.81,7.2,1.62,5.27-.55,7-2.33,2-4.58,2-7.12l-3.24-131.95,10.91,14.55a7.21,7.21,0,0,0,1.58,1.54l15.72,11.1.05-.06.07.05,2.32,1.51,2.33,1.51c1.65,1.07,3.6,1.94,5.5,1.57s3.31-2,4.38-3.68,1.95-3.61,1.58-5.5M251.24,240.15a6.07,6.07,0,0,0-6.17-3.38L200.6,189.64l-49.27-52.21-.12-.12-.26-.24c-.18-.15-.37-.29-.56-.42a2.75,2.75,0,0,0-1.28-.43,4.63,4.63,0,0,0-3.76,3.55,2.52,2.52,0,0,0,.36,1.3,5.36,5.36,0,0,0,.38.59l.22.27.12.13,49.27,52.21,44.22,46.86a6,6,0,0,0,.37,4.34,6.09,6.09,0,1,0,11-5.32"/></g></g></svg>