<?xml version="1.0" encoding="utf-8"?>
<!-- Generator: Adobe Illustrator 25.4.1, SVG Export Plug-In . SVG Version: 6.00 Build 0)  -->
<svg version="1.1" id="Layer_1" xmlns="http://www.w3.org/2000/svg" xmlns:xlink="http://www.w3.org/1999/xlink" x="0px" y="0px"
	 viewBox="0 0 283.465 283.464" enable-background="new 0 0 283.465 283.464" xml:space="preserve">
<g>
	<path fill="#996017" d="M219.685,283.464H63.78C28.555,283.464,0,254.909,0,219.685V63.779C0,28.555,28.555,0,63.78,0h155.905
		c35.225,0,63.779,28.555,63.779,63.779v155.906C283.464,254.909,254.91,283.464,219.685,283.464"/>
	<path fill="#FFFFFF" d="M32.011,200.689v-19.82l0.909-0.557c10.664-6.153,18.956-8.467,27.833-8.467
		c17.169,0,22.502,9.024,37.678,9.024c15.646,0,26.017-9.303,40.549-9.303c17.755,0,29.885,9.303,43.216,9.303
		c18.956,0,31.438-12.233,46.819-12.233c7.998,0,15.412,2.33,24.874,7.574v19.264l-0.849-0.586
		c-9.844-5.552-14.795-7.574-22.501-7.574c-18.37,0-26.985,13.375-45.384,13.375c-16.876,0-25.432-9.61-39.377-9.61
		c-17.17,0-27.892,10.489-41.194,10.489c-16.876,0-28.42-10.489-43.831-10.489C50.674,191.079,42.383,194.61,32.011,200.689
		 M32.011,243.245c10.372-6.094,18.663-9.653,28.742-9.653c15.411,0,26.955,10.576,43.831,10.576
		c12.774,0,24.024-10.576,41.194-10.576c13.945,0,22.501,9.653,39.377,9.653c18.399,0,27.014-13.345,45.384-13.345
		c7.412,0,12.657,2.022,22.501,7.837l0.849,0.264v-19.264c-9.726-4.966-16.876-7.559-24.874-7.559
		c-15.674,0-27.863,12.262-46.819,12.262c-13.331,0-25.461-9.318-43.216-9.318c-14.532,0-25.196,9.318-40.871,9.318
		c-15.089,0-20.48-9.01-37.356-9.01c-8.877,0-17.169,2.315-27.833,8.424l-0.909,0.586V243.245 M246.256,112.572
		c-0.338-0.543-0.823-0.961-1.376-1.293l0.003-0.008c-10.522-6.887-30.867-14.929-52.579-14.929
		c-17.814,0-31.701,7.295-55.99,25.402c-34.66,25.607-40.608,25.607-52.473,35.026c5.332,3.15,9.843,4.659,16.876,4.659
		c15.118,0,29.064-10.196,41.837-10.196c4.982,0,4.982,0,27.483,8.101c-8.848-11.09-10.665-13.653-10.665-18.605
		c0-9.097,19.279-28.082,37.62-28.082c11.501,0,26.882,3.387,42.438,7.798c0.217,0.067,0.435,0.13,0.653,0.185
		c0.005,0.001,0.011,0.002,0.016,0.004c0.127,0.036,0.255,0.071,0.383,0.107l0.009-0.019c1.299,0.277,2.694,0.336,3.81-0.311
		c1.21-0.753,1.822-2.212,2.172-3.622C246.825,115.381,246.971,113.805,246.256,112.572 M186.075,130.428
		c-3.218,2.726-4.377,7.259-4.798,11.531c-0.421,4.273-0.168,8.946,2.456,12.246c2.727,3.217,7.259,4.377,11.531,4.798
		c4.272,0.42,8.946,0.167,12.247-2.456c3.216-2.725,4.376-7.259,4.796-11.532c0.421-4.272,0.168-8.944-2.455-12.245
		c-2.725-3.217-7.259-4.378-11.532-4.799C194.049,127.551,189.377,127.804,186.075,130.428"/>
</g>
</svg>
