<?xml version="1.0" encoding="utf-8"?>
<!-- Generator: Adobe Illustrator 25.4.1, SVG Export Plug-In . SVG Version: 6.00 Build 0)  -->
<svg version="1.1" id="Layer_1" xmlns="http://www.w3.org/2000/svg" xmlns:xlink="http://www.w3.org/1999/xlink" x="0px" y="0px"
	 viewBox="0 0 239.5 239.5" style="enable-background:new 0 0 239.5 239.5;" xml:space="preserve">
<style type="text/css">
	.st0{fill:#FFFFFF;}
</style>
<g>
	<path class="st0" d="M119.8,93.4c-9.5,0-16.1,2-20.3,6.1c-4,4.2-6,10.8-6,20.3c0,9.5,2,16.1,6.1,20.3c4.2,4,10.8,6,20.3,6
		c9.5,0,16.1-2,20.3-6.1c4-4.2,6-10.8,6-20.3c0-9.5-2-16.1-6.1-20.3C135.9,95.4,129.2,93.4,119.8,93.4z"/>
	<path class="st0" d="M25.7,161.4v6.2c0,1.1,0.4,2.2,1.2,2.9c0.8,0.8,1.8,1.2,2.9,1.2l6.5,0c6.8,0,16.4-0.8,17.2-1
		c0.1,0,0.3,0,0.4,0c0.8,0,1.6,0.5,1.9,1.2c0.4,0.9,0.1,1.9-0.7,2.4c-1.8,1.2-7.8,7-12.4,11.6L3.3,225.5c-0.8,0.8-1.3,1.9-1.3,3.1
		s0.5,2.3,1.3,3.1l4.6,4.6c0.8,0.8,1.9,1.3,3.1,1.3s2.3-0.5,3.1-1.3l39.4-39.4c3.5-3.5,10.4-10.5,11.6-12.4c0.5-0.8,1.6-1.1,2.5-0.7
		c0.9,0.4,1.4,1.4,1.1,2.4c-0.1,0.5-1,10-1,17.1l0,6.5c0,2.3,1.9,4.2,4.2,4.2h6.2c2.3,0,4.2-1.9,4.2-4.2v-52.4H29.9
		C27.6,157.2,25.7,159.1,25.7,161.4z"/>
	<path class="st0" d="M213.8,78.2v-6.2c0-2.3-1.9-4.2-4.2-4.2l-6.5,0c-6.8,0-16.4,0.8-17.2,1c-1,0.2-1.9-0.3-2.3-1.2
		c-0.4-0.9-0.1-1.9,0.7-2.4c2.2-1.4,10.3-9.5,12.4-11.6l39.4-39.4c0.8-0.8,1.3-1.9,1.3-3.1s-0.5-2.3-1.3-3.1l-4.6-4.6
		c-0.8-0.8-1.9-1.3-3.1-1.3s-2.3,0.5-3.1,1.3L186,42.7c-3.7,3.7-10.4,10.5-11.6,12.4c-0.5,0.8-1.6,1.1-2.5,0.7
		c-0.9-0.4-1.4-1.4-1.1-2.4c0.1-0.5,1-10.1,1-17.1l0-6.5c0-2.3-1.9-4.2-4.2-4.2h-6.2c-2.3,0-4.2,1.9-4.2,4.2v52.4h52.4
		C211.9,82.3,213.8,80.5,213.8,78.2z"/>
	<path class="st0" d="M78.2,25.7h-6.2c-2.3,0-4.2,1.9-4.2,4.2l0,6.5c0,6.8,0.8,16.4,1,17.2c0.2,0.9-0.3,1.9-1.2,2.3
		c-0.9,0.4-1.9,0.1-2.4-0.7c-1.3-2-8.2-9-11.6-12.4L14.1,3.3c-1.7-1.7-4.5-1.7-6.2,0L3.3,7.9C2.5,8.7,2,9.8,2,11
		c0,1.2,0.5,2.3,1.3,3.1l39.4,39.4c3.5,3.5,10.5,10.4,12.4,11.6c0.8,0.5,1.1,1.6,0.7,2.5c-0.4,0.9-1.4,1.4-2.4,1.1
		c-0.5-0.1-10.1-1-17.1-1l-6.5,0c-2.3,0-4.2,1.9-4.2,4.2v6.2c0,2.3,1.9,4.2,4.2,4.2h52.4V29.9C82.3,27.6,80.5,25.7,78.2,25.7z"/>
	<path class="st0" d="M184.4,174.4c-0.8-0.5-1.1-1.6-0.7-2.5c0.4-0.9,1.4-1.4,2.4-1.1c0.5,0.1,10,1,17.1,1l6.5,0
		c1.1,0,2.2-0.4,2.9-1.2c0.8-0.8,1.2-1.8,1.2-2.9v-6.2c0-2.3-1.9-4.2-4.2-4.2h-52.4v52.4c0,2.3,1.9,4.2,4.2,4.2h6.2
		c2.3,0,4.2-1.9,4.2-4.2l0-6.5c0-6.8-0.8-16.4-1-17.2c-0.2-0.9,0.3-1.9,1.2-2.3c0.2-0.1,0.5-0.2,0.8-0.2c0.7,0,1.3,0.3,1.6,0.9
		c1.3,1.9,7.9,8.7,11.6,12.4l39.4,39.4c0.8,0.8,1.9,1.3,3.1,1.3s2.3-0.5,3.1-1.3l4.6-4.6c0.8-0.8,1.3-1.9,1.3-3.1s-0.5-2.3-1.3-3.1
		L196.8,186C193.1,182.3,186.3,175.7,184.4,174.4z"/>
</g>
</svg>
