<?xml version="1.0" encoding="utf-8"?>
<!-- Generator: Adobe Illustrator 25.4.1, SVG Export Plug-In . SVG Version: 6.00 Build 0)  -->
<svg version="1.1" id="Layer_1" xmlns="http://www.w3.org/2000/svg" xmlns:xlink="http://www.w3.org/1999/xlink" x="0px" y="0px"
	 viewBox="0 0 37.252 37.251" enable-background="new 0 0 37.252 37.251" xml:space="preserve">
<path fill="#25303B" d="M37.251,28.776c0,4.661-3.813,8.475-8.475,8.475H8.475C3.813,37.251,0,33.437,0,28.776V8.474
	C0,3.813,3.813,0,8.475,0h20.301c4.662,0,8.475,3.813,8.475,8.474V28.776z"/>
<path fill="#FFFFFF" d="M9.788,8.833c-1.787,0-3.235,1.448-3.235,3.234c0,1.146,0.599,2.146,1.498,2.721v-0.693
	c-0.581-0.497-0.95-1.233-0.95-2.057c0-1.496,1.213-2.708,2.708-2.708c1.496,0,2.708,1.212,2.708,2.708
	c0,0.823-0.369,1.559-0.948,2.056v0.669c0.874-0.579,1.453-1.569,1.453-2.696C13.022,10.281,11.574,8.833,9.788,8.833z"/>
<path fill="#FFFFFF" d="M17.964,20.011c-0.004-0.703-0.519-1.295-1.194-1.346c-0.407-0.031-0.78,0.145-1.038,0.437
	c-0.105-0.013-0.211-0.027-0.323-0.042c-0.198-0.408-0.584-0.703-1.049-0.738c-0.415-0.032-0.793,0.15-1.052,0.452
	c-0.102-0.014-0.202-0.028-0.303-0.042c-0.195-0.417-0.584-0.719-1.057-0.754c-0.415-0.031-0.796,0.152-1.054,0.457
	c-0.168-0.024-0.264-0.038-0.264-0.038v-5.154c0-0.445-0.362-0.808-0.808-0.808H9.797c-0.445,0-0.808,0.363-0.808,0.808v9.389
	l-0.804-0.947V18.97c0-0.445-0.363-0.808-0.808-0.808H7.353c-0.446,0-0.808,0.363-0.808,0.808v4.568
	c0,0.186,0.062,0.361,0.178,0.505c0.271,0.363,2.264,2.681,3.282,3.858l0.099,0.113v2.72c0,0.219,0.178,0.399,0.398,0.399h5.967
	c0.22,0,0.399-0.18,0.399-0.399v-2.691l0.068-0.101c0.286-0.432,1.028-1.727,1.028-2.521V20.011z"/>
<path fill="#FFFFFF" d="M10.193,7.747v0.167c0,0.142-0.114,0.257-0.257,0.257H9.682c-0.141,0-0.257-0.115-0.257-0.257L9.424,7.747
	L9.425,6.39C9.424,6.247,9.541,6.132,9.682,6.132h0.254c0.142,0,0.257,0.115,0.257,0.258V7.747z"/>
<path fill="#FFFFFF" d="M13.115,9.275l-0.118,0.118c-0.101,0.1-0.263,0.1-0.363,0l-0.18-0.18c-0.101-0.1-0.101-0.263,0-0.363
	l0.117-0.118l0.96-0.96c0.101-0.101,0.264-0.101,0.364,0l0.18,0.18c0.1,0.1,0.1,0.263,0,0.363L13.115,9.275z"/>
<path fill="#FFFFFF" d="M7.047,8.732L7.164,8.85c0.101,0.1,0.101,0.263,0,0.363l-0.179,0.18c-0.101,0.101-0.263,0.101-0.364,0
	L6.503,9.275l-0.96-0.96c-0.1-0.1-0.1-0.263,0-0.363l0.18-0.18c0.1-0.1,0.263-0.1,0.364,0L7.047,8.732z"/>
<path fill="#FFFFFF" d="M31.392,18.623c-0.01-0.017-0.99-1.717-2.405-4.079c-0.279-3.987-0.942-6.588-6.482-6.588v23.177h2.315
	c0.22,0,0.399-0.18,0.399-0.399v-2.689c2.145-0.029,3.744-0.295,3.744-2.827c0-0.249-0.124-0.483-0.331-0.623l-1.635-1.102v-0.319
	l1.582-0.263c0.362-0.06,0.628-0.373,0.628-0.741v-1.968l1.734-0.48c0.224-0.062,0.406-0.224,0.495-0.439
	C31.524,19.068,31.508,18.824,31.392,18.623 M28.07,15.741c0,0.189-0.152,0.342-0.342,0.342h-1.572v-0.361l1.66-0.866
	c0.146,0.039,0.254,0.166,0.254,0.324V15.741z"/>
<path fill="#FFFFFF" d="M33.006,21.609c-0.107-0.217-0.35-0.544-0.422-0.639l-0.007-0.008c-0.001-0.001-0.001-0.001-0.002-0.002
	l-0.031-0.038c-0.013-0.014-0.025-0.028-0.039-0.042c-0.024-0.025-0.054-0.05-0.085-0.072c-0.061-0.046-0.124-0.071-0.184-0.075
	h-0.013c-0.102,0-0.203,0.054-0.321,0.171c-0.116,0.118-0.179,0.229-0.188,0.33c-0.002,0.052,0.009,0.106,0.034,0.164
	c0.013,0.028,0.03,0.055,0.043,0.076c0.009,0.013,0.017,0.025,0.026,0.037l0.013,0.02l0.001-0.001l0.012,0.017l-0.001,0.001
	c0.099,0.111,0.309,0.448,0.341,0.512c0.145,0.272,0.257,0.553,0.329,0.837c0.072,0.285,0.112,0.594,0.115,0.891
	c-0.003,0.299-0.043,0.607-0.115,0.892c-0.072,0.283-0.184,0.565-0.33,0.838c-0.031,0.064-0.241,0.4-0.34,0.511l0.001,0.001
	l-0.012,0.016l-0.014,0.02c-0.009,0.012-0.017,0.024-0.025,0.037c-0.014,0.021-0.031,0.048-0.044,0.077
	c-0.025,0.057-0.036,0.111-0.034,0.164c0.009,0.099,0.074,0.213,0.188,0.328c0.124,0.123,0.231,0.181,0.335,0.172
	c0.059-0.004,0.122-0.029,0.183-0.074c0.033-0.025,0.061-0.048,0.086-0.073c0.013-0.013,0.025-0.028,0.038-0.042l0.028-0.034
	c0.002-0.003,0.005-0.006,0.008-0.01h0.001c0.068-0.088,0.317-0.424,0.424-0.642c0.185-0.343,0.324-0.698,0.416-1.055
	c0.093-0.367,0.142-0.746,0.145-1.126c-0.003-0.379-0.052-0.758-0.145-1.125C33.329,22.306,33.19,21.951,33.006,21.609"/>
<path fill="#FFFFFF" d="M31.323,22.281L31.323,22.281c-0.101-0.158-0.231-0.261-0.349-0.277c-0.009-0.001-0.018-0.001-0.027-0.001
	c-0.099,0-0.195,0.052-0.31,0.167c-0.111,0.112-0.179,0.229-0.193,0.327c-0.014,0.112,0.036,0.208,0.092,0.295
	c0.19,0.291,0.298,0.645,0.302,0.996c-0.004,0.352-0.112,0.706-0.302,0.998c-0.065,0.1-0.105,0.189-0.092,0.295
	c0.014,0.097,0.082,0.213,0.193,0.326c0.084,0.084,0.196,0.177,0.338,0.166c0.117-0.016,0.247-0.119,0.348-0.276
	c0.291-0.45,0.448-0.972,0.453-1.509C31.771,23.252,31.614,22.73,31.323,22.281"/>
<path fill="#008B5B" d="M8.051,14.094v-0.851c0-0.963,0.783-1.747,1.746-1.747c0.988,0,1.772,0.784,1.772,1.747v0.85
	c0.579-0.497,0.948-1.233,0.948-2.056c0-1.496-1.212-2.708-2.708-2.708c-1.495,0-2.708,1.212-2.708,2.708
	C7.101,12.861,7.47,13.597,8.051,14.094"/>
</svg>
