<?xml version="1.0" encoding="utf-8"?>
<!-- Generator: Adobe Illustrator 25.4.1, SVG Export Plug-In . SVG Version: 6.00 Build 0)  -->
<svg version="1.1" id="Layer_1" xmlns="http://www.w3.org/2000/svg" xmlns:xlink="http://www.w3.org/1999/xlink" x="0px" y="0px"
	 viewBox="0 0 239.5 239.5" style="enable-background:new 0 0 239.5 239.5;" xml:space="preserve">
<style type="text/css">
	.st0{fill:#25303B;}
</style>
<g>
	<path class="st0" d="M203.1,173.8c-7.1,0-17.1-0.9-17.6-1c2.7,1.8,12.7,11.9,12.7,11.9l39.4,39.4c2.5,2.5,2.5,6.6,0,9.1l-4.6,4.6
		c-2.5,2.5-6.6,2.5-9.1,0l-39.4-39.4c0,0-10.1-10.1-11.9-12.7c0.2,0.5,1,10.5,1,17.6l0,6.5c0,3.4-2.8,6.2-6.2,6.2h-6.2
		c-3.4,0-6.2-2.8-6.2-6.2v-54.4h54.4c3.4,0,6.2,2.8,6.2,6.2v6.2c0,3.4-2.8,6.2-6.2,6.2L203.1,173.8z M36.4,173.8
		c7.1,0,17.1-0.9,17.6-1c-2.7,1.8-12.7,11.9-12.7,11.9L1.9,224c-2.5,2.5-2.5,6.6,0,9.1l4.6,4.6c2.5,2.5,6.6,2.5,9.1,0l39.4-39.4
		c0,0,10.1-10.1,11.9-12.7c-0.2,0.5-1,10.5-1,17.6l0,6.5c0,3.4,2.8,6.2,6.2,6.2h6.2c3.4,0,6.2-2.8,6.2-6.2v-54.4H29.9
		c-3.4,0-6.2,2.8-6.2,6.2v6.2c0,3.4,2.8,6.2,6.2,6.2L36.4,173.8z M203.1,65.8c-7.1,0-17.1,0.9-17.6,1c2.7-1.8,12.7-11.9,12.7-11.9
		l39.4-39.4c2.5-2.5,2.5-6.6,0-9.1l-4.6-4.6c-2.5-2.5-6.6-2.5-9.1,0l-39.4,39.4c0,0-10.1,10.1-11.9,12.7c0.2-0.5,1-10.5,1-17.6
		l0-6.5c0-3.4-2.8-6.2-6.2-6.2h-6.2c-3.4,0-6.2,2.8-6.2,6.2v54.4h54.4c3.4,0,6.2-2.8,6.2-6.2v-6.2c0-3.4-2.8-6.2-6.2-6.2L203.1,65.8
		z M29.9,65.8c-3.4,0-6.2,2.8-6.2,6.2v6.2c0,3.4,2.8,6.2,6.2,6.2h54.4V29.9c0-3.4-2.8-6.2-6.2-6.2h-6.2c-3.4,0-6.2,2.8-6.2,6.2
		l0,6.5c0,7.1,0.9,17.1,1,17.6C65,51.3,54.9,41.3,54.9,41.3L15.5,1.9c-2.5-2.5-6.6-2.5-9.1,0L1.9,6.4c-2.5,2.5-2.5,6.6,0,9.1
		l39.4,39.4c0,0,10.1,10.1,12.7,11.9c-0.5-0.2-10.5-1-17.6-1L29.9,65.8z M119.8,148.1c7.8,0,16.2-1.3,21.7-6.6
		c5.3-5.5,6.6-13.9,6.6-21.7c0-7.8-1.3-16.2-6.6-21.7c-5.5-5.3-13.9-6.6-21.7-6.6c-7.8,0-16.2,1.3-21.7,6.6
		c-5.3,5.5-6.6,13.9-6.6,21.7c0,7.8,1.3,16.2,6.6,21.7C103.6,146.8,112,148.1,119.8,148.1"/>
</g>
</svg>
