<svg xmlns="http://www.w3.org/2000/svg" viewBox="0 0 28.14 25"><defs><style>.cls-1{fill:#008b5b;}</style></defs><g id="Layer_2" data-name="Layer 2"><g id="Layer_1-2" data-name="Layer 1"><path class="cls-1" d="M2.58,8V7.11a1.76,1.76,0,0,1,3.52,0V8A2.71,2.71,0,1,0,2.58,8"/><path class="cls-1" d="M12.5,13.88a1.34,1.34,0,0,0-1.2-1.35,1.27,1.27,0,0,0-1,.44l-.32,0a1.24,1.24,0,0,0-2.1-.29l-.3,0a1.27,1.27,0,0,0-1.06-.75,1.23,1.23,0,0,0-1.05.45l-.27,0V7.11a.81.81,0,0,0-.81-.81h0a.81.81,0,0,0-.81.81V16.5l-.8-.95V12.84A.81.81,0,0,0,1.91,12h0a.8.8,0,0,0-.8.81v4.57a.77.77,0,0,0,.18.5c.27.36,2.26,2.68,3.28,3.86l.1.11V24.6A.39.39,0,0,0,5,25h6a.4.4,0,0,0,.4-.4V21.91l.07-.1a6.3,6.3,0,0,0,1-2.52Z"/><path class="cls-1" d="M4.73,1.61v.17A.26.26,0,0,1,4.47,2H4.21A.26.26,0,0,1,4,1.78V.26A.25.25,0,0,1,4.21,0h.26a.26.26,0,0,1,.26.26Z"/><path class="cls-1" d="M7.65,3.14l-.12.12a.25.25,0,0,1-.36,0L7,3.08a.25.25,0,0,1,0-.36L7.1,2.6l1-1a.27.27,0,0,1,.37,0l.18.18a.25.25,0,0,1,0,.36Z"/><path class="cls-1" d="M1.58,2.6l.12.12a.25.25,0,0,1,0,.36l-.18.18a.27.27,0,0,1-.37,0L1,3.14l-1-1a.24.24,0,0,1,0-.36l.18-.18a.25.25,0,0,1,.36,0Z"/><path class="cls-1" d="M25.92,12.49s-1-1.72-2.4-4.08c-.28-4-.94-6.59-6.48-6.59V25h2.31a.4.4,0,0,0,.4-.4V21.91c2.15,0,3.75-.29,3.75-2.82a.77.77,0,0,0-.34-.63l-1.63-1.1V17l1.58-.26a.75.75,0,0,0,.63-.74v-2l1.73-.48a.74.74,0,0,0,.45-1.1M22.6,9.61a.34.34,0,0,1-.34.34H20.69V9.59l1.66-.87a.34.34,0,0,1,.25.33Z"/><path class="cls-1" d="M28.14,17.66A4.33,4.33,0,0,1,28,18.79a4,4,0,0,1-.42,1.06,5.28,5.28,0,0,1-.42.65h0v0l0,0,0,0-.09.08a.34.34,0,0,1-.21.08.49.49,0,0,1-.36-.18.62.62,0,0,1-.2-.36.38.38,0,0,1,0-.18.56.56,0,0,1,.05-.08l0,0v0h0a3.34,3.34,0,0,0,.34-.5,3.65,3.65,0,0,0,.32-.83,3.32,3.32,0,0,0,0-1.77,3.58,3.58,0,0,0-.32-.82,3.19,3.19,0,0,0-.34-.51h0v0l0,0a.56.56,0,0,1-.05-.08.38.38,0,0,1,0-.18.62.62,0,0,1,.2-.36.49.49,0,0,1,.36-.18.42.42,0,0,1,.21.08l.09.08,0,0,0,0v0h0a5.28,5.28,0,0,1,.42.65A4,4,0,0,1,28,16.52a4.35,4.35,0,0,1,.15,1.14"/><path class="cls-1" d="M25.89,16.13a.59.59,0,0,0-.38-.3.49.49,0,0,0-.37.18.68.68,0,0,0-.21.35.51.51,0,0,0,.1.32,1.73,1.73,0,0,1,0,1.95.51.51,0,0,0-.1.32.68.68,0,0,0,.21.35.46.46,0,0,0,.37.18.6.6,0,0,0,.38-.29,2.89,2.89,0,0,0,.46-1.53,2.83,2.83,0,0,0-.46-1.53"/></g></g></svg>