<?xml version="1.0" encoding="utf-8"?>
<!-- Generator: Adobe Illustrator 25.4.1, SVG Export Plug-In . SVG Version: 6.00 Build 0)  -->
<svg version="1.1" id="Layer_1" xmlns="http://www.w3.org/2000/svg" xmlns:xlink="http://www.w3.org/1999/xlink" x="0px" y="0px"
	 viewBox="0 0 99.2 99.3" style="enable-background:new 0 0 99.2 99.3;" xml:space="preserve">
<style type="text/css">
	.st0{fill:#64B5E5;}
	.st1{fill:#F79F83;}
	.st2{fill:#F8A084;}
	.st3{fill:#FDF1EE;}
	.st4{fill:#0F112A;}
	.st5{fill:#0F122B;}
	.st6{fill:#D7C2B6;}
	.st7{opacity:0.26;fill:#DAC3B6;enable-background:new    ;}
	.st8{fill:#25303B;}
</style>
<path class="st0" d="M22.6,0h54.1c12.5,0,22.6,10.1,22.6,22.6v54.1c0,12.5-10.1,22.6-22.6,22.6H22.6C10.1,99.2,0,89.1,0,76.6V22.6
	C0,10.1,10.1,0,22.6,0"/>
<g>
	<path class="st1" d="M40.1,60.2c0-0.1-0.1-0.1-0.1-0.2c0,0,0,0,0,0c-1.4-1.8-2.9-4.3-3.9-6.1C37,56.3,38.4,58.5,40.1,60.2
		C40.1,60.2,40.1,60.2,40.1,60.2C40.1,60.2,40.1,60.2,40.1,60.2C40.1,60.2,40.1,60.2,40.1,60.2C40.1,60.2,40.1,60.2,40.1,60.2z"/>
	<path class="st2" d="M35.4,51.6C35.4,51.6,35.4,51.6,35.4,51.6c0.3,0.6,2.1,4.2,4,7c0,0,0,0,0,0c0-0.1,0-0.2-0.1-0.2
		c-0.4-1.4-0.6-2.8-0.7-4.2c0-0.1,0-0.1,0-0.2c0-0.2,0-0.4,0-0.6c0-0.2,0-0.4,0-0.5c0-0.1,0-0.2,0-0.4c0-0.3,0-0.5,0-0.8
		c0,0,0-0.1,0-0.1c0-0.5,0-1,0-1.5c0-0.2,0-0.4,0-0.5c0-0.2,0-0.3,0-0.4c0-0.2,0-0.3,0-0.4c-0.1-0.3-0.2-0.6-0.3-1c0,0,0,0,0,0
		c-0.1,0-0.2,0.1-0.3,0.1C38,48,37.9,48,37.8,48.1c0,0,0,0-0.1,0c-0.1,0-0.2,0-0.3,0.1c-0.1,0-0.3,0-0.4,0c-1.6,0-2.9-1.3-2.9-2.9
		v-3.3c-0.4-0.1-1.2-0.3-2.2-0.2c-2.2,0.3-4,2-4.4,4.3c-0.4,2.7,1.5,5.2,4.3,5.6c0.4,0.1,0.9,0.1,1.3,0h1.7H35.4L35.4,51.6z"/>
</g>
<path class="st3" d="M69.5,46.9v0.4c0.5,0.4,0.7,0.9,0.4,1.9c-0.1,0-0.2,0-0.4,0c-0.7,0-2.4-0.5-6.2-2.3c-4.7-2.2-7.9-1.6-9.2-1.1
	c-0.7,0.3-1.5,0.5-2.3,0.6c-0.1,0-0.3,0-0.4,0.1c-0.4,0.1-0.8,0.2-1.3,0.2c-0.3,0-0.6,0.1-0.9,0.2c-0.6,0.1-1.3,0.2-2.1,0.4
	c-1.4,0.2-3,0.5-4.9,0.7c-0.6,0.1-1.2,0.2-1.8,0.2c-0.4,0-0.8,0.1-1.1,0.2c-0.1-0.3-0.2-0.6-0.3-0.8c-0.4-1.2-0.8-2.3-1.5-3.5
	c-1.4-2.2-4-3.7-5.2-3.1h0c-0.1,0.2-0.2,0.4-0.1,0.6c1-0.1,1.8,0.1,2.2,0.2c0.4,0.1,0.8,0.3,1.1,0.6c1.2,0.9,2.1,2.1,2.6,3.5
	c0.2,0.6,0.5,1.2,0.7,1.8c0.1,0.3,0.2,0.6,0.3,1c0,0.1,0,0.3,0,0.4c0,0.1,0,0.3,0,0.4c0,0.2,0,0.3,0,0.5c-0.1,2.1-0.1,5.4,0.8,8.4
	c0,0,0,0,0,0c-2.1-3-4.1-7-4.1-7h-0.5c0,0,2.7,5.4,5.1,8.4c0,0,0,0,0,0c0,0.1,0.1,0.3,0.1,0.3c0,0,0,0,0,0c0,0,0,0,0,0c0,0,0,0,0,0
	c0.2,0.4,0.4,0.8,0.7,1.2c0.5,0.7,1.1,1.5,1.8,2.3c2.3,2.7,5.7,5.3,10.7,5.2c2.6-0.1,5.7-1,9.3-3c0,0,5.9-4,6.7-7.4l0.7-8.8
	C70.6,48.1,70.2,47.5,69.5,46.9z"/>
<path class="st2" d="M53.3,68.9v3.9c-1.4,2.7-4.7,3.7-7.3,2.3l-3.3-1.7v-9.7C45,66.4,48.3,69.1,53.3,68.9z"/>
<path class="st1" d="M69.5,29.4v19.8c-0.7,0-2.4-0.5-6.2-2.3c-4.7-2.2-7.9-1.6-9.2-1.1c-0.7,0.3-1.5,0.5-2.3,0.6
	c-0.1,0-0.3,0-0.4,0.1c-0.4,0.1-0.8,0.2-1.3,0.2c-0.3,0-0.6,0.1-0.9,0.2c-0.6,0.1-1.3,0.2-2.1,0.4c-1.4,0.2-3,0.5-4.9,0.7
	c-0.6,0.1-1.2,0.2-1.8,0.2c-0.4,0-0.8,0.1-1.1,0.2c-0.1-0.3-0.2-0.6-0.3-0.8c0.7-0.5,1.2-1.4,1.2-2.3v-2.1c0.4-2.3,2.4-3.9,4.7-3.9
	v-5.8c0.4-2.3,2.3-3.9,4.6-3.9H69.5z"/>
<path class="st4" d="M38.4,47.8C38.4,47.8,38.4,47.8,38.4,47.8c-0.1,0.1-0.2,0.1-0.3,0.1C38,48,37.9,48,37.8,48.1c0,0,0,0-0.1,0
	c-0.1,0-0.2,0-0.3,0.1c-0.1,0-0.3,0-0.4,0c-1.6,0-2.9-1.3-2.9-2.9v-3.3c0.4,0.1,0.8,0.3,1.1,0.6c1.2,0.9,2.1,2.1,2.6,3.5
	C38,46.6,38.2,47.2,38.4,47.8z"/>
<path class="st5" d="M75.7,23.8c-0.3,3.2-3,5.6-6.3,5.7H49.3c-2.3,0-4.3,1.7-4.6,3.9v5.8c-2.3,0-4.3,1.6-4.7,3.9v2.1
	c0,1-0.5,1.8-1.2,2.3c-0.4-1.2-0.8-2.3-1.5-3.5c-1.4-2.2-4-3.7-5.2-3.1V27.9c0,0,0,0,0-0.1v-3c-0.1-1.6-0.7-3.1-1.8-4.3l-1.6-1.6
	c2.2-0.7,4.7,0.1,6.1,2c2.7-3.5,6.8-5.6,11.3-5.6h28.5c-0.3,3.2-1.7,6.2-4,8.5H75.7z"/>
<path class="st2" d="M69.5,29.4v19.8c-0.7,0-2.4-0.5-6.2-2.3c-4.7-2.2-7.9-1.6-9.2-1.1c-0.7,0.3-1.5,0.5-2.3,0.6
	c-0.1,0-0.3,0-0.4,0.1c-0.4,0.1-0.8,0.2-1.3,0.2c-0.3,0-0.6,0.1-0.9,0.2c-0.6,0.1-1.3,0.2-2.1,0.4c-1.4,0.2-3,0.5-4.9,0.7
	c-0.6,0.1-1.2,0.2-1.8,0.2c-0.4,0-0.8,0.1-1.1,0.2c-0.1-0.3-0.2-0.6-0.3-0.8c0.7-0.5,1.2-1.4,1.2-2.3v-2.1c0.4-2.3,2.4-3.9,4.7-3.9
	v-5.8c0.4-2.3,2.3-3.9,4.6-3.9H69.5z"/>
<path class="st6" d="M38.7,50.8v0.4c2-0.4,8.9-0.2,10.8-0.8c3.1-0.9,4.7-2,7.8-1.9c2.6,0.1,4.1,0.8,6.5,1.5l1.2,0.4
	c2.5,0.7,2.6,0.8,5,0.4c0-0.1,0-0.2,0-0.4c-2.4,0.4-2.5,0.4-5-0.4l-1.2-0.3c-2.3-0.7-3.9-1.5-6.5-1.6c-3.1-0.1-4.7,1-7.9,1.9
	C47.5,50.6,40.7,50.5,38.7,50.8z"/>
<path class="st6" d="M40.1,60c0.1,0.2,0.3,0.4,0.4,0.6l0,0c4.6,1.7,12.2,3,16.7,2.7l0.9-0.1c3.7-0.2,7.3-1.4,10.4-3.5
	c0.1-0.2,0.2-0.4,0.4-0.6c-3.2,2.2-6.9,3.5-10.8,3.7C53.3,63.4,45.2,61.9,40.1,60z"/>
<path class="st7" d="M38.9,54.3l0.1,0.6c2.7,0.5,7.3,0.7,9.9,0.9c2.9,0.2,6.3-0.7,9-0.7s5.3,0.7,7.8,0.4c1.3-0.1,2.7-0.3,4-0.7
	c0-0.2,0-0.3,0-0.5l-4,0c-2.5,0-5.1-0.7-7.8-0.8s-6,0.9-9,0.9C46.3,54.4,41.7,54.4,38.9,54.3z"/>
<path class="st8" d="M62.6,39.3c0,0.7,0.5,1.2,1.2,1.2c0,0,0,0,0.1,0c0.7,0,1.2-0.5,1.2-1.2c0,0,0,0,0,0c0-0.7-0.5-1.2-1.2-1.2
	C63.2,38.1,62.6,38.6,62.6,39.3C62.6,39.3,62.6,39.3,62.6,39.3z"/>
<path class="st8" d="M51,39.3c0,0.7,0.5,1.2,1.2,1.2s1.2-0.5,1.2-1.2c0,0,0,0,0,0c0-0.7-0.5-1.2-1.2-1.2S51,38.7,51,39.3
	C51,39.3,51,39.3,51,39.3z"/>
<path class="st8" d="M72.2,76c0,0-18.9-3.3-18.9-3.3c-1.4,2.7-4.7,3.7-7.3,2.3l-3.3-1.7l-19.9,2.9c-1.9,0.2-3.7,1.5-4.6,3.6
	C16,85,14,91,12.8,97c2.9,1.4,6.3,2.2,9.7,2.2h54.1c2.3,0,4.6-0.4,6.7-1c-2-6.5-4.6-13-7.6-19.1C75.1,77.6,73.7,76.5,72.2,76z"/>
</svg>
