<?xml version="1.0" encoding="utf-8"?>
<!-- Generator: Adobe Illustrator 25.4.1, SVG Export Plug-In . SVG Version: 6.00 Build 0)  -->
<svg version="1.1" id="Layer_2" xmlns="http://www.w3.org/2000/svg" xmlns:xlink="http://www.w3.org/1999/xlink" x="0px" y="0px"
	 viewBox="0 0 87.379 87.379" enable-background="new 0 0 87.379 87.379" xml:space="preserve">
<polygon fill="#FFFFFF" points="36.017,18.916 36.017,15.538 33.282,17.331 "/>
<polygon fill="#FFFFFF" points="24.27,12.106 28.97,9.025 25.899,7.211 21.172,10.31 "/>
<polygon fill="#FFFFFF" points="68.876,29.587 66.054,31.436 66.054,35.851 70.736,32.782 70.736,28.368 68.877,29.587 "/>
<polygon fill="#FFFFFF" points="65.304,35.895 65.304,32.516 62.569,34.309 "/>
<polygon fill="#FFFFFF" points="20.833,9.635 25.513,6.567 25.513,4.473 25.513,2.152 20.833,5.221 "/>
<polygon fill="#FFFFFF" points="46.921,4.926 44.539,3.545 44.539,14.851 46.921,16.232 "/>
<path fill="#FFFFFF" d="M43.489,23.248l4.48,2.597V2.122l-3.662-2.123h-0.819V23.248z M43.976,2.569c0.118-0.068,0.26-0.066,0.376,0
	l3.132,1.815c0.115,0.067,0.187,0.19,0.187,0.324v12.173c0,0.134-0.071,0.258-0.188,0.325c-0.059,0.034-0.123,0.05-0.188,0.05
	c-0.065,0-0.13-0.017-0.188-0.051l-3.132-1.816c-0.115-0.067-0.187-0.19-0.187-0.324V2.894C43.789,2.76,43.86,2.636,43.976,2.569z"
	/>
<polygon fill="#FFFFFF" points="26.263,4.256 39.371,11.855 41.449,10.493 41.449,1.753 38.423,-0.001 26.263,-0.001 26.263,1.458 
	"/>
<polygon fill="#FFFFFF" points="25.513,1.255 25.513,-0.001 22.708,-0.001 22.708,3.095 "/>
<polygon fill="#FFFFFF" points="81.407,24.917 79.024,23.536 79.024,34.842 81.407,36.223 "/>
<path fill="#FFFFFF" d="M72.743,40.206l4.481,2.598V19.081l-4.481-2.598V40.206z M73.044,19.853c0-0.134,0.071-0.258,0.188-0.325
	c0.119-0.067,0.261-0.066,0.376,0l3.132,1.815c0.115,0.067,0.187,0.19,0.187,0.324v12.173c0,0.134-0.071,0.258-0.188,0.325
	c-0.059,0.034-0.123,0.05-0.188,0.05c-0.065,0-0.13-0.017-0.188-0.051L73.23,32.35c-0.115-0.067-0.187-0.19-0.187-0.324V19.853z"/>
<polygon fill="#FFFFFF" points="49.77,26.41 54.451,23.342 54.451,21.248 54.451,18.928 49.77,21.996 "/>
<polygon fill="#FFFFFF" points="76.176,21.885 73.794,20.504 73.794,31.81 76.176,33.191 "/>
<path fill="#FFFFFF" d="M77.974,43.24l4.48,2.598V22.114l-4.48-2.597V43.24z M78.274,22.885c0-0.134,0.071-0.258,0.188-0.325
	c0.118-0.068,0.26-0.065,0.376,0l3.133,1.816c0.115,0.067,0.187,0.19,0.187,0.324v12.173c0,0.134-0.071,0.258-0.188,0.325
	c-0.059,0.034-0.123,0.05-0.188,0.05c-0.065,0-0.13-0.017-0.188-0.051l-3.133-1.815c-0.115-0.067-0.187-0.19-0.187-0.324V22.885z"/>
<polygon fill="#FFFFFF" points="52.152,19.264 52.152,7.958 49.77,6.577 49.77,17.883 "/>
<path fill="#FFFFFF" d="M49.207,18.424c-0.115-0.067-0.187-0.19-0.187-0.324V5.926c0-0.134,0.071-0.258,0.188-0.325
	c0.119-0.067,0.261-0.066,0.376,0l3.132,1.816c0.115,0.067,0.187,0.19,0.187,0.324v11.304l0.299-0.196V5.155l-4.481-2.598V26.28
	l0.301,0.174v-4.661c0-0.126,0.063-0.244,0.169-0.313l2.482-1.627L49.207,18.424z"/>
<polygon fill="#FFFFFF" points="70.736,27.471 70.736,18.731 55.201,9.725 55.201,18.233 55.201,21.032 68.659,28.833 "/>
<polygon fill="#FFFFFF" points="53.208,28.881 57.908,25.8 54.837,23.986 50.109,27.085 "/>
<path fill="#25303B" d="M87.38,19.66c0-10.858-8.802-19.66-19.66-19.66H45.803L87.38,24.102V19.66z"/>
<g>
	<path fill="#92979D" d="M45.803-0.001h-1.495l3.662,2.123v23.723l-4.48-2.597V-0.001h-0.75v23.464c0,0.016,0.007,0.029,0.009,0.044
		c0.003,0.026,0.007,0.052,0.016,0.077c0.008,0.022,0.018,0.042,0.03,0.062c0.012,0.021,0.024,0.041,0.041,0.06
		c0.017,0.019,0.036,0.034,0.056,0.05c0.013,0.01,0.021,0.023,0.035,0.031l6.281,3.641l3.824,2.217
		c0.059,0.034,0.124,0.051,0.188,0.051c0.071,0,0.144-0.021,0.206-0.062l5.397-3.539c0.107-0.071,0.172-0.193,0.169-0.322
		s-0.073-0.248-0.185-0.314l-3.606-2.13v-1.432l12.756,7.394l-2.483,1.628c-0.105,0.069-0.169,0.187-0.169,0.313v0.385l-3.655,2.397
		c-0.108,0.071-0.173,0.194-0.169,0.324s0.074,0.249,0.187,0.314l3.824,2.217c0.002,0.001,0.003,0,0.005,0.001
		c0.002,0.001,0.003,0.003,0.005,0.005c0.057,0.03,0.117,0.045,0.179,0.045c0.069,0,0.135-0.022,0.194-0.058
		c0.004-0.002,0.008-0.001,0.012-0.004l5.432-3.561c0.105-0.069,0.169-0.187,0.169-0.313v-5.311v-9.159
		c0-0.134-0.071-0.257-0.187-0.324L55.014,8.75c-0.116-0.066-0.257-0.068-0.376,0c-0.116,0.067-0.188,0.19-0.188,0.325v8.956
		l-0.5,0.328V5.59l18.042,10.459v24.374c0,0.134,0.071,0.257,0.187,0.324l10.462,6.065c0.059,0.034,0.123,0.051,0.188,0.051
		c0.064,0,0.129-0.017,0.188-0.05c0.116-0.067,0.188-0.191,0.188-0.325V22.548l4.175,2.42v-0.867L45.803-0.001z M65.304,35.895
		l-2.735-1.586l2.735-1.793V35.895z M70.736,32.782l-4.682,3.069v-4.415l2.822-1.849c0,0,0,0,0,0l1.859-1.219V32.782z
		 M55.201,18.233V9.725l15.535,9.006v8.74l-2.078,1.362l-13.458-7.801V18.233z M49.189,21.48c-0.105,0.069-0.169,0.187-0.169,0.313
		v4.661l-0.301-0.174V2.557l4.481,2.598V18.85l-0.299,0.196V7.742c0-0.134-0.071-0.257-0.187-0.324l-3.132-1.816
		c-0.115-0.066-0.257-0.068-0.376,0c-0.116,0.067-0.188,0.19-0.188,0.325V18.1c0,0.134,0.071,0.257,0.187,0.324l2.465,1.429
		L49.189,21.48z M52.152,7.958v11.306l-2.382-1.381V6.577L52.152,7.958z M54.837,23.986l3.071,1.814l-4.7,3.082l-3.099-1.796
		L54.837,23.986z M54.451,18.928v2.32v2.094L49.77,26.41v-4.414L54.451,18.928z M77.224,42.805l-4.481-2.598V16.483l4.481,2.598
		V42.805z M82.455,45.837l-4.48-2.598V19.516l4.48,2.597V45.837z"/>
	<path fill="#92979D" d="M43.975,15.391l3.132,1.816c0.059,0.034,0.123,0.051,0.188,0.051c0.064,0,0.129-0.017,0.188-0.05
		c0.116-0.067,0.188-0.19,0.188-0.325V4.709c0-0.134-0.071-0.257-0.187-0.324L44.352,2.57c-0.116-0.067-0.258-0.068-0.376,0
		c-0.116,0.067-0.188,0.19-0.188,0.325v12.173C43.789,15.201,43.86,15.324,43.975,15.391z M44.539,3.545l2.382,1.381v11.306
		l-2.382-1.381V3.545z"/>
	<path fill="#92979D" d="M76.362,34.166c0.059,0.034,0.123,0.051,0.188,0.051c0.064,0,0.129-0.017,0.188-0.05
		c0.116-0.067,0.188-0.19,0.188-0.325V21.668c0-0.134-0.071-0.257-0.187-0.324l-3.132-1.815c-0.115-0.066-0.257-0.068-0.376,0
		c-0.116,0.067-0.188,0.19-0.188,0.325v12.173c0,0.134,0.071,0.257,0.187,0.324L76.362,34.166z M73.794,20.504l2.382,1.381v11.306
		l-2.382-1.381V20.504z"/>
	<path fill="#92979D" d="M81.594,37.198c0.059,0.034,0.123,0.051,0.188,0.051c0.064,0,0.129-0.017,0.188-0.05
		c0.116-0.067,0.188-0.19,0.188-0.325V24.701c0-0.134-0.071-0.257-0.187-0.324l-3.133-1.816c-0.116-0.066-0.258-0.068-0.376,0
		c-0.116,0.067-0.188,0.19-0.188,0.325v12.173c0,0.134,0.071,0.257,0.187,0.324L81.594,37.198z M79.024,23.536l2.383,1.381v11.306
		l-2.383-1.381V23.536z"/>
	<path fill="#92979D" d="M20.252,4.705c-0.105,0.069-0.169,0.187-0.169,0.313v5.304c0,0.025,0.002,0.051,0.006,0.075
		c0.002,0.007,0.001,0.001,0.001,0.001c0.003,0.018,0.008,0.035,0.014,0.052c0.026,0.078,0.078,0.146,0.151,0.194
		c0,0,0.001,0,0.001,0c0.005,0.003,0.011,0.006,0.016,0.009l3.822,2.216c0.059,0.034,0.124,0.051,0.188,0.051
		c0.071,0,0.144-0.021,0.206-0.062l5.397-3.539c0.107-0.071,0.172-0.193,0.169-0.322s-0.073-0.248-0.185-0.314l-3.606-2.13V5.123
		l12.406,7.192l-2.483,1.627c-0.105,0.069-0.169,0.187-0.169,0.313v0.385l-3.655,2.397c-0.108,0.071-0.173,0.194-0.169,0.324
		s0.074,0.249,0.187,0.314l3.824,2.217c0.002,0.001,0.004,0.001,0.006,0.002c0.002,0.001,0.002,0.003,0.004,0.004
		c0.056,0.03,0.117,0.045,0.179,0.045c0.068,0,0.134-0.021,0.193-0.057c0.004-0.002,0.008-0.001,0.012-0.004l5.432-3.538
		c0.105-0.069,0.17-0.188,0.17-0.314V13.71v-3.015V1.538c0-0.134-0.071-0.257-0.187-0.324l-2.094-1.214h-1.495l3.026,1.754v8.74
		l-2.078,1.362L26.263,4.256V1.458v-1.459h-0.75v1.256l-2.806,1.839v-3.095h-0.75v3.587L20.252,4.705z M36.017,18.916l-2.735-1.586
		l2.735-1.793V18.916z M41.449,11.39v4.436l-4.682,3.049v-4.417L41.449,11.39z M25.899,7.211l3.071,1.814l-4.7,3.082l-3.099-1.796
		L25.899,7.211z M25.513,2.152v2.32v2.094l-4.681,3.068V5.221L25.513,2.152z"/>
</g>
<polygon fill="#FFFFFF" points="41.449,15.826 36.767,18.875 36.767,14.458 41.449,11.39 "/>
<path fill="#25303B" d="M82.955,67.608c0.059,0.034,0.123,0.051,0.188,0.051c0.064,0,0.129-0.017,0.188-0.05
	c0.116-0.067,0.188-0.191,0.188-0.325V55.111c0-0.134-0.071-0.258-0.187-0.324L67.48,45.597c-0.115-0.067-0.257-0.067-0.376-0.001
	c-0.116,0.067-0.188,0.191-0.188,0.325v12.173c0,0.134,0.071,0.258,0.187,0.324L82.955,67.608z M67.667,46.572l15.102,8.755v11.307
	l-15.102-8.755V46.572z"/>
<polygon fill="#D3D6D8" points="61.824,54.492 63.123,55.244 63.123,43.938 61.824,43.186 "/>
<polygon fill="#D3D6D8" points="67.667,46.572 82.768,55.327 82.768,66.633 67.667,57.879 "/>
<g>
	<path fill="#25303B" d="M-0.005,46.316v21.403c0,10.858,8.802,19.66,19.661,19.66h48.059c0.935,0,1.847-0.088,2.747-0.214
		L-0.005,46.316z"/>
</g>
<path fill="#D3D6D8" d="M17.213,28.631V17.324L3.099,9.142c-0.355,0.554-0.688,1.123-0.988,1.712v9.022L17.213,28.631z"/>
<path fill="#25303B" d="M1.548,20.416l15.852,9.189c0.059,0.034,0.123,0.051,0.188,0.051c0.064,0,0.129-0.017,0.188-0.05
	c0.116-0.067,0.188-0.191,0.188-0.325V17.108c0-0.134-0.071-0.258-0.187-0.324L3.517,8.518C3.374,8.723,3.235,8.931,3.099,9.142
	l14.114,8.182v11.307L2.111,19.876v-9.022c-0.274,0.539-0.526,1.091-0.75,1.657v7.58C1.361,20.226,1.433,20.35,1.548,20.416z"/>
<path fill="#D3D6D8" d="M64.926,42.581v22.714l20.14,11.675c1.473-2.757,2.314-5.904,2.314-9.249V55.597L64.926,42.581z
	 M83.523,67.286c0,0.134-0.071,0.258-0.188,0.325c-0.059,0.033-0.123,0.05-0.188,0.05c-0.065,0-0.13-0.017-0.188-0.051
	l-15.852-9.189c-0.115-0.066-0.187-0.19-0.187-0.324V45.924c0-0.134,0.071-0.258,0.188-0.325c0.119-0.066,0.261-0.066,0.376,0.001
	l15.852,9.189c0.115,0.066,0.187,0.19,0.187,0.324V67.286z"/>
<path fill="#FFFFFF" d="M-0.005,31.066v15.25l70.494,40.865c5.303-0.752,9.918-3.623,12.977-7.727L-0.005,31.066z"/>
<path fill="#D3D6D8" d="M64.176,42.146l-2.352-1.363v1.536l1.866,1.082c0.115,0.067,0.187,0.19,0.187,0.324v12.173
	c0,0.134-0.071,0.258-0.188,0.325c-0.059,0.034-0.123,0.05-0.188,0.05c-0.065,0-0.13-0.017-0.188-0.051l-1.489-0.863v8.138
	l2.352,1.363V42.146z"/>
<path fill="#FFFFFF" d="M60.181,54.406c-0.115-0.067-0.187-0.19-0.187-0.324V41.908c0-0.134,0.071-0.258,0.188-0.325
	c0.045-0.025,0.094-0.031,0.142-0.037v-1.633l-0.629-0.365v22.714l0.629,0.365v-8.138L60.181,54.406z"/>
<polygon fill="#FFFFFF" points="48.254,56.497 48.254,59.042 60.324,66.039 60.324,63.494 "/>
<path fill="#D3D6D8" d="M84.684,77.616L61.824,64.364v2.545l21.641,12.546C83.904,78.866,84.311,78.252,84.684,77.616z"/>
<polygon fill="none" points="63.123,43.939 61.824,43.186 61.824,54.492 63.123,55.245 "/>
<path fill="none" d="M61.824,42.319l1.862,1.079c0.115,0.067,0.187,0.19,0.187,0.324v12.173c0,0.134-0.071,0.258-0.188,0.325
	c-0.059,0.033-0.123,0.05-0.188,0.05c-0.065,0-0.13-0.017-0.188-0.051l-1.485-0.861v8.139l2.348,1.361V42.144l-2.348-1.361V42.319z"
	/>
<path fill="none" d="M59.69,62.26l0.634,0.367v-8.138l-0.147-0.085c-0.115-0.066-0.187-0.19-0.187-0.324V41.907
	c0-0.134,0.071-0.258,0.188-0.325c0.046-0.026,0.096-0.033,0.146-0.039v-1.63l-0.634-0.367V62.26z"/>
<polygon fill="#FCE2E5" points="20.021,40.13 20.021,42.675 25.556,45.884 25.556,43.339 "/>
<polygon fill="#FCE2E5" points="26.556,43.919 26.556,46.463 32.091,49.672 32.091,47.127 "/>
<polygon fill="#D3D6D8" points="46.754,55.628 33.591,47.997 33.591,50.542 46.754,58.173 "/>
<g>
	<path fill="#25303B" d="M56.692,41.451c0.42,0,0.874-0.07,1.17-0.357c0.289-0.298,0.358-0.751,0.358-1.172
		c0-0.42-0.069-0.874-0.358-1.17c-0.296-0.289-0.75-0.358-1.17-0.358c-0.421,0-0.875,0.069-1.172,0.358
		c-0.287,0.296-0.357,0.75-0.357,1.17c0,0.421,0.07,0.874,0.357,1.172C55.817,41.381,56.271,41.451,56.692,41.451z"/>
	<path fill="#25303B" d="M58.94,52.537l-0.568-3.683v-4.203l0.568,0.521v-1.867l-0.315-0.289l-0.988-0.906
		c-0.109-0.099-0.233-0.175-0.369-0.229c-0.137-0.053-0.281-0.08-0.427-0.08h-0.03c-0.302,0-0.605,0.071-0.875,0.204l-0.123,0.06
		c-0.4,0.198-0.725,0.528-0.915,0.932l-0.488,1.033c-0.002,0.005-0.005,0.01-0.007,0.015l-0.599,1.357l-1.671,0.948l-0.25,0.143
		c-0.165,0.093-0.327,0.22-0.38,0.399c-0.047,0.18,0.026,0.373,0.12,0.538c0.093,0.165,0.221,0.327,0.4,0.379
		c0.18,0.047,0.374-0.027,0.538-0.119l0.412-0.234l0.001-0.001l1.644-0.932c0.088-0.051,0.167-0.115,0.236-0.19
		c0.069-0.076,0.125-0.162,0.167-0.255l0.029-0.068l-0.286,11.601c-0.006,0.237,0.027,0.493,0.184,0.664
		c0.164,0.166,0.417,0.211,0.654,0.217c0.236,0.018,0.494-0.002,0.673-0.151c0.173-0.154,0.232-0.405,0.25-0.641l0.319-4.2v-1.744
		l0.287,1.029l0.15,0.536c0.033,0.108,0.06,0.216,0.091,0.325l0.004,0.024l1.132,3.364c0.076,0.225,0.194,0.454,0.4,0.561
		c0.01,0.005,0.022,0.002,0.032,0.006V52.537z"/>
</g>
<path fill="#FFFFFF" d="M49.15,45.44h-4.052l0.113-0.113c0.246-0.246,0.381-0.572,0.38-0.919c0-0.347-0.136-0.672-0.38-0.914
	l-0.39-0.39c-0.245-0.245-0.57-0.38-0.917-0.38c-0.001,0-0.002,0-0.003,0c-0.347,0-0.672,0.136-0.913,0.38l-3.941,3.982l3.94,3.897
	c0.244,0.245,0.569,0.38,0.917,0.38c0.346,0,0.671-0.134,0.918-0.38l0.388-0.389c0.245-0.244,0.381-0.569,0.381-0.916
	c0.001-0.348-0.135-0.674-0.381-0.92l-0.111-0.111h4.051c0.726,0,1.316-0.591,1.316-1.317v-0.572
	C50.466,46.031,49.875,45.44,49.15,45.44z M49.716,47.33c0,0.313-0.254,0.567-0.567,0.567l-4.501,0c0,0-1.265,0.004-1.544-0.053
	c0.042,0.023,0.722,0.592,1.168,1.039l0.409,0.408c0.214,0.214,0.214,0.56,0,0.773l-0.39,0.391c-0.214,0.213-0.56,0.213-0.773,0
	l-3.411-3.411l3.411-3.409c0.213-0.214,0.559-0.214,0.773,0l0.39,0.39c0.214,0.213,0.214,0.559,0,0.773l-0.409,0.408
	c-0.446,0.446-1.126,1.015-1.168,1.039c0.279-0.058,1.544-0.053,1.544-0.053l4.501,0c0.313,0,0.567,0.254,0.567,0.568V47.33z"/>
<path fill="#25303B" d="M49.716,47.33c0,0.313-0.254,0.567-0.567,0.567l-4.501,0c0,0-1.265,0.004-1.544-0.053
	c0.042,0.023,0.722,0.592,1.168,1.039l0.409,0.408c0.214,0.214,0.214,0.56,0,0.773l-0.39,0.391c-0.214,0.213-0.56,0.213-0.773,0
	l-3.411-3.411l3.411-3.41c0.213-0.214,0.559-0.214,0.773,0l0.39,0.39c0.214,0.213,0.214,0.559,0,0.773l-0.409,0.408
	c-0.446,0.446-1.126,1.015-1.168,1.039c0.279-0.058,1.544-0.053,1.544-0.053l4.501,0c0.313,0,0.567,0.254,0.567,0.568V47.33z"/>
<path fill="#FFFFFF" d="M49.642,33.721v11.819c0.482,0.196,0.824,0.666,0.824,1.218v0.572c0,0.552-0.342,1.022-0.824,1.218v7.887
	l9.303,5.393V39.113L49.642,33.721z M55.52,38.752c0.297-0.289,0.751-0.358,1.172-0.358c0.42,0,0.874,0.069,1.17,0.358
	c0.289,0.296,0.358,0.75,0.358,1.17c0,0.421-0.069,0.874-0.358,1.172c-0.296,0.287-0.75,0.357-1.17,0.357
	c-0.421,0-0.875-0.07-1.172-0.357c-0.287-0.298-0.357-0.751-0.357-1.172C55.163,39.502,55.233,39.048,55.52,38.752z M58.94,45.173
	l-0.568-0.521v4.203l0.568,3.683v5.064c-0.01-0.004-0.022-0.002-0.032-0.006c-0.206-0.107-0.324-0.336-0.4-0.561l-1.132-3.364
	l-0.004-0.024c-0.031-0.109-0.058-0.217-0.091-0.325l-0.15-0.536l-0.287-1.029v1.744l-0.319,4.2
	c-0.018,0.236-0.077,0.487-0.25,0.641c-0.179,0.149-0.437,0.169-0.673,0.151c-0.237-0.006-0.49-0.051-0.654-0.217
	c-0.157-0.171-0.19-0.427-0.184-0.664l0.286-11.601l-0.029,0.068c-0.042,0.093-0.098,0.179-0.167,0.255
	c-0.069,0.075-0.148,0.139-0.236,0.19l-1.644,0.932l-0.001,0.001l-0.412,0.234c-0.164,0.092-0.358,0.166-0.538,0.119
	c-0.179-0.052-0.307-0.214-0.4-0.379c-0.094-0.165-0.167-0.358-0.12-0.538c0.053-0.179,0.215-0.306,0.38-0.399l0.25-0.143
	l1.671-0.948l0.599-1.357c0.002-0.005,0.005-0.01,0.007-0.015l0.488-1.033c0.19-0.404,0.515-0.734,0.915-0.932l0.123-0.06
	c0.27-0.133,0.573-0.204,0.875-0.204h0.03c0.146,0,0.29,0.027,0.427,0.08c0.136,0.054,0.26,0.13,0.369,0.229l0.988,0.906
	l0.315,0.289V45.173z"/>
<path fill="#25303B" d="M45.457,45.004V44.96c-0.063,0.132-0.139,0.26-0.246,0.367l-0.113,0.113h1.111L45.457,45.004z"/>
<g>
	<path fill="#FFFFFF" d="M48.593,34.864V45.44h0.299V33.286l-0.638-0.37v1.536l0.152,0.088
		C48.522,34.607,48.593,34.73,48.593,34.864z"/>
	<polygon fill="#FFFFFF" points="48.254,48.647 48.254,55.63 48.892,56 48.892,48.647 	"/>
</g>
<path fill="#D3D6D8" d="M45.591,44.407c0.001,0.197-0.053,0.382-0.135,0.554v0.041l0.753,0.437h0.544v-10.99l-1.298-0.752v10.16
	C45.538,44.028,45.591,44.211,45.591,44.407z"/>
<g>
	<path fill="#D3D6D8" d="M44.71,43.029v-9.981c0-0.134,0.071-0.258,0.188-0.325c0.118-0.067,0.26-0.065,0.376,0l1.48,0.858v-1.536
		l-2.343-1.358v12.14C44.521,42.875,44.616,42.952,44.71,43.029z"/>
	<path fill="#D3D6D8" d="M45.099,48.647l0.111,0.111c0.246,0.246,0.382,0.572,0.381,0.92c0,0.347-0.136,0.672-0.381,0.916
		l-0.388,0.389c-0.12,0.12-0.26,0.211-0.411,0.275v2.144l2.343,1.358v-6.113H45.099z"/>
</g>
<path fill="#EB2132" d="M35.472,22.977c-0.25,0.015-0.498,0.093-0.721,0.239l-19.576,12.83c-0.681,0.446-0.87,1.361-0.424,2.043
	c0.3,0.458,0.812,0.695,1.322,0.665c0.25-0.015,0.497-0.094,0.722-0.24l19.574-12.829c0.682-0.447,0.872-1.362,0.425-2.044
	C36.494,23.183,35.983,22.947,35.472,22.977z"/>
<path fill="#FFFFFF" d="M37.422,23.231c-0.436-0.664-1.2-1.049-1.994-1.002c-0.387,0.023-0.764,0.147-1.088,0.36l-14.449,9.47
	l-0.723,0.474l-4.404,2.886c-0.049,0.032-0.088,0.073-0.133,0.108c-0.251,0.194-0.45,0.431-0.593,0.697
	c-0.122,0.226-0.205,0.467-0.244,0.718c-0.081,0.525,0.015,1.08,0.328,1.558c0.437,0.665,1.201,1.05,1.995,1.003
	c0.386-0.023,0.763-0.148,1.089-0.361l19.574-12.83C37.807,25.639,38.094,24.258,37.422,23.231z M36.369,25.685L16.795,38.514
	c-0.225,0.147-0.473,0.225-0.722,0.24c-0.51,0.03-1.022-0.207-1.322-0.665c-0.446-0.682-0.257-1.597,0.424-2.043l19.576-12.83
	c0.223-0.146,0.472-0.224,0.721-0.239c0.51-0.03,1.022,0.206,1.322,0.664C37.241,24.323,37.051,25.238,36.369,25.685z"/>
<path fill="#FFFFFF" d="M83.201,22.548v23.939c0,0.134-0.071,0.258-0.188,0.325c-0.059,0.033-0.123,0.05-0.188,0.05
	c-0.065,0-0.13-0.017-0.188-0.051l-10.462-6.065c-0.115-0.067-0.187-0.19-0.187-0.324V16.049L53.947,5.59v12.769l0.5-0.328V9.075
	c0-0.134,0.071-0.258,0.188-0.325c0.119-0.067,0.26-0.066,0.376,0l16.285,9.44c0.115,0.067,0.187,0.19,0.187,0.324v9.159v5.311
	c0,0.126-0.063,0.244-0.169,0.313l-5.432,3.561c-0.004,0.002-0.008,0.001-0.012,0.004c-0.059,0.036-0.125,0.058-0.194,0.058
	c-0.062,0-0.122-0.015-0.179-0.045c-0.002-0.001-0.003-0.003-0.005-0.005c-0.002-0.001-0.004,0-0.005-0.001l-3.824-2.217
	c-0.112-0.065-0.183-0.184-0.187-0.314s0.061-0.252,0.169-0.324l3.655-2.397v-0.385c0-0.126,0.063-0.244,0.169-0.313l2.483-1.628
	l-12.756-7.394v1.432l3.606,2.13c0.111,0.066,0.182,0.185,0.185,0.314s-0.062,0.251-0.169,0.322l-5.397,3.539
	c-0.062,0.041-0.135,0.062-0.206,0.062c-0.064,0-0.13-0.017-0.188-0.051l-3.824-2.217l-6.281-3.641
	c-0.014-0.008-0.022-0.021-0.035-0.031c-0.02-0.016-0.04-0.031-0.056-0.05c-0.016-0.019-0.028-0.039-0.041-0.06
	c-0.012-0.02-0.022-0.04-0.03-0.062c-0.009-0.025-0.012-0.051-0.016-0.077c-0.002-0.015-0.009-0.029-0.009-0.044V-0.001h-2.821
	l2.094,1.214c0.115,0.067,0.187,0.19,0.187,0.324v9.158v3.015v2.319c0,0.127-0.064,0.245-0.17,0.314l-5.432,3.538
	c-0.004,0.002-0.008,0.001-0.012,0.004c-0.059,0.036-0.125,0.057-0.193,0.057c-0.062,0-0.123-0.015-0.179-0.045
	c-0.002-0.001-0.002-0.003-0.004-0.004c-0.002-0.001-0.004-0.001-0.006-0.002l-3.824-2.217c-0.112-0.065-0.183-0.184-0.187-0.314
	s0.061-0.252,0.169-0.324l3.655-2.397v-0.385c0-0.126,0.063-0.244,0.169-0.313l2.483-1.627L26.259,5.123v1.432l3.606,2.13
	c0.111,0.066,0.182,0.185,0.185,0.314s-0.062,0.251-0.169,0.322l-5.397,3.539c-0.062,0.041-0.135,0.062-0.206,0.062
	c-0.064,0-0.13-0.017-0.188-0.051l-3.822-2.216c-0.005-0.003-0.011-0.006-0.016-0.009c0,0-0.001,0-0.001,0
	c-0.073-0.047-0.125-0.116-0.151-0.194c-0.006-0.017-0.011-0.035-0.014-0.052c0,0,0.001,0.006-0.001-0.001
	c-0.004-0.024-0.006-0.05-0.006-0.075V5.018c0-0.126,0.063-0.244,0.169-0.313l1.706-1.119v-3.587h-2.298
	c-5.305,0-10.086,2.135-13.62,5.554l28.922,16.766c0.154-0.043,0.31-0.081,0.47-0.09c0.794-0.047,1.558,0.338,1.994,1.002
	c0.141,0.215,0.23,0.447,0.289,0.684l49.665,28.791V24.968L83.201,22.548z"/>
<path fill="#D3D6D8" d="M17.206,39.142c-0.326,0.213-0.702,0.338-1.089,0.361c-0.794,0.047-1.558-0.338-1.995-1.003
	c-0.313-0.478-0.41-1.033-0.328-1.558c0.019-0.126,0.05-0.249,0.091-0.368l-13.89-8.052v2.545l18.525,10.739v-2.545l-0.794-0.46
	L17.206,39.142z"/>
<g>
	<path fill="#25303B" d="M18.521,32.957l0.648-0.425l0.723-0.474l0.129-0.085V16.549l0.429,0.248v14.895l0.75-0.492V17.233
		l4.357,2.525v8.588l1-0.655v-7.353l4.355,2.525v1.974l0.75-0.492v-1.047l0.43,0.249v0.516l2.25-1.474
		c0.19-0.124,0.4-0.208,0.617-0.27L6.004,5.534C5.39,6.127,4.817,6.759,4.285,7.427l14.236,8.253V32.957z"/>
	<path fill="#25303B" d="M87.38,55.597v-2.889L37.71,23.915c0.218,0.879-0.111,1.833-0.897,2.37l6.842,3.967v1.535l-8.081-4.685
		l-1.436,0.941v11.05c0,0.134,0.071,0.258,0.187,0.324l7.823,4.535l0.545-0.551l-7.805-4.525V27.57l8.767,5.083v0.001v10.119
		c0.082-0.016,0.16-0.049,0.246-0.049c0.001,0,0.002,0,0.003,0c0.175,0,0.345,0.035,0.502,0.101V30.686l2.348,1.361v1.536
		l-1.483-0.86c-0.115-0.067-0.257-0.068-0.376,0c-0.116,0.067-0.188,0.19-0.188,0.325v9.98c0.036,0.029,0.081,0.043,0.115,0.077
		l0.39,0.39c0.107,0.106,0.183,0.232,0.246,0.365V33.697l1.297,0.752v10.99h1.835V34.862c0-0.134-0.071-0.257-0.187-0.324
		l-0.148-0.086v-1.536l0.634,0.367V45.44h0.262c0.173,0,0.336,0.038,0.488,0.099v-11.82l9.303,5.393v22.714l-9.303-5.393v-7.884
		c-0.151,0.061-0.315,0.099-0.488,0.099h-0.262v7.35l-0.634-0.367v-6.983h-1.5v6.113L44.406,53.4v-2.138
		c-0.157,0.066-0.326,0.101-0.502,0.101c-0.087,0-0.165-0.033-0.248-0.049v1.651L33.591,47.13V28.402l-1.5,0.983V46.26L31.641,46
		c0.005-0.026,0.02-0.048,0.02-0.075V29.667l-0.75,0.492V45.58l-4.355-2.525V33.013l-1,0.655v8.806l-4.357-2.526v-3.424l-0.75,0.492
		v2.496l-0.429-0.248v-1.966l-1.5,0.983v0.113l-0.092-0.053l-0.702,0.46l0.794,0.46v2.545l1.5,0.87V40.13l5.535,3.209v2.545l1,0.58
		v-2.545l5.535,3.209v2.545l1.5,0.87v-2.545l10.065,5.835v0l3.098,1.796v2.545l1.5,0.87v-2.545l12.07,6.997v2.545l1.5,0.87v-2.545
		l22.859,13.252c0.126-0.216,0.26-0.427,0.378-0.648l-20.14-11.675V42.578L87.38,55.597z M60.324,41.544
		c-0.05,0.006-0.1,0.013-0.146,0.039c-0.116,0.067-0.188,0.19-0.188,0.325V54.08c0,0.134,0.071,0.258,0.187,0.324l0.147,0.085v8.138
		L59.69,62.26V39.546l0.634,0.367V41.544z M61.824,43.186l1.299,0.753v11.306l-1.299-0.753V43.186z M64.172,64.858l-2.348-1.361
		v-8.139l1.485,0.861c0.059,0.034,0.123,0.051,0.188,0.051c0.064,0,0.129-0.017,0.188-0.05c0.116-0.067,0.188-0.191,0.188-0.325
		V43.722c0-0.134-0.071-0.257-0.187-0.324l-1.862-1.079v-1.536l2.348,1.361V64.858z"/>
	<path fill="#25303B" d="M14.038,36.224c0.059-0.109,0.133-0.209,0.21-0.307L0,27.657l-0.004-0.002v0.867L0,28.524l13.885,8.049
		C13.926,36.453,13.977,36.336,14.038,36.224z"/>
</g>
<g>
	<path fill="#D3D6D8" d="M39.047,47.086l3.102-3.134l-7.819-4.533c-0.115-0.066-0.187-0.19-0.187-0.324V28.04l-0.552,0.362V47.13
		l10.069,5.837v-1.652c-0.251-0.049-0.488-0.147-0.673-0.332L39.047,47.086z"/>
	<path fill="#D3D6D8" d="M36.814,26.284c-0.012,0.008-0.022,0.02-0.034,0.028l-1.204,0.789l8.085,4.687v-1.535L36.814,26.284z"/>
</g>
<path fill="#D3D6D8" d="M34.889,27.57v11.307l7.805,4.525l0.295-0.298c0.182-0.183,0.418-0.282,0.668-0.331v-10.12L34.889,27.57z"/>
<g>
	<polygon fill="#FCE2E5" points="32.091,24.063 32.091,23.546 31.665,23.3 31.665,24.342 	"/>
	<polygon fill="#FCE2E5" points="31.665,29.664 31.665,46.013 32.091,46.26 32.091,29.385 	"/>
</g>
<g>
	<path fill="#FCE2E5" d="M26.735,27.573V22.63c0-0.134,0.071-0.258,0.188-0.325c0.118-0.068,0.26-0.065,0.376,0l3.133,1.816
		c0.115,0.067,0.187,0.19,0.187,0.324v0.583l0.298-0.195v-1.969l-4.36-2.527v7.353L26.735,27.573z"/>
	<path fill="#FCE2E5" d="M30.617,30.351v6.268c0,0.134-0.071,0.258-0.188,0.325c-0.059,0.034-0.123,0.05-0.188,0.05
		c-0.065,0-0.13-0.017-0.188-0.051l-3.133-1.815c-0.115-0.067-0.187-0.19-0.187-0.324v-1.907l-0.179,0.117v10.041l4.36,2.527V30.156
		L30.617,30.351z"/>
</g>
<g>
	<path fill="#25303B" d="M27.48,27.085v-3.806l2.383,1.381v0.863l0.75-0.492v-0.588c0-0.134-0.071-0.257-0.187-0.324l-3.133-1.816
		c-0.116-0.066-0.258-0.068-0.376,0c-0.116,0.067-0.188,0.19-0.188,0.325v4.949L27.48,27.085z"/>
	<path fill="#25303B" d="M29.863,30.845v5.12l-2.383-1.381v-2.177l-0.75,0.492v1.902c0,0.134,0.071,0.257,0.187,0.324l3.133,1.815
		c0.059,0.034,0.123,0.051,0.188,0.051c0.064,0,0.129-0.017,0.188-0.05c0.116-0.067,0.188-0.19,0.188-0.325v-6.263L29.863,30.845z"
		/>
</g>
<g>
	<path fill="#FCE2E5" d="M25.222,33.887c-0.009,0.007-0.014,0.018-0.024,0.024c-0.007,0.004-0.014,0.002-0.021,0.006l-3.974,2.605
		v3.43l4.352,2.524v-8.806L25.222,33.887z"/>
	<path fill="#FCE2E5" d="M21.504,31.001V19.598c0-0.134,0.071-0.258,0.188-0.325c0.119-0.067,0.261-0.066,0.376,0l3.132,1.815
		c0.115,0.067,0.187,0.19,0.187,0.324v7.044l0.17-0.111v-8.588l-4.352-2.523v13.964L21.504,31.001z"/>
</g>
<g>
	<polygon fill="#25303B" points="25.186,33.911 25.194,33.909 25.203,33.9 	"/>
	<path fill="#25303B" d="M22.25,30.513V20.246l2.382,1.381v7.325l0.75-0.492v-7.049c0-0.134-0.071-0.257-0.187-0.324l-3.132-1.815
		c-0.115-0.066-0.257-0.068-0.376,0c-0.116,0.067-0.188,0.19-0.188,0.325v11.409L22.25,30.513z"/>
</g>
<polygon fill="#FCE2E5" points="24.632,28.952 24.632,21.627 22.25,20.246 22.25,30.513 "/>
<g>
	<path fill="#D3D6D8" d="M14.631,35.527c0.046-0.035,0.085-0.076,0.133-0.108l3.756-2.462V15.68L4.317,7.446
		C4.043,7.797,3.776,8.154,3.521,8.52l14.259,8.266c0.115,0.066,0.187,0.19,0.187,0.324v12.173c0,0.134-0.071,0.258-0.188,0.325
		c-0.059,0.033-0.123,0.05-0.188,0.05c-0.065,0-0.13-0.017-0.188-0.051L1.552,20.418c-0.115-0.066-0.187-0.19-0.187-0.324v-7.58
		C0.489,14.727,0,17.134,0,19.662v7.995l14.248,8.26C14.359,35.775,14.483,35.641,14.631,35.527z"/>
	<polygon fill="#D3D6D8" points="18.429,38.34 18.521,38.393 18.521,38.28 	"/>
</g>
<g>
	<polygon fill="#FCE2E5" points="20.453,31.69 20.453,16.8 20.021,16.549 20.021,31.974 	"/>
	<polygon fill="#FCE2E5" points="20.021,37.297 20.021,39.263 20.453,39.514 20.453,37.013 	"/>
</g>
<g>
	<polygon fill="#FCE2E5" points="29.863,25.523 29.863,24.66 27.48,23.278 27.48,27.085 	"/>
	<polygon fill="#FCE2E5" points="27.48,32.407 27.48,34.585 29.863,35.965 29.863,30.845 	"/>
</g>
</svg>
