<?xml version="1.0" encoding="utf-8"?>
<!-- Generator: Adobe Illustrator 25.4.1, SVG Export Plug-In . SVG Version: 6.00 Build 0)  -->
<svg version="1.1" id="Layer_2" xmlns="http://www.w3.org/2000/svg" xmlns:xlink="http://www.w3.org/1999/xlink" x="0px" y="0px"
	 viewBox="0 0 87.379 87.379" enable-background="new 0 0 87.379 87.379" xml:space="preserve">
<polygon fill="#FFFFFF" points="36.017,18.916 36.017,15.538 33.282,17.331 "/>
<polygon fill="#FFFFFF" points="24.27,12.106 28.97,9.025 25.899,7.211 21.172,10.31 "/>
<polygon fill="#FFFFFF" points="68.876,29.587 66.054,31.436 66.054,35.851 70.736,32.782 70.736,28.368 68.877,29.587 "/>
<polygon fill="#FFFFFF" points="65.304,35.895 65.304,32.516 62.569,34.309 "/>
<polygon fill="#FFFFFF" points="20.833,9.635 25.513,6.567 25.513,4.473 25.513,2.152 20.833,5.221 "/>
<polygon fill="#FFFFFF" points="46.921,4.926 44.539,3.545 44.539,14.851 46.921,16.232 "/>
<path fill="#FFFFFF" d="M43.489,23.248l4.48,2.597V2.122l-3.662-2.123h-0.819V23.248z M43.976,2.569c0.118-0.068,0.26-0.066,0.376,0
	l3.132,1.815c0.115,0.067,0.187,0.19,0.187,0.324v12.173c0,0.134-0.071,0.258-0.188,0.325c-0.059,0.034-0.123,0.05-0.188,0.05
	c-0.065,0-0.13-0.017-0.188-0.051l-3.132-1.816c-0.115-0.067-0.187-0.19-0.187-0.324V2.894C43.789,2.76,43.86,2.636,43.976,2.569z"
	/>
<polygon fill="#FFFFFF" points="26.263,4.256 39.371,11.855 41.449,10.493 41.449,1.753 38.423,-0.001 26.263,-0.001 26.263,1.458 
	"/>
<polygon fill="#FFFFFF" points="25.513,1.255 25.513,-0.001 22.708,-0.001 22.708,3.095 "/>
<polygon fill="#FFFFFF" points="81.407,24.917 79.024,23.536 79.024,34.842 81.407,36.223 "/>
<path fill="#FFFFFF" d="M72.743,40.206l4.481,2.598V19.081l-4.481-2.598V40.206z M73.044,19.853c0-0.134,0.071-0.258,0.188-0.325
	c0.119-0.067,0.261-0.066,0.376,0l3.132,1.815c0.115,0.067,0.187,0.19,0.187,0.324v12.173c0,0.134-0.071,0.258-0.188,0.325
	c-0.059,0.034-0.123,0.05-0.188,0.05c-0.065,0-0.13-0.017-0.188-0.051L73.23,32.35c-0.115-0.067-0.187-0.19-0.187-0.324V19.853z"/>
<polygon fill="#FFFFFF" points="49.77,26.41 54.451,23.342 54.451,21.248 54.451,18.928 49.77,21.996 "/>
<polygon fill="#FFFFFF" points="76.176,21.885 73.794,20.504 73.794,31.81 76.176,33.191 "/>
<path fill="#FFFFFF" d="M77.974,43.24l4.48,2.598V22.114l-4.48-2.597V43.24z M78.274,22.885c0-0.134,0.071-0.258,0.188-0.325
	c0.118-0.068,0.26-0.065,0.376,0l3.133,1.816c0.115,0.067,0.187,0.19,0.187,0.324v12.173c0,0.134-0.071,0.258-0.188,0.325
	c-0.059,0.034-0.123,0.05-0.188,0.05c-0.065,0-0.13-0.017-0.188-0.051l-3.133-1.815c-0.115-0.067-0.187-0.19-0.187-0.324V22.885z"/>
<polygon fill="#FFFFFF" points="52.152,19.264 52.152,7.958 49.77,6.577 49.77,17.883 "/>
<path fill="#FFFFFF" d="M49.207,18.424c-0.115-0.067-0.187-0.19-0.187-0.324V5.926c0-0.134,0.071-0.258,0.188-0.325
	c0.119-0.067,0.261-0.066,0.376,0l3.132,1.816c0.115,0.067,0.187,0.19,0.187,0.324v11.304l0.299-0.196V5.155l-4.481-2.598V26.28
	l0.301,0.174v-4.661c0-0.126,0.063-0.244,0.169-0.313l2.482-1.627L49.207,18.424z"/>
<polygon fill="#FFFFFF" points="70.736,27.471 70.736,18.731 55.201,9.725 55.201,18.233 55.201,21.032 68.659,28.833 "/>
<polygon fill="#FFFFFF" points="53.208,28.881 57.908,25.8 54.837,23.986 50.109,27.085 "/>
<path fill="#25303B" d="M87.38,19.66c0-10.858-8.802-19.66-19.66-19.66H45.803L87.38,24.102V19.66z"/>
<path fill="#FFFFFF" d="M64.922,65.293l20.14,11.675c1.473-2.757,2.314-5.904,2.314-9.249V54.586L64.922,41.57V65.293z
	 M66.917,45.921c0-0.134,0.071-0.258,0.188-0.325c0.119-0.066,0.261-0.066,0.376,0.001l15.852,9.189
	c0.115,0.066,0.187,0.19,0.187,0.324v12.173c0,0.134-0.071,0.258-0.188,0.325c-0.059,0.033-0.123,0.05-0.188,0.05
	c-0.065,0-0.13-0.017-0.188-0.051l-15.852-9.189c-0.115-0.066-0.187-0.19-0.187-0.324V45.921z"/>
<path fill="#25303B" d="M82.955,67.608c0.059,0.034,0.123,0.051,0.188,0.051c0.064,0,0.129-0.017,0.188-0.05
	c0.116-0.067,0.188-0.191,0.188-0.325V55.111c0-0.134-0.071-0.258-0.187-0.324L67.48,45.597c-0.115-0.067-0.257-0.067-0.376-0.001
	c-0.116,0.067-0.188,0.191-0.188,0.325v12.173c0,0.134,0.071,0.258,0.187,0.324L82.955,67.608z M67.667,46.572l15.102,8.755v11.307
	l-15.102-8.755V46.572z"/>
<path fill="#25303B" d="M63.31,56.219c0.059,0.034,0.123,0.051,0.188,0.051c0.064,0,0.129-0.017,0.188-0.05
	c0.116-0.067,0.188-0.191,0.188-0.325V43.722c0-0.134-0.071-0.257-0.187-0.324l-3.132-1.815c-0.116-0.066-0.258-0.068-0.376,0
	c-0.116,0.067-0.188,0.19-0.188,0.325V54.08c0,0.134,0.071,0.258,0.187,0.324L63.31,56.219z M60.741,42.558l2.382,1.381v11.306
	l-2.382-1.381V42.558z"/>
<path fill="#FFFFFF" d="M59.691,38.538V62.26l4.48,2.597V41.135L59.691,38.538z M63.873,55.895c0,0.134-0.071,0.258-0.188,0.325
	c-0.059,0.034-0.123,0.05-0.188,0.05c-0.065,0-0.13-0.017-0.188-0.051l-3.133-1.816c-0.115-0.067-0.187-0.19-0.187-0.324V41.906
	c0-0.134,0.071-0.258,0.188-0.325c0.118-0.067,0.26-0.065,0.376,0l3.133,1.816c0.115,0.067,0.187,0.19,0.187,0.324V55.895z"/>
<polygon fill="#FFFFFF" points="60.74,53.863 63.123,55.244 63.123,43.938 60.74,42.557 "/>
<polygon fill="#FFFFFF" points="67.667,46.572 82.768,55.327 82.768,66.633 67.667,57.879 "/>
<polygon fill="none" points="59.69,62.26 64.172,64.858 64.172,41.135 59.69,38.537 "/>
<g>
	<path fill="#25303B" d="M-0.005,46.316v21.403c0,10.858,8.802,19.66,19.661,19.66h48.059c0.935,0,1.847-0.088,2.747-0.214
		L-0.005,46.316z"/>
</g>
<path fill="#FFFFFF" d="M17.213,28.631V17.324L3.099,9.142c-0.355,0.554-0.688,1.123-0.988,1.712v9.022L17.213,28.631z"/>
<path fill="#25303B" d="M1.548,20.416l15.852,9.189c0.059,0.034,0.123,0.051,0.188,0.051c0.064,0,0.129-0.017,0.188-0.05
	c0.116-0.067,0.188-0.191,0.188-0.325V17.108c0-0.134-0.071-0.258-0.187-0.324L3.517,8.518C3.374,8.723,3.235,8.931,3.099,9.142
	l14.114,8.182v11.307L2.111,19.876v-9.022c-0.274,0.539-0.526,1.091-0.75,1.657v7.58C1.361,20.226,1.433,20.35,1.548,20.416z"/>
<g>
	<path fill="#92979D" d="M45.803-0.001h-1.495l3.662,2.123v23.723l-4.48-2.597V-0.001h-0.75v23.464c0,0.016,0.007,0.029,0.009,0.044
		c0.003,0.026,0.007,0.052,0.016,0.077c0.008,0.022,0.018,0.042,0.03,0.062c0.012,0.021,0.024,0.041,0.041,0.06
		c0.017,0.019,0.036,0.034,0.056,0.05c0.013,0.01,0.021,0.023,0.035,0.031l6.281,3.641l3.824,2.217
		c0.059,0.034,0.124,0.051,0.188,0.051c0.071,0,0.144-0.021,0.206-0.062l5.397-3.539c0.107-0.071,0.172-0.193,0.169-0.322
		s-0.073-0.248-0.185-0.314l-3.606-2.13v-1.432l12.756,7.394l-2.483,1.628c-0.105,0.069-0.169,0.187-0.169,0.313v0.385l-3.655,2.397
		c-0.108,0.071-0.173,0.194-0.169,0.324s0.074,0.249,0.187,0.314l3.824,2.217c0.002,0.001,0.003,0,0.005,0.001
		c0.002,0.001,0.003,0.003,0.005,0.005c0.057,0.03,0.117,0.045,0.179,0.045c0.069,0,0.135-0.022,0.194-0.058
		c0.004-0.002,0.008-0.001,0.012-0.004l5.432-3.561c0.105-0.069,0.169-0.187,0.169-0.313v-5.311v-9.159
		c0-0.134-0.071-0.257-0.187-0.324L55.014,8.75c-0.116-0.066-0.257-0.068-0.376,0c-0.116,0.067-0.188,0.19-0.188,0.325v8.956
		l-0.5,0.328V5.59l18.042,10.459v24.374c0,0.134,0.071,0.257,0.187,0.324l10.462,6.065c0.059,0.034,0.123,0.051,0.188,0.051
		c0.064,0,0.129-0.017,0.188-0.05c0.116-0.067,0.188-0.191,0.188-0.325V22.548l4.175,2.42v-0.867L45.803-0.001z M65.304,35.895
		l-2.735-1.586l2.735-1.793V35.895z M70.736,32.782l-4.682,3.069v-4.415l2.822-1.849c0,0,0,0,0,0l1.859-1.219V32.782z
		 M55.201,18.233V9.725l15.535,9.006v8.74l-2.078,1.362l-13.458-7.801V18.233z M49.189,21.48c-0.105,0.069-0.169,0.187-0.169,0.313
		v4.661l-0.301-0.174V2.557l4.481,2.598V18.85l-0.299,0.196V7.742c0-0.134-0.071-0.257-0.187-0.324l-3.132-1.816
		c-0.115-0.066-0.257-0.068-0.376,0c-0.116,0.067-0.188,0.19-0.188,0.325V18.1c0,0.134,0.071,0.257,0.187,0.324l2.465,1.429
		L49.189,21.48z M52.152,7.958v11.306l-2.382-1.381V6.577L52.152,7.958z M54.837,23.986l3.071,1.814l-4.7,3.082l-3.099-1.796
		L54.837,23.986z M54.451,18.928v2.32v2.094L49.77,26.41v-4.414L54.451,18.928z M77.224,42.805l-4.481-2.598V16.483l4.481,2.598
		V42.805z M82.455,45.837l-4.48-2.598V19.516l4.48,2.597V45.837z"/>
	<path fill="#92979D" d="M43.975,15.391l3.132,1.816c0.059,0.034,0.123,0.051,0.188,0.051c0.064,0,0.129-0.017,0.188-0.05
		c0.116-0.067,0.188-0.19,0.188-0.325V4.709c0-0.134-0.071-0.257-0.187-0.324L44.352,2.57c-0.116-0.067-0.258-0.068-0.376,0
		c-0.116,0.067-0.188,0.19-0.188,0.325v12.173C43.789,15.201,43.86,15.324,43.975,15.391z M44.539,3.545l2.382,1.381v11.306
		l-2.382-1.381V3.545z"/>
	<path fill="#92979D" d="M76.362,34.166c0.059,0.034,0.123,0.051,0.188,0.051c0.064,0,0.129-0.017,0.188-0.05
		c0.116-0.067,0.188-0.19,0.188-0.325V21.668c0-0.134-0.071-0.257-0.187-0.324l-3.132-1.815c-0.115-0.066-0.257-0.068-0.376,0
		c-0.116,0.067-0.188,0.19-0.188,0.325v12.173c0,0.134,0.071,0.257,0.187,0.324L76.362,34.166z M73.794,20.504l2.382,1.381v11.306
		l-2.382-1.381V20.504z"/>
	<path fill="#92979D" d="M81.594,37.198c0.059,0.034,0.123,0.051,0.188,0.051c0.064,0,0.129-0.017,0.188-0.05
		c0.116-0.067,0.188-0.19,0.188-0.325V24.701c0-0.134-0.071-0.257-0.187-0.324l-3.133-1.816c-0.116-0.066-0.258-0.068-0.376,0
		c-0.116,0.067-0.188,0.19-0.188,0.325v12.173c0,0.134,0.071,0.257,0.187,0.324L81.594,37.198z M79.024,23.536l2.383,1.381v11.306
		l-2.383-1.381V23.536z"/>
	<path fill="#92979D" d="M20.252,4.705c-0.105,0.069-0.169,0.187-0.169,0.313v5.304c0,0.025,0.002,0.051,0.006,0.075
		c0.002,0.007,0.001,0.001,0.001,0.001c0.003,0.018,0.008,0.035,0.014,0.052c0.026,0.078,0.078,0.146,0.151,0.194
		c0,0,0.001,0,0.001,0c0.005,0.003,0.011,0.006,0.016,0.009l3.822,2.216c0.059,0.034,0.124,0.051,0.188,0.051
		c0.071,0,0.144-0.021,0.206-0.062l5.397-3.539c0.107-0.071,0.172-0.193,0.169-0.322s-0.073-0.248-0.185-0.314l-3.606-2.13V5.123
		l12.406,7.192l-2.483,1.627c-0.105,0.069-0.169,0.187-0.169,0.313v0.385l-3.655,2.397c-0.108,0.071-0.173,0.194-0.169,0.324
		s0.074,0.249,0.187,0.314l3.824,2.217c0.002,0.001,0.004,0.001,0.006,0.002c0.002,0.001,0.002,0.003,0.004,0.004
		c0.056,0.03,0.117,0.045,0.179,0.045c0.068,0,0.134-0.021,0.193-0.057c0.004-0.002,0.008-0.001,0.012-0.004l5.432-3.538
		c0.105-0.069,0.17-0.188,0.17-0.314V13.71v-3.015V1.538c0-0.134-0.071-0.257-0.187-0.324l-2.094-1.214h-1.495l3.026,1.754v8.74
		l-2.078,1.362L26.263,4.256V1.458v-1.459h-0.75v1.256l-2.806,1.839v-3.095h-0.75v3.587L20.252,4.705z M36.017,18.916l-2.735-1.586
		l2.735-1.793V18.916z M41.449,11.39 M41.449,11.39v4.436l-4.682,3.049v-4.417L41.449,11.39z M25.899,7.211l3.071,1.814l-4.7,3.082
		l-3.099-1.796L25.899,7.211z M25.513,2.152v2.32v2.094l-4.681,3.068V5.221L25.513,2.152z"/>
</g>
<polygon fill="#FFFFFF" points="41.449,15.826 36.767,18.875 36.767,14.458 41.449,11.39 "/>
<path fill="#EB2132" d="M35.464,22.973c-0.25,0.015-0.498,0.093-0.721,0.239l-19.576,12.83c-0.681,0.446-0.87,1.361-0.424,2.043
	c0.3,0.458,0.812,0.695,1.322,0.665c0.25-0.015,0.497-0.094,0.722-0.24L36.361,25.68c0.682-0.447,0.872-1.362,0.425-2.044
	C36.486,23.179,35.974,22.942,35.464,22.973z"/>
<path fill="#FFFFFF" d="M37.414,23.226c-0.436-0.664-1.2-1.049-1.994-1.002c-0.387,0.023-0.764,0.147-1.088,0.36l-14.449,9.47
	l-0.723,0.474l-4.404,2.886c-0.049,0.032-0.088,0.073-0.133,0.108c-0.251,0.194-0.45,0.431-0.593,0.697
	c-0.122,0.226-0.205,0.467-0.244,0.718c-0.081,0.525,0.015,1.08,0.328,1.558c0.437,0.665,1.201,1.05,1.995,1.003
	c0.386-0.023,0.763-0.148,1.089-0.361l19.574-12.83C37.798,25.634,38.085,24.253,37.414,23.226z M36.361,25.68L16.787,38.509
	c-0.225,0.147-0.473,0.225-0.722,0.24c-0.51,0.03-1.022-0.207-1.322-0.665c-0.446-0.682-0.257-1.597,0.424-2.043l19.576-12.83
	c0.223-0.146,0.472-0.224,0.721-0.239c0.51-0.03,1.022,0.206,1.322,0.664C37.233,24.318,37.042,25.233,36.361,25.68z"/>
<path fill="#FFFFFF" d="M83.201,22.548v23.939c0,0.134-0.071,0.258-0.188,0.325c-0.059,0.033-0.123,0.05-0.188,0.05
	c-0.065,0-0.13-0.017-0.188-0.051l-10.462-6.065c-0.115-0.067-0.187-0.19-0.187-0.324V16.049L53.947,5.59v12.769l0.5-0.328V9.075
	c0-0.134,0.071-0.258,0.188-0.325c0.119-0.067,0.26-0.066,0.376,0l16.285,9.44c0.115,0.067,0.187,0.19,0.187,0.324v9.159v5.311
	c0,0.126-0.063,0.244-0.169,0.313l-5.432,3.561c-0.004,0.002-0.008,0.001-0.012,0.004c-0.059,0.036-0.125,0.058-0.194,0.058
	c-0.062,0-0.122-0.015-0.179-0.045c-0.002-0.001-0.003-0.003-0.005-0.005c-0.002-0.001-0.004,0-0.005-0.001l-3.824-2.217
	c-0.112-0.065-0.183-0.184-0.187-0.314s0.061-0.252,0.169-0.324l3.655-2.397v-0.385c0-0.126,0.063-0.244,0.169-0.313l2.483-1.628
	l-12.756-7.394v1.432l3.606,2.13c0.111,0.066,0.182,0.185,0.185,0.314s-0.062,0.251-0.169,0.322l-5.397,3.539
	c-0.062,0.041-0.135,0.062-0.206,0.062c-0.064,0-0.13-0.017-0.188-0.051l-3.824-2.217l-6.281-3.641
	c-0.014-0.008-0.022-0.021-0.035-0.031c-0.02-0.016-0.04-0.031-0.056-0.05c-0.016-0.019-0.028-0.039-0.041-0.06
	c-0.012-0.02-0.022-0.04-0.03-0.062c-0.009-0.025-0.012-0.051-0.016-0.077c-0.002-0.015-0.009-0.029-0.009-0.044V-0.001h-2.821
	l2.094,1.214c0.115,0.067,0.187,0.19,0.187,0.324v9.158v3.015v2.319c0,0.127-0.064,0.245-0.17,0.314l-5.432,3.538
	c-0.004,0.002-0.008,0.001-0.012,0.004c-0.059,0.036-0.125,0.057-0.193,0.057c-0.062,0-0.123-0.015-0.179-0.045
	c-0.002-0.001-0.002-0.003-0.004-0.004c-0.002-0.001-0.004-0.001-0.006-0.002l-3.824-2.217c-0.112-0.065-0.183-0.184-0.187-0.314
	s0.061-0.252,0.169-0.324l3.655-2.397v-0.385c0-0.126,0.063-0.244,0.169-0.313l2.483-1.627L26.259,5.123v1.432l3.606,2.13
	c0.111,0.066,0.182,0.185,0.185,0.314s-0.062,0.251-0.169,0.322l-5.397,3.539c-0.062,0.041-0.135,0.062-0.206,0.062
	c-0.064,0-0.13-0.017-0.188-0.051l-3.822-2.216c-0.005-0.003-0.011-0.006-0.016-0.009c0,0-0.001,0-0.001,0
	c-0.073-0.047-0.125-0.116-0.151-0.194c-0.006-0.017-0.011-0.035-0.014-0.052c0,0,0.001,0.006-0.001-0.001
	c-0.004-0.024-0.006-0.05-0.006-0.075V5.018c0-0.126,0.063-0.244,0.169-0.313l1.706-1.119v-3.587h-2.298
	c-5.634,0-10.694,2.388-14.278,6.186l28.641,16.603l0.313-0.205c0.324-0.212,0.7-0.337,1.088-0.36
	c0.794-0.047,1.558,0.338,1.994,1.002c0.343,0.524,0.433,1.14,0.305,1.708l49.657,28.786V24.968L83.201,22.548z"/>
<path fill="#25303B" d="M20.449,31.683l0.75-0.492V16.224l4.481,2.598v9.432l0.75-0.492v-8.506l4.48,2.597v2.972l0.75-0.492v-2.046
	l1.656,0.96l0.702-0.46L5.37,6.181C5.195,6.365,5.039,6.567,4.872,6.759l15.577,9.03V31.683z"/>
<path fill="#25303B" d="M14.03,36.219c0.059-0.109,0.133-0.209,0.21-0.307l-14.244-8.257v0.867l13.881,8.047
	C13.918,36.448,13.969,36.332,14.03,36.219z"/>
<g>
	<path fill="#25303B" d="M29.863,30.835v5.13l-2.383-1.381v-2.188l-0.75,0.492v1.912c0,0.134,0.071,0.257,0.187,0.324l3.133,1.815
		c0.059,0.034,0.123,0.051,0.188,0.051c0.064,0,0.129-0.017,0.188-0.05c0.116-0.067,0.188-0.19,0.188-0.325v-6.273L29.863,30.835z"
		/>
	<path fill="#25303B" d="M27.48,27.074v-3.796l2.383,1.381v0.853l0.75-0.492v-0.578c0-0.134-0.071-0.257-0.187-0.324l-3.133-1.816
		c-0.116-0.066-0.258-0.068-0.376,0c-0.116,0.067-0.188,0.19-0.188,0.325v4.938L27.48,27.074z"/>
</g>
<g>
	<path fill="#25303B" d="M22.25,30.502V20.246l2.382,1.381v7.314l0.75-0.492v-7.039c0-0.134-0.071-0.257-0.187-0.324l-3.132-1.815
		c-0.115-0.066-0.257-0.068-0.376,0c-0.116,0.067-0.188,0.19-0.188,0.325v11.399L22.25,30.502z"/>
	<path fill="#25303B" d="M25.16,33.918c0.011-0.005,0.024-0.003,0.034-0.009c0.016-0.01,0.024-0.027,0.039-0.039L25.16,33.918z"/>
</g>
<polygon fill="#FFFFFF" points="33.317,23.249 31.661,22.289 31.661,24.334 "/>
<path fill="#FFFFFF" d="M37.428,25.632c-0.165,0.262-0.382,0.495-0.657,0.675l-1.204,0.789l8.089,4.689v-2.544L37.428,25.632z"/>
<g>
	<path fill="#FCE2E5" d="M30.613,30.344v6.273c0,0.134-0.071,0.258-0.188,0.325c-0.059,0.034-0.123,0.05-0.188,0.05
		c-0.065,0-0.13-0.017-0.188-0.051l-3.133-1.815c-0.115-0.067-0.187-0.19-0.187-0.324v-1.912l-0.3,0.196v9.897l4.48,2.598V30.148
		L30.613,30.344z"/>
	<path fill="#FCE2E5" d="M26.73,27.566v-4.938c0-0.134,0.071-0.258,0.188-0.325c0.118-0.068,0.26-0.065,0.376,0l3.133,1.816
		c0.115,0.067,0.187,0.19,0.187,0.324v0.578l0.298-0.195v-2.97l-4.48-2.597v8.504L26.73,27.566z"/>
</g>
<g>
	<polygon fill="#FCE2E5" points="29.863,25.513 29.863,24.66 27.48,23.278 27.48,27.074 	"/>
	<polygon fill="#FCE2E5" points="27.48,32.397 27.48,34.585 29.863,35.965 29.863,30.835 	"/>
</g>
<g>
	<path fill="#FCE2E5" d="M25.233,33.87c-0.015,0.012-0.023,0.029-0.039,0.039c-0.011,0.006-0.023,0.004-0.034,0.009l-3.961,2.596
		v3.435l4.481,2.598v-8.97L25.233,33.87z"/>
	<path fill="#FCE2E5" d="M21.5,30.994V19.595c0-0.134,0.071-0.258,0.188-0.325c0.119-0.067,0.261-0.066,0.376,0l3.132,1.815
		c0.115,0.067,0.187,0.19,0.187,0.324v7.039l0.299-0.196v-9.43l-4.481-2.598v14.965L21.5,30.994z"/>
</g>
<polygon fill="#FCE2E5" points="24.632,28.941 24.632,21.627 22.25,20.246 22.25,30.502 "/>
<g>
	<path fill="#FFFFFF" d="M14.623,35.522c0.046-0.035,0.085-0.076,0.133-0.108l4.404-2.886l0.723-0.474l0.566-0.371V15.789
		L4.872,6.759C4.385,7.316,3.94,7.909,3.517,8.518l14.259,8.266c0.115,0.066,0.187,0.19,0.187,0.324v12.173
		c0,0.134-0.071,0.258-0.188,0.325c-0.059,0.033-0.123,0.05-0.188,0.05c-0.065,0-0.13-0.017-0.188-0.051L1.548,20.416
		c-0.115-0.066-0.187-0.19-0.187-0.324v-7.58c-0.876,2.213-1.366,4.62-1.366,7.148v7.995l14.244,8.257
		C14.351,35.77,14.474,35.637,14.623,35.522z"/>
	<polygon fill="#FFFFFF" points="18.42,38.335 20.449,39.512 20.449,37.006 	"/>
</g>
<path fill="#FFFFFF" d="M17.718,38.796l-0.521,0.341c-0.326,0.213-0.702,0.338-1.089,0.361c-0.794,0.047-1.558-0.338-1.995-1.003
	c-0.313-0.478-0.41-1.033-0.328-1.558c0.019-0.126,0.05-0.249,0.091-0.368l-13.881-8.047v17.794l70.494,40.865
	c6.063-0.859,11.228-4.491,14.195-9.566L17.718,38.796z"/>
<path fill="#FFFFFF" d="M49.15,45.44h-4.052l0.113-0.113c0.246-0.246,0.381-0.572,0.38-0.919c0-0.347-0.136-0.672-0.38-0.914
	l-0.39-0.39c-0.245-0.245-0.57-0.38-0.917-0.38c-0.001,0-0.002,0-0.003,0c-0.347,0-0.672,0.136-0.913,0.38l-3.941,3.982l3.94,3.897
	c0.244,0.245,0.569,0.38,0.917,0.38c0.346,0,0.671-0.134,0.918-0.38l0.388-0.389c0.245-0.244,0.381-0.569,0.381-0.916
	c0.001-0.348-0.135-0.674-0.381-0.92l-0.111-0.111h4.051c0.726,0,1.316-0.591,1.316-1.317v-0.572
	C50.466,46.031,49.875,45.44,49.15,45.44z M49.716,47.33c0,0.313-0.254,0.567-0.567,0.567l-4.501,0c0,0-1.265,0.004-1.544-0.053
	c0.042,0.023,0.722,0.592,1.168,1.039l0.409,0.408c0.214,0.214,0.214,0.56,0,0.773l-0.39,0.391c-0.214,0.213-0.56,0.213-0.773,0
	l-3.411-3.411l3.411-3.409c0.213-0.214,0.559-0.214,0.773,0l0.39,0.39c0.214,0.213,0.214,0.559,0,0.773l-0.409,0.408
	c-0.446,0.446-1.126,1.015-1.168,1.039c0.279-0.058,1.544-0.053,1.544-0.053l4.501,0c0.313,0,0.567,0.254,0.567,0.568V47.33z"/>
<path fill="#25303B" d="M49.716,47.33c0,0.313-0.254,0.567-0.567,0.567l-4.501,0c0,0-1.265,0.004-1.544-0.053
	c0.042,0.023,0.722,0.592,1.168,1.039l0.409,0.408c0.214,0.214,0.214,0.56,0,0.773l-0.39,0.391c-0.214,0.213-0.56,0.213-0.773,0
	l-3.411-3.411l3.411-3.41c0.213-0.214,0.559-0.214,0.773,0l0.39,0.39c0.214,0.213,0.214,0.559,0,0.773l-0.409,0.408
	c-0.446,0.446-1.126,1.015-1.168,1.039c0.279-0.058,1.544-0.053,1.544-0.053l4.501,0c0.313,0,0.567,0.254,0.567,0.568V47.33z"/>
<polygon fill="#FFFFFF" points="58.372,48.855 58.94,52.537 58.94,45.173 58.372,44.652 "/>
<g>
	<path fill="#25303B" d="M58.944,52.564l-0.572-3.709v-4.203l0.572,0.525v-1.867l-0.319-0.293l-0.988-0.906
		c-0.109-0.099-0.233-0.175-0.369-0.229c-0.137-0.053-0.281-0.08-0.427-0.08h-0.03c-0.302,0-0.605,0.071-0.875,0.204l-0.123,0.06
		c-0.4,0.198-0.725,0.528-0.915,0.932l-0.488,1.033c-0.002,0.005-0.005,0.01-0.007,0.015l-0.599,1.357l-1.671,0.948l-0.25,0.143
		c-0.165,0.093-0.327,0.22-0.38,0.399c-0.047,0.18,0.026,0.373,0.12,0.538c0.093,0.165,0.221,0.327,0.4,0.379
		c0.18,0.047,0.374-0.027,0.538-0.119l0.412-0.234l0.001-0.001l1.644-0.932c0.088-0.051,0.167-0.115,0.236-0.19
		c0.069-0.076,0.125-0.162,0.167-0.255l0.029-0.068l-0.286,11.601c-0.006,0.237,0.027,0.493,0.184,0.664
		c0.164,0.166,0.417,0.211,0.654,0.217c0.236,0.018,0.494-0.002,0.673-0.151c0.173-0.154,0.232-0.405,0.25-0.641l0.319-4.2v-1.744
		l0.287,1.029l0.15,0.536c0.033,0.108,0.06,0.216,0.091,0.325l0.004,0.024l1.132,3.364c0.076,0.225,0.194,0.454,0.4,0.561
		c0.011,0.005,0.025,0.003,0.036,0.007V52.564z"/>
	<path fill="#25303B" d="M56.692,41.451c0.42,0,0.874-0.07,1.17-0.357c0.289-0.298,0.358-0.751,0.358-1.172
		c0-0.42-0.069-0.874-0.358-1.17c-0.296-0.289-0.75-0.358-1.17-0.358c-0.421,0-0.875,0.069-1.172,0.358
		c-0.287,0.296-0.357,0.75-0.357,1.17c0,0.421,0.07,0.874,0.357,1.172C55.817,41.381,56.271,41.451,56.692,41.451z"/>
</g>
<path fill="#25303B" d="M87.375,54.586v-0.867L43.656,28.375v0l-5.937-3.442c-0.055,0.246-0.154,0.482-0.29,0.698l6.228,3.61v2.544
	l-8.089-4.689l-1.428,0.936v11.06c0,0.134,0.071,0.258,0.187,0.324l7.823,4.535l0.545-0.551l-7.805-4.525V27.57l8.767,5.083v0.001
	v10.119c0.082-0.016,0.16-0.049,0.246-0.049c0.001,0,0.002,0,0.003,0c0.175,0,0.345,0.035,0.502,0.101V29.677l4.481,2.598V45.44
	h0.262c0.173,0,0.336,0.038,0.488,0.099V32.71l9.303,5.393v23.723l-9.303-5.393v-7.884c-0.151,0.061-0.315,0.099-0.488,0.099h-0.262
	v7.35L44.406,53.4v-2.138c-0.157,0.066-0.326,0.101-0.502,0.101c-0.087,0-0.165-0.033-0.248-0.049v1.651L31.641,46
	c0.005-0.026,0.02-0.048,0.02-0.075V29.657l-0.75,0.492V45.58l-4.48-2.598v-9.897l-0.75,0.492v8.97l-4.481-2.598v-3.435l-0.75,0.492
	v2.506l-2.029-1.176l-0.702,0.46l25.938,15.036v0l41.027,23.784c0.126-0.216,0.26-0.427,0.378-0.648l-20.14-11.675V41.57
	L87.375,54.586z M64.172,64.858L59.69,62.26V38.537l4.481,2.598V64.858z"/>
<g>
	<path fill="#FFFFFF" d="M45.099,48.647l0.111,0.111c0.246,0.246,0.382,0.572,0.381,0.92c0,0.347-0.136,0.672-0.381,0.916
		l-0.388,0.389c-0.122,0.121-0.263,0.214-0.415,0.278V53.4l4.48,2.597v-7.35H45.099z"/>
	<path fill="#FFFFFF" d="M44.706,43.026v-9.98c0-0.134,0.071-0.258,0.188-0.325c0.118-0.067,0.26-0.065,0.376,0l3.133,1.816
		c0.115,0.067,0.187,0.19,0.187,0.324V45.44h0.299V32.275l-4.48-2.597v13.148C44.517,42.872,44.611,42.95,44.706,43.026z"/>
</g>
<path fill="#FFFFFF" d="M45.591,44.407c0.001,0.197-0.053,0.382-0.135,0.554v0.041l0.754,0.437h1.629V35.078l-2.383-1.381v10.16
	C45.538,44.028,45.591,44.211,45.591,44.407z"/>
<g>
	<path fill="#25303B" d="M44.822,43.104l0.39,0.39c0.107,0.106,0.183,0.232,0.246,0.365V33.697l2.382,1.381V45.44h0.75V34.862
		c0-0.134-0.071-0.257-0.187-0.324l-3.132-1.815c-0.115-0.067-0.257-0.068-0.376,0c-0.116,0.067-0.188,0.19-0.188,0.325v9.98
		C44.743,43.056,44.788,43.07,44.822,43.104z"/>
	<path fill="#25303B" d="M45.211,45.327l-0.113,0.113h1.111l-0.752-0.436V44.96C45.394,45.093,45.318,45.22,45.211,45.327z"/>
</g>
<path fill="#FFFFFF" d="M42.988,50.983l-3.94-3.897l3.102-3.134l-7.823-4.535c-0.115-0.066-0.187-0.19-0.187-0.324v-11.06
	l-2.478,1.624v16.354l11.995,6.954v-1.651C43.407,51.265,43.171,51.167,42.988,50.983z"/>
<path fill="#FFFFFF" d="M42.989,43.104c0.182-0.183,0.418-0.282,0.668-0.331v-10.12l-8.767-5.083v11.307l7.805,4.525L42.989,43.104z
	"/>
<path fill="#FFFFFF" d="M51.883,46.494l0.25-0.143l1.671-0.948l0.599-1.357c0.002-0.005,0.005-0.01,0.007-0.015l0.488-1.033
	c0.19-0.404,0.515-0.734,0.915-0.932l0.123-0.06c0.27-0.133,0.573-0.204,0.875-0.204h0.03c0.146,0,0.29,0.027,0.427,0.08
	c0.136,0.054,0.26,0.13,0.369,0.229l0.988,0.906l0.315,0.289v-5.203l-9.303-5.393v12.829c0.484,0.195,0.829,0.666,0.829,1.219v0.572
	c0,0.553-0.345,1.024-0.829,1.219v7.884l9.303,5.393v-4.223c-0.011-0.003-0.022-0.002-0.032-0.006
	c-0.206-0.107-0.324-0.336-0.4-0.561l-1.132-3.364l-0.004-0.024c-0.031-0.109-0.058-0.217-0.091-0.325l-0.15-0.536l-0.287-1.029
	v1.744l-0.319,4.2c-0.018,0.236-0.077,0.487-0.25,0.641c-0.179,0.149-0.437,0.169-0.673,0.151c-0.237-0.006-0.49-0.051-0.654-0.217
	c-0.157-0.171-0.19-0.427-0.184-0.664l0.286-11.601l-0.029,0.068c-0.042,0.093-0.098,0.179-0.167,0.255
	c-0.069,0.075-0.148,0.139-0.236,0.19l-1.644,0.932l-0.001,0.001l-0.412,0.234c-0.164,0.092-0.358,0.166-0.538,0.119
	c-0.179-0.052-0.307-0.214-0.4-0.379c-0.094-0.165-0.167-0.358-0.12-0.538C51.556,46.714,51.718,46.587,51.883,46.494z
	 M55.52,38.752c0.297-0.289,0.751-0.358,1.172-0.358c0.42,0,0.874,0.069,1.17,0.358c0.289,0.296,0.358,0.75,0.358,1.17
	c0,0.421-0.069,0.874-0.358,1.172c-0.296,0.287-0.75,0.357-1.17,0.357c-0.421,0-0.875-0.07-1.172-0.357
	c-0.287-0.298-0.357-0.751-0.357-1.172C55.163,39.502,55.233,39.048,55.52,38.752z"/>
</svg>
