<?xml version="1.0" encoding="utf-8"?>
<!-- Generator: Adobe Illustrator 25.4.1, SVG Export Plug-In . SVG Version: 6.00 Build 0)  -->
<svg version="1.1" id="Layer_1" xmlns="http://www.w3.org/2000/svg" xmlns:xlink="http://www.w3.org/1999/xlink" x="0px" y="0px"
	 viewBox="0 0 283.5 283.5" style="enable-background:new 0 0 283.5 283.5;" xml:space="preserve">
<style type="text/css">
	.st0{fill:#096EB6;}
	.st1{fill:#25303B;}
	.st2{fill:#EB2132;}
</style>
<rect x="107" y="113.9" class="st0" width="1.7" height="1.3"/>
<g>
	<path class="st1" d="M59,196.7c0,11.5,9.4,20.9,20.9,20.9c11.5,0,20.9-9.4,20.9-20.9c0-6-2.6-11.4-6.6-15.3l14.9-13.4h38.1
		c3.4,0,6.6-0.7,9.4-2l10.4,12.5c-6.2,3.6-10.4,10.4-10.4,18c0,11.5,9.4,20.9,20.9,20.9s20.9-9.4,20.9-20.9
		c0-10.7-8.1-19.6-18.5-20.8l-13.9-16.7c2.6-2.8,4.3-5.8,5-8.2c1.9-6.2,12.4-39.1,17-53.8l13.2-11.8c2.1-1.9,4.8-3,7.7-3
		c6.3,0,11.4,5.1,11.4,11.4c0,3.6-1.6,6.8-4.3,9l-1.2,0.8c-1.2,0.8-1.5,2.5-0.7,3.6l1.2,1.8c0.8,1.2,2.5,1.5,3.6,0.7l1.2-0.8
		c4.7-3.5,7.5-9,7.5-15.1c0-10.3-8.4-18.8-18.8-18.8c-4.7,0-9.2,1.7-12.6,4.9L87.8,177.3c-2.4-1-5.1-1.5-7.8-1.5
		C68.4,175.8,59,185.2,59,196.7 M168.4,196.7c0-5.1,4.1-9.2,9.2-9.2s9.2,4.1,9.2,9.2c0,5.1-4.1,9.2-9.2,9.2S168.4,201.8,168.4,196.7
		 M70.8,196.7c0-5.1,4.1-9.2,9.2-9.2c5.1,0,9.2,4.1,9.2,9.2c0,5.1-4.1,9.2-9.2,9.2C74.9,205.9,70.8,201.8,70.8,196.7"/>
	<path class="st1" d="M150.6,113.6c-0.7,0.6-1.6,0.8-2.4,0.7c-0.9-0.2-1.6-0.7-2.1-1.5l-18.1-32.5c-0.8-1.5-1-3.3-0.4-4.8
		c0.6-1.6,1.8-2.9,3.4-3.5c8.5-3.2,17.8-3.9,26.6-2c8.9,1.9,17,6.3,23.5,12.8c0.6,0.6,0.9,1.4,0.9,2.2c0,0.8-0.4,1.6-1,2.1
		L150.6,113.6z"/>
	<path class="st2" d="M141.7,283.5c78.3,0,141.7-63.5,141.7-141.7C283.5,63.5,220,0,141.7,0C63.5,0,0,63.5,0,141.7
		C0,220,63.5,283.5,141.7,283.5 M255.1,139.9c0.4,27.1-8.7,52.1-24.2,71.9c-0.7,0.9-2.1,1-3,0.2L71.6,55.5c-0.8-0.8-0.8-2.2,0.2-3
		c19.7-15.5,44.7-24.6,71.9-24.2C204.5,29.3,254.1,79,255.1,139.9 M55.5,71.5l156.4,156.4c0.8,0.8,0.8,2.2-0.2,3
		c-19.7,15.5-44.7,24.6-71.9,24.2c-60.9-1-110.6-50.6-111.5-111.5c-0.4-27.1,8.7-52.2,24.2-71.9C53.3,70.8,54.7,70.7,55.5,71.5"/>
</g>
</svg>
