<?xml version="1.0" encoding="utf-8"?>
<!-- Generator: Adobe Illustrator 25.4.1, SVG Export Plug-In . SVG Version: 6.00 Build 0)  -->
<svg version="1.1" id="Layer_1" xmlns="http://www.w3.org/2000/svg" xmlns:xlink="http://www.w3.org/1999/xlink" x="0px" y="0px"
	 viewBox="0 0 99.2 99.2" style="enable-background:new 0 0 99.2 99.2;" xml:space="preserve">
<style type="text/css">
	.st0{fill:#64B5E5;}
	.st1{fill:#221F20;}
	.st2{fill:#CF7F5E;}
	.st3{fill:#25303B;}
	.st4{fill:#FFFFFF;}
	.st5{fill:#E78B74;}
	.st6{fill:#FABAA2;}
	.st7{fill:#515455;}
	.st8{fill:#353838;}
	.st9{fill:none;stroke:#696A6C;stroke-width:5.000000e-02;stroke-miterlimit:10;}
	.st10{fill:none;}
	.st11{fill:none;stroke:#696A6C;stroke-width:0.48;stroke-miterlimit:10;}
	.st12{fill:none;stroke:#363939;stroke-width:5.000000e-02;stroke-miterlimit:10;}
	.st13{fill:#F7A58A;}
	.st14{fill:#161618;}
	.st15{fill:#E0E2E0;}
	.st16{fill:#C73127;}
</style>
<path class="st0" d="M22.6,0h54.1c12.5,0,22.6,10.1,22.6,22.6v54.1c0,12.5-10.1,22.6-22.6,22.6H22.6C10.1,99.2,0,89.1,0,76.6V22.6
	C0,10.1,10.1,0,22.6,0"/>
<path class="st1" d="M14.2,22.3C14.2,22.3,14.1,22.3,14.2,22.3C14.1,22.3,14.1,22.2,14.2,22.3C14.2,22.2,14.2,22.2,14.2,22.3z"/>
<path class="st1" d="M15.7,26.5c-0.5-0.2-1-0.6-1.3-1.1c-0.2-0.3-0.3-0.6-0.4-1c0.2,0.1,0.3,0.2,0.6,0.2h0.3c0,0.1,0,0.3,0.1,0.4
	c0.1,0.3,0.2,0.6,0.4,0.9c0,0.1,0.1,0.2,0.1,0.3C15.5,26.3,15.6,26.4,15.7,26.5z"/>
<path class="st2" d="M22.9,21.4v3.1c-0.1,2.2-0.8,3.8-2.3,4h0c-0.7,0-1.3-0.1-1.8-0.2l0,1.8l0,0.1l0.6,0.2l-0.3,4.2
	c0,0.2-0.1,0.3-0.3,0.4c-0.3,0.2-0.6,0.1-0.7-0.2l-2.2-4.7l0.4-0.1l0-0.1L16.2,27c-0.2-0.2-0.4-0.3-0.5-0.5
	c-0.1-0.1-0.2-0.2-0.3-0.4c0-0.1-0.1-0.2-0.1-0.3c-0.2-0.3-0.3-0.6-0.4-0.9c0-0.1-0.1-0.3-0.1-0.4h-0.3c-0.2,0-0.4-0.1-0.6-0.2
	c-0.4-0.2-0.6-0.6-0.5-1.1c0-0.1,0-0.2,0.1-0.3c0-0.1,0-0.1,0.1-0.2c0,0,0.1-0.1,0.1-0.1c0,0,0.1-0.1,0.1-0.1c0-0.1,0.1-0.1,0.2-0.2
	c0,0,0.1-0.1,0.2-0.1c0.1-0.1,0.2-0.1,0.4-0.1c0.1,0,0.1,0,0.2,0c0.6,0.1,1,0.6,1,1.2v0.4c0.4,0,0.7-0.3,0.7-0.7v-0.4
	c1.9-0.6,3.5-1.9,4.6-3.6C21.8,19.6,22.5,20.4,22.9,21.4z"/>
<path class="st3" d="M23.8,76.4v0.5c-0.3-0.1-0.7,0-1,0.1v0.2c-0.6,0.1-1.2,0.1-1.8,0c-0.5-4.3-1.5-12.1-1.8-14.3
	c-0.2-1.8-1.2-5.6-2-8.6c-0.1-0.2-0.1-0.4-0.2-0.7l0,0.7l-1.7,22.4c-0.3,0-0.5,0-0.8,0.2v0.2c-0.6,0.1-1.2,0.1-1.8,0l-1.3-28.8v-0.1
	c0-0.4,0.1-0.8,0.2-1.2l6.9,0v0.2c0,0,0,0,0,0c0,0.2,0.1,0.3,0.3,0.3h1.7c0.2,0,0.3-0.1,0.3-0.3v-0.2H22v1.4c0.1,0.4,0.3,1,0.4,1.6
	c0.1,0.6,0.3,1.3,0.5,2c0.7,3.6,1.2,7.2,1.5,10.9C24.8,67,23.8,73.4,23.8,76.4z"/>
<path class="st4" d="M64.4,55.3c-0.3-0.3-0.7-0.3-1,0c0,0,0,0,0,0l-0.5,0.5c-0.3,0.3-0.3,0.7,0,1c0,0,0,0,0,0l0.3,0.3
	c0.6,0.6,1.4,1.3,1.5,1.3c-0.3-0.1-2-0.1-2-0.1H33.8c0,0-1.6,0-2,0.1c0.5-0.4,1-0.9,1.5-1.3l0.3-0.3c0.3-0.3,0.3-0.7,0-1
	c0,0,0,0,0,0l-0.5-0.5c-0.3-0.3-0.7-0.3-1,0c0,0,0,0,0,0L28,59.4l4.1,4.1c0.3,0.3,0.7,0.3,1,0c0,0,0,0,0,0l0.5-0.5
	c0.3-0.3,0.3-0.7,0-1c0,0,0,0,0,0l-0.3-0.3c-0.5-0.5-1-0.9-1.5-1.3c0.4,0.1,2,0.1,2,0.1h28.9c0,0,1.6,0,2-0.1
	c-0.1,0-0.9,0.8-1.5,1.3L62.9,62c-0.3,0.3-0.3,0.7,0,1c0,0,0,0,0,0l0.5,0.5c0.3,0.3,0.7,0.3,1,0l4.1-4.1L64.4,55.3z"/>
<path class="st4" d="M37.2,51.3V38.6l-3.1,1.5v-2.2l4.3-2.3h1.4v15.8H37.2z"/>
<path class="st4" d="M45.7,51.3v-8.1L45.3,40h2.4l0.2,1.2c0.8-0.9,2-1.5,3.3-1.5c1.3-0.1,2.4,0.6,2.9,1.8c0.8-1.1,2.1-1.8,3.5-1.8
	c2,0,3.3,1.3,3.3,4.1v7.5h-2.3v-6.8c0-1.8-0.6-2.6-1.8-2.6c-0.9,0-1.7,0.5-2.2,1.2c0,0.2,0,0.4,0,0.7v7.5h-2.4v-6.8
	c0-1.8-0.6-2.6-1.8-2.6c-0.8,0-1.6,0.4-2.1,1v8.4L45.7,51.3z"/>
<path class="st5" d="M93.1,35.4c-0.1,0-0.1,0.1-0.2,0.1l0.2-0.7c0.1,0,0.2,0,0.2,0.2C93.5,35.2,93.2,35.3,93.1,35.4z"/>
<path class="st5" d="M93.2,36.3c-0.1,0.1-0.3,0.2-0.5,0.3c0,0-0.1,0-0.1,0l0.2-0.6v0l0.2-0.1c0.1,0,0.4-0.2,0.5,0.1
	C93.6,36.1,93.3,36.2,93.2,36.3z"/>
<path class="st6" d="M92.9,36.9l0,0.2l0,0.1l-0.1,0.4l-0.5,0.7c-0.1,0.2-0.3,0.3-0.5,0.3l-0.5,0.1c-0.2,0-0.3,0.1-0.3,0.3l-0.8,1.7
	c-0.1,0.1-0.1,0.2-0.1,0.3c-0.1,0.4-0.4,0.8-0.5,1.2c-0.5,1.6-1.6,2.8-3.2,3.3c-0.3,0.1-0.6,0.1-1,0.1h0c-0.6,0-1.2-0.2-1.8-0.5
	v-1.1l0.9-0.2c0.5,0.2,1,0.2,1.5,0.1c1-0.4,1.8-1.3,2.1-2.4c0.1-0.3,0.3-0.7,0.5-1c0.1-0.1,0.1-0.3,0.2-0.4l0.7-1.3
	c0.1-0.2,0.2-0.5,0.3-0.8l0.1-0.3l-0.1-0.4c0-0.4,0.1-0.8,0.3-1.1c0.1-0.3-0.4-1.4,0.2-1.3c0.3,0,0.4,0.5,0.4,0.8l0,0.2l-0.4,1.4
	c0,0.2,0.1,0.3,0.2,0.4c0,0,1.6,0.4,1.6,0.4c0.2,0,0.4-0.1,0.4-0.2l0.1-0.3v0l0.1-0.3l-0.2,0l0,0c0,0-0.2-0.1-0.2-0.3
	c0-0.1,0.2-0.2,0.3-0.1c0,0,0.1,0,0.1,0l0-0.1l-0.1-0.1l0,0c0,0-0.3-0.2-0.2-0.4c0.1-0.1,0.2-0.1,0.3-0.1c0,0,0.1,0,0.1,0.1
	c0,0,0.1,0,0.1,0c0,0,0,0,0,0C92.9,36.6,92.9,36.8,92.9,36.9z"/>
<path class="st7" d="M92.3,36.9l0,0.1c0,0,0.1,0,0.1,0l0-0.1L92.3,36.9z M93.1,33.7C93.1,33.7,93.1,33.7,93.1,33.7l-1.6-0.5
	c-0.2,0-0.4,0.1-0.4,0.2l-0.2,0.8l-0.1,0.2l-0.4,1.4l0,0.2l-0.4,1.4c0,0.2,0.1,0.3,0.2,0.4c0,0,1.6,0.4,1.6,0.4
	c0.2,0,0.4-0.1,0.4-0.2l0.1-0.3v0l0.1-0.3l-0.2,0l-0.1,0.3l-1.9-0.5l1-3.4l1.9,0.5l-0.6,2c0,0,0.1,0,0.1,0.1l0.2-0.6v0l0.1-0.3
	l0.2-0.7l0.2-0.6C93.3,34,93.2,33.8,93.1,33.7z M92.3,37.1c0,0,0.1,0,0.1,0l0-0.1l-0.1-0.1L92.3,37.1z M92.3,36.9l0,0.1
	c0,0,0.1,0,0.1,0l0-0.1L92.3,36.9z"/>
<path class="st8" d="M91.2,37.9c0,0.1-0.1,0.2-0.2,0.1s-0.2-0.1-0.1-0.2l0,0c0-0.1,0.1-0.2,0.2-0.1C91.1,37.7,91.2,37.8,91.2,37.9
	C91.2,37.9,91.2,37.9,91.2,37.9L91.2,37.9z"/>
<path class="st9" d="M91.2,37.9c0,0.1-0.1,0.2-0.2,0.1s-0.2-0.1-0.1-0.2l0,0c0-0.1,0.1-0.2,0.2-0.1C91.1,37.7,91.2,37.8,91.2,37.9
	C91.2,37.9,91.2,37.9,91.2,37.9z"/>
<path class="st10" d="M92.2,33.8L92.2,33.8L92.2,33.8L92.2,33.8L92.2,33.8"/>
<path class="st11" d="M92.2,33.8L92.2,33.8L92.2,33.8L92.2,33.8L92.2,33.8z"/>
<line class="st12" x1="92" y1="33.8" x2="92.4" y2="33.9"/>
<polygon class="st13" points="92.8,37.1 92.8,37.2 92.8,37.2 "/>
<path class="st4" d="M75.6,77.8l-0.1,1.5c-0.2,0.1-0.3,0.2-0.3,0.5v0.1c0,0.4-0.4,0.8-0.8,0.8h-1.2l0.2-3L75.6,77.8z"/>
<path class="st4" d="M83.6,75.7l-0.2,1.7c0,0,0,0,0,0c-0.2,0.3-0.5,0.4-0.8,0.4l-1.2-0.1c-0.1,0-0.2,0-0.3,0c0-0.1,0-0.2,0-0.2
	l0.4-2.5L83.6,75.7z"/>
<path class="st14" d="M88.7,80.4c0,0.1,0,0.1,0,0.2V81l-1.8-0.2l-1.8-0.2l-4.8-0.6l0.2-1.6c0-0.3,0.2-0.5,0.5-0.6c0.1,0,0.2,0,0.3,0
	l1.2,0.1c0.3,0.1,0.6-0.1,0.8-0.4c0,0,0,0,0,0c0-0.1,0.1-0.2,0.1-0.3V77c0-0.3,0.3-0.5,0.5-0.4h0.4c0.4,0,0.6,0.4,0.6,0.8v0.2
	c0,0.6,0.4,1.1,1,1.1l1.4,0.3c0,0,0,0,0,0C88.2,79,88.7,79.7,88.7,80.4z"/>
<path class="st14" d="M80.2,82.6V83h-7.8v-1.7c0-0.4,0.3-0.7,0.7-0.7h1.2c0.4,0,0.8-0.3,0.8-0.8v-0.1c0-0.2,0.2-0.4,0.3-0.5
	c0,0,0.1,0,0.1,0h0.8c0.4,0,0.7,0.3,0.7,0.7v0.2c0.1,0.6,0.6,1,1.2,1l0.3,0C79.5,81.1,80.2,81.7,80.2,82.6z"/>
<path class="st4" d="M85.7,43.6l-1.2,0.3l-0.9,0.2V54h-8.7c0.2-0.1,0.3-0.3,0.3-0.5v-0.2c0.1-0.3-0.1-0.7-0.4-0.8l-0.1,0l-0.2,0
	c-0.3-0.1-0.6-0.3-0.9-0.5c0,0,0,0-0.1,0l-0.1-0.1c-0.1,0-0.1-0.1-0.2-0.1c0,0,0,0,0,0v-9.9c-0.5,0.2-0.9,0.4-1.3,0.7l0.1,0.1
	c-0.3,0.2-0.5,0.5-0.8,0.7l-0.7-0.9l-1.2-1.5l-0.5-0.6c0.3-0.3,0.7-0.7,1.1-1l0.1,0.2c1.2-0.8,2.6-1.3,4-1.7c0.2,0,0.5,0,0.7,0
	c0.1,0,0.2,0,0.3,0c0,0,0,0,0,0c0,0,0.1,0,0.1,0c0.1,0,0.2-0.1,0.3-0.1c0.3-0.1,0.6-0.2,1-0.2c0.2,1.1,1.2,1.8,2.3,1.6
	c0.8-0.1,1.5-0.8,1.6-1.6c1,0.2,1.9,0.5,2.5,0.9c0,0,0,0,0,0c0.3,0.1,0.6,0.4,0.7,0.7c0.6,1.2,1.1,2.4,1.5,3.6l0.2,0L85.7,43.6z"/>
<path class="st6" d="M75.2,53.2v0.2c-0.1,0.2-0.2,0.4-0.3,0.5c-0.1,0.1-0.3,0.2-0.4,0.3l-0.9,0.2l0,0c-0.4,0-0.9-0.1-1.2-0.3
	l-0.5-0.5c-0.7-0.4-1.3-0.9-1.9-1.4c-0.7-0.6-1.3-1.2-1.8-2c-1-1.4-1.5-3-1.4-4.7c0.1-1.6,0.9-3.2,2.1-4.2c0.2-0.2,0.4-0.3,0.6-0.5
	l1.2,1.5c-1.1,1-1.9,2.2-1.9,3.6c0.1,1.9,1,3.6,2.5,4.8c0.7,0.6,0.5,0.4,1.4,0.6l-0.1,0c0.3,0,0.5,0.1,0.8,0.2c0,0,0,0,0,0
	c0.1,0,0.1,0.1,0.2,0.1l0.1,0.1c0,0,0,0,0.1,0c0.3,0.2,0.6,0.4,0.9,0.5l0.2,0l0.1,0C75.2,52.6,75.3,52.9,75.2,53.2z"/>
<path class="st3" d="M83.8,75.8l-0.3-0.1l-2.2-0.8l-0.3-0.1c4.6-10.6-2-16.3-2.7-16.9H78c-1.2,6.6-1.9,13.2-2.3,19.8h0l-2.3-0.2
	l-0.5,0c0.6-11,0.8-19,0.8-20.5v-2.5l0.9-0.2c0.2,0,0.3-0.1,0.4-0.3H83v2.3c1,1.1,1.8,2.4,2.3,3.8C86.6,63.3,87,68.6,83.8,75.8z"/>
<path class="st2" d="M26.2,52l-2,0.9c-0.1-0.4-0.3-0.7-0.5-1.1l-0.1-0.1c-0.2-0.3-0.3-0.7-0.3-1.1c0-1,0-1.6,0-1.6l-1.1-7.5l2.1-0.9
	l0.5,7.9c0.2,0.7,0.5,1.3,0.8,2l0.4,0.5C26.2,51.2,26.3,51.6,26.2,52z"/>
<path class="st4" d="M24.7,40.4l-0.3,0.1l-2.1,0.9l0,0c-0.1-0.3-0.2-0.6-0.3-0.9V45h-1.2c0-0.1-0.1-0.2-0.3-0.2h-1.6
	c-0.2,0-0.3,0.1-0.3,0.2l-3,0c0-0.1-0.1-0.2-0.2-0.3L14.9,44c-0.2-0.2-0.5-0.3-0.8-0.4c-0.1,0-0.2,0-0.2,0h-0.6
	c-0.3,0-0.7-0.1-1-0.1l0.1-8.7c-1.6,0.5-3.1,0.8-3.9,2l-0.2-0.1l-1.6-0.9l-0.5-0.3c1.6-2.5,4.2-3.7,6.6-4.6c0,0,0.1,0,0.1,0
	c0.1,0,0.3,0,0.4,0l2.8-0.7l2.2,4.7c0.2,0.3,0.5,0.4,0.7,0.2c0.1-0.1,0.2-0.2,0.3-0.4l0.3-4.2l2.2,0.8h0c0.4,0,0.8,0.1,1.1,0.4
	c0,0,0.3,0.4,0.3,0.6C23.8,35,23.8,37.7,24.7,40.4z"/>
<line class="st10" x1="11.5" y1="48.6" x2="11.5" y2="48.5"/>
<path class="st3" d="M21.6,22.8c-0.2,0-0.3-0.1-0.3-0.3c0-0.2,0.1-0.3,0.3-0.3s0.3,0.1,0.3,0.3C22,22.7,21.8,22.8,21.6,22.8
	L21.6,22.8L21.6,22.8z"/>
<path class="st3" d="M18.7,22.8c-0.2,0-0.3-0.1-0.3-0.3c0-0.2,0.1-0.3,0.3-0.3s0.3,0.1,0.3,0.3C19,22.7,18.9,22.8,18.7,22.8
	L18.7,22.8z"/>
<path class="st1" d="M23,21.6c0-0.1-0.1-0.2-0.1-0.2c-0.4-1-1.1-1.8-1.9-2.4c-1.1,1.7-2.7,3-4.6,3.6V23c0,0.4-0.3,0.7-0.7,0.7v-0.4
	c0-0.6-0.4-1.1-1-1.2c-0.1,0-0.1,0-0.2,0c-0.1,0-0.3,0.1-0.4,0.1c-0.1,0-0.1,0-0.2,0.1c-0.1,0-0.1,0.1-0.2,0.2c0,0-0.1,0.1-0.1,0.1
	c0,0-0.1,0.1-0.1,0.1c0,0,0,0.1-0.1,0.2c-0.3-0.8-0.4-1.5-0.5-2.3c0-0.6,0.1-1.2,0.4-1.7c0,0,0,0,0,0c-0.1-0.2-0.2-0.5-0.2-0.8
	c0-1.1,0.9-2,2-2c0.4,0,0.7,0.1,1,0.3c0.1,0,0.3-0.1,0.4-0.1c1.7-0.2,3.5,0,5,0.8c0,0,0,0,0,0c0.8,0.2,1.5,0.8,1.8,1.6
	C23.8,19.7,23.6,20.8,23,21.6z"/>
<path class="st14" d="M18.6,45C18.6,45,18.6,45,18.6,45l0,2.2l-6.9,0l0.1-1.7c0.1,0.1,0.3,0.2,0.4,0.3c0,0,0,0,0,0
	c0.3,0.2,0.7,0.3,1,0.3h0.1c0.4,0,0.8,0,1.2,0.1l0.3,0.1c0.3,0.1,0.7-0.1,0.8-0.4l0-0.2c0.1-0.2,0.1-0.3,0-0.5c0-0.1,0-0.2-0.1-0.2
	L18.6,45z"/>
<path class="st14" d="M22,45v2.2h-1.2V45c0,0,0,0,0-0.1H22z"/>
<path class="st15" d="M20.8,45c0-0.1-0.1-0.2-0.3-0.2h-1.6c-0.2,0-0.3,0.1-0.3,0.2c0,0,0,0,0,0.1v2.4c0,0,0,0,0,0
	c0,0.2,0.1,0.3,0.3,0.3h1.7c0.2,0,0.3-0.1,0.3-0.3L20.8,45C20.9,45,20.9,45,20.8,45z"/>
<path class="st14" d="M26.3,83h-5.8v-4.8c0,0-0.1-1.1,0.4-0.9h0c0.6,0.1,1.2,0.1,1.8,0v-0.2c0.3-0.2,0.6-0.2,1-0.1
	c0.1,0,0.2,0.1,0.3,0.1c0.1,1.3,0,3.8,2,4C28.1,81.3,26.3,83,26.3,83z"/>
<path class="st14" d="M19.5,83h-7.2v-4.7c0,0-0.1-1.1,0.4-1h0c0.6,0.1,1.2,0.1,1.8,0v-0.2c0.2-0.1,0.5-0.2,0.8-0.2
	c0.2,0,0.3,0.1,0.5,0.2c0.1,1.3,0,3.8,2,4c0.1,0,0.3,0,0.4,0C19.2,81.3,19.7,82.2,19.5,83z"/>
<path class="st16" d="M19.8,26.7h1.3c0.2,0,0.3-0.2,0.3-0.4c0-0.2-0.2-0.3-0.3-0.3l0,0h-1.3c-0.2,0-0.3,0.2-0.4,0.3
	C19.5,26.5,19.6,26.7,19.8,26.7L19.8,26.7z"/>
<path class="st2" d="M15.7,45.7l0,0.2c-0.1,0.3-0.4,0.5-0.8,0.4l-0.3-0.1c-0.4-0.1-0.8-0.1-1.2-0.1h-0.1c-0.4,0-0.7-0.1-1-0.3
	c0,0,0,0,0,0c-0.2-0.1-0.3-0.2-0.4-0.3c-0.1-0.1-0.2-0.2-0.3-0.2l-0.3-0.1C9.1,44.3,6,43.1,6,38.8c0-1.2,0.2-2.2,0.7-3l1.6,0.9
	C8,37.3,7.8,38,7.8,38.8c0,2.9,1.7,3.7,3.6,4.5c0.3,0.1,0.6,0.1,0.8,0.2c0.3,0.1,0.7,0.1,1,0.1h0.6c0.1,0,0.2,0,0.2,0
	c0.3,0.1,0.5,0.2,0.8,0.4l0.6,0.6c0.1,0.1,0.1,0.2,0.2,0.3c0,0.1,0,0.1,0.1,0.2C15.7,45.4,15.7,45.5,15.7,45.7z"/>
<polygon class="st6" points="83.4,24.8 83.4,24.8 83.4,24.8 83.4,24.8 "/>
<path class="st6" d="M83,28.6v3.7c0,1.3-0.7,2.6-1.8,3.4c-0.4,0.3-1.1,0.5-1.9,0.5v1.3c0.2,0,0.4,0,0.6,0.1c0.1,0,0.1,0,0.2,0
	c0.1,0,0.1,0,0.2,0c0,0,0,0,0.1,0c-0.2,0.8-0.8,1.5-1.6,1.6c-1.1,0.2-2.1-0.5-2.3-1.6c0,0,0,0,0.1,0c0.1,0,0.1,0,0.2,0s0.1,0,0.2,0
	c0.2,0,0.4,0,0.6-0.1v-1.6c-1.3-0.4-2.5-1.3-2.7-2.6c-0.8-0.1-1.5-0.8-1.4-1.7v0c0.1-0.7,0.6-1.3,1.3-1.4c0.1,0.1,0.2,0.3,0.2,0.5
	v0.6c0,0,0,0,0,0c0,0.5,0.4,0.9,0.9,0.8c-0.1-1.6,0.6-1.8,1.4-1.9h1.5c0.2,0,0.5,0,0.7,0c1.6-0.2,2.9-1.2,3.6-2.6
	C83,27.9,83,28.2,83,28.6z"/>
<polygon class="st6" points="83.4,24.8 83.4,24.8 83.4,24.8 83.4,24.8 "/>
<path class="st3" d="M81.2,30.6c0,0.2,0.1,0.3,0.3,0.3c0.2,0,0.3-0.1,0.3-0.3c0-0.2-0.1-0.3-0.3-0.3c0,0,0,0,0,0
	C81.4,30.3,81.2,30.4,81.2,30.6L81.2,30.6L81.2,30.6z"/>
<path class="st3" d="M77.5,30.6c0,0.2,0.1,0.3,0.3,0.3c0.2,0,0.3-0.1,0.3-0.3c0-0.2-0.1-0.3-0.3-0.3c0,0,0,0,0,0
	C77.7,30.3,77.5,30.4,77.5,30.6L77.5,30.6z"/>
<path class="st4" d="M81.5,33c-0.4,2.5-3.5,1.4-3.5,0H81.5z"/>
<path class="st1" d="M83.8,28.7C83.8,28.8,83.8,28.8,83.8,28.7L83,29.6v-1c0-0.3,0-0.7-0.1-1c-0.7,1.4-2,2.4-3.6,2.6
	c-0.2,0-0.5,0-0.7,0h-1.5c-0.8,0.1-1.5,0.3-1.4,1.9c-0.5,0-0.9-0.4-0.9-0.8c0,0,0,0,0,0v-0.6c0-0.2-0.1-0.3-0.2-0.5
	c-0.7,0.1-1.2,0.7-1.3,1.4c-0.2-0.7-0.3-1.5-0.4-2.3v-0.4c0-2.9,2.4-5.2,5.3-5.2h0.6c1.5,0.1,3,0.5,4.4,1.1c0,0,0.1,0,0.1,0v0l0,0
	l0,0l0,0l0.3,0.3C84.8,26,84.8,27.7,83.8,28.7z"/>
<path class="st6" d="M83.4,24.7L83.4,24.7c0,0-0.1,0-0.1,0H83.4z"/>
<path class="st0" d="M92.1,37.9l0.1-0.3l0,0c0,0-0.2-0.1-0.2-0.3c0-0.1,0.2-0.2,0.3-0.1l0-0.1l0,0c0,0-0.3-0.2-0.2-0.4
	c0.1-0.1,0.2-0.1,0.3-0.1l0.6-2l-1.9-0.5l-1,3.4L92.1,37.9z"/>
<rect x="19.2" y="45.3" class="st14" width="1" height="1.8"/>
</svg>
