<?xml version="1.0" encoding="utf-8"?>
<!-- Generator: Adobe Illustrator 25.4.1, SVG Export Plug-In . SVG Version: 6.00 Build 0)  -->
<svg version="1.1" id="Layer_1" xmlns="http://www.w3.org/2000/svg" xmlns:xlink="http://www.w3.org/1999/xlink" x="0px" y="0px"
	 viewBox="0 0 283.5 283.5" style="enable-background:new 0 0 283.5 283.5;" xml:space="preserve">
<style type="text/css">
	.st0{clip-path:url(#SVGID_00000016762534805007051550000013583627475865894813_);fill:#25303B;}
	.st1{clip-path:url(#SVGID_00000016762534805007051550000013583627475865894813_);fill:#EB2132;}
</style>
<g>
	<defs>
		<rect id="SVGID_1_" width="283.5" height="283.5"/>
	</defs>
	<clipPath id="SVGID_00000145738209779441710750000012996782065063344543_">
		<use xlink:href="#SVGID_1_"  style="overflow:visible;"/>
	</clipPath>
	<path style="clip-path:url(#SVGID_00000145738209779441710750000012996782065063344543_);fill:#25303B;" d="M201,183.7
		c-9.3,0-17.1,6.8-18.7,15.6h-1.9c-1.6-8.9-9.4-15.6-18.7-15.6c-9.3,0-17.1,6.8-18.7,15.6h-1.9c-1.6-8.9-9.4-15.6-18.7-15.6
		s-17.1,6.8-18.7,15.6c-0.6,0-1.3,0-1.9,0c-1.6-8.9-9.4-15.6-18.7-15.6c-10.5,0-19,8.5-19,19c0,10.5,8.5,19,19,19
		c9.3,0,17.1-6.8,18.7-15.6h1.9c1.6,8.9,9.4,15.6,18.7,15.6s17.1-6.8,18.7-15.6h1.9c1.6,8.9,9.4,15.6,18.7,15.6
		c9.3,0,17.1-6.8,18.7-15.6h1.9c1.6,8.9,9.4,15.6,18.7,15.6c10.5,0,19-8.5,19-19C220,192.3,211.5,183.7,201,183.7 M161.7,193.4
		c4,0,7.4,2.5,8.7,6H153C154.4,195.9,157.8,193.4,161.7,193.4 M122.5,193.4c4,0,7.4,2.5,8.7,6h-17.4
		C115.2,195.9,118.5,193.4,122.5,193.4 M83.3,212.1c-5.2,0-9.4-4.2-9.4-9.4c0-5.2,4.2-9.4,9.4-9.4c4,0,7.4,2.5,8.7,6h-8.9l-0.2,0
		l-0.4,0c-0.2,0-0.5,0.1-0.7,0.1c-0.4,0.1-0.9,0.3-1.2,0.6c-0.6,0.7-0.8,1.7-0.8,2.6c0,0.9,0.2,1.9,0.8,2.6c0.3,0.3,0.7,0.5,1.2,0.6
		c0.2,0.1,0.5,0.1,0.7,0.1l0.4,0l0.2,0H92C90.6,209.6,87.2,212.1,83.3,212.1 M122.5,212.1c-4,0-7.4-2.5-8.7-6h17.4
		C129.9,209.6,126.5,212.1,122.5,212.1 M161.7,212.1c-4,0-7.4-2.5-8.7-6h17.4C169.1,209.6,165.7,212.1,161.7,212.1 M201,212.1
		c-4,0-7.4-2.5-8.7-6h5.5l0.2,0l0.4,0c0.2,0,0.5-0.1,0.7-0.1c0.4-0.1,0.9-0.3,1.2-0.6c0.6-0.7,0.8-1.7,0.8-2.6
		c0-0.9-0.2-1.9-0.8-2.6c-0.3-0.3-0.7-0.5-1.2-0.6c-0.2-0.1-0.5-0.1-0.7-0.1l-0.4,0l-0.2,0h-5.5c1.4-3.5,4.7-6,8.7-6
		c5.2,0,9.4,4.2,9.4,9.4C210.3,207.9,206.1,212.1,201,212.1 M68.8,164.7c0-0.9,0-1.8,0.1-2.7c0-1.7,17.5-84.2,17.5-84.2l0,0
		c0.8-3.8,2.3-7.8,5.5-9.9c2.2-1.4,4.9-1.7,7.6-1.5c0.9-0.1,38.4-0.1,39.3,0c2-0.1,4.1,0.1,6.1,0.6c3.8,0.8,7.8,2.3,9.9,5.5
		c2,3.2,1.8,7.5,1,11.3l0,0l-8.4,39.6c0,0,58.7,27.4,59.7,27.8c1.7,0.7,3.5,1.4,4.8,2.7c2.7,2.8,3.3,7,3.3,10.9
		c0,3.9-0.6,8.1-3.3,10.9c-2.8,2.7-7,3.3-10.9,3.3H83c-3.9,0-8.1-0.6-10.9-3.3C69.5,172.8,68.8,168.6,68.8,164.7"/>
	<path style="clip-path:url(#SVGID_00000145738209779441710750000012996782065063344543_);fill:#EB2132;" d="M141.7,0
		C63.5,0,0,63.5,0,141.7C0,220,63.5,283.5,141.7,283.5c78.3,0,141.7-63.5,141.7-141.7C283.5,63.5,220,0,141.7,0 M28.4,143.6
		c-0.4-27.1,8.7-52.1,24.2-71.9c0.7-0.9,2.1-1,3-0.2L211.9,228c0.8,0.8,0.8,2.2-0.2,3c-19.7,15.5-44.7,24.6-71.9,24.2
		C79,254.1,29.3,204.5,28.4,143.6 M227.9,211.9L71.5,55.5c-0.8-0.8-0.8-2.2,0.2-3c19.7-15.5,44.7-24.6,71.9-24.2
		c60.9,1,110.6,50.6,111.5,111.5c0.4,27.1-8.7,52.2-24.2,71.9C230.2,212.7,228.8,212.8,227.9,211.9"/>
</g>
</svg>
