<?xml version="1.0" encoding="utf-8"?>
<!-- Generator: Adobe Illustrator 25.4.1, SVG Export Plug-In . SVG Version: 6.00 Build 0)  -->
<svg version="1.1" id="Layer_1" xmlns="http://www.w3.org/2000/svg" xmlns:xlink="http://www.w3.org/1999/xlink" x="0px" y="0px"
	 viewBox="0 0 142.3 184.4" style="enable-background:new 0 0 142.3 184.4;" xml:space="preserve">
<style type="text/css">
	.st0{fill:#FFFFFF;}
</style>
<g>
	<path class="st0" d="M77.4,152.1H38.6L8.2,78.8c-0.4-0.8-1.2-1.4-2-1.4c-0.3,0-0.6,0.1-0.8,0.2l-3,1.2c-1.1,0.5-1.7,1.8-1.2,2.9
		l30.1,72.8c0.1,0.2,0.2,0.4,0.3,0.6l0.1,0.2c0.2,0.3,0.3,0.6,0.5,0.9c0.4,0.7,1,1.3,1.6,1.7c1.2,1,2.8,1.6,4.3,1.7
		c0.2,0,0.4,0,0.6,0l19.5,0h19.2c1.2,0,2.2-1,2.2-2.2v-3.2C79.6,153.1,78.6,152.1,77.4,152.1z"/>
	<path class="st0" d="M115.3,27.8V12.2c0-0.3-0.3-0.6-0.6-0.6h-1.6c-0.3,0-0.6,0.3-0.6,0.6v16.7l11.8,11.8c0.2,0.2,0.6,0.2,0.9,0v0
		l1.1-1.1c0.1-0.1,0.2-0.3,0.2-0.4s-0.1-0.3-0.2-0.4L115.3,27.8z"/>
	<path class="st0" d="M113.9,1C98.9,1,86.6,13.3,86.6,28.3c0,15.1,12.3,27.3,27.3,27.3s27.3-12.3,27.3-27.3
		C141.3,13.3,129,1,113.9,1z M113.9,52c-13.1,0-23.7-10.6-23.7-23.7c0-13.1,10.6-23.7,23.7-23.7s23.7,10.6,23.7,23.7
		C137.6,41.4,127,52,113.9,52z"/>
	<path class="st0" d="M32.4,62.8C32.4,62.8,32.4,62.8,32.4,62.8c4.7,0,8.1-1,10.2-3c2-2.1,3-5.4,3-10.1c0-4.7-1-8-3-10.2
		c-2.1-2-5.4-3-10.2-3c0,0,0,0,0,0c-4.7,0-8.1,1-10.2,3c-2,2.1-3,5.4-3,10.1c0,4.7,1,8.1,3,10.2C24.4,61.8,27.7,62.8,32.4,62.8z"/>
	<path class="st0" d="M118.6,138.2l-26.5-18.9c-0.3-0.3-0.7-0.5-1-0.7l-0.4-0.3c-0.2-0.1-0.3-0.1-0.4-0.2c0,0-0.1,0-0.1-0.1
		c-0.7-0.3-1.3-0.6-2.2-0.8c-0.3-0.1-0.7-0.1-1.1-0.2c-0.2,0-0.5,0-0.7,0l-0.5,0c-0.7,0-1.4,0-2.3,0.2l-18.1,2.5L47,75.6
		c-1.8-4.4-5.8-7.5-10.5-8.2c-0.1,0-0.3,0-0.4,0c-0.4,0-0.7,0-1.1,0c-2.3,0-4.7,0.5-6.8,1.4c-2.3,1-4.2,2.9-5.3,5.3
		c-2.3,5-2.4,10.8-0.3,15.9l20.2,48.8c1.4,3.3,4.6,5.5,8.2,5.5h33.4l10.9,34c0.8,2.4,1.8,4,3.2,4.7c1.3,0.7,3.2,0.6,5.6-0.2
		c2.5-0.6,4.1-1.5,5-2.8c0.8-1.3,0.9-3.1,0.3-5.6L102,144l8.6,5.8c2.1,1.4,3.9,2,5.4,1.7c1.5-0.3,2.9-1.5,4.3-3.6
		c1.5-2.1,2.1-3.8,1.9-5.3C121.9,141.1,120.7,139.6,118.6,138.2z"/>
</g>
</svg>
