<?xml version="1.0" encoding="utf-8"?>
<!-- Generator: Adobe Illustrator 25.4.1, SVG Export Plug-In . SVG Version: 6.00 Build 0)  -->
<svg version="1.1" id="Layer_1" xmlns="http://www.w3.org/2000/svg" xmlns:xlink="http://www.w3.org/1999/xlink" x="0px" y="0px"
	 viewBox="0 0 142.3 184.4" style="enable-background:new 0 0 142.3 184.4;" xml:space="preserve">
<style type="text/css">
	.st0{fill:#25303B;}
</style>
<g>
	<path class="st0" d="M77.4,160.7H58.3H49h-5.1h-2.6H40h-0.7l-0.6,0c-0.2,0-0.4,0-0.7,0c-1.8-0.1-3.5-0.8-4.9-1.9
		c-0.7-0.6-1.3-1.2-1.8-2c-0.2-0.4-0.4-0.8-0.7-1.2c-0.1-0.2-0.2-0.4-0.3-0.6l-0.2-0.4c-0.7-1.7-1.4-3.4-2.1-5.2
		c-1.4-3.5-2.9-7-4.4-10.6C12,110.5,0.2,82.1,0.2,82.1C-0.4,80.5,0.3,78.6,2,78l3-1.2c1.6-0.7,3.5,0.1,4.2,1.7
		c0,0,11.7,28.3,23.5,56.6c2.3,5.4,4.5,10.9,6.6,16h19h19.2c1.8,0,3.2,1.4,3.2,3.2v3.2C80.6,159.3,79.2,160.7,77.4,160.7 M43.3,38.7
		c-2.8-2.7-7-3.3-10.9-3.3c-3.9,0-8.1,0.6-10.9,3.3c-2.7,2.8-3.3,7-3.3,10.9c0,3.9,0.6,8.1,3.3,10.9c2.8,2.7,7,3.3,10.9,3.3
		c3.9,0,8.1-0.6,10.9-3.3c2.7-2.8,3.3-7,3.3-10.9C46.6,45.7,45.9,41.5,43.3,38.7 M123.1,142.4c-0.4-2.1-2.1-3.8-3.9-5.1
		c0,0-11.4-8.1-22.8-16.3c-0.7-0.5-1.4-1-2.1-1.5l-1.5-1.1c-0.4-0.3-0.7-0.5-1.1-0.7l-0.6-0.3c-0.2-0.1-0.4-0.2-0.6-0.3
		c-0.7-0.4-1.6-0.7-2.4-0.9c-0.4-0.1-0.8-0.1-1.2-0.2c-0.4,0-0.8-0.1-1.2-0.1c-0.8,0-1.7,0-2.5,0.2c-0.6,0.1-1.2,0.2-1.7,0.2
		c-3.3,0.5-6.3,0.9-8.9,1.3c-2.9,0.4-5.2,0.7-6.7,0.9l-18-43.4c-1.9-4.7-6.3-8.1-11.3-8.8c-0.2,0-0.3,0-0.5,0
		c-2.9-0.2-5.8,0.3-8.4,1.4c-2.6,1.1-4.7,3.1-5.9,5.8c-2.4,5.3-2.5,11.3-0.3,16.7l20.2,48.8c1.5,3.7,5.1,6.1,9.2,6.1h32.7
		c1.7,5.4,3.3,10.5,4.7,14.9c3.5,11.1,5.9,18.5,5.9,18.5c0.7,2.1,1.7,4.2,3.6,5.3c1.9,1,4.3,0.6,6.4-0.1c2.1-0.5,4.4-1.4,5.5-3.2
		c1.1-1.9,0.9-4.2,0.4-6.4l-5.2-21.9l-1.4-6l6.5,4.4c1.8,1.2,4,2.2,6.1,1.9c2.1-0.4,3.7-2.2,5-4
		C122.4,146.7,123.4,144.5,123.1,142.4 M142.3,28.3c0-15.6-12.7-28.3-28.3-28.3S85.6,12.7,85.6,28.3c0,15.6,12.7,28.3,28.3,28.3
		S142.3,44,142.3,28.3 M136.6,28.3c0,12.5-10.2,22.7-22.7,22.7S91.3,40.9,91.3,28.3c0-12.5,10.2-22.7,22.7-22.7
		S136.6,15.8,136.6,28.3 M125.9,41.4l1.1-1.1c0.6-0.6,0.6-1.6,0-2.3l-10.7-10.7V12.2c0-0.9-0.7-1.6-1.6-1.6h-1.6
		c-0.9,0-1.6,0.7-1.6,1.6v17.1l12.1,12.1C124.3,42.1,125.3,42.1,125.9,41.4"/>
</g>
</svg>
