<?xml version="1.0" encoding="utf-8"?>
<!-- Generator: Adobe Illustrator 25.4.1, SVG Export Plug-In . SVG Version: 6.00 Build 0)  -->
<svg version="1.1" id="Layer_1" xmlns="http://www.w3.org/2000/svg" xmlns:xlink="http://www.w3.org/1999/xlink" x="0px" y="0px"
	 viewBox="0 0 99.3 99.2" style="enable-background:new 0 0 99.3 99.2;" xml:space="preserve">
<style type="text/css">
	.st0{fill:#64B5E5;}
	.st1{fill:#25303B;}
	.st2{fill:#BB7256;}
	.st3{fill:#CE7D5F;}
	.st4{fill:#F8A183;}
	.st5{fill:#EB8D77;}
	.st6{fill:#EB2132;}
	.st7{fill:#CC8A79;enable-background:new    ;}
	.st8{fill:#FFFFFF;}
	.st9{fill:#CF7F5F;}
</style>
<path class="st0" d="M22.6-0.1h54.1c12.5,0,22.6,10.1,22.6,22.6v54.1c0,12.5-10.1,22.6-22.6,22.6H22.6C10.1,99.2,0,89.1,0,76.6V22.5
	C0,10.1,10.1-0.1,22.6-0.1"/>
<path class="st1" d="M27.3,32.4L26.6,34l-7.5,17.3L18,53.8l0,0.1L16.6,57L0,49.8V22.6c0-0.7,0-1.3,0.1-2L27.3,32.4z"/>
<path class="st2" d="M49.7,73.2c-0.3-0.1-0.6-0.3-0.8-0.4c-0.4-0.2-0.7-0.4-1.1-0.6c0,0-0.1-0.1-0.2-0.1c0,0-0.1-0.1-0.2-0.1
	c0.1-0.2,0.1-0.5,0.2-0.7c0.1-0.4,0.2-0.7,0.2-1c-0.1-0.4-0.2-0.8-0.4-1.1c0.6,0.4,1.1,0.9,1.3,1.6c0.1,0.4,0.2,0.8,0.2,1.3
	C48.9,72.1,50.1,73,49.7,73.2z"/>
<path class="st2" d="M33.1,61c-0.6,0.2-1.1,0.6-1.4,1.2c-0.2,0.3-0.4,0.7-0.6,1.1c0,0-0.1-0.1-0.1-0.1c0,0,0,0-0.1-0.1c0,0,0,0,0,0
	c-0.1-0.3-0.2-0.6-0.4-0.9c0,0,0,0,0,0c-0.6-0.8-1.4-1.5-2.3-2c-0.7-0.4-1.2-0.6-1.6-0.6c-2-1.6-4.2-3.3-5.5-4.3l-0.2-0.1L18,53.9
	l0-0.1l1.1-2.5l4.6,2c0,0,0.6,0.5,1.5,1.3c0.2,0.1,0.3,0.3,0.5,0.4c1.1,0.9,2.5,2,4,3.3c0.5,0.5,1.1,0.9,1.7,1.4
	C32,60.1,32.6,60.5,33.1,61z"/>
<path class="st2" d="M39,63.5c-0.2,0.1-0.4,0.3-0.6,0.5c-0.1,0.1-0.2,0.3-0.3,0.4c-0.1,0.1-0.2,0.2-0.2,0.3
	c-0.1,0.1-0.2,0.2-0.2,0.3c0.2-1.8-0.6-3.1-1.7-3.7c0,0,0,0,0,0c0.1,0,0.2,0,0.3,0.1c0.2,0.1,0.5,0.2,0.8,0.3
	c0.1,0.1,0.2,0.1,0.3,0.2C38,62.2,38.5,62.7,39,63.5z"/>
<path class="st2" d="M45.7,67.9c0,0-0.1,0-0.1,0c-0.4-0.1-0.8,0-1.2,0.1c-0.4,0.1-0.8,0.3-1.1,0.6l0.4-0.8c0.1-0.2,0.1-0.3,0.2-0.5
	c0.2-0.9,0.1-1.9-0.3-2.6c0.1,0.1,0.2,0.1,0.3,0.2c0,0,0.1,0.1,0.1,0.1c0.1,0.1,0.2,0.2,0.2,0.2c0.1,0.1,0.2,0.2,0.3,0.3
	c0.1,0.1,0.2,0.2,0.3,0.3c0,0,0.1,0.1,0.1,0.2c0.1,0.1,0.2,0.2,0.2,0.3c0,0,0,0,0,0.1c0.1,0.1,0.1,0.2,0.2,0.3
	C45.5,67.1,45.7,67.5,45.7,67.9z"/>
<path class="st3" d="M49.4,66.8l7.2,4.3c-0.1,0.7-0.4,1.3-0.8,1.9c-1.6-0.9-3.1-1.9-4.5-3C49.3,68.4,49.4,66.8,49.4,66.8z"/>
<path class="st3" d="M63,67.3c0.1,0.4,0.2,0.7,0.2,1.1c0,0.3,0,0.6-0.1,0.9c-0.1,0.3-0.2,0.5-0.4,0.8c0,0,0,0,0,0.1
	c-1.5-1.1-4.1-2.8-5.6-3.8c-1.4-1.1-2.3-2.8-2.4-4.7L63,67.3z"/>
<path class="st3" d="M67.9,60.3c0.5,0.9,0.8,1.8,0.8,2.8c0,0.4,0,0.8-0.1,1.1c-2.2-1.5-5.8-4-7.7-5.3c-3.1-2.1-2.7-4.8-2.7-4.8
	L67.9,60.3z"/>
<path class="st2" d="M68.7,63.1c0,0.4,0,0.8-0.1,1.1c-2.2-1.5-5.8-4-7.7-5.3c-3.1-2.1-2.7-4.8-2.7-4.8l9.7,6.1
	C68.4,61.1,68.7,62.1,68.7,63.1z"/>
<path class="st2" d="M63.2,68.4c0,0.3,0,0.6-0.1,0.9c-0.1,0.3-0.2,0.5-0.4,0.8c0,0,0,0,0,0.1h0c-1.5-1.1-4.1-2.8-5.6-3.8
	c-1.4-1.1-2.3-2.8-2.4-4.7l8.4,5.6C63.1,67.7,63.2,68,63.2,68.4z"/>
<path class="st2" d="M56.6,71.1c-0.1,0.7-0.4,1.3-0.8,1.9c-1.6-0.9-3.1-1.9-4.5-3c-2-1.6-1.9-3.2-1.9-3.2L56.6,71.1z"/>
<path class="st4" d="M30.5,62.2c-0.1,0.1-0.1,0.3-0.2,0.4c0,0,0,0,0,0c-0.1,0.2-0.2,0.3-0.2,0.5c-0.2,0.4-0.3,0.9-0.5,1.3
	c-0.1,0.3-0.2,0.5-0.2,0.8c-0.5,0.1-1.1,0-1.6-0.2c-1.9-0.9-3.6-4.2-2.2-5.2c0,0,0.3-0.3,1.1-0.2c0.4,0.1,0.9,0.2,1.6,0.6
	C29.1,60.7,29.9,61.4,30.5,62.2z"/>
<path class="st5" d="M31,63.5L31,63.5c-0.2,0.4-0.3,0.8-0.5,1.2c-0.3,0.3-0.7,0.5-1.2,0.6c0.1-0.3,0.2-0.5,0.2-0.8
	c0.1-0.4,0.3-0.9,0.5-1.3c0.1-0.2,0.2-0.3,0.2-0.5c0,0,0,0,0,0c0.1-0.1,0.1-0.3,0.2-0.4c0,0,0,0,0,0c0.2,0.3,0.3,0.6,0.4,0.9
	C31,63.2,31,63.3,31,63.5z"/>
<path class="st4" d="M37.7,65L37.7,65L37.7,65l-1.9,4.2c-1,0.5-2.2,0.7-3.4,0.5c-1.6-0.4-2.7-2-2.3-3.7c0,0,0,0,0,0
	c0.1-0.5,0.2-0.9,0.4-1.3c0.1-0.4,0.3-0.8,0.5-1.1v0c0-0.1,0.1-0.2,0.1-0.3c0.2-0.4,0.4-0.7,0.6-1.1c0.4-0.6,0.9-0.9,1.4-1.2
	c0.9-0.3,2-0.3,2.9,0.2c0,0,0,0,0,0C37.1,61.9,37.9,63.1,37.7,65z"/>
<path class="st4" d="M43.9,67.3c-0.1,0.2-0.1,0.3-0.2,0.5L43,69.4l-1.5,3.1c-1.4,0.5-2.9,0.3-4.2-0.5L37,71.7
	c-0.1-0.1-0.2-0.1-0.3-0.2c0.1,0.1,0.2,0.1,0.3,0.2c0.4-1.3,1-3,1.5-4.6c0-0.1,0.1-0.2,0.1-0.2c0.3-0.8,0.6-1.5,1.1-2.2
	c0.4-0.6,1-1.2,1.6-1.7h0.2c0.9,0.3,1.7,0.9,2.1,1.7C44,65.4,44.2,66.4,43.9,67.3z"/>
<path class="st4" d="M41.3,63c-1.2,1-2.2,2.3-2.7,3.9c-0.6,1.6-1.2,3.4-1.6,4.8c-0.4-0.2-0.7-0.6-0.9-1c-0.1-0.3-0.2-0.6-0.3-0.9
	c0-0.2,0-0.4,0-0.6l1.8-4.2c0,0,0,0,0,0c0-0.1,0.1-0.2,0.2-0.3c0.1-0.1,0.2-0.2,0.2-0.3c0.1-0.1,0.2-0.2,0.3-0.4
	c0.2-0.2,0.4-0.4,0.7-0.6c0.2-0.1,0.3-0.2,0.5-0.3C40.2,62.9,40.7,62.8,41.3,63z"/>
<path class="st4" d="M47.9,70.3c0,0.3-0.1,0.6-0.2,1c0,0.2-0.1,0.4-0.2,0.7c-0.4,1.3-0.8,2.7-0.8,2.7c-0.3,0.3-0.7,0.6-1.6,0.5
	c0,0-0.1,0-0.1,0c0,0-0.1,0-0.2,0c0,0,0,0,0,0c0,0-0.1,0-0.1,0c0,0,0,0-0.1,0c-0.1,0-0.2-0.1-0.4-0.1c0,0,0,0,0,0
	c-0.1,0-0.2-0.1-0.4-0.1c0,0,0,0-0.1,0c-0.4-0.1-0.7-0.3-1-0.5l0,0c0.3-1,0.8-2.2,1.3-3.6c0.1-0.2,0.1-0.4,0.2-0.7
	c0.3-0.8,0.8-1.5,1.5-2.1c0,0,0.1,0,0.1,0c0.7,0.2,1.3,0.7,1.7,1.3C47.7,69.5,47.8,69.9,47.9,70.3z"/>
<path class="st5" d="M41.3,63c-0.6,0.5-1.2,1.1-1.6,1.7c-0.5,0.7-0.9,1.4-1.1,2.2c0,0.1-0.1,0.2-0.1,0.2c-0.6,1.6-1.1,3.3-1.5,4.6
	c-0.1-0.1-0.2-0.1-0.3-0.2c-0.1-0.1-0.2-0.2-0.2-0.2c-0.1-0.2-0.3-0.3-0.4-0.5c-0.1-0.3-0.2-0.6-0.3-0.9c0-0.2,0-0.4,0-0.6v0
	l1.2-2.8l0.6-1.4c0,0,0,0,0,0c0-0.1,0.1-0.2,0.2-0.3c0.1-0.1,0.2-0.2,0.2-0.3c0.1-0.1,0.2-0.2,0.3-0.4c0.2-0.2,0.3-0.3,0.6-0.5
	c0,0,0.1,0,0.1-0.1c0.2-0.1,0.3-0.2,0.5-0.3C40.2,62.9,40.7,62.8,41.3,63z"/>
<polygon class="st6" points="83.5,78.6 87.1,74.9 84.7,72.5 84.7,72.5 81,76.1 77.3,72.5 74.9,74.9 78.6,78.6 74.9,82.2 77.3,84.7 
	81,81 84.7,84.7 87.1,82.2 "/>
<path class="st5" d="M45.6,67.9c-0.3,0.3-0.6,0.7-0.9,1.1c-0.1,0.1-0.2,0.2-0.2,0.4c-0.1,0.2-0.2,0.4-0.3,0.7
	c-0.1,0.2-0.2,0.4-0.2,0.7c-0.5,1.4-1,2.6-1.3,3.6c-0.6-0.4-1-1.1-1.1-1.8l1.5-3.1l0.4-0.8c0.3-0.3,0.7-0.5,1.1-0.6
	C44.8,67.9,45.2,67.8,45.6,67.9z"/>
<path class="st7" d="M49.7,73.2c-0.5,0.3-1.5,0.9-2.6,1.5c-0.7,0.4-1.4,0.5-2.1,0.4c0.9,0.1,1.3-0.2,1.6-0.5c0,0,0.5-1.4,0.8-2.7
	c0.1,0,0.1,0.1,0.2,0.1c0,0,0.1,0.1,0.2,0.1c0.4,0.2,0.8,0.5,1.1,0.6C49.1,72.9,49.4,73.1,49.7,73.2z"/>
<path class="st8" d="M84.7,72.5l2.4,2.4l-3.7,3.7l3.7,3.7l-2.4,2.4L81,81l-3.7,3.7l-2.4-2.4l3.7-3.7l-3.6-3.7l2.4-2.4l3.6,3.7
	L84.7,72.5L84.7,72.5z M84.7,71.5L84.7,71.5c-0.3,0-0.5,0.1-0.7,0.3l-3,3l-3-3c-0.2-0.2-0.4-0.3-0.7-0.3c-0.3,0-0.5,0.1-0.7,0.3
	l-2.4,2.4c-0.4,0.4-0.4,1,0,1.4l3,3l-3,3c-0.4,0.4-0.4,1,0,1.4l2.4,2.4c0.2,0.2,0.4,0.3,0.7,0.3c0.3,0,0.5-0.1,0.7-0.3l3-3l3,3
	c0.4,0.4,1,0.4,1.4,0l2.4-2.4c0.4-0.4,0.4-1,0-1.4l-3-3l3-3c0.4-0.4,0.4-1,0-1.4l-2.4-2.4C85.2,71.6,84.9,71.5,84.7,71.5L84.7,71.5z
	"/>
<path class="st1" d="M75.1,26.9l8.5,16.5l1.8,3.5l0.1,0.1l1.4,2.7l12.5-6.4V22.6c0-3.1-0.6-6-1.7-8.6L78,24L75.1,26.9z"/>
<path class="st5" d="M85.4,46.9l-5.8,2.5l-0.2,0.2c-1.2,1.4-2.6,2.6-4.1,3.6c-0.9,0.6-1.5,1-1.5,1l-0.5-0.6
	c-0.5-0.6-1.1-1.2-1.8-1.6l-3-1.8l-5.6-3.4l-1-0.6l-0.7-0.4l-11.9-7.1c-0.4-0.3-0.9-0.3-1.4-0.2c-0.1,0-0.2,0-0.2,0.1l-3.4,1.2
	L44,39.6l-0.2,0.1c-0.2,0.1-0.4,0.3-0.6,0.4c-0.1,0.1-0.2,0.2-0.3,0.3c-0.8,1.2-1.5,2.1-2.2,2.9c-0.1,0.1-0.2,0.2-0.3,0.3
	c-0.1,0.1-0.2,0.2-0.4,0.3c-0.2,0.2-0.3,0.3-0.5,0.4c-0.2,0.1-0.4,0.3-0.5,0.4c-1.1,0.8-2.2,1.2-3.1,1.3c-0.1,0-0.2,0-0.3,0
	c0,0,0,0,0,0c1.4-0.7,2.6-1.5,3.8-2.4c2.2-1.8,3.5-4.3,3.8-7.1c1.8-0.6,3.5-1.1,5.4-1.4c0.6,0,8.9,5,15.7,9.3
	c2.1-1.4,3.6-3.5,4.2-5.9c0.1,2.6-1,5-3,6.7c2,1.2,3.7,2.3,5.1,3.2c1.1-0.2,2.2-0.7,3.2-1.3c1.1-0.7,1.5-1.1,9.7-3.9L85.4,46.9z"/>
<path class="st4" d="M35.5,46.2L35.5,46.2C35.5,46.2,35.6,46.1,35.5,46.2c1.4-0.7,2.7-1.5,3.9-2.4c2.2-1.8,3.5-4.3,3.8-7.1
	c1.8-0.6,3.5-1.1,5.4-1.4c0.6,0,8.9,5,15.7,9.3c2.1-1.4,3.6-3.5,4.2-5.9c0.1,2.6-1,5-3,6.7c2,1.2,3.7,2.3,5.1,3.2
	c1.1-0.2,2.2-0.7,3.2-1.3c1.1-0.7,1.5-1.1,9.7-3.9l-8.5-16.5l0.1-0.1L67.6,30l-17.4-1.8c-0.8-0.1-1.5,0.1-2.2,0.4l-8.8,4.7l-1.4,0.8
	c-0.8,0.4-1.4,1.1-1.7,1.9l-3.7,8.2c-0.3,0.8,0.3,1.5,1,1.9c0,0,0.1,0.1,0.1,0.1c0.4,0.2,0.8,0.2,1.2,0.2
	C35,46.3,35.3,46.2,35.5,46.2z"/>
<path class="st2" d="M38.2,45.4c-0.1,0.1-0.2,0.1-0.3,0.2c-0.2,0.1-0.4,0.2-0.6,0.3c-0.1,0-0.1,0-0.2,0.1c-0.2,0.1-0.4,0.1-0.6,0.2
	c-0.1,0-0.2,0-0.2,0.1c-0.1,0-0.2,0.1-0.3,0.1c0,0-0.1,0-0.2,0c0,0,0,0,0,0c-0.3,0-0.6,0.1-0.8,0.1c-0.4,0-0.8,0-1.2-0.2
	c1,1.1,2.6,1.6,4.2,1.4c3.9-0.3,7.1-5.7,8.5-6.3c0.5-0.2,3.6,0.8,7.3,2.4c5.5,3.1,16.4,9.1,18.7,10.6c0.9,0.6,1.9,1.5,2.6,2.4
	c-0.1-0.3-0.1-0.6-0.3-1.1L74.2,55c-0.3-0.6-0.5-0.8-0.5-0.8l-0.5-0.6c-0.5-0.6-1.1-1.2-1.8-1.6l-3-1.8l-5.6-3.4l-1-0.6l-0.7-0.4
	l-11.9-7.1c-0.4-0.3-0.9-0.3-1.4-0.2c-0.1,0-0.2,0-0.2,0.1l-3.4,1.2L44,39.6l-0.2,0.1c-0.2,0.1-0.4,0.3-0.6,0.4
	c-0.1,0.1-0.2,0.2-0.3,0.3c-0.8,1.2-1.5,2.1-2.2,2.9c-0.1,0.1-0.2,0.2-0.3,0.3c-0.1,0.1-0.2,0.2-0.4,0.3c-0.2,0.2-0.3,0.3-0.5,0.4
	c-0.2,0.1-0.4,0.3-0.5,0.4C38.7,45,38.4,45.2,38.2,45.4z"/>
<g>
	<path class="st9" d="M72.2,54.2c-2.3-1.5-13.1-7.6-18.7-10.6c-3.8-1.6-6.8-2.7-7.3-2.4c-1.4,0.6-4.6,6-8.5,6.3
		c-1.6,0.2-3.1-0.3-4.2-1.4c0,0-0.1,0-0.1-0.1c-0.7-0.4-1.3-1.1-1-1.9l3.7-8.2c0.3-0.8,0.9-1.5,1.7-1.9l1.4-0.8l-8.4,1.9L26.6,34
		l-7.5,17.3l4.6,2c0,0,0.6,0.5,1.5,1.3c0.2,0.1,0.3,0.3,0.5,0.4c1.1,0.9,2.5,2,4,3.3c0.5,0.5,1.1,0.9,1.7,1.4
		c0.6,0.5,1.1,0.9,1.7,1.4c0.9-0.3,2-0.3,2.9,0.2c0,0,0,0,0,0c0,0,0,0,0,0c0.1,0,0.2,0,0.3,0.1c0.2,0.1,0.5,0.2,0.8,0.3
		c0.1,0.1,0.2,0.1,0.3,0.2c0.5,0.3,1.1,0.8,1.6,1.6c0,0,0.1,0,0.1-0.1c0.2-0.1,0.3-0.2,0.5-0.3c0.5-0.2,1-0.3,1.7-0.1h0.2
		c0.9,0.3,1.7,0.9,2.1,1.7c0.1,0.1,0.2,0.1,0.3,0.2c0,0,0.1,0.1,0.1,0.1c0.1,0.1,0.2,0.2,0.2,0.2c0.1,0.1,0.2,0.2,0.3,0.3
		c0.1,0.1,0.2,0.2,0.3,0.3c0,0,0.1,0.1,0.1,0.2c0.1,0.1,0.2,0.2,0.2,0.3c0,0,0,0,0,0.1c0.1,0.1,0.1,0.2,0.2,0.3
		c0.2,0.4,0.3,0.8,0.4,1.2c0.7,0.2,1.3,0.7,1.7,1.3c0.6,0.4,1.1,0.9,1.3,1.6c0.1,0.4,0.2,0.8,0.2,1.3c0,0,1.1,0.9,0.8,1.2
		c1.2,0.6,2.6,0.9,3.9,0.9c0.9,0,1.7-0.4,2.2-1.1c-1.6-0.9-3.1-1.9-4.5-3c-2-1.6-1.9-3.2-1.9-3.2l7.2,4.3c0.4,0.3,0.9,0.6,1.4,0.8
		c1.5,0.5,3.2,0,4.3-1.2c0.1-0.2,0.2-0.3,0.4-0.5c-1.5-1.1-4.1-2.8-5.6-3.8c-1.4-1.1-2.3-2.8-2.4-4.7l8.4,5.6
		c0.1,0.4,0.2,0.7,0.2,1.1c0,0.3,0,0.6-0.1,0.9c0.1-0.3,0.2-0.6,0.2-0.9c0-0.4-0.1-0.7-0.2-1.1c0.2,0.1,0.5,0.1,0.9,0.1
		c1.3,0,3.5-0.5,4.4-2.4c0.1-0.2,0.2-0.4,0.2-0.7c-2.2-1.5-5.8-4-7.7-5.3c-3.1-2.1-2.7-4.8-2.7-4.8l9.7,6.1c3.6,2,5.4,0.7,6.3-0.6
		c0.5-0.9,0.7-2,0.7-3.1v0C74.1,55.7,73.1,54.8,72.2,54.2z"/>
</g>
<path class="st8" d="M85.6,16.4L75.1,26.9L16.7,85.3c-0.3,0.3-0.8,0.5-1.2,0.5c-1,0-1.8-0.8-1.7-1.8c0-0.5,0.2-0.9,0.5-1.2
	l68.9-68.9c0.7-0.7,1.8-0.7,2.5,0C86.3,14.6,86.3,15.7,85.6,16.4z"/>
</svg>
