<svg xmlns="http://www.w3.org/2000/svg" viewBox="0 0 28.85 25.02"><defs><style>.cls-1{fill:#25303b;}.cls-2{fill:#eb2132;}</style></defs><g id="Layer_2" data-name="Layer 2"><g id="Layer_1-2" data-name="Layer 1"><path class="cls-1" d="M24.29,3.81a2.06,2.06,0,0,0,1.46-.45A2.06,2.06,0,0,0,26.2,1.9,2.05,2.05,0,0,0,25.75.45,2.06,2.06,0,0,0,24.29,0a2.08,2.08,0,0,0-1.46.45,2.09,2.09,0,0,0-.44,1.45,2.1,2.1,0,0,0,.44,1.46A2.08,2.08,0,0,0,24.29,3.81Z"/><path class="cls-1" d="M7.5,5.88a1.91,1.91,0,0,0-1.21-.73,1.93,1.93,0,0,0-1.42.07,2,2,0,0,0-.73,1.21,1.93,1.93,0,0,0,.07,1.42,2,2,0,0,0,1.22.73,1.9,1.9,0,0,0,1.41-.07,1.9,1.9,0,0,0,.73-1.22A1.9,1.9,0,0,0,7.5,5.88"/><path class="cls-1" d="M12.82.72a1.38,1.38,0,0,1,.94.24A1.38,1.38,0,0,1,14,1.9a1.39,1.39,0,0,1-.24,1,1.38,1.38,0,0,1-.94.24,1.39,1.39,0,0,1-1-.24,1.39,1.39,0,0,1-.24-1A1.38,1.38,0,0,1,11.87,1a1.39,1.39,0,0,1,1-.24m0-.72a2.06,2.06,0,0,0-1.46.45,2.05,2.05,0,0,0-.45,1.45,2.06,2.06,0,0,0,.45,1.46,2.06,2.06,0,0,0,1.46.45,2.08,2.08,0,0,0,1.46-.45,2.1,2.1,0,0,0,.44-1.46A2.09,2.09,0,0,0,14.28.45,2.08,2.08,0,0,0,12.82,0Z"/><path class="cls-1" d="M28.84,13.76l-.35-5.48-.08-1.37v-.3a.13.13,0,0,1,0-.06c0-1.35-1.86-2.43-4.1-2.43a5.78,5.78,0,0,0-2.72.63,2.53,2.53,0,0,1,.9,1.74.2.2,0,0,0,0,.07v.31l.09,1.37.35,5.48a1.51,1.51,0,0,1-.32,1.13h0a1.38,1.38,0,0,1-.88.42c0,.09,0,.15,0,.18-.09,2.81-.19,5.63-.28,8.46v.18l0,.22a.94.94,0,0,0,.2.4,1.25,1.25,0,0,0,.83.29h.12a1.17,1.17,0,0,0,.74-.23.84.84,0,0,0,.22-.39,1.74,1.74,0,0,0,.05-.22s0-.08,0-.12V24q.15-4.24.29-8.48c0-.27,0-.53,0-.8a.22.22,0,0,1,.22-.22h.24a.23.23,0,0,1,.23.22c0,.27,0,.53,0,.8.1,2.82.19,5.65.29,8.48v.06s0,.08,0,.12a1.7,1.7,0,0,0,0,.22,1.07,1.07,0,0,0,.22.39A1.21,1.21,0,0,0,26,25h.11a1.3,1.3,0,0,0,.84-.29,1.09,1.09,0,0,0,.22-.62.49.49,0,0,0,0-.12v-.06c-.1-2.83-.19-5.65-.29-8.46a1,1,0,0,0,0-.14c0-.14,0-.29,0-.43,0-.52-.07-1.34-.12-2.3h0c-.07-1.37-.16-3-.24-4.48A.12.12,0,0,1,26.59,8h.07a.13.13,0,0,1,.11.13v.22l.35,5.48a1,1,0,0,0,.24.64,1,1,0,0,0,.67.16.94.94,0,0,0,.64-.24A.88.88,0,0,0,28.84,13.76Z"/><path class="cls-1" d="M14.32,4.38A6.23,6.23,0,0,0,13,4.25c-2.4,0-4.29,1.2-4.3,2.74l0,.28c-.06.87-.43,5.94-.44,6l.72.05c0-.05.39-5.12.44-6l0-.32c0-1.1,1.64-2,3.58-2l.58,0A3.36,3.36,0,0,1,14.32,4.38Z"/><path class="cls-1" d="M22.27,13.76l-.25-4-.1-1.5V8l-.08-1.13v-.3a.13.13,0,0,0,0-.06A1.92,1.92,0,0,0,21,5.12a5.27,5.27,0,0,0-3.28-1,5.34,5.34,0,0,0-3.25,1v.06h0a1.9,1.9,0,0,0-.79,1.46h0v.13l0,.17L13.5,8.28l-.35,5.48a.93.93,0,0,0,.16.67.94.94,0,0,0,.64.24h.12a.87.87,0,0,0,.55-.16,1,1,0,0,0,.24-.64l.35-5.48V8.17A.14.14,0,0,1,15.34,8h.08a.13.13,0,0,1,.12.08c-.08,1.46-.18,3.11-.25,4.48h0c-.06,1.14-.11,2.09-.14,2.56v.11a1.92,1.92,0,0,0,0,.2q-.13,4.22-.29,8.46V24s0,.08,0,.12a1.09,1.09,0,0,0,.22.62,1.3,1.3,0,0,0,.84.29H16a1.19,1.19,0,0,0,.74-.23A1.07,1.07,0,0,0,17,24.4a1.7,1.7,0,0,0,0-.22s0-.08,0-.12V24c.1-2.83.19-5.66.29-8.48,0-.27,0-.53,0-.8a.24.24,0,0,1,.23-.22h.24a.24.24,0,0,1,.23.22c0,.27,0,.53,0,.8q.13,4.23.29,8.48v.06s0,.08,0,.12a1.74,1.74,0,0,0,.05.22.94.94,0,0,0,.22.39,1.19,1.19,0,0,0,.74.23h.12a1.3,1.3,0,0,0,.84-.29,1.09,1.09,0,0,0,.22-.62s0-.08,0-.12v-.06q-.15-4.24-.29-8.46a1,1,0,0,0,0-.14c0-.14,0-.29,0-.43s0-.18,0-.28c0-.51-.07-1.22-.11-2h0c-.05-.87-.1-1.84-.16-2.81,0-.57-.06-1.13-.09-1.67A.13.13,0,0,1,20,8h.08a.14.14,0,0,1,.12.13v.22l.35,5.48a1,1,0,0,0,.24.64.58.58,0,0,0,.19.1,1.13,1.13,0,0,0,.36.06h.12a1.37,1.37,0,0,0,.28-.05.66.66,0,0,0,.36-.19A1,1,0,0,0,22.27,13.76Z"/><path class="cls-1" d="M14.45,5.15V5.09l-.06,0Z"/><path class="cls-1" d="M17.72,3.81a2.06,2.06,0,0,0,1.46-.45,2.06,2.06,0,0,0,.45-1.46A2.05,2.05,0,0,0,19.18.45,2.06,2.06,0,0,0,17.72,0a2.08,2.08,0,0,0-1.46.45,2,2,0,0,0-.44,1.45,2.06,2.06,0,0,0,.44,1.46A2.08,2.08,0,0,0,17.72,3.81Z"/><path class="cls-1" d="M13.61,19.22l-1.73-1.95-1-1.38a1.65,1.65,0,0,0-.92-.4l-2.15-.23,0-.26-.27-1.54h0l-.1-.62c-.52-2.47-1-3.7-2-3.91a1.69,1.69,0,0,0-1.6.37,2,2,0,0,0-.39,1.88l.1.54.38,2.87c.1.73.2,1.46.27,2a1,1,0,0,0,0,.15h0l.15.82a1.17,1.17,0,0,0,.92,1c1,.19,4.15.47,4.15.47,0,.7.06,5,.06,5a1.08,1.08,0,0,0,.28.74.91.91,0,0,0,.68.19.93.93,0,0,0,.7-.24,1.05,1.05,0,0,0,.24-.76l0-4.35,0-.13.82.91a.94.94,0,0,0,.63.39,1,1,0,0,0,.68-.3.83.83,0,0,0,.27-.32.63.63,0,0,0,.12-.32A1,1,0,0,0,13.61,19.22Z"/><path class="cls-1" d="M8.6,19.49h-5L3.48,19l-.33-2.29-.1-.67-.61-4.25A.41.41,0,0,0,2,11.48l-.32,0a.38.38,0,0,0-.33.44l.77,5.35.1.66.28,2.23a.39.39,0,0,0,.4.39H8.6A.39.39,0,0,0,9,20.21v-.32A.4.4,0,0,0,8.6,19.49Z"/><rect class="cls-2" x="-1.93" y="14.24" width="14.69" height="1.07" rx="0.38" transform="translate(-8.86 8.16) rotate(-45)"/></g></g></svg>