<?xml version="1.0" encoding="utf-8"?>
<!-- Generator: Adobe Illustrator 25.4.1, SVG Export Plug-In . SVG Version: 6.00 Build 0)  -->
<svg version="1.1" id="Layer_1" xmlns="http://www.w3.org/2000/svg" xmlns:xlink="http://www.w3.org/1999/xlink" x="0px" y="0px"
	 viewBox="0 0 99.2 99.2" style="enable-background:new 0 0 99.2 99.2;" xml:space="preserve">
<style type="text/css">
	.st0{fill:#64B5E5;}
	.st1{fill:#FBC4AE;}
	.st2{fill:#EB8D77;}
	.st3{fill:#F8A588;}
	.st4{fill:none;}
	.st5{fill:#FFFFFF;}
	.st6{fill:#25303B;}
</style>
<path class="st0" d="M22.6,0h54.1c12.5,0,22.6,10.1,22.6,22.6v54.1c0,12.5-10.1,22.6-22.6,22.6H22.6C10.1,99.2,0,89.1,0,76.7V22.6
	C0,10.1,10.1,0,22.6,0"/>
<path class="st1" d="M61.6,58.2c-0.2,0.2-0.3,0.4-0.5,0.5C61.3,58.6,61.4,58.4,61.6,58.2z"/>
<path class="st1" d="M76.5,57.9c0.8,0.8,0.3,2.4-2.2,3.2c-0.3,0.1-0.7,0.1-1,0.2C74.9,59.9,76.1,58.6,76.5,57.9z"/>
<path class="st1" d="M80.9,53c-0.8,0.5-2.5,1-4.5,1.4c-0.2-0.1-0.3-0.1-0.5-0.1c0,0,0,0-0.1,0c-1-0.2-2.5,0.1-3.3,0.5
	c-0.2,0.1-0.6,0.4-1.2,0.8c0,0-0.1,0-0.1,0c1.9-1.9,3.6-3.6,4.1-4.4c0.4-0.5,0.7-1.1,0.8-1.5c1.9-0.3,3.5-0.5,4.1-0.5
	C82.4,49.2,83.4,51.6,80.9,53z"/>
<path class="st1" d="M59.7,38c0,0,0.1-0.5,0.2-1.1c-0.5,0.5-1.2,0.8-2,0.8c-1.6,0-2.8-1.2-2.8-2.8c-3.3,1.5-13.3,6.3-16.5,8.2
	c-3.3,2-6.8,7.1-8.3,7.8c-0.8,0.4-6.7,3.1-11.7,5.5l5.9,13.9c0.5-0.3,1.1-0.5,1.7-0.8l-0.1,0l0,0c0,0,5.4-12.4,5.8-13.3
	c0.7-1.4,4.3-3.7,6.4-5.4c2.1-1.7,7.8-5.9,8.3-6.3c0.3-0.2,1.4-0.5,2.2-0.3c0.5-0.4,2.2,0.5,2.4,2.3c0,0.1,0,0.2,0,0.2
	c4-3.4,9.5-8,10.3-8.6C60.5,38,59.7,38,59.7,38z"/>
<path class="st2" d="M73.6,46.7c-0.2,0.1-0.3,0.3-0.5,0.4c-0.1,0.1-0.2,0.2-0.3,0.3c-0.2,0.2-0.5,0.4-0.7,0.6
	c-0.7,0.6-1.4,1.3-2.3,2.2h0c-0.2,0.2-0.3,0.3-0.5,0.5c-1,1-2.1,2.1-3.2,3.1c-0.2,0.2-0.4,0.4-0.6,0.6c-1.9,1.9-3.6,3.6-4.3,4.3
	c0,0,0,0,0,0c0.1-0.1,0.3-0.3,0.5-0.5c0.4-0.5,1-1.1,1.7-1.9c0.1-0.2,0.3-0.3,0.5-0.5c1.3-1.5,2.9-3.2,4.4-5h0
	c0.1-0.1,0.2-0.2,0.3-0.4c1-1,1.9-2.1,2.7-3C72.1,47.1,73,46.8,73.6,46.7z"/>
<path class="st2" d="M61.6,58.2c-0.2,0.2-0.3,0.4-0.5,0.5C61.3,58.6,61.4,58.4,61.6,58.2z"/>
<path class="st1" d="M83.9,42.6c-0.9-0.8-6-0.1-6-0.1s2.9-1.5,3.2-2.7c0.1-0.2,0.1-0.4,0.1-0.6c0-0.9-0.7-1.7-1.6-1.8
	c-1.2-0.1-5.5,0.4-8.8,0.7c-0.6,0-1.2,0.1-2,0.1c0.3,0.4,0.5,0.9,0.4,1.4c0,0.2-0.1,0.5-0.3,0.7c0,0,0,0.1-0.1,0.1
	c1.7-1.2,3.9-1.8,4.8-1.1c0.5,0,0.9,0.3,1.3,0.8c0.9,1.3,0.2,2.6-0.4,3.6c-0.1,0.2-1.5,1.8-3.4,3.9c0.9-0.4,1.8-0.7,2.4-0.8
	c0.1-0.1,0.2-0.2,0.3-0.3c0.6-0.4,1.4-0.3,1.9,0.1c0.4,0.4,0.6,1,0.6,1.8c3.2-0.9,6-1.8,6.7-2.2C84.8,45.1,84.8,43.4,83.9,42.6z"/>
<path class="st2" d="M75.9,54.4c-0.2,0-0.4,0-0.7,0.2c-0.1,0.1-0.4,0.2-0.6,0.4h0c-0.7,0.5-1.8,1.2-3.1,2.1c-0.7,0.5-1.4,1-2.2,1.6
	c-0.3,0.2-0.6,0.4-0.9,0.6c-1,0.7-1.9,1.4-2.6,1.9c-0.1,0.1-0.2,0.2-0.3,0.2c-0.8,0.6-1.3,1-1.5,1.1c0.1-0.1,0.8-0.7,1.7-1.6
	c0.2-0.2,0.5-0.4,0.7-0.7c0.2-0.2,0.4-0.3,0.5-0.5c0.2-0.2,0.4-0.3,0.5-0.5c0.8-0.7,1.6-1.5,2.4-2.3c0.4-0.4,0.8-0.7,1.1-1.1
	c0.1-0.1,0.2-0.1,0.3-0.2c0.6-0.4,1-0.7,1.2-0.8C73.3,54.4,74.9,54.1,75.9,54.4z"/>
<path class="st3" d="M76.7,57.7c0,0.1-0.1,0.1-0.1,0.2c-0.5,0.7-1.7,2-3.2,3.4h0c-3.7,3.6-9.5,8.4-12.2,10.7
	c-3.4,2.7-7.1,4.9-11.1,6.6l-5.4,2.3l-5.5,4L27.5,71.3l4.5-3.9h0l0.2-0.2l0.7-0.6c0,0,3.2-9.9,3.8-11.4c0.7-1.5,4.5-3.8,6.6-5.6
	c2.2-1.8,5-5.1,5.5-5.4c0,0,0,0,0,0c0.5-0.4,2.2,0.5,2.4,2.3c0,0.1,0,0.2,0,0.2c0,0.1,0,0.3,0,0.4c0,0.2,0,0.4-0.1,0.6
	c0,0.1,0,0.2-0.1,0.3c0,0.2-0.1,0.5-0.2,0.7c-0.1,0.2-0.1,0.4-0.2,0.6v0l0,0l-0.1,0.2c-0.3,0.5-0.6,0.9-1,1.2l-0.4,0.4l-6.1,5.3
	l6.9-5.3c0,0,0.8-0.6,0.8-0.6c0.2-0.2,7.6-6.1,10-8.3c0.4-0.3,0.8-0.7,1.2-1c0.3-0.3,0.7-0.6,1-0.8c0.2-0.2,0.5-0.4,0.7-0.6
	c0.1-0.1,0.2-0.2,0.4-0.3c0,0,0.1-0.1,0.1-0.1c0.2-0.1,0.3-0.2,0.5-0.3c0.2-0.1,0.3-0.3,0.5-0.4c0.2-0.1,0.4-0.3,0.6-0.4
	c0.1-0.1,0.2-0.1,0.3-0.2c0,0,0,0,0,0c0.1-0.1,0.2-0.1,0.3-0.2c0.6-0.3,1-0.4,1.3-0.4c0.4,0.1,0.7,0.3,1,0.5h0
	c0.3,0.4,0.5,0.9,0.4,1.4c0,0.2-0.1,0.5-0.3,0.7c0,0,0,0.1-0.1,0.1c-1,1.6-10.8,12.8-11.3,13.4c0.6-0.7,11-11,13-12.9
	c1.3-1.2,2.4-1.8,3.2-1.7c0.5,0,0.9,0.3,1.3,0.8c0.9,1.3,0.2,2.6-0.4,3.6c-0.1,0.2-1.5,1.8-3.4,3.9c-0.8,0.9-1.8,2-2.7,3
	c-0.1,0.1-0.2,0.2-0.3,0.4h0c-1.5,1.7-3.1,3.5-4.4,5c-0.2,0.2-0.3,0.3-0.5,0.5c-0.7,0.8-1.2,1.4-1.7,1.9c-0.2,0.2-0.3,0.4-0.5,0.5
	c0,0,0,0,0,0c0.7-0.7,2.4-2.4,4.3-4.3c0.2-0.2,0.4-0.4,0.6-0.6c1-1,2.2-2.1,3.2-3.1c0.2-0.2,0.3-0.3,0.5-0.5h0
	c0.8-0.8,1.6-1.5,2.3-2.2c0.2-0.2,0.5-0.5,0.7-0.6c0.1-0.1,0.2-0.2,0.3-0.3c0.2-0.2,0.4-0.3,0.5-0.4c0.1-0.1,0.2-0.2,0.3-0.3
	c0.6-0.4,1.4-0.3,1.9,0.1c0.4,0.4,0.6,1,0.6,1.8h0c0,0.4-0.1,0.8-0.3,1.3c-0.2,0.5-0.4,1-0.8,1.5c-0.5,0.8-2.2,2.5-4.1,4.4
	c0,0,0,0,0,0c-0.1,0.1-0.1,0.1-0.2,0.2c-0.4,0.4-0.7,0.7-1.1,1.1c-0.8,0.8-1.6,1.5-2.4,2.3c-0.2,0.2-0.4,0.3-0.5,0.5
	c-0.2,0.2-0.4,0.3-0.5,0.5c-0.2,0.2-0.5,0.5-0.7,0.7c-0.9,0.9-1.6,1.5-1.7,1.6c0.1-0.1,0.7-0.5,1.5-1.1c0.1-0.1,0.2-0.1,0.3-0.2
	c0.7-0.5,1.6-1.2,2.6-1.9c0.3-0.2,0.6-0.4,0.9-0.6c0.7-0.5,1.5-1.1,2.2-1.6c1.2-0.9,2.4-1.7,3.1-2.1h0c0.3-0.2,0.5-0.3,0.6-0.4
	c0.2-0.1,0.5-0.2,0.7-0.2c0,0,0,0,0.1,0c0.2,0,0.3,0,0.5,0.1C77.2,54.9,77.5,56.1,76.7,57.7z"/>
<path class="st1" d="M61.6,58.2c-0.2,0.2-0.3,0.4-0.5,0.5C61.3,58.6,61.4,58.4,61.6,58.2z"/>
<path class="st2" d="M66.1,38.1c-0.1,0.1-0.2,0.1-0.3,0.2c-0.2,0.1-0.4,0.3-0.6,0.4c-0.2,0.1-0.4,0.2-0.5,0.4
	c-0.2,0.1-0.3,0.2-0.5,0.3c0,0-0.1,0.1-0.1,0.1c-0.1,0.1-0.2,0.2-0.4,0.3c-0.2,0.2-0.5,0.4-0.7,0.6c-0.3,0.3-0.7,0.6-1,0.8
	c-0.4,0.4-0.8,0.7-1.2,1c-2.4,2.2-9.8,8.1-10,8.3c0,0-0.8,0.6-0.8,0.6l-6.9,5.3l6.1-5.3l0.4-0.4c0.4-0.3,0.7-0.8,1-1.2l0.1-0.2l0,0
	v0c0.1-0.2,0.1-0.4,0.2-0.6c0.1-0.2,0.1-0.5,0.2-0.7c0-0.1,0.1-0.2,0.1-0.3c0.1-0.2,0.1-0.4,0.1-0.6c0-0.1,0-0.3,0-0.4
	c4-3.4,9.5-8,10.3-8.6C62.9,38.1,64.5,38.1,66.1,38.1z"/>
<g>
	<path class="st4" d="M67.7,40.8L67.7,40.8"/>
</g>
<g>
	<path class="st4" d="M75.6,57.7L75.6,57.7"/>
</g>
<g>
	<path class="st4" d="M48.1,47.6L48.1,47.6"/>
</g>
<path class="st5" d="M30.4,28.6c-0.1,1.3-0.6,2.5-1.4,3.5c-1,0.8-2.2,1.2-3.5,1.4c1.3,0.1,2.5,0.6,3.5,1.4c0.8,1,1.2,2.2,1.4,3.5
	c0.1-1.3,0.6-2.5,1.4-3.5c1-0.8,2.2-1.2,3.5-1.4c-1.3-0.1-2.5-0.6-3.5-1.4C31,31.1,30.5,29.9,30.4,28.6z"/>
<path class="st5" d="M56.2,8.9c-0.1,1.3-0.6,2.5-1.3,3.5c-1,0.8-2.2,1.2-3.5,1.4c1.3,0.1,2.5,0.6,3.5,1.4c0.8,1,1.2,2.2,1.3,3.5
	c0.1-1.3,0.6-2.5,1.4-3.5c1-0.8,2.2-1.2,3.5-1.4c-1.3-0.1-2.5-0.6-3.5-1.4C56.8,11.4,56.3,10.2,56.2,8.9z"/>
<path class="st5" d="M79,24.9c-0.1,1.3-0.6,2.5-1.4,3.5c-1,0.8-2.2,1.2-3.5,1.4c1.3,0.1,2.5,0.6,3.5,1.4c0.8,1,1.2,2.2,1.4,3.5
	c0.1-1.3,0.6-2.5,1.3-3.5c1-0.8,2.2-1.2,3.5-1.4c-1.3-0.1-2.5-0.6-3.5-1.4C79.6,27.3,79.1,26.1,79,24.9z"/>
<path class="st5" d="M60.8,34.9c0,0.8-0.3,1.5-0.9,2c-0.5,0.5-1.2,0.8-2,0.8c-1.6,0-2.8-1.2-2.8-2.8v0c0-1.4,2-3.9,2.4-4.4l0.5-0.6
	l0.5,0.6C58.8,30.9,60.8,33.5,60.8,34.9z"/>
<path class="st5" d="M65.4,24.2c-1.6,0-2.8-1.3-2.8-2.8c0-1.4,2-3.9,2.4-4.4l0.5-0.6l0.5,0.6c0.4,0.5,2.4,3,2.4,4.4
	C68.3,22.9,67,24.2,65.4,24.2L65.4,24.2z"/>
<path class="st5" d="M42.6,29c-1.6,0-2.8-1.3-2.8-2.8c0-1.4,2-3.9,2.4-4.4l0.5-0.6l0.5,0.6c0.4,0.5,2.4,3,2.4,4.4
	C45.5,27.7,44.2,29,42.6,29L42.6,29z"/>
<path class="st2" d="M48.9,44.1C48.9,44.1,48.9,44.1,48.9,44.1c-0.5,0.4-3.3,3.7-5.5,5.5c-2.2,1.8-5.9,4.1-6.6,5.6
	c-0.7,1.5-3.8,11.4-3.8,11.4l-0.7,0.6L32,67.3h0l-5.9,2.2l0,0c0,0,5.4-12.4,5.8-13.3c0.7-1.4,4.3-3.7,6.4-5.4
	c2.1-1.7,7.8-5.9,8.3-6.3C46.9,44.2,48,44,48.9,44.1z"/>
<path class="st2" d="M73.7,39.2c-0.8-0.1-1.9,0.5-3.2,1.7c-2,1.8-12.3,12.2-13,12.9c0.6-0.7,10.3-11.9,11.3-13.4
	C70.6,39.1,72.7,38.5,73.7,39.2z"/>
<path class="st6" d="M39.2,85L27.5,71.3l-0.7-0.8L4.2,89.8c4.1,5.7,10.8,9.4,18.4,9.4H25l15.3-13.1L39.2,85z"/>
<path class="st6" d="M0.7,82.1l24.4-10.4l-0.6-1.4l-5.9-13.9l-1.6-3.7L0,59.9v16.8C0,78.5,0.2,80.3,0.7,82.1z"/>
</svg>
