<?xml version="1.0" encoding="utf-8"?>
<!-- Generator: Adobe Illustrator 25.4.1, SVG Export Plug-In . SVG Version: 6.00 Build 0)  -->
<svg version="1.1" id="Layer_1" xmlns="http://www.w3.org/2000/svg" xmlns:xlink="http://www.w3.org/1999/xlink" x="0px" y="0px"
	 viewBox="0 0 99.4 99.4" style="enable-background:new 0 0 99.4 99.4;" xml:space="preserve">
<style type="text/css">
	.st0{fill:#64B5E5;}
	.st1{fill:#5A5F6A;}
	.st2{fill:#25303B;}
	.st3{fill:#E6E0D9;}
	.st4{fill:#FFFFFF;}
</style>
<path class="st0" d="M22.6,0h54.1c12.5,0,22.6,10.1,22.6,22.6v54.1c0,12.5-10.1,22.6-22.6,22.6H22.6C10.1,99.4,0,89.2,0,76.7V22.6
	C0,10.1,10.1,0,22.6,0"/>
<path class="st1" d="M83.8,59.8c-0.1-0.2-0.4-0.4-0.6-0.4h-66c-0.3,0-0.5,0.2-0.6,0.4l7.6-16.4c0.1-0.2,0.4-0.4,0.6-0.4h14.1
	c0.6,1.5,1.1,3,1.6,4.3h-0.4c-0.6,0-1.2,0.3-1.6,0.8c-0.3,0.4-0.5,0.8-0.6,1.3l-1.1,3.2c-0.2,0.6-0.1,1.2,0.2,1.7
	c0.5,0.6,1.4,1,2.2,1h21.8c0.8,0,1.7-0.4,2.2-1c0.4-0.5,0.4-1.1,0.2-1.7l-1.1-3.2c-0.1-0.5-0.4-1.1-0.7-1.5
	c-0.3-0.4-0.8-0.6-1.3-0.6h-0.6c0.5-1.4,1-2.8,1.4-4.3h14.2c0.3,0,0.5,0.2,0.6,0.4L83.8,59.8z"/>
<path class="st2" d="M83.2,77.5H17.1c-0.4,0-0.7-0.3-0.7-0.7V60.1c0-0.4,0.3-0.7,0.7-0.7h0h66c0.4,0,0.7,0.3,0.7,0.7v16.7
	C83.8,77.1,83.6,77.4,83.2,77.5z"/>
<path class="st3" d="M50.4,32.2v23H49V34.7c-0.3,0.2-0.6,0.4-1,0.5c-0.7,0.3-1.5,0.4-2.5,0.4l-0.1-1.3c0.7,0.1,1.4,0,2.1-0.2
	c0.7-0.2,1.3-0.8,1.5-1.6c0.2-1.2-1.8-2.4-3.5-3.4c-0.5-0.4-1.1-0.7-1.5-1l-0.5-2.2c0.8,0.8,1.7,1.5,2.7,2
	C48.2,29,50.4,30.4,50.4,32.2z"/>
<path class="st4" d="M64.3,29.9c-0.3,3.7-1.6,8.6-3,13.1c-0.5,1.5-1,3-1.4,4.3c-1.3,3.8-2.5,6.8-3,7.9h-6.5v-23
	c0-1.9-2.2-3.2-4.2-4.4c-1-0.5-1.9-1.2-2.7-2c0,0,0,0-0.1-0.1v-0.3c0-0.3,0.4-0.6,1-1C47.7,22.6,60.1,27.7,64.3,29.9z"/>
<path class="st4" d="M49,32.5c-0.2,0.8-0.7,1.4-1.5,1.6c-0.7,0.2-1.4,0.3-2.1,0.2v0L44,28.1c0.5,0.3,1,0.6,1.5,1
	C47.3,30.1,49.3,31.3,49,32.5z"/>
<path class="st4" d="M49,34.7v20.5h-5.4c-0.5-1.3-1.7-4.1-3.1-8c-0.5-1.3-1-2.8-1.6-4.3c-1.3-3.6-2.7-7.6-4-11.8
	c4.1,2.8,7.8,4.3,10.6,4.4c0.9,0,1.7-0.1,2.5-0.4C48.4,35.1,48.7,34.9,49,34.7z"/>
<g>
	<path class="st2" d="M43.6,55.2c-0.5-1.3-1.7-4.1-3.1-8h-0.4c-0.6,0-1.2,0.3-1.6,0.8c-0.3,0.4-0.5,0.8-0.6,1.3l-1.1,3.2
		c-0.2,0.6-0.1,1.2,0.2,1.7c0.5,0.6,1.4,1,2.2,1L43.6,55.2L43.6,55.2z"/>
	<path class="st2" d="M63.6,52.5l-1.1-3.2c-0.1-0.5-0.4-1.1-0.7-1.5c-0.3-0.4-0.8-0.6-1.3-0.6h-0.6c-1.3,3.8-2.5,6.8-3,7.9v0h4.2
		c0.8,0,1.7-0.4,2.2-1C63.7,53.7,63.8,53.1,63.6,52.5z"/>
</g>
</svg>
