<?xml version="1.0" encoding="utf-8"?>
<!-- Generator: Adobe Illustrator 25.4.1, SVG Export Plug-In . SVG Version: 6.00 Build 0)  -->
<svg version="1.1" id="Layer_1" xmlns="http://www.w3.org/2000/svg" xmlns:xlink="http://www.w3.org/1999/xlink" x="0px" y="0px"
	 viewBox="0 0 16.3 28.3" style="enable-background:new 0 0 16.3 28.3;" xml:space="preserve">
<style type="text/css">
	.st0{fill:#25303B;}
</style>
<g>
	<g>
		<g>
			<path class="st0" d="M10.1,1.9C10.1,1.9,10.1,1.8,10.1,1.9C9.6,1.8,9,1.9,8.6,2.3c-0.4,0.4-0.5,1-0.5,1.5c0,0.6,0.1,1.2,0.5,1.5
				C8.8,5.6,9,5.7,9.3,5.8c0.3,0.1,0.6,0.1,0.8,0.1c0.6,0,1.2-0.1,1.5-0.5c0.4-0.4,0.5-1,0.5-1.5c0-0.6-0.1-1.2-0.5-1.5
				C11.3,1.9,10.7,1.8,10.1,1.9C10.1,1.8,10.1,1.9,10.1,1.9z"/>
		</g>
		<g>
			<path class="st0" d="M16.3,12.5c0-0.1,0-0.1,0-0.2l0-0.1l0-0.1c0,0,0-0.1,0-0.1l0-0.1l0-0.1c0,0,0-0.1,0-0.1c0-0.1,0-0.2,0-0.2
				c0-0.1,0-0.2-0.1-0.2c0-0.1-0.1-0.2-0.1-0.3c0-0.1,0-0.1-0.1-0.2c0,0-0.1-0.1-0.1-0.1c0-0.1-0.1-0.1-0.1-0.2
				c-0.1-0.2-0.3-0.5-0.4-0.7c-0.3-0.5-0.6-1-0.9-1.6c-0.1-0.1-0.1-0.3-0.2-0.4c0-0.1-0.1-0.1-0.1-0.2h0c0,0,0,0,0,0
				c0,0,0,0-0.1-0.1c-0.2-0.3-0.4-0.6-0.8-0.8c-0.5-0.3-1.7-0.6-2.9-0.6v0H8.8l-2.1,0L1.6,6.2V0.4C1.6,0.2,1.4,0,1.2,0H0.9
				C0.7,0,0.5,0.2,0.5,0.4v5.8c-0.1,0-0.2,0.1-0.3,0.1C0.1,6.5,0,6.8,0,7c0,0.1,0,0.3,0,0.4c0.1,0.2,0.2,0.4,0.4,0.5v20
				c0,0.2,0.2,0.4,0.4,0.4h0.3c0.2,0,0.4-0.2,0.4-0.4V8l6,0.2c0,0-0.1,5.3-0.2,8.2h0c-0.4,1-0.7,1.7-0.7,1.9c-1.2,3-2.4,6-3.6,8.9
				l0,0.1c0,0,0,0.1,0,0.1c0,0.1,0,0.2-0.1,0.2c0,0.2,0,0.3,0.1,0.4c0.1,0.2,0.5,0.3,0.8,0.3c0.3,0,0.7,0,1-0.2
				C5,28,5.2,27.8,5.3,27.7c0.1-0.1,0.1-0.2,0.1-0.2c0,0,0-0.1,0.1-0.1l0-0.1c1.2-3,2.4-6,3.6-9c0.1-0.3,0.2-0.6,0.3-0.9
				c0-0.1,0.2-0.2,0.3-0.2l0.5,0c0.2,0,0.3,0.1,0.3,0.3c0,0.3,0,0.5,0,0.8c0.1,3,0.2,6,0.3,9l0,0.1c0,0,0,0.1,0,0.1
				c0,0.1,0,0.2,0.1,0.2c0,0.2,0.1,0.3,0.2,0.4c0.2,0.2,0.6,0.3,0.9,0.2c0.3,0,0.7-0.1,0.9-0.3c0.1-0.1,0.2-0.3,0.2-0.4
				c0-0.1,0-0.2,0-0.2c0,0,0-0.1,0-0.1v-0.1c-0.1-3-0.2-6-0.3-8.9c0-3-0.1-5.9-0.1-8.9H13c0.3,0.5,0.6,1,0.9,1.5
				c0.1,0.2,0.3,0.5,0.4,0.7c0,0.1,0.1,0.1,0.1,0.2c0,0,0,0,0,0c0,0,0,0,0,0c0,0,0,0.1,0,0.1c0,0,0,0.1,0,0.1c0,0,0,0.1,0,0.1
				c0,0,0,0,0,0.1l0,0c0,0.1,0,0.2,0,0.3c0,0.2,0,0.4,0,0.7c0,0.4,0,0.8,0,1.1c0,0.6,0,0.9,0,0.9c0,0.2,0,0.5,0.2,0.7
				c0.2,0.2,0.4,0.2,0.7,0.2c0.2,0,0.5,0,0.7-0.2c0.2-0.2,0.2-0.4,0.2-0.7c0,0,0-0.3,0-0.9c0-0.3,0-0.6,0-1.1
				C16.3,13,16.3,12.8,16.3,12.5z"/>
		</g>
	</g>
</g>
</svg>
