<?xml version="1.0" encoding="utf-8"?>
<!-- Generator: Adobe Illustrator 25.4.1, SVG Export Plug-In . SVG Version: 6.00 Build 0)  -->
<svg version="1.1" id="Layer_1" xmlns="http://www.w3.org/2000/svg" xmlns:xlink="http://www.w3.org/1999/xlink" x="0px" y="0px"
	 viewBox="0 0 283.465 283.464" enable-background="new 0 0 283.465 283.464" xml:space="preserve">
<path fill="#FFFFFF" d="M80.316,109.551l4.601-7.679l2.3-3.839l0.575-0.96l0.508-0.834l0.624-0.926
	c0.866-1.21,1.883-2.307,3.017-3.262c2.267-1.915,5.019-3.237,7.93-3.824c0.728-0.147,1.465-0.25,2.207-0.306
	c0.372-0.023,0.743-0.047,1.116-0.053l0.915-0.005h53.696c1.916,0,3.91,0.212,5.814,0.638c3.83,0.849,7.462,2.556,10.559,4.963
	c1.549,1.201,2.966,2.576,4.214,4.088c0.718,0.878,0.979,1.247,1.38,1.766l1.139,1.492l9.114,11.937l9.681,12.676h27.209V18.736
	H56.744v174.162h-9.443c-4.39,0-9.12,0.726-12.217,3.727c-3.002,3.098-3.728,7.828-3.728,12.219c0,4.39,0.726,9.12,3.728,12.217
	c3.097,3.001,7.827,3.727,12.217,3.727h9.443v37.542l-17.613,17.407h115.523c3.862-3.733,7.592-7.601,11.388-11.402
	c2.982-2.985,6.484-5.797,10.438-6.826c3.952-1.028,8.698-1.005,12.147-0.195c3.464,0.815,6.425,3.107,5.054,6.882
	c-1.251,3.447-6.854,8.18-10.158,11.541h25.952l17.44-17.407V144.699h-31.056c-1.624,0.027-3.146-0.198-4.607-0.677
	c-1.469-0.476-2.869-1.223-4.084-2.162c-1.215-0.906-2.253-2.131-3.201-3.43l-3.419-4.478l-5.84-7.647l-4.84-6.339l-15.553,33.496
	l25.504,52.054c5.148,10.497,10.294,20.995,15.465,31.481c1.927,3.876,3.718,8.75,2.969,12.731
	c-0.744,3.956-4.173,5.942-7.893,6.513c-3.704,0.568-8.327,0.26-11.723-1.041c-3.4-1.302-5.587-4.35-7.195-7.537
	c-13.395-26.571-26.792-53.142-40.188-79.712l-4.995,41.017c-0.301,2.215-1.093,4.142-2.083,5.575
	c-0.255,0.338-0.494,0.721-0.761,1.02c-0.251,0.31-0.544,0.633-0.897,0.979c-0.705,0.696-1.532,1.314-2.178,1.709
	c-1.39,0.876-3.212,1.599-5.339,1.846c-1.07,0.11-2.21,0.084-3.332,0.085H46.947c-3.122,0-6.486-0.516-8.688-2.651
	c-2.135-2.202-2.651-5.565-2.651-8.687c0-3.123,0.516-6.487,2.651-8.689c2.202-2.135,5.566-2.65,8.688-2.65h47.951l5.831-0.01
	c0.506-0.008,0.75-0.095,0.969-0.201c0.215-0.11,0.446-0.277,0.716-0.601c0.272-0.309,0.513-0.812,0.654-1.326
	c0.044-0.128,0.078-0.256,0.088-0.386c0.038-0.089,0.046-0.327,0.066-0.547l0.272-2.805l0.58-6.04l1.102-11.466
	c-0.005-0.001-0.001,0-0.001,0v-0.587l-0.001-1.276c0.016-0.831,0.018-1.675,0.05-2.493c0.045-1.649,0.125-3.275,0.23-4.903
	c0.21-3.254,0.52-6.498,0.978-9.81c0.467-3.32,1.049-6.669,2.079-10.355l0.404-1.392l0.502-1.475l0.258-0.736l0.346-0.851
	c0.232-0.554,0.503-1.192,0.724-1.667l2.044-4.038l14.162-27.978l-22.338-0.001l-16.748,27.955
	c-1.323,2.209-3.114,4.369-5.556,5.022c-0.625,0.146-1.258,0.186-1.892,0.144c-2.096,0.076-4.228-0.838-6.085-1.951
	c-2.209-1.322-4.369-3.113-5.022-5.556c-0.577-2.462,0.484-5.059,1.807-7.268L80.316,109.551z M150.727,48.654
	c3.67-3.557,9.275-4.418,14.478-4.418s10.811,0.861,14.481,4.418c3.555,3.67,4.416,9.276,4.416,14.479
	c0,5.205-0.861,10.811-4.416,14.481c-3.67,3.555-9.278,4.416-14.481,4.416s-10.808-0.861-14.478-4.416
	c-3.558-3.67-4.418-9.276-4.418-14.481C146.309,57.93,147.169,52.324,150.727,48.654z"/>
<path fill="#008B5B" d="M150.727,48.654c3.67-3.557,9.275-4.418,14.478-4.418s10.811,0.861,14.481,4.418
	c3.555,3.67,4.416,9.276,4.416,14.479c0,5.205-0.861,10.811-4.416,14.481c-3.67,3.555-9.278,4.416-14.481,4.416
	s-10.808-0.861-14.478-4.416c-3.558-3.67-4.418-9.276-4.418-14.481C146.309,57.93,147.169,52.324,150.727,48.654 M283.465,283.464H0
	V0h283.465V283.464z M226.915,262.33V144.699h-31.056c-1.624,0.027-3.146-0.198-4.607-0.677c-1.469-0.476-2.869-1.223-4.084-2.162
	c-1.215-0.906-2.253-2.131-3.201-3.43l-3.419-4.478l-5.84-7.647l-4.84-6.339l-15.553,33.496l25.504,52.054
	c5.148,10.497,10.294,20.995,15.465,31.481c1.927,3.876,3.718,8.75,2.969,12.731c-0.744,3.956-4.173,5.942-7.893,6.513
	c-3.704,0.568-8.327,0.26-11.723-1.041c-3.4-1.302-5.587-4.35-7.195-7.537c-13.395-26.571-26.792-53.142-40.188-79.712
	l-4.995,41.017c-0.301,2.215-1.093,4.142-2.083,5.575c-0.255,0.338-0.494,0.721-0.761,1.02c-0.251,0.31-0.544,0.633-0.897,0.979
	c-0.705,0.696-1.532,1.314-2.178,1.709c-1.39,0.876-3.212,1.599-5.339,1.846c-1.07,0.11-2.21,0.084-3.332,0.085H46.947
	c-3.122,0-6.486-0.516-8.688-2.651c-2.135-2.202-2.651-5.565-2.651-8.687c0-3.123,0.516-6.487,2.651-8.689
	c2.202-2.135,5.566-2.65,8.688-2.65h47.951l5.831-0.01c0.506-0.008,0.75-0.095,0.969-0.201c0.215-0.11,0.446-0.277,0.716-0.601
	c0.272-0.309,0.513-0.812,0.654-1.326c0.044-0.128,0.078-0.256,0.088-0.386c0.038-0.089,0.046-0.327,0.066-0.547l0.272-2.805
	l0.58-6.04l1.102-11.466c-0.005-0.001-0.001,0-0.001,0v-0.587l-0.001-1.276c0.016-0.831,0.018-1.675,0.05-2.493
	c0.045-1.649,0.125-3.275,0.23-4.903c0.21-3.254,0.52-6.498,0.978-9.81c0.467-3.32,1.049-6.669,2.079-10.355l0.404-1.392
	l0.502-1.475l0.258-0.736l0.346-0.851c0.232-0.554,0.503-1.192,0.724-1.667l2.044-4.038l14.162-27.978l-22.338-0.001l-16.748,27.955
	c-1.323,2.209-3.114,4.369-5.556,5.022c-0.625,0.146-1.258,0.186-1.892,0.144c-2.096,0.076-4.228-0.838-6.085-1.951
	c-2.209-1.322-4.369-3.113-5.022-5.556c-0.577-2.462,0.484-5.059,1.807-7.268l9.199-15.356l4.601-7.679l2.3-3.839l0.575-0.96
	l0.508-0.834l0.624-0.926c0.866-1.21,1.883-2.307,3.017-3.262c2.267-1.915,5.019-3.237,7.93-3.824
	c0.728-0.147,1.465-0.25,2.207-0.306c0.372-0.023,0.743-0.047,1.116-0.053l0.915-0.005h53.696c1.916,0,3.91,0.212,5.814,0.638
	c3.83,0.849,7.462,2.556,10.559,4.963c1.549,1.201,2.966,2.576,4.214,4.088c0.718,0.878,0.979,1.247,1.38,1.766l1.139,1.492
	l9.114,11.937l9.681,12.676h27.209V18.736H56.744v174.162h-9.443c-4.39,0-9.12,0.726-12.217,3.727
	c-3.002,3.098-3.728,7.828-3.728,12.219c0,4.39,0.726,9.12,3.728,12.217c3.097,3.001,7.827,3.727,12.217,3.727h9.443v37.542
	l-17.613,17.407h115.523c3.862-3.733,7.592-7.601,11.388-11.402c2.982-2.985,6.484-5.797,10.438-6.826
	c3.952-1.028,8.698-1.005,12.147-0.195c3.464,0.815,6.425,3.107,5.054,6.882c-1.251,3.447-6.854,8.18-10.158,11.541h25.952
	L226.915,262.33z"/>
</svg>
