<?xml version="1.0" encoding="utf-8"?>
<!-- Generator: Adobe Illustrator 25.4.1, SVG Export Plug-In . SVG Version: 6.00 Build 0)  -->
<svg version="1.1" id="Layer_1" xmlns="http://www.w3.org/2000/svg" xmlns:xlink="http://www.w3.org/1999/xlink" x="0px" y="0px"
	 viewBox="0 0 283.465 283.464" enable-background="new 0 0 283.465 283.464" xml:space="preserve">
<path fill-rule="evenodd" clip-rule="evenodd" fill="#FFFFFF" d="M56.744,18.736V262.33l-17.613,17.407h170.344l17.44-17.407V18.736
	H56.744z M134.889,66.593c3.44-3.335,8.697-4.142,13.576-4.142c4.878,0,10.133,0.807,13.574,4.142
	c3.335,3.44,4.142,8.696,4.142,13.575c0,4.879-0.807,10.135-4.142,13.575c-3.441,3.334-8.696,4.141-13.574,4.141
	c-4.879,0-10.136-0.807-13.576-4.141c-3.334-3.44-4.141-8.696-4.141-13.575C130.748,75.289,131.555,70.033,134.889,66.593z
	 M181.617,215.613c-2.43,8.413-6.863,16.249-12.836,22.676c-5.965,6.441-13.405,11.402-21.606,14.533
	c-8.214,3.075-17.138,4.249-25.844,3.309c-8.711-0.881-17.193-3.857-24.596-8.556c-7.395-4.716-13.681-11.168-18.151-18.674
	c-2.251-3.751-4.08-7.769-5.42-11.945c-1.319-4.182-2.155-8.515-2.493-12.883c-0.653-8.733,0.708-17.613,4.036-25.718
	c3.273-8.128,8.53-15.454,15.118-21.228c1.302-1.106,2.872-1.638,4.331-1.494c1.453,0.123,2.733,0.832,3.572,2.036l3.048,4.354
	c1.65,2.452,1.358,5.529-0.452,7.105c-4.73,4.155-8.495,9.386-10.847,15.234c-2.401,5.825-3.374,12.236-2.907,18.509
	c0.839,12.569,8.083,24.541,18.727,31.254c5.308,3.362,11.414,5.52,17.69,6.147c6.272,0.684,12.674-0.174,18.561-2.369
	c5.86-2.24,11.281-5.843,15.547-10.46c4.28-4.609,7.463-10.222,9.212-16.283c0.673-2.304,3.336-3.863,6.254-3.406l5.233,0.923
	c1.446,0.252,2.631,1.112,3.356,2.379C181.892,212.319,182.085,213.97,181.617,215.613z M222.691,228.906
	c-0.629,2.061-2.52,3.521-4.439,4.582c-1.88,1.129-4.092,2.036-6.19,1.548c-2.082-0.553-3.609-2.391-4.739-4.271l-26.931-44.805
	l-46.329-7.856l-8.059-1.367l-4.914-0.834c-2.753-0.369-5.125-1.34-7.12-2.958c-1.979-1.609-3.474-3.8-4.253-6.229
	c-0.775-2.448-0.833-5.007-0.163-7.703l1.892-8.907l5.542-26.099l-16.945,5.729l-21.679,28.683
	c-1.322,1.749-3.035,3.415-5.164,3.745c-2.138,0.264-4.242-0.872-5.991-2.194c-1.749-1.322-3.416-3.036-3.746-5.164
	c-0.263-2.138,0.872-4.241,2.195-5.991l21.765-28.8c0.494-0.666,1.004-1.317,1.59-1.895c1.16-1.166,2.536-2.114,4.043-2.778
	c0.375-0.166,0.761-0.313,1.153-0.448l39.646-13.402l1.733-0.457c0.559-0.093,1.113-0.153,1.667-0.213
	c1.073-0.056,2.087-0.003,3.125,0.175c2.061,0.355,4.073,1.24,5.776,2.531c1.696,1.302,3.087,3.017,3.967,4.942
	c0.46,0.955,0.774,1.961,0.99,2.976c0.076,0.515,0.179,1.02,0.222,1.546c0.045,0.53,0.024,1.106,0.02,1.661
	c-0.078,1.145-0.288,2.352-0.559,3.548l-8.193,38.578l45.448,13.493c2.279,0.681,4.343,1.961,5.948,3.695
	c0.804,0.866,1.484,1.834,2.047,2.892l25.322,45.806C222.43,224.584,223.255,226.827,222.691,228.906z"/>
<g>
	<path fill-rule="evenodd" clip-rule="evenodd" fill="#008B5B" d="M181.15,211.056c0.742,1.263,0.935,2.914,0.467,4.557
		c-2.43,8.413-6.863,16.249-12.836,22.676c-5.965,6.441-13.405,11.402-21.606,14.533c-8.214,3.075-17.138,4.249-25.844,3.309
		c-8.711-0.881-17.193-3.857-24.596-8.556c-7.395-4.716-13.681-11.168-18.151-18.674c-2.251-3.751-4.08-7.769-5.42-11.945
		c-1.319-4.182-2.155-8.515-2.493-12.883c-0.653-8.733,0.708-17.613,4.036-25.718c3.273-8.128,8.53-15.454,15.118-21.228
		c1.302-1.106,2.872-1.638,4.331-1.494c1.453,0.123,2.733,0.832,3.572,2.036l3.048,4.354c1.65,2.452,1.358,5.529-0.452,7.105
		c-4.73,4.155-8.495,9.386-10.847,15.234c-2.401,5.825-3.374,12.236-2.907,18.509c0.839,12.569,8.083,24.541,18.727,31.254
		c5.308,3.362,11.414,5.52,17.69,6.147c6.272,0.684,12.674-0.174,18.561-2.369c5.86-2.24,11.281-5.843,15.547-10.46
		c4.28-4.609,7.463-10.222,9.212-16.283c0.673-2.304,3.336-3.863,6.254-3.406l5.233,0.923
		C179.24,208.929,180.425,209.789,181.15,211.056 M148.465,97.884c4.878,0,10.133-0.807,13.574-4.141
		c3.335-3.44,4.142-8.696,4.142-13.575s-0.807-10.135-4.142-13.575c-3.441-3.335-8.696-4.142-13.574-4.142
		c-4.879,0-10.136,0.807-13.576,4.142c-3.334,3.44-4.141,8.696-4.141,13.575s0.807,10.135,4.141,13.575
		C138.329,97.077,143.586,97.884,148.465,97.884 M67.209,159.97c1.749,1.322,3.853,2.458,5.991,2.194
		c2.129-0.33,3.842-1.996,5.164-3.745l21.679-28.683l16.945-5.729l-5.542,26.099l-1.892,8.907c-0.67,2.696-0.612,5.255,0.163,7.703
		c0.779,2.429,2.274,4.62,4.253,6.229c1.995,1.618,4.367,2.589,7.12,2.958l4.914,0.834l8.059,1.367l46.329,7.856l26.931,44.805
		c1.13,1.88,2.657,3.718,4.739,4.271c2.098,0.488,4.31-0.419,6.19-1.548c1.919-1.061,3.81-2.521,4.439-4.582
		c0.564-2.079-0.261-4.322-1.323-6.241l-25.322-45.806c-0.563-1.058-1.243-2.026-2.047-2.892c-1.605-1.734-3.669-3.014-5.948-3.695
		l-45.448-13.493l8.193-38.578c0.271-1.196,0.481-2.403,0.559-3.548c0.004-0.555,0.025-1.131-0.02-1.661
		c-0.043-0.526-0.146-1.031-0.222-1.546c-0.216-1.015-0.53-2.021-0.99-2.976c-0.88-1.925-2.271-3.64-3.967-4.942
		c-1.703-1.291-3.715-2.176-5.776-2.531c-1.038-0.178-2.052-0.231-3.125-0.175c-0.554,0.06-1.108,0.12-1.667,0.213l-1.733,0.457
		l-39.646,13.402c-0.392,0.135-0.778,0.282-1.153,0.448c-1.507,0.664-2.883,1.612-4.043,2.778c-0.586,0.578-1.096,1.229-1.59,1.895
		l-21.765,28.8c-1.323,1.75-2.458,3.853-2.195,5.991C63.793,156.934,65.46,158.648,67.209,159.97 M283.465,283.464H0V0h283.465
		V283.464z M226.915,18.736H56.744V262.33l-17.613,17.407h170.344l17.44-17.407V18.736z"/>
</g>
</svg>
