<?xml version="1.0" encoding="utf-8"?>
<!-- Generator: Adobe Illustrator 25.4.1, SVG Export Plug-In . SVG Version: 6.00 Build 0)  -->
<svg version="1.1" id="Layer_1" xmlns="http://www.w3.org/2000/svg" xmlns:xlink="http://www.w3.org/1999/xlink" x="0px" y="0px"
	 viewBox="0 0 283.465 283.464" enable-background="new 0 0 283.465 283.464" xml:space="preserve">
<g>
	<path fill="#996017" d="M219.685,283.464H63.779c-35.224,0-63.78-28.555-63.78-63.779V63.779C-0.001,28.555,28.555,0,63.779,0
		h155.906c35.225,0,63.779,28.555,63.779,63.779v155.906C283.464,254.909,254.91,283.464,219.685,283.464"/>
	<path fill="#FFFFFF" d="M234.352,174.983l-14.269-17.336c-1.189-1.444-0.161-3.619,1.709-3.619h5.023
		c1.746,0,2.805-1.927,1.869-3.401l-9.654-15.188c-0.936-1.473,0.122-3.4,1.867-3.4c1.796,0,2.844-2.026,1.807-3.492l-23.192-32.774
		c-0.886-1.251-2.744-1.245-3.621,0.012l-4.706,6.739c-2.424-9.874-15.397-17.651-31.83-19.194c2.52-2.563,3.941-5.391,3.941-8.365
		c0-11.617-21.271-21.036-47.508-21.036c-26.236,0-47.507,9.419-47.507,21.036c0,1.89,0.615,3.721,1.67,5.464
		c-18.591,2.095-32.464,10.109-32.464,19.703c0,7.091,7.574,13.317,19.016,16.935c-0.322,1.084-0.542,2.183-0.542,3.326
		c0,11.976,18.553,21.688,41.466,21.723l17.892,36.418v45.2c-18.089,0.62-31.891,3.878-31.891,7.788
		c0,4.366,17.082,7.896,38.147,7.896c21.066,0,38.147-3.53,38.147-7.896c0-3.91-13.802-7.168-31.892-7.788V162.29l19.273-33.858
		c2.064,0.221,4.188,0.34,6.364,0.34c8.401,0,16.162-1.635,22.462-4.398l-2.922,4.185c-1.025,1.467,0.025,3.48,1.814,3.48h0.191
		c1.788,0,2.838,2.01,1.816,3.478l-10.275,14.754c-1.022,1.468,0.028,3.478,1.816,3.478h4.637c1.756,0,2.812,1.946,1.856,3.418
		l-12.535,19.308c-1.012,1.559,0.233,3.596,2.082,3.406l25.557-2.619c1.304-0.134,2.438,0.89,2.438,2.202v37.796
		c-9.197,0.501-15.909,2.071-15.909,3.949c0,2.271,9.933,4.117,22.194,4.117c12.246,0,22.194-1.846,22.194-4.117
		c0-1.987-7.53-3.631-17.55-4.025v-37.835c0-1.269,1.065-2.279,2.333-2.21l26.857,1.461
		C234.447,178.704,235.577,176.471,234.352,174.983 M99.314,142.098c5.709-0.124,11.119-0.855,16.005-2.066v22.469L99.314,142.098z
		 M127.83,148.831v-13.57c4.379-2.437,7.699-5.398,9.566-8.686c2.677,0.745,5.513,1.325,8.473,1.704L127.83,148.831z"/>
</g>
</svg>
