<?xml version="1.0" encoding="utf-8"?>
<!-- Generator: Adobe Illustrator 25.4.1, SVG Export Plug-In . SVG Version: 6.00 Build 0)  -->
<svg version="1.1" id="Layer_1" xmlns="http://www.w3.org/2000/svg" xmlns:xlink="http://www.w3.org/1999/xlink" x="0px" y="0px"
	 viewBox="0 0 26.7 28" style="enable-background:new 0 0 26.7 28;" xml:space="preserve">
<style type="text/css">
	.st0{fill:#25303B;}
</style>
<g>
	<g>
		<g>
			<g>
				<g>
					<g>
						<g>
							<path class="st0" d="M13,7.1c-0.1,0.1-0.3,0.1-0.4,0l-0.2-0.2c-0.1-0.1-0.1-0.3,0-0.4l0.8-0.8c0.1-0.1,0.3-0.1,0.4,0l0.2,0.2
								c0.1,0.1,0.1,0.3,0,0.4L13,7.1z"/>
						</g>
					</g>
					<g>
						<g>
							<path class="st0" d="M14.7,5.4c-0.1,0.1-0.3,0.1-0.4,0L14,5.2c-0.1-0.1-0.1-0.3,0-0.4L14.8,4c0.1-0.1,0.3-0.1,0.4,0l0.2,0.2
								c0.1,0.1,0.1,0.3,0,0.4L14.7,5.4z"/>
						</g>
					</g>
				</g>
				<g>
					<path class="st0" d="M21.1,3.8c0.4-0.4,0.5-1,0.5-1.6c0-0.6-0.1-1.2-0.5-1.6C20.6,0.1,20,0,19.4,0s-1.2,0.1-1.6,0.5
						c-0.4,0.4-0.5,1-0.5,1.6c0,0.6,0.1,1.2,0.5,1.6c0.4,0.4,1,0.5,1.6,0.5S20.6,4.2,21.1,3.8"/>
				</g>
				<g>
					<path class="st0" d="M13.5,13.9l0.1-0.5l0.1-0.5h0L14,9.3c0-0.2,0.1-0.3,0.1-0.4v0l0,0c0,0,0,0,0,0c0.1-0.1,0.2-0.3,0.3-0.4
						l2.3-2.1l1.4-1.3l0,0c0.2-0.1,0.3-0.2,0.5-0.3c0.2-0.1,0.4-0.1,0.6-0.1h0c0.4,0,0.8,0.1,1.2,0.3l0.2,0.1c0.6,0.3,1,0.7,1.3,1.3
						l0.7,1.4c0,0,0,0,0,0l0.8,1.9l2.3,1.3l0.3,0.2c0.2,0.1,0.5,0.3,0.5,0.6c0.1,0.3,0,0.5-0.2,0.8c-0.1,0.2-0.3,0.5-0.6,0.5
						c-0.3,0.1-0.5,0-0.8-0.2l-0.6-0.3c0,0,0,0,0,0l-2.3-1.3c-0.1-0.1-0.2-0.2-0.3-0.3c-0.1-0.1-0.2-0.2-0.2-0.4l0-0.1l0.4,16.2
						c0,0.3,0,0.7-0.3,0.9C21.6,28,21.3,28,20.9,28c-0.3,0-0.7,0-0.9-0.2c-0.2-0.2-0.3-0.6-0.3-0.9l-0.4-5.9v-2.4l-0.4,1.4l-0.2,0.7
						c0,0.1-0.1,0.3-0.1,0.5l0,0L16.9,26c-0.1,0.3-0.3,0.6-0.6,0.8c-0.3,0.1-0.6,0.1-0.8,0c0,0-0.1,0-0.1,0
						c-0.3-0.1-0.6-0.3-0.8-0.6c-0.1-0.3-0.1-0.6,0-1l0,0c0,0,0,0,0,0l1.5-4.5c0,0,0,0,0,0l0.9-6.1V8.7l-1.3,1.2c0,0,0,0,0,0
						l-0.4,3.2c0,0,0,0,0,0l-0.1,0.5l-0.1,0.5c0,0.2-0.1,0.5-0.3,0.7c-0.2,0.1-0.5,0.2-0.7,0.1c-0.2,0-0.5-0.1-0.7-0.3
						C13.5,14.5,13.5,14.2,13.5,13.9"/>
				</g>
			</g>
		</g>
		<g>
			<path class="st0" d="M9.9,7.8c0-0.2-0.1-0.3-0.3-0.3l-0.3,0C9.2,7.5,9,7.6,9,7.8l0,2.6l2.6,0c0.2,0,0.3-0.1,0.3-0.3l0-0.3
				c0-0.2-0.1-0.3-0.3-0.3l-0.3,0c-0.3,0-0.8,0-0.8,0.1C10.6,9.5,11.1,9,11.1,9L12,8.1c0.1-0.1,0.1-0.3,0-0.4l-0.2-0.2
				c-0.1-0.1-0.3-0.1-0.4,0l-0.9,0.9c0,0-0.5,0.5-0.6,0.6c0,0,0.1-0.5,0.1-0.8L9.9,7.8z"/>
		</g>
		<g>
			<path class="st0" d="M8.1,18.5l-5.6,0L2.4,18L2,15.4l-0.1-0.7L1.2,9.9c0-0.2-0.3-0.4-0.5-0.4L0.4,9.6C0.1,9.6,0,9.9,0,10.1
				l0.9,5.9L1,16.8l0.3,2.5c0,0.2,0.2,0.4,0.4,0.4l6.4,0c0.2,0,0.4-0.2,0.4-0.4v-0.4C8.5,18.7,8.3,18.5,8.1,18.5z"/>
		</g>
	</g>
	<g>
		<path class="st0" d="M4.8,17.6h2.9v-4.5H7.3l0-0.1c0-0.2,0-0.4-0.1-0.5c0-0.1-0.1-0.2-0.2-0.3c-0.1-0.1-0.2-0.1-0.3-0.2
			c-0.2-0.1-0.4-0.1-0.5-0.1c-0.2,0-0.4,0-0.5,0.1c-0.1,0-0.2,0.1-0.3,0.2c-0.1,0.1-0.1,0.2-0.2,0.3c-0.1,0.2-0.1,0.4-0.1,0.5l0,0.1
			H4.8V17.6z M5.5,13.1c0-0.1,0-0.3,0.1-0.4c0,0,0.1-0.1,0.1-0.1c0,0,0.1-0.1,0.1-0.1c0.1,0,0.2-0.1,0.4-0.1c0.1,0,0.3,0,0.4,0.1
			c0.1,0,0.1,0,0.1,0.1c0,0,0.1,0.1,0.1,0.1c0,0.1,0.1,0.2,0.1,0.4l0,0L5.5,13.1L5.5,13.1z M9.6,13.9v2.9c0,0.4-0.4,0.8-0.8,0.8H8.1
			v-4.5h0.7C9.2,13.2,9.6,13.5,9.6,13.9z M4.3,17.6H3.7c-0.4,0-0.8-0.4-0.8-0.8v-2.9c0-0.4,0.4-0.8,0.8-0.8h0.7V17.6z"/>
	</g>
</g>
</svg>
