<?xml version="1.0" encoding="utf-8"?>
<!-- Generator: Adobe Illustrator 25.4.1, SVG Export Plug-In . SVG Version: 6.00 Build 0)  -->
<svg version="1.1" id="Layer_1" xmlns="http://www.w3.org/2000/svg" xmlns:xlink="http://www.w3.org/1999/xlink" x="0px" y="0px"
	 viewBox="0 0 28.346 28.346" enable-background="new 0 0 28.346 28.346" xml:space="preserve">
<g>
	<path fill="#FFFFFF" d="M10.615,12.933c0.029-0.019,0.057-0.04,0.082-0.063c0.247-0.201,0.479-0.508,0.647-0.986
		c0.236-0.668,0.402-1.265,0.447-2.001c0.064-0.905-0.309-2.313-0.555-2.969l-0.087-0.231c-0.053-0.146-0.256-0.461-0.616-0.836
		c-0.309-0.323-0.607-0.346-1.06-0.346H7.634c-0.452,0-0.749,0.023-1.059,0.346C6.214,6.221,6.011,6.536,5.959,6.683L5.873,6.915
		C5.625,7.57,5.253,8.978,5.315,9.886c0.045,0.733,0.212,1.33,0.448,2c0.168,0.478,0.4,0.784,0.648,0.985
		c0.026,0.022,0.053,0.044,0.082,0.062l-1.339,1.488c-0.053,0.061-0.082,0.139-0.082,0.22c0,0.08,0.029,0.158,0.082,0.219
		c0.025,0.028,0.055,0.051,0.088,0.066c0.035,0.016,0.071,0.024,0.108,0.024c0.038,0,0.074-0.008,0.109-0.024
		c0.033-0.015,0.064-0.038,0.087-0.066l0.463-0.514h5.09l0.461,0.514c0.025,0.028,0.055,0.051,0.089,0.066
		c0.034,0.016,0.07,0.024,0.108,0.024c0.037,0,0.074-0.008,0.108-0.024c0.034-0.015,0.064-0.038,0.088-0.066
		c0.053-0.061,0.082-0.139,0.082-0.219c0-0.081-0.029-0.159-0.082-0.22L10.615,12.933z M10.166,12.39
		c-0.091,0-0.18-0.027-0.255-0.077c-0.075-0.051-0.134-0.123-0.169-0.206c-0.035-0.085-0.044-0.177-0.026-0.266
		c0.017-0.089,0.062-0.171,0.126-0.235c0.064-0.065,0.146-0.108,0.235-0.126c0.089-0.018,0.182-0.009,0.265,0.026
		c0.084,0.034,0.156,0.094,0.206,0.169c0.051,0.076,0.078,0.165,0.078,0.255c0,0.122-0.049,0.239-0.135,0.325
		C10.405,12.342,10.288,12.39,10.166,12.39 M6.004,9.443c-0.281,0,0.162-2.466,0.362-2.466h4.325c0.22,0,0.731,2.466,0.391,2.466
		H6.004z M6.473,11.93c0-0.09,0.027-0.179,0.077-0.256c0.051-0.075,0.123-0.134,0.207-0.168c0.083-0.035,0.176-0.045,0.266-0.027
		c0.089,0.018,0.17,0.061,0.235,0.126c0.064,0.064,0.108,0.146,0.126,0.235c0.018,0.09,0.009,0.182-0.026,0.267
		c-0.035,0.083-0.094,0.155-0.17,0.206c-0.075,0.05-0.164,0.077-0.255,0.077c-0.061,0-0.121-0.012-0.176-0.034
		c-0.056-0.024-0.108-0.058-0.149-0.1c-0.044-0.043-0.077-0.094-0.1-0.149C6.484,12.05,6.473,11.99,6.473,11.93 M6.566,13.726
		l0.492-0.547c0.206,0.042,0.415,0.06,0.624,0.055h1.744c0.209,0.005,0.418-0.013,0.622-0.055l0.495,0.547H6.566z"/>
	<path fill-rule="evenodd" clip-rule="evenodd" fill="#FFFFFF" d="M21.942,7.531c0.184,0.184,0.184,0.483,0,0.668L7.769,22.371
		c-0.184,0.186-0.484,0.186-0.668,0c-0.185-0.184-0.185-0.483,0-0.668L21.274,7.531C21.458,7.346,21.758,7.346,21.942,7.531"/>
	<path fill="#FFFFFF" d="M21.968,28.346H6.377C2.855,28.346,0,25.491,0,21.968V6.378c0-3.523,2.856-6.379,6.378-6.379h15.591
		c3.523,0,6.378,2.856,6.378,6.379v15.59C28.346,25.491,25.491,28.346,21.968,28.346 M26.872,21.968V6.378
		c0-2.709-2.196-4.904-4.904-4.904H6.377c-2.708,0-4.903,2.195-4.903,4.904v15.59c0,2.708,2.195,4.904,4.903,4.904h15.591
		C24.676,26.872,26.872,24.676,26.872,21.968"/>
	<path fill="#FFFFFF" d="M16.165,18.045c0.631,0,1.267,0.407,1.267,1.315c0,0.588-0.26,1.022-0.774,1.288
		c-0.029,0.013-0.057,0.025-0.085,0.036l0.828,1.732c0.036,0.073,0.033,0.143-0.01,0.213c-0.075,0.122-0.265,0.221-0.423,0.221
		c-0.12,0-0.197-0.043-0.245-0.138l-0.828-1.853h-0.586v1.712c0,0.139-0.199,0.275-0.372,0.275c-0.199,0-0.372-0.136-0.372-0.275
		v-4.13c0-0.207,0.111-0.396,0.43-0.396H16.165z M14.565,22.571v-4.13c0-0.207,0.111-0.396,0.43-0.396 M15.7,20.239
		c0.44,0,0.954-0.214,0.954-0.816c0-0.472-0.346-0.765-0.902-0.765h-0.443v1.581H15.7z"/>
	<path fill="#FFFFFF" d="M22.83,18.045c0.631,0,1.267,0.407,1.267,1.315c0,0.588-0.26,1.022-0.775,1.288
		c-0.028,0.013-0.056,0.025-0.084,0.036l0.828,1.732c0.036,0.073,0.033,0.143-0.01,0.213c-0.076,0.122-0.266,0.221-0.424,0.221
		c-0.119,0-0.197-0.043-0.244-0.138l-0.829-1.853h-0.585v1.712c0,0.139-0.199,0.275-0.372,0.275c-0.199,0-0.372-0.136-0.372-0.275
		v-4.13c0-0.207,0.11-0.396,0.43-0.396H22.83z M22.365,20.239c0.44,0,0.954-0.214,0.954-0.816c0-0.472-0.346-0.765-0.903-0.765
		h-0.442v1.581H22.365z"/>
	<path fill="#FFFFFF" d="M20.329,22.832c0.184,0,0.286-0.203,0.286-0.344c0-0.143-0.089-0.345-0.286-0.345h-1.425v-1.44h1.201
		c0.198,0,0.286-0.185,0.286-0.317c0-0.152-0.089-0.316-0.286-0.316h-1.201v-1.337h1.322c0.186,0,0.286-0.2,0.286-0.344
		c0-0.143-0.089-0.345-0.286-0.345h-1.635c-0.32,0-0.43,0.19-0.43,0.396v4.03c0,0.266,0.222,0.362,0.372,0.362H20.329z"/>
</g>
</svg>
