<?xml version="1.0" encoding="utf-8"?>
<!-- Generator: Adobe Illustrator 25.4.1, SVG Export Plug-In . SVG Version: 6.00 Build 0)  -->
<svg version="1.1" id="Layer_1" xmlns="http://www.w3.org/2000/svg" xmlns:xlink="http://www.w3.org/1999/xlink" x="0px" y="0px"
	 viewBox="0 0 283.465 283.464" enable-background="new 0 0 283.465 283.464" xml:space="preserve">
<g>
	<path fill="#996017" d="M219.685,283.464H63.78C28.555,283.464,0,254.909,0,219.685V63.779C0,28.555,28.555,0,63.78,0h155.905
		c35.225,0,63.779,28.555,63.779,63.779v155.906C283.464,254.909,254.91,283.464,219.685,283.464"/>
	<path fill="#FFFFFF" d="M65.637,248.169H52.279V124.366c0-1.029,0.443-2.008,1.218-2.686l12.14-10.632V248.169 M231.717,248.169
		V124.366c0-1.029-0.445-2.008-1.219-2.686l-12.141-10.632v137.121H231.717 M122.111,156.917l-10.13-17.459l-10.22,17.459H122.111z
		 M121.95,110.615l-9.969,17.032l-9.879-17.032H121.95z M132.328,104.668l9.661-16.482l9.573,16.482H132.328z M144.468,80.578
		c13.911,0.629,26.417,6.513,35.632,15.718c2.548,2.55,4.834,5.358,6.833,8.372h-28.494L144.468,80.578z M151.66,162.865
		l-9.641,16.49l-9.581-16.49H151.66z M181.871,156.917H162.05l9.961-17.019L181.871,156.917z M155.147,156.917h-26.159
		l-13.569-23.35l13.429-22.952h26.144l13.569,23.371L155.147,156.917z M189.788,109.513c3.884,7.443,6.092,15.897,6.092,24.884
		c0,8.856-2.15,17.198-5.935,24.565l-14.483-24.955L189.788,109.513z M187.734,162.865c-2.179,3.491-4.737,6.723-7.634,9.622
		c-9.383,9.383-22.18,15.303-36.394,15.748l14.856-25.37H187.734z M140.286,188.235c-14.198-0.442-27-6.363-36.386-15.748
		c-2.896-2.899-5.455-6.131-7.635-9.622h29.284L140.286,188.235z M211.088,66.365L143.969,21.95c-1.194-0.791-2.746-0.791-3.941,0
		l-67.12,44.415c-1,0.661-1.601,1.779-1.601,2.978v178.826h141.381V69.343C212.688,68.144,212.087,67.026,211.088,66.365
		 M141.989,194.066c-32.949,0-59.66-26.731-59.66-59.669c0-32.95,26.711-59.661,59.66-59.673
		c32.972,0.012,59.67,26.723,59.682,59.673C201.659,167.335,174.961,194.066,141.989,194.066 M97.066,104.668
		c1.999-3.014,4.286-5.822,6.834-8.372c9.224-9.212,21.741-15.097,35.645-15.719l-14.115,24.091H97.066z M93.863,158.591
		c-3.668-7.276-5.747-15.486-5.747-24.194c0-9.119,2.271-17.693,6.265-25.215l14.158,24.365L93.863,158.591z M182.239,110.615
		l-10.22,17.472l-10.13-17.472H182.239z"/>
</g>
</svg>
