<?xml version="1.0" encoding="utf-8"?>
<!-- Generator: Adobe Illustrator 25.4.1, SVG Export Plug-In . SVG Version: 6.00 Build 0)  -->
<svg version="1.1" id="Layer_1" xmlns="http://www.w3.org/2000/svg" xmlns:xlink="http://www.w3.org/1999/xlink" x="0px" y="0px"
	 viewBox="0 0 210.331 145.985" enable-background="new 0 0 210.331 145.985" xml:space="preserve">
<g>
	<path fill="#FFFFFF" d="M74.692,21.677c3.731,0,6.346-0.775,7.993-2.369c1.571-1.621,2.345-4.236,2.345-7.97
		c0-3.732-0.774-6.347-2.368-7.992c-1.624-1.571-4.238-2.346-7.97-2.346c-3.734,0-6.349,0.774-7.993,2.368
		c-1.571,1.623-2.346,4.237-2.346,7.97c0,3.726,0.771,6.336,2.357,7.982C68.355,20.906,70.967,21.677,74.692,21.677z"/>
	<path fill="#FFFFFF" d="M209.331,89.001v-9.906H82.614l0.007-27.02l3.659,6.118c0.375,0.628,0.827,1.208,1.345,1.724l11.16,11.115
		c0.874,0.736,1.69,1.078,2.476,1.026c0.966-0.086,2.128-0.788,3.424-2.083c1.296-1.296,1.998-2.459,2.086-3.457
		c0.043-0.761-0.292-1.57-1.027-2.442l-0.26-0.309L94.65,52.893L83.687,34.558c-1.72-2.876-4.396-5.11-7.533-6.289l-0.944-0.355
		c-2.128-0.8-4.447-1.105-6.7-0.88l-0.224,0.023c-1.108,0.109-2.171,0.419-3.162,0.921c-0.991,0.503-1.869,1.177-2.609,2.003
		L45.351,49.14c-1.469,1.638-2.278,3.753-2.278,5.956l-0.006,12.589l0.004,3.013c0,1.829,0.363,3.093,1.109,3.864
		c0.748,0.724,2.012,1.087,3.843,1.087s3.095-0.363,3.866-1.109c0.724-0.749,1.086-2.012,1.086-3.84l0.002-15.229l7.546-8.422
		L60.51,79.094H33.945C15.779,79.094,1,93.874,1,112.04s14.779,32.945,32.945,32.945h175.386v-9.906H33.945
		c-12.704,0-23.04-10.335-23.04-23.039s10.336-23.039,23.04-23.039H209.331z"/>
</g>
</svg>
