<?xml version="1.0" encoding="utf-8"?>
<!-- Generator: Adobe Illustrator 25.4.1, SVG Export Plug-In . SVG Version: 6.00 Build 0)  -->
<svg version="1.1" id="Layer_1" xmlns="http://www.w3.org/2000/svg" xmlns:xlink="http://www.w3.org/1999/xlink" x="0px" y="0px"
	 viewBox="0 0 210.331 145.985" enable-background="new 0 0 210.331 145.985" xml:space="preserve">
<g>
	<path fill="#25303B" d="M66.003,20.028c-2.133-2.202-2.65-5.566-2.65-8.689c0-3.122,0.517-6.485,2.65-8.688
		c2.202-2.134,5.567-2.65,8.689-2.65c3.122,0,6.484,0.516,8.688,2.65c2.134,2.203,2.65,5.566,2.65,8.688
		c0,3.123-0.516,6.487-2.65,8.689c-2.204,2.133-5.566,2.65-8.688,2.65C71.57,22.678,68.205,22.161,66.003,20.028 M33.945,90.001
		h176.386V78.095H83.614c0-0.041,0.007-0.084,0.007-0.125V55.696l1.8,3.01c0.417,0.699,0.922,1.346,1.497,1.919l11.195,11.197
		l0.027-0.026c0.895,0.754,1.958,1.329,3.176,1.26c1.502-0.133,2.916-1.216,4.075-2.375c1.159-1.159,2.242-2.574,2.375-4.076
		c0.07-1.217-0.506-2.281-1.259-3.175l0.026-0.027L95.509,52.38L84.545,34.045c-1.835-3.068-4.688-5.452-8.039-6.712l-0.945-0.355
		c-2.266-0.852-4.734-1.179-7.15-0.939l-0.226,0.023c-1.229,0.121-2.41,0.465-3.513,1.024c-1.102,0.559-2.079,1.309-2.902,2.228
		L44.606,48.473c-1.634,1.823-2.533,4.175-2.533,6.623l-0.007,13.496h0.005v0.701v1.406c0,1.638,0.271,3.403,1.391,4.559
		c1.156,1.12,2.922,1.391,4.561,1.391s3.405-0.27,4.562-1.391c1.119-1.155,1.391-2.92,1.391-4.558v-1.406
		c0-0.466,0.001-0.931,0.001-1.406c0-0.076-0.004-0.155-0.006-0.232l0.007-11.802l5.545-6.189l-0.012,28.43H33.945
		C15.228,78.095,0,93.322,0,112.04s15.228,33.945,33.945,33.945h176.386v-11.906H33.945c-12.152,0-22.04-9.887-22.04-22.039
		C11.905,99.888,21.793,90.001,33.945,90.001"/>
</g>
</svg>
