<?xml version="1.0" encoding="utf-8"?>
<!-- Generator: Adobe Illustrator 25.4.1, SVG Export Plug-In . SVG Version: 6.00 Build 0)  -->
<svg version="1.1" id="Layer_1" xmlns="http://www.w3.org/2000/svg" xmlns:xlink="http://www.w3.org/1999/xlink" x="0px" y="0px"
	 viewBox="0 0 191.064 198.335" enable-background="new 0 0 191.064 198.335" xml:space="preserve">
<g>
	<path fill="#25303B" d="M66.311,28.457c3.918,0,8.14-0.648,10.903-3.325c2.677-2.763,3.325-6.984,3.325-10.903
		c0-3.918-0.648-8.139-3.325-10.902C74.45,0.648,70.228,0,66.311,0c-3.918,0-8.138,0.648-10.902,3.326
		c-2.678,2.763-3.327,6.984-3.327,10.902c0,3.919,0.648,8.14,3.327,10.903C58.173,27.809,62.393,28.457,66.311,28.457z"/>
	<path fill="#25303B" d="M162.416,195.503l0.107-100.599c-4.542,0-8.223,3.682-8.223,8.223v72.055c-30.599,0-47.565,0-67.92,0
		c0.03-0.11,0.066-0.217,0.092-0.328c0.12-0.528,0.193-1.075,0.231-1.626c0.019-0.275,0.03-0.551,0.033-0.827v-0.412
		c-0.69-20.248-2.1-64.58-2.568-72.696l0,0c-0.247-15.971-0.493-31.983-0.741-48.049h1.649c2.017,3.463,3.97,6.817,5.825,10.002
		c0.978,1.679,1.929,3.312,2.849,4.891c0.23,0.395,0.458,0.786,0.684,1.174c0.153,0.247,0.135,0.269,0.164,0.338
		c0.025,0.064,0.055,0.126,0.09,0.186c0.07,0.229,0.163,0.447,0.238,0.704c0.067,0.277,0.157,0.523,0.21,0.825
		c0.067,0.285,0.121,0.578,0.167,0.875c0.029,0.148,0.042,0.291,0.062,0.435l0.039,0.324c-0.005,0.631-0.011,1.247-0.016,1.848
		c-0.014,1.553-0.026,3.027-0.038,4.412c-0.024,2.77-0.045,5.184-0.062,7.173c-0.034,3.977-0.054,6.249-0.054,6.249
		c-0.014,1.688,0.249,3.509,1.392,4.71c1.181,1.164,2.997,1.459,4.685,1.474c1.688,0.015,3.509-0.249,4.71-1.392
		c1.164-1.181,1.459-2.997,1.474-4.685c0,0,0.02-2.272,0.054-6.249c0.017-1.988,0.038-4.403,0.062-7.173
		c0.012-1.385,0.025-2.858,0.038-4.412c0.004-0.388,0.007-0.782,0.01-1.18l0.005-0.601l0.003-0.54
		c0.002-0.202-0.026-0.406-0.039-0.607l-0.051-0.497l-0.05-0.402c-0.036-0.265-0.067-0.534-0.114-0.797
		c-0.082-0.528-0.182-1.064-0.306-1.61c-0.104-0.537-0.277-1.112-0.43-1.677c-0.17-0.576-0.393-1.18-0.616-1.787
		c-0.155-0.341-0.311-0.684-0.467-1.029c-0.159-0.337-0.35-0.732-0.441-0.866c-0.228-0.392-0.459-0.788-0.691-1.187
		c-0.929-1.596-1.89-3.247-2.878-4.944c-1.976-3.393-4.059-6.972-6.215-10.673c-0.5-0.908-1.004-1.823-1.511-2.745
		c-0.556-1.017-1.42-2.503-2.794-3.943c-0.367-0.358-0.708-0.73-1.125-1.05c-0.417-0.321-0.847-0.631-1.284-0.928
		c-0.436-0.284-0.876-0.486-1.324-0.718l-0.675-0.325c-0.188-0.081-0.305-0.115-0.461-0.174c-1.177-0.424-2.361-0.85-3.549-1.277
		c0,0-5.202-1.809-10.297-2.456c-0.63-0.117-1.27-0.123-1.908-0.162l-1.917-0.097l-1.918-0.09c-0.64-0.025-1.28,0.042-1.919,0.061
		l-3.837,0.203c-1.268,0.189-2.534,0.377-3.798,0.565c-1.272,0.147-2.503,0.49-3.737,0.8l-1.846,0.47l-0.919,0.239l-0.893,0.316
		c-0.297,0.107-0.59,0.212-0.886,0.319v0.004c-3.474,1.815-6.301,4.736-7.977,8.287l-4.445,9.424
		c-0.022,0.044-0.041,0.088-0.062,0.134l-5.463,12.382l-15.24,8.641L13.3,73.736c-1.503,0.852-2.979,2.018-3.458,3.645
		c-0.426,1.642,0.244,3.401,1.095,4.904c0.63,1.112,1.434,2.206,2.467,2.896c-0.852,0.981-1.371,2.258-1.371,3.659v79.692
		c0,3.087,2.502,5.589,5.589,5.589h1.516c3.087,0,5.589-2.502,5.589-5.589V88.84c0-2.347-1.448-4.353-3.498-5.181l2.012-1.141
		c0.002-0.001,0.005-0.003,0.006-0.004l14.998-8.504c0.806-0.459,1.53-1.04,2.152-1.727c0.628-0.694,1.137-1.479,1.513-2.334
		l0.267-0.609l6.594-14.968v3.648c0.019-1.261,0.039-2.521,0.058-3.78v0c-0.019,1.259-0.039,2.519-0.058,3.781
		c-0.276,17.872-0.361,23.403-0.635,41.147c-0.685,20.089-1.562,52.574-2.252,72.822l0,0.412c0.003,0.275,0.014,0.551,0.033,0.827
		c0.038,0.55,0.111,1.097,0.231,1.626c0.025,0.112,0.062,0.219,0.092,0.328c-3.019,0-6.169,0-9.478,0v-72.055
		c0-4.542-3.682-8.223-8.223-8.223V195.48c0,1.565,1.269,2.834,2.834,2.835l128.207,0.019
		C161.146,198.335,162.415,197.067,162.416,195.503z M61.552,173.744c0.038-0.274,0.067-0.55,0.089-0.825l0.028-0.412
		c0.695-20.305,1.387-40.549,2.076-60.695c0.037-2.435,0.075-4.878,0.113-7.315h4.906c0.037,2.437,0.075,4.879,0.113,7.315
		c0.689,20.146,1.381,40.389,2.076,60.695l0.028,0.412c0.022,0.275,0.052,0.551,0.089,0.825c0.068,0.488,0.168,0.97,0.298,1.438
		c-3.21,0-6.566,0-10.114,0C61.384,174.714,61.484,174.232,61.552,173.744z"/>
	<path fill="#25303B" d="M0,103.127v76.089c0,2.271,1.841,4.112,4.112,4.112l0,0c2.271,0,4.112-1.841,4.112-4.112V94.904
		C3.682,94.904,0,98.585,0,103.127z"/>
	<path fill="#25303B" d="M173.44,83.251h-1.516c-3.087,0-5.589,2.502-5.589,5.589v79.692c0,3.087,2.502,5.589,5.589,5.589h1.516
		c3.087,0,5.589-2.502,5.589-5.589V88.84C179.029,85.753,176.527,83.251,173.44,83.251z"/>
	<path fill="#25303B" d="M182.841,94.904v84.312c0,2.271,1.841,4.112,4.112,4.112s4.112-1.841,4.112-4.112v-76.089
		C191.064,98.585,187.382,94.904,182.841,94.904z"/>
</g>
</svg>
