<?xml version="1.0" encoding="utf-8"?>
<!-- Generator: Adobe Illustrator 25.4.1, SVG Export Plug-In . SVG Version: 6.00 Build 0)  -->
<svg version="1.1" id="Layer_1" xmlns="http://www.w3.org/2000/svg" xmlns:xlink="http://www.w3.org/1999/xlink" x="0px" y="0px"
	 viewBox="0 0 226.777 165.04" enable-background="new 0 0 226.777 165.04" xml:space="preserve">
<g>
	<path fill="#25303B" d="M77.476,24.451c3.366,0,6.992-0.557,9.367-2.857c2.301-2.374,2.858-6.001,2.858-9.368
		c0-3.366-0.557-6.993-2.858-9.367C84.468,0.557,80.842,0,77.476,0s-6.994,0.557-9.368,2.858c-2.3,2.374-2.857,6.001-2.857,9.367
		c0,3.367,0.557,6.994,2.857,9.368C70.482,23.894,74.11,24.451,77.476,24.451z"/>
	<path fill="#25303B" d="M195.641,12.225H154.33c-7.425,0-14.406,2.891-19.657,8.141l-32.031,32.031L85.724,33.614l-0.26-0.274
		c-1.726-1.713-3.755-3.015-6.028-3.869l-1.024-0.385c-2.444-0.919-5.107-1.269-7.695-1.013l-0.257,0.025
		c-0.466,0.046-0.933,0.105-1.388,0.218c-1.063,0.263-2.051,0.666-2.955,1.193c0.433-0.085,0.878-0.131,1.334-0.131
		c3.859,0,7.02,3.139,7.047,6.998l0.092,13.062l12.513,13.547v-8.66l6.45,7.161l-4.073,4.073l0.936,1.014
		c1.691,1.831,2.493,3.536,2.453,5.213c-0.094,1.701-1.03,3.338-2.862,5.031c-1.789,1.653-3.457,2.457-5.096,2.457
		c-0.04,0-0.079,0-0.119-0.002c-1.701-0.094-3.338-1.029-5.029-2.86l-16.598-17.97c-0.855-0.926-1.534-1.98-2.041-3.109v5.798
		v32.784l-5.612,5.613c-2.809,2.809-6.618,4.387-10.59,4.387H31.137c-16.689,0-30.732,13.141-31.128,29.825
		c-0.407,17.188,13.456,31.301,30.554,31.301H64.93c7.372,0,14.442-2.928,19.655-8.141l79.176-79.176
		c2.8-2.8,6.597-4.372,10.556-4.372h21.898c17.097,0,30.96-14.111,30.554-31.299C226.374,25.367,212.331,12.225,195.641,12.225z
		 M196.214,60.515h-21.891c-7.42,0-14.393,2.888-19.638,8.131l-79.176,79.176c-2.826,2.826-6.585,4.381-10.585,4.381H30.563
		c-9.774,0-17.726-7.952-17.726-17.726s7.952-17.726,17.726-17.726h14.359c7.428,0,14.412-2.893,19.667-8.147l79.161-79.161
		c2.826-2.826,6.584-4.382,10.581-4.382h41.884c9.774,0,17.726,7.952,17.726,17.727C213.94,52.563,205.988,60.515,196.214,60.515z"
		/>
	<path fill="#25303B" d="M81.292,75c1.307,1.414,2.482,2.131,3.59,2.193c0.001,0,0.001,0,0.001,0c1.127,0,2.325-0.623,3.713-1.905
		c1.415-1.308,2.134-2.483,2.196-3.591c0.024-1.08-0.597-2.298-1.903-3.712L72.515,50.258L72.417,36.39
		c-0.019-2.719-2.247-4.931-4.966-4.931c-2.682,0-4.909,2.181-4.964,4.863l-0.301,14.469c0.04,2.31,0.93,4.531,2.508,6.239
		L81.292,75z"/>
</g>
</svg>
