<svg xmlns="http://www.w3.org/2000/svg" viewBox="0 0 283.46 283.46"><defs><style>.cls-1{fill:#996017;}.cls-2{fill:#fff;}</style></defs><g id="Layer_2" data-name="Layer 2"><g id="Layer_1-2" data-name="Layer 1"><path class="cls-1" d="M219.68,283.46H63.78A63.77,63.77,0,0,1,0,219.68V63.78A63.77,63.77,0,0,1,63.78,0h155.9a63.77,63.77,0,0,1,63.78,63.78v155.9a63.77,63.77,0,0,1-63.78,63.78"/><path class="cls-2" d="M38.58,149.49,54.7,203c9.55,23.54,29.47,39.46,53.73,34.09s34.8-28.36,34.27-53.54l-8.94-55.17a3.57,3.57,0,0,0-4.3-2.91L41.23,145a3.57,3.57,0,0,0-2.65,4.52m21.54,23.39a11.32,11.32,0,1,1,13.5,8.54,11.29,11.29,0,0,1-13.5-8.54M104.21,220a18.52,18.52,0,0,1-21.57-12.14A1.79,1.79,0,0,1,84,205.56l32.47-7.21a1.79,1.79,0,0,1,2.16,1.51A18.42,18.42,0,0,1,104.21,220m11.31-47.83a11.25,11.25,0,1,1,8.55-13.4,11.18,11.18,0,0,1-8.55,13.4m41.4-123.82-7.19,55.43c-.88,25.34,10.78,47.93,35.16,52.91s43.38-11.83,53.2-35l14.37-54a3.57,3.57,0,0,0-2.74-4.42L161.17,45.3a3.57,3.57,0,0,0-4.25,3m9.57,30a11.87,11.87,0,1,1,9.26,13.94,11.91,11.91,0,0,1-9.26-13.94m6.25,52.72a1.78,1.78,0,0,1-1.36-2.26,18.54,18.54,0,0,1,36.12,7.34,1.77,1.77,0,0,1-2.13,1.54Zm45.13-30.49a11.59,11.59,0,1,1,13.77-9.07,11.63,11.63,0,0,1-13.77,9.07"/></g></g></svg>