<?xml version="1.0" encoding="utf-8"?>
<!-- Generator: Adobe Illustrator 25.4.1, SVG Export Plug-In . SVG Version: 6.00 Build 0)  -->
<svg version="1.1" id="Layer_1" xmlns="http://www.w3.org/2000/svg" xmlns:xlink="http://www.w3.org/1999/xlink" x="0px" y="0px"
	 viewBox="0 0 83.931 186.395" enable-background="new 0 0 83.931 186.395" xml:space="preserve">
<g>
	<path fill="#FFFFFF" d="M71.99,46.742c-0.052-0.213-0.121-0.442-0.19-0.671L71.72,45.8c-0.389-1.213-0.949-2.405-1.661-3.521
		c-1.418-2.234-3.398-4.062-5.728-5.289c-0.295-0.161-0.581-0.3-0.872-0.427l-1.072-0.45c-0.338-0.135-0.675-0.271-1.017-0.395
		c-0.977-0.368-1.85-0.671-2.682-0.933c-1.792-0.572-3.634-1.057-5.481-1.442c-7.355-1.536-15.125-1.537-22.482,0
		c-1.84,0.383-3.683,0.868-5.478,1.441c-0.849,0.266-1.721,0.57-2.673,0.93c-0.354,0.128-0.691,0.264-1.027,0.399l-1.067,0.447
		c-0.295,0.129-0.583,0.268-0.863,0.421c-2.314,1.219-4.349,3.097-5.744,5.295c-0.709,1.111-1.269,2.303-1.667,3.544l-0.059,0.196
		c-0.074,0.246-0.149,0.492-0.209,0.738l-0.457,2.139L1.231,98.928c-0.397,1.94-0.285,3.362,0.344,4.347
		c0.641,0.939,1.904,1.602,3.846,2c1.94,0.397,3.362,0.284,4.348-0.344c0.939-0.642,1.602-1.906,2-3.848l8.535-41.667
		c0.19-0.923,1.011-1.593,1.953-1.593h0.465c0.538,0,1.042,0.211,1.419,0.594c0.378,0.384,0.582,0.892,0.574,1.43l-0.857,55.516
		l-2.146,62.995l0,0.393c0.002,0.257,0.013,0.524,0.032,0.792c0.039,0.553,0.112,1.071,0.218,1.54
		c0.233,1.028,0.64,1.868,1.208,2.494c1.08,1.118,2.893,1.716,5.523,1.806c2.627,0.086,4.48-0.384,5.655-1.449
		c0.585-0.565,1.048-1.378,1.353-2.396c0.137-0.46,0.246-0.974,0.322-1.527c0.036-0.263,0.065-0.532,0.087-0.801l0.028-0.415
		l2.158-63.12l0.086-5.64c0.026-1.62,1.364-2.938,2.984-2.938h1.197c1.619,0,2.958,1.317,2.984,2.937l0.087,5.66l2.187,63.529
		c0.021,0.252,0.05,0.523,0.086,0.792c0.075,0.545,0.185,1.06,0.323,1.523c0.305,1.017,0.768,1.83,1.375,2.416
		c1.153,1.044,3.019,1.52,5.633,1.428c2.629-0.09,4.443-0.688,5.546-1.829c0.545-0.604,0.951-1.444,1.184-2.472
		c0.107-0.47,0.181-0.987,0.219-1.539c0.018-0.266,0.028-0.535,0.032-0.806l-0.001-0.411l-2.146-62.944L59.215,59.85
		c-0.01-0.537,0.193-1.045,0.571-1.43c0.378-0.385,0.882-0.596,1.421-0.596h0.468c0.941,0,1.763,0.669,1.952,1.592l8.536,41.667
		c0.396,1.941,1.059,3.205,2.024,3.864c0.959,0.612,2.38,0.725,4.324,0.327c1.933-0.396,3.193-1.055,3.853-2.013
		c0.621-0.982,0.73-2.4,0.337-4.336L71.99,46.742z"/>
	<path fill="#FFFFFF" d="M41.964,27.346c4.733,0,8.057-0.992,10.164-3.031c2.018-2.083,3.01-5.407,3.01-10.142
		c0-4.734-0.992-8.058-3.032-10.164C50.022,1.992,46.697,1,41.964,1c-4.735,0-8.061,0.992-10.165,3.031
		c-2.017,2.083-3.008,5.407-3.008,10.142c0,4.735,0.991,8.06,3.03,10.164C33.905,26.354,37.23,27.346,41.964,27.346z"/>
</g>
</svg>
