<?xml version="1.0" encoding="utf-8"?>
<!-- Generator: Adobe Illustrator 25.4.1, SVG Export Plug-In . SVG Version: 6.00 Build 0)  -->
<svg version="1.1" id="Layer_1" xmlns="http://www.w3.org/2000/svg" xmlns:xlink="http://www.w3.org/1999/xlink" x="0px" y="0px"
	 viewBox="0 0 83.931 186.395" enable-background="new 0 0 83.931 186.395" xml:space="preserve">
<g>
	<path fill="#25303B" d="M83.2,103.813c-0.972,1.425-2.767,2.089-4.488,2.441c-1.721,0.353-3.633,0.447-5.087-0.48
		c-1.425-0.973-2.089-2.769-2.441-4.49l-8.204-40.046l-0.332-1.621c-0.095-0.461-0.501-0.793-0.973-0.793h-0.467
		c-0.555,0-1.002,0.455-0.993,1.01c0.286,18.564,0.572,37.083,0.856,55.515c0.712,20.903,1.428,41.907,2.146,62.976l0.001,0.427
		c-0.004,0.287-0.015,0.574-0.034,0.861c-0.04,0.573-0.116,1.141-0.241,1.691c-0.249,1.1-0.696,2.123-1.441,2.946
		c-1.544,1.599-3.968,2.056-6.23,2.133s-4.712-0.213-6.361-1.707c-0.8-0.772-1.315-1.767-1.639-2.85
		c-0.162-0.542-0.277-1.106-0.356-1.676c-0.039-0.285-0.069-0.573-0.093-0.859l-0.029-0.428c-0.723-21.128-1.442-42.191-2.16-63.153
		c-0.028-1.884-0.058-3.771-0.087-5.658c-0.017-1.084-0.9-1.953-1.984-1.953h-1.197c-1.084,0-1.967,0.869-1.984,1.953
		c-0.029,1.887-0.058,3.774-0.087,5.658c-0.717,20.962-1.437,42.025-2.16,63.153l-0.029,0.428c-0.023,0.286-0.054,0.574-0.093,0.859
		c-0.079,0.57-0.193,1.134-0.355,1.676c-0.324,1.083-0.839,2.078-1.639,2.85c-1.649,1.494-4.099,1.784-6.361,1.707
		c-2.263-0.077-4.687-0.534-6.23-2.133c-0.746-0.823-1.192-1.846-1.442-2.946c-0.124-0.55-0.2-1.118-0.24-1.691
		c-0.02-0.287-0.031-0.574-0.034-0.861v-0.427c0.718-21.069,1.434-42.073,2.146-62.976c0.284-18.432,0.57-36.951,0.857-55.516
		c0.008-0.554-0.438-1.009-0.993-1.009h-0.465c-0.472,0-0.878,0.332-0.973,0.793l-0.331,1.62l-8.204,40.047
		c-0.353,1.721-1.017,3.517-2.442,4.49c-1.454,0.927-3.366,0.833-5.087,0.48c-1.72-0.352-3.516-1.016-4.488-2.441
		c-0.928-1.454-0.832-3.365-0.48-5.086l8.199-40.026l2.051-10.007l0.256-1.25l0.209-0.924c0.081-0.334,0.188-0.67,0.287-1.003
		c0.425-1.328,1.024-2.598,1.775-3.775c1.495-2.356,3.631-4.332,6.107-5.637c0.307-0.168,0.621-0.319,0.939-0.459l0.47-0.208
		l0.334-0.134c0.446-0.178,0.89-0.361,1.342-0.525c0.899-0.34,1.806-0.659,2.723-0.947c1.832-0.585,3.694-1.075,5.577-1.467
		c3.764-0.786,7.61-1.179,11.445-1.179c3.837,0,7.682,0.393,11.446,1.179c1.883,0.393,3.745,0.882,5.576,1.467
		c0.917,0.288,1.825,0.608,2.724,0.947c0.452,0.164,0.896,0.347,1.342,0.525l0.334,0.134l0.471,0.209
		c0.318,0.139,0.631,0.291,0.938,0.459c2.477,1.304,4.611,3.281,6.106,5.636c0.751,1.178,1.351,2.448,1.776,3.776
		c0.098,0.333,0.206,0.669,0.287,1.003l0.209,0.923l0.256,1.251l2.05,10.006l8.2,40.026C84.032,100.448,84.127,102.359,83.2,103.813
		 M41.965,28.346c3.902,0,8.105-0.646,10.859-3.313c2.668-2.752,3.314-6.957,3.314-10.86s-0.646-8.107-3.314-10.86
		C50.069,0.645,45.866,0,41.965,0c-3.903,0-8.108,0.645-10.861,3.313c-2.667,2.753-3.312,6.957-3.312,10.86s0.645,8.108,3.312,10.86
		C33.856,27.7,38.061,28.346,41.965,28.346"/>
</g>
</svg>
