<?xml version="1.0" encoding="utf-8"?>
<!-- Generator: Adobe Illustrator 25.4.1, SVG Export Plug-In . SVG Version: 6.00 Build 0)  -->
<svg version="1.1" id="Layer_1" xmlns="http://www.w3.org/2000/svg" xmlns:xlink="http://www.w3.org/1999/xlink" x="0px" y="0px"
	 viewBox="0 0 127.559 155.197" enable-background="new 0 0 127.559 155.197" xml:space="preserve">
<g>
	<path fill="#FFFFFF" d="M93.312,119.381c-0.439-0.765-1.146-1.268-1.989-1.414l-4.189-0.739c-1.753-0.271-3.456,0.613-3.869,2.022
		c-1.438,4.979-4.064,9.622-7.597,13.425c-3.479,3.766-7.91,6.748-12.812,8.622c-4.925,1.836-10.219,2.514-15.314,1.954
		c-5.111-0.511-10.155-2.264-14.579-5.067c-8.836-5.571-14.755-15.45-15.444-25.781c-0.389-5.227,0.441-10.504,2.399-15.253
		c1.911-4.755,5.003-9.1,8.941-12.559c1.11-0.967,1.193-2.887,0.192-4.375l-2.429-3.468c-0.49-0.704-1.243-1.131-2.122-1.205
		c-0.095-0.009-0.191-0.014-0.287-0.014c-0.834,0-1.707,0.347-2.446,0.975c-5.185,4.544-9.274,10.285-11.814,16.593
		c-2.582,6.288-3.674,13.245-3.16,20.127c0.266,3.423,0.922,6.815,1.951,10.081c1.043,3.246,2.471,6.391,4.241,9.342
		c3.49,5.858,8.399,10.91,14.201,14.611c5.823,3.693,12.477,6.008,19.24,6.691c6.757,0.729,13.749-0.164,20.224-2.589
		c6.447-2.462,12.294-6.394,16.901-11.369c4.669-5.023,8.141-11.156,10.041-17.738c0.292-1.023,0.192-2.068-0.274-2.862
		L93.312,119.381z"/>
	<path fill="#FFFFFF" d="M68.031,27.347c4.732,0,8.058-0.992,10.164-3.031c2.018-2.083,3.01-5.408,3.01-10.143
		c0-4.734-0.992-8.058-3.032-10.163C76.089,1.992,72.765,1,68.031,1c-4.734,0-8.059,0.992-10.165,3.032
		c-2.017,2.082-3.008,5.406-3.008,10.141c0,4.736,0.991,8.061,3.03,10.165C59.972,26.355,63.297,27.347,68.031,27.347z"/>
	<path fill="#FFFFFF" d="M105.222,92.01c-0.42-0.789-0.921-1.497-1.496-2.119c-1.161-1.254-2.652-2.18-4.312-2.677l-37.24-11.056
		l6.745-31.767c0.235-1.04,0.375-1.918,0.429-2.7l0.001-0.233c0.004-0.319,0.009-0.641-0.017-0.942
		c-0.021-0.274-0.066-0.534-0.109-0.794l-0.061-0.379c-0.16-0.746-0.395-1.451-0.704-2.097c-0.64-1.398-1.633-2.635-2.882-3.593
		c-1.24-0.941-2.688-1.576-4.181-1.833c-0.738-0.126-1.483-0.167-2.278-0.126c-0.37,0.041-0.793,0.086-1.221,0.158L56.6,32.2
		L24.947,42.902c-0.281,0.097-0.563,0.204-0.838,0.325c-1.094,0.482-2.08,1.159-2.931,2.013c-0.436,0.431-0.823,0.93-1.176,1.407
		L2.583,69.694c-1.192,1.579-1.703,2.909-1.56,4.068c0.174,1.122,1.028,2.262,2.607,3.455c1.578,1.195,2.912,1.705,4.066,1.562
		c1.123-0.175,2.264-1.029,3.457-2.606l17.528-23.193l15.511-5.244l-6.312,29.723c-0.501,2.018-0.464,3.855,0.105,5.652
		c0.56,1.747,1.654,3.351,3.08,4.511c1.443,1.17,3.145,1.874,5.2,2.15l47.927,8.128l0.237,0.394l21.545,35.844
		c1.019,1.695,2.062,2.665,3.191,2.967c1.106,0.254,2.484-0.111,4.178-1.131c1.764-0.975,2.771-1.982,3.113-3.101
		c0.295-1.096-0.022-2.485-0.979-4.218L105.222,92.01z"/>
</g>
</svg>
