<?xml version="1.0" encoding="utf-8"?>
<!-- Generator: Adobe Illustrator 25.4.1, SVG Export Plug-In . SVG Version: 6.00 Build 0)  -->
<svg version="1.1" id="Layer_1" xmlns="http://www.w3.org/2000/svg" xmlns:xlink="http://www.w3.org/1999/xlink" x="0px" y="0px"
	 viewBox="0 0 75.369 185.686" enable-background="new 0 0 75.369 185.686" xml:space="preserve">
<g>
	<path fill="#FFFFFF" d="M37.685,27.346c4.733,0,8.059-0.991,10.164-3.03c2.018-2.083,3.01-5.408,3.01-10.143
		c0-4.734-0.992-8.058-3.032-10.164C45.743,1.992,42.418,1,37.685,1c-4.736,0-8.061,0.992-10.166,3.031
		c-2.017,2.083-3.008,5.407-3.008,10.142c0,4.727,0.988,8.048,3.019,10.154C29.636,26.358,32.958,27.346,37.685,27.346z"/>
	<path fill="#FFFFFF" d="M72.748,88.762c-0.11-0.541-0.253-1.044-0.423-1.499l-0.071-0.189l0.009-0.202
		c0.011-0.268-0.005-0.499-0.047-0.708L64.49,48.501c-0.072-0.325-0.145-0.649-0.241-0.973c-0.275-0.977-0.581-1.828-0.938-2.619
		c-1.479-3.384-4.007-6.344-7.12-8.346c-0.868-0.549-1.664-0.982-2.428-1.321l-1.186-0.504c-0.273-0.112-0.543-0.212-0.812-0.312
		l-0.292-0.109c-1.405-0.514-2.919-0.966-4.491-1.339c-2.982-0.71-6.111-1.073-9.3-1.08c-3.185,0.007-6.313,0.37-9.297,1.08
		c-1.571,0.374-3.085,0.825-4.5,1.343l-0.279,0.104c-0.271,0.101-0.542,0.201-0.809,0.311l-1.191,0.506
		c-0.763,0.338-1.559,0.772-2.435,1.326c-3.109,1.999-5.636,4.958-7.109,8.331c-0.358,0.792-0.664,1.645-0.939,2.617
		c-0.098,0.33-0.168,0.648-0.239,0.966l-0.294,1.389L3.154,86.166c-0.043,0.208-0.058,0.432-0.047,0.708l0.007,0.2l-0.07,0.188
		c-0.17,0.456-0.312,0.96-0.422,1.499l-1.409,6.875c-0.366,1.793-0.264,3.104,0.312,4.006c0.587,0.859,1.752,1.468,3.546,1.836
		c1.792,0.367,3.104,0.268,4.01-0.311c0.859-0.587,1.468-1.752,1.835-3.544l1.408-6.873c0.111-0.54,0.178-1.06,0.201-1.546l0.01-0.2
		l0.085-0.181c0.118-0.249,0.192-0.461,0.235-0.669l6.2-30.258c0.261-1.276,1.396-2.202,2.699-2.202c1.52,0,2.755,1.236,2.755,2.756
		v0.995c0,0.189-0.019,0.376-0.056,0.555l-12.289,59.984c-0.062,0.305,0.07,0.524,0.155,0.628c0.084,0.104,0.273,0.278,0.586,0.278
		h10.179l-2.404,58.197c-0.081,1.977,0.258,3.36,1.035,4.231c0.785,0.824,2.139,1.275,4.116,1.355
		c1.984,0.08,3.366-0.256,4.239-1.035c0.823-0.784,1.275-2.141,1.358-4.124l2.419-58.625h7.667l2.42,58.626
		c0.08,1.981,0.532,3.337,1.381,4.145c0.849,0.758,2.234,1.095,4.214,1.014c1.979-0.08,3.333-0.531,4.14-1.379
		c0.756-0.848,1.094-2.231,1.013-4.208l-2.402-58.197h10.18c0.313,0,0.502-0.175,0.587-0.278c0.084-0.104,0.216-0.322,0.153-0.627
		l-12.291-60c-0.037-0.186-0.055-0.368-0.055-0.554v-0.981c0-1.52,1.235-2.756,2.755-2.756c1.305,0,2.439,0.926,2.702,2.202
		l6.198,30.258c0.043,0.208,0.117,0.42,0.235,0.669l0.086,0.182l0.01,0.201c0.022,0.483,0.09,1.002,0.202,1.544l1.407,6.875
		c0.368,1.792,0.977,2.957,1.861,3.561c0.881,0.561,2.19,0.663,3.983,0.293c1.795-0.368,2.962-0.977,3.565-1.861
		c0.559-0.878,0.66-2.188,0.294-3.981L72.748,88.762z"/>
</g>
</svg>
