<?xml version="1.0" encoding="utf-8"?>
<!-- Generator: Adobe Illustrator 25.4.1, SVG Export Plug-In . SVG Version: 6.00 Build 0)  -->
<svg version="1.1" id="Layer_1" xmlns="http://www.w3.org/2000/svg" xmlns:xlink="http://www.w3.org/1999/xlink" x="0px" y="0px"
	 viewBox="0 0 75.369 185.686" enable-background="new 0 0 75.369 185.686" xml:space="preserve">
<g>
	<path fill="#1C2B39" d="M26.823,25.034c-2.667-2.753-3.312-6.957-3.312-10.861c0-3.903,0.645-8.107,3.312-10.86
		C29.576,0.645,33.782,0,37.684,0c3.903,0,8.106,0.645,10.86,3.313c2.668,2.753,3.314,6.957,3.314,10.86
		c0,3.904-0.646,8.108-3.314,10.861c-2.754,2.667-6.957,3.312-10.86,3.312C33.782,28.346,29.576,27.701,26.823,25.034
		 M75.135,95.434l-0.704-3.437l-0.704-3.436c-0.113-0.553-0.265-1.113-0.465-1.648c0.012-0.312-0.001-0.627-0.066-0.947L66.585,53.7
		l-0.826-4.033l-0.21-1.02c-0.11-0.469-0.202-0.938-0.342-1.405c-0.264-0.936-0.584-1.858-0.984-2.745
		c-1.558-3.563-4.204-6.662-7.491-8.775c-0.824-0.521-1.677-1.001-2.563-1.394l-0.661-0.295l-0.558-0.224
		c-0.37-0.152-0.749-0.288-1.124-0.429c-1.507-0.551-3.05-1.005-4.612-1.376c-3.123-0.743-6.333-1.1-9.53-1.107
		c-3.196,0.007-6.406,0.364-9.53,1.107c-1.561,0.371-3.104,0.825-4.612,1.376c-0.375,0.141-0.753,0.277-1.124,0.429l-0.558,0.224
		l-0.661,0.295c-0.886,0.393-1.738,0.873-2.562,1.394c-3.287,2.113-5.934,5.212-7.491,8.775c-0.401,0.887-0.72,1.809-0.985,2.745
		c-0.139,0.467-0.231,0.936-0.341,1.405l-0.21,1.02L8.783,53.7L2.174,85.966c-0.066,0.32-0.079,0.635-0.067,0.947
		c-0.2,0.535-0.352,1.095-0.465,1.648l-0.704,3.436l-0.704,3.437c-0.328,1.605-0.417,3.389,0.448,4.745
		c0.908,1.33,2.583,1.949,4.189,2.278c1.606,0.33,3.39,0.418,4.748-0.447c1.329-0.907,1.949-2.582,2.278-4.186l0.704-3.437
		l0.704-3.436c0.114-0.554,0.194-1.129,0.221-1.7c0.134-0.283,0.246-0.579,0.311-0.898l6.199-30.257
		c0.167-0.817,0.886-1.403,1.72-1.403c0.969,0,1.755,0.786,1.755,1.756v0.995c0,0.118-0.011,0.237-0.035,0.352l-12.289,59.986
		c-0.223,1.089,0.609,2.107,1.72,2.107h9.137l-2.361,57.157c-0.072,1.752,0.14,3.652,1.288,4.938
		c1.189,1.249,3.067,1.617,4.822,1.689c1.755,0.073,3.657-0.139,4.945-1.289c1.25-1.19,1.618-3.071,1.691-4.828l2.38-57.667h5.748
		l2.38,57.667c0.072,1.757,0.44,3.638,1.691,4.828c1.287,1.15,3.191,1.362,4.945,1.289c1.754-0.072,3.633-0.44,4.822-1.689
		c1.148-1.286,1.36-3.186,1.288-4.938l-2.36-57.157h9.138c1.111,0,1.944-1.018,1.72-2.107L51.89,59.783
		c-0.024-0.117-0.035-0.234-0.035-0.353v-0.981c0-0.97,0.786-1.756,1.755-1.756h0.003c0.834,0,1.552,0.586,1.72,1.403l6.198,30.257
		c0.066,0.319,0.178,0.615,0.312,0.897c0.026,0.572,0.107,1.147,0.221,1.701l0.704,3.436l0.704,3.437
		c0.329,1.604,0.948,3.279,2.277,4.186c1.358,0.865,3.143,0.777,4.748,0.447c1.606-0.329,3.282-0.948,4.19-2.278
		C75.552,98.823,75.463,97.039,75.135,95.434"/>
</g>
</svg>
