<?xml version="1.0" encoding="utf-8"?>
<!-- Generator: Adobe Illustrator 25.4.1, SVG Export Plug-In . SVG Version: 6.00 Build 0)  -->
<svg version="1.1" id="Layer_1" xmlns="http://www.w3.org/2000/svg" xmlns:xlink="http://www.w3.org/1999/xlink" x="0px" y="0px"
	 viewBox="0 0 200.122 212.598" enable-background="new 0 0 200.122 212.598" xml:space="preserve">
<g>
	<path fill="#FFFFFF" d="M158.156,46.472c4.733,0,8.059-0.991,10.164-3.03c2.018-2.083,3.009-5.408,3.009-10.143
		c0-4.734-0.991-8.059-3.031-10.164c-2.083-2.017-5.408-3.009-10.142-3.009c-4.735,0-8.061,0.992-10.165,3.031
		c-2.018,2.083-3.009,5.407-3.009,10.142c0,4.735,0.991,8.06,3.03,10.165C150.096,45.48,153.421,46.472,158.156,46.472z"/>
	<path fill="#FFFFFF" d="M72.748,108.589c-0.11-0.54-0.252-1.044-0.422-1.5l-0.07-0.187l0.007-0.2
		c0.011-0.276-0.004-0.5-0.047-0.704l-7.729-37.687c-0.071-0.32-0.142-0.639-0.237-0.958c-0.277-0.979-0.583-1.832-0.938-2.619
		c-1.479-3.381-4.006-6.341-7.121-8.344c-0.868-0.55-1.664-0.984-2.427-1.322l-1.186-0.505c-0.263-0.107-0.524-0.205-0.785-0.301
		l-0.319-0.12c-1.412-0.516-2.926-0.967-4.49-1.337c-2.98-0.71-6.109-1.073-9.301-1.08c-3.189,0.007-6.318,0.37-9.297,1.08
		c-1.566,0.371-3.08,0.822-4.5,1.341l-0.31,0.116c-0.261,0.097-0.521,0.194-0.779,0.299l-1.188,0.507
		c-0.766,0.339-1.562,0.773-2.436,1.327c-3.109,2-5.636,4.959-7.11,8.33c-0.361,0.801-0.667,1.653-0.938,2.616
		c-0.098,0.33-0.168,0.646-0.239,0.964l-0.295,1.391l-7.436,36.299c-0.042,0.207-0.058,0.431-0.047,0.708l0.007,0.2l-0.07,0.187
		c-0.171,0.459-0.313,0.963-0.422,1.499l-1.409,6.875c-0.366,1.792-0.264,3.103,0.312,4.005c0.588,0.861,1.754,1.472,3.548,1.839
		s3.105,0.264,4.01-0.312c0.858-0.587,1.467-1.752,1.835-3.544l1.409-6.873c0.11-0.54,0.178-1.061,0.2-1.545l0.01-0.2l0.085-0.182
		c0.118-0.248,0.192-0.461,0.235-0.669l6.2-30.259c0.261-1.276,1.396-2.202,2.699-2.202c1.52,0,2.756,1.236,2.756,2.756v0.995
		c0,0.186-0.019,0.372-0.057,0.555L12.167,139.81c-0.062,0.306,0.07,0.525,0.155,0.629c0.085,0.104,0.274,0.278,0.587,0.278h10.178
		l-2.403,58.197c-0.083,1.976,0.256,3.359,1.035,4.23c0.785,0.824,2.138,1.275,4.116,1.355c1.982,0.081,3.365-0.255,4.238-1.035
		c0.824-0.785,1.276-2.141,1.359-4.124l2.42-58.624h7.666l2.419,58.625c0.082,1.982,0.534,3.338,1.381,4.144
		c0.85,0.76,2.228,1.091,4.214,1.015c1.979-0.08,3.333-0.531,4.138-1.379c0.757-0.847,1.096-2.23,1.015-4.207l-2.404-58.197h10.181
		c0.313,0,0.501-0.174,0.586-0.278c0.085-0.104,0.218-0.323,0.155-0.63L50.911,79.81c-0.037-0.187-0.057-0.37-0.057-0.553v-0.982
		c0-1.52,1.236-2.756,2.756-2.756c1.307,0,2.442,0.926,2.703,2.203l6.199,30.256c0.043,0.21,0.117,0.423,0.235,0.673l0.085,0.18
		l0.01,0.199c0.023,0.481,0.091,1.002,0.202,1.548l1.408,6.872c0.367,1.791,0.976,2.956,1.861,3.56
		c0.88,0.561,2.192,0.661,3.984,0.296c1.792-0.367,2.958-0.978,3.564-1.864c0.559-0.877,0.66-2.188,0.293-3.98L72.748,108.589z"/>
	<path fill="#FFFFFF" d="M37.685,47.174c4.732,0,8.057-0.992,10.163-3.031c2.017-2.082,3.009-5.407,3.009-10.143
		c0-4.734-0.992-8.059-3.031-10.164c-2.083-2.018-5.408-3.01-10.141-3.01c-4.735,0-8.061,0.992-10.165,3.032
		c-2.018,2.084-3.009,5.408-3.009,10.142c0,4.734,0.992,8.06,3.031,10.165C29.625,46.182,32.95,47.174,37.685,47.174z"/>
	<path fill="#FFFFFF" d="M95.993,1h-3.231c-1.215,0-2.203,0.988-2.203,2.203v206.192c0,1.215,0.988,2.203,2.203,2.203h3.231
		c1.214,0,2.203-0.988,2.203-2.203V3.202C98.196,1.988,97.208,1,95.993,1z"/>
	<path fill="#FFFFFF" d="M188.182,65.868c-0.054-0.223-0.127-0.462-0.198-0.7l-0.072-0.24c-0.39-1.218-0.95-2.41-1.659-3.522
		c-1.417-2.233-3.398-4.061-5.729-5.29c-0.296-0.162-0.584-0.3-0.876-0.429l-1.075-0.451c-0.334-0.135-0.669-0.269-1.009-0.393
		c-0.959-0.361-1.833-0.665-2.684-0.933c-1.797-0.573-3.64-1.058-5.48-1.442c-7.374-1.538-15.128-1.536-22.482,0
		c-1.832,0.381-3.675,0.866-5.477,1.441c-0.856,0.269-1.729,0.572-2.673,0.929c-0.354,0.128-0.688,0.263-1.022,0.397l-1.074,0.449
		c-0.294,0.129-0.581,0.268-0.862,0.421c-2.347,1.237-4.328,3.065-5.743,5.295c-0.711,1.115-1.271,2.307-1.667,3.544l-0.054,0.179
		c-0.076,0.251-0.152,0.504-0.214,0.755l-0.458,2.139l-10.25,50.033c-0.396,1.94-0.284,3.362,0.344,4.347
		c0.642,0.94,1.905,1.603,3.846,1.999c1.94,0.399,3.363,0.286,4.349-0.343c0.939-0.642,1.602-1.906,2-3.848l8.536-41.668
		c0.189-0.922,1.01-1.592,1.951-1.592h0.466c0.537,0,1.041,0.211,1.419,0.594c0.378,0.383,0.582,0.891,0.574,1.43l-0.857,55.518
		l-2.146,62.994l0.001,0.393c0.003,0.259,0.013,0.526,0.031,0.793c0.037,0.545,0.11,1.062,0.219,1.538
		c0.232,1.03,0.639,1.869,1.206,2.495c1.08,1.118,2.894,1.717,5.523,1.807c2.62,0.084,4.48-0.387,5.656-1.449
		c0.585-0.565,1.047-1.379,1.352-2.396c0.138-0.459,0.246-0.974,0.323-1.527c0.036-0.265,0.064-0.534,0.086-0.803l0.028-0.415
		l2.159-63.119l0.086-5.639c0.025-1.619,1.363-2.938,2.983-2.938h1.197c1.621,0,2.959,1.318,2.984,2.938l0.087,5.657l2.188,63.528
		c0.021,0.256,0.049,0.525,0.086,0.792c0.074,0.547,0.183,1.061,0.322,1.526c0.305,1.016,0.767,1.829,1.375,2.416
		c1.151,1.041,2.989,1.513,5.634,1.428c2.629-0.09,4.443-0.688,5.544-1.829c0.546-0.604,0.952-1.443,1.185-2.472
		c0.107-0.471,0.181-0.988,0.219-1.54c0.018-0.265,0.028-0.534,0.032-0.806l-0.001-0.411l-2.145-62.943l-0.858-55.534
		c-0.008-0.541,0.196-1.048,0.575-1.432c0.377-0.383,0.882-0.594,1.419-0.594h0.467c0.943,0,1.764,0.67,1.951,1.594l8.537,41.667
		c0.396,1.94,1.06,3.204,2.025,3.863c0.96,0.613,2.383,0.726,4.322,0.326c1.94-0.396,3.204-1.059,3.863-2.024
		c0.611-0.959,0.724-2.381,0.327-4.322L188.182,65.868z"/>
</g>
</svg>
