<?xml version="1.0" encoding="utf-8"?>
<!-- Generator: Adobe Illustrator 25.4.1, SVG Export Plug-In . SVG Version: 6.00 Build 0)  -->
<svg version="1.1" id="Layer_1" xmlns="http://www.w3.org/2000/svg" xmlns:xlink="http://www.w3.org/1999/xlink" x="0px" y="0px"
	 viewBox="0 0 127.559 155.197" enable-background="new 0 0 127.559 155.197" xml:space="preserve">
<g>
	<path fill="#25303B" d="M94.18,118.884c0.594,1.01,0.748,2.331,0.373,3.646c-1.943,6.73-5.49,13-10.268,18.141
		c-4.772,5.152-10.724,9.121-17.285,11.626c-6.571,2.46-13.711,3.4-20.675,2.647c-6.969-0.704-13.754-3.086-19.677-6.844
		c-5.916-3.774-10.944-8.935-14.52-14.939c-1.801-3.002-3.264-6.216-4.337-9.556c-1.055-3.347-1.723-6.813-1.994-10.307
		c-0.522-6.986,0.566-14.091,3.229-20.575c2.618-6.502,6.824-12.363,12.094-16.981c1.042-0.886,2.298-1.311,3.465-1.196
		c1.162,0.098,2.186,0.665,2.857,1.628l2.439,3.484c1.319,1.962,1.087,4.422-0.362,5.684c-3.784,3.324-6.796,7.508-8.677,12.188
		c-1.921,4.659-2.699,9.788-2.326,14.806c0.671,10.055,6.466,19.633,14.982,25.003c4.246,2.691,9.131,4.416,14.152,4.918
		c5.018,0.547,10.139-0.139,14.849-1.895c4.688-1.792,9.024-4.674,12.437-8.368c3.424-3.687,5.97-8.178,7.369-13.026
		c0.54-1.844,2.669-3.091,5.003-2.725l4.188,0.738C92.652,117.182,93.599,117.87,94.18,118.884 M68.032,28.347
		c3.902,0,8.105-0.646,10.859-3.313c2.668-2.752,3.314-6.957,3.314-10.861c0-3.902-0.646-8.107-3.314-10.859
		C76.137,0.646,71.934,0,68.032,0c-3.903,0-8.108,0.646-10.861,3.314c-2.667,2.752-3.312,6.957-3.312,10.859
		c0,3.904,0.645,8.109,3.312,10.861C59.924,27.701,64.129,28.347,68.032,28.347 M93.574,98.808l21.545,35.844
		c0.903,1.503,2.126,2.973,3.791,3.417c1.679,0.389,3.448-0.335,4.951-1.24c1.536-0.848,3.05-2.016,3.553-3.665
		c0.45-1.663-0.21-3.457-1.059-4.993l-20.258-36.644c-0.45-0.847-0.995-1.621-1.637-2.314c-1.284-1.387-2.936-2.411-4.759-2.956
		L63.343,75.463L69.897,44.6c0.217-0.957,0.385-1.922,0.448-2.838c0.002-0.445,0.019-0.905-0.017-1.329
		c-0.034-0.421-0.116-0.825-0.177-1.236c-0.173-0.813-0.425-1.617-0.792-2.382c-0.704-1.54-1.817-2.911-3.174-3.953
		c-1.362-1.033-2.972-1.741-4.621-2.025c-0.83-0.142-1.641-0.184-2.5-0.139c-0.443,0.047-0.886,0.095-1.333,0.17l-1.386,0.365
		L24.627,41.955c-0.313,0.107-0.622,0.225-0.923,0.358c-1.205,0.531-2.305,1.29-3.234,2.222c-0.468,0.462-0.876,0.984-1.271,1.516
		L1.786,69.091c-1.057,1.4-1.965,3.083-1.755,4.793c0.264,1.702,1.597,3.073,2.997,4.131c1.399,1.059,3.082,1.967,4.792,1.756
		c1.703-0.264,3.074-1.597,4.132-2.996l17.343-22.947l13.556-4.583l-4.434,20.879l-1.513,7.126c-0.536,2.157-0.49,4.204,0.13,6.162
		c0.623,1.944,1.819,3.696,3.402,4.984c1.596,1.294,3.494,2.07,5.697,2.366l3.93,0.667l6.448,1.094L93.574,98.808z"/>
</g>
</svg>
