<?xml version="1.0" encoding="utf-8"?>
<!-- Generator: Adobe Illustrator 25.4.1, SVG Export Plug-In . SVG Version: 6.00 Build 0)  -->
<svg version="1.1" id="Layer_1" xmlns="http://www.w3.org/2000/svg" xmlns:xlink="http://www.w3.org/1999/xlink" x="0px" y="0px"
	 viewBox="0 0 200.122 212.598" enable-background="new 0 0 200.122 212.598" xml:space="preserve">
<g>
	<path fill="#25303B" d="M89.559,209.395V3.203C89.559,1.434,90.993,0,92.762,0h3.231c1.77,0,3.203,1.434,3.203,3.203v206.192
		c0,1.77-1.433,3.203-3.203,3.203h-3.231C90.993,212.598,89.559,211.165,89.559,209.395 M37.685,48.174
		c3.902,0,8.105-0.646,10.859-3.313c2.668-2.753,3.313-6.957,3.313-10.861c0-3.902-0.645-8.106-3.313-10.859
		c-2.754-2.668-6.957-3.314-10.859-3.314c-3.903,0-8.109,0.646-10.861,3.314c-2.667,2.753-3.313,6.957-3.313,10.859
		c0,3.904,0.646,8.108,3.313,10.861C29.576,47.528,33.782,48.174,37.685,48.174 M75.135,115.261l-0.704-3.436l-0.704-3.437
		c-0.113-0.553-0.265-1.112-0.465-1.648c0.012-0.311-0.001-0.627-0.067-0.946l-6.61-32.266l-0.826-4.034l-0.21-1.019
		c-0.11-0.47-0.202-0.938-0.341-1.406c-0.265-0.936-0.585-1.858-0.985-2.745c-1.558-3.563-4.205-6.661-7.491-8.774
		c-0.824-0.522-1.676-1.002-2.563-1.395l-0.66-0.295l-0.558-0.224c-0.371-0.152-0.749-0.287-1.124-0.429
		c-1.508-0.551-3.051-1.005-4.612-1.375c-3.124-0.744-6.334-1.1-9.53-1.107c-3.197,0.007-6.407,0.363-9.531,1.107
		c-1.561,0.37-3.104,0.824-4.612,1.375c-0.375,0.142-0.753,0.277-1.124,0.429L21.86,53.86l-0.66,0.295
		c-0.887,0.393-1.739,0.873-2.563,1.395c-3.286,2.113-5.933,5.211-7.491,8.774c-0.4,0.887-0.72,1.809-0.985,2.745
		c-0.139,0.468-0.231,0.936-0.341,1.406l-0.21,1.019l-0.826,4.034l-6.61,32.266c-0.066,0.319-0.079,0.635-0.067,0.946
		c-0.2,0.536-0.352,1.095-0.465,1.648l-0.704,3.437l-0.704,3.436c-0.328,1.606-0.417,3.389,0.448,4.745
		c0.908,1.33,2.584,1.951,4.19,2.28c1.605,0.328,3.39,0.417,4.748-0.449c1.328-0.907,1.948-2.581,2.277-4.186l0.704-3.437
		l0.705-3.436c0.113-0.554,0.193-1.128,0.22-1.699c0.134-0.283,0.246-0.579,0.311-0.899l6.199-30.257
		c0.167-0.817,0.886-1.403,1.72-1.403c0.97,0,1.756,0.786,1.756,1.756v0.995c0,0.119-0.012,0.237-0.036,0.353l-12.289,59.985
		c-0.223,1.089,0.609,2.108,1.721,2.108h9.136l-2.36,57.157c-0.073,1.752,0.139,3.652,1.288,4.937
		c1.188,1.249,3.067,1.617,4.821,1.689c1.755,0.074,3.657-0.138,4.945-1.289c1.25-1.189,1.618-3.071,1.691-4.828l2.381-57.666h5.747
		l2.38,57.666c0.073,1.757,0.441,3.639,1.691,4.828c1.288,1.151,3.19,1.363,4.945,1.289c1.755-0.072,3.633-0.44,4.821-1.689
		c1.149-1.285,1.361-3.185,1.289-4.937l-2.361-57.157h9.139c1.112,0,1.944-1.019,1.721-2.108L51.89,79.61
		c-0.023-0.116-0.036-0.234-0.036-0.352v-0.982c0-0.97,0.787-1.756,1.756-1.756h0.003c0.834,0,1.553,0.586,1.72,1.403l6.199,30.257
		c0.065,0.32,0.177,0.616,0.311,0.899c0.027,0.571,0.108,1.145,0.221,1.699l0.704,3.436l0.704,3.437
		c0.329,1.605,0.949,3.279,2.277,4.186c1.358,0.866,3.143,0.777,4.748,0.449c1.606-0.329,3.282-0.95,4.19-2.28
		C75.552,118.65,75.463,116.867,75.135,115.261 M158.156,47.472c3.903,0,8.106-0.645,10.86-3.312
		c2.668-2.753,3.313-6.957,3.313-10.861c0-3.903-0.645-8.107-3.313-10.86c-2.754-2.668-6.957-3.313-10.86-3.313
		s-8.108,0.645-10.861,3.313c-2.667,2.753-3.313,6.957-3.313,10.86c0,3.904,0.646,8.108,3.313,10.861
		C150.048,46.827,154.253,47.472,158.156,47.472 M199.872,117.853l-8.2-40.025l-2.05-10.007l-0.256-1.251l-0.209-0.923
		c-0.081-0.334-0.188-0.67-0.287-1.003c-0.425-1.328-1.024-2.598-1.775-3.775c-1.495-2.356-3.63-4.332-6.107-5.637
		c-0.306-0.168-0.62-0.319-0.938-0.459l-0.471-0.209l-0.334-0.134c-0.446-0.178-0.89-0.361-1.342-0.525
		c-0.899-0.339-1.806-0.658-2.723-0.947c-1.831-0.584-3.694-1.074-5.577-1.467c-3.764-0.785-7.609-1.179-11.446-1.179
		c-3.836,0-7.681,0.393-11.445,1.179c-1.883,0.392-3.745,0.883-5.576,1.467c-0.918,0.288-1.826,0.607-2.724,0.947
		c-0.452,0.164-0.895,0.347-1.342,0.525l-0.334,0.134l-0.47,0.208c-0.319,0.14-0.632,0.291-0.939,0.459
		c-2.476,1.305-4.612,3.281-6.107,5.637c-0.75,1.177-1.35,2.447-1.775,3.775c-0.099,0.333-0.206,0.669-0.287,1.003l-0.209,0.924
		l-0.257,1.25l-2.049,10.007l-8.201,40.026c-0.351,1.721-0.447,3.632,0.481,5.086c0.972,1.425,2.767,2.089,4.488,2.441
		c1.721,0.353,3.633,0.448,5.087-0.48c1.425-0.973,2.089-2.769,2.441-4.489l8.204-40.048l0.333-1.62
		c0.094-0.461,0.5-0.793,0.971-0.793h0.466c0.555,0,1.001,0.455,0.993,1.009c-0.287,18.565-0.573,37.084-0.857,55.516
		c-0.712,20.903-1.428,41.907-2.146,62.976v0.427c0.003,0.288,0.014,0.575,0.034,0.861c0.039,0.573,0.116,1.141,0.241,1.691
		c0.249,1.1,0.695,2.123,1.441,2.946c1.543,1.599,3.967,2.056,6.23,2.133c2.262,0.077,4.711-0.213,6.361-1.707
		c0.8-0.772,1.314-1.766,1.639-2.849c0.162-0.542,0.276-1.107,0.355-1.677c0.039-0.285,0.069-0.572,0.093-0.859l0.029-0.428
		c0.723-21.128,1.443-42.191,2.16-63.153c0.029-1.883,0.058-3.771,0.087-5.658c0.017-1.084,0.9-1.953,1.984-1.953h1.197
		c1.084,0,1.968,0.869,1.984,1.953c0.03,1.887,0.058,3.775,0.087,5.658c0.718,20.962,1.438,42.025,2.16,63.153l0.03,0.428
		c0.023,0.287,0.053,0.574,0.092,0.859c0.079,0.57,0.194,1.135,0.356,1.677c0.324,1.083,0.839,2.077,1.639,2.849
		c1.649,1.494,4.099,1.784,6.361,1.707c2.263-0.077,4.686-0.534,6.23-2.133c0.745-0.823,1.192-1.846,1.441-2.946
		c0.125-0.55,0.201-1.118,0.241-1.691c0.019-0.286,0.03-0.573,0.034-0.861l-0.001-0.427c-0.718-21.069-1.433-42.073-2.145-62.976
		c-0.286-18.432-0.571-36.951-0.858-55.515c-0.008-0.555,0.44-1.01,0.994-1.01h0.467c0.472,0,0.878,0.332,0.972,0.793l0.333,1.621
		l8.204,40.047c0.352,1.72,1.017,3.516,2.441,4.489c1.454,0.928,3.367,0.833,5.087,0.48c1.721-0.352,3.516-1.016,4.489-2.441
		C200.319,121.485,200.224,119.574,199.872,117.853"/>
</g>
</svg>
