<?xml version="1.0" encoding="utf-8"?>
<!-- Generator: Adobe Illustrator 25.4.1, SVG Export Plug-In . SVG Version: 6.00 Build 0)  -->
<svg version="1.1" id="Layer_1" xmlns="http://www.w3.org/2000/svg" xmlns:xlink="http://www.w3.org/1999/xlink" x="0px" y="0px"
	 viewBox="0 0 37.252 37.251" enable-background="new 0 0 37.252 37.251" xml:space="preserve">
<g>
	<path fill="#FFFFFF" d="M20.342,8.616L18.53,5.571l-1.812,3.045h1.152v14.375l-0.259-0.257c-0.855-0.813-2.288-2.174-2.537-2.438
		c-0.265-0.281-0.568-0.726-0.568-1.684v-1.487l0.06-0.037c0.48-0.296,0.768-0.806,0.768-1.362c0-0.886-0.72-1.605-1.606-1.605
		c-0.885,0-1.605,0.72-1.605,1.605c0,0.648,0.388,1.23,0.987,1.481l0.077,0.032v1.373c0,1.08,0.303,1.927,0.927,2.589
		c0.267,0.283,1.518,1.472,2.621,2.521l0.134,0.128c0.33,0.313,0.583,0.554,0.671,0.64c0.035,0.035,0.332,0.35,0.332,0.982v1.728
		l-0.084,0.029c-0.926,0.32-1.549,1.188-1.549,2.158c0,1.265,1.029,2.294,2.293,2.294s2.292-1.029,2.292-2.294
		c0-0.971-0.622-1.838-1.548-2.158l-0.084-0.029v-5.436c0-0.612,0.351-0.933,0.583-1.145c0.396-0.365,2.312-2.224,2.754-2.667
		c0.456-0.455,1.522-1.52,1.522-2.981v-1.235h0.962v-3.244h-3.244v3.244h0.962v1.235c0,0.915-0.77,1.683-1.14,2.052
		c-0.36,0.36-1.492,1.459-2.188,2.128l-0.211,0.204V8.616H20.342z"/>
</g>
</svg>
