<?xml version="1.0" encoding="utf-8"?>
<!-- Generator: Adobe Illustrator 25.4.1, SVG Export Plug-In . SVG Version: 6.00 Build 0)  -->
<svg version="1.1" id="Layer_1" xmlns="http://www.w3.org/2000/svg" xmlns:xlink="http://www.w3.org/1999/xlink" x="0px" y="0px"
	 viewBox="0 0 37.252 37.251" enable-background="new 0 0 37.252 37.251" xml:space="preserve">
<g>
	<g>
		<g>
			<path fill="#25303B" d="M31.865,18.589l-3.413-2.031v1.247H14.503c0.006-0.006,0.01-0.011,0.016-0.017
				c0.822-0.865,2.198-2.314,2.464-2.564c0.264-0.248,0.684-0.534,1.598-0.534h1.417c0.305,0.494,0.846,0.827,1.469,0.827
				c0.956,0,1.73-0.775,1.73-1.731c0-0.956-0.775-1.73-1.73-1.73c-0.719,0-1.336,0.439-1.597,1.064h-1.29
				c-1.114,0-1.989,0.315-2.675,0.961c-0.274,0.259-1.351,1.39-2.526,2.625c-0.375,0.395-0.669,0.704-0.767,0.805
				c-0.012,0.012-0.293,0.294-0.893,0.294h-1.639c-0.327-0.948-1.217-1.633-2.276-1.633c-1.335,0-2.418,1.083-2.418,2.418
				c0,1.335,1.083,2.418,2.418,2.418c1.059,0,1.949-0.685,2.276-1.633h5.347c0.558,0,0.846,0.317,1.053,0.544
				c0.352,0.381,2.212,2.299,2.671,2.757c0.466,0.466,1.558,1.559,3.069,1.559h1.111v0.962h3.494v-3.494h-3.494v0.962h-1.111
				c-0.86,0-1.603-0.742-1.963-1.103c-0.35-0.35-1.442-1.474-2.126-2.187h10.319v1.246L31.865,18.589z"/>
		</g>
	</g>
</g>
</svg>
