<?xml version="1.0" encoding="utf-8"?>
<!-- Generator: Adobe Illustrator 25.4.1, SVG Export Plug-In . SVG Version: 6.00 Build 0)  -->
<svg version="1.1" id="Layer_1" xmlns="http://www.w3.org/2000/svg" xmlns:xlink="http://www.w3.org/1999/xlink" x="0px" y="0px"
	 viewBox="0 0 37.252 37.251" enable-background="new 0 0 37.252 37.251" xml:space="preserve">
<g>
	<path fill="#FFFFFF" d="M28.576,20.401l3.045-1.812l-3.045-1.812v1.152H14.201l0.257-0.259c0.813-0.855,2.174-2.288,2.438-2.537
		c0.281-0.265,0.726-0.568,1.684-0.568h1.487l0.037,0.06c0.296,0.48,0.806,0.768,1.362,0.768c0.886,0,1.605-0.72,1.605-1.606
		c0-0.885-0.72-1.605-1.605-1.605c-0.648,0-1.23,0.388-1.481,0.987l-0.032,0.077H18.58c-1.08,0-1.927,0.303-2.589,0.927
		c-0.283,0.267-1.472,1.518-2.521,2.621l-0.128,0.134c-0.313,0.33-0.554,0.583-0.64,0.671c-0.035,0.035-0.35,0.332-0.982,0.332
		H9.993l-0.029-0.084c-0.32-0.926-1.188-1.549-2.158-1.549c-1.265,0-2.294,1.029-2.294,2.293s1.029,2.292,2.294,2.292
		c0.971,0,1.838-0.622,2.158-1.548l0.029-0.084h5.436c0.612,0,0.933,0.351,1.145,0.583c0.365,0.396,2.224,2.312,2.667,2.754
		c0.455,0.456,1.52,1.522,2.981,1.522h1.235v0.962h3.244v-3.244h-3.244v0.962h-1.235c-0.915,0-1.683-0.77-2.052-1.14
		c-0.36-0.36-1.459-1.492-2.128-2.188l-0.204-0.211h10.738V20.401z"/>
</g>
</svg>
