<?xml version="1.0" encoding="utf-8"?>
<!-- Generator: Adobe Illustrator 25.4.1, SVG Export Plug-In . SVG Version: 6.00 Build 0)  -->
<svg version="1.1" id="Layer_1" xmlns="http://www.w3.org/2000/svg" xmlns:xlink="http://www.w3.org/1999/xlink" x="0px" y="0px"
	 viewBox="0 0 37.252 37.251" enable-background="new 0 0 37.252 37.251" xml:space="preserve">
<g>
	<g>
		<g>
			<path fill="#25303B" d="M18.589,5.387L16.558,8.8h1.247v13.948c-0.006-0.006-0.011-0.01-0.017-0.016
				c-0.865-0.822-2.314-2.198-2.564-2.464c-0.248-0.264-0.534-0.684-0.534-1.598v-1.417c0.494-0.305,0.827-0.846,0.827-1.469
				c0-0.956-0.775-1.73-1.731-1.73c-0.956,0-1.73,0.775-1.73,1.73c0,0.719,0.439,1.336,1.064,1.597v1.29
				c0,1.114,0.315,1.989,0.961,2.675c0.259,0.274,1.39,1.351,2.625,2.526c0.395,0.375,0.704,0.669,0.805,0.767
				c0.012,0.012,0.294,0.293,0.294,0.893v1.639c-0.948,0.327-1.633,1.217-1.633,2.276c0,1.335,1.083,2.418,2.418,2.418
				c1.335,0,2.418-1.083,2.418-2.418c0-1.059-0.685-1.949-1.633-2.276v-5.347c0-0.558,0.317-0.846,0.544-1.053
				c0.381-0.352,2.299-2.212,2.757-2.671c0.466-0.466,1.559-1.558,1.559-3.069v-1.111h0.962v-3.494h-3.494v3.494h0.962v1.111
				c0,0.86-0.742,1.603-1.103,1.963c-0.35,0.35-1.474,1.442-2.187,2.126V8.8h1.246L18.589,5.387z"/>
		</g>
	</g>
</g>
</svg>
