<?xml version="1.0" encoding="utf-8"?>
<!-- Generator: Adobe Illustrator 25.4.1, SVG Export Plug-In . SVG Version: 6.00 Build 0)  -->
<svg version="1.1" id="Layer_1" xmlns="http://www.w3.org/2000/svg" xmlns:xlink="http://www.w3.org/1999/xlink" x="0px" y="0px"
	 viewBox="0 0 283.5 283.5" style="enable-background:new 0 0 283.5 283.5;" xml:space="preserve">
<style type="text/css">
	.st0{fill:#25303B;}
	.st1{fill:#EB2132;}
</style>
<g>
	<path class="st0" d="M204.1,121.2c-4.2,0-8.2,0.7-11.9,2l-18.1-33.9c4.6-4.3,8.3-9.5,10.9-15.3c0.8-2,0-4.2-1.9-4.8l-3.3-1.1
		c-1.8-0.6-3.8,0.2-4.4,1.7c-2.8,6.4-7.5,11.9-13.3,15.8c-5.8,3.9-12.8,5.9-19.7,6c-1.7-0.1-3.1,1.5-3.3,3.4l-0.3,3.5
		c-0.2,1.9,1.5,3.5,3.7,3.6c7.6-0.1,15.3-2,22-5.7l4.1,7.7l-25.3,40.4l-15.5-43.5c-1.1-3.2-4.1-5.3-7.5-5.3h-8.7l0,0h-8.4
		c-2.2,0-4,1.8-4,4v4c0,2.2,1.8,4,4,4h6.6l-13.3,17.8c-5.1-2.7-10.9-4.2-17-4.2c-20.3,0-36.8,16.5-36.8,36.9
		c0,20.3,16.5,36.9,36.8,36.9c18.3,0,33.5-13.4,36.4-30.9h26l0,0c0,0,0,0,0,0c0.2,0,0.4,0,0.7,0c0.1,0,0.1,0,0.1,0c0,0,0,0,0.1,0
		c0.1,0,0.1,0,0.2,0c0.1,0,0.2,0,0.3-0.1c0.1,0,0.1,0,0.2,0c0.1,0,0.3-0.1,0.4-0.1c0,0,0,0,0.1,0c0,0,0.1,0,0.1,0c0,0,0.1,0,0.1,0
		c0.1,0,0.2-0.1,0.3-0.1c0.1,0,0.1-0.1,0.2-0.1c0.1,0,0.2-0.1,0.3-0.2c0.1,0,0.2-0.1,0.2-0.1c0.1,0,0.1-0.1,0.2-0.1
		c0,0,0.1,0,0.1-0.1c0.1,0,0.1-0.1,0.2-0.1c0.1-0.1,0.1-0.1,0.2-0.2c0.1,0,0.1-0.1,0.2-0.1c0,0,0,0,0.1-0.1l0,0
		c0.1-0.1,0.1-0.1,0.2-0.2c0.1-0.1,0.1-0.2,0.2-0.2c0,0,0,0,0,0c0,0,0,0,0,0c0,0,0.1-0.1,0.1-0.1c0.1-0.1,0.1-0.2,0.2-0.2
		c0.1-0.1,0.1-0.1,0.1-0.2c0,0,0,0,0-0.1l28.2-45l6.7,12.6c-8.8,6.7-14.5,17.3-14.5,29.2c0,20.3,16.5,36.9,36.9,36.9
		s36.8-16.5,36.8-36.9C240.9,137.7,224.4,121.2,204.1,121.2 M133.3,152.1h-17.6c-1.2-7.5-4.7-14.3-9.8-19.6l13.8-18.5L133.3,152.1z
		 M100,140.4c2.8,3.3,4.9,7.3,5.9,11.7H91.3L100,140.4z M79.4,185.2c-15,0-27.2-12.2-27.2-27.2c0-15,12.2-27.2,27.2-27.2
		c4,0,7.7,0.9,11.2,2.4l-15.9,21.2c0,0,0,0.1-0.1,0.1c-0.1,0.1-0.1,0.2-0.2,0.3c0,0.1-0.1,0.1-0.1,0.2c-0.1,0.1-0.1,0.2-0.2,0.3
		c0,0.1-0.1,0.2-0.1,0.2c0,0.1-0.1,0.2-0.1,0.3c0,0.1-0.1,0.2-0.1,0.3c0,0.1-0.1,0.2-0.1,0.3c0,0.1-0.1,0.2-0.1,0.3
		c0,0.1,0,0.2-0.1,0.3c0,0.1,0,0.2,0,0.3c0,0.1,0,0.2,0,0.2c0,0.1,0,0.2,0,0.3c0,0,0,0.1,0,0.1c0,0,0,0.1,0,0.1c0,0.1,0,0.2,0,0.3
		c0,0.1,0,0.2,0,0.3c0,0.1,0,0.2,0,0.3c0,0.1,0,0.2,0.1,0.3c0,0.1,0,0.2,0.1,0.2c0,0.1,0.1,0.2,0.1,0.3c0,0.1,0.1,0.2,0.1,0.2
		c0,0.1,0.1,0.2,0.1,0.3c0,0.1,0.1,0.2,0.1,0.3c0,0.1,0.1,0.2,0.1,0.3c0,0.1,0.1,0.2,0.2,0.3c0,0.1,0.1,0.1,0.1,0.2
		c0.1,0.1,0.1,0.2,0.2,0.3c0.1,0.1,0.1,0.1,0.2,0.2c0.1,0.1,0.1,0.2,0.2,0.2c0.1,0.1,0.1,0.1,0.2,0.2c0.1,0.1,0.1,0.1,0.2,0.2
		c0.1,0.1,0.2,0.1,0.2,0.2c0,0,0.1,0.1,0.1,0.1c0,0,0,0,0.1,0c0.2,0.2,0.5,0.3,0.7,0.5c0,0,0.1,0,0.1,0c0.2,0.1,0.5,0.2,0.7,0.3
		c0,0,0.1,0,0.1,0c0.3,0.1,0.5,0.1,0.8,0.2c0.1,0,0.1,0,0.2,0c0.3,0,0.5,0.1,0.8,0.1l0,0h0h0h26.5
		C103.2,176.1,92.3,185.2,79.4,185.2 M204.1,185.2c-15,0-27.2-12.2-27.2-27.2c0-8.2,3.7-15.6,9.4-20.6l13.5,25.1
		c1,1.9,3.4,2.7,5.4,1.6l3.5-1.9c1.9-1,2.7-3.4,1.6-5.4l-13.5-25.2c2.3-0.6,4.8-1,7.3-1c15,0,27.2,12.2,27.2,27.2
		C231.3,173,219.1,185.2,204.1,185.2"/>
	<path class="st1" d="M141.7,0C63.5,0,0,63.5,0,141.7C0,220,63.5,283.5,141.7,283.5c78.3,0,141.7-63.5,141.7-141.7
		C283.5,63.5,220,0,141.7,0 M28.4,143.6c-0.4-27.1,8.7-52.1,24.2-71.9c0.7-0.9,2.1-1,3-0.2L211.9,228c0.8,0.8,0.8,2.2-0.2,3
		c-19.7,15.5-44.7,24.6-71.9,24.2C79,254.1,29.3,204.5,28.4,143.6 M227.9,211.9L71.5,55.5c-0.8-0.8-0.8-2.2,0.2-3
		c19.7-15.5,44.7-24.6,71.9-24.2c60.9,1,110.6,50.6,111.5,111.5c0.4,27.1-8.7,52.1-24.2,71.9C230.2,212.7,228.8,212.8,227.9,211.9"
		/>
</g>
</svg>
