<?xml version="1.0" encoding="utf-8"?>
<!-- Generator: Adobe Illustrator 25.4.1, SVG Export Plug-In . SVG Version: 6.00 Build 0)  -->
<svg version="1.1" id="Layer_1" xmlns="http://www.w3.org/2000/svg" xmlns:xlink="http://www.w3.org/1999/xlink" x="0px" y="0px"
	 viewBox="0 0 33.747 31.136" enable-background="new 0 0 33.747 31.136" xml:space="preserve">
<g>
	<path fill="#25303B" d="M31.971,7.241l-8.472,8.894c-0.607,0.737-1.608,1.095-2.591,0.832l-5.115-1.371l-0.159,0.592
		c-0.175,0.656-0.85,1.046-1.506,0.87l-1.287-0.345v8.753c0,0.705-0.571,1.276-1.275,1.276H3.288v3.543
		c0,0.47-0.381,0.851-0.85,0.851H0.85c-0.469,0-0.85-0.381-0.85-0.851v-9.638c0-0.469,0.381-0.85,0.851-0.85h1.587
		c0.47,0,0.851,0.381,0.851,0.85v3.544h7.001v-8.162l-1.487-0.398c-0.656-0.176-1.046-0.851-0.87-1.507l0.159-0.591L5.65,12.879
		l-1.758-0.472c-1.011-0.271-1.712-1.122-1.842-2.099C1.837,8.713,1.93,7.049,2.372,5.397c0.443-1.652,1.195-3.138,2.177-4.414
		C5.15,0.202,6.182-0.185,7.194,0.086l1.758,0.471L24.21,4.645l7.605,2.038C32.061,6.749,32.148,7.056,31.971,7.241 M33.453,11.084
		l-2.451-0.657l-4.977,5.27l5.777,1.548c0.212,0.056,0.43-0.069,0.486-0.281l1.446-5.394C33.79,11.358,33.665,11.141,33.453,11.084"
		/>
</g>
</svg>
