<?xml version="1.0" encoding="utf-8"?>
<!-- Generator: Adobe Illustrator 25.4.1, SVG Export Plug-In . SVG Version: 6.00 Build 0)  -->
<svg version="1.1" id="Layer_1" xmlns="http://www.w3.org/2000/svg" xmlns:xlink="http://www.w3.org/1999/xlink" x="0px" y="0px"
	 viewBox="0 0 283.465 283.464" enable-background="new 0 0 283.465 283.464" xml:space="preserve">
<g>
	<path fill="#996017" d="M219.685,283.464H63.78c-35.225,0-63.781-28.555-63.781-63.779V63.779C-0.001,28.555,28.555,0,63.78,0
		h155.905c35.225,0,63.779,28.555,63.779,63.779v155.906C283.464,254.909,254.91,283.464,219.685,283.464"/>
	<path fill="#FFFFFF" d="M238.48,62.304h-13.989c-1.869,0-3.423,1.441-3.562,3.305l-7.97,106.507l-45.598-30.85
		c-2.289-1.549-5.395-0.023-5.567,2.736l-1.94,31.175l-52.896-34.116c-2.291-1.478-5.328,0.055-5.5,2.776l-1.989,31.34
		l-52.488-33.861c-2.377-1.533-5.508,0.173-5.508,3.001v92.534h200.578V65.875C242.051,63.903,240.453,62.304,238.48,62.304"/>
</g>
</svg>
