<?xml version="1.0" encoding="utf-8"?>
<!-- Generator: Adobe Illustrator 25.4.1, SVG Export Plug-In . SVG Version: 6.00 Build 0)  -->
<svg version="1.1" id="Layer_1" xmlns="http://www.w3.org/2000/svg" xmlns:xlink="http://www.w3.org/1999/xlink" x="0px" y="0px"
	 viewBox="0 0 311.811 311.809" enable-background="new 0 0 311.811 311.809" xml:space="preserve">
<g>
	<path fill="#FFFFFF" d="M28.347,311.809C12.717,311.809,0,299.094,0,283.461V28.345C0,12.715,12.717,0,28.347,0h255.116
		c15.63,0,28.348,12.715,28.348,28.345v255.116c0,15.633-12.718,28.348-28.348,28.348H28.347z"/>
	<path fill="#25303B" d="M118.339,213.521c-27.69,0-54.137-18.253-54.137-55.993c0-32.635,19.025-58.771,54.137-58.771
		c13.45,0,23.349,2.787,31.241,6.339l-7.892,19.957c-7.111-4.021-15.155-5.877-22.115-5.877c-16.708,0-30.318,10.982-30.318,37.269
		c0,25.062,16.397,36.657,32.173,36.657c8.665,0,16.398-2.628,21.805-5.877l6.498,18.723
		C141.377,210.431,129.472,213.521,118.339,213.521 M208.316,210.893v-85.84c-6.649,5.256-17.17,10.361-24.441,13.61l-7.422-16.708
		c11.444-4.794,25.214-12.056,36.035-20.259h19.026v109.197H208.316z"/>
	<path fill="#5091CB" d="M283.465,56.458H28.346c-7.827,0-14.172-6.346-14.172-14.173V28.111c0-7.827,6.345-14.173,14.172-14.173
		h255.119c7.827,0,14.173,6.346,14.173,14.173v14.174C297.638,50.112,291.292,56.458,283.465,56.458 M297.638,283.229v-14.173
		c0-7.828-6.346-14.173-14.173-14.173H28.346c-7.827,0-14.172,6.345-14.172,14.173v14.173c0,7.828,6.345,14.174,14.172,14.174
		h255.119C291.292,297.403,297.638,291.057,297.638,283.229"/>
</g>
</svg>
