<?xml version="1.0" encoding="utf-8"?>
<!-- Generator: Adobe Illustrator 25.4.1, SVG Export Plug-In . SVG Version: 6.00 Build 0)  -->
<svg version="1.1" id="Layer_1" xmlns="http://www.w3.org/2000/svg" xmlns:xlink="http://www.w3.org/1999/xlink" x="0px" y="0px"
	 viewBox="0 0 283.465 283.465" enable-background="new 0 0 283.465 283.465" xml:space="preserve">
<g>
	<path fill="#006FB6" d="M0,141.733C0,63.461,63.46,0.001,141.732,0.001c78.283,0,141.733,63.46,141.733,141.732
		s-63.45,141.732-141.733,141.732C63.46,283.465,0,220.005,0,141.733"/>
	<path fill="#FFFFFF" d="M193.949,216.813v-25.114h-61.91c1.91-8.732,17.023-21.904,24.664-28.935
		c18.093-16.382,34.485-28.514,34.485-54.258c0-30.635-24.904-45.957-51.288-45.957c-20.213,0-33.615,5.961-48.087,18.513
		l15.742,20.843c3.621-4.041,12.772-13.613,25.975-13.613c16.382,0,24.873,10.853,24.873,23.824
		c0,14.473-10.841,25.334-20.833,34.056c-20.013,17.443-37.246,33.395-41.077,50.848v19.793H193.949z"/>
</g>
</svg>
