<?xml version="1.0" encoding="utf-8"?>
<!-- Generator: Adobe Illustrator 25.4.1, SVG Export Plug-In . SVG Version: 6.00 Build 0)  -->
<svg version="1.1" id="Layer_1" xmlns="http://www.w3.org/2000/svg" xmlns:xlink="http://www.w3.org/1999/xlink" x="0px" y="0px"
	 viewBox="0 0 283.465 283.464" enable-background="new 0 0 283.465 283.464" xml:space="preserve">
<g>
	<defs>
		<rect id="SVGID_1_" x="0" y="0" width="283.465" height="283.464"/>
	</defs>
	<clipPath id="SVGID_00000118399381174438426520000001492819755367771555_">
		<use xlink:href="#SVGID_1_"  overflow="visible"/>
	</clipPath>
	<path clip-path="url(#SVGID_00000118399381174438426520000001492819755367771555_)" fill="#8AD3DE" d="M0,141.732
		C0,63.46,63.45,0,141.731,0c78.284,0,141.734,63.46,141.734,141.732c0,78.282-63.45,141.732-141.734,141.732
		C63.45,283.464,0,220.014,0,141.732"/>
	
		<path clip-path="url(#SVGID_00000118399381174438426520000001492819755367771555_)" fill-rule="evenodd" clip-rule="evenodd" fill="#25303B" d="
		M200.807,143.266c0-10.492-4.72-22.624-16.122-22.624c-5.53,0-8.87,2.84-11.792,7.071V105.26h-11.491v60.229h11.071v-1.96
		c2.201,2.03,6.031,3.34,9.282,3.34C195.667,166.869,200.807,153.037,200.807,143.266 M188.916,144.976
		c0,5.941-1.791,13.832-9.112,13.832c-5.21,0-7.001-2.682-7.001-5.691v-14.732c0-2.521,0.25-3.751,2.201-5.611
		c1.21-1.231,3.01-2.2,5.29-2.2C187.536,130.574,188.916,139.115,188.916,144.976 M222.208,110.468c0-3.5-2.44-6.021-6.361-6.021
		c-3.899,0-6.421,2.521-6.421,6.021c0,3.501,2.522,6.032,6.421,6.032C219.768,116.5,222.208,113.969,222.208,110.468
		 M221.468,122.03h-11.392v43.447h11.392V122.03z M262.16,152.462c0,8.461-6.832,14.403-18.225,14.403
		c-5.449,0-10.351-1.87-12.792-3.33l3.501-8.391c2.77,1.95,6.771,3.26,10.183,3.26c3.009,0,6.661-1.06,6.661-4.482
		c0-3.25-4.052-4.389-6.421-5.291l-3.572-1.38c-5.621-2.189-9.371-5.53-9.371-11.881c0-8.221,6.921-14.732,17.092-14.732
		c5.451,0,9.443,1.71,11.722,2.85l-3.51,8.382c-2.511-1.631-6.02-2.6-8.781-2.6c-4.632,0-6.022,2.35-6.022,4.31
		c0,2.6,3.011,3.911,5.131,4.641l3.822,1.38C257.758,141.881,262.16,145.222,262.16,152.462 M145.39,170.938
		c0,26.384-23.604,48.276-58.489,48.276c-21.484,0-33.396-5.319-43.397-11.26l11.712-23.195c6.382,4.472,16.802,9.793,29.554,9.793
		c17.463,0,28.306-10.213,28.306-22.974c0-17.233-13.193-23.183-28.506-23.183H69.028v-24.874H84.77
		c14.682,0,23.824-7.672,23.824-19.154c0-9.571-7.221-18.292-22.954-18.292c-13.832,0-22.993,6.601-27.874,10.851L46.905,74.803
		C59.686,66.292,73.498,61.4,92.442,61.4c30.624,0,48.067,18.293,48.067,38.287c0,15.522-8.301,27.874-24.254,33.815v0.42
		C132.848,137.112,145.39,149.884,145.39,170.938"/>
</g>
</svg>
