<?xml version="1.0" encoding="utf-8"?>
<!-- Generator: Adobe Illustrator 25.4.1, SVG Export Plug-In . SVG Version: 6.00 Build 0)  -->
<svg version="1.1" id="Layer_1" xmlns="http://www.w3.org/2000/svg" xmlns:xlink="http://www.w3.org/1999/xlink" x="0px" y="0px"
	 viewBox="0 0 283.465 283.465" enable-background="new 0 0 283.465 283.465" xml:space="preserve">
<g>
	<path fill="#B6134C" d="M0,141.733C0,63.45,63.46,0,141.732,0c78.283,0,141.733,63.45,141.733,141.733
		c0,78.282-63.45,141.732-141.733,141.732C63.46,283.465,0,220.015,0,141.733"/>
	<path fill="#FFFFFF" d="M80.945,216.669V98.647c-9.145,7.231-23.607,14.249-33.603,18.715l-10.21-22.967
		C52.872,87.803,71.8,77.806,86.68,66.536h26.164v150.133H80.945z M178.738,220.282c-17.445,0-30.843-3.826-42.322-10.844
		l12.118-23.393c8.293,5.744,16.807,9.57,28.499,9.57c11.693,0,26.368-7.018,26.368-24.667c0-10.844-7.226-25.732-34.873-26.154
		c-8.505,0-18.502-0.213-23.394-0.213l5.958-78.045h78.89v25.093h-54.015l-2.121,28.498c0.852,0,2.761,0.209,4.252,0.209
		c41.044,1.917,57.629,25.093,57.629,47.633C235.727,196.68,212.972,220.282,178.738,220.282"/>
</g>
</svg>
