<?xml version="1.0" encoding="utf-8"?>
<!-- Generator: Adobe Illustrator 25.4.1, SVG Export Plug-In . SVG Version: 6.00 Build 0)  -->
<svg version="1.1" id="Layer_1" xmlns="http://www.w3.org/2000/svg" xmlns:xlink="http://www.w3.org/1999/xlink" x="0px" y="0px"
	 viewBox="0 0 283.465 283.465" enable-background="new 0 0 283.465 283.465" xml:space="preserve">
<g>
	<path fill-rule="evenodd" clip-rule="evenodd" fill="#00B297" d="M283.464,141.735c0,78.276-63.453,141.73-141.729,141.73
		C63.454,283.465,0,220.011,0,141.735C0,63.46,63.454,0.001,141.735,0.001C220.011,0.001,283.464,63.46,283.464,141.735"/>
	<path fill="#FFFFFF" d="M82.706,216.672V98.65c-9.144,7.231-23.597,14.249-33.593,18.715l-10.21-22.967
		C54.644,87.806,73.562,77.81,88.45,66.539h26.155v150.133H82.706z M187.945,220.711c-33.39,0-52.309-19.988-52.309-42.742
		c0-19.988,11.266-32.537,25.728-39.976c-12.97-8.084-21.049-18.289-21.049-33.811c0-24.881,22.541-42.108,48.268-42.108
		c26.367,0,48.269,12.97,48.269,38.703c0,14.035-7.227,25.945-21.262,34.45c13.822,6.592,25.941,19.349,25.941,39.129
		C241.531,202.85,218.777,220.711,187.945,220.711 M185.397,148.411c-9.784,3.826-19.568,14.461-19.568,26.158
		c0,12.331,8.079,24.028,22.541,24.028c14.249,0,22.115-9.997,22.115-21.902C210.485,163.086,198.154,154.789,185.397,148.411
		 M189.01,83.767c-11.701,0-19.141,7.227-19.141,17.649c0,12.331,12.331,19.988,21.902,24.028
		c7.865-3.614,16.38-13.397,16.38-22.754C208.151,92.272,201.341,83.767,189.01,83.767"/>
</g>
</svg>
