<?xml version="1.0" encoding="utf-8"?>
<!-- Generator: Adobe Illustrator 25.4.1, SVG Export Plug-In . SVG Version: 6.00 Build 0)  -->
<svg version="1.1" id="Layer_1" xmlns="http://www.w3.org/2000/svg" xmlns:xlink="http://www.w3.org/1999/xlink" x="0px" y="0px"
	 viewBox="0 0 283.465 283.465" enable-background="new 0 0 283.465 283.465" xml:space="preserve">
<g>
	<path fill="#008B5B" d="M0,141.733C0,63.451,63.45,0.001,141.732,0.001c78.283,0,141.733,63.45,141.733,141.732
		s-63.45,141.732-141.733,141.732C63.45,283.465,0,220.015,0,141.733"/>
	<path fill="#FFFFFF" d="M80,216.893V98.794c-9.141,7.242-23.614,13.843-33.616,18.733L36.163,94.544
		c15.753-6.591,34.696-16.593,49.578-27.864h26.174v150.213H80z M234.609,216.893v-25.114H172.7
		c1.91-8.721,17.022-21.903,24.674-28.934c18.083-16.373,34.475-28.505,34.475-54.259c0-30.635-24.904-45.957-51.289-45.957
		c-20.213,0-33.615,5.961-48.087,18.523l15.742,20.833c3.622-4.041,12.773-13.602,25.975-13.602
		c16.382,0,24.874,10.842,24.874,23.823c0,14.473-10.832,25.325-20.834,34.046c-20.013,17.453-37.246,33.395-41.076,50.848v19.793
		H234.609z"/>
</g>
</svg>
