<?xml version="1.0" encoding="utf-8"?>
<!-- Generator: Adobe Illustrator 25.4.1, SVG Export Plug-In . SVG Version: 6.00 Build 0)  -->
<svg version="1.1" id="Layer_1" xmlns="http://www.w3.org/2000/svg" xmlns:xlink="http://www.w3.org/1999/xlink" x="0px" y="0px"
	 viewBox="0 0 283.465 283.465" enable-background="new 0 0 283.465 283.465" xml:space="preserve">
<g>
	<path fill="#8D653D" d="M0,141.733C0,63.451,63.45,0.001,141.732,0.001c78.283,0,141.733,63.45,141.733,141.732
		s-63.45,141.732-141.733,141.732C63.45,283.465,0,220.015,0,141.733"/>
	<path fill="#FFFFFF" d="M89.926,216.642V98.554c-9.151,7.231-23.613,13.832-33.604,18.722L46.1,94.303
		C61.852,87.702,80.775,77.7,95.667,66.428h26.185v150.214H89.926z M215.389,216.642V66.428h-26.174
		c-14.892,11.272-33.825,21.274-49.578,27.875l10.222,22.973c9.992-4.89,24.464-11.491,33.615-18.722v118.088H215.389z"/>
</g>
</svg>
