<?xml version="1.0" encoding="utf-8"?>
<!-- Generator: Adobe Illustrator 25.4.1, SVG Export Plug-In . SVG Version: 6.00 Build 0)  -->
<svg version="1.1" id="Layer_1" xmlns="http://www.w3.org/2000/svg" xmlns:xlink="http://www.w3.org/1999/xlink" x="0px" y="0px"
	 viewBox="0 0 283.465 283.465" enable-background="new 0 0 283.465 283.465" xml:space="preserve">
<g>
	<path fill="#65318F" d="M0,141.732C0,63.45,63.46,0,141.732,0c78.283,0,141.733,63.45,141.733,141.732
		c0,78.283-63.45,141.733-141.733,141.733C63.46,283.465,0,220.015,0,141.732"/>
	<path fill="#FFFFFF" d="M78.261,216.838V98.73c-9.151,7.231-23.614,13.832-33.615,18.733L34.424,94.479
		c15.752-6.591,34.686-16.592,49.577-27.874h26.185v150.233H78.261z M224.44,185.558v31.275h-29.794v-31.275h-67.661v-27.874
		l58.3-91.074h39.155v95.535h17.663v23.413H224.44z M194.646,92.994h-0.421c-0.63,2.54-4.891,11.702-10.851,21.073l-30.635,48.078
		h41.907V92.994z"/>
</g>
</svg>
