<?xml version="1.0" encoding="utf-8"?>
<!-- Generator: Adobe Illustrator 25.4.1, SVG Export Plug-In . SVG Version: 6.00 Build 0)  -->
<svg version="1.1" id="Layer_1" xmlns="http://www.w3.org/2000/svg" xmlns:xlink="http://www.w3.org/1999/xlink" x="0px" y="0px"
	 viewBox="0 0 283.465 283.465" enable-background="new 0 0 283.465 283.465" xml:space="preserve">
<g>
	<path fill="#9B9842" d="M0,141.732C0,63.46,63.45,0.001,141.732,0.001c78.283,0,141.732,63.46,141.732,141.732
		s-63.449,141.732-141.732,141.732C63.45,283.464,0,220.005,0,141.732"/>
	<path fill="#FFFFFF" d="M194.348,171.573c0-21.063-12.552-33.835-29.155-37.026v-0.42c15.953-5.951,24.264-18.293,24.264-33.825
		c0-20.013-17.463-38.306-48.088-38.306c-18.942,0-32.775,4.89-45.547,13.402l10.862,22.133c4.891-4.26,14.042-10.852,27.874-10.852
		c15.753,0,22.974,8.722,22.974,18.293c0,11.502-9.131,19.163-23.824,19.163h-15.752v24.884h15.542
		c15.323,0,28.505,5.961,28.505,23.194c0,12.772-10.852,22.984-28.295,22.984c-12.772,0-23.193-5.321-29.585-9.782l-11.701,23.194
		c10.011,5.951,21.923,11.262,43.417,11.262C170.724,219.871,194.348,197.967,194.348,171.573"/>
</g>
</svg>
