<?xml version="1.0" encoding="utf-8"?>
<!-- Generator: Adobe Illustrator 25.4.1, SVG Export Plug-In . SVG Version: 6.00 Build 0)  -->
<svg version="1.1" id="Layer_1" xmlns="http://www.w3.org/2000/svg" xmlns:xlink="http://www.w3.org/1999/xlink" x="0px" y="0px"
	 viewBox="0 0 283.465 283.465" enable-background="new 0 0 283.465 283.465" xml:space="preserve">
<g>
	<path fill="#EB2132" d="M219.685,283.465H63.779C28.555,283.465,0,254.91,0,219.686V63.779C0,28.556,28.555,0,63.779,0h155.906
		c35.224,0,63.779,28.556,63.779,63.779v155.907C283.464,254.91,254.909,283.465,219.685,283.465"/>
	<path fill="#FFFFFF" d="M177.461,216.671l-9.358-28.494h-55.504l-9.357,28.494H70.492l53.161-150.347h35.946l53.374,150.347
		H177.461z M147.258,123.955c-3.187-9.57-5.735-21.901-6.374-27.433h-0.426c-0.639,5.532-3.614,17.863-6.809,27.433l-12.758,39.342
		h39.125L147.258,123.955z"/>
</g>
</svg>
