<?xml version="1.0" encoding="utf-8"?>
<!-- Generator: Adobe Illustrator 25.4.1, SVG Export Plug-In . SVG Version: 6.00 Build 0)  -->
<svg version="1.1" id="Layer_1" xmlns="http://www.w3.org/2000/svg" xmlns:xlink="http://www.w3.org/1999/xlink" x="0px" y="0px"
	 viewBox="0 0 283.465 283.465" enable-background="new 0 0 283.465 283.465" xml:space="preserve">
<g>
	<path fill="#008B5B" d="M219.685,283.465H63.78C28.555,283.465,0,254.91,0,219.686V63.78C0,28.556,28.555,0.001,63.78,0.001
		h155.905c35.225,0,63.78,28.555,63.78,63.779v155.906C283.465,254.91,254.91,283.465,219.685,283.465"/>
	<path fill="#FFFFFF" d="M125.733,216.671H83.422V66.538h43.803c43.803,0,91.015,9.783,91.015,71.666
		C218.24,203.914,171.667,216.671,125.733,216.671 M131.903,92.696h-15.314v98.029h16.379c28.915,0,51.03-11.057,51.03-50.394
		C183.998,98.222,152.313,92.696,131.903,92.696"/>
</g>
</svg>
