<?xml version="1.0" encoding="utf-8"?>
<!-- Generator: Adobe Illustrator 25.4.1, SVG Export Plug-In . SVG Version: 6.00 Build 0)  -->
<svg version="1.1" id="Layer_1" xmlns="http://www.w3.org/2000/svg" xmlns:xlink="http://www.w3.org/1999/xlink" x="0px" y="0px"
	 viewBox="0 0 283.465 283.465" enable-background="new 0 0 283.465 283.465" xml:space="preserve">
<g>
	<path fill="#5091CB" d="M219.685,283.465H63.779C28.555,283.465,0,254.91,0,219.686V63.78C0,28.556,28.555,0.001,63.779,0.001
		h155.906c35.225,0,63.779,28.555,63.779,63.779v155.906C283.464,254.91,254.91,283.465,219.685,283.465"/>
	<path fill="#FFFFFF" d="M138.221,216.67H83.569V66.538h56.996c28.063,0,54.439,7.657,54.439,38.063
		c0,15.527-12.34,27.22-24.032,29.346v0.426c15.731,2.127,28.924,14.461,28.924,35.729
		C199.896,207.953,166.719,216.67,138.221,216.67 M133.116,91.63h-16.37v34.451h16.797c17.436,0,28.923-2.765,28.923-17.014
		C162.466,95.249,152.257,91.63,133.116,91.63 M134.608,149.896h-17.862v41.895h19.567c21.049,0,29.341-6.592,29.341-22.541
		C165.654,152.662,149.709,149.896,134.608,149.896"/>
</g>
</svg>
