<?xml version="1.0" encoding="utf-8"?>
<!-- Generator: Adobe Illustrator 25.4.1, SVG Export Plug-In . SVG Version: 6.00 Build 0)  -->
<svg version="1.1" id="Layer_1" xmlns="http://www.w3.org/2000/svg" xmlns:xlink="http://www.w3.org/1999/xlink" x="0px" y="0px"
	 viewBox="0 0 283.465 283.465" enable-background="new 0 0 283.465 283.465" xml:space="preserve">
<g>
	<path fill="#B6134C" d="M219.685,283.465H63.78C28.555,283.465,0,254.91,0,219.686V63.78C0,28.556,28.555,0.001,63.78,0.001
		h155.905c35.224,0,63.78,28.555,63.78,63.779v155.906C283.465,254.91,254.909,283.465,219.685,283.465"/>
	<path fill="#FFFFFF" d="M141.945,220.284c-43.812,0-64.861-20.201-64.861-60.604V66.538h33.176v92.081
		c0,19.775,8.718,34.658,32.324,34.658c23.394,0,31.472-14.883,31.472-34.658V66.538h32.325v93.142
		C206.381,200.083,186.388,220.284,141.945,220.284"/>
</g>
</svg>
