<?xml version="1.0" encoding="utf-8"?>
<!-- Generator: Adobe Illustrator 25.4.1, SVG Export Plug-In . SVG Version: 6.00 Build 0)  -->
<svg version="1.1" id="Layer_1" xmlns="http://www.w3.org/2000/svg" xmlns:xlink="http://www.w3.org/1999/xlink" x="0px" y="0px"
	 viewBox="0 0 283.465 283.465" enable-background="new 0 0 283.465 283.465" xml:space="preserve">
<g>
	<path fill="#00B297" d="M219.685,283.465H63.78c-35.225,0-63.78-28.556-63.78-63.78V63.779C0,28.555,28.555,0,63.78,0h155.905
		c35.225,0,63.779,28.555,63.779,63.779v155.906C283.464,254.909,254.91,283.465,219.685,283.465"/>
	<path fill="#FFFFFF" d="M175.761,216.67l-54.022-74.641c-7.652-10.422-11.692-19.561-12.97-22.966h-0.426v97.607H77.51V66.537
		h30.406l53.17,77.405c8.079,11.698,12.97,20.415,13.822,24.029h0.427V66.537h30.619V216.67H175.761z"/>
</g>
</svg>
