<svg xmlns="http://www.w3.org/2000/svg" viewBox="0 0 283.46 283.46"><defs><style>.cls-1{fill:#25303b;}.cls-2{fill:#9b9842;}</style></defs><g id="Layer_2" data-name="Layer 2"><g id="Layer_1-2" data-name="Layer 1"><path class="cls-1" d="M67.45,107.6v89.55H43.32V107.6H9.75V88H101V107.6Zm88,89.55V111.31c-6.65,5.25-17.17,10.36-24.44,13.61l-7.42-16.71c11.44-4.8,25.21-12.06,36-20.26h19v109.2Zm78.23,2.93c-33,0-39.44-32.48-39.44-57.68s7.12-57.7,40.06-57.7,39.45,32.48,39.45,57.7-7.12,57.68-40.07,57.68m.31-97c-15.78,0-16.24,28.15-16.24,39.3,0,11,.78,39.43,16.24,39.43s16.09-28.61,16.09-39.43c0-11.46-.46-39.3-16.09-39.3"/><path class="cls-2" d="M269.29,42.52H14.17A14.18,14.18,0,0,1,0,28.35V14.17A14.18,14.18,0,0,1,14.17,0H269.29a14.17,14.17,0,0,1,14.17,14.17V28.35a14.17,14.17,0,0,1-14.17,14.17m14.17,226.77V255.12a14.17,14.17,0,0,0-14.17-14.18H14.17A14.18,14.18,0,0,0,0,255.12v14.17a14.17,14.17,0,0,0,14.17,14.17H269.29a14.16,14.16,0,0,0,14.17-14.17"/></g></g></svg>