<?xml version="1.0" encoding="utf-8"?>
<!-- Generator: Adobe Illustrator 25.4.1, SVG Export Plug-In . SVG Version: 6.00 Build 0)  -->
<svg version="1.1" id="Layer_1" xmlns="http://www.w3.org/2000/svg" xmlns:xlink="http://www.w3.org/1999/xlink" x="0px" y="0px"
	 viewBox="0 0 311.811 311.809" enable-background="new 0 0 311.811 311.809" xml:space="preserve">
<g>
	<path fill="#FFFFFF" d="M28.348,311.809C12.718,311.809,0,299.094,0,283.461V28.345C0,12.715,12.718,0,28.348,0h255.116
		c15.63,0,28.347,12.715,28.347,28.345v255.116c0,15.633-12.717,28.348-28.347,28.348H28.348z"/>
	<path fill="#25303B" d="M118.575,122.324v89.551h-24.13v-89.551H60.878v-19.646h91.255v19.646H118.575z M211.96,214.813
		c-24.281,0-38.05-14.542-38.05-31.089c0-14.534,8.193-23.66,18.714-29.076c-9.437-5.877-15.315-13.298-15.315-24.591
		c0-18.102,16.398-30.628,35.112-30.628c19.176,0,35.112,9.436,35.112,28.151c0,10.21-5.255,18.874-15.465,25.054
		c10.05,4.794,18.865,14.08,18.865,28.462C250.933,201.825,234.385,214.813,211.96,214.813 M210.104,162.23
		c-7.12,2.779-14.231,10.512-14.231,19.017c0,8.976,5.878,17.48,16.397,17.48c10.36,0,16.087-7.271,16.087-15.926
		C228.357,172.901,219.381,166.864,210.104,162.23 M212.732,115.204c-8.505,0-13.92,5.265-13.92,12.838
		c0,8.975,8.966,14.542,15.927,17.48c5.725-2.628,11.914-9.748,11.914-16.548C226.653,121.392,221.699,115.204,212.732,115.204"/>
	<path fill="#9B9842" d="M283.465,57.434H28.347c-7.828,0-14.174-6.346-14.174-14.173V29.087c0-7.827,6.346-14.173,14.174-14.173
		h255.118c7.827,0,14.173,6.346,14.173,14.173v14.174C297.638,51.088,291.292,57.434,283.465,57.434 M297.638,284.205v-14.173
		c0-7.828-6.346-14.173-14.173-14.173H28.347c-7.828,0-14.174,6.345-14.174,14.173v14.173c0,7.828,6.346,14.174,14.174,14.174
		h255.118C291.292,298.379,297.638,292.033,297.638,284.205"/>
</g>
</svg>
