<?xml version="1.0" encoding="utf-8"?>
<!-- Generator: Adobe Illustrator 25.4.1, SVG Export Plug-In . SVG Version: 6.00 Build 0)  -->
<svg version="1.1" id="Layer_1" xmlns="http://www.w3.org/2000/svg" xmlns:xlink="http://www.w3.org/1999/xlink" x="0px" y="0px"
	 viewBox="0 0 311.811 311.809" enable-background="new 0 0 311.811 311.809" xml:space="preserve">
<g>
	<path fill="#FFFFFF" d="M28.347,311.809C12.717,311.809,0,299.094,0,283.462V28.346C0,12.716,12.717,0,28.347,0h255.117
		c15.63,0,28.347,12.716,28.347,28.346v255.116c0,15.632-12.717,28.347-28.347,28.347H28.347z"/>
	<path fill="#25303B" d="M81.62,121.625v89.551H57.49v-89.551H23.923v-19.647h91.255v19.647H81.62z M169.591,211.176v-85.84
		c-6.649,5.255-17.17,10.36-24.441,13.609l-7.422-16.708c11.444-4.793,25.214-12.056,36.035-20.259h19.025v109.198H169.591z
		 M247.822,214.114c-32.946,0-39.435-32.484-39.435-57.688c0-25.213,7.111-57.697,40.057-57.697
		c32.945,0,39.444,32.484,39.444,57.697C287.888,181.63,280.768,214.114,247.822,214.114 M248.133,117.133
		c-15.776,0-16.237,28.151-16.237,39.293c0,10.981,0.772,39.436,16.237,39.436c15.465,0,16.087-28.614,16.087-39.436
		C264.22,144.974,263.758,117.133,248.133,117.133"/>
	<path fill="#9B9842" d="M283.464,56.549H28.347c-7.828,0-14.174-6.346-14.174-14.173V28.202c0-7.827,6.346-14.173,14.174-14.173
		h255.117c7.828,0,14.174,6.346,14.174,14.173v14.174C297.638,50.203,291.292,56.549,283.464,56.549 M297.638,283.32v-14.173
		c0-7.828-6.346-14.173-14.174-14.173H28.347c-7.828,0-14.174,6.345-14.174,14.173v14.173c0,7.828,6.346,14.174,14.174,14.174
		h255.117C291.292,297.494,297.638,291.148,297.638,283.32"/>
</g>
</svg>
