<?xml version="1.0" encoding="utf-8"?>
<!-- Generator: Adobe Illustrator 25.4.1, SVG Export Plug-In . SVG Version: 6.00 Build 0)  -->
<svg version="1.1" id="Layer_1" xmlns="http://www.w3.org/2000/svg" xmlns:xlink="http://www.w3.org/1999/xlink" x="0px" y="0px"
	 viewBox="0 0 311.811 311.809" enable-background="new 0 0 311.811 311.809" xml:space="preserve">
<g>
	<defs>
		<rect id="SVGID_1_" width="311.811" height="311.809"/>
	</defs>
	<clipPath id="SVGID_00000070115463924114051600000018362137114337729441_">
		<use xlink:href="#SVGID_1_"  overflow="visible"/>
	</clipPath>
	<path clip-path="url(#SVGID_00000070115463924114051600000018362137114337729441_)" fill="#FFFFFF" d="M28.347,311.809
		C12.717,311.809,0,299.094,0,283.461V28.345C0,12.715,12.717,0,28.347,0h255.116c15.63,0,28.348,12.715,28.348,28.345v255.116
		c0,15.633-12.718,28.348-28.348,28.348H28.347z"/>
	<path clip-path="url(#SVGID_00000070115463924114051600000018362137114337729441_)" fill="#25303B" d="M129.17,122.328v89.551
		h-24.131v-89.551H71.473v-19.647h91.255v19.647H129.17z M217.14,211.879v-85.84c-6.649,5.255-17.169,10.361-24.44,13.61
		l-7.422-16.708c11.443-4.794,25.213-12.057,36.035-20.26h19.025v109.198H217.14z"/>
	<path clip-path="url(#SVGID_00000070115463924114051600000018362137114337729441_)" fill="#006FB6" d="M283.465,57.434H28.346
		c-7.827,0-14.173-6.346-14.173-14.173V29.087c0-7.827,6.346-14.173,14.173-14.173h255.119c7.827,0,14.173,6.346,14.173,14.173
		v14.174C297.638,51.088,291.292,57.434,283.465,57.434 M297.638,284.205v-14.173c0-7.828-6.346-14.173-14.173-14.173H28.346
		c-7.827,0-14.173,6.345-14.173,14.173v14.173c0,7.828,6.346,14.174,14.173,14.174h255.119
		C291.292,298.379,297.638,292.033,297.638,284.205"/>
</g>
</svg>
