<svg xmlns="http://www.w3.org/2000/svg" viewBox="0 0 283.46 283.46"><defs><style>.cls-1{fill:#25303b;}.cls-2{fill:#f58f53;}</style></defs><g id="Layer_2" data-name="Layer 2"><g id="Layer_1-2" data-name="Layer 1"><path class="cls-1" d="M81,107.46V197H56.85V107.46H23.28V87.81h91.26v19.65ZM169,197V111.17c-6.65,5.26-17.17,10.36-24.44,13.61l-7.42-16.71c11.44-4.79,25.21-12,36-20.26h19V197Zm68,0V111.17c-6.65,5.26-17.17,10.36-24.44,13.61l-7.42-16.71c11.44-4.79,25.21-12,36-20.26h19V197Z"/><path class="cls-2" d="M269.29,42.52H14.17A14.18,14.18,0,0,1,0,28.35V14.17A14.18,14.18,0,0,1,14.17,0H269.29a14.17,14.17,0,0,1,14.17,14.17V28.35a14.17,14.17,0,0,1-14.17,14.17m14.17,226.77V255.12a14.17,14.17,0,0,0-14.17-14.18H14.17A14.18,14.18,0,0,0,0,255.12v14.17a14.17,14.17,0,0,0,14.17,14.17H269.29a14.16,14.16,0,0,0,14.17-14.17"/></g></g></svg>