<?xml version="1.0" encoding="utf-8"?>
<!-- Generator: Adobe Illustrator 25.4.1, SVG Export Plug-In . SVG Version: 6.00 Build 0)  -->
<svg version="1.1" id="Layer_1" xmlns="http://www.w3.org/2000/svg" xmlns:xlink="http://www.w3.org/1999/xlink" x="0px" y="0px"
	 viewBox="0 0 311.811 311.809" enable-background="new 0 0 311.811 311.809" xml:space="preserve">
<g>
	<path fill="#FFFFFF" d="M28.348,311.809C12.718,311.809,0,299.094,0,283.461V28.345C0,12.715,12.718,0,28.348,0h255.116
		c15.63,0,28.347,12.715,28.347,28.345v255.116c0,15.633-12.717,28.348-28.347,28.348H28.348z"/>
	<path fill="#25303B" d="M120.043,122.328v89.551h-24.13v-89.551H62.347v-19.646h91.255v19.646H120.043z M208.014,214.507
		c-12.687,0-22.425-2.779-30.779-7.884l8.815-17.018c6.037,4.18,12.225,6.96,20.73,6.96s19.176-5.105,19.176-17.943
		c0-7.884-5.255-18.714-25.364-19.025c-6.188,0-13.459-0.151-17.019-0.151l4.333-56.764h57.386v18.252h-39.284l-1.554,20.721
		c0.622,0,2.015,0.16,3.098,0.16c29.848,1.394,41.913,18.253,41.913,34.641C249.465,197.337,232.916,214.507,208.014,214.507"/>
	<path fill="#65318F" d="M283.465,57.434H28.347c-7.828,0-14.173-6.346-14.173-14.173V29.087c0-7.827,6.345-14.173,14.173-14.173
		h255.118c7.828,0,14.173,6.346,14.173,14.173v14.174C297.638,51.088,291.293,57.434,283.465,57.434 M297.638,284.205v-14.173
		c0-7.828-6.345-14.173-14.173-14.173H28.347c-7.828,0-14.173,6.345-14.173,14.173v14.173c0,7.828,6.345,14.174,14.173,14.174
		h255.118C291.293,298.379,297.638,292.033,297.638,284.205"/>
</g>
</svg>
