<?xml version="1.0" encoding="utf-8"?>
<!-- Generator: Adobe Illustrator 25.4.1, SVG Export Plug-In . SVG Version: 6.00 Build 0)  -->
<svg version="1.1" id="Layer_1" xmlns="http://www.w3.org/2000/svg" xmlns:xlink="http://www.w3.org/1999/xlink" x="0px" y="0px"
	 viewBox="0 0 311.811 311.809" enable-background="new 0 0 311.811 311.809" xml:space="preserve">
<g>
	<path fill="#FFFFFF" d="M28.347,311.809C12.717,311.809,0,299.094,0,283.461V28.345C0,12.715,12.717,0,28.347,0h255.116
		c15.63,0,28.347,12.715,28.347,28.345v255.116c0,15.633-12.717,28.348-28.347,28.348H28.347z"/>
	<path fill="#25303B" d="M120.119,122.328v89.551h-24.13v-89.551H62.422v-19.647h91.255v19.647H120.119z M178.553,211.879v-14.383
		c2.779-12.686,15.305-24.28,29.847-36.967c7.271-6.338,15.154-14.231,15.154-24.752c0-9.427-6.187-17.32-18.092-17.32
		c-9.589,0-16.238,6.96-18.875,9.899l-11.443-15.155c10.52-9.126,20.259-13.459,34.961-13.459c19.176,0,37.269,11.142,37.269,33.408
		c0,18.714-11.905,27.53-25.053,39.444c-5.567,5.105-16.549,14.693-17.942,21.032h45.01v18.253H178.553z"/>
	<path fill="#B94E9A" d="M283.465,57.434H28.347c-7.828,0-14.173-6.346-14.173-14.173V29.087c0-7.827,6.345-14.173,14.173-14.173
		h255.118c7.828,0,14.173,6.346,14.173,14.173v14.174C297.638,51.088,291.293,57.434,283.465,57.434 M297.638,284.205v-14.173
		c0-7.828-6.345-14.173-14.173-14.173H28.347c-7.828,0-14.173,6.345-14.173,14.173v14.173c0,7.828,6.345,14.174,14.173,14.174
		h255.118C291.293,298.379,297.638,292.033,297.638,284.205"/>
</g>
</svg>
