<?xml version="1.0" encoding="utf-8"?>
<!-- Generator: Adobe Illustrator 25.4.1, SVG Export Plug-In . SVG Version: 6.00 Build 0)  -->
<svg version="1.1" id="Layer_1" xmlns="http://www.w3.org/2000/svg" xmlns:xlink="http://www.w3.org/1999/xlink" x="0px" y="0px"
	 viewBox="0 0 311.811 311.809" enable-background="new 0 0 311.811 311.809" xml:space="preserve">
<g>
	<path fill="#FFFFFF" d="M28.348,311.809C12.717,311.809,0,299.094,0,283.461V28.345C0,12.715,12.717,0,28.348,0h255.116
		c15.63,0,28.347,12.715,28.347,28.345v255.116c0,15.633-12.717,28.348-28.347,28.348H28.348z"/>
	<path fill="#25303B" d="M84.483,121.343v89.551h-24.13v-89.551H26.786v-19.646h91.255v19.646H84.483z M172.453,210.894v-85.84
		c-6.65,5.256-17.169,10.361-24.441,13.61l-7.421-16.708c11.443-4.794,25.212-12.056,36.035-20.259h19.025v109.197H172.453z
		 M242.491,213.522c-15.616,0-24.281-3.862-31.552-8.194l8.505-16.86c4.643,3.25,12.225,7.112,21.502,7.112
		c12.687,0,20.569-7.422,20.569-16.7c0-12.526-9.587-16.858-20.72-16.858h-11.292v-18.103h11.443c10.671,0,17.32-5.566,17.32-13.919
		c0-6.961-5.255-13.3-16.699-13.3c-10.058,0-16.708,4.795-20.267,7.892l-7.884-16.086c9.277-6.188,19.336-9.748,33.096-9.748
		c22.275,0,34.953,13.299,34.953,27.841c0,11.292-6.029,20.259-17.632,24.592v0.31c12.065,2.318,21.191,11.604,21.191,26.909
		C285.024,197.595,267.854,213.522,242.491,213.522"/>
	<path fill="#8D653D" d="M283.464,56.406H28.347c-7.828,0-14.174-6.346-14.174-14.173V28.059c0-7.827,6.346-14.173,14.174-14.173
		h255.117c7.828,0,14.174,6.346,14.174,14.173v14.174C297.638,50.06,291.292,56.406,283.464,56.406 M297.638,283.177v-14.173
		c0-7.828-6.346-14.173-14.174-14.173H28.347c-7.828,0-14.174,6.345-14.174,14.173v14.173c0,7.828,6.346,14.174,14.174,14.174
		h255.117C291.292,297.351,297.638,291.005,297.638,283.177"/>
</g>
</svg>
