<svg xmlns="http://www.w3.org/2000/svg" viewBox="0 0 283.46 283.46"><defs><style>.cls-1{fill:#25303b;}.cls-2{fill:#8d653d;}</style></defs><g id="Layer_2" data-name="Layer 2"><g id="Layer_1-2" data-name="Layer 1"><path class="cls-1" d="M70.31,107.46V197H46.18V107.46H12.61V87.81h91.26v19.65Zm88,89.55V111.17c-6.65,5.25-17.17,10.36-24.44,13.61l-7.42-16.71c11.44-4.79,25.21-12.06,36-20.26h19V197Zm70,2.63c-15.62,0-24.28-3.87-31.55-8.2l8.5-16.86a38.06,38.06,0,0,0,21.5,7.11c12.69,0,20.57-7.42,20.57-16.7,0-12.52-9.58-16.85-20.72-16.85H215.33V130h11.44c10.67,0,17.32-5.56,17.32-13.92,0-7-5.25-13.3-16.7-13.3a30.22,30.22,0,0,0-20.26,7.9l-7.89-16.09c9.28-6.19,19.34-9.75,33.1-9.75,22.27,0,35,13.3,35,27.84,0,11.29-6,20.26-17.63,24.59v.31c12.07,2.32,21.19,11.61,21.19,26.91,0,19.19-17.17,35.12-42.53,35.12"/><path class="cls-2" d="M269.29,42.52H14.17A14.18,14.18,0,0,1,0,28.35V14.17A14.18,14.18,0,0,1,14.17,0H269.29a14.17,14.17,0,0,1,14.17,14.17V28.35a14.17,14.17,0,0,1-14.17,14.17m14.17,226.77V255.12a14.17,14.17,0,0,0-14.17-14.18H14.17A14.18,14.18,0,0,0,0,255.12v14.17a14.17,14.17,0,0,0,14.17,14.17H269.29a14.16,14.16,0,0,0,14.17-14.17"/></g></g></svg>