<?xml version="1.0" encoding="utf-8"?>
<!-- Generator: Adobe Illustrator 25.4.1, SVG Export Plug-In . SVG Version: 6.00 Build 0)  -->
<svg version="1.1" id="Layer_1" xmlns="http://www.w3.org/2000/svg" xmlns:xlink="http://www.w3.org/1999/xlink" x="0px" y="0px"
	 viewBox="0 0 311.811 311.809" enable-background="new 0 0 311.811 311.809" xml:space="preserve">
<g>
	<path fill="#FFFFFF" d="M28.347,311.809C12.717,311.809,0,299.094,0,283.461V28.345C0,12.715,12.717,0,28.347,0h255.117
		c15.63,0,28.347,12.715,28.347,28.345v255.116c0,15.633-12.717,28.348-28.347,28.348H28.347z"/>
	<path fill="#25303B" d="M117.878,122.328v89.551H93.747v-89.551H60.181v-19.647h91.255v19.647H117.878z M214.202,214.507
		c-29.856,0-40.527-20.722-40.527-49.646c0-37.899,17.791-65.119,52.743-65.119c6.188,0,11.754,0.772,16.397,1.856l-3.4,18.564
		c-2.939-1.243-8.665-2.628-15.004-2.628c-15.313,0-26.446,12.216-28,34.18c3.711-3.25,10.831-7.422,22.585-7.422
		c18.093,0,32.635,11.905,32.635,32.324C251.631,198.42,237.089,214.507,214.202,214.507 M212.036,161.452
		c-6.96,0-12.527,2.637-14.693,6.037c-1.234,1.856-1.234,6.189-1.234,9.438c0,10.36,6.028,20.41,17.161,20.41
		c10.831,0,16.397-8.816,16.397-18.244C229.667,168.883,222.867,161.452,212.036,161.452"/>
	<path fill="#EB2132" d="M283.465,57.434H28.346c-7.827,0-14.172-6.346-14.172-14.173V29.087c0-7.827,6.345-14.173,14.172-14.173
		h255.119c7.827,0,14.173,6.346,14.173,14.173v14.174C297.638,51.088,291.292,57.434,283.465,57.434 M297.638,284.205v-14.173
		c0-7.828-6.346-14.173-14.173-14.173H28.346c-7.827,0-14.172,6.345-14.172,14.173v14.173c0,7.828,6.345,14.174,14.172,14.174
		h255.119C291.292,298.379,297.638,292.033,297.638,284.205"/>
</g>
</svg>
