<?xml version="1.0" encoding="utf-8"?>
<!-- Generator: Adobe Illustrator 25.4.1, SVG Export Plug-In . SVG Version: 6.00 Build 0)  -->
<svg version="1.1" id="Layer_1" xmlns="http://www.w3.org/2000/svg" xmlns:xlink="http://www.w3.org/1999/xlink" x="0px" y="0px"
	 viewBox="0 0 311.811 311.809" enable-background="new 0 0 311.811 311.809" xml:space="preserve">
<g>
	<path fill="#FFFFFF" d="M28.347,311.809C12.717,311.809,0,299.094,0,283.461V28.345C0,12.715,12.717,0,28.347,0h255.116
		c15.63,0,28.348,12.715,28.348,28.345v255.116c0,15.633-12.718,28.348-28.348,28.348H28.347z"/>
	<path fill="#25303B" d="M118.805,121.475v89.551h-24.13v-89.551H61.108v-19.646h91.256v19.646H118.805z M197.96,213.965
		c-6.188,0-11.754-0.773-16.397-1.856l3.408-18.563c2.94,1.243,8.657,2.628,15.004,2.628c15.306,0,26.447-12.216,27.992-34.18
		c-3.711,3.249-10.831,7.431-22.586,7.431c-18.092,0-32.634-11.914-32.634-32.333c0-21.804,14.542-37.891,37.429-37.891
		c29.856,0,40.528,20.73,40.528,49.645C250.704,186.746,232.912,213.965,197.96,213.965 M211.108,116.371
		c-10.831,0-16.397,8.815-16.397,18.253c0,10.2,6.809,17.631,17.631,17.631c6.96,0,12.527-2.628,14.693-6.036
		c1.243-1.856,1.243-6.189,1.243-9.438C228.278,126.421,222.241,116.371,211.108,116.371"/>
	<path fill="#5091CB" d="M283.464,56.55H28.346c-7.827,0-14.173-6.346-14.173-14.174V28.203c0-7.827,6.346-14.173,14.173-14.173
		h255.118c7.828,0,14.174,6.346,14.174,14.173v14.173C297.638,50.204,291.292,56.55,283.464,56.55 M297.638,283.321v-14.173
		c0-7.828-6.346-14.174-14.174-14.174H28.346c-7.827,0-14.173,6.346-14.173,14.174v14.173c0,7.828,6.346,14.173,14.173,14.173
		h255.118C291.292,297.494,297.638,291.149,297.638,283.321"/>
</g>
</svg>
