<svg xmlns="http://www.w3.org/2000/svg" viewBox="0 0 283.46 283.46"><defs><style>.cls-1{fill:#25303b;}.cls-2{fill:#b6134c;}</style></defs><g id="Layer_2" data-name="Layer 2"><g id="Layer_1-2" data-name="Layer 1"><path class="cls-1" d="M70.38,107.46V197H46.25V107.46H12.69V87.81h91.25v19.65Zm88,89.55V111.17c-6.65,5.26-17.17,10.36-24.44,13.61l-7.43-16.71c11.45-4.79,25.22-12,36-20.26h19V197Zm41.58,0V182.63c2.78-12.69,15.31-24.28,29.85-37,7.27-6.34,15.15-14.23,15.15-24.75,0-9.43-6.19-17.32-18.09-17.32-9.59,0-16.24,7-18.88,9.9L196.53,98.33c10.52-9.12,20.26-13.46,35-13.46,19.18,0,37.27,11.15,37.27,33.41,0,18.72-11.9,27.53-25,39.45-5.57,5.1-16.55,14.69-18,21h45V197Z"/><path class="cls-2" d="M269.29,42.52H14.17A14.18,14.18,0,0,1,0,28.35V14.17A14.18,14.18,0,0,1,14.17,0H269.29a14.17,14.17,0,0,1,14.17,14.17V28.35a14.17,14.17,0,0,1-14.17,14.17m14.17,226.77V255.12a14.17,14.17,0,0,0-14.17-14.18H14.17A14.18,14.18,0,0,0,0,255.12v14.17a14.17,14.17,0,0,0,14.17,14.17H269.29a14.16,14.16,0,0,0,14.17-14.17"/></g></g></svg>