<?xml version="1.0" encoding="utf-8"?>
<!-- Generator: Adobe Illustrator 25.4.1, SVG Export Plug-In . SVG Version: 6.00 Build 0)  -->
<svg version="1.1" id="Layer_1" xmlns="http://www.w3.org/2000/svg" xmlns:xlink="http://www.w3.org/1999/xlink" x="0px" y="0px"
	 viewBox="0 0 311.811 311.809" enable-background="new 0 0 311.811 311.809" xml:space="preserve">
<g>
	<path fill="#FFFFFF" d="M28.347,311.809c-15.63,0-28.348-12.715-28.348-28.348V28.345C-0.001,12.715,12.717,0,28.347,0h255.116
		c15.63,0,28.347,12.715,28.347,28.345v255.116c0,15.633-12.717,28.348-28.347,28.348H28.347z"/>
	<path fill="#25303B" d="M170.989,214.641c-15.624,0-24.286-3.862-31.554-8.191l8.505-16.865c4.64,3.249,12.222,7.118,21.501,7.118
		c12.686,0,20.575-7.425,20.575-16.712c0-12.528-9.59-16.857-20.728-16.857h-11.291v-18.1h11.444
		c10.674,0,17.325-5.57,17.325-13.922c0-6.958-5.256-13.303-16.704-13.303c-10.057,0-16.708,4.797-20.264,7.893l-7.888-16.092
		c9.279-6.183,19.336-9.746,33.102-9.746c22.275,0,34.961,13.302,34.961,27.846c0,11.294-6.035,20.266-17.636,24.596v0.307
		c12.065,2.321,21.191,11.601,21.191,26.918C213.528,198.711,196.36,214.641,170.989,214.641 M272.775,190.563
		c-5.834,0-8.747-3.614-9.681-8.506c-5.125,6.06-9.908,9.09-18.421,9.09c-10.958,0-18.42-7.928-18.42-18.537
		c0-16.901,17.723-20.165,31.482-20.165c2.562,0,4.081-0.117,4.081-2.22v-4.081c0-4.424-2.796-8.622-11.426-8.622
		c-7.231,0-12.711,3.38-15.394,5.709l-5.709-11.659c6.877-4.432,14.456-6.41,25.184-6.41c8.739,0,22.852,3.146,22.852,21.099v28.685
		c0,2.212,0.234,4.081,2.212,4.081c0.701,0,1.986-0.35,2.68-0.584l0.934,10.609C280.703,189.636,276.622,190.563,272.775,190.563
		 M261.699,162.587c-1.752-0.117-3.497-0.117-4.899-0.117c-5.709,0-14.343,1.402-14.343,8.863c0,4.542,3.268,7.812,7.816,7.812
		c3.614,0,6.644-1.168,8.747-3.387c1.861-1.979,2.679-4.308,2.679-7.345V162.587z M84.099,122.449V212h-24.13v-89.551H26.402
		v-19.646h91.256v19.646H84.099z"/>
	<path fill="#F58F53" d="M283.465,57.434H28.346c-7.827,0-14.173-6.346-14.173-14.173V29.087c0-7.827,6.346-14.173,14.173-14.173
		h255.119c7.827,0,14.173,6.346,14.173,14.173v14.174C297.638,51.088,291.292,57.434,283.465,57.434 M297.638,284.205v-14.173
		c0-7.828-6.346-14.173-14.173-14.173H28.346c-7.827,0-14.173,6.345-14.173,14.173v14.173c0,7.828,6.346,14.174,14.173,14.174
		h255.119C291.292,298.379,297.638,292.033,297.638,284.205"/>
</g>
</svg>
