<?xml version="1.0" encoding="utf-8"?>
<!-- Generator: Adobe Illustrator 25.4.1, SVG Export Plug-In . SVG Version: 6.00 Build 0)  -->
<svg version="1.1" id="Layer_1" xmlns="http://www.w3.org/2000/svg" xmlns:xlink="http://www.w3.org/1999/xlink" x="0px" y="0px"
	 viewBox="0 0 311.811 311.809" enable-background="new 0 0 311.811 311.809" xml:space="preserve">
<g>
	<path fill="#FFFFFF" d="M28.348,311.809C12.718,311.809,0,299.094,0,283.461V28.345C0,12.715,12.718,0,28.348,0h255.116
		c15.63,0,28.347,12.715,28.347,28.345v255.116c0,15.633-12.717,28.348-28.347,28.348H28.348z"/>
	<path fill="#25303B" d="M118.65,122.324v89.551H94.52v-89.551H60.952v-19.646h91.256v19.646H118.65z M212.346,211.875h-24.902
		c0-14.382,3.862-23.668,13.45-41.45l26.607-49.494h-53.054v-18.253h76.412v17.791C226.879,162.07,212.346,194.705,212.346,211.875"
		/>
	<path fill="#8D653D" d="M283.464,57.434H28.347c-7.828,0-14.174-6.346-14.174-14.173V29.087c0-7.827,6.346-14.173,14.174-14.173
		h255.117c7.828,0,14.174,6.346,14.174,14.173v14.174C297.638,51.088,291.292,57.434,283.464,57.434 M297.638,284.205v-14.173
		c0-7.828-6.346-14.173-14.174-14.173H28.347c-7.828,0-14.174,6.345-14.174,14.173v14.173c0,7.828,6.346,14.174,14.174,14.174
		h255.117C291.292,298.379,297.638,292.033,297.638,284.205"/>
</g>
</svg>
