<?xml version="1.0" encoding="utf-8"?>
<!-- Generator: Adobe Illustrator 25.4.1, SVG Export Plug-In . SVG Version: 6.00 Build 0)  -->
<svg version="1.1" id="Layer_1" xmlns="http://www.w3.org/2000/svg" xmlns:xlink="http://www.w3.org/1999/xlink" x="0px" y="0px"
	 viewBox="0 0 311.811 311.809" enable-background="new 0 0 311.811 311.809" xml:space="preserve">
<g>
	<path fill="#FFFFFF" d="M28.347,311.809C12.717,311.809,0,299.094,0,283.461V28.345C0,12.715,12.717,0,28.347,0h255.116
		c15.63,0,28.347,12.715,28.347,28.345v255.116c0,15.633-12.717,28.348-28.347,28.348H28.347z"/>
	<path fill="#25303B" d="M170.99,214.641c-15.624,0-24.283-3.862-31.555-8.191l8.506-16.865c4.643,3.249,12.222,7.118,21.501,7.118
		c12.689,0,20.574-7.425,20.574-16.712c0-12.528-9.586-16.857-20.727-16.857h-11.287v-18.099h11.44
		c10.674,0,17.325-5.571,17.325-13.923c0-6.958-5.256-13.303-16.704-13.303c-10.053,0-16.705,4.797-20.26,7.893l-7.892-16.092
		c9.279-6.183,19.34-9.746,33.102-9.746c22.275,0,34.964,13.302,34.964,27.846c0,11.294-6.038,20.266-17.639,24.596v0.307
		c12.068,2.321,21.195,11.601,21.195,26.918C213.533,198.711,196.361,214.641,170.99,214.641 M257.505,191.382
		c-4.666,0-10.149-1.863-13.295-4.775v2.796h-15.858v-86.274h16.442v32.175c4.198-6.06,8.98-10.141,16.909-10.141
		c16.317,0,23.078,17.368,23.078,32.408C284.781,171.566,277.436,191.382,257.505,191.382 M255.402,139.385
		c-3.263,0-5.826,1.401-7.578,3.146c-2.797,2.687-3.147,4.432-3.147,8.046v21.106c0,4.308,2.563,8.156,10.024,8.156
		c10.499,0,13.062-11.309,13.062-19.815C267.763,151.628,265.777,139.385,255.402,139.385 M84.1,122.449V212H59.97v-89.551H26.403
		v-19.646h91.255v19.646H84.1z"/>
	<path fill="#008B5B" d="M283.465,57.434H28.347c-7.828,0-14.173-6.346-14.173-14.173V29.087c0-7.827,6.345-14.173,14.173-14.173
		h255.118c7.828,0,14.173,6.346,14.173,14.173v14.174C297.638,51.088,291.293,57.434,283.465,57.434 M297.638,284.205v-14.173
		c0-7.828-6.345-14.173-14.173-14.173H28.347c-7.828,0-14.173,6.345-14.173,14.173v14.173c0,7.828,6.345,14.174,14.173,14.174
		h255.118C291.293,298.379,297.638,292.033,297.638,284.205"/>
</g>
</svg>
