<?xml version="1.0" encoding="utf-8"?>
<!-- Generator: Adobe Illustrator 25.4.1, SVG Export Plug-In . SVG Version: 6.00 Build 0)  -->
<svg version="1.1" id="Layer_1" xmlns="http://www.w3.org/2000/svg" xmlns:xlink="http://www.w3.org/1999/xlink" x="0px" y="0px"
	 viewBox="0 0 311.811 311.809" enable-background="new 0 0 311.811 311.809" xml:space="preserve">
<g>
	<path fill="#FFFFFF" d="M28.347,311.809c-15.63,0-28.348-12.715-28.348-28.348V28.345C-0.001,12.715,12.717,0,28.347,0h255.116
		c15.63,0,28.348,12.715,28.348,28.345v255.116c0,15.633-12.718,28.348-28.348,28.348H28.347z"/>
	<path fill="#25303B" d="M95.154,121.345v89.551h-24.13v-89.551H37.458v-19.646h91.255v19.646H95.154z M183.125,210.896v-85.84
		c-6.65,5.256-17.17,10.361-24.441,13.611l-7.422-16.709c11.444-4.793,25.213-12.056,36.036-20.259h19.025v109.197H183.125z
		 M251.156,210.896v-85.84c-6.649,5.256-17.17,10.361-24.44,13.611l-7.422-16.709c11.443-4.793,25.213-12.056,36.035-20.259h19.024
		v109.197H251.156z"/>
	<path fill="#F58F53" d="M283.465,56.406H28.347c-7.828,0-14.173-6.346-14.173-14.173V28.059c0-7.827,6.345-14.173,14.173-14.173
		h255.118c7.827,0,14.173,6.346,14.173,14.173v14.174C297.638,50.06,291.292,56.406,283.465,56.406 M297.638,283.177v-14.173
		c0-7.828-6.346-14.173-14.173-14.173H28.347c-7.828,0-14.173,6.345-14.173,14.173v14.173c0,7.828,6.345,14.174,14.173,14.174
		h255.118C291.292,297.351,297.638,291.005,297.638,283.177"/>
</g>
</svg>
