<?xml version="1.0" encoding="utf-8"?>
<!-- Generator: Adobe Illustrator 25.4.1, SVG Export Plug-In . SVG Version: 6.00 Build 0)  -->
<svg version="1.1" id="Layer_1" xmlns="http://www.w3.org/2000/svg" xmlns:xlink="http://www.w3.org/1999/xlink" x="0px" y="0px"
	 viewBox="0 0 311.811 311.809" enable-background="new 0 0 311.811 311.809" xml:space="preserve">
<g>
	<path fill="#FFFFFF" d="M28.347,311.809C12.717,311.809,0,299.094,0,283.461V28.345C0,12.715,12.717,0,28.347,0h255.116
		c15.63,0,28.348,12.715,28.348,28.345v255.116c0,15.633-12.718,28.348-28.348,28.348H28.347z"/>
	<path fill="#25303B" d="M116.794,122.329v89.55h-24.13v-89.55H59.097v-19.647h91.255v19.647H116.794z M239.876,189.143v22.736
		h-21.653v-22.736H169.04v-20.26l42.374-66.201h28.462v69.451h12.838v17.01H239.876z M218.223,121.858h-0.311
		c-0.461,1.864-3.56,8.514-7.892,15.314l-22.266,34.961h30.469V121.858z"/>
	<path fill="#DFAF47" d="M283.465,57.434H28.346c-7.827,0-14.173-6.346-14.173-14.173V29.087c0-7.827,6.346-14.173,14.173-14.173
		h255.119c7.827,0,14.173,6.346,14.173,14.173v14.174C297.638,51.088,291.292,57.434,283.465,57.434 M297.638,284.205v-14.173
		c0-7.828-6.346-14.173-14.173-14.173H28.346c-7.827,0-14.173,6.345-14.173,14.173v14.173c0,7.828,6.346,14.174,14.173,14.174
		h255.119C291.292,298.379,297.638,292.033,297.638,284.205"/>
</g>
</svg>
