<?xml version="1.0" encoding="utf-8"?>
<!-- Generator: Adobe Illustrator 25.4.1, SVG Export Plug-In . SVG Version: 6.00 Build 0)  -->
<svg version="1.1" id="Layer_1" xmlns="http://www.w3.org/2000/svg" xmlns:xlink="http://www.w3.org/1999/xlink" x="0px" y="0px"
	 viewBox="0 0 311.811 311.809" enable-background="new 0 0 311.811 311.809" xml:space="preserve">
<g>
	<path fill="#FFFFFF" d="M28.348,311.809C12.718,311.809,0,299.094,0,283.461V28.345C0,12.715,12.718,0,28.348,0h255.116
		c15.63,0,28.347,12.715,28.347,28.345v255.116c0,15.633-12.717,28.348-28.347,28.348H28.348z"/>
	<path fill="#25303B" d="M85.641,121.345v89.551h-24.13v-89.551H27.945v-19.646H119.2v19.646H85.641z M173.612,210.896v-85.84
		c-6.649,5.256-17.17,10.361-24.44,13.611l-7.422-16.709c11.443-4.793,25.213-12.056,36.035-20.259h19.025v109.197H173.612z
		 M215.196,210.896v-14.382c2.778-12.686,15.306-24.281,29.848-36.967c7.27-6.339,15.154-14.231,15.154-24.752
		c0-9.427-6.189-17.32-18.093-17.32c-9.589,0-16.238,6.96-18.875,9.899l-11.443-15.155c10.52-9.127,20.26-13.459,34.961-13.459
		c19.176,0,37.269,11.142,37.269,33.407c0,18.715-11.905,27.531-25.053,39.445c-5.567,5.104-16.548,14.693-17.943,21.031h45.011
		v18.253H215.196z"/>
	<path fill="#B6134C" d="M284.548,56.406H29.43c-7.828,0-14.173-6.346-14.173-14.173V28.059c0-7.827,6.345-14.173,14.173-14.173
		h255.118c7.827,0,14.173,6.346,14.173,14.173v14.174C298.721,50.06,292.375,56.406,284.548,56.406 M298.721,283.177v-14.173
		c0-7.828-6.346-14.173-14.173-14.173H29.43c-7.828,0-14.173,6.345-14.173,14.173v14.173c0,7.828,6.345,14.174,14.173,14.174
		h255.118C292.375,297.351,298.721,291.005,298.721,283.177"/>
</g>
</svg>
